<?xml version="1.0" encoding="UTF-8" standalone="no"?>
<!DOCTYPE svg PUBLIC "-//W3C//DTD SVG 1.1//EN" "http://www.w3.org/Graphics/SVG/1.1/DTD/svg11.dtd">
<svg width="100%" height="100%" viewBox="0 0 137 137" version="1.1" xmlns="http://www.w3.org/2000/svg" xmlns:xlink="http://www.w3.org/1999/xlink" xml:space="preserve" xmlns:serif="http://www.serif.com/" style="fill-rule:evenodd;clip-rule:evenodd;stroke-linejoin:round;stroke-miterlimit:2;">
    <g transform="matrix(1,0,0,1,-494,-351)">
        <g id="btn_tab" transform="matrix(1.01999,0,0,1.02908,494.887,351.159)">
            <rect x="-0" y="0" width="133.335" height="132.158" style="fill:none;"/>
            <g transform="matrix(0.980405,0,0,0.971746,-217.976,-652.118)">
                <g>
                    <g transform="matrix(1,0,0,-1,223.665,805.26)">
                        <path d="M4.822,43.754C3.107,50.135 2.129,56.825 1.205,63.469C-0.023,72.292 -1.129,81.621 2.256,90.366C9.106,108.06 35.509,128.523 53.248,131.772C64.77,133.882 80.587,128.694 90.918,124.912C103.021,120.481 113.628,112.603 121.056,102.144C132.892,85.479 136.448,62.552 130.516,41.146C128.444,33.67 125.187,26.251 119.976,20.278C113.18,12.489 103.635,7.789 94.116,4.727C77.42,-0.644 59.617,-1.622 43.887,3.307C28.156,8.236 14.683,19.302 8.034,34.46C6.722,37.451 5.68,40.564 4.822,43.754" style="fill:white;fill-rule:nonzero;"/>
                    </g>
                    <g transform="matrix(1,0,0,-1,223.665,816.921)">
                        <path d="M37.156,70.211C37.016,70.211 36.874,70.234 36.735,70.283C36.071,70.516 35.721,71.242 35.954,71.906C36.049,72.178 36.149,72.452 36.252,72.722C36.502,73.38 37.238,73.71 37.895,73.46C38.553,73.21 38.883,72.474 38.633,71.816C38.538,71.567 38.446,71.314 38.358,71.064C38.175,70.54 37.682,70.211 37.156,70.211" style="fill:rgb(254,187,8);fill-rule:nonzero;"/>
                    </g>
                    <g transform="matrix(1,0,0,-1,223.665,818.385)">
                        <path d="M101.254,70.347C101.221,70.347 101.188,70.348 101.155,70.351C100.453,70.405 99.928,71.017 99.982,71.719C100.035,72.405 100.077,73.103 100.107,73.791C100.138,74.494 100.732,75.038 101.435,75.009C102.138,74.978 102.683,74.383 102.653,73.681C102.621,72.964 102.578,72.238 102.523,71.523C102.471,70.855 101.913,70.347 101.254,70.347" style="fill:rgb(254,187,8);fill-rule:nonzero;"/>
                    </g>
                    <g transform="matrix(1,0,0,-1,223.665,787.317)">
                        <path d="M101.354,47.445C100.681,47.445 100.118,47.973 100.083,48.653C99.792,54.241 98.76,59.756 97.014,65.042C96.794,65.711 97.157,66.431 97.825,66.651C98.493,66.872 99.213,66.509 99.434,65.841C101.25,60.339 102.325,54.6 102.627,48.785C102.664,48.083 102.124,47.483 101.421,47.447C101.399,47.446 101.376,47.445 101.354,47.445" style="fill:rgb(254,187,8);fill-rule:nonzero;"/>
                    </g>
                    <g transform="matrix(1,0,0,-1,223.665,746.164)">
                        <path d="M95.897,29.034C95.409,29.034 94.944,29.316 94.732,29.79C94.567,30.163 94.394,30.541 94.22,30.914C92.268,35.082 89.32,38.811 85.693,41.699C85.143,42.137 85.052,42.938 85.49,43.489C85.928,44.039 86.73,44.13 87.28,43.692C91.213,40.561 94.41,36.516 96.527,31.994C96.708,31.607 96.888,31.214 97.06,30.826C97.346,30.183 97.057,29.43 96.414,29.144C96.246,29.07 96.07,29.034 95.897,29.034" style="fill:rgb(254,187,8);fill-rule:nonzero;"/>
                    </g>
                    <g transform="matrix(1,0,0,-1,223.665,723.903)">
                        <path d="M81.7,22.31C81.497,22.31 81.291,22.359 81.099,22.461C77.172,24.565 72.762,25.793 68.346,26.012C67.643,26.047 67.101,26.645 67.136,27.348C67.171,28.05 67.767,28.593 68.472,28.557C73.263,28.32 78.045,26.988 82.303,24.707C82.923,24.375 83.156,23.603 82.824,22.983C82.594,22.554 82.154,22.31 81.7,22.31" style="fill:rgb(254,187,8);fill-rule:nonzero;"/>
                    </g>
                    <g transform="matrix(1,0,0,-1,223.665,727.882)">
                        <path d="M46.335,22.424C45.976,22.424 45.619,22.575 45.367,22.869C44.909,23.403 44.971,24.207 45.505,24.665C47.752,26.592 50.268,28.214 52.982,29.485C56.256,31.018 59.719,31.993 63.275,32.381C63.974,32.458 64.603,31.953 64.679,31.253C64.756,30.554 64.251,29.925 63.551,29.849C60.275,29.491 57.083,28.592 54.063,27.177C51.557,26.004 49.236,24.508 47.164,22.731C46.923,22.525 46.628,22.424 46.335,22.424" style="fill:rgb(254,187,8);fill-rule:nonzero;"/>
                    </g>
                    <g transform="matrix(1,0,0,-1,223.665,774.63)">
                        <path d="M37.826,33.17C37.327,33.17 36.854,33.464 36.65,33.952C33.475,41.534 33.271,49.977 36.077,57.726C37.432,61.466 39.411,64.876 41.961,67.861C42.417,68.397 43.222,68.46 43.757,68.003C44.292,67.546 44.354,66.742 43.898,66.207C41.549,63.455 39.723,60.31 38.473,56.859C35.886,49.712 36.073,41.927 39,34.936C39.271,34.287 38.966,33.541 38.318,33.269C38.157,33.202 37.99,33.17 37.826,33.17" style="fill:rgb(254,187,8);fill-rule:nonzero;"/>
                    </g>
                    <g transform="matrix(1,0,0,-1,223.665,795.304)">
                        <path d="M40.616,44.431C40.519,44.431 40.42,44.442 40.321,44.466C39.636,44.628 39.213,45.315 39.375,45.999C39.815,47.851 40.448,49.672 41.258,51.41C41.49,51.909 41.757,52.694 41.71,53.603C41.681,54.165 41.537,54.725 41.282,55.269C38.082,62.103 37.735,69.774 40.305,76.869C40.545,77.531 41.275,77.873 41.937,77.633C42.598,77.394 42.94,76.663 42.701,76.002C40.363,69.546 40.678,62.567 43.59,56.349C43.984,55.507 44.208,54.627 44.254,53.735C44.329,52.303 43.922,51.095 43.567,50.334C42.83,48.752 42.254,47.095 41.854,45.411C41.715,44.825 41.193,44.431 40.616,44.431" style="fill:rgb(254,187,8);fill-rule:nonzero;"/>
                    </g>
                    <g transform="matrix(1,0,0,-1,223.665,791.592)">
                        <path d="M96.122,38.571C96.052,38.571 95.981,38.577 95.91,38.589C95.216,38.705 94.748,39.362 94.864,40.056C95.566,44.245 95.811,48.497 95.593,52.695C95.2,60.243 93.368,67.558 90.148,74.436C89.593,75.621 88.94,76.773 88.208,77.86C87.815,78.444 87.97,79.235 88.553,79.628C89.137,80.021 89.929,79.867 90.322,79.283C91.127,78.087 91.845,76.82 92.455,75.516C95.816,68.339 97.727,60.706 98.137,52.827C98.365,48.445 98.11,44.006 97.377,39.635C97.273,39.012 96.733,38.571 96.122,38.571" style="fill:rgb(254,187,8);fill-rule:nonzero;"/>
                    </g>
                    <g transform="matrix(1,0,0,-1,223.665,743.932)">
                        <path d="M42.801,26.802C42.608,26.802 42.412,26.846 42.228,26.939C41.6,27.256 41.348,28.022 41.665,28.65C44.525,34.321 49.097,38.751 54.888,41.462C58.666,43.232 62.696,44.13 66.866,44.13C74.863,44.13 82.533,40.698 87.91,34.715C88.38,34.191 88.337,33.386 87.814,32.915C87.29,32.445 86.485,32.488 86.015,33.012C81.12,38.458 74.141,41.582 66.866,41.582C63.072,41.582 59.406,40.765 55.969,39.155C50.7,36.688 46.54,32.659 43.94,27.503C43.715,27.058 43.267,26.802 42.801,26.802" style="fill:rgb(254,187,8);fill-rule:nonzero;"/>
                    </g>
                    <g transform="matrix(1,0,0,-1,223.665,765.713)">
                        <path d="M44.595,33.243C43.971,33.243 43.426,33.702 43.335,34.338C42.794,38.143 43.208,42.089 44.533,45.747C46.694,51.713 51.049,56.481 56.795,59.172C57.432,59.47 58.191,59.195 58.489,58.558C58.787,57.921 58.513,57.163 57.876,56.864C52.745,54.462 48.858,50.206 46.929,44.88C45.745,41.612 45.375,38.091 45.858,34.697C45.957,34 45.473,33.355 44.776,33.256C44.715,33.247 44.655,33.243 44.595,33.243" style="fill:rgb(254,187,8);fill-rule:nonzero;"/>
                    </g>
                    <g transform="matrix(1,0,0,-1,223.665,818.912)">
                        <path d="M44.389,61.651C43.691,61.651 43.122,62.214 43.115,62.914C43.084,66.457 43.83,69.89 45.334,73.12C45.782,74.081 46.296,75.612 46.2,77.445C46.141,78.589 45.856,79.712 45.355,80.783C45.112,81.301 44.886,81.832 44.682,82.362C44.43,83.019 44.758,83.756 45.414,84.008C46.071,84.261 46.808,83.933 47.061,83.276C47.243,82.802 47.445,82.327 47.662,81.864C48.304,80.493 48.668,79.051 48.745,77.577C48.867,75.221 48.214,73.268 47.644,72.044C46.301,69.161 45.635,66.097 45.663,62.936C45.669,62.233 45.104,61.657 44.401,61.651L44.389,61.651" style="fill:rgb(254,187,8);fill-rule:nonzero;"/>
                    </g>
                    <g transform="matrix(1,0,0,-1,223.665,830.963)">
                        <path d="M89.161,69.023C89.018,69.023 88.872,69.047 88.73,69.098C88.068,69.337 87.724,70.066 87.962,70.728C89.93,76.199 91.004,81.903 91.155,87.681C91.174,88.384 91.759,88.94 92.462,88.921C93.165,88.903 93.721,88.317 93.702,87.614C93.544,81.564 92.419,75.593 90.36,69.866C90.173,69.347 89.683,69.023 89.161,69.023" style="fill:rgb(254,187,8);fill-rule:nonzero;"/>
                    </g>
                    <g transform="matrix(1,0,0,-1,223.665,771.638)">
                        <path d="M92.374,31.299C91.701,31.299 91.138,31.827 91.103,32.507C90.74,39.473 89.049,46.225 86.076,52.575C82.601,59.996 75.061,64.791 66.866,64.791C65.308,64.791 63.759,64.622 62.261,64.289C61.574,64.136 60.894,64.568 60.741,65.255C60.588,65.942 61.021,66.623 61.707,66.776C63.387,67.15 65.122,67.339 66.866,67.339C76.046,67.339 84.492,61.968 88.383,53.655C91.497,47.006 93.268,39.935 93.647,32.639C93.684,31.937 93.144,31.337 92.441,31.301C92.419,31.3 92.396,31.299 92.374,31.299" style="fill:rgb(254,187,8);fill-rule:nonzero;"/>
                    </g>
                    <g transform="matrix(1,0,0,-1,223.665,753.063)">
                        <path d="M53.582,35.87C53.275,35.87 52.967,35.98 52.723,36.203C52.204,36.678 52.167,37.484 52.642,38.003C54.346,39.868 56.385,41.364 58.702,42.45C61.278,43.656 64.025,44.268 66.866,44.268C72.203,44.268 77.358,42.01 81.008,38.074C81.487,37.558 81.456,36.752 80.941,36.273C80.425,35.795 79.619,35.825 79.14,36.341C75.97,39.76 71.496,41.72 66.866,41.72C64.401,41.72 62.018,41.189 59.783,40.142C57.77,39.2 56,37.902 54.523,36.285C54.272,36.01 53.927,35.87 53.582,35.87" style="fill:rgb(254,187,8);fill-rule:nonzero;"/>
                    </g>
                    <g transform="matrix(1,0,0,-1,223.665,791.809)">
                        <path d="M51.319,44.269C51.195,44.269 51.069,44.287 50.944,44.326C50.272,44.533 49.894,45.245 50.101,45.918C50.573,47.452 50.771,49.019 50.69,50.575C50.6,52.302 50.175,53.988 49.427,55.587C47.245,60.246 47.008,65.475 48.76,70.312C49.194,71.51 49.745,72.665 50.396,73.744C50.76,74.346 51.543,74.54 52.146,74.176C52.748,73.812 52.941,73.029 52.578,72.427C52.011,71.49 51.533,70.486 51.156,69.445C49.636,65.248 49.841,60.71 51.734,56.668C52.623,54.769 53.128,52.764 53.235,50.708C53.331,48.853 53.096,46.989 52.536,45.169C52.368,44.621 51.864,44.269 51.319,44.269" style="fill:rgb(254,187,8);fill-rule:nonzero;"/>
                    </g>
                    <g transform="matrix(1,0,0,-1,223.665,838.967)">
                        <path d="M49.469,77.347C48.903,77.347 48.387,77.727 48.237,78.3C47.451,81.311 47.407,84.495 48.108,87.509C48.268,88.194 48.952,88.62 49.638,88.46C50.323,88.301 50.749,87.616 50.59,86.931C49.982,84.318 50.021,81.556 50.703,78.943C50.88,78.262 50.472,77.566 49.791,77.389C49.684,77.36 49.575,77.347 49.469,77.347" style="fill:rgb(254,187,8);fill-rule:nonzero;"/>
                    </g>
                    <g transform="matrix(1,0,0,-1,223.665,854.333)">
                        <path d="M82.837,88.963C82.639,88.963 82.439,89.009 82.251,89.106C81.627,89.43 81.383,90.199 81.707,90.824C81.814,91.03 81.919,91.243 82.018,91.456C82.315,92.093 83.073,92.37 83.711,92.072C84.349,91.775 84.625,91.017 84.327,90.379C84.213,90.134 84.093,89.889 83.969,89.651C83.742,89.214 83.298,88.963 82.837,88.963" style="fill:rgb(254,187,8);fill-rule:nonzero;"/>
                    </g>
                    <g transform="matrix(1,0,0,-1,223.665,804.499)">
                        <path d="M85.049,44.414C84.909,44.414 84.766,44.437 84.626,44.487C83.962,44.72 83.614,45.447 83.847,46.111C85.987,52.192 86.943,58.771 86.612,65.134C86.28,71.518 84.729,77.707 82.003,83.529C81.772,84.023 81.514,84.511 81.235,84.979C80.875,85.583 81.073,86.365 81.677,86.725C82.282,87.085 83.064,86.887 83.424,86.283C83.746,85.742 84.044,85.179 84.311,84.61C87.177,78.488 88.807,71.98 89.157,65.267C89.505,58.574 88.5,51.657 86.251,45.265C86.066,44.742 85.574,44.414 85.049,44.414" style="fill:rgb(254,187,8);fill-rule:nonzero;"/>
                    </g>
                    <g transform="matrix(1,0,0,-1,223.665,775.962)">
                        <path d="M82.828,40.344C82.216,40.344 81.677,40.786 81.573,41.409C80.904,45.424 79.679,49.353 77.931,53.086C76.185,56.815 72.701,59.399 68.613,59.996C67.916,60.097 67.434,60.744 67.536,61.44C67.638,62.136 68.285,62.618 68.981,62.517C71.376,62.167 73.678,61.218 75.637,59.772C77.613,58.313 79.204,56.375 80.238,54.166C82.085,50.223 83.379,46.072 84.086,41.828C84.202,41.133 83.733,40.477 83.039,40.362C82.968,40.35 82.897,40.344 82.828,40.344" style="fill:rgb(254,187,8);fill-rule:nonzero;"/>
                    </g>
                    <g transform="matrix(1,0,0,-1,223.665,773.916)">
                        <path d="M54.079,40.293C53.548,40.293 53.052,40.628 52.872,41.159C51.796,44.344 51.836,47.708 52.988,50.888C54.331,54.595 57.037,57.558 60.608,59.23C62.14,59.948 63.761,60.393 65.426,60.555C66.125,60.623 66.749,60.111 66.817,59.41C66.885,58.71 66.373,58.087 65.672,58.019C64.297,57.886 62.957,57.517 61.689,56.923C58.734,55.539 56.495,53.088 55.384,50.02C54.431,47.389 54.397,44.607 55.286,41.975C55.511,41.309 55.154,40.586 54.487,40.36C54.352,40.315 54.214,40.293 54.079,40.293" style="fill:rgb(254,187,8);fill-rule:nonzero;"/>
                    </g>
                    <g transform="matrix(1,0,0,-1,223.665,825.609)">
                        <path d="M55.629,61.063C55.215,61.063 54.81,61.264 54.565,61.635C53.199,63.703 52.367,66.102 52.159,68.57C51.944,71.118 52.403,73.694 53.486,76.019C54.365,77.906 55.372,80.928 55.181,84.608C55.091,86.337 54.749,88.044 54.163,89.681C53.927,90.343 54.272,91.072 54.934,91.309C55.596,91.546 56.326,91.201 56.563,90.538C57.231,88.668 57.623,86.717 57.725,84.741C57.944,80.537 56.797,77.093 55.796,74.944C53.992,71.07 54.326,66.62 56.691,63.039C57.079,62.452 56.917,61.662 56.33,61.274C56.114,61.131 55.87,61.063 55.629,61.063" style="fill:rgb(254,187,8);fill-rule:nonzero;"/>
                    </g>
                    <g transform="matrix(1,0,0,-1,223.665,832.776)">
                        <path d="M75.379,65.224C75.008,65.224 74.641,65.385 74.389,65.695C73.946,66.241 74.029,67.043 74.575,67.487C76.005,68.648 77.169,70.138 77.941,71.797C81.056,78.485 82.502,85.878 82.122,93.177C82.085,93.88 82.625,94.479 83.328,94.516C84.028,94.552 84.63,94.012 84.666,93.31C85.068,85.596 83.541,77.785 80.251,70.721C79.317,68.715 77.909,66.912 76.181,65.509C75.945,65.317 75.661,65.224 75.379,65.224" style="fill:rgb(254,187,8);fill-rule:nonzero;"/>
                    </g>
                    <g transform="matrix(1,0,0,-1,223.665,808.974)">
                        <path d="M76.568,51.878C76.428,51.878 76.285,51.901 76.145,51.951C75.481,52.184 75.133,52.912 75.366,53.575C77.119,58.556 77.903,63.939 77.632,69.142C77.399,73.623 76.426,78.008 74.739,82.173C74.476,82.826 74.79,83.568 75.442,83.832C76.095,84.096 76.837,83.781 77.101,83.129C78.894,78.701 79.928,74.039 80.176,69.275C80.464,63.742 79.632,58.021 77.77,52.729C77.585,52.206 77.093,51.878 76.568,51.878" style="fill:rgb(254,187,8);fill-rule:nonzero;"/>
                    </g>
                    <g transform="matrix(1,0,0,-1,223.665,791.154)">
                        <path d="M60.758,44.787C60.7,44.787 60.642,44.791 60.583,44.799C59.886,44.894 59.399,45.537 59.494,46.234C59.683,47.611 59.742,49.009 59.67,50.388C59.52,53.278 58.814,56.09 57.57,58.745C56.407,61.229 56.281,64.017 57.215,66.595C58.149,69.173 60.031,71.234 62.515,72.397C63.889,73.04 65.352,73.367 66.865,73.367C69.592,73.367 72.261,72.246 74.187,70.293C74.681,69.792 74.676,68.985 74.174,68.491C73.673,67.997 72.867,68.003 72.373,68.504C70.922,69.975 68.915,70.819 66.865,70.819C65.729,70.819 64.629,70.573 63.595,70.089C61.728,69.215 60.313,67.666 59.611,65.727C58.909,63.789 59.003,61.693 59.878,59.826C61.261,56.872 62.047,53.741 62.215,50.52C62.295,48.982 62.229,47.424 62.019,45.888C61.931,45.25 61.385,44.787 60.758,44.787" style="fill:rgb(254,187,8);fill-rule:nonzero;"/>
                    </g>
                    <g transform="matrix(1,0,0,-1,223.665,840.745)">
                        <path d="M66.866,74.656C65.361,74.656 63.904,74.979 62.535,75.617C57.403,78.007 55.172,84.126 57.562,89.258C57.979,90.153 58.343,91.091 58.644,92.046C58.856,92.717 59.571,93.089 60.243,92.877C60.914,92.666 61.286,91.95 61.074,91.279C60.74,90.219 60.335,89.177 59.872,88.182C58.075,84.324 59.752,79.724 63.61,77.927C64.64,77.447 65.735,77.204 66.866,77.204C69.482,77.204 71.981,78.579 73.388,80.793C73.766,81.386 74.553,81.562 75.147,81.184C75.741,80.807 75.916,80.02 75.539,79.426C73.669,76.484 70.346,74.656 66.866,74.656" style="fill:rgb(254,187,8);fill-rule:nonzero;"/>
                    </g>
                    <g transform="matrix(1,0,0,-1,223.665,790.377)">
                        <path d="M74.413,49.104C73.74,49.104 73.177,49.632 73.142,50.312C72.901,54.949 71.772,59.45 69.787,63.688C69.422,64.468 68.775,65.059 67.966,65.352C67.157,65.645 66.282,65.605 65.503,65.24C64.723,64.875 64.132,64.229 63.839,63.419C63.546,62.61 63.586,61.735 63.951,60.956C64.695,59.366 65.299,57.713 65.748,56.04C65.93,55.361 65.527,54.662 64.847,54.48C64.167,54.298 63.469,54.701 63.287,55.381C62.877,56.909 62.324,58.421 61.643,59.875C60.99,61.271 60.919,62.838 61.443,64.287C61.968,65.736 63.026,66.894 64.422,67.548C65.818,68.201 67.385,68.273 68.834,67.748C70.283,67.223 71.441,66.165 72.095,64.769C74.219,60.231 75.428,55.411 75.686,50.444C75.723,49.742 75.183,49.142 74.48,49.106C74.458,49.105 74.435,49.104 74.413,49.104" style="fill:rgb(254,187,8);fill-rule:nonzero;"/>
                    </g>
                    <g transform="matrix(1,0,0,-1,223.665,825.842)">
                        <path d="M66.866,64.249C66.022,64.249 65.203,64.431 64.433,64.79C61.549,66.133 60.295,69.572 61.638,72.457C62.948,75.269 64.449,79.782 64.161,85.309C64.131,85.904 64.079,86.504 64.009,87.094C63.926,87.792 64.425,88.426 65.123,88.509C65.821,88.593 66.456,88.094 66.539,87.395C66.616,86.75 66.672,86.093 66.706,85.442C67.021,79.391 65.38,74.456 63.948,71.381C63.198,69.77 63.898,67.85 65.508,67.099C65.939,66.899 66.396,66.797 66.866,66.797C68.115,66.797 69.263,67.528 69.79,68.66C71.726,72.817 72.848,77.236 73.124,81.796C73.167,82.499 73.771,83.034 74.473,82.991C75.175,82.948 75.71,82.344 75.667,81.642C75.372,76.762 74.171,72.032 72.1,67.584C71.156,65.558 69.102,64.249 66.866,64.249" style="fill:rgb(254,187,8);fill-rule:nonzero;"/>
                    </g>
                    <g transform="matrix(1,0,0,-1,223.665,834.623)">
                        <path d="M66.868,77.527C66.688,77.527 66.505,77.565 66.331,77.646C65.693,77.943 65.417,78.701 65.714,79.339C66.274,80.541 66.764,81.793 67.171,83.058C67.386,83.728 68.103,84.096 68.773,83.881C69.443,83.666 69.812,82.948 69.596,82.278C69.157,80.912 68.628,79.561 68.024,78.263C67.808,77.8 67.348,77.527 66.868,77.527" style="fill:rgb(254,187,8);fill-rule:nonzero;"/>
                    </g>
                    <g transform="matrix(1,0,0,-1,223.665,802.409)">
                        <path d="M69.479,53.603C69.406,53.603 69.332,53.609 69.257,53.622C68.564,53.744 68.101,54.404 68.223,55.097C68.629,57.414 68.773,59.773 68.652,62.11C68.441,66.165 67.453,70.103 65.715,73.814C65.417,74.451 65.691,75.209 66.329,75.508C66.966,75.806 67.724,75.531 68.023,74.894C69.9,70.884 70.968,66.628 71.196,62.243C71.328,59.715 71.172,57.162 70.732,54.657C70.624,54.039 70.086,53.603 69.479,53.603" style="fill:rgb(254,187,8);fill-rule:nonzero;"/>
                    </g>
                    <g transform="matrix(1,0,0,-1,223.665,877.375)">
                        <path d="M34.846,97.355C34.781,97.473 34.779,97.614 34.84,97.78C35.947,100.787 36.501,102.291 37.608,105.298C36.59,105.673 36.083,105.868 35.074,106.276C34.881,106.353 34.764,106.443 34.722,106.545C34.679,106.647 34.694,106.784 34.765,106.955C34.825,107.102 34.855,107.176 34.915,107.322C34.986,107.494 35.072,107.604 35.174,107.652C35.277,107.699 35.423,107.685 35.612,107.609C38.323,106.515 39.697,106.027 42.469,105.17C42.662,105.11 42.785,105.029 42.839,104.926C42.892,104.823 42.892,104.683 42.838,104.505C42.793,104.353 42.77,104.277 42.724,104.126C42.67,103.948 42.593,103.833 42.492,103.782C42.39,103.731 42.241,103.736 42.044,103.797C41.013,104.115 40.499,104.283 39.475,104.634C38.435,101.603 37.915,100.087 36.876,97.056C36.819,96.889 36.731,96.78 36.611,96.727C36.492,96.676 36.32,96.688 36.095,96.767C35.762,96.884 35.596,96.943 35.264,97.063C35.051,97.14 34.911,97.237 34.846,97.355" style="fill-rule:nonzero;"/>
                    </g>
                    <g transform="matrix(1,0,0,-1,223.665,884.558)">
                        <path d="M39.088,103.186C39.105,103.242 39.14,103.298 39.193,103.353C41.993,106.324 43.317,107.857 45.808,110.999C45.904,111.125 45.993,111.205 46.075,111.239C46.157,111.273 46.261,111.274 46.388,111.241C46.71,111.158 46.871,111.117 47.194,111.037C47.331,111.003 47.425,110.952 47.476,110.884C47.526,110.817 47.564,110.705 47.589,110.547C48.281,106.6 48.713,104.622 49.746,100.679C49.766,100.605 49.77,100.54 49.759,100.482C49.731,100.338 49.624,100.284 49.437,100.32C48.864,100.433 48.577,100.492 48.005,100.613C47.862,100.644 47.764,100.682 47.711,100.729C47.658,100.775 47.616,100.857 47.584,100.974C47.385,101.858 47.29,102.3 47.108,103.185C45.34,103.588 44.459,103.811 42.707,104.3C42.131,103.608 41.839,103.264 41.248,102.579C41.163,102.491 41.087,102.44 41.018,102.424C40.949,102.409 40.844,102.422 40.704,102.463C40.14,102.63 39.858,102.715 39.296,102.89C39.113,102.948 39.044,103.046 39.088,103.186M46.906,104.632C46.588,106.286 46.443,107.112 46.182,108.765C45.165,107.436 44.644,106.778 43.574,105.476C44.902,105.114 45.569,104.945 46.906,104.632" style="fill-rule:nonzero;"/>
                    </g>
                    <g transform="matrix(1,0,0,-1,223.665,886.704)">
                        <path d="M51.498,102.218C51.42,102.322 51.396,102.46 51.427,102.633C52.044,106.142 52.353,107.897 52.971,111.405C53.003,111.588 53.069,111.715 53.168,111.787C53.267,111.86 53.416,111.878 53.614,111.845C55.133,111.587 55.895,111.476 57.422,111.286C58.644,111.134 59.521,110.762 60.067,110.137C60.613,109.512 60.852,108.672 60.765,107.609C60.679,106.556 60.302,105.77 59.618,105.264C58.934,104.757 57.924,104.57 56.608,104.734C55.55,104.865 55.021,104.938 53.965,105.1C53.793,103.975 53.706,103.412 53.534,102.286C53.507,102.112 53.44,101.989 53.333,101.916C53.226,101.844 53.056,101.826 52.824,101.863C52.473,101.919 52.298,101.948 51.947,102.007C51.726,102.045 51.576,102.115 51.498,102.218M56.689,106.158C57.331,106.078 57.829,106.177 58.177,106.449C58.526,106.72 58.73,107.169 58.795,107.792C58.861,108.424 58.755,108.91 58.483,109.249C58.212,109.589 57.77,109.793 57.154,109.871C56.19,109.991 55.709,110.058 54.748,110.205C54.521,108.726 54.408,107.986 54.181,106.507C55.183,106.354 55.684,106.284 56.689,106.158" style="fill-rule:nonzero;"/>
                    </g>
                    <g transform="matrix(1,0,0,-1,223.665,888.919)">
                        <path d="M65.768,103.022C65.676,103.113 65.632,103.246 65.637,103.422L65.867,112.325C65.872,112.511 65.918,112.647 66.005,112.733C66.092,112.819 66.236,112.859 66.436,112.855C66.754,112.849 66.913,112.847 67.23,112.844C67.43,112.842 67.575,112.797 67.664,112.708C67.754,112.62 67.799,112.482 67.798,112.297C67.792,110.818 67.789,110.078 67.784,108.599C69.846,108.591 70.878,108.617 72.937,108.725C72.859,110.202 72.82,110.941 72.742,112.418C72.733,112.603 72.77,112.742 72.856,112.835C72.941,112.928 73.083,112.98 73.283,112.992C73.594,113.01 73.75,113.02 74.061,113.041C74.26,113.055 74.408,113.022 74.504,112.94C74.6,112.859 74.656,112.726 74.67,112.541C74.936,108.989 75.069,107.212 75.335,103.659C75.349,103.483 75.311,103.348 75.223,103.253C75.136,103.159 74.975,103.103 74.741,103.087C74.394,103.063 74.221,103.052 73.874,103.032C73.651,103.018 73.488,103.053 73.383,103.136C73.278,103.219 73.221,103.348 73.212,103.524L73.012,107.304C70.921,107.194 69.873,107.168 67.778,107.176C67.773,105.662 67.77,104.905 67.764,103.39C67.763,103.214 67.715,103.082 67.62,102.994C67.525,102.907 67.361,102.864 67.127,102.866C66.773,102.87 66.596,102.873 66.241,102.88C66.018,102.884 65.86,102.932 65.768,103.022" style="fill-rule:nonzero;"/>
                    </g>
                    <g transform="matrix(1,0,0,-1,223.665,887.322)">
                        <path d="M77.469,101.848C77.366,101.927 77.307,102.054 77.29,102.229C76.951,105.776 76.782,107.549 76.444,111.095C76.426,111.28 76.456,111.421 76.532,111.516C76.608,111.612 76.745,111.67 76.944,111.69C79.428,111.943 80.666,112.114 83.13,112.546C83.327,112.581 83.47,112.566 83.558,112.503C83.646,112.439 83.706,112.316 83.74,112.133L83.81,111.743C83.844,111.56 83.83,111.421 83.77,111.326C83.709,111.231 83.579,111.165 83.378,111.13C81.422,110.787 80.439,110.643 78.47,110.411C78.603,109.281 78.67,108.715 78.803,107.584C80.279,107.758 81.016,107.86 82.485,108.094C82.693,108.127 82.844,108.113 82.94,108.049C83.036,107.985 83.099,107.862 83.129,107.679L83.189,107.317C83.219,107.133 83.2,106.993 83.129,106.898C83.058,106.802 82.917,106.737 82.707,106.703C81.215,106.465 80.467,106.362 78.968,106.185C79.102,105.049 79.169,104.48 79.303,103.344C81.424,103.593 82.482,103.748 84.59,104.117C84.807,104.155 84.966,104.141 85.067,104.075C85.169,104.009 85.236,103.884 85.269,103.701C85.298,103.546 85.312,103.468 85.34,103.312C85.372,103.138 85.351,103.005 85.277,102.912C85.202,102.82 85.055,102.754 84.835,102.715C82.095,102.235 80.718,102.045 77.956,101.764C77.734,101.741 77.571,101.77 77.469,101.848" style="fill-rule:nonzero;"/>
                    </g>
                    <g transform="matrix(1,0,0,-1,223.665,884.322)">
                        <path d="M86.993,100.252C86.883,100.32 86.811,100.44 86.777,100.613C86.087,104.108 85.743,105.856 85.053,109.351C85.017,109.533 85.033,109.676 85.099,109.779C85.166,109.882 85.297,109.953 85.494,109.994C87.033,110.307 87.8,110.482 89.327,110.866C90.458,111.15 91.381,111.133 92.117,110.793C92.853,110.453 93.375,109.792 93.669,108.798C93.863,108.141 93.864,107.532 93.661,106.969C93.458,106.406 93.063,105.914 92.473,105.5C93.542,104.294 94.09,103.699 95.21,102.522C95.259,102.475 95.29,102.428 95.304,102.381C95.346,102.24 95.269,102.141 95.075,102.085C94.544,101.931 94.278,101.856 93.745,101.71C93.605,101.672 93.498,101.661 93.423,101.676C93.35,101.691 93.272,101.744 93.19,101.833C92.174,103.001 91.678,103.591 90.707,104.782C89.697,104.53 89.191,104.411 88.176,104.188C88.453,102.932 88.591,102.305 88.868,101.049C88.906,100.877 88.887,100.738 88.813,100.632C88.74,100.526 88.587,100.447 88.358,100.398C88.01,100.324 87.836,100.288 87.487,100.217C87.268,100.172 87.103,100.184 86.993,100.252M90.103,106.084C90.824,106.262 91.321,106.529 91.59,106.874C91.859,107.219 91.913,107.68 91.757,108.256C91.603,108.822 91.34,109.196 90.971,109.381C90.603,109.567 90.119,109.581 89.515,109.43C88.569,109.194 88.094,109.083 87.144,108.874C87.435,107.549 87.581,106.887 87.873,105.563C88.767,105.76 89.213,105.864 90.103,106.084" style="fill-rule:nonzero;"/>
                    </g>
                    <g transform="matrix(1,0,0,-1,223.665,878.152)">
                        <path d="M97.286,96.722C97.168,96.778 97.084,96.889 97.031,97.057C95.962,100.456 95.428,102.155 94.36,105.554C94.304,105.731 94.304,105.875 94.359,105.984C94.414,106.095 94.538,106.18 94.731,106.242C97.13,107.013 98.319,107.443 100.67,108.392C100.858,108.469 101.002,108.485 101.103,108.441C101.203,108.398 101.289,108.29 101.359,108.119C101.419,107.972 101.45,107.899 101.51,107.752C101.58,107.58 101.596,107.441 101.556,107.335C101.515,107.229 101.4,107.136 101.208,107.059C99.341,106.305 98.399,105.956 96.502,105.312C96.868,104.234 97.05,103.695 97.416,102.617C98.838,103.099 99.546,103.355 100.952,103.897C101.15,103.974 101.303,103.992 101.411,103.95C101.519,103.908 101.607,103.8 101.675,103.628C101.729,103.491 101.755,103.423 101.809,103.287C101.877,103.113 101.886,102.972 101.836,102.863C101.786,102.754 101.66,102.661 101.459,102.583C100.031,102.032 99.313,101.772 97.868,101.282C98.236,100.198 98.42,99.656 98.787,98.573C100.831,99.266 101.846,99.642 103.857,100.454C104.064,100.537 104.224,100.557 104.339,100.515C104.453,100.472 104.546,100.364 104.616,100.192C104.676,100.046 104.706,99.973 104.767,99.826C104.834,99.663 104.84,99.529 104.786,99.421C104.732,99.315 104.6,99.219 104.39,99.134C101.775,98.079 100.452,97.6 97.784,96.743C97.57,96.674 97.403,96.667 97.286,96.722" style="fill-rule:nonzero;"/>
                    </g>
                    <g transform="matrix(1,0,0,-1,223.665,873.658)">
                        <path d="M105.788,95.87C105.739,95.983 105.715,96.04 105.667,96.154C105.506,96.532 105.73,96.848 106.334,97.112C106.494,97.182 106.573,97.217 106.733,97.288C107.336,97.555 107.721,97.507 107.891,97.132C107.943,97.02 107.968,96.964 108.019,96.852C108.185,96.487 107.963,96.164 107.351,95.892L106.945,95.714C106.331,95.446 105.945,95.501 105.788,95.87M105.216,98.123C105.108,98.167 105.017,98.274 104.944,98.445C103.942,100.685 103.443,101.806 102.446,104.048C102.373,104.219 102.359,104.362 102.405,104.477C102.449,104.592 102.565,104.69 102.752,104.771C103.06,104.905 103.214,104.972 103.521,105.109C103.708,105.193 103.858,105.212 103.974,105.168C104.089,105.123 104.185,105.016 104.262,104.847C105.236,102.595 105.722,101.468 106.691,99.214C106.768,99.045 106.785,98.905 106.744,98.795C106.703,98.686 106.581,98.585 106.38,98.496C106.083,98.364 105.934,98.298 105.637,98.169C105.465,98.094 105.325,98.079 105.216,98.123" style="fill-rule:nonzero;"/>
                    </g>
                </g>
            </g>
        </g>
    </g>
</svg>
