<?xml version="1.0" encoding="UTF-8" standalone="no"?>
<!DOCTYPE svg PUBLIC "-//W3C//DTD SVG 1.1//EN" "http://www.w3.org/Graphics/SVG/1.1/DTD/svg11.dtd">
<svg width="100%" height="100%" viewBox="0 0 326 205" version="1.1" xmlns="http://www.w3.org/2000/svg" xmlns:xlink="http://www.w3.org/1999/xlink" xml:space="preserve" xmlns:serif="http://www.serif.com/" style="fill-rule:evenodd;clip-rule:evenodd;stroke-linejoin:round;stroke-miterlimit:2;">
    <g transform="matrix(1,0,0,1,-566,-29)">
        <g id="bubble_Square" transform="matrix(1.00932,0,0,1.00644,-23.5266,777.087)">
            <rect x="584.329" y="-743.298" width="322" height="203.688" style="fill:none;"/>
            <g transform="matrix(0.990769,0,0,0.993599,551.138,-832.07)">
                <g>
                    <g transform="matrix(1,0,0,-1,35.041,319.315)">
                        <path d="M305.123,218.835C304.775,219.086 304.419,219.329 304.053,219.56C297.899,223.48 289.997,224.213 282.486,224.822C253.982,227.127 225.319,229.16 196.687,227.821C181.895,227.129 58.173,226.879 43.703,223.994C33.154,221.891 19.897,219.816 13.253,211.307C9.758,206.832 8.777,201.204 7.89,195.796C5.158,179.137 4.938,93.796 3.499,76.58C2.337,62.675 -0.58,39.612 17.645,33.341C22.537,31.657 27.862,31.359 33.094,31.112C49.337,30.343 170.493,28.557 186.752,28.107C204.031,27.629 221.38,27.159 238.651,27.649C252.449,28.041 252.279,27.989 265.312,29.314C269.258,29.715 273.196,30.188 277.124,30.756C296.202,33.515 310.274,40.434 316.511,57.496C322.452,73.744 322.219,160.652 320.387,177.501C318.999,190.265 317.244,210.083 305.123,218.835" style="fill:white;fill-rule:nonzero;"/>
                    </g>
                    <g transform="matrix(1,0,0,-1,35,320.219)">
                        <path d="M105.46,229.61L101.743,229.565C113.766,229.808 126.405,229.906 138.858,229.971C111.764,230.381 79.718,230.593 58.785,228.01C58.2,228.191 56.115,228.287 53.292,228.284C51.87,228.258 50.264,228.209 48.572,228.147C48.148,228.129 47.717,228.111 47.283,228.092C46.825,228.047 46.363,228.002 45.899,227.956C44.967,227.858 44.027,227.758 43.09,227.659C39.717,227.09 36.318,226.491 33.739,225.917C31.162,225.355 29.415,224.838 29.3,224.749C26.596,223.909 23.878,222.917 21.241,221.629C18.612,220.343 16.056,218.741 13.854,216.716C16.907,219.486 20.588,221.468 24.285,222.938C20.588,221.468 16.907,219.486 13.854,216.716L12.59,215.478C12.192,215.046 11.827,214.585 11.447,214.137C10.682,213.243 10.046,212.245 9.481,211.249C8.348,209.243 7.581,207.138 7.009,205.051C6.435,202.959 6.059,200.873 5.727,198.817C5.402,196.794 5.076,194.762 4.748,192.722C3.378,184.597 3.635,176.335 2.087,167.881C1.314,163.654 1.653,90.769 1.05,86.437C0.43,82.109 1.036,77.699 0.638,73.351C0.239,68.963 -0.086,64.487 0.021,59.924C0.148,55.37 0.643,50.691 2.304,46.073C2.783,44.8 3.376,43.395 4.223,41.924C5.079,40.461 6.165,38.925 7.583,37.457C8.995,35.988 10.761,34.604 12.82,33.491C14.877,32.375 17.198,31.51 19.575,30.922C24.383,29.727 29.442,29.483 34.414,29.258C39.46,29.044 44.564,28.916 49.71,28.77C70.243,28.253 86.781,27.735 98.069,27.45C101.342,27.366 104.596,27.283 107.899,27.197C102.424,27.368 102.424,27.368 96.95,27.539C110.722,27.521 123.201,27.506 135.281,27.492C133.158,27.65 132.787,27.775 127.744,28.029L133.903,27.844C139.526,28.108 152.472,27.875 158.56,27.922C157.248,27.757 162.041,27.637 166.271,27.537L164.599,27.689C172.619,27.527 181.284,27.353 189.736,27.182C198.196,26.973 206.455,26.805 213.646,26.708C215.652,26.683 217.155,26.601 218.064,26.531C222.665,26.546 227.267,26.603 231.871,26.718C231.606,26.652 232.19,26.612 233.112,26.596C233.898,26.589 234.97,26.523 235.893,26.57C262.283,27.92 266.706,28.84 266.847,28.866L269.753,29.237C272.021,29.526 274.293,29.817 276.565,30.107C281.127,30.751 285.703,31.678 290.138,33.05C294.565,34.431 298.891,36.261 302.724,38.784C306.559,41.292 309.874,44.448 312.421,48.008C314.992,51.559 316.783,55.496 318.078,59.461L317.717,58.715C319.554,64.256 320.603,69.617 321.209,75.298C321.837,80.98 322.05,86.985 321.991,93.943C321.69,98.906 321.108,173.501 320.363,178.717C319.652,183.937 318.889,188.397 318.273,190.299C317.352,195.932 316.312,199.807 314.953,203.53C314.252,205.383 313.49,207.208 312.464,209.13C311.94,210.087 311.411,211.095 310.705,212.092C310.078,213.138 309.226,214.125 308.36,215.223C308.733,214.606 308.525,214.857 307.954,215.416C307.662,215.693 307.285,216.05 306.874,216.442C306.671,216.639 306.46,216.844 306.244,217.054C306.006,217.237 305.764,217.421 305.525,217.604C305.052,217.967 304.596,218.318 304.211,218.615C303.783,218.907 303.421,219.141 303.205,219.274C302.771,219.541 302.893,219.4 304.054,218.498C304.731,217.889 305.326,217.353 305.858,216.873C306.356,216.359 306.762,215.873 307.154,215.456C307.351,215.245 307.533,215.045 307.71,214.853C307.867,214.643 308.017,214.443 308.163,214.25C308.457,213.866 308.731,213.509 309,213.158C309.541,212.46 309.943,211.703 310.485,210.852C310.766,210.429 310.967,209.914 311.242,209.37C311.495,208.812 311.824,208.223 312.07,207.493L312.087,207.694C314.993,201.115 316.232,193.896 317.115,186.666C317.54,183.053 317.892,179.345 318.224,175.703C318.54,172.055 318.77,99.796 318.88,96.146C319.106,88.849 318.799,81.55 317.714,74.362C317.154,70.772 316.374,67.218 315.345,63.732C315.088,62.86 314.837,61.986 314.522,61.131C314.21,60.283 313.965,59.384 313.597,58.578C313.247,57.756 312.927,56.921 312.556,56.109L311.338,53.724C310.152,51.663 308.874,49.605 307.215,47.79C306.45,46.833 305.514,46.006 304.626,45.133C304.174,44.705 303.658,44.33 303.177,43.924C302.695,43.519 302.203,43.121 301.66,42.772L300.074,41.681L298.383,40.699C297.833,40.355 297.235,40.067 296.637,39.779C296.038,39.496 295.462,39.176 294.841,38.918C293.597,38.41 292.373,37.863 291.067,37.447C289.792,36.973 288.459,36.605 287.133,36.222C285.8,35.852 284.435,35.544 283.073,35.234C281.689,34.974 280.324,34.661 278.917,34.461L276.819,34.125L274.671,33.862L270.372,33.341C268.738,33.141 267.104,32.942 265.471,32.744C264.831,32.648 264.155,32.623 263.57,32.471C263.57,32.471 252.435,31.038 238.966,30.662C237.092,30.61 235.196,30.56 233.344,30.511C230.54,30.435 227.804,30.385 225.152,30.348C220.091,30.263 216.442,30.511 212.126,30.689C207.245,30.729 202.03,30.826 196.605,30.954C191.185,31.081 185.536,31.253 179.804,31.35C168.359,31.561 156.614,31.74 145.572,31.857C145.986,31.845 146.389,31.836 146.653,31.829C134.921,31.982 126.141,32.393 114.685,32.541C114.741,32.467 112.966,32.492 112.103,32.468C111.111,32.656 94.248,32.759 77.132,32.873C60.013,32.977 46.708,33.142 44.694,33.296C43.506,33.314 42.273,33.333 41.017,33.353C37.992,33.449 34.99,33.568 31.976,33.743C28.97,33.928 26.012,34.167 23.194,34.705C20.373,35.231 17.699,36.074 15.425,37.356C14.29,38.008 13.241,38.755 12.303,39.601C11.39,40.469 10.525,41.378 9.835,42.409C6.966,46.484 5.89,51.48 5.453,56.303C5.044,61.167 5.268,65.971 5.586,70.571C5.642,72.575 5.749,74.717 5.841,76.799C5.945,78.851 6.045,80.824 6.131,82.517C6.681,85.752 5.436,86.409 6.059,90.322C7.21,95.242 6.982,167.761 7.35,169.817C7.715,171.873 7.602,172.068 6.991,169.526C8.413,177.708 8.198,185.905 9.445,193.236C9.995,196.659 10.376,200.023 11.158,203.259C11.831,206.006 12.6,207.393 13.389,208.547C14.191,210.1 14.89,211.044 15.521,211.715C15.829,212.054 16.062,212.36 16.328,212.603C16.596,212.842 16.837,213.059 17.082,213.277C17.546,213.731 18.128,214.102 18.91,214.698C19.312,214.985 19.821,215.277 20.402,215.658C21.001,216.018 21.729,216.414 22.612,216.863C22.846,216.942 23.3,217.14 23.917,217.432C24.551,217.704 25.362,218.055 26.314,218.43C28.209,219.193 30.712,219.988 33.294,220.688C35.877,221.387 38.54,221.988 40.709,222.462C42.878,222.936 44.563,223.307 45.115,223.316C44.667,223.238 44.242,223.201 43.767,223.081C44.989,223.286 46.095,223.373 47.198,223.514C47.733,223.588 48.3,223.621 48.863,223.648C49.422,223.676 49.973,223.706 50.517,223.734C51.605,223.785 52.666,223.836 53.713,223.885C54.768,223.909 55.81,223.932 56.849,223.955C61.004,224.059 65.147,224.087 70.075,224.249C97.484,224.936 127.494,225.439 152.944,225.67C153.193,225.924 147.331,225.548 147.028,225.877C162.047,226.024 177.168,225.834 192.37,226.084C193.759,226.083 195.304,226.082 196.663,226.082C197.997,226.081 199.127,226.076 199.749,226.061C204.544,226.158 202.576,226.272 206.088,226.345L206.569,226.13C211.7,226.415 214.078,225.987 218.915,226.06C219.171,226.148 220.939,226.141 222.658,226.115C222.74,225.89 227.957,226.023 227.701,225.813L227.752,225.83C228.79,225.808 229.526,225.797 230.794,225.717C231.779,225.733 236.895,225.761 242.025,225.695C247.154,225.648 252.294,225.519 253.299,225.507L254.23,225.411C256.997,225.248 258.195,225.337 256.582,225.49L259.993,225.249L259.599,225.26L262.99,225.01C263.614,224.944 264.312,224.782 263.339,224.746C265.269,224.695 267.434,224.581 269.351,224.391C264.024,224.939 257.401,225.62 251.816,226.194C254.122,226.143 258.265,225.743 260.76,225.599C263.723,225.233 269.828,224.657 274.579,224.169C275.626,224.101 276.372,224.315 278.736,224.005C279.873,223.727 281.423,223.799 283.373,223.503C281.106,223.591 278.886,223.811 276.589,224.004C276.957,223.754 282.181,223.412 283.966,223.198C284.829,223.202 289.164,222.742 291.772,222.329C290.59,222.319 293.859,221.851 295.274,221.328C296.931,220.868 297.96,220.562 297.344,220.859C297.651,220.882 296.058,221.457 294.592,221.831C293.13,222.206 291.846,222.458 293.1,222.351C293.407,222.232 294.418,222.012 295.542,221.71C296.67,221.408 297.91,221.025 298.74,220.696C298.818,220.805 297.635,221.228 298.774,220.915C300.645,220.188 302.544,219.286 303.363,218.542C303.05,218.735 302.375,219.151 301.892,219.449C302.976,218.795 299.96,220.479 296.539,221.228C293.156,222.04 289.606,222.26 291.365,222.047C290.918,222.164 294.836,221.826 298.266,220.739C301.74,219.719 304.475,217.72 303.817,218.231C302.58,219.146 304.893,217.78 303.592,218.718C303.076,219.025 302.526,219.281 301.985,219.542C301.51,219.819 301.094,220.048 300.769,220.253C300.428,220.437 300.169,220.592 299.998,220.71C299.656,220.945 299.658,221.028 300.044,220.901C301.759,220.07 299.265,221.163 296.479,221.729C293.713,222.338 290.736,222.58 292.417,222.362C291.977,222.47 291.524,222.558 291.075,222.652C291.794,222.58 293.104,222.396 294.378,222.112C295.651,221.826 296.889,221.457 297.529,221.159C297.586,221.275 299.373,220.73 300.745,220.098L301.204,219.835C302.631,219.201 304.335,217.922 303.63,218.618C301.758,219.865 301.043,220.196 301.119,220.322C301.17,220.416 301.97,220.237 302.739,219.955C303.528,219.705 304.289,219.359 304.411,219.447C304.512,219.509 304.023,220.093 301.933,221.211C305.195,219.009 300.779,221.907 296.635,222.914C296.278,223.111 294.508,223.785 291.456,224.336C288.794,224.71 289.873,224.467 289.355,224.468C287.892,224.733 285.046,225.041 285.436,225.149C283.318,225.168 282.086,225.539 279.552,225.685C277.319,225.785 279.696,225.6 278.107,225.645C274.768,225.925 270.089,226.319 267.43,226.542C266.413,226.757 263.296,227.213 265.6,227.258C270.669,226.856 263.638,227.068 268.918,226.717C266.675,227.194 273.592,226.451 274.574,226.602C272.907,226.875 269.5,227.133 266.647,227.307L267.214,227.224C264.7,227.371 259.667,227.66 256.961,227.999C257.611,228.063 256.43,228.223 258.28,228.127L254.818,228.373C254.376,228.366 253.921,228.358 254.918,228.272C253.277,228.289 251.648,228.436 250.396,228.576C250.21,228.637 245.596,228.795 241.096,228.87C236.596,228.955 232.215,228.967 232.495,228.988C229.997,229.059 229.398,229.261 226.959,229.193C226.893,229.166 228.356,229.166 230.532,229.122C232.708,229.094 235.601,229.045 238.397,228.977C243.993,228.848 249.205,228.657 247.552,228.729C246.49,228.857 239.406,229.093 232.393,229.186C225.38,229.294 218.441,229.214 217.665,229.322C215.812,229.313 213.576,229.289 214.012,229.173C210.883,229.226 214.949,229.396 212.718,229.5C212.669,229.481 212.902,229.444 212.191,229.439L210.046,229.559C207.615,229.451 204.616,229.38 201.588,229.298C198.56,229.179 195.511,229.064 192.983,228.875C194.453,229.051 196.1,229.305 199.377,229.556L199.954,229.518C200.418,229.577 203.115,229.714 203.036,229.818C199.922,229.805 197.234,229.635 193.998,229.438C193.396,229.451 192.696,229.456 192.223,229.483C192.236,229.468 192.287,229.455 192.275,229.438C191.203,229.49 191.317,229.503 191.706,229.556C191.755,229.565 191.819,229.576 191.929,229.586C189.977,229.877 179.739,229.156 174.056,229.272C172.384,229.203 173.899,229.212 171.818,229.121C166.013,229.183 162.009,229.243 155.939,229.248C154.002,229.081 153.853,229.02 156.196,228.896L151.612,228.889C155.774,229.326 143.047,229.159 147.634,229.601C146.293,229.674 143.549,229.658 140.981,229.562C140.725,229.462 140.324,229.3 137.094,229.259C132.597,229.332 133.67,229.314 129.944,229.373C129.062,229.488 130.427,229.557 130.268,229.657C124.529,229.414 125.253,229.864 119.837,229.763C116.445,229.672 109.744,229.551 109.584,229.325C105.013,229.264 105.01,229.417 105.46,229.61" style="fill-rule:nonzero;"/>
                    </g>
                </g>
            </g>
        </g>
    </g>
</svg>
