<?xml version="1.0" encoding="UTF-8" standalone="no"?>
<!DOCTYPE svg PUBLIC "-//W3C//DTD SVG 1.1//EN" "http://www.w3.org/Graphics/SVG/1.1/DTD/svg11.dtd">
<svg width="100%" height="100%" viewBox="0 0 340 340" version="1.1" xmlns="http://www.w3.org/2000/svg" xmlns:xlink="http://www.w3.org/1999/xlink" xml:space="preserve" xmlns:serif="http://www.serif.com/" style="fill-rule:evenodd;clip-rule:evenodd;stroke-linejoin:round;stroke-miterlimit:2;">
    <g transform="matrix(1,0,0,1,-2742,-314)">
        <g id="img_1-3" transform="matrix(1.0598,0,0,1.08698,-164.941,-27.4894)">
            <rect x="2742.93" y="314.165" width="320.817" height="312.795" style="fill:none;"/>
            <g transform="matrix(0.943579,0,0,0.919984,2717.84,-17.3987)">
                <g>
                    <g transform="matrix(1,0,0,-1,47.4717,704.364)">
                        <path d="M57.09,222.701C57.09,222.701 63.376,280.533 78.462,293.105C93.549,305.677 123.721,311.963 123.721,311.963L148.866,295.619C148.866,295.619 176.524,275.504 181.553,265.446C186.582,255.389 190.353,241.559 196.639,242.816C202.925,244.074 228.228,244.856 240.496,229.274C245.67,222.701 253.213,216.415 253.213,216.415L260.757,206.358C260.757,206.358 275.843,198.814 279.615,195.043C283.386,191.271 299.73,186.242 290.93,173.67C282.129,161.098 275.843,156.069 275.843,156.069L276.234,147.336L278.357,138.469C278.357,138.469 306.016,98.238 307.273,78.123C308.53,58.008 311.045,51.722 293.444,41.664C293.444,41.664 254.1,36.972 226.627,66.976L218.689,72.541C218.689,72.541 208.478,47.06 194.702,34.619C194.702,34.619 184.696,14.634 158.295,20.92C158.295,20.92 130.636,27.206 113.035,56.122C95.434,85.037 57.718,110.181 57.718,110.181L43.889,144.126L45.146,181.842L55.204,214.529L57.09,222.701Z" style="fill:white;fill-rule:nonzero;"/>
                    </g>
                    <g transform="matrix(1,0,0,-1,48.3457,729.114)">
                        <path d="M115.615,196.91C109.749,203.812 101.984,216.236 99.396,215.89C96.807,215.545 80.76,213.647 76.102,209.16C71.443,204.674 60.573,196.392 59.193,197.6C57.812,198.808 59.537,207.781 64.196,212.094C68.854,216.408 82.314,225.899 82.314,225.899C82.314,225.899 74.376,226.933 70.925,225.899C67.474,224.863 58.675,220.549 57.985,220.549C57.294,220.549 47.287,198.808 47.287,198.808C47.287,198.808 67.302,143.593 67.302,142.385C67.302,141.178 80.07,124.267 80.07,124.267C80.07,124.267 76.965,142.385 98.187,149.115C119.41,155.843 139.082,150.667 139.082,150.667L166.516,101.836C166.516,101.836 171.348,114.95 175.834,119.437C180.319,123.923 185.841,127.028 185.841,127.028L139.426,185.522C139.426,185.522 121.481,190.008 115.615,196.91" style="fill:rgb(212,223,86);fill-rule:nonzero;"/>
                    </g>
                    <g transform="matrix(1,0,0,-1,73.2319,656.824)">
                        <path d="M190.115,159.475L158.539,168.448L144.045,157.75L153.88,116.166L191.84,90.974C191.84,90.974 197.707,95.633 196.155,98.739C194.601,101.845 186.664,110.644 185.974,119.963C185.284,129.28 181.315,135.664 182.523,137.216C183.731,138.769 188.563,139.805 189.597,137.734C190.633,135.664 192.186,126.173 194.601,123.24C197.017,120.307 200.468,117.719 200.468,117.719C200.468,117.719 207.543,128.417 204.092,136.699C200.641,144.981 190.115,159.475 190.115,159.475" style="fill:rgb(212,223,86);fill-rule:nonzero;"/>
                    </g>
                    <g transform="matrix(1,0,0,-1,89.3013,704.058)">
                        <path d="M223.567,169.611C223.049,169.267 219.598,166.506 219.598,166.506L206.522,127.275C206.845,128.203 209.536,134.901 220.288,136.827C231.85,138.898 241.339,131.824 241.339,131.824C241.339,131.824 224.085,169.956 223.567,169.611" style="fill:rgb(212,223,86);fill-rule:nonzero;"/>
                    </g>
                    <g transform="matrix(1,0,0,-1,37.4268,686.967)">
                        <path d="M319.1,56.292C317.924,65.271 314.949,73.754 311.629,82.128C305.694,97.1 297.827,111.075 289.615,124.873C288.244,127.179 288.334,127.082 290.285,128.81C294.159,132.241 297.996,135.72 301.713,139.319C304.802,142.31 306.697,146.051 307.848,150.194C307.872,150.277 307.891,150.36 307.914,150.444C310.44,153.836 312.493,157.574 313.557,161.662C315.251,168.163 313.687,174.692 309.307,179.78C305.208,184.54 300.037,186.423 293.94,187.224C288.43,187.948 282.329,187.811 277.223,190.29C274.602,191.563 272.57,193.641 271.322,196.267C269.363,200.384 270.386,205.101 270.086,209.485C269.584,216.806 266.098,224.842 260.581,229.771C255.203,234.577 247.734,236.295 240.783,237.227C232.626,238.32 224.154,238.098 216.217,240.477C213.156,241.393 210.196,242.59 207.346,244.013C201.135,248.245 196.41,254.049 193.234,261.61C189.399,270.74 184.268,279.249 178.755,287.493C174.555,293.774 168.882,298.322 162.012,301.338C158.551,302.857 155.017,304.071 151.408,304.946C152.155,306.481 152.852,308.03 153.124,309.745C153.381,311.349 151.915,312.111 150.718,310.923C149.455,309.669 148.258,308.35 147.129,306.976C146.049,309.195 144.778,311.266 142.683,312.734C141.24,313.745 139.308,311.15 140.066,309.839C140.759,308.642 141.553,307.513 142.35,306.387C140.857,306.5 139.351,306.555 137.831,306.545C131.171,306.574 124.567,305.796 118.404,303.346C114.844,301.93 111.29,301.069 107.578,300.337C100.047,298.852 93.544,295.064 87.663,290.266C75.073,279.992 64.494,267.946 56.185,253.949C50.085,243.671 46.92,232.526 46.001,220.635C44.98,207.415 45.608,194.257 46.873,181.096C47.101,178.733 47.082,176.315 46.883,173.948C46.813,173.121 46.677,172.316 46.49,171.53C44.945,169.106 43.068,166.877 41.152,164.749C35.382,158.341 28.666,152.964 22.466,147.001C12.044,136.98 4.435,122.75 4.852,107.981C5.05,100.958 7.254,93.853 11.88,88.466C14.53,85.378 17.659,82.731 20.849,80.222C22.774,78.708 24.678,77.217 26.703,75.895C27.791,74.758 28.958,73.659 30.206,72.6C32.72,70.466 35.381,68.506 37.957,66.444C39.265,65.4 40.576,64.359 41.856,63.283C42.154,61.592 42.058,59.814 41.662,58.036C40.113,51.103 36.106,44.94 36.826,37.599C37.626,29.411 44.003,23.202 51.277,20.08C54.781,18.576 58.402,17.982 62.056,17.948C62.794,17.684 63.536,17.439 64.28,17.221C74.22,14.314 84.096,15.388 93.866,18.346C102.228,20.878 109.762,25.118 117.074,29.743C119.191,31.082 120.895,33.11 122.674,34.931C123.781,36.067 123.624,36.109 124.671,34.837C128.757,29.882 132.735,24.826 137.03,20.056C145.342,10.822 155.766,5 167.748,1.945C170.494,1.245 173.319,0.797 176.133,0.432C185.496,-0.782 193.41,2.21 199.926,8.954C204.506,13.693 208.891,18.591 212.574,24.097C218.246,32.577 223.553,41.251 227.621,50.634C228.308,52.215 228.276,52.189 229.633,51.095C234.683,47.026 239.563,42.716 244.849,38.978C254.851,31.905 265.498,26.072 277.771,23.845C286.554,22.252 295.337,21.884 303.984,24.412C312.132,26.795 317.523,31.885 318.908,40.65C319.733,45.872 319.783,51.089 319.1,56.292M32.092,149.796C28.025,144.444 24.164,138.96 21.045,132.982C16.557,124.381 14.219,115.28 14.657,105.548C14.944,99.173 16.225,93.259 18.626,87.873C18.254,88.207 17.886,88.544 17.522,88.885C12.007,94.076 8.789,100.932 8.408,108.52C8.037,115.928 9.999,123.306 13.272,129.911C16.733,136.891 21.7,142.373 27.404,147.594C30.9,150.795 34.427,153.957 37.802,157.269C35.9,154.777 33.988,152.291 32.092,149.796M40.66,40C40.181,46.714 44.232,52.711 45.47,59.169C46.291,57.478 46.527,55.572 46.183,53.466C45.613,49.986 44.95,46.516 44.542,43.018C43.836,36.928 45.01,31.661 48.152,27.37C44.097,30.461 41.027,34.848 40.66,40M297.71,181.624C303.639,179.845 308.564,174.642 309.879,168.546C310.558,165.406 310.116,162.338 309.033,159.447C308.687,168.057 303.825,174.853 294.681,179.218C292.58,180.22 290.383,181.026 288.226,181.911C286.761,182.511 285.285,183.09 283.816,183.681C288.467,183.104 293.202,182.977 297.71,181.624M250.042,230.174C257.194,227.49 261.894,221.905 264.405,214.776C264.995,213.097 265.378,211.449 265.625,209.787C262.299,217.901 256.663,223.967 248.598,227.641C244.054,229.71 239.325,231.39 234.616,233.073C234.322,233.177 234.027,233.278 233.733,233.382C239.272,232.859 244.831,232.13 250.042,230.174M233.568,186.815C235.353,187.102 237.049,186.488 238.315,185.328C240.014,183.773 241.845,182.144 242.911,180.163C244.816,176.629 246.389,172.879 247.709,169.084C248.453,166.948 250.182,166.222 251.69,165.116C252.266,164.694 252.896,165.196 252.753,165.889C252.587,166.696 252.162,167.461 251.79,168.215C251.299,169.211 250.618,170.131 250.25,171.167C248.418,176.33 246.35,181.36 242.855,185.948C243.662,185.732 244.511,185.611 245.27,185.283C248.517,183.881 250.907,181.474 252.774,178.542C254.948,175.127 256.099,171.33 256.731,167.358C256.846,166.628 256.839,165.819 257.173,165.2C257.472,164.646 258.165,164.301 258.684,163.864C259.09,164.407 259.828,164.944 259.837,165.492C259.86,166.899 259.66,168.332 259.359,169.714C258.972,171.488 258.38,173.215 257.926,174.975C257.827,175.357 257.941,175.793 257.958,176.206C258.318,176.017 258.794,175.918 259.024,175.625C261.997,171.848 263.782,167.633 263.628,162.734C263.606,162.052 263.414,161.328 263.586,160.701C263.739,160.139 264.235,159.34 264.674,159.275C265.136,159.206 266.069,159.799 266.171,160.246C266.52,161.779 266.685,163.372 266.743,164.95C266.783,166.011 266.525,167.082 266.4,168.15C269.034,165.648 270.927,162.749 271.109,159.037C271.278,155.604 270.865,152.249 269.829,148.938C268.249,143.892 266.778,138.809 265.365,133.712C262.437,123.147 258.464,113.019 252.999,103.492C252.577,102.755 252.266,102.548 251.645,103.195C251.528,103.317 251.389,103.419 251.255,103.527C244.697,108.806 238.149,114.1 231.56,119.342C230.693,120.031 230.474,120.336 231.271,121.377C232.396,122.848 233.164,124.606 233.983,126.292C234.75,127.876 233.956,129.165 232.927,130.31C229.365,134.273 226.926,138.891 225.264,143.893C224.317,146.741 223.743,149.718 223.075,152.652C222.686,154.363 222.391,156.099 222.15,157.838C221.999,158.928 222.033,159.89 222.779,160.995C223.715,162.385 222.628,163.917 221.948,165.291C221.696,165.799 221.464,166.317 221.222,166.83C221.89,166.827 222.688,167.053 223.195,166.765C223.965,166.33 224.81,165.652 225.13,164.873C225.725,163.415 225.968,161.812 226.357,160.268C227.264,156.655 228.461,153.144 230.84,150.217C231.895,148.918 233.299,147.904 234.526,146.741C234.771,146.508 234.953,146.196 235.119,145.896C235.291,145.584 235.41,145.243 235.552,144.915C235.936,145.095 236.49,145.17 236.681,145.473C237.94,147.479 239.756,149.398 240.225,151.595C242.749,163.43 240.819,174.304 232.37,183.518C231.766,184.174 231.419,185.065 230.954,185.846C231.823,186.18 232.668,186.671 233.568,186.815M186.909,178.195C187.978,179.994 189.24,181.702 190.613,183.281C191.146,183.894 192.241,183.993 193.039,184.403C203.615,189.835 214.387,189.709 225.205,185.337C226.911,184.648 228.423,183.215 229.728,181.843C234.639,176.68 236.832,170.292 237.58,163.342C238.057,158.9 237.857,154.48 236.75,150.128C236.369,148.627 236.219,148.57 235.087,149.659C232.782,151.876 231.218,154.581 230.243,157.59C229.472,159.967 228.944,162.419 228.264,164.826C227.238,168.449 225.207,169.996 221.758,169.844C218.548,169.702 216.552,167.002 217.801,164.056C219.553,159.93 219.856,155.561 220.404,151.235C221.457,142.93 224.593,135.57 230.083,129.253C230.928,128.281 231.304,127.587 230.437,126.394C229.681,125.351 229.213,124.088 228.684,122.894C228.325,122.088 227.908,122.013 227.292,122.587C227.21,122.664 227.112,122.727 227.019,122.792C215.618,130.801 204.216,138.81 192.814,146.819C192.631,146.948 192.452,147.085 192.13,147.323C193.977,147.664 194.566,149.172 195.27,150.404C195.784,151.304 195.969,152.448 196.092,153.508C196.79,159.504 195.211,164.769 190.9,169.111C189.818,170.2 188.711,171.268 187.666,172.391C186.047,174.131 185.701,176.161 186.909,178.195M177.734,251.672C179.946,252.278 181.906,251.91 183.512,250.187C185.01,248.583 185.733,246.619 185.966,244.487C186.366,240.847 185.574,237.381 184.342,233.998L183.898,233.95C182.859,237.112 181.854,240.287 180.753,243.427C180.506,244.129 179.86,244.679 179.504,245.356C178.658,246.965 177.916,248.631 177.052,250.23C176.568,251.125 176.935,251.453 177.734,251.672M97.631,271.491C101.287,277.925 106.48,282.906 113.479,285.689C115.197,286.372 117.075,286.715 118.913,287.003C119.479,287.091 120.426,286.651 120.739,286.16C125.55,278.605 132.511,273.263 139.411,267.852C139.985,267.401 140.579,266.975 141.163,266.537C141.132,266.414 141.101,266.289 141.068,266.165C139.503,266.345 137.937,266.535 136.371,266.701C132.529,267.108 128.751,266.972 125.167,265.309C124.651,265.07 124.043,264.907 123.666,264.523C123.125,263.971 122.758,263.25 122.317,262.601C123.063,262.361 123.843,261.84 124.551,261.924C129.406,262.497 134.245,263.202 139.093,263.847C139.71,263.93 140.342,263.907 140.966,263.95C143.473,264.122 145.639,263.495 147.862,262.127C151.623,259.814 155.692,258.002 159.609,255.936C160.05,255.704 160.547,255.256 160.679,254.809C162.486,248.701 164.149,242.551 166.02,236.464C167.391,232.001 167.392,227.769 164.996,223.623C164.265,222.357 163.831,220.907 163.343,219.513C161.113,213.139 161.783,207.118 165.464,201.403C168.045,197.395 168.08,197.265 164.945,193.761C160.891,189.23 160.043,184.19 161.916,178.532C162.106,177.961 162.191,177.287 162.09,176.701C161.689,174.412 161.192,172.138 160.71,169.755C160.43,169.9 160.171,169.994 159.955,170.149C150.365,176.978 140.777,183.811 131.195,190.65C130.363,191.244 129.546,191.864 128.755,192.513C122.191,197.896 114.912,202.072 107.084,205.309C104.017,206.577 100.825,207.354 97.488,207.548C96.927,207.581 96.215,207.973 95.875,208.425C92.464,212.992 90.678,218.267 89.6,223.77C86.293,240.666 89.17,256.596 97.631,271.491M225.714,53.028C219.564,39.629 212.529,26.792 202.429,15.875C200.808,14.122 199.108,12.439 197.432,10.736C190.981,4.189 183.148,2.23 174.257,3.736C160.468,6.073 148.674,12.087 138.937,22.266C132.169,29.342 126.424,37.172 121.009,45.254C106.721,66.583 93.03,88.283 81.083,111.036C76.028,120.661 71.132,130.368 67.86,140.784C66.081,146.448 64.713,152.201 64.919,158.204C65.108,163.727 66.273,169.02 68.618,174.048C69.999,177.012 72.08,179.154 75.1,180.507C79.195,182.341 83.299,183.936 87.915,183.232C88.229,183.185 88.538,183.107 89.208,182.971C88.471,182.494 88.025,182.198 87.571,181.914C81.704,178.235 76.191,174.15 72.08,168.451C70.17,165.805 68.508,163.024 67.7,159.828C67.232,157.975 66.971,156.096 68.53,154.544C69.592,153.488 70.725,153.477 71.842,154.426C72.486,154.973 73.154,155.501 73.854,155.971C78.105,158.825 82.433,161.569 86.613,164.523C92.609,168.758 99.358,171.001 106.467,172.302C109.566,172.869 110.625,172.122 112.301,169.451C120.814,155.888 132.685,146.845 148.329,142.992C149.546,142.693 150.318,142.197 150.889,141.068C151.447,139.963 152.256,138.976 153.016,137.984C156.337,133.646 159.815,129.423 162.987,124.98C172.567,111.565 183.59,99.354 194.359,86.927C195.615,85.477 195.579,85.533 194.007,84.464C186.429,79.306 181.151,72.338 177.88,63.809C177.722,63.394 177.571,62.976 177.313,62.284C176.59,63.687 176.008,64.892 175.363,66.061C166.495,82.158 157.613,98.247 148.746,114.345C145.726,119.827 142.795,125.359 139.701,130.799C138.687,132.583 138.238,134.311 138.704,136.308C138.884,137.077 138.991,137.901 138.912,138.677C138.864,139.141 138.391,139.561 138.108,140.001C137.721,139.719 137.238,139.507 136.972,139.138C136.684,138.741 136.598,138.197 136.381,137.597C135.613,138.553 134.968,139.524 134.151,140.32C133.36,141.092 132.392,141.684 131.503,142.354C131.33,142.258 131.156,142.159 130.983,142.061C131.289,140.983 131.411,139.806 131.929,138.839C140.106,123.598 148.316,108.373 156.554,93.166C161.704,83.661 166.819,74.135 172.146,64.728C174.262,60.993 176.906,57.558 179.385,53.875C180.21,54.941 180.178,55.839 179.595,56.715C178.585,58.234 178.726,59.676 179.444,61.323C182.715,68.824 186.787,75.72 193.464,80.751C194.236,81.332 195.116,81.805 195.778,82.489C196.899,83.648 197.575,83.315 198.537,82.206C206.856,72.61 215.488,63.314 225.148,55.029C225.811,54.459 226.159,53.998 225.714,53.028M312.726,33.479C311.652,31.686 309.356,30.466 307.39,29.402C303.208,27.142 298.563,26.431 293.88,26.184C282.567,25.588 271.808,27.754 261.668,32.866C254.275,36.593 247.351,41.028 240.86,46.18C225.426,58.43 211.53,72.23 198.706,87.173C186.477,101.422 174.069,115.511 162.958,130.684C159.639,135.217 155.76,139.341 152.112,143.63C151.802,143.995 151.337,144.308 150.883,144.455C148.845,145.115 146.71,145.525 144.745,146.348C132.369,151.534 122.258,159.578 114.542,170.587C114.347,170.865 114.127,171.149 114.025,171.465C113.121,174.28 110.923,175.244 108.255,175.443C107.13,175.526 105.962,175.509 104.857,175.306C97.805,174.006 90.985,172.019 85.175,167.602C80.829,164.296 76.626,160.805 72.36,157.396C72.139,157.217 71.947,156.974 71.695,156.867C71.357,156.724 70.974,156.683 70.609,156.598C70.862,156.834 71.136,157.049 71.361,157.308C72.242,158.32 73.281,159.251 73.906,160.405C74.211,160.972 74.01,162.212 73.556,162.698C72.861,163.445 73.014,163.871 73.458,164.562C77.763,171.247 83.763,176.064 90.631,179.819C93.137,181.188 96.055,180.835 98.848,180.658C100.835,180.531 102.824,180.427 104.813,180.417C105.255,180.415 105.699,180.849 106.143,181.082C105.881,181.52 105.722,182.091 105.344,182.375C101.934,184.942 97.81,185.014 93.828,185.538C92.307,185.738 90.762,185.739 89.233,185.889C83.814,186.421 78.743,185.126 73.825,182.997C72.364,182.365 70.937,181.617 69.422,181.159C68.668,180.932 67.271,180.956 67.019,181.377C66.62,182.043 66.63,183.299 67.007,184.027C68.57,187.044 71.077,189.235 74.376,189.923C78.362,190.754 82.447,191.296 86.513,191.53C93.979,191.957 101.081,190.19 107.904,187.221C108.635,186.905 109.349,186.51 110.112,186.319C110.684,186.177 111.325,186.305 111.935,186.312C111.752,187.14 111.624,187.987 111.353,188.784C111.272,189.02 110.788,189.122 110.485,189.279C99.947,194.721 88.837,196.317 77.178,194.249C76.899,194.199 76.616,194.16 76.334,194.142C76.234,194.136 76.128,194.206 75.932,194.273C77.473,196.829 79.466,198.666 82.512,199.187C89.548,200.396 96.394,199.587 102.927,196.868C106.744,195.279 110.33,193.133 114.01,191.217C114.712,190.851 115.345,190.205 115.959,191.341C116.473,192.297 116.657,193.025 115.515,193.765C107.464,198.99 98.933,202.796 89.132,203.006C88.914,203.009 88.697,203.056 88.345,203.412C89.075,203.707 89.783,204.116 90.542,204.279C95.099,205.266 99.625,205.015 103.993,203.42C112.837,200.191 120.886,195.55 128.067,189.435C128.888,188.736 129.727,188.045 130.626,187.451C141.986,179.964 152.882,171.847 163.627,163.502C169.814,158.697 176.439,154.457 182.851,149.94C194.713,141.586 206.735,133.448 218.365,124.781C229.537,116.456 240.313,107.599 251.227,98.929C255.854,95.252 260.477,91.557 264.939,87.682C268.629,84.478 272.101,81.019 275.626,77.627C277.212,76.102 278.927,75.567 281.073,76.267C282.085,76.596 283.204,76.586 284.258,76.806C284.598,76.877 284.886,77.191 285.197,77.393C284.966,77.737 284.798,78.3 284.493,78.387C283.085,78.784 281.648,79.239 280.205,79.302C279.094,79.348 278.235,79.571 277.462,80.339C276.857,80.94 276.182,81.468 275.555,82.046C269.162,87.936 263.34,94.469 256.067,99.369C255.081,100.033 254.771,100.718 255.465,101.882C258.264,106.582 260.564,111.531 262.408,116.681C264.227,121.761 266.077,126.835 267.73,131.97C269.069,136.126 270.136,140.368 271.395,144.823C272.343,143.991 273.37,143.417 273.935,142.543C287.755,121.17 301.251,99.621 310.13,75.575C313.398,66.73 315.765,57.663 316.621,48.26C317.108,42.92 315.404,37.945 312.726,33.479" style="fill:rgb(18,4,14);fill-rule:nonzero;"/>
                    </g>
                    <g transform="matrix(1,0,0,-1,79.4873,440.371)">
                        <path d="M188.099,40.622C188.328,43.041 188.274,45.186 188.786,47.185C189.456,49.799 190.332,52.425 191.584,54.8C192.419,56.385 193.893,57.786 195.382,58.842C198.52,61.066 201.843,60.183 203.443,56.702C204.232,54.987 204.684,53.028 204.859,51.14C205.354,45.803 204.251,40.614 202.987,35.465C202.106,31.878 201.129,28.314 200.277,24.72C199.233,20.321 198.877,15.86 199.229,11.342C199.374,9.473 199.474,7.588 199.384,5.721C199.356,5.155 198.713,4.353 198.175,4.163C197.742,4.011 197.008,4.567 196.475,4.913C196.222,5.077 196.105,5.475 195.966,5.784C194.496,9.039 192.244,11.722 189.946,14.418C184.639,20.644 179.387,26.924 174.303,33.331C172.519,35.578 171.126,38.187 169.861,40.779C169.059,42.426 168.544,44.326 168.39,46.154C168.081,49.834 170.669,52.006 174.242,51.117C175.864,50.714 177.555,50.044 178.863,49.038C181.551,46.967 184.01,44.6 186.544,42.332C187.042,41.886 187.452,41.34 188.099,40.622" style="fill:rgb(212,223,86);fill-rule:nonzero;"/>
                    </g>
                    <g transform="matrix(1,0,0,-1,92.7607,532.701)">
                        <path d="M230.212,80.432C231.786,82.353 233.1,84.225 234.699,85.809C235.752,86.853 237.128,87.72 238.519,88.235C240.481,88.959 242.086,87.61 241.904,85.518C241.807,84.411 241.478,83.266 240.99,82.268C239.844,79.922 238.504,77.672 237.306,75.351C233.893,68.743 230.529,62.11 227.086,55.518C226.797,54.965 226.02,54.27 225.542,54.32C225.026,54.376 224.342,55.158 224.173,55.748C223.677,57.491 223.363,59.289 223.043,61.076C222.504,64.085 221.954,67.095 221.519,70.119C220.939,74.158 220.355,78.202 219.998,82.263C219.874,83.682 220.222,85.227 220.693,86.596C221.731,89.606 224.596,90.227 226.634,87.771C227.905,86.239 228.657,84.268 229.579,82.463C229.88,81.876 229.984,81.187 230.212,80.432" style="fill:rgb(212,223,86);fill-rule:nonzero;"/>
                    </g>
                    <g transform="matrix(1,0,0,-1,54.6592,514.184)">
                        <path d="M88.147,81.548C96.999,81.506 102.612,77.312 105.042,68.8C106.674,63.089 106.98,57.389 104.558,51.763C104.395,51.389 104.615,50.712 104.878,50.324C105.447,49.486 106.245,48.798 106.789,47.946C107.308,47.132 106.871,46.66 105.961,46.638C104.291,46.599 101.437,48.377 100.895,49.945C100.674,50.587 100.685,51.427 100.894,52.081C102.731,57.814 102.156,63.461 100.147,68.974C97.598,75.97 93.189,77.286 87.463,77.769C85.554,77.931 83.251,76.962 81.596,75.827C78.669,73.82 76.112,71.278 73.374,68.993C72.962,68.648 72.405,68.476 71.914,68.226C71.906,68.734 71.742,69.301 71.909,69.743C74.933,77.737 80.251,81.586 88.147,81.548" style="fill:rgb(18,4,14);fill-rule:nonzero;"/>
                    </g>
                    <g transform="matrix(1,0,0,-1,63.3184,491.518)">
                        <path d="M114.979,47.851C112.498,47.954 109.831,48.659 107.397,50.147C106.915,50.441 106.36,50.743 106.069,51.19C105.736,51.707 105.36,52.52 105.555,52.96C105.74,53.376 106.661,53.721 107.221,53.671C109.427,53.473 111.617,52.881 113.815,52.87C116.054,52.857 118.411,53.022 120.501,53.737C122.104,54.288 123.359,55.832 124.795,56.897C125.116,57.134 125.547,57.22 125.928,57.374C126.018,56.978 126.266,56.541 126.176,56.191C124.949,51.4 120.288,47.836 114.979,47.851" style="fill:rgb(18,4,14);fill-rule:nonzero;"/>
                    </g>
                    <g transform="matrix(1,0,0,-1,56.1011,519.878)">
                        <path d="M79.689,58.418C78.94,58.754 78.19,59.089 77.441,59.426C78.125,59.8 78.774,60.276 79.5,60.53C83.594,61.957 86.645,64.651 88.97,68.229C89.65,69.275 90.145,70.448 90.875,71.453C91.211,71.915 91.91,72.113 92.446,72.431C92.632,71.88 93.05,71.292 92.97,70.783C92.082,65.179 88.707,59.368 80.663,58.74C80.382,58.717 80.096,58.736 79.812,58.736C79.771,58.63 79.73,58.524 79.689,58.418" style="fill:rgb(18,4,14);fill-rule:nonzero;"/>
                    </g>
                    <g transform="matrix(1,0,0,-1,62.082,542.645)">
                        <path d="M103.049,68.54C102.307,68.679 101.825,68.684 101.429,68.872C101.113,69.021 100.676,69.409 100.695,69.659C100.723,70.018 101.043,70.507 101.37,70.661C102.185,71.047 103.096,71.222 103.931,71.574C108.924,73.681 112.828,77.184 116.273,81.267C116.528,81.57 116.708,81.962 117.016,82.187C117.241,82.354 117.704,82.455 117.904,82.33C118.111,82.201 118.287,81.71 118.202,81.478C117.93,80.737 117.545,80.035 117.177,79.332C114.894,74.964 111.727,71.502 107.041,69.68C105.68,69.151 104.222,68.868 103.049,68.54" style="fill:rgb(18,4,14);fill-rule:nonzero;"/>
                    </g>
                    <g transform="matrix(1,0,0,-1,36.1831,577.083)">
                        <path d="M32.736,68.315C32.514,68.32 32.29,68.388 32.094,68.565C26.807,73.287 20.475,76.552 14.646,80.522C9.975,83.709 5.403,87.507 2.67,92.556C0.795,96.017 -1.118,100.884 0.791,104.704C2.998,109.117 7.752,108.652 11.354,106.476C12.766,105.62 14.131,104.628 15.438,103.534C15.288,105.62 15.43,107.714 15.775,109.604C16.44,113.242 19.054,119.18 23.552,118.975C27.523,118.793 29.454,113.164 30.432,110.059C32.363,103.94 32.5,97.269 32.658,90.904C32.75,87.283 32.795,83.759 33.624,80.213C34.376,76.976 35.373,73.815 35.842,70.514C36.074,68.911 33.273,66.694 32.736,68.315" style="fill:rgb(212,223,86);fill-rule:nonzero;"/>
                    </g>
                    <g transform="matrix(1,0,0,-1,37.5723,460.42)">
                        <path d="M30.149,44.758C29.602,38.396 27.749,31.275 29.584,24.987C29.902,23.908 28.009,21.312 26.88,22.496C25.687,23.749 24.722,25.164 23.728,26.562C18.456,29.099 13.926,33.196 10.437,37.864C7.629,41.625 5.369,46.329 5.402,51.128C5.425,53.773 6.891,56.741 9.887,56.719C12.674,56.701 15.333,54.324 17.144,52.453C17.573,52.016 17.983,51.552 18.383,51.083C18.629,51.852 18.948,52.599 19.334,53.309C20.687,55.8 23.815,59.341 27.039,57.922C31.274,56.055 30.449,48.3 30.149,44.758" style="fill:rgb(212,223,86);fill-rule:nonzero;"/>
                    </g>
                    <g transform="matrix(1,0,0,-1,55.0986,757.784)">
                        <path d="M75.157,159.474C78.063,163.332 79.944,167.719 83.608,171.033C87.406,174.466 92.34,176.009 97.195,177.296C102.532,178.711 107.994,179.597 113.506,179.924C116.248,180.087 118.997,180.116 121.741,180.005C123.108,179.95 124.483,179.876 125.838,179.676C127.343,179.456 128.78,178.956 130.29,178.79C132.192,178.581 132.687,181.362 131.221,182.231C128.714,183.715 125.161,183.777 122.32,183.895C119.189,184.026 116.046,183.972 112.919,183.752C106.882,183.328 100.874,182.296 95.051,180.639C89.789,179.139 84.61,177.218 80.654,173.294C77.158,169.826 74.031,164.888 73.547,159.91C73.454,158.956 74.707,158.876 75.157,159.474" style="fill-rule:nonzero;"/>
                    </g>
                    <g transform="matrix(1,0,0,-1,89.5698,725.701)">
                        <path d="M208.776,152.356C209.971,152.54 211.013,153.293 212.106,153.782C213.304,154.319 214.544,154.732 215.795,155.126C218.33,155.923 220.914,156.433 223.57,156.589C226.121,156.738 228.694,156.596 231.202,156.092C232.453,155.84 233.688,155.512 234.898,155.105C236.173,154.677 237.391,153.963 238.688,153.641C240.76,153.127 241.604,155.722 240.057,156.891C237.935,158.495 234.498,159.164 231.923,159.609C229.008,160.112 226.04,160.265 223.091,159.991C220.251,159.727 217.39,159.135 214.727,158.098C212.458,157.213 209.047,155.889 207.711,153.742C207.233,152.974 208.019,152.239 208.776,152.356" style="fill-rule:nonzero;"/>
                    </g>
                </g>
            </g>
        </g>
    </g>
</svg>
