<?xml version="1.0" encoding="UTF-8" standalone="no"?>
<!DOCTYPE svg PUBLIC "-//W3C//DTD SVG 1.1//EN" "http://www.w3.org/Graphics/SVG/1.1/DTD/svg11.dtd">
<svg width="100%" height="100%" viewBox="0 0 340 350" version="1.1" xmlns="http://www.w3.org/2000/svg" xmlns:xlink="http://www.w3.org/1999/xlink" xml:space="preserve" xmlns:serif="http://www.serif.com/" style="fill-rule:evenodd;clip-rule:evenodd;stroke-linejoin:round;stroke-miterlimit:2;">
    <g transform="matrix(1,0,0,1,-972,0)">
        <g transform="matrix(1.02719,0,0,1.00984,-27.0861,28.4885)">
            <rect id="img_0-1" x="972.64" y="-28.211" width="331" height="346.588" style="fill:none;"/>
            <g id="img_0-11" serif:id="img_0-1">
                <g transform="matrix(0.97353,0,0,0.990252,30.1269,1.41425)">
                    <g transform="matrix(1,0,0,1,941.641,-55.7108)">
                        <g>
                            <g transform="matrix(1,0,0,-1,31,370.903)">
                                <path d="M25.056,299.014C32.667,305.887 41.883,311.009 52.08,315.191C105.638,337.157 161.024,343.244 218.453,339.968C245.752,338.41 271.337,332.754 293.836,316.34C314.239,301.494 328.763,278.373 328.508,252.509C328.36,237.462 324.888,116.396 321.014,101.93C317.533,88.932 311.799,77.356 301.824,68.202C292.515,59.66 280.958,53.163 269.265,48.577C267.258,47.79 265.221,47.146 263.163,46.599C254.941,30.759 251.661,9.212 250.7,1.467C250.575,0.461 249.278,0.159 248.715,1C237.406,17.885 229.821,32.07 224.77,43.792L224.764,43.796C168.967,42.92 110.95,41.487 56.009,53.024C43.565,55.636 30.871,59.399 21.253,67.771C13.396,74.61 8.151,84.119 5.064,94.107C-2.514,118.627 -0.506,252.366 9.032,276.043C12.823,285.452 18.309,292.921 25.056,299.014" style="fill:white;fill-rule:nonzero;"/>
                            </g>
                            <g transform="matrix(1,0,0,-1,31,374.091)">
                                <path d="M225.878,345.219C227.171,345.105 228.466,345.031 229.758,344.884C226.623,345.207 223.445,345.48 220.24,345.667C217.033,345.876 213.822,345.966 210.585,346.115C207.354,346.282 204.098,346.286 200.847,346.362C197.596,346.451 194.341,346.422 191.098,346.404C192.862,346.452 194.646,346.501 196.447,346.551C198.246,346.586 200.063,346.573 201.89,346.584C203.719,346.586 205.559,346.589 207.408,346.591C209.255,346.553 211.11,346.514 212.969,346.475C220.383,346.373 227.975,345.926 235.288,344.991C242.611,344.062 249.701,342.628 256.176,340.697C262.654,338.776 268.503,336.354 273.4,333.73C273.724,333.723 274.405,333.543 275.357,333.233C276.303,332.916 277.538,332.509 278.892,331.897C281.637,330.75 285.016,329.099 288.22,327.244C294.655,323.587 300.335,319.063 300.448,318.749C304.884,314.882 309.031,310.578 312.763,305.854C311.435,307.44 310.155,309.068 308.729,310.552C308.029,311.305 307.349,312.078 306.633,312.813L304.448,314.969L306.633,312.813C307.349,312.078 308.029,311.305 308.729,310.552C310.155,309.068 311.435,307.44 312.763,305.854C315.678,302.099 318.465,298.168 320.818,293.909C323.159,289.653 325.281,285.206 326.882,280.502C328.465,275.8 329.69,270.921 330.375,265.906C330.996,260.895 331.148,255.735 330.857,250.707C330.322,240.588 328.517,124.739 326.215,114.755C325.643,112.256 325.027,109.765 324.404,107.272C323.773,104.806 323.126,102.248 322.337,99.722C321.547,97.199 320.655,94.692 319.645,92.217C318.615,89.749 317.458,87.318 316.167,84.945C314.49,81.909 312.16,78.206 308.94,74.414C307.349,72.508 305.487,70.616 303.477,68.75C301.477,66.903 299.286,65.098 296.957,63.345C292.299,59.836 287.055,56.575 281.509,53.725C278.737,52.299 275.889,50.975 273.007,49.756C271.568,49.161 270.129,48.546 268.585,48.001C267.824,47.73 267.063,47.478 266.301,47.241L265.469,46.982L265.393,46.808L264.742,45.459C264.331,44.508 263.922,43.563 263.516,42.624C262.749,40.719 262.025,38.821 261.387,36.924C260.099,33.135 259.051,29.405 258.177,25.863C257.298,22.322 256.62,18.96 256.059,15.892C255.77,14.36 255.536,12.894 255.316,11.517C255.242,11.042 255.169,10.574 255.097,10.114C255,9.441 254.904,8.778 254.81,8.127C254.634,6.808 254.464,5.535 254.301,4.31C253.965,3.526 253.729,2.972 253.497,2.434L253.31,2C253.247,1.868 253.19,1.669 253.117,1.643L252.697,1.264C252.398,1.018 252.18,0.737 251.809,0.559C251.41,0.336 250.776,0.106 250.191,0.041C249.9,0 249.62,0 249.397,0.005L249.106,0.028C249.007,0.072 248.895,0.167 248.789,0.234C247.927,0.822 247.065,1.411 246.201,2.001L245.55,2.444C245.441,2.541 245.334,2.541 245.223,2.717L244.892,3.217L243.563,5.228C243.931,4.674 244.278,4.155 244.604,3.666C244.766,3.423 244.924,3.187 245.076,2.958C245.153,2.848 245.229,2.719 245.302,2.631L245.517,2.487C246.081,2.107 246.578,1.772 247.029,1.468C247.479,1.163 247.882,0.889 248.264,0.63C248.454,0.5 248.639,0.375 248.82,0.251C248.911,0.191 249.003,0.122 249.089,0.07L249.326,0.051C249.673,0.028 250.198,0.053 250.717,0.184C251.235,0.309 251.774,0.572 252.056,0.771C252.348,1.02 252.664,1.33 253.024,1.663C253.068,1.713 253.117,1.731 253.158,1.81L253.285,2.107C253.369,2.308 253.456,2.515 253.546,2.728C253.727,3.155 253.916,3.608 254.12,4.092C253.854,3.503 253.589,2.915 253.324,2.33L253.128,1.892C253.059,1.783 252.982,1.752 252.91,1.678L252.477,1.297L252.046,0.916C251.917,0.826 251.712,0.711 251.464,0.599C250.966,0.369 250.285,0.223 249.736,0.236C249.464,0.237 249.23,0.265 249.068,0.302L248.429,0.777L247.16,1.734L245.905,2.688L245.593,2.926L245.438,3.045C245.386,3.082 245.333,3.196 245.281,3.268L244.654,4.247C243.827,5.541 243.004,6.828 242.184,8.109L241.879,8.586L241.711,8.863L241.377,9.41L240.714,10.502C239.824,11.949 238.974,13.405 238.12,14.839C234.742,20.605 231.632,26.278 228.768,31.971C229.943,30.056 230.22,29.756 232.967,25.211C231.882,27.078 230.824,28.963 229.786,30.86C229.076,32.463 228.042,34.658 226.901,37.12C226.339,38.356 225.747,39.656 225.145,40.978C224.852,41.643 224.556,42.313 224.26,42.983L223.849,43.925L223.666,44.375L223.539,44.689C223.484,44.774 223.49,44.956 223.35,44.91C223.13,44.912 222.913,44.915 222.699,44.917L220.387,44.917C218.632,44.922 217.048,44.928 215.758,44.932C217.118,44.733 212.149,44.612 207.764,44.513L209.497,44.684C192.856,44.326 173.516,44.314 158.615,44.521C156.538,44.555 154.98,44.498 154.038,44.438C149.276,44.548 144.514,44.79 139.753,44.968C140.843,44.629 127.892,45.202 134.704,44.735C129.353,45.095 123.977,45.455 118.66,45.812C113.345,46.257 108.087,46.63 103.022,47.334C84.841,49.059 66.199,51.8 47.645,56.403C43.018,57.649 38.415,59.167 33.985,61.172C29.561,63.168 25.298,65.666 21.518,68.806C17.702,71.914 14.481,75.69 11.813,79.755C9.147,83.831 7.02,88.216 5.391,92.741L5.831,91.902C5.233,93.474 4.723,95.05 4.257,96.624C3.815,98.202 3.432,99.777 3.023,101.344C2.661,102.923 2.362,104.514 2.027,106.106C1.738,107.707 1.508,109.329 1.239,110.964C0.318,117.534 -0.128,124.518 0.031,132.609C0.376,138.378 1.272,251.092 2.602,257.049C2.957,258.533 3.26,259.972 3.625,261.306C4.007,262.634 4.364,263.879 4.689,265.012C5.414,267.251 6.07,269.009 6.53,270.056C7.063,271.616 7.557,273.058 8.02,274.412C8.544,275.742 9.035,276.986 9.502,278.171C10.454,280.528 11.458,282.573 12.552,284.56C14.772,288.504 17.268,292.282 21.58,296.955C20.595,295.637 22.696,297.898 24.708,299.702C26.708,301.48 28.61,303.038 26.296,300.809C23.357,297.825 21.939,296.156 20.62,294.604C19.328,293.036 18.13,291.568 16.354,288.519L16.382,288.75C14.186,285.265 12.373,281.563 10.925,277.676C10.209,275.707 9.462,273.751 8.859,271.743C8.188,269.758 7.65,267.731 7.095,265.71C4.965,257.602 3.721,249.257 3.311,240.879C2.986,232.5 3.408,118.292 4.973,110.051C5.671,105.916 6.785,101.865 7.984,97.861C9.25,93.915 10.849,90.082 12.829,86.481C15.376,81.626 18.745,77.106 22.895,73.392C27.061,69.686 32.065,66.808 37.439,64.612C48.203,60.215 60.313,58.324 71.961,56.21C97.13,51.847 124.817,49.853 146.801,49.106C152.046,48.848 155.84,49.098 160.318,49.151C169.966,48.988 180.878,48.971 192.129,49.084C197.757,49.15 203.468,49.218 209.146,49.285C211.987,49.32 214.819,49.356 217.63,49.391C219.035,49.407 220.434,49.424 221.826,49.44L223.274,49.458L224.139,49.469C224.434,49.484 224.652,49.378 224.912,49.339L225.662,49.174L226.036,49.092C226.147,49.039 226.199,48.9 226.283,48.808L227.199,47.577C227.764,46.293 228.298,45.083 228.827,43.88C228.646,44.268 228.472,44.643 228.357,44.89C230.828,39.378 233.301,34.693 235.874,30.109C238.448,25.523 241.138,21.042 244.237,15.999C244.134,16.003 245.094,14.439 245.539,13.665C245.646,13.552 245.938,13.13 246.388,12.444C246.628,12.08 246.956,11.579 247.359,10.965C247.61,10.573 247.908,10.109 248.242,9.588C248.327,9.461 248.501,9.402 248.647,9.452C248.804,9.498 248.876,9.66 248.882,9.814C248.934,10.129 248.99,10.458 249.046,10.798C249.206,11.683 249.375,12.611 249.55,13.573C249.87,15.313 250.229,17.107 250.617,18.936C251.393,22.593 252.328,26.383 253.408,30.132C254.486,33.881 255.71,37.589 257.051,41.082C257.758,42.818 258.423,44.52 259.18,46.125C259.543,46.933 259.892,47.728 260.29,48.485C260.803,49.507 261.305,50.506 261.793,51.479C262.536,51.677 263.267,51.872 263.986,52.063C264.46,52.201 264.924,52.336 265.382,52.469C266.242,52.73 267.06,53.004 267.829,53.282C269.362,53.854 270.786,54.421 271.969,54.921C274.353,55.918 275.917,56.673 276.413,56.943C277.523,57.44 278.656,57.99 279.806,58.567C285.275,61.431 290.539,64.795 295.342,68.654C297.737,70.58 300.048,72.642 302.135,74.795C304.227,76.964 306.118,79.295 307.811,81.731C311.202,86.607 313.76,91.912 315.71,97.256C316.686,99.93 317.517,102.615 318.224,105.285C318.943,107.985 319.639,110.675 320.29,113.273C321.611,117.752 322.889,122.832 323.818,126.641C324.323,130.394 324.797,236.824 325.375,241.345C325.737,247.126 325.832,251.66 325.91,254.025C325.982,256.387 326.141,256.591 326.216,253.628C326.263,254.809 326.305,255.99 326.26,257.149C326.23,258.313 326.234,259.478 326.173,260.635C325.956,262.945 325.789,265.246 325.348,267.479C325.042,269.734 324.414,271.894 323.924,274.028C323.257,276.116 322.714,278.193 321.923,280.116C320.689,283.773 318.996,287.228 317.219,290.698C316.396,292.136 315.712,293.232 315.115,294.137C314.522,295.044 313.917,295.699 313.383,296.34C312.789,297.216 312.318,297.969 311.863,298.577C311.401,299.179 311.017,299.68 310.685,300.115C310.008,300.975 309.55,301.582 309.036,302.158C308.516,302.728 307.987,303.307 307.215,304.153C306.471,305.024 305.409,306.094 303.858,307.674C303.055,308.382 299.155,312.34 294.805,315.888C292.659,317.693 290.337,319.318 288.496,320.672C286.595,321.933 285.137,322.877 284.592,323.194L285.805,322.385C285.258,322.723 284.72,323.054 284.193,323.378C283.651,323.675 283.118,323.965 282.594,324.251C281.543,324.814 280.539,325.377 279.534,325.876C277.493,326.821 275.589,327.781 273.604,328.548C269.698,330.222 265.698,331.567 260.938,333.147C247.629,337.36 233.028,339.497 218.582,340.342C204.054,341.203 189.75,341.43 176.652,340.968C176.384,341.258 182.434,341.019 182.733,341.415C167.26,341.106 151.714,339.669 136.28,337.572C134.889,337.374 133.352,337.096 132.007,336.817C130.662,336.551 129.507,336.311 128.88,336.168C123.986,335.282 125.948,335.908 122.371,335.222L121.933,334.871C116.666,334.107 114.331,333.232 109.429,332.242C109.148,332.291 107.358,331.92 105.623,331.537C105.611,331.381 104.265,331.127 102.978,330.815C101.69,330.503 100.443,330.205 100.599,330.11L100.544,330.119C99.504,329.856 98.761,329.69 97.501,329.328C97.002,329.226 95.458,328.911 93.393,328.49C91.34,328.003 88.768,327.392 86.196,326.781C83.611,326.204 81.063,325.488 79.02,324.935C76.975,324.387 75.445,323.978 74.943,323.843L74.037,323.508C71.318,322.622 70.111,322.369 71.666,322.988L68.343,321.796L68.733,321.914L65.429,320.729C64.827,320.49 64.181,320.123 65.163,320.338C63.246,319.798 61.156,319.006 59.321,318.239C60.594,318.782 61.944,319.358 63.336,319.953C64.744,320.508 66.195,321.08 67.653,321.656C70.567,322.817 73.507,324.014 76.236,324.986C75.092,324.658 73.487,324.188 71.9,323.589C70.308,323.004 68.695,322.402 67.472,321.986C66.059,321.363 63.842,320.569 61.47,319.536C59.089,318.529 56.496,317.433 54.227,316.473C53.21,316.096 52.402,316.119 50.223,315.024C49.221,314.354 47.709,313.92 45.96,312.905C48.091,313.841 50.158,314.749 52.307,315.692C52.168,315.499 50.867,314.905 49.404,314.236C47.945,313.558 46.328,312.799 45.516,312.356C44.691,312.065 40.719,309.934 38.287,308.513C39.462,308.937 36.41,307.22 35.117,306.164C33.563,305.091 32.539,304.452 33.109,304.972C32.783,304.905 34.292,306.032 35.639,306.96C36.992,307.88 38.153,308.64 36.952,308.061C36.416,307.595 33.274,305.595 31.682,304.386C31.576,304.489 32.716,305.292 31.59,304.63C29.818,303.276 27.882,301.906 27.036,300.93C27.376,301.175 28.043,301.804 28.55,302.215C27.446,301.274 30.563,303.68 33.839,305.642C37.1,307.629 40.438,309.258 38.8,308.352C39.19,308.652 35.507,306.78 32.175,304.561C28.816,302.382 25.857,299.85 26.563,300.51C27.845,301.732 25.432,299.868 26.778,301.118C27.329,301.521 27.872,301.93 28.438,302.311C30.335,303.945 31.025,304.755 30.258,304.298C28.609,302.975 31.086,304.688 33.74,306.231C36.386,307.79 39.21,309.172 37.628,308.318L38.844,309.132C37.47,308.46 33.989,306.331 32.828,305.262C32.733,305.379 31.04,304.224 29.683,303.201L29.227,302.806C27.814,301.764 26.018,300.091 26.743,300.994C28.681,302.692 29.326,303.277 29.238,303.394C29.151,303.511 28.374,303.103 27.576,302.69C26.783,302.271 25.992,301.818 25.862,301.91C25.743,301.987 26.255,302.65 28.221,304.285C25.147,301.278 29.451,305.06 33.194,307.521C33.497,307.845 35.041,309.132 37.789,310.849C40.232,312.223 39.276,311.572 39.78,311.761C41.097,312.585 43.71,313.998 43.293,313.963C45.333,314.764 46.376,315.618 48.803,316.63C50.959,317.47 48.694,316.488 50.235,317.055C53.415,318.438 57.977,320.166 60.527,321.232C61.456,321.797 64.438,323.151 62.117,322.582C57.209,320.632 64.126,322.941 58.993,320.992C61.067,322.19 54.433,319.316 53.402,319.205C54.973,319.994 58.28,321.289 61.061,322.327L60.523,322.066C62.969,322.992 67.952,324.592 70.551,325.74C69.882,325.638 71.018,326.14 69.193,325.528C70.326,325.928 71.449,326.362 72.591,326.734C73.04,326.834 73.501,326.937 72.52,326.596C74.171,327.016 75.773,327.582 76.997,328.048C77.301,328.43 95.514,332.973 94.97,332.721C97.487,333.341 98.049,333.688 100.532,334.164C100.568,334.159 100.217,334.069 99.583,333.917C98.947,333.768 98.029,333.553 96.93,333.296C95.829,333.044 94.548,332.751 93.188,332.439C91.828,332.129 90.408,331.728 89.001,331.373C86.194,330.636 83.47,329.962 81.674,329.463C79.883,328.943 78.994,328.69 79.815,328.939C80.333,329.142 82.352,329.782 85.152,330.488C86.548,330.852 88.132,331.265 89.806,331.702C90.643,331.919 91.503,332.142 92.373,332.367C93.25,332.567 94.138,332.768 95.025,332.97C96.799,333.372 98.567,333.772 100.235,334.15C101.068,334.341 101.876,334.526 102.647,334.702C103.422,334.858 104.16,335.007 104.848,335.145C107.601,335.699 109.555,336.117 109.937,336.264C111.814,336.669 114.089,337.108 113.675,336.874C116.853,337.526 112.67,336.953 114.918,337.496C114.974,337.485 114.746,337.395 115.47,337.533L117.623,338.105C122.607,338.876 129.878,340.257 135.142,340.716C133.603,340.697 131.849,340.648 128.466,340.273L127.889,340.112C127.405,340.08 124.631,339.701 124.687,339.847C127.867,340.424 130.606,340.833 133.988,341.2C134.606,341.315 135.326,341.449 135.81,341.54C135.8,341.52 135.75,341.499 135.766,341.48C136.858,341.702 136.74,341.701 136.331,341.703C136.277,341.706 136.21,341.709 136.093,341.705C137.073,342.027 140.233,342.358 143.874,342.725C147.522,343.004 151.654,343.284 154.582,343.674C156.322,343.741 154.75,343.618 156.915,343.694C159.918,343.983 162.455,344.227 165.026,344.474C167.604,344.64 170.216,344.807 173.363,345.009C175.383,344.928 175.54,344.866 173.117,344.58C174.701,344.677 176.286,344.759 177.872,344.795C173.529,345.164 186.758,345.408 181.974,345.768C183.367,345.891 186.224,346.011 188.896,345.899C189.165,345.783 189.585,345.598 192.943,345.587C197.618,345.726 196.504,345.687 200.375,345.732C201.294,345.857 199.875,345.953 200.041,346.068C203.026,345.896 204.33,345.943 205.595,346.012C206.859,346.088 208.083,346.179 210.897,346.02C212.66,345.916 215.281,345.762 217.484,345.632C219.686,345.486 221.477,345.264 221.551,345.137C226.317,344.82 226.333,344.944 225.878,345.219" style="fill-rule:nonzero;"/>
                            </g>
                            <g transform="matrix(1,0,0,-1,31,283.882)">
                                <path d="M268.585,99.705C273.487,99.705 278.397,99.467 283.288,99.77C288.641,100.1 290.221,101.833 291.785,108.462C294.789,121.217 294.422,134.332 293.93,147.4C293.779,151.371 291.336,153.176 288.388,153.365C277.286,154.082 266.346,156.779 255.133,156.544C211.053,155.618 209.876,157.11 165.776,154.496C131.53,152.466 97.167,153.661 62.857,153.335C57.967,153.288 53.029,153.187 48.202,152.311C42.232,151.228 40.474,148.475 40.354,141.082C40.243,134.268 40.232,127.455 41.489,120.713C45.396,99.76 47.354,102.519 59.213,102.407C73.025,102.278 86.864,102.77 100.643,101.827C111.736,101.067 122.773,99.272 133.934,99.388C161.56,99.673 189.186,99.576 216.813,99.825C222.581,99.876 228.342,101.089 234.112,101.182C252.368,101.474 227.747,102.194 245.973,101.27C253.474,100.89 261.02,99.702 268.585,99.705" style="fill:rgb(1,115,181);fill-rule:nonzero;"/>
                            </g>
                            <g transform="matrix(1,0,0,-1,31,318.088)">
                                <path d="M268.407,117.459C273.3,117.459 278.202,117.226 283.084,117.523C288.428,117.845 290.007,119.539 291.566,126.016C294.566,138.48 294.198,151.295 293.707,164.064C293.557,167.944 291.118,169.708 288.176,169.893C277.093,170.593 266.173,173.228 254.979,172.999C210.976,172.094 209.801,173.552 165.778,170.998C131.592,169.014 97.29,170.182 63.041,169.863C58.158,169.817 53.229,169.719 48.411,168.863C42.452,167.805 40.695,165.115 40.576,157.89C40.466,151.232 40.454,144.575 41.709,137.987C45.61,117.513 47.563,120.209 59.402,120.099C73.19,119.973 87.005,120.454 100.76,119.533C111.833,118.79 122.852,117.036 133.992,117.149C161.569,117.428 189.149,117.333 216.726,117.576C222.484,117.626 228.234,118.811 233.995,118.902C252.218,119.188 227.641,119.891 245.834,118.988C253.323,118.617 260.855,117.457 268.407,117.459" style="fill:rgb(1,115,181);fill-rule:nonzero;"/>
                            </g>
                        </g>
                    </g>
                    <g transform="matrix(1,0,0,1,941.641,-55.7108)">
                        <path d="M86.57,113.723C84.802,113.723 83.108,113.536 81.487,113.162C79.866,112.788 78.557,112.261 77.56,111.581C77.22,111.332 77.05,111.105 77.05,110.901C77.05,110.765 77.107,110.607 77.22,110.425L78.614,108.215C78.75,107.989 78.897,107.875 79.056,107.875C79.192,107.875 79.362,107.943 79.566,108.079C80.405,108.555 81.368,108.941 82.456,109.235C83.544,109.53 84.643,109.677 85.754,109.677C87.069,109.677 88.043,109.468 88.678,109.048C89.313,108.629 89.63,107.966 89.63,107.059C89.63,106.447 89.477,105.949 89.171,105.563C88.865,105.178 88.412,104.838 87.811,104.543C87.21,104.249 86.287,103.863 85.04,103.387C83.589,102.843 82.36,102.288 81.351,101.721C80.342,101.155 79.515,100.424 78.869,99.528C78.223,98.633 77.9,97.539 77.9,96.247C77.9,94.094 78.682,92.445 80.246,91.3C81.81,90.156 83.873,89.583 86.434,89.583C89.811,89.583 92.395,90.218 94.186,91.487C94.526,91.759 94.696,91.986 94.696,92.167C94.696,92.303 94.639,92.462 94.526,92.643L93.132,94.853C92.996,95.08 92.849,95.193 92.69,95.193C92.554,95.193 92.384,95.125 92.18,94.989C90.797,94.083 89.12,93.629 87.148,93.629C84.7,93.629 83.476,94.513 83.476,96.281C83.476,96.871 83.618,97.352 83.901,97.726C84.184,98.1 84.575,98.418 85.074,98.678C85.573,98.939 86.355,99.273 87.42,99.681L88.372,100.055C90.027,100.713 91.33,101.33 92.282,101.908C93.234,102.486 93.965,103.195 94.475,104.033C94.985,104.872 95.24,105.949 95.24,107.263C95.24,109.235 94.498,110.805 93.013,111.972C91.528,113.14 89.381,113.723 86.57,113.723Z" style="fill-rule:nonzero;"/>
                        <path d="M109.214,113.723C105.361,113.723 102.42,112.669 100.391,110.561C98.362,108.453 97.348,105.484 97.348,101.653C97.348,97.823 98.362,94.853 100.391,92.745C102.42,90.637 105.361,89.583 109.214,89.583C113.045,89.583 115.974,90.637 118.003,92.745C120.032,94.853 121.046,97.823 121.046,101.653C121.046,105.484 120.032,108.453 118.003,110.561C115.974,112.669 113.045,113.723 109.214,113.723ZM109.214,109.677C111.277,109.677 112.835,109.003 113.889,107.654C114.943,106.306 115.47,104.305 115.47,101.653C115.47,99.001 114.943,97.001 113.889,95.652C112.835,94.304 111.277,93.629 109.214,93.629C107.129,93.629 105.559,94.304 104.505,95.652C103.451,97.001 102.924,99.001 102.924,101.653C102.924,104.305 103.451,106.306 104.505,107.654C105.559,109.003 107.129,109.677 109.214,109.677Z" style="fill-rule:nonzero;"/>
                        <path d="M134.272,113.723C132.187,113.723 130.339,113.372 128.73,112.669C127.121,111.967 125.874,110.952 124.99,109.626C124.106,108.3 123.664,106.742 123.664,104.951L123.664,91.589C123.664,91.091 123.783,90.717 124.021,90.467C124.259,90.218 124.65,90.093 125.194,90.093L127.744,90.093C128.311,90.093 128.707,90.212 128.934,90.45C129.161,90.688 129.274,91.068 129.274,91.589L129.274,105.053C129.274,106.527 129.716,107.666 130.6,108.47C131.484,109.275 132.708,109.677 134.272,109.677C135.836,109.677 137.054,109.275 137.927,108.47C138.8,107.666 139.236,106.527 139.236,105.053L139.236,91.589C139.236,91.091 139.355,90.717 139.593,90.467C139.831,90.218 140.222,90.093 140.766,90.093L143.316,90.093C143.883,90.093 144.285,90.218 144.523,90.467C144.761,90.717 144.88,91.091 144.88,91.589L144.88,104.951C144.88,106.742 144.432,108.3 143.537,109.626C142.642,110.952 141.395,111.967 139.797,112.669C138.199,113.372 136.357,113.723 134.272,113.723Z" style="fill-rule:nonzero;"/>
                        <path d="M149.708,113.213C149.164,113.213 148.773,113.094 148.535,112.856C148.297,112.618 148.178,112.25 148.178,111.751L148.178,91.555C148.178,91.057 148.297,90.688 148.535,90.45C148.773,90.212 149.175,90.093 149.742,90.093L151.85,90.093C152.235,90.093 152.524,90.144 152.717,90.246C152.91,90.348 153.119,90.547 153.346,90.841L162.866,104.271L162.866,91.589C162.866,91.091 162.985,90.717 163.223,90.467C163.461,90.218 163.852,90.093 164.396,90.093L166.946,90.093C167.513,90.093 167.909,90.212 168.136,90.45C168.363,90.688 168.476,91.068 168.476,91.589L168.476,111.751C168.476,112.25 168.363,112.618 168.136,112.856C167.909,113.094 167.513,113.213 166.946,113.213L164.804,113.213C164.441,113.213 164.164,113.162 163.971,113.06C163.778,112.958 163.569,112.76 163.342,112.465L153.788,99.069L153.788,111.751C153.788,112.25 153.675,112.618 153.448,112.856C153.221,113.094 152.825,113.213 152.258,113.213L149.708,113.213Z" style="fill-rule:nonzero;"/>
                        <path d="M173.474,113.213C172.93,113.213 172.539,113.094 172.301,112.856C172.063,112.618 171.944,112.25 171.944,111.751L171.944,91.589C171.944,91.091 172.063,90.717 172.301,90.467C172.539,90.218 172.93,90.093 173.474,90.093L180.614,90.093C184.49,90.093 187.437,91.023 189.454,92.881C191.471,94.74 192.48,97.664 192.48,101.653C192.48,105.597 191.46,108.51 189.42,110.391C187.38,112.273 184.445,113.213 180.614,113.213L173.474,113.213ZM180.886,109.099C182.903,109.099 184.411,108.538 185.408,107.416C186.405,106.294 186.904,104.373 186.904,101.653C186.904,98.933 186.405,97.018 185.408,95.907C184.411,94.797 182.903,94.241 180.886,94.241L177.554,94.241L177.554,109.099L180.886,109.099Z" style="fill-rule:nonzero;"/>
                        <path d="M195.88,105.053C195.381,105.053 195.041,104.946 194.86,104.73C194.679,104.515 194.588,104.181 194.588,103.727L194.588,102.231C194.588,101.778 194.679,101.444 194.86,101.228C195.041,101.013 195.381,100.905 195.88,100.905L207.168,100.905C207.644,100.905 207.978,101.013 208.171,101.228C208.364,101.444 208.46,101.778 208.46,102.231L208.46,103.727C208.46,104.181 208.364,104.515 208.171,104.73C207.978,104.946 207.644,105.053 207.168,105.053L195.88,105.053Z" style="fill-rule:nonzero;"/>
                        <path d="M222.978,113.723C219.034,113.723 215.98,112.686 213.815,110.612C211.65,108.538 210.568,105.552 210.568,101.653C210.568,97.732 211.628,94.74 213.747,92.677C215.866,90.615 218.898,89.583 222.842,89.583C224.497,89.583 225.998,89.748 227.347,90.076C228.696,90.405 229.835,90.875 230.764,91.487C230.991,91.646 231.104,91.827 231.104,92.031C231.104,92.213 231.036,92.405 230.9,92.609L229.71,94.683C229.551,94.933 229.393,95.057 229.234,95.057C229.098,95.057 228.905,94.989 228.656,94.853C227.205,94.037 225.494,93.629 223.522,93.629C221.187,93.629 219.374,94.304 218.082,95.652C216.79,97.001 216.144,99.001 216.144,101.653C216.144,104.328 216.818,106.334 218.167,107.671C219.516,109.009 221.357,109.677 223.692,109.677C225.823,109.677 227.613,109.269 229.064,108.453C229.313,108.317 229.506,108.249 229.642,108.249C229.801,108.249 229.959,108.374 230.118,108.623L231.444,110.901C231.535,111.06 231.58,111.196 231.58,111.309C231.58,111.445 231.444,111.615 231.172,111.819C229.404,113.089 226.673,113.723 222.978,113.723Z" style="fill-rule:nonzero;"/>
                        <path d="M235.83,113.213C235.286,113.213 234.895,113.094 234.657,112.856C234.419,112.618 234.3,112.25 234.3,111.751L234.3,91.589C234.3,91.091 234.419,90.717 234.657,90.467C234.895,90.218 235.286,90.093 235.83,90.093L238.38,90.093C238.947,90.093 239.343,90.212 239.57,90.45C239.797,90.688 239.91,91.068 239.91,91.589L239.91,99.545L249.362,99.545L249.362,91.589C249.362,91.091 249.481,90.717 249.719,90.467C249.957,90.218 250.359,90.093 250.926,90.093L253.442,90.093C254.009,90.093 254.411,90.218 254.649,90.467C254.887,90.717 255.006,91.091 255.006,91.589L255.006,111.751C255.006,112.25 254.887,112.618 254.649,112.856C254.411,113.094 254.009,113.213 253.442,113.213L250.926,113.213C250.359,113.213 249.957,113.094 249.719,112.856C249.481,112.618 249.362,112.25 249.362,111.751L249.362,103.659L239.91,103.659L239.91,111.751C239.91,112.25 239.797,112.618 239.57,112.856C239.343,113.094 238.947,113.213 238.38,113.213L235.83,113.213Z" style="fill-rule:nonzero;"/>
                        <path d="M260.004,113.213C259.46,113.213 259.069,113.094 258.831,112.856C258.593,112.618 258.474,112.25 258.474,111.751L258.474,91.589C258.474,91.091 258.593,90.717 258.831,90.467C259.069,90.218 259.46,90.093 260.004,90.093L274.114,90.093C274.658,90.093 275.032,90.201 275.236,90.416C275.44,90.632 275.542,91 275.542,91.521L275.542,92.779C275.542,93.301 275.44,93.675 275.236,93.901C275.032,94.128 274.658,94.241 274.114,94.241L264.084,94.241L264.084,99.613L271.088,99.613C271.632,99.613 272.006,99.721 272.21,99.936C272.414,100.152 272.516,100.52 272.516,101.041L272.516,102.231C272.516,102.753 272.414,103.127 272.21,103.353C272.006,103.58 271.632,103.693 271.088,103.693L264.084,103.693L264.084,109.099L274.08,109.099C274.624,109.099 274.998,109.213 275.202,109.439C275.406,109.666 275.508,110.04 275.508,110.561L275.508,111.785C275.508,112.307 275.406,112.675 275.202,112.89C274.998,113.106 274.624,113.213 274.08,113.213L260.004,113.213Z" style="fill-rule:nonzero;"/>
                        <path d="M286.694,113.723C282.75,113.723 279.696,112.686 277.531,110.612C275.366,108.538 274.284,105.552 274.284,101.653C274.284,97.732 275.344,94.74 277.463,92.677C279.582,90.615 282.614,89.583 286.558,89.583C288.213,89.583 289.714,89.748 291.063,90.076C292.412,90.405 293.551,90.875 294.48,91.487C294.707,91.646 294.82,91.827 294.82,92.031C294.82,92.213 294.752,92.405 294.616,92.609L293.426,94.683C293.267,94.933 293.109,95.057 292.95,95.057C292.814,95.057 292.621,94.989 292.372,94.853C290.921,94.037 289.21,93.629 287.238,93.629C284.903,93.629 283.09,94.304 281.798,95.652C280.506,97.001 279.86,99.001 279.86,101.653C279.86,104.328 280.534,106.334 281.883,107.671C283.232,109.009 285.073,109.677 287.408,109.677C289.539,109.677 291.329,109.269 292.78,108.453C293.029,108.317 293.222,108.249 293.358,108.249C293.517,108.249 293.675,108.374 293.834,108.623L295.16,110.901C295.251,111.06 295.296,111.196 295.296,111.309C295.296,111.445 295.16,111.615 294.888,111.819C293.12,113.089 290.389,113.723 286.694,113.723Z" style="fill-rule:nonzero;"/>
                        <path d="M316.954,112.091C317.09,112.25 317.158,112.431 317.158,112.635C317.158,113.021 316.954,113.213 316.546,113.213L312.296,113.213C312.024,113.213 311.814,113.185 311.667,113.128C311.52,113.072 311.378,112.964 311.242,112.805L303.728,102.945L303.626,102.809L303.626,111.751C303.626,112.25 303.513,112.618 303.286,112.856C303.059,113.094 302.663,113.213 302.096,113.213L299.546,113.213C299.002,113.213 298.611,113.094 298.373,112.856C298.135,112.618 298.016,112.25 298.016,111.751L298.016,91.589C298.016,91.091 298.135,90.717 298.373,90.467C298.611,90.218 299.002,90.093 299.546,90.093L302.096,90.093C302.663,90.093 303.059,90.212 303.286,90.45C303.513,90.688 303.626,91.068 303.626,91.589L303.626,100.361L303.728,100.225L311.004,90.535C311.14,90.354 311.282,90.235 311.429,90.178C311.576,90.122 311.809,90.093 312.126,90.093L316.308,90.093C316.716,90.093 316.92,90.286 316.92,90.671C316.92,90.853 316.852,91.034 316.716,91.215L308.658,101.585L316.954,112.091Z" style="fill-rule:nonzero;"/>
                        <path d="M107.493,190.803C103.973,190.803 101.146,189.868 99.012,187.998C96.878,186.128 95.811,183.587 95.811,180.375C95.811,176.327 97.153,173.445 99.837,171.729C102.521,170.013 106.305,169.155 111.189,169.155L120.429,169.155L120.429,167.901C120.429,165.877 119.813,164.392 118.581,163.446C117.349,162.5 115.193,162.027 112.113,162.027C110.617,162.027 109.066,162.214 107.46,162.588C105.854,162.962 104.435,163.457 103.203,164.073C102.587,164.337 102.213,164.469 102.081,164.469C101.685,164.469 101.333,164.183 101.025,163.611L98.781,159.651C98.561,159.211 98.451,158.837 98.451,158.529C98.451,158.089 98.693,157.715 99.177,157.407C100.937,156.351 103.126,155.548 105.744,154.998C108.362,154.448 111.123,154.173 114.027,154.173C116.755,154.173 119.131,154.437 121.155,154.965C122.783,153.953 124.301,153.161 125.709,152.589C127.117,152.017 128.173,151.731 128.877,151.731C129.493,151.731 129.944,151.797 130.23,151.929C130.516,152.061 130.725,152.325 130.857,152.721L132.441,156.945C132.529,157.297 132.573,157.561 132.573,157.737C132.573,158.265 132.221,158.683 131.517,158.991L128.745,160.179C129.625,161.191 130.274,162.368 130.692,163.71C131.11,165.052 131.319,166.757 131.319,168.825L131.319,186.975C131.319,187.943 131.088,188.658 130.626,189.12C130.164,189.582 129.383,189.813 128.283,189.813L123.399,189.813C122.343,189.813 121.584,189.582 121.122,189.12C120.66,188.658 120.429,187.943 120.429,186.975L120.429,176.481L111.321,176.481C109.429,176.481 108.065,176.756 107.229,177.306C106.393,177.856 105.975,178.835 105.975,180.243C105.975,181.563 106.316,182.487 106.998,183.015C107.68,183.543 108.725,183.807 110.133,183.807C111.145,183.807 112.223,183.587 113.367,183.147C113.631,183.059 113.785,183.015 113.829,183.015C114.269,183.015 114.555,183.323 114.687,183.939L115.743,188.097C115.787,188.229 115.809,188.383 115.809,188.559C115.809,188.779 115.732,188.966 115.578,189.12C115.424,189.274 115.171,189.439 114.819,189.615C112.927,190.407 110.485,190.803 107.493,190.803Z" style="fill:white;fill-rule:nonzero;"/>
                        <path d="M151.911,189.813C150.151,189.813 149.271,188.955 149.271,187.239L149.271,167.703C149.271,165.635 148.897,164.172 148.149,163.314C147.401,162.456 146.081,162.027 144.189,162.027C142.165,162.027 140.251,162.511 138.447,163.479C138.007,163.699 137.677,163.809 137.457,163.809C137.017,163.809 136.731,163.545 136.599,163.017L135.147,157.935L135.015,157.143C135.015,156.747 135.279,156.439 135.807,156.219C138.667,154.855 142.055,154.173 145.971,154.173C150.767,154.173 154.331,155.229 156.663,157.341C158.995,159.453 160.161,162.709 160.161,167.109L160.161,187.239C160.161,188.955 159.281,189.813 157.521,189.813L151.911,189.813Z" style="fill:white;fill-rule:nonzero;"/>
                        <path d="M178.707,190.803C175.803,190.803 173.284,190.539 171.15,190.011C169.016,189.483 167.025,188.691 165.177,187.635C164.605,187.327 164.319,186.909 164.319,186.381C164.319,186.117 164.429,185.765 164.649,185.325L166.893,181.431C167.201,180.859 167.531,180.573 167.883,180.573C168.015,180.573 168.389,180.705 169.005,180.969C170.369,181.629 171.711,182.124 173.031,182.454C174.351,182.784 175.803,182.949 177.387,182.949C180.555,182.949 182.997,182.157 184.713,180.573C186.429,178.989 187.287,176.327 187.287,172.587C187.287,168.847 186.473,166.163 184.845,164.535C183.217,162.907 180.797,162.093 177.585,162.093C174.417,162.093 171.667,162.753 169.335,164.073C168.895,164.337 168.521,164.469 168.213,164.469C167.817,164.469 167.465,164.183 167.157,163.611L164.979,159.717C164.759,159.277 164.649,158.903 164.649,158.595C164.649,158.111 164.935,157.715 165.507,157.407C167.355,156.351 169.335,155.548 171.447,154.998C173.559,154.448 176.023,154.173 178.839,154.173C185.175,154.173 189.982,155.713 193.26,158.793C196.538,161.873 198.177,166.471 198.177,172.587C198.177,178.615 196.494,183.158 193.128,186.216C189.762,189.274 184.955,190.803 178.707,190.803Z" style="fill:white;fill-rule:nonzero;"/>
                        <path d="M207.615,189.813C206.031,189.813 204.953,189.494 204.381,188.856C203.809,188.218 203.523,187.173 203.523,185.721L203.523,158.067C203.523,157.011 203.787,156.263 204.315,155.823C204.843,155.383 205.723,155.163 206.955,155.163L210.981,155.163C212.213,155.163 213.093,155.383 213.621,155.823C214.149,156.263 214.413,157.011 214.413,158.067L214.413,179.979C214.413,180.639 214.512,181.09 214.71,181.332C214.908,181.574 215.271,181.695 215.799,181.695L216.921,181.695C217.713,181.695 218.263,181.86 218.571,182.19C218.879,182.52 219.033,183.059 219.033,183.807L219.033,187.701C219.033,188.625 218.813,189.208 218.373,189.45C217.933,189.692 217.009,189.813 215.601,189.813L207.615,189.813Z" style="fill:white;fill-rule:nonzero;"/>
                        <path d="M235.465,151.401C233.133,151.401 231.252,150.664 229.822,149.19C228.392,147.716 227.677,145.747 227.677,143.283C227.677,140.423 228.568,138.179 230.35,136.551C232.132,134.923 234.497,134.109 237.445,134.109L252.031,134.109C252.603,134.109 252.977,134.197 253.153,134.373C253.329,134.549 253.417,134.901 253.417,135.429L253.417,138.861C253.417,139.389 253.329,139.719 253.153,139.851C252.977,139.983 252.603,140.049 252.031,140.049L238.501,140.049C237.181,140.049 236.246,140.28 235.696,140.742C235.146,141.204 234.871,141.941 234.871,142.953C234.871,143.877 235.003,144.548 235.267,144.966C235.531,145.384 235.993,145.593 236.653,145.593C237.269,145.593 237.742,145.461 238.072,145.197C238.402,144.933 238.567,144.603 238.567,144.207L238.567,143.547C238.567,142.931 238.919,142.623 239.623,142.623L242.923,142.623C243.539,142.623 243.847,142.931 243.847,143.547L243.847,144.273C243.847,145.153 244.353,145.593 245.365,145.593C246.465,145.593 247.015,145.175 247.015,144.339L247.015,142.623C247.015,142.139 247.389,141.897 248.137,141.897L252.097,141.897C252.625,141.897 252.955,142.007 253.087,142.227C253.219,142.447 253.285,142.755 253.285,143.151L253.285,145.857C253.285,147.529 252.68,148.871 251.47,149.883C250.26,150.895 248.665,151.401 246.685,151.401C244.353,151.401 242.549,150.741 241.273,149.421C240.481,150.125 239.656,150.631 238.798,150.939C237.94,151.247 236.829,151.401 235.465,151.401Z" style="fill:white;fill-rule:nonzero;"/>
                        <path d="M267.277,189.813C266.177,189.813 265.407,189.582 264.967,189.12C264.527,188.658 264.307,187.943 264.307,186.975L264.307,168.165L262.789,164.469C262.393,163.457 262.195,162.731 262.195,162.291C262.195,161.587 262.525,160.971 263.185,160.443C265.297,158.683 267.882,157.198 270.94,155.988C273.998,154.778 277.331,154.173 280.939,154.173C287.099,154.173 291.543,155.504 294.271,158.166C296.999,160.828 298.363,164.403 298.363,168.891L298.363,186.975C298.363,187.943 298.132,188.658 297.67,189.12C297.208,189.582 296.427,189.813 295.327,189.813L290.443,189.813C289.343,189.813 288.562,189.582 288.1,189.12C287.638,188.658 287.407,187.943 287.407,186.975L287.407,168.627C287.407,166.427 286.89,164.788 285.856,163.71C284.822,162.632 283.161,162.093 280.873,162.093C277.969,162.093 275.527,162.863 273.547,164.403L274.339,165.987C274.647,166.603 274.867,167.197 274.999,167.769C275.131,168.341 275.197,169.045 275.197,169.881L275.197,186.975C275.197,187.943 274.966,188.658 274.504,189.12C274.042,189.582 273.261,189.813 272.161,189.813L267.277,189.813Z" style="fill:white;fill-rule:nonzero;"/>
                    </g>
                    <g transform="matrix(1,0,0,1,941.641,-55.7108)">
                        <path d="M240.285,190.806C235.137,190.806 231.1,189.695 228.174,187.473C225.248,185.251 223.785,182.204 223.785,178.332L223.785,175.23C223.785,170.742 225.523,167.398 228.999,165.198L228.999,164.142C228.999,163.79 228.9,163.559 228.702,163.449C228.504,163.339 228.163,163.284 227.679,163.284L225.633,163.284C224.885,163.284 224.357,163.119 224.049,162.789C223.741,162.459 223.587,161.92 223.587,161.172L223.587,157.278C223.587,156.53 223.741,155.991 224.049,155.661C224.357,155.331 224.885,155.166 225.633,155.166L234.543,155.166C236.083,155.166 237.15,155.485 237.744,156.123C238.338,156.761 238.635,157.806 238.635,159.258L238.635,164.274C238.635,165.506 238.261,166.43 237.513,167.046C236.457,167.882 235.709,168.806 235.269,169.818C234.829,170.83 234.609,172.15 234.609,173.778L234.609,178.134C234.609,181.038 236.501,182.49 240.285,182.49C242.265,182.49 243.684,182.116 244.542,181.368C245.4,180.62 245.829,179.542 245.829,178.134L245.829,173.184C245.829,171.82 245.62,170.797 245.202,170.115C244.784,169.433 244.091,168.762 243.123,168.102C242.771,167.882 242.529,167.64 242.397,167.376C242.265,167.112 242.199,166.782 242.199,166.386L242.199,164.274C242.199,163.878 242.287,163.537 242.463,163.251C242.639,162.965 242.925,162.646 243.321,162.294C244.421,161.282 245.158,160.413 245.532,159.687C245.906,158.961 246.093,157.762 246.093,156.09C246.093,155.386 246.236,154.891 246.522,154.605C246.808,154.319 247.303,154.176 248.007,154.176L255.597,154.176C256.081,154.176 256.4,154.264 256.554,154.44C256.708,154.616 256.785,154.946 256.785,155.43C256.785,157.982 256.389,160.028 255.597,161.568C254.805,163.108 253.441,164.362 251.505,165.33C253.441,166.166 254.794,167.31 255.564,168.762C256.334,170.214 256.719,172.04 256.719,174.24L256.719,177.144C256.719,181.368 255.311,184.701 252.495,187.143C249.679,189.585 245.609,190.806 240.285,190.806Z" style="fill:white;fill-rule:nonzero;"/>
                        <path d="M211.966,242.705C210.218,242.705 208.813,242.24 207.753,241.311C206.693,240.382 206.163,239.12 206.163,237.524C206.163,235.513 206.83,234.082 208.163,233.229C209.496,232.377 211.376,231.951 213.802,231.951L218.392,231.951L218.392,231.328C218.392,230.322 218.086,229.584 217.474,229.115C216.862,228.645 215.791,228.41 214.261,228.41C213.518,228.41 212.748,228.502 211.95,228.688C211.152,228.874 210.447,229.12 209.835,229.426C209.529,229.557 209.343,229.623 209.278,229.623C209.081,229.623 208.906,229.481 208.753,229.196L207.638,227.229C207.529,227.011 207.474,226.825 207.474,226.672C207.474,226.453 207.595,226.268 207.835,226.114C208.709,225.59 209.797,225.191 211.097,224.918C212.398,224.645 213.769,224.508 215.212,224.508C216.567,224.508 217.748,224.639 218.753,224.901C219.562,224.399 220.316,224.005 221.015,223.721C221.715,223.437 222.239,223.295 222.589,223.295C222.895,223.295 223.119,223.328 223.261,223.393C223.403,223.459 223.507,223.59 223.573,223.787L224.36,225.885C224.403,226.06 224.425,226.191 224.425,226.278C224.425,226.541 224.25,226.748 223.901,226.901L222.524,227.492C222.961,227.994 223.283,228.579 223.491,229.246C223.698,229.912 223.802,230.759 223.802,231.787L223.802,240.803C223.802,241.284 223.688,241.639 223.458,241.869C223.229,242.098 222.841,242.213 222.294,242.213L219.868,242.213C219.343,242.213 218.966,242.098 218.737,241.869C218.507,241.639 218.392,241.284 218.392,240.803L218.392,235.59L213.868,235.59C212.928,235.59 212.25,235.727 211.835,236C211.42,236.273 211.212,236.759 211.212,237.459C211.212,238.115 211.381,238.574 211.72,238.836C212.059,239.098 212.578,239.229 213.278,239.229C213.78,239.229 214.316,239.12 214.884,238.901C215.015,238.858 215.092,238.836 215.114,238.836C215.332,238.836 215.474,238.989 215.54,239.295L216.065,241.36C216.086,241.426 216.097,241.503 216.097,241.59C216.097,241.699 216.059,241.792 215.983,241.869C215.906,241.945 215.78,242.027 215.606,242.115C214.666,242.508 213.453,242.705 211.966,242.705Z" style="fill-rule:nonzero;"/>
                        <path d="M210.392,222.475C209.868,222.475 209.507,222.371 209.31,222.164C209.114,221.956 209.015,221.601 209.015,221.098L209.015,220.082C209.015,219.579 209.114,219.218 209.31,219C209.507,218.781 209.868,218.672 210.392,218.672L219.441,218.672L219.441,216.77C219.441,216.289 219.545,215.961 219.753,215.787C219.961,215.612 220.283,215.524 220.72,215.524L222.491,215.524C222.928,215.524 223.25,215.612 223.458,215.787C223.666,215.961 223.769,216.289 223.769,216.77L223.769,220.737C223.769,221.393 223.655,221.847 223.425,222.098C223.196,222.349 222.742,222.475 222.064,222.475L210.392,222.475Z" style="fill-rule:nonzero;"/>
                        <path d="M219.737,222.475C219.212,222.475 218.835,222.382 218.605,222.196C218.376,222.011 218.261,221.645 218.261,221.098L218.261,217.229C218.261,216.683 218.376,216.317 218.605,216.131C218.835,215.945 219.212,215.852 219.737,215.852L222.196,215.852C222.72,215.852 223.097,215.945 223.327,216.131C223.556,216.317 223.671,216.683 223.671,217.229L223.671,221.098C223.671,221.645 223.556,222.011 223.327,222.196C223.097,222.382 222.72,222.475 222.196,222.475L219.737,222.475Z" style="fill-rule:nonzero;"/>
                        <path d="M235.146,242.705C232.524,242.705 230.425,242.229 228.851,241.278C227.278,240.328 226.491,238.912 226.491,237.033C226.491,235.022 227.289,233.688 228.884,233.033C228.119,232.617 227.551,232.104 227.179,231.492C226.808,230.88 226.622,230.115 226.622,229.196C226.622,228.344 226.846,227.557 227.294,226.836C227.742,226.114 228.376,225.546 229.196,225.131C230.015,224.716 230.939,224.508 231.966,224.508C233.474,224.508 234.72,224.781 235.704,225.328C235.966,225.481 236.097,225.666 236.097,225.885C236.097,225.951 236.075,226.071 236.032,226.246L235.442,227.983C235.332,228.224 235.19,228.344 235.015,228.344C234.928,228.344 234.83,228.311 234.72,228.246C234.502,228.115 234.305,228.022 234.13,227.967C233.955,227.912 233.737,227.885 233.474,227.885C232.95,227.885 232.54,228.043 232.245,228.36C231.95,228.677 231.802,229.109 231.802,229.655C231.802,230.311 231.988,230.792 232.36,231.098C232.731,231.404 233.31,231.557 234.097,231.557L234.786,231.557C235.026,231.557 235.201,231.612 235.31,231.721C235.42,231.83 235.474,232.005 235.474,232.246L235.474,233.885C235.474,234.388 235.223,234.639 234.72,234.639L234.163,234.639C233.332,234.639 232.731,234.798 232.36,235.115C231.988,235.431 231.802,235.962 231.802,236.705C231.802,238.104 232.917,238.803 235.146,238.803C236.371,238.803 237.256,238.497 237.802,237.885C238.349,237.273 238.622,236.3 238.622,234.967L238.622,226.442C238.622,225.961 238.737,225.601 238.966,225.36C239.196,225.12 239.573,225 240.097,225L242.458,225C243.004,225 243.392,225.12 243.622,225.36C243.851,225.601 243.966,225.961 243.966,226.442L243.966,234.967C243.966,240.125 241.026,242.705 235.146,242.705Z" style="fill-rule:nonzero;"/>
                        <path d="M256.032,242.705C253.977,242.705 252.392,242.322 251.278,241.557C250.163,240.792 249.332,239.557 248.786,237.852L246.884,231.852C246.797,231.546 246.753,231.349 246.753,231.262C246.753,230.934 246.95,230.705 247.343,230.574L250.36,229.557C250.666,229.47 250.851,229.426 250.917,229.426C251.092,229.426 251.234,229.492 251.343,229.623C251.452,229.754 251.562,229.962 251.671,230.246L253.769,236.803C254.01,237.568 254.305,238.098 254.655,238.393C255.004,238.688 255.584,238.836 256.392,238.836C257.463,238.836 258.228,238.399 258.687,237.524C259.146,236.65 259.376,235.273 259.376,233.393C259.376,231.645 259.163,230.382 258.737,229.606C258.31,228.83 257.605,228.442 256.622,228.442C256.272,228.442 255.933,228.513 255.605,228.655C255.278,228.798 255.07,228.88 254.982,228.901C254.808,228.945 254.698,228.967 254.655,228.967C254.436,228.967 254.261,228.814 254.13,228.508L253.31,226.18C253.267,226.005 253.245,225.896 253.245,225.852C253.245,225.699 253.365,225.546 253.605,225.393C254.764,224.803 256.13,224.508 257.704,224.508C259.977,224.508 261.72,225.306 262.933,226.901C264.146,228.497 264.753,230.672 264.753,233.426C264.753,236.442 264.004,238.743 262.507,240.328C261.01,241.912 258.851,242.705 256.032,242.705Z" style="fill-rule:nonzero;"/>
                    </g>
                    <g transform="matrix(1,0,0,1,941.641,-55.7108)">
                        <path d="M198.458,242.216C197.671,242.216 197.135,242.057 196.851,241.74C196.567,241.423 196.425,240.904 196.425,240.183L196.425,226.445C196.425,225.921 196.556,225.549 196.819,225.331C197.081,225.112 197.518,225.003 198.13,225.003L200.13,225.003C200.742,225.003 201.179,225.112 201.441,225.331C201.704,225.549 201.835,225.921 201.835,226.445L201.835,237.331C201.835,237.658 201.884,237.882 201.982,238.003C202.081,238.123 202.261,238.183 202.523,238.183L203.081,238.183C203.474,238.183 203.747,238.265 203.901,238.429C204.054,238.593 204.13,238.861 204.13,239.232L204.13,241.167C204.13,241.626 204.021,241.915 203.802,242.035C203.584,242.156 203.125,242.216 202.425,242.216L198.458,242.216Z" style="fill-rule:nonzero;"/>
                    </g>
                    <g transform="matrix(1,0,0,1,941.641,-55.7108)">
                        <path d="M186.885,232.708C185.967,232.708 185.327,232.516 184.967,232.134C184.606,231.751 184.426,231.134 184.426,230.281L184.426,228.019C184.426,227.516 184.524,227.172 184.721,226.986C184.917,226.8 185.256,226.708 185.737,226.708L187.311,226.708C187.792,226.708 188.131,226.8 188.327,226.986C188.524,227.172 188.622,227.527 188.622,228.052L188.622,229.429C190.327,229.079 191.628,228.904 192.524,228.904C193.005,228.904 193.327,228.986 193.491,229.15C193.655,229.314 193.737,229.637 193.737,230.117L193.737,231.527C193.737,231.964 193.644,232.27 193.458,232.445C193.273,232.62 192.928,232.708 192.426,232.708L186.885,232.708ZM186.885,241.232C185.967,241.232 185.327,241.041 184.967,240.658C184.606,240.276 184.426,239.658 184.426,238.806L184.426,236.544C184.426,236.041 184.524,235.697 184.721,235.511C184.917,235.325 185.256,235.232 185.737,235.232L187.311,235.232C187.792,235.232 188.131,235.325 188.327,235.511C188.524,235.697 188.622,236.052 188.622,236.576L188.622,237.954C190.327,237.604 191.628,237.429 192.524,237.429C193.005,237.429 193.327,237.511 193.491,237.675C193.655,237.839 193.737,238.161 193.737,238.642L193.737,240.052C193.737,240.489 193.644,240.795 193.458,240.97C193.273,241.145 192.928,241.232 192.426,241.232L186.885,241.232Z" style="fill-rule:nonzero;"/>
                    </g>
                    <g transform="matrix(1,0,0,1,941.641,-55.7108)">
                        <path d="M172.753,242.708C171.311,242.708 170.059,242.576 168.999,242.314C167.939,242.052 166.95,241.658 166.032,241.134C165.748,240.981 165.606,240.773 165.606,240.511C165.606,240.38 165.66,240.205 165.77,239.986L166.884,238.052C167.037,237.768 167.201,237.626 167.376,237.626C167.442,237.626 167.628,237.691 167.934,237.822C168.611,238.15 169.278,238.396 169.934,238.56C170.589,238.724 171.311,238.806 172.098,238.806C173.671,238.806 174.884,238.413 175.737,237.626C176.589,236.839 177.016,235.516 177.016,233.658C177.016,231.8 176.611,230.467 175.803,229.658C174.994,228.85 173.792,228.445 172.196,228.445C170.622,228.445 169.256,228.773 168.098,229.429C167.879,229.56 167.693,229.626 167.54,229.626C167.343,229.626 167.169,229.484 167.016,229.199L165.934,227.265C165.824,227.046 165.77,226.861 165.77,226.708C165.77,226.467 165.912,226.27 166.196,226.117C167.114,225.593 168.098,225.194 169.147,224.921C170.196,224.647 171.42,224.511 172.819,224.511C175.966,224.511 178.354,225.276 179.983,226.806C181.611,228.336 182.426,230.62 182.426,233.658C182.426,236.653 181.589,238.91 179.917,240.429C178.245,241.948 175.857,242.708 172.753,242.708Z" style="fill-rule:nonzero;"/>
                    </g>
                    <g transform="matrix(1,0,0,1,941.641,-55.7108)">
                        <path d="M159.442,242.216C158.567,242.216 158.13,241.79 158.13,240.937L158.13,231.232C158.13,230.205 157.944,229.478 157.573,229.052C157.201,228.626 156.545,228.412 155.606,228.412C154.6,228.412 153.649,228.653 152.753,229.134C152.535,229.243 152.371,229.298 152.261,229.298C152.043,229.298 151.901,229.167 151.835,228.904L151.114,226.38L151.048,225.986C151.048,225.79 151.179,225.637 151.442,225.527C152.862,224.85 154.545,224.511 156.491,224.511C158.873,224.511 160.644,225.035 161.802,226.085C162.961,227.134 163.54,228.751 163.54,230.937L163.54,240.937C163.54,241.79 163.103,242.216 162.229,242.216L159.442,242.216Z" style="fill-rule:nonzero;"/>
                    </g>
                    <g transform="matrix(1,0,0,1,941.641,-55.7108)">
                        <path d="M131.573,242.216C131.179,242.216 130.912,242.139 130.77,241.986C130.627,241.833 130.556,241.56 130.556,241.167L130.556,239.232C130.556,238.861 130.627,238.593 130.77,238.429C130.912,238.265 131.179,238.183 131.573,238.183L132.261,238.183C132.458,238.183 132.589,238.15 132.655,238.085C132.72,238.019 132.753,237.877 132.753,237.658L132.753,231.56L131.507,229.626C131.311,229.298 131.212,228.937 131.212,228.544C131.212,228.238 131.387,227.921 131.737,227.593C132.72,226.718 133.966,225.986 135.474,225.396C136.983,224.806 138.644,224.511 140.458,224.511C143.496,224.511 145.709,225.161 147.097,226.462C148.485,227.762 149.179,229.505 149.179,231.691L149.179,240.806C149.179,241.309 149.081,241.669 148.884,241.888C148.688,242.107 148.327,242.216 147.802,242.216L145.147,242.216C144.622,242.216 144.261,242.107 144.065,241.888C143.868,241.669 143.77,241.309 143.77,240.806L143.77,231.691C143.77,230.598 143.513,229.784 142.999,229.249C142.485,228.713 141.66,228.445 140.524,228.445C139.147,228.445 137.966,228.817 136.983,229.56L137.606,230.478C137.846,230.85 138.005,231.188 138.081,231.494C138.158,231.8 138.196,232.238 138.196,232.806L138.196,240.839C138.196,241.363 138.125,241.724 137.983,241.921C137.841,242.117 137.529,242.216 137.048,242.216L131.573,242.216Z" style="fill-rule:nonzero;"/>
                    </g>
                    <g transform="matrix(1,0,0,1,941.641,-55.7108)">
                        <path d="M288.229,275.528C287.683,275.528 287.284,275.413 287.033,275.183C286.781,274.954 286.656,274.599 286.656,274.118L286.459,260.708C286.459,260.205 286.568,259.839 286.787,259.61C287.005,259.38 287.388,259.265 287.934,259.265L290.426,259.265C290.972,259.265 291.355,259.38 291.574,259.61C291.792,259.839 291.901,260.205 291.901,260.708L291.672,274.118C291.672,274.599 291.546,274.954 291.295,275.183C291.044,275.413 290.645,275.528 290.098,275.528L288.229,275.528ZM288.623,281.561C287.814,281.561 287.213,281.44 286.819,281.2C286.426,280.959 286.229,280.577 286.229,280.052L286.229,279.331C286.229,278.785 286.421,278.397 286.803,278.167C287.186,277.938 287.792,277.823 288.623,277.823L289.672,277.823C290.503,277.823 291.115,277.943 291.508,278.183C291.901,278.424 292.098,278.806 292.098,279.331L292.098,280.052C292.098,280.577 291.901,280.959 291.508,281.2C291.115,281.44 290.503,281.561 289.672,281.561L288.623,281.561Z" style="fill-rule:nonzero;"/>
                    </g>
                    <g transform="matrix(1,0,0,1,941.641,-55.7108)">
                        <path d="M266.589,291.003C264.994,291.003 263.797,290.746 262.999,290.233C262.201,289.719 261.803,288.916 261.803,287.823L261.803,286.774L260.589,286.774C260.196,286.774 259.928,286.697 259.786,286.544C259.644,286.391 259.573,286.118 259.573,285.724L259.573,284.249C259.573,283.877 259.644,283.61 259.786,283.446C259.928,283.282 260.196,283.2 260.589,283.2L263.901,283.2C264.426,283.2 264.797,283.315 265.016,283.544C265.234,283.774 265.344,284.129 265.344,284.61L265.344,286.839C265.344,287.408 265.759,287.692 266.589,287.692C267.42,287.692 267.835,287.408 267.835,286.839L267.835,283.954C267.835,283.451 268.087,283.2 268.589,283.2L270.95,283.2C271.453,283.2 271.704,283.451 271.704,283.954L271.704,287.626C271.704,288.785 271.278,289.637 270.426,290.184C269.573,290.73 268.294,291.003 266.589,291.003Z" style="fill-rule:nonzero;"/>
                        <path d="M264.262,261.823C263.671,261.823 263.267,261.708 263.048,261.479C262.83,261.249 262.721,260.861 262.721,260.315L262.721,258.839L261.278,258.839C260.797,258.839 260.469,258.735 260.294,258.528C260.12,258.32 260.032,257.998 260.032,257.56L260.032,256.511C260.032,256.074 260.12,255.752 260.294,255.544C260.469,255.336 260.797,255.233 261.278,255.233L265.376,255.233C265.901,255.233 266.251,255.336 266.426,255.544C266.6,255.752 266.688,256.129 266.688,256.675L266.688,258.479C269.136,258.26 270.906,258.151 271.999,258.151C272.415,258.151 272.688,258.227 272.819,258.38C272.95,258.533 273.016,258.795 273.016,259.167L273.016,260.544C273.016,261.025 272.928,261.358 272.753,261.544C272.579,261.73 272.251,261.823 271.77,261.823L264.262,261.823Z" style="fill-rule:nonzero;"/>
                    </g>
                    <g transform="matrix(1,0,0,1,941.641,-55.7108)">
                        <path d="M264.787,282.052C261.901,282.052 259.486,281.561 257.541,280.577C257.125,280.358 256.918,280.14 256.918,279.921C256.918,279.79 256.961,279.648 257.049,279.495L258.196,277.331C258.328,277.134 258.448,277.036 258.557,277.036C258.623,277.036 258.808,277.102 259.114,277.233C259.748,277.561 260.546,277.845 261.508,278.085C262.47,278.326 263.355,278.446 264.164,278.446C265.104,278.446 265.814,278.331 266.295,278.102C266.776,277.872 267.016,277.473 267.016,276.905C267.016,276.511 266.863,276.173 266.557,275.888C266.251,275.604 265.819,275.347 265.262,275.118C264.705,274.888 263.825,274.566 262.623,274.151C260.852,273.539 259.552,272.845 258.721,272.069C257.89,271.293 257.475,270.26 257.475,268.97C257.475,267.375 258.153,266.123 259.508,265.216C260.863,264.309 262.688,263.856 264.983,263.856C266.404,263.856 267.612,263.965 268.606,264.183C269.601,264.402 270.557,264.752 271.475,265.233C271.869,265.429 272.065,265.659 272.065,265.921C272.065,266.03 272.011,266.194 271.901,266.413L270.852,268.183C270.699,268.446 270.557,268.577 270.426,268.577C270.317,268.577 270.153,268.522 269.934,268.413C269.366,268.107 268.71,267.872 267.967,267.708C267.224,267.544 266.448,267.462 265.639,267.462C264.634,267.462 263.896,267.577 263.426,267.806C262.956,268.036 262.721,268.435 262.721,269.003C262.721,269.528 263,269.948 263.557,270.265C264.115,270.582 265.082,270.992 266.459,271.495L267.672,271.921C268.874,272.358 269.814,272.79 270.492,273.216C271.169,273.642 271.661,274.145 271.967,274.724C272.273,275.304 272.426,276.03 272.426,276.905C272.426,278.457 271.765,279.703 270.442,280.643C269.12,281.582 267.235,282.052 264.787,282.052Z" style="fill-rule:nonzero;"/>
                    </g>
                    <g transform="matrix(1,0,0,1,941.641,-55.7108)">
                        <path d="M246.196,282.052C244.141,282.052 242.556,281.67 241.442,280.905C240.327,280.14 239.496,278.905 238.95,277.2L237.048,271.2C236.961,270.894 236.917,270.697 236.917,270.61C236.917,270.282 237.114,270.052 237.507,269.921L240.524,268.905C240.83,268.817 241.015,268.774 241.081,268.774C241.256,268.774 241.398,268.839 241.507,268.97C241.616,269.101 241.726,269.309 241.835,269.593L243.933,276.151C244.174,276.916 244.469,277.446 244.819,277.741C245.168,278.036 245.748,278.183 246.556,278.183C247.627,278.183 248.392,277.746 248.851,276.872C249.31,275.998 249.54,274.621 249.54,272.741C249.54,270.992 249.327,269.73 248.901,268.954C248.474,268.178 247.769,267.79 246.786,267.79C246.436,267.79 246.097,267.861 245.769,268.003C245.442,268.145 245.234,268.227 245.146,268.249C244.972,268.293 244.862,268.315 244.819,268.315C244.6,268.315 244.425,268.162 244.294,267.856L243.474,265.528C243.431,265.353 243.409,265.244 243.409,265.2C243.409,265.047 243.529,264.894 243.769,264.741C244.928,264.151 246.294,263.856 247.868,263.856C250.141,263.856 251.884,264.653 253.097,266.249C254.31,267.845 254.917,270.02 254.917,272.774C254.917,275.79 254.168,278.091 252.671,279.675C251.174,281.26 249.015,282.052 246.196,282.052Z" style="fill-rule:nonzero;"/>
                    </g>
                    <g transform="matrix(1,0,0,1,941.641,-55.7108)">
                        <path d="M225.933,282.052C223.201,282.052 221.141,281.511 219.753,280.429C218.365,279.347 217.671,277.735 217.671,275.593L217.671,272.872C217.671,272.413 217.775,272.074 217.982,271.856C218.19,271.637 218.545,271.528 219.048,271.528L223.933,271.528C224.305,271.528 224.567,271.61 224.72,271.774C224.873,271.938 224.949,272.205 224.949,272.577L224.949,273.888C224.949,274.282 224.873,274.555 224.72,274.708C224.567,274.861 224.294,274.938 223.9,274.938L222.458,274.938L222.458,275.987C222.458,276.642 222.747,277.167 223.326,277.561C223.906,277.954 224.731,278.151 225.802,278.151C226.764,278.151 227.501,277.987 228.015,277.659C228.529,277.331 228.895,276.79 229.113,276.036C229.332,275.282 229.441,274.227 229.441,272.872C229.441,271.058 229.081,269.752 228.359,268.954C227.638,268.156 226.414,267.757 224.687,267.757C223.07,267.757 221.583,268.096 220.228,268.774C219.922,268.905 219.736,268.97 219.671,268.97C219.474,268.97 219.299,268.828 219.146,268.544L218.031,266.577C217.922,266.358 217.867,266.173 217.867,266.02C217.867,265.801 217.988,265.615 218.228,265.462C219.102,264.938 220.206,264.539 221.54,264.265C222.873,263.992 224.294,263.856 225.802,263.856C228.84,263.856 231.108,264.588 232.605,266.052C234.102,267.517 234.851,269.79 234.851,272.872C234.851,275.976 234.081,278.282 232.54,279.79C230.999,281.298 228.796,282.052 225.933,282.052Z" style="fill-rule:nonzero;"/>
                    </g>
                    <g transform="matrix(1,0,0,1,941.641,-55.7108)">
                        <path d="M207.507,261.823C206.917,261.823 206.512,261.708 206.294,261.479C206.075,261.249 205.966,260.861 205.966,260.315L205.966,258.839L204.523,258.839C204.042,258.839 203.714,258.735 203.539,258.528C203.365,258.32 203.277,257.998 203.277,257.56L203.277,256.511C203.277,256.074 203.365,255.752 203.539,255.544C203.714,255.336 204.042,255.233 204.523,255.233L208.621,255.233C209.146,255.233 209.496,255.336 209.671,255.544C209.846,255.752 209.933,256.129 209.933,256.675L209.933,258.479C212.381,258.26 214.152,258.151 215.244,258.151C215.66,258.151 215.933,258.227 216.064,258.38C216.195,258.533 216.261,258.795 216.261,259.167L216.261,260.544C216.261,261.025 216.173,261.358 215.999,261.544C215.824,261.73 215.496,261.823 215.015,261.823L207.507,261.823Z" style="fill-rule:nonzero;"/>
                    </g>
                    <g transform="matrix(1,0,0,1,941.641,-55.7108)">
                        <path d="M203.212,282.052C200.983,282.052 199.272,281.271 198.081,279.708C196.89,278.145 196.294,276.085 196.294,273.528C196.294,271.495 196.573,269.752 197.13,268.298C197.688,266.845 198.464,265.741 199.458,264.987C200.453,264.233 201.595,263.856 202.884,263.856C204.261,263.856 205.311,264.38 206.032,265.429C206.404,264.948 206.934,264.566 207.622,264.282C208.311,263.998 209.048,263.856 209.835,263.856C211.54,263.856 212.819,264.282 213.671,265.134C214.524,265.987 214.95,267.156 214.95,268.642L214.95,280.151C214.95,280.632 214.835,280.987 214.606,281.216C214.376,281.446 213.988,281.561 213.442,281.561L210.983,281.561C210.458,281.561 210.081,281.446 209.852,281.216C209.622,280.987 209.507,280.632 209.507,280.151L209.507,269.397C209.507,268.872 209.404,268.473 209.196,268.2C208.988,267.927 208.622,267.79 208.098,267.79C207.507,267.79 207.027,268.052 206.655,268.577C206.458,268.817 206.24,268.938 205.999,268.938C205.737,268.938 205.507,268.817 205.311,268.577C205.092,268.315 204.901,268.118 204.737,267.987C204.573,267.856 204.349,267.79 204.065,267.79C203.322,267.79 202.737,268.265 202.311,269.216C201.884,270.167 201.671,271.604 201.671,273.528C201.671,275.102 201.912,276.336 202.393,277.233C202.873,278.129 203.573,278.577 204.491,278.577C205.059,278.577 205.595,278.479 206.098,278.282C206.229,278.238 206.305,278.216 206.327,278.216C206.546,278.216 206.688,278.369 206.753,278.675L207.212,280.708C207.234,280.774 207.245,280.861 207.245,280.97C207.245,281.145 207.081,281.309 206.753,281.462C205.792,281.856 204.611,282.052 203.212,282.052Z" style="fill-rule:nonzero;"/>
                    </g>
                    <g transform="matrix(1,0,0,1,941.641,-55.7108)">
                        <path d="M189.54,281.561C189.016,281.561 188.649,281.451 188.442,281.233C188.234,281.014 188.13,280.653 188.13,280.151L188.13,269.397C188.13,268.85 188.048,268.451 187.884,268.2C187.721,267.948 187.409,267.823 186.95,267.823C186.557,267.823 186.13,268.052 185.671,268.511C185.496,268.752 185.278,268.872 185.016,268.872C184.863,268.872 184.737,268.845 184.639,268.79C184.54,268.735 184.436,268.642 184.327,268.511C184.108,268.271 183.917,268.091 183.753,267.97C183.589,267.85 183.365,267.79 183.081,267.79C182.141,267.79 181.671,268.489 181.671,269.888C181.671,270.544 181.813,271.036 182.098,271.364C182.382,271.692 182.83,271.856 183.442,271.856C184.054,271.856 184.535,271.768 184.884,271.593L185.147,271.528C185.365,271.528 185.507,271.67 185.573,271.954L186.032,273.921C186.054,273.987 186.065,274.074 186.065,274.183C186.065,274.402 185.879,274.588 185.507,274.741C184.546,275.156 183.354,275.364 181.934,275.364C180.229,275.364 178.863,274.861 177.835,273.856C176.808,272.85 176.294,271.528 176.294,269.888C176.294,268.052 176.781,266.588 177.753,265.495C178.726,264.402 180.13,263.856 181.966,263.856C183.343,263.856 184.393,264.38 185.114,265.429C185.507,264.948 186.016,264.566 186.639,264.282C187.262,263.998 187.945,263.856 188.688,263.856C190.458,263.856 191.715,264.26 192.458,265.069C193.201,265.877 193.573,267.101 193.573,268.741L193.573,280.151C193.573,280.632 193.464,280.987 193.245,281.216C193.027,281.446 192.644,281.561 192.098,281.561L189.54,281.561Z" style="fill-rule:nonzero;"/>
                    </g>
                    <g transform="matrix(1,0,0,1,941.641,-55.7108)">
                        <path d="M165.278,282.052C163.835,282.052 162.584,281.921 161.524,281.659C160.464,281.397 159.474,281.003 158.556,280.479C158.272,280.326 158.13,280.118 158.13,279.856C158.13,279.724 158.185,279.55 158.294,279.331L159.409,277.397C159.562,277.112 159.726,276.97 159.901,276.97C159.966,276.97 160.152,277.036 160.458,277.167C161.136,277.495 161.802,277.741 162.458,277.905C163.114,278.069 163.835,278.151 164.622,278.151C166.196,278.151 167.409,277.757 168.261,276.97C169.114,276.183 169.54,274.861 169.54,273.003C169.54,271.145 169.136,269.812 168.327,269.003C167.518,268.194 166.316,267.79 164.72,267.79C163.147,267.79 161.78,268.118 160.622,268.774C160.403,268.905 160.218,268.97 160.065,268.97C159.868,268.97 159.693,268.828 159.54,268.544L158.458,266.61C158.349,266.391 158.294,266.205 158.294,266.052C158.294,265.812 158.436,265.615 158.72,265.462C159.638,264.938 160.622,264.539 161.671,264.265C162.72,263.992 163.944,263.856 165.343,263.856C168.491,263.856 170.879,264.621 172.507,266.151C174.136,267.681 174.95,269.965 174.95,273.003C174.95,275.998 174.114,278.255 172.442,279.774C170.77,281.293 168.382,282.052 165.278,282.052Z" style="fill-rule:nonzero;"/>
                    </g>
                    <g transform="matrix(1,0,0,1,941.641,-55.7108)">
                        <path d="M151.966,281.561C151.092,281.561 150.655,281.134 150.655,280.282L150.655,270.577C150.655,269.55 150.469,268.823 150.097,268.397C149.726,267.97 149.07,267.757 148.13,267.757C147.125,267.757 146.174,267.998 145.278,268.479C145.059,268.588 144.895,268.642 144.786,268.642C144.567,268.642 144.425,268.511 144.36,268.249L143.638,265.724L143.573,265.331C143.573,265.134 143.704,264.981 143.966,264.872C145.387,264.194 147.07,263.856 149.015,263.856C151.398,263.856 153.168,264.38 154.327,265.429C155.485,266.479 156.064,268.096 156.064,270.282L156.064,280.282C156.064,281.134 155.627,281.561 154.753,281.561L151.966,281.561Z" style="fill-rule:nonzero;"/>
                    </g>
                    <g transform="matrix(1,0,0,1,941.641,-55.7108)">
                        <path d="M129.901,282.052C128.152,282.052 126.748,281.588 125.688,280.659C124.628,279.73 124.097,278.468 124.097,276.872C124.097,274.861 124.764,273.429 126.097,272.577C127.431,271.724 129.311,271.298 131.737,271.298L136.327,271.298L136.327,270.675C136.327,269.67 136.021,268.932 135.409,268.462C134.797,267.992 133.726,267.757 132.196,267.757C131.453,267.757 130.682,267.85 129.884,268.036C129.087,268.222 128.382,268.468 127.77,268.774C127.464,268.905 127.278,268.97 127.212,268.97C127.015,268.97 126.841,268.828 126.688,268.544L125.573,266.577C125.464,266.358 125.409,266.173 125.409,266.02C125.409,265.801 125.529,265.615 125.77,265.462C126.644,264.938 127.731,264.539 129.032,264.265C130.332,263.992 131.704,263.856 133.147,263.856C134.502,263.856 135.682,263.987 136.688,264.249C137.496,263.746 138.251,263.353 138.95,263.069C139.649,262.785 140.174,262.642 140.524,262.642C140.83,262.642 141.054,262.675 141.196,262.741C141.338,262.806 141.442,262.938 141.507,263.134L142.294,265.233C142.338,265.407 142.36,265.539 142.36,265.626C142.36,265.888 142.185,266.096 141.835,266.249L140.458,266.839C140.895,267.342 141.218,267.927 141.425,268.593C141.633,269.26 141.737,270.107 141.737,271.134L141.737,280.151C141.737,280.632 141.622,280.987 141.393,281.216C141.163,281.446 140.775,281.561 140.229,281.561L137.802,281.561C137.278,281.561 136.901,281.446 136.671,281.216C136.442,280.987 136.327,280.632 136.327,280.151L136.327,274.938L131.802,274.938C130.863,274.938 130.185,275.074 129.77,275.347C129.354,275.621 129.147,276.107 129.147,276.806C129.147,277.462 129.316,277.921 129.655,278.183C129.994,278.446 130.513,278.577 131.212,278.577C131.715,278.577 132.25,278.468 132.819,278.249C132.95,278.205 133.026,278.183 133.048,278.183C133.267,278.183 133.409,278.336 133.475,278.643L133.999,280.708C134.021,280.774 134.032,280.85 134.032,280.938C134.032,281.047 133.994,281.14 133.917,281.216C133.841,281.293 133.715,281.375 133.54,281.462C132.6,281.856 131.387,282.052 129.901,282.052Z" style="fill-rule:nonzero;"/>
                    </g>
                    <g transform="matrix(1,0,0,1,941.641,-55.7108)">
                        <path d="M107.999,261.823C107.474,261.823 107.114,261.719 106.917,261.511C106.72,261.304 106.622,260.948 106.622,260.446L106.622,259.429C106.622,258.927 106.72,258.566 106.917,258.347C107.114,258.129 107.474,258.019 107.999,258.019L117.048,258.019L117.048,256.118C117.048,255.637 117.152,255.309 117.36,255.134C117.567,254.959 117.89,254.872 118.327,254.872L120.097,254.872C120.535,254.872 120.857,254.959 121.065,255.134C121.272,255.309 121.376,255.637 121.376,256.118L121.376,260.085C121.376,260.741 121.261,261.194 121.032,261.446C120.802,261.697 120.349,261.823 119.671,261.823L107.999,261.823Z" style="fill-rule:nonzero;"/>
                        <path d="M117.343,261.823C116.819,261.823 116.442,261.73 116.212,261.544C115.983,261.358 115.868,260.992 115.868,260.446L115.868,256.577C115.868,256.03 115.983,255.664 116.212,255.478C116.442,255.293 116.819,255.2 117.343,255.2L119.802,255.2C120.327,255.2 120.704,255.293 120.934,255.478C121.163,255.664 121.278,256.03 121.278,256.577L121.278,260.446C121.278,260.992 121.163,261.358 120.934,261.544C120.704,261.73 120.327,261.823 119.802,261.823L117.343,261.823Z" style="fill-rule:nonzero;"/>
                    </g>
                    <g transform="matrix(1,0,0,1,941.641,-55.7108)">
                        <path d="M105.835,281.561C105.289,281.561 104.901,281.446 104.671,281.216C104.442,280.987 104.327,280.632 104.327,280.151L104.327,265.626C104.327,264.774 104.742,264.347 105.573,264.347L107.835,264.347C108.141,264.347 108.371,264.407 108.524,264.528C108.677,264.648 108.764,264.85 108.786,265.134L108.852,266.183C110.25,264.632 112.272,263.856 114.917,263.856C116.862,263.856 118.425,264.38 119.606,265.429C120.786,266.479 121.376,268.02 121.376,270.052L121.376,280.151C121.376,280.632 121.261,280.987 121.032,281.216C120.802,281.446 120.425,281.561 119.901,281.561L117.442,281.561C116.895,281.561 116.507,281.446 116.278,281.216C116.048,280.987 115.934,280.632 115.934,280.151L115.934,270.216C115.934,269.32 115.709,268.664 115.261,268.249C114.813,267.834 114.13,267.626 113.212,267.626C112.163,267.626 111.321,267.888 110.688,268.413C110.054,268.938 109.737,269.582 109.737,270.347L109.737,280.151C109.737,280.632 109.627,280.987 109.409,281.216C109.19,281.446 108.808,281.561 108.261,281.561L105.835,281.561Z" style="fill-rule:nonzero;"/>
                    </g>
                </g>
            </g>
        </g>
    </g>
</svg>
