<?xml version="1.0" encoding="UTF-8" standalone="no"?>
<!DOCTYPE svg PUBLIC "-//W3C//DTD SVG 1.1//EN" "http://www.w3.org/Graphics/SVG/1.1/DTD/svg11.dtd">
<svg width="100%" height="100%" viewBox="0 0 340 240" version="1.1" xmlns="http://www.w3.org/2000/svg" xmlns:xlink="http://www.w3.org/1999/xlink" xml:space="preserve" xmlns:serif="http://www.serif.com/" style="fill-rule:evenodd;clip-rule:evenodd;stroke-linejoin:round;stroke-miterlimit:2;">
    <g transform="matrix(1,0,0,1,-2887,-1532)">
        <g id="img_3-3" transform="matrix(1.04081,0,0,1.0325,-118.011,-50.3099)">
            <rect x="2887.18" y="1532.5" width="326.668" height="232.445" style="fill:none;"/>
            <g transform="matrix(0.960788,0,0,0.968522,2861.53,1103.33)">
                <g>
                    <g transform="matrix(1,0,0,-1,33.3662,620.818)">
                        <path d="M159.327,45.781C161.356,45.48 163.353,45.012 165.335,44.487C202.185,35.505 239.496,28.284 276.906,22.054C278.885,21.966 288.902,20.154 293.652,20.576C294.033,21.711 294.685,22.759 295.415,23.692C295.783,24.162 296.181,24.61 296.541,25.086C296.572,25.165 296.601,25.246 296.629,25.326C296.956,26.778 297.151,28.263 297.351,29.733C297.664,32.026 297.942,34.324 298.276,36.614C298.615,38.939 298.999,41.264 299.554,43.549C300.125,45.899 300.728,48.364 301.912,50.499C302.819,52.133 303.677,53.396 305.109,54.625C306.319,55.664 307.999,56.375 309.577,56.576C309.672,56.589 309.768,56.598 309.865,56.605C310.239,57.865 310.599,59.13 310.947,60.399C313.05,68.352 314.638,76.435 315.71,84.592C315.898,86.023 316.715,87.444 317.86,88.324C318.008,88.438 318.169,88.546 318.337,88.647C318.828,95.36 319.647,102.046 320.532,108.717C321.656,117.191 322.878,125.656 323.635,134.173C324.03,138.632 324.291,143.104 324.355,147.58C319.379,148.795 314.371,149.848 309.342,150.783C310.031,152.001 310.482,154.751 310.539,155.357C310.913,158.114 309.041,161.311 306.062,161.403C302.618,161.892 300.317,157.087 299.714,152.442C298.816,152.586 297.916,152.728 297.018,152.867C297.846,154.771 298.211,156.984 297.961,159.062C297.781,163.77 292.078,164.79 290.432,160.299C289.806,158.875 289.294,156.483 289.181,154.024C286.902,154.347 284.62,154.66 282.337,154.968C282.049,156.633 281.932,158.317 282.14,159.998C284.289,163.078 285.192,158.024 285.357,156.412C285.439,155.782 285.278,154.633 286.173,154.596C287.487,154.873 286.721,156.779 286.748,157.715C286.752,159.887 286.279,162.4 284.215,163.543C280.225,164.607 279.3,159.072 279.208,155.387C277.783,155.577 276.36,155.765 274.936,155.954C260.641,158.311 246.325,160.522 232.021,162.794C231.819,163.652 231.673,164.414 231.711,164.944C231.543,166.275 231.633,170.188 233.817,168.862C234.885,167.694 235.255,166.055 235.454,164.525C235.587,163.884 235.143,162.966 235.826,162.564C235.86,162.032 236.513,162.096 236.561,162.598C237.113,162.971 236.965,164.311 236.966,164.924C237.261,167.545 236.075,170.675 233.589,171.842C230.174,173.506 229.082,168.892 228.794,166.393C228.606,165.678 228.549,164.567 228.631,163.334C226.346,163.698 224.062,164.065 221.778,164.435C221.579,166.065 221.342,167.696 221.688,169.332C221.831,170.147 222.436,171.932 223.395,172.005C225.33,170.995 225.179,166.768 225.912,164.742C225.816,164.572 225.913,164.346 226.093,164.286C226.168,164.106 226.315,163.971 226.517,163.916C227.895,163.608 227.151,166.947 227.186,167.746C227.067,168.881 226.977,170.076 226.432,171.101C225.628,172.687 223.697,174.133 221.86,173.656C219.203,172.94 218.276,168.685 218.413,164.982C217.489,165.133 216.565,165.284 215.641,165.437C215.925,167.376 215.518,170.384 214.79,171.908C213.746,174.231 210.896,174.664 209.346,172.585C208.437,171.085 207.897,168.904 207.781,166.744C201.06,167.877 194.344,169.05 187.639,170.283C185.709,170.865 185.736,168.754 185.355,167.446C182.937,152.971 180.507,138.51 177.076,124.227C171.97,98.481 164.001,73.335 159.416,47.494C158.518,47.383 158.396,45.976 159.327,45.781M304.712,156.83C307.491,159.145 308.101,156.312 308.037,153.922C308.137,153.125 307.482,151.722 307.939,151.042C306.403,151.32 304.865,151.589 303.326,151.849C303.31,153.669 303.593,155.554 304.712,156.83M293.025,158.771C293.476,159.89 294.93,160.954 295.669,159.471C296.822,157.88 295.175,154.148 296.355,153.308C296.26,153.198 296.246,153.082 296.279,152.98C295.029,153.172 293.777,153.36 292.524,153.542C292.504,153.867 292.489,154.193 292.477,154.518C292.352,155.955 292.415,157.441 293.025,158.771M211.82,171.607C214.366,170.96 214.096,167.522 214.297,165.658C213.003,165.871 211.707,166.086 210.412,166.303C210.149,168.412 210.309,170.698 211.82,171.607" style="fill:white;fill-rule:nonzero;"/>
                    </g>
                    <g transform="matrix(1,0,0,-1,33.3662,627.64)">
                        <path d="M158.798,51.756C160.827,51.455 162.824,50.987 164.806,50.462C201.656,41.481 238.967,34.259 276.377,28.03C278.986,27.913 295.567,24.8 295.629,27.761C296.66,28.113 297.675,28.479 298.665,28.955C300.436,29.83 302.582,30.001 302.513,32.452C302.718,33.885 302.917,35.322 303.225,36.738C303.603,37.526 303.468,38.196 302.706,38.667C302.316,38.981 299.932,40.304 298.96,40.22C299.755,43.362 300.522,46.509 301.264,49.664C302.485,49.559 304.244,53.322 305.013,54.302C306.71,57.512 309.066,61.077 312.981,61.528C313.473,61.231 314.073,61.57 314.575,61.69C314.746,61.7 314.918,61.71 315.092,61.719C315.432,61.738 315.772,61.758 316.112,61.784C316.254,61.806 316.457,61.815 316.675,61.833C317.151,61.871 317.699,61.944 317.843,62.257C317.894,62.431 317.864,62.554 317.781,62.645C317.555,62.896 316.944,62.898 316.656,63.037C316.981,64.518 317.573,69.075 316.671,70.891C316.571,71.095 316.451,71.264 316.31,71.39C316.261,71.434 316.209,71.473 316.155,71.507C315.789,71.243 315.419,70.982 315.059,70.709C314.973,70.645 314.887,70.579 314.801,70.512L314.79,70.503L314.777,70.493L314.776,70.493L314.775,70.491C314.288,70.121 313.797,69.758 313.311,69.39C312.483,68.763 311.669,68.119 310.918,67.393C310.91,67.385 310.9,67.377 310.891,67.37C309.947,66.787 307.902,64.581 306.905,65.815C306.081,65.042 305.268,64.313 304.388,63.616C304.395,63.645 304.401,63.673 304.407,63.702C304.431,63.798 304.454,63.895 304.477,63.992C303.838,63.382 303.136,62.787 302.352,62.383C302.338,62.328 302.326,62.272 302.313,62.216C302.174,61.611 302.035,61.005 301.899,60.4C299.595,50.177 297.633,39.84 294.368,29.872C294.216,29.309 293.885,28.687 294.139,28.11C275.342,28.267 256.952,33.351 238.481,36.375C212.397,41.906 186.159,46.607 160.325,53.262C169.073,93.791 180.665,133.74 186.704,174.821C193.63,173.965 200.419,172.399 207.251,171.035C208.186,170.847 209.122,170.665 210.059,170.487C210.111,170.478 210.161,170.468 210.212,170.459C212.813,169.982 215.422,169.565 218.037,169.178C219.162,169.011 220.288,168.849 221.416,168.691C223.702,168.368 225.991,168.057 228.278,167.734C229.475,167.565 230.672,167.393 231.869,167.214C234.025,166.891 236.178,166.549 238.326,166.167C251.775,163.968 265.234,161.903 278.686,159.822C279.841,159.642 280.997,159.463 282.152,159.285C284.315,158.949 286.479,158.612 288.642,158.274C289.823,158.09 291.005,157.906 292.186,157.72C294.469,157.362 296.752,157.002 299.036,156.638C299.201,156.612 299.365,156.586 299.53,156.56C299.882,156.504 300.234,156.447 300.586,156.392C300.771,156.362 300.957,156.333 301.143,156.302C301.187,156.295 301.23,156.289 301.275,156.282C301.814,156.196 302.353,156.11 302.891,156.023C310.231,154.845 317.566,153.635 324.894,152.369C324.75,152.234 324.674,152.017 324.774,151.841C317.631,129.278 311.953,106.344 307.073,83.201C306.853,82.166 306.637,81.13 306.421,80.095C307.225,81.64 308.642,82.9 309.24,84.51C309.296,84.492 309.356,84.48 309.415,84.476C309.431,84.473 309.448,84.472 309.465,84.473C309.567,84.601 309.679,84.726 309.826,84.801C309.817,84.931 309.818,85.06 309.828,85.188C309.912,86.449 310.781,87.613 311.161,88.807C312.449,91.981 313.749,95.154 315.213,98.251C315.814,99.187 316.209,100.248 316.813,101.174C317.519,101.925 318.596,101.279 319.322,100.882C320.393,100.386 321.492,99.915 322.588,99.542C322.999,100.637 323.266,101.774 323.451,102.934L323.451,102.935C323.549,103.537 323.624,104.147 323.686,104.759C323.814,105.998 323.889,107.251 323.993,108.491C324.024,108.868 324.057,109.242 324.095,109.615C324.141,110.065 324.195,110.512 324.257,110.955C324.691,115.105 325.31,119.236 325.852,123.374C325.887,123.641 325.922,123.909 325.956,124.177C326.126,125.497 326.287,126.819 326.429,128.142L326.429,128.143C326.457,128.404 326.484,128.665 326.511,128.926C326.514,128.964 326.516,129.002 326.519,129.04C326.621,130.523 326.666,132.008 326.668,133.494C326.677,139.602 325.98,145.72 325.641,151.801C326.19,152.038 326.751,152.675 325.927,152.992C325.932,153.049 325.932,153.105 325.924,153.163L325.923,153.162C325.85,153.463 325.386,153.5 325.271,153.2C319.821,154.568 314.33,155.733 308.813,156.758C308.346,156.846 307.878,156.932 307.41,157.017C305.874,157.295 304.336,157.564 302.797,157.824C302.291,157.909 301.785,157.995 301.279,158.077C301.257,158.082 301.234,158.085 301.21,158.089C301.054,158.115 300.897,158.14 300.741,158.167C300.406,158.221 300.072,158.276 299.738,158.329C299.553,158.359 299.37,158.389 299.185,158.417C298.287,158.562 297.387,158.703 296.489,158.842C296.242,158.88 295.996,158.918 295.751,158.955C294.5,159.147 293.248,159.335 291.995,159.518C290.881,159.681 289.767,159.841 288.652,159.999C286.373,160.322 284.091,160.636 281.809,160.944C280.766,161.084 279.722,161.224 278.679,161.362C277.254,161.552 275.831,161.741 274.407,161.929C260.112,164.286 245.796,166.497 231.492,168.769C230.363,168.949 229.232,169.129 228.102,169.309C225.818,169.674 223.533,170.04 221.249,170.41C220.127,170.592 219.005,170.774 217.884,170.958C216.96,171.108 216.036,171.259 215.112,171.412C214.665,171.485 214.217,171.559 213.768,171.633C212.474,171.846 211.178,172.061 209.883,172.278C209.005,172.424 208.13,172.572 207.252,172.72C200.531,173.853 193.815,175.025 187.11,176.259C185.18,176.84 185.207,174.729 184.826,173.422C182.408,158.946 179.978,144.485 176.547,130.202C171.441,104.457 163.472,79.31 158.887,53.469C157.989,53.359 157.867,51.952 158.798,51.756" style="fill-rule:nonzero;"/>
                    </g>
                    <g transform="matrix(-0.182206,0.98326,-0.98326,-0.182206,389.383,251.26)">
                        <path d="M250.724,5.006C250.546,3.891 250.553,-0.611 249.502,-0.357C250.381,39.751 249.818,80.74 250.724,121.138C250.763,121.787 251.839,121.783 251.788,121.064C250.928,82.375 251.393,43.683 250.724,5.006" style="fill-rule:nonzero;"/>
                    </g>
                    <g transform="matrix(1,0,0,-1,33.3662,587.107)">
                        <path d="M300.328,70.052C301.377,70.058 304.724,69.131 304.808,69.977C266.258,77.964 226.296,85.339 186.998,91.538C186.365,91.652 185.734,91.773 185.1,91.873C184.326,91.976 184.114,90.705 184.955,90.618C223.616,84.904 261.948,77.282 300.328,70.052" style="fill-rule:nonzero;"/>
                    </g>
                    <g transform="matrix(1,0,0,-1,33.3662,631.416)">
                        <path d="M297.375,91.048C297.316,91.644 296.272,91.668 295.762,91.855C293.942,92.283 292.119,92.706 290.294,93.118C254.087,100.813 217.882,108.656 181.241,114.271C180.593,114.368 180.351,113.429 181.057,113.291C220.008,107.683 259.242,97.88 297.375,91.048" style="fill-rule:nonzero;"/>
                    </g>
                    <g transform="matrix(1,0,0,-1,33.3662,676.724)">
                        <path d="M286.824,113.242C287.521,113.208 290.601,112.745 290.913,113.224C291.156,113.551 290.867,113.898 290.487,113.95C290.202,114.034 289.838,114.177 289.628,113.898C251.281,119.411 213.791,129.66 175.906,137.466C175.229,137.516 174.12,137.979 173.927,137.092C173.89,136.762 174.155,136.435 174.513,136.4C211.939,128.749 248.975,118.927 286.824,113.242" style="fill-rule:nonzero;"/>
                    </g>
                    <g transform="matrix(1,0,0,-1,33.3662,634.232)">
                        <path d="M240.406,59.488C247.717,86.722 254.312,114.16 262.009,141.299C262.051,142.152 264.661,149.558 262.938,148.522C262.773,148.334 262.556,147.997 262.806,147.788C254.904,121.545 248.361,94.928 241.725,68.342C240.854,65.501 239.948,62.666 239.277,59.767C239.111,59.115 240.133,58.674 240.406,59.488" style="fill-rule:nonzero;"/>
                    </g>
                    <g transform="matrix(1,0,0,-1,33.3662,642.236)">
                        <path d="M271.024,63.49C278.335,90.724 284.93,118.162 292.627,145.301C292.669,146.154 295.28,153.56 293.556,152.524C293.392,152.336 293.175,151.999 293.424,151.79C285.522,125.547 278.979,98.93 272.343,72.344C271.472,69.503 270.566,66.668 269.896,63.769C269.729,63.117 270.751,62.676 271.024,63.49" style="fill-rule:nonzero;"/>
                    </g>
                    <g transform="matrix(1,0,0,-1,33.3662,622.832)">
                        <path d="M214.636,54.715C215.297,55.377 215.294,56.502 215.63,57.353C217.802,64.802 220.012,72.24 222.223,79.678C227.374,100.203 234.335,120.354 237.768,141.274C238.025,141.491 237.837,141.89 237.843,142.181C237.817,142.386 237.562,142.523 237.383,142.402C237.068,142.117 237.137,141.58 237.014,141.194C232.783,122.649 227.393,104.393 222.645,85.979C219.856,75.86 216.845,65.797 213.904,55.723C213.414,55.282 214.018,54.309 214.636,54.715" style="fill-rule:nonzero;"/>
                    </g>
                    <g transform="matrix(1,0,0,-1,33.3662,616.965)">
                        <path d="M189.755,51.075C193.564,66.397 198.03,81.543 202.037,96.813C204.374,105.028 207.348,113.042 209.414,121.334C210.907,126.554 212.007,131.87 212.673,137.257C212.644,138.095 213.811,140.825 212.173,140.282C211.728,140.202 211.75,139.575 212.187,139.528C209.989,127.756 206.862,116.172 203.057,104.819C197.96,87.779 193.606,70.523 188.934,53.36C188.765,52.708 188.591,52.057 188.423,51.404C188.226,50.599 189.464,50.14 189.755,51.075" style="fill-rule:nonzero;"/>
                    </g>
                    <g transform="matrix(1,0,0,-1,33.3662,511.337)">
                        <path d="M300.167,36.176L300.166,36.169C300.209,36.021 300.254,35.877 300.303,35.737C300.331,35.653 300.361,35.572 300.393,35.492C300.402,35.466 300.413,35.441 300.424,35.414C300.434,35.389 300.445,35.363 300.456,35.338C300.537,35.148 300.627,34.975 300.725,34.831C300.735,34.815 300.746,34.799 300.757,34.785C300.769,34.766 300.783,34.749 300.796,34.733C300.925,34.566 301.067,34.448 301.225,34.398C301.239,34.393 301.252,34.389 301.268,34.386C301.36,34.363 301.459,34.365 301.563,34.394C301.605,34.405 301.648,34.421 301.691,34.442C301.75,34.47 301.809,34.505 301.87,34.55C301.916,34.583 301.964,34.621 302.012,34.665C302.083,34.762 302.125,34.876 302.141,34.994C302.144,35.018 302.146,35.042 302.147,35.066L302.147,35.131C302.144,35.182 302.136,35.235 302.123,35.285C302.118,35.306 302.111,35.326 302.103,35.348L302.103,35.351C302.096,35.371 302.086,35.392 302.077,35.412L302.074,35.417C302.067,35.433 302.058,35.45 302.048,35.466C302.046,35.472 302.042,35.477 302.038,35.484C302.027,35.502 302.015,35.519 302.001,35.535C302.002,35.503 302,35.47 301.999,35.436L301.984,35.438C301.378,35.809 301,36.503 300.79,37.381C300.768,37.366 300.747,37.351 300.726,37.335C300.704,37.319 300.684,37.301 300.664,37.283C300.623,37.248 300.587,37.208 300.552,37.167C300.518,37.124 300.485,37.081 300.455,37.034L300.445,37.018C300.43,36.995 300.418,36.972 300.404,36.948C300.388,36.921 300.374,36.893 300.361,36.863C300.343,36.827 300.327,36.791 300.313,36.753C300.303,36.73 300.294,36.706 300.285,36.681C300.275,36.651 300.264,36.62 300.256,36.588L300.254,36.582C300.243,36.55 300.234,36.518 300.227,36.486C300.219,36.458 300.212,36.429 300.207,36.401C300.203,36.39 300.201,36.378 300.199,36.368C300.186,36.305 300.175,36.241 300.167,36.176M299.185,42.114C299.107,41.514 299.057,40.917 299.036,40.334C298.995,39.114 299.081,37.957 299.308,36.971C299.508,36.096 299.819,35.356 300.248,34.826L300.249,34.825C300.83,34.107 301.624,33.773 302.654,34.008C303.686,34.488 303.675,35.702 303.449,36.895C303.383,37.246 303.298,37.594 303.216,37.922C303.115,38.323 303.017,38.693 302.962,38.996C302.937,39.23 302.912,39.471 302.891,39.72C302.84,40.294 302.801,40.903 302.797,41.521C302.782,43.341 303.064,45.226 304.183,46.502C306.963,48.818 307.572,45.984 307.508,43.594C307.608,42.797 306.953,41.394 307.41,40.714C307.473,40.619 307.56,40.537 307.673,40.473C307.552,40.214 307.76,39.968 308.006,39.896C308.3,39.787 308.571,40.026 308.813,40.455C309.502,41.673 309.954,44.423 310.01,45.029C310.384,47.787 308.512,50.983 305.533,51.075C302.089,51.564 299.789,46.759 299.185,42.114M301.275,39.978C301.346,39.236 301.533,38.508 301.7,37.778C301.767,37.484 301.831,37.19 301.882,36.895C301.962,36.445 302.011,35.993 302.001,35.535C302.002,35.503 302,35.47 301.999,35.436L301.984,35.438C301.378,35.809 301,36.503 300.79,37.381C300.708,37.724 300.652,38.094 300.618,38.485C300.572,38.993 300.565,39.533 300.587,40.089C300.609,40.672 300.663,41.27 300.741,41.864C301.013,43.943 301.566,45.962 302.011,47.015L301.972,46.931C302.829,49.02 304.806,50.495 306.863,49.185C306.958,49.125 307.053,49.059 307.147,48.987C307.031,49.034 306.913,49.074 306.795,49.103L306.794,49.103C306.466,49.187 306.133,49.208 305.802,49.176C305.546,49.153 305.293,49.099 305.044,49.021L305.021,49.013C304.255,48.766 303.538,48.288 302.981,47.75C301.704,46.374 301.405,44.502 301.312,42.663L301.312,42.659C301.297,42.363 301.288,42.067 301.28,41.774C301.273,41.516 301.268,41.26 301.263,41.009C301.233,40.662 301.242,40.319 301.275,39.978M300.167,36.176L300.166,36.169C300.209,36.021 300.254,35.877 300.303,35.737C300.331,35.653 300.361,35.572 300.393,35.492C300.402,35.466 300.413,35.441 300.424,35.414C300.434,35.389 300.445,35.363 300.456,35.338C300.537,35.148 300.627,34.975 300.725,34.831C300.735,34.815 300.746,34.799 300.757,34.785C300.769,34.766 300.783,34.749 300.796,34.733C300.925,34.566 301.067,34.448 301.225,34.398C301.239,34.393 301.252,34.389 301.268,34.386C301.36,34.363 301.459,34.365 301.563,34.394C301.605,34.405 301.648,34.421 301.691,34.442C301.75,34.47 301.809,34.505 301.87,34.55C301.916,34.583 301.964,34.621 302.012,34.665C302.083,34.762 302.125,34.876 302.141,34.994C302.144,35.018 302.146,35.042 302.147,35.066L302.147,35.131C302.144,35.182 302.136,35.235 302.123,35.285C302.118,35.306 302.111,35.326 302.103,35.348L302.103,35.351C302.096,35.371 302.086,35.392 302.077,35.412L302.074,35.417C302.067,35.433 302.058,35.45 302.048,35.466C302.046,35.472 302.042,35.477 302.038,35.484C302.027,35.502 302.015,35.519 302.001,35.535C302.002,35.503 302,35.47 301.999,35.436L301.984,35.438C301.378,35.809 301,36.503 300.79,37.381C300.768,37.366 300.747,37.351 300.726,37.335C300.704,37.319 300.684,37.301 300.664,37.283C300.623,37.248 300.587,37.208 300.552,37.167C300.518,37.126 300.485,37.081 300.455,37.034L300.445,37.018C300.43,36.995 300.418,36.972 300.404,36.948C300.388,36.921 300.374,36.893 300.361,36.863C300.343,36.827 300.327,36.791 300.313,36.753C300.303,36.73 300.294,36.706 300.285,36.681C300.275,36.651 300.264,36.62 300.256,36.588L300.254,36.582C300.243,36.55 300.234,36.518 300.227,36.486C300.219,36.458 300.212,36.429 300.207,36.401C300.203,36.39 300.201,36.378 300.199,36.368C300.186,36.305 300.175,36.241 300.167,36.176" style="fill-rule:nonzero;"/>
                    </g>
                    <g transform="matrix(1,0,0,-1,33.3662,512.962)">
                        <path d="M302.012,36.289C302.226,36.581 302.187,37.038 301.895,37.266C300.343,40.903 300.978,50.016 305.748,50.837C306.075,50.593 306.816,50.423 306.928,50.977C306.979,51.311 306.636,51.474 306.373,51.555C303.594,52.146 301.396,49.411 300.626,47.029C299.953,44.86 299.29,42.545 299.6,40.258C299.879,39.301 300.388,34.816 302.012,36.289" style="fill-rule:nonzero;"/>
                    </g>
                    <g transform="matrix(1,0,0,-1,33.3662,506.875)">
                        <path d="M288.652,39.234C288.625,38.659 288.621,38.08 288.641,37.509C288.688,36.25 288.858,35.028 289.192,33.97C289.37,33.402 289.595,32.881 289.874,32.426C290.281,31.76 290.801,31.236 291.452,30.911C293.338,30.875 293.41,32.268 293.095,33.645L293.095,33.646C292.973,34.169 292.798,34.691 292.644,35.13L292.643,35.13C292.628,35.174 292.614,35.216 292.599,35.258C292.41,35.814 292.278,36.381 292.186,36.955C292.088,37.549 292.032,38.15 291.995,38.753C291.975,39.078 291.96,39.403 291.948,39.728C291.823,41.165 291.886,42.651 292.495,43.981C292.947,45.1 294.401,46.165 295.14,44.681C296.293,43.091 294.646,39.359 295.825,38.518C295.731,38.409 295.717,38.293 295.75,38.19C295.839,37.922 296.262,37.751 296.482,38.06L296.489,38.077C297.316,39.981 297.682,42.194 297.432,44.273C297.251,48.98 291.549,50 289.903,45.509C289.277,44.086 288.765,41.694 288.652,39.234" style="fill-rule:nonzero;"/>
                    </g>
                    <g transform="matrix(1,0,0,-1,33.3662,505.583)">
                        <path d="M278.678,39.305C278.664,38.736 278.669,38.213 278.686,37.764C278.691,37.63 278.697,37.504 278.704,37.383C278.804,36.635 279.204,35.258 279.812,34.005C280.06,33.494 280.343,33.002 280.655,32.584C281.362,31.635 282.214,31.058 283.141,31.456C283.908,32.096 283.261,33.35 282.989,34.181C282.971,34.237 282.954,34.291 282.939,34.343C282.848,34.648 282.757,34.953 282.669,35.261C282.484,35.911 282.307,36.566 282.151,37.228C282.021,37.778 281.905,38.331 281.808,38.886C281.52,40.551 281.403,42.235 281.611,43.916C283.76,46.996 284.663,41.942 284.828,40.33C284.909,39.7 284.748,38.551 285.644,38.514C286.958,38.791 286.192,40.697 286.218,41.633C286.223,43.805 285.749,46.318 283.686,47.461C279.696,48.525 278.771,42.99 278.678,39.305M282.031,46.161C282.435,46.3 282.992,46.483 283.347,46.156C283.149,46.2 282.951,46.22 282.747,46.224C282.508,46.228 282.266,46.209 282.031,46.161" style="fill-rule:nonzero;"/>
                    </g>
                    <g transform="matrix(1,0,0,-1,33.3662,525.433)">
                        <path d="M301.579,46.174C308.25,45.278 305.852,54.155 301.053,51.591C300.849,51.107 301.97,50.549 301.965,51.245C305.451,51.535 305.96,46.395 301.561,47.247C300.112,47.481 299.563,50.887 300.908,51.546C301.596,51.869 301.087,52.87 300.419,52.512C298.211,51.318 298.962,46.375 301.579,46.174" style="fill-rule:nonzero;"/>
                    </g>
                    <g transform="matrix(1,0,0,-1,33.3662,523.68)">
                        <path d="M289.326,51.007C288.848,51.533 289.819,52 290.253,52.077C291.14,52.345 292.12,52.22 292.942,51.799C296.076,50.363 295.471,45.335 291.673,45.784C289.142,46.088 288.019,48.903 289.326,51.007M290.964,51.35C289.453,50.195 289.385,47.388 291.534,46.931C295.332,46.508 294.082,51.444 290.964,51.35" style="fill-rule:nonzero;"/>
                    </g>
                    <g transform="matrix(1,0,0,-1,33.3662,518.31)">
                        <path d="M280.303,47.479C284.339,49.92 287.66,43.561 282.384,42.872C279.847,42.39 278.743,45.86 280.303,47.479M281.092,47.022C281.138,46.591 280.687,46.282 280.675,45.84C280.578,45.122 280.753,44.053 281.612,43.927C285.468,43.626 284.38,47.861 281.092,47.022" style="fill-rule:nonzero;"/>
                    </g>
                    <g transform="matrix(1,0,0,-1,33.3662,487.637)">
                        <path d="M228.102,29.306C228.137,28.795 228.195,28.264 228.278,27.731C228.43,26.755 228.665,25.777 228.988,24.916C229.217,24.306 229.489,23.755 229.808,23.306C230.228,22.713 230.727,22.298 231.31,22.159C232.15,22.476 232.386,23.346 232.338,24.44C232.326,24.713 232.297,25.001 232.255,25.298C232.167,25.912 232.023,26.566 231.869,27.211C231.743,27.744 231.607,28.271 231.492,28.766C231.29,29.625 231.144,30.386 231.182,30.916C231.013,32.247 231.104,36.16 233.288,34.834C234.356,33.666 234.725,32.027 234.925,30.497C235.058,29.857 234.614,28.938 235.297,28.536C235.331,28.004 235.984,28.068 236.032,28.57C236.584,28.943 236.436,30.283 236.437,30.896C236.732,33.517 235.545,36.647 233.06,37.814C229.645,39.478 228.553,34.864 228.264,32.366C228.077,31.65 228.02,30.539 228.102,29.306" style="fill-rule:nonzero;"/>
                    </g>
                    <g transform="matrix(1,0,0,-1,33.3662,502.609)">
                        <path d="M231.215,36.04C233.447,35.895 235.721,38.55 233.324,40.09C232.585,40.537 230.768,40.185 230.68,39.188C230.633,38.714 231.354,38.667 231.373,39.146C232.242,39.783 233.807,39.24 233.207,38.025C232.659,37.264 231.025,36.758 230.285,37.47C229.827,37.962 229.44,38.904 230.021,39.438C230.573,39.892 229.904,40.726 229.345,40.289C227.737,38.919 229.165,35.883 231.215,36.04" style="fill-rule:nonzero;"/>
                    </g>
                    <g transform="matrix(1,0,0,-1,33.3662,486.038)">
                        <path d="M217.884,29.355C217.907,28.741 217.96,28.141 218.037,27.576C218.209,26.342 218.505,25.271 218.894,24.555C218.236,23.297 219.18,21.532 220.695,21.796C223.057,21.923 224.324,26.237 221.439,26.481C221.437,26.684 221.429,26.887 221.416,27.089C221.384,27.663 221.319,28.236 221.249,28.808C221.051,30.438 220.814,32.069 221.159,33.705C221.303,34.52 221.907,36.305 222.867,36.378C224.801,35.368 224.651,31.141 225.384,29.115C225.288,28.945 225.384,28.719 225.564,28.66C225.64,28.479 225.787,28.344 225.988,28.289C227.366,27.981 226.622,31.32 226.657,32.119C226.538,33.254 226.449,34.449 225.903,35.474C225.1,37.06 223.169,38.506 221.332,38.029C218.674,37.313 217.748,33.058 217.884,29.355M219.882,23.415C221.095,22.779 221.162,24.212 221.295,25.035C222.265,25.527 221.793,22.959 220.251,23.023C220.047,23.05 219.925,23.226 219.882,23.415" style="fill-rule:nonzero;"/>
                    </g>
                    <g transform="matrix(1,0,0,-1,33.3662,484.306)">
                        <path d="M207.253,29.385C207.223,28.818 207.221,28.252 207.251,27.7C207.313,26.501 207.52,25.368 207.88,24.433C207.271,22.683 208.335,21.001 210.272,21.273C213.404,21.397 212.637,25.779 210.551,25.875C210.438,26.234 210.32,26.659 210.212,27.125C210.081,27.686 209.962,28.307 209.882,28.944C209.62,31.053 209.781,33.339 211.292,34.248C213.837,33.601 213.566,30.163 213.768,28.299C213.872,27.325 214.107,26.781 214.938,27.289C215.014,27.522 215.07,27.788 215.113,28.078C215.395,30.017 214.988,33.025 214.26,34.549C213.216,36.872 210.367,37.305 208.816,35.226C207.908,33.726 207.367,31.545 207.253,29.385M211.036,23.936C211.117,23.596 211.249,23.186 211.053,22.866C211.094,23.221 211.085,23.58 211.036,23.936" style="fill-rule:nonzero;"/>
                    </g>
                    <g transform="matrix(1,0,0,-1,33.3662,647.565)">
                        <path d="M323.931,172.494C323.931,172.494 304.805,94.253 302.197,82.082C299.589,69.911 294.373,47.308 294.373,47.308C294.373,47.308 304.805,49.916 310.891,53.393C316.976,56.871 323.734,122.631 325.137,138C326.135,148.936 326.348,165.129 325.67,171.625C325.395,174.257 323.931,172.494 323.931,172.494" style="fill-rule:nonzero;"/>
                    </g>
                    <g transform="matrix(1,0,0,-1,33.3662,607.713)">
                        <path d="M235.04,84.099C235.863,83.751 236.608,83.847 237.26,84.349C237.809,84.771 238.322,85.248 238.807,85.742C242.638,89.645 246.731,93.244 251.178,96.433C251.627,96.754 252.108,97.032 252.548,97.365C252.671,97.457 252.7,97.673 252.772,97.832C252.598,97.859 252.389,97.962 252.255,97.901C246.759,95.395 241.359,92.721 236.761,88.703C236.467,88.445 236.364,88.487 236.227,88.84C235.762,90.036 235.272,91.224 234.775,92.408C234.658,92.689 234.571,93.097 234.142,92.997C233.744,92.905 233.762,92.511 233.769,92.198C233.812,90.13 233.859,88.062 233.929,85.994C233.957,85.156 234.311,84.483 235.04,84.099" style="fill:rgb(255,120,164);fill-rule:nonzero;"/>
                    </g>
                    <g transform="matrix(1,0,0,-1,33.3662,617.757)">
                        <path d="M260.884,89.121C261.707,88.773 262.452,88.869 263.104,89.371C263.653,89.793 264.166,90.27 264.651,90.764C268.482,94.667 272.575,98.266 277.022,101.455C277.471,101.776 277.952,102.054 278.392,102.387C278.515,102.479 278.544,102.695 278.616,102.854C278.442,102.881 278.233,102.984 278.099,102.923C272.603,100.417 267.203,97.743 262.605,93.725C262.311,93.467 262.208,93.509 262.071,93.862C261.606,95.058 261.116,96.246 260.619,97.43C260.502,97.711 260.415,98.119 259.986,98.019C259.588,97.927 259.607,97.533 259.613,97.22C259.656,95.152 259.703,93.084 259.773,91.016C259.801,90.178 260.155,89.505 260.884,89.121" style="fill:rgb(255,120,164);fill-rule:nonzero;"/>
                    </g>
                    <g transform="matrix(1,0,0,-1,33.3662,721.362)">
                        <path d="M44.657,50.272C115.966,40.018 157.214,44.446 169.798,43.747C182.381,43.048 198.228,45.844 198.694,46.776C199.16,47.708 198.228,50.505 199.626,51.437C201.024,52.369 210.579,57.496 214.307,68.449C218.036,79.401 221.298,90.587 223.862,93.384C226.425,96.18 229.222,98.743 229.222,98.743C229.222,98.743 235.281,94.549 238.776,101.54C242.272,108.531 245.068,112.726 240.874,115.056C236.679,117.386 232.018,117.852 232.018,117.852C232.018,117.852 232.717,121.348 227.591,122.513C222.464,123.678 220.832,122.746 220.832,122.746C220.832,122.746 222.93,127.407 214.774,128.572C206.617,129.737 196.83,121.348 196.83,121.348C196.83,121.348 196.83,137.894 201.49,145.351C206.151,152.808 210.113,160.032 206.384,161.896C202.656,163.761 197.529,162.129 194.499,156.77C191.47,151.41 177.954,117.386 177.954,117.386C177.954,117.386 172.827,121.348 171.895,121.581C170.963,121.814 141.367,148.613 141.134,152.808C140.901,157.003 141.134,159.799 141.134,159.799C141.134,159.799 156.048,163.294 157.913,170.286C159.777,177.277 160.476,189.627 159.544,196.852C158.612,204.076 157.447,209.203 157.447,209.203C157.447,209.203 159.544,214.096 158.146,215.029C156.747,215.961 152.786,218.058 152.786,218.058C152.786,218.058 143.697,242.527 143.231,243.226C142.765,243.925 123.89,253.946 113.403,254.645C102.916,255.344 86.837,247.421 84.972,246.721C83.108,246.022 60.27,221.321 57.241,193.589C54.212,165.858 43.725,98.743 43.725,98.743C43.725,98.743 43.259,77.537 39.53,71.245C35.802,64.953 28.496,52.596 44.657,50.272" style="fill:white;fill-rule:nonzero;"/>
                    </g>
                    <g transform="matrix(1,0,0,-1,33.3662,843.123)">
                        <path d="M36.183,177.313C36.183,177.313 44.955,218.978 51.533,227.749C58.112,236.521 70.173,259.546 82.234,251.871C94.295,244.196 119.513,234.328 119.513,234.328L134.863,236.521L148.02,239.81L164.467,222.267L171.046,203.628L164.467,165.252C164.467,165.252 30.701,157.577 36.183,177.313" style="fill:rgb(254,212,225);fill-rule:nonzero;"/>
                    </g>
                    <g transform="matrix(1,0,0,-1,33.3662,713.523)">
                        <path d="M0,96.884C0.146,97.194 0.374,97.49 0.428,97.816C1.496,104.261 5.08,109.275 9.602,113.696C14.219,118.21 19.793,121.171 25.86,123.262C26.9,123.621 27.917,124.044 29.236,124.549C28.229,125.417 27.546,126.008 26.859,126.597C17.447,134.673 16.828,146.528 25.358,155.537C28.236,158.577 31.583,161.018 35.2,163.093C37.699,164.526 40.196,165.976 42.78,167.244C44.467,168.071 44.946,169.221 45.033,171.053C45.329,177.265 45.647,183.489 46.346,189.664C47.272,197.847 49.597,205.66 53.258,213.09C55.367,217.37 58.831,220.869 60.159,225.627C60.47,226.74 60.952,227.383 59.917,228.196C59.559,228.477 59.106,228.816 59.007,229.207C58.825,229.932 58.575,230.905 58.906,231.418C59.234,231.927 60.265,232.257 60.948,232.199C61.938,232.116 62.893,231.613 63.989,231.246C64.158,231.923 64.286,232.471 64.432,233.016C64.61,233.683 64.722,234.383 65.003,235.005C65.669,236.477 67.111,236.932 67.953,235.687C69.061,234.046 69.742,234.574 70.819,235.524C72.113,236.667 73.515,237.687 74.879,238.75C87.521,248.603 101.8,252.495 117.694,250.497C125.212,249.552 132.357,247.475 138.854,243.467C143.65,240.509 147.591,236.678 150.34,231.732C152.837,227.242 153.949,222.505 152.229,217.452C151.858,216.367 151.945,215.464 152.49,214.499C152.883,213.8 153.276,213.06 153.456,212.289C153.848,210.605 154.783,209.896 156.535,209.62C159.449,209.16 160.393,207.804 160.328,204.83C160.309,203.916 160.266,202.934 159.925,202.109C158.983,199.823 159.457,197.692 160.069,195.42C162,188.26 163.298,181.016 161.908,173.559C161.296,170.275 160.673,166.992 160.169,163.692C159.746,160.913 158.398,158.788 156.237,157.035C153.215,154.581 149.79,153.057 146.035,152.159C145.546,152.042 144.805,151.636 144.766,151.297C144.716,150.86 145.154,150.08 145.561,149.927C147.368,149.249 149.205,148.469 151.096,148.227C156.263,147.567 161.365,146.702 166.171,144.62C172.361,141.94 176.624,137.463 178.141,130.799C178.695,128.363 178.628,125.777 178.738,123.255C178.785,122.229 178.505,121.193 178.47,120.159C178.456,119.765 178.714,119.362 178.849,118.964C179.251,119.272 179.793,119.502 180.023,119.908C180.415,120.6 180.607,121.405 180.891,122.16C182.146,125.504 183.362,128.863 184.669,132.187C187.816,140.193 192.215,147.467 197.674,154.103C198.477,155.077 199.326,156.045 200.298,156.84C202.098,158.313 204.135,158.982 206.397,157.899C208.589,156.849 209.771,154.968 209.693,152.637C209.621,150.486 209.285,148.259 208.581,146.235C207.637,143.529 206.277,140.961 205.008,138.377C201.947,132.139 199.553,125.676 198.292,118.824C198.184,118.244 198.208,117.64 198.145,116.599C199.413,117.644 200.232,118.458 201.181,119.071C203.206,120.377 205.184,121.855 207.385,122.77C212.891,125.056 216.928,123.602 219.896,118.405C220.564,117.238 221.156,117.049 222.349,117.362C223.447,117.65 224.626,117.738 225.768,117.725C228.423,117.694 230.595,116.57 231.427,113.994C231.988,112.256 232.854,111.919 234.445,112.131C239.001,112.736 243.908,109.291 243.565,102.888C243.368,99.213 242.546,95.588 240.637,92.333C239.507,90.408 238.103,88.632 235.957,87.907C234.496,87.414 232.504,86.867 231.339,87.474C229.098,88.643 228.24,87.54 227.184,86.08C225.906,84.315 224.436,82.671 223.322,80.812C220.03,75.321 217.792,69.436 216.978,63.034C215.934,54.811 211.68,48.893 203.99,45.66C202.193,44.904 201.71,43.953 201.757,42.028C201.798,40.267 201.124,38.448 200.543,36.73C200.219,35.771 199.142,35.726 198.677,36.535C197.467,38.64 197.487,40.922 197.744,43.257C197.952,45.147 199.35,45.865 200.714,46.774C207.503,51.294 212.428,56.94 213.268,65.604C213.852,71.642 216.379,77.147 219.876,82.139C222.585,86.007 225.333,89.847 228.068,93.696C228.535,94.353 228.96,95.062 229.526,95.622C229.984,96.073 230.814,96.747 231.15,96.595C231.783,96.308 232.358,95.565 232.615,94.883C232.82,94.34 232.54,93.601 232.43,92.956C232.32,92.317 232.151,91.688 232.009,91.054C232.865,91.118 233.789,91.004 234.559,91.296C235.267,91.567 235.999,92.16 236.392,92.81C237.758,95.066 239.227,97.312 240.189,99.746C241.163,102.208 240.13,104.527 238.383,106.39C236.74,108.141 234.665,108.074 232.618,107.236C231.241,106.673 229.841,106.049 228.648,105.181C226.792,103.831 224.91,102.424 223.378,100.734C219.9,96.896 216.624,92.871 213.267,88.922C212.672,88.222 212.135,87.457 211.458,86.849C211.219,86.635 210.599,86.691 210.234,86.832C210.02,86.915 209.787,87.466 209.867,87.707C210.223,88.795 210.576,89.91 211.13,90.904C215.447,98.653 220.721,105.551 228.461,110.247C229.857,111.093 229.824,112.15 228.288,112.607C226.915,113.017 225.345,113.184 223.936,112.968C221.138,112.539 218.827,110.925 216.628,109.222C211.75,105.447 207.809,100.791 204.141,95.881C203.59,95.143 203.109,94.323 202.438,93.717C202.106,93.417 201.296,93.297 200.915,93.498C200.52,93.706 200.158,94.416 200.184,94.883C200.229,95.662 200.481,96.483 200.848,97.18C201.598,98.604 202.395,100.019 203.323,101.331C207.009,106.544 211.227,111.26 216.641,114.748C218.143,115.715 218.168,116.474 216.728,117.643C215.081,118.983 213.172,119.186 211.167,118.696C208.419,118.023 206.059,116.582 203.913,114.805C198.066,109.965 193.348,104.208 189.984,97.379C189.729,96.863 189.609,96.252 189.26,95.819C188.868,95.333 188.27,94.649 187.793,94.674C186.805,94.727 186.598,95.709 186.734,96.521C187.001,98.101 187.148,99.787 187.833,101.191C189.292,104.181 190.846,107.174 192.772,109.872C194.311,112.028 195.448,114.011 195.013,116.783C194.807,118.096 195.186,119.53 195.443,120.882C196.677,127.375 198.98,133.513 201.684,139.522C202.863,142.146 203.99,144.805 204.93,147.522C205.408,148.905 205.529,150.444 205.591,151.922C205.615,152.489 205.155,153.358 204.677,153.582C204.223,153.796 203.34,153.508 202.855,153.153C202.128,152.619 201.543,151.867 200.964,151.153C196.298,145.386 192.356,139.166 189.535,132.29C180.392,110.004 173.702,87.086 171.522,62.975C170.839,55.403 169.75,47.868 168.811,40.32C168.671,39.183 168.417,38.044 168.063,36.956C167.664,35.734 166.77,35.028 165.414,35.305C164.197,35.553 163.768,36.489 163.779,37.622C163.788,38.541 163.88,39.464 163.993,40.377C164.897,47.698 165.652,55.042 166.811,62.322C167.266,65.188 166.576,67.394 165.186,69.772C161.229,76.532 157.525,83.441 153.585,90.211C150.634,95.283 147.47,100.231 144.406,105.237C143.986,105.921 143.509,106.171 142.712,105.741C141.033,104.836 139.316,104.002 137.483,103.073C137.912,102.329 138.22,101.726 138.59,101.163C144.94,91.513 146.967,81.298 142.447,70.319C141.609,68.282 141.768,66.311 142.771,64.682C145.113,60.875 146.177,56.641 147.29,52.439C148.141,49.226 148.508,45.882 149.026,42.586C149.082,42.23 148.712,41.808 148.539,41.416C148.083,41.634 147.577,41.788 147.19,42.092C146.949,42.282 146.88,42.696 146.743,43.014C144.458,48.298 141.971,53.505 139.936,58.883C136.109,68.989 130.703,78.185 124.531,86.988C123.212,88.869 121.912,90.801 120.905,92.857C117.638,99.531 112.667,104.769 107.113,109.512C103.425,112.663 99.084,114.34 94.258,114.987C89.626,115.609 85.037,115.414 80.484,114.63C70.664,112.938 62.744,108.489 58.111,99.152C55.039,92.961 51.613,86.947 48.439,80.805C47.172,78.354 45.961,75.84 45.063,73.238C42.13,64.744 39.353,56.196 36.517,47.669C36.335,47.122 36.172,46.568 35.967,46.029C35.481,44.75 34.702,43.792 33.182,43.924C31.869,44.037 30.946,45.17 31.096,47.002C31.291,49.398 31.587,51.837 32.267,54.131C33.378,57.881 34.828,61.531 36.149,65.217C37.029,67.674 36.954,67.941 34.495,68.588C31.711,69.321 28.876,69.863 26.096,70.608C18.658,72.603 11.822,75.798 5.9,80.823C3.182,83.13 1.113,85.784 0.548,89.417C0.481,89.849 0.188,90.246 0,90.659L0,96.884ZM104.118,231.876C105.466,228.512 106.118,224.869 107.145,221.091C108.086,221.755 108.985,222.408 109.905,223.031C113.958,225.779 118.392,226.445 123.116,225.369C123.895,225.192 124.661,224.888 125.382,224.536C126.397,224.04 127.852,223.532 127.424,222.166C126.897,220.487 125.525,221.516 124.527,221.834C119.017,223.591 114.09,222.453 109.554,219.009C107.882,217.738 107.079,216.268 107.022,214.065C106.837,206.937 105.173,200.116 101.643,193.887C100.063,191.099 98.089,188.516 96.12,185.973C95.245,184.842 94.992,183.891 95.383,182.518C96.344,179.146 97.714,176.005 100.061,173.366C101.592,171.645 103.188,169.979 104.779,168.312C116.76,155.769 121.19,140.88 118.487,123.835C118.211,122.095 118.664,121.149 119.976,120.062C123.787,116.903 127.47,113.588 131.15,110.275C133.317,108.324 137.695,107.843 140.139,109.382C140.932,109.881 140.878,110.455 140.411,111.1C139.736,112.033 139.087,112.993 138.335,113.863C133.273,119.715 131.343,126.713 130.781,134.232C130.636,136.18 130.316,138.118 130.233,140.068C130.186,141.182 130.164,142.452 130.632,143.406C132.202,146.603 133.969,149.705 135.723,152.809C136.322,153.869 137.335,154.324 138.578,154.489C140.745,154.777 142.908,155.158 145.038,155.645C146.826,156.054 148.63,156.519 150.317,157.222C154.625,159.017 157.285,161.842 157.9,166.926C159.009,176.097 158.548,185.107 156.607,194.063C156.054,196.615 155.945,199.023 156.638,201.509C156.822,202.17 156.917,202.864 156.979,203.55C157.216,206.181 157.044,206.441 154.292,206.782C149.23,207.408 144.71,209.245 140.91,212.68C137.6,215.672 135.697,219.356 135.578,223.899C135.527,225.834 135.751,227.589 137.561,228.737C138.673,229.441 138.402,230.176 137.62,230.964C134.671,233.933 131.367,236.439 127.604,238.261C119.177,242.344 110.266,243.577 101.007,242.511C100.238,242.423 99.49,242.159 98.82,241.997C100.656,238.557 102.725,235.352 104.118,231.876M27.6,150.665C23.162,145.086 23.138,138.512 27.484,132.913C27.801,132.503 28.276,132.216 29.184,131.439C28.333,137.122 28.721,142.083 30.383,146.944C32.058,151.842 34.998,155.828 38.788,159.273C34.402,157.123 30.576,154.406 27.6,150.665M77.443,169.276C76.644,173.707 76.544,178.164 76.959,182.64C77.051,183.639 77.487,184.799 76.111,185.26C74.923,185.659 73.736,185.391 73.023,184.359C72.322,183.346 71.57,182.195 71.393,181.021C70.377,174.277 72.552,168.703 78.334,164.602C78.036,166.16 77.724,167.716 77.443,169.276M5.938,95.652C5.311,91.712 6.283,88.209 9.813,85.117C10.035,86.399 10.352,87.24 10.292,88.054C9.749,95.584 11.533,102.609 14.761,109.34C14.842,109.509 14.771,109.752 14.771,110.57C10.174,106.157 6.876,101.567 5.938,95.652M142.826,223.345C142.467,224.062 142.247,224.989 141.666,225.417C141.022,225.891 140.007,226.128 139.219,226.01C138.889,225.961 138.421,224.669 138.557,224.062C138.955,222.284 139.564,220.543 140.21,218.833C140.59,217.825 141.143,217.609 142.313,218.248C143.098,218.677 144.396,218.167 145.444,218.079C144.554,219.872 143.697,221.612 142.826,223.345M173.981,126.567C173.798,133.182 170.038,138.314 164.258,139.947C168.505,136.358 171.824,132.158 173.981,126.567M146.889,215.68C146.222,212.479 146.222,212.479 150.264,211.225C149.846,213.353 148.531,214.688 147.128,216.434C146.949,215.872 146.91,215.778 146.889,215.68" style="fill:rgb(18,4,14);fill-rule:nonzero;"/>
                    </g>
                    <g transform="matrix(1,0,0,-1,33.3662,631.671)">
                        <path d="M140.211,101.936C138.522,103.314 138.85,104.823 140.93,105.475C142.458,105.955 144.042,106.298 145.626,106.559C147.543,106.874 149.492,107.241 151.415,107.185C152.406,107.156 153.703,106.499 154.284,105.704C155.62,103.879 154.392,101.924 153.883,100.11C153.432,98.499 151.868,98.453 150.232,98.43C146.67,98.527 143.17,99.524 140.211,101.936M150.177,101.291C151.099,101.291 151.944,102.59 151.593,103.598C151.456,103.991 150.542,104.389 150.036,104.329C148.162,104.105 146.311,103.691 143.69,103.21C146.151,101.521 148.15,101.291 150.177,101.291" style="fill:rgb(18,4,14);fill-rule:nonzero;"/>
                    </g>
                    <g transform="matrix(0.459043,-0.888414,0.888414,0.459043,32.5263,575.625)">
                        <path d="M121.908,72.551C120.616,73.215 119.487,75.7 120.11,77.012C120.376,77.571 121.31,78.175 121.908,78.145C123.771,78.049 125.255,74.871 124.269,73.287C123.721,72.407 122.917,72.084 121.908,72.551" style="fill:rgb(18,4,14);fill-rule:nonzero;"/>
                    </g>
                    <g transform="matrix(1,0,0,-1,33.3662,602.791)">
                        <path d="M153.374,91.429C152.72,91.125 152.212,91.036 151.943,90.733C151.35,90.066 150.691,89.355 150.411,88.54C150.151,87.782 150.008,86.395 150.404,86.112C151.454,85.362 151.841,86.617 152.35,87.294C152.959,88.106 153.692,88.864 154.1,89.768C154.257,90.117 153.667,90.803 153.374,91.429" style="fill:rgb(18,4,14);fill-rule:nonzero;"/>
                    </g>
                </g>
            </g>
        </g>
    </g>
</svg>
