<?xml version="1.0" encoding="UTF-8" standalone="no"?>
<!DOCTYPE svg PUBLIC "-//W3C//DTD SVG 1.1//EN" "http://www.w3.org/Graphics/SVG/1.1/DTD/svg11.dtd">
<svg width="100%" height="100%" viewBox="0 0 340 350" version="1.1" xmlns="http://www.w3.org/2000/svg" xmlns:xlink="http://www.w3.org/1999/xlink" xml:space="preserve" xmlns:serif="http://www.serif.com/" style="fill-rule:evenodd;clip-rule:evenodd;stroke-linejoin:round;stroke-miterlimit:2;">
    <g transform="matrix(1,0,0,1,-1873,-291)">
        <g id="img_1-1" transform="matrix(1.05415,0,0,1.01906,-102.072,-6.12326)">
            <rect x="1873.61" y="291.566" width="322.534" height="343.453" style="fill:none;"/>
            <g transform="matrix(0.948631,0,0,0.981295,1848.7,-31.0119)">
                <g>
                    <g transform="matrix(1,0,0,-1,37.2932,829.464)">
                        <path d="M99.055,305.932C99.055,305.932 99.53,300.748 103.858,291.008C108.188,281.269 115.681,232.314 115.681,232.314C115.681,232.314 131.334,187.464 121.384,182.419C111.435,177.374 67.876,179.602 67.876,179.602L32.432,177.374C32.432,177.374 9.139,169.468 21.327,188.573C33.515,207.676 90.873,306.16 90.873,306.16L99.055,305.932Z" style="fill:white;fill-rule:nonzero;"/>
                    </g>
                    <g transform="matrix(1,0,0,-1,63.7937,856.258)">
                        <path d="M225.625,276.678L276.49,272.349L285.147,221.484C285.147,221.484 271.078,219.32 265.668,219.32C260.256,219.32 232.118,220.403 232.118,220.403L223.461,268.02L225.625,276.678Z" style="fill:white;fill-rule:nonzero;"/>
                    </g>
                    <g transform="matrix(1,0,0,-1,176.866,552.525)">
                        <rect x="0" y="0" width="53.029" height="55.194" style="fill:white;"/>
                    </g>
                    <g transform="matrix(1,0,0,-1,63.3154,853.554)">
                        <path d="M233.383,276.201C233.826,276.151 234.271,276.043 234.711,276.057C244.219,276.348 253.568,274.82 262.954,273.664C266.145,273.271 269.387,273.169 272.606,273.153C277.185,273.13 278.926,272.211 280.259,267.793C281.655,263.164 282.894,258.455 283.719,253.697C285.272,244.723 286.542,235.699 287.792,226.676C288.137,224.177 288.08,221.609 288.046,219.075C288.011,216.553 287.232,215.53 284.734,214.934C282.16,214.319 279.539,213.805 276.907,213.545C265.63,212.431 254.327,212.506 243.021,213.036C240.833,213.139 238.645,213.289 236.455,213.393C231.084,213.648 229.616,214.611 228.123,219.905C226.495,225.67 225.029,231.494 223.812,237.359C221.89,246.62 220.236,255.937 219.79,265.415C219.663,268.061 219.751,270.595 221.213,273.078C222.361,275.031 223.673,275.923 225.846,275.997C228.401,276.084 228.397,276.16 228.904,278.651C229.308,280.63 230.629,281.742 232.505,281.671C233.786,281.622 234.742,281.044 235.13,279.801C235.497,278.624 235.016,277.792 233.85,277.356C233.54,277.24 233.254,277.066 232.954,276.919C233.098,276.68 233.241,276.441 233.383,276.201M258.092,218.545C263.518,218.726 269.747,218.913 275.975,219.155C277.356,219.208 278.734,219.404 280.101,219.619C282.596,220.009 282.601,220.044 282.479,222.391C282.456,222.853 282.421,223.313 282.362,223.772C281.165,232.924 280.099,242.098 278.718,251.223C277.978,256.117 276.792,260.952 275.623,265.768C275.039,268.165 274.845,268.041 272.532,268.159C268.275,268.376 264.014,268.597 259.77,268.997C255.177,269.429 250.615,270.331 246.019,270.551C239.917,270.844 233.794,270.671 227.68,270.707C226.194,270.715 225.52,270.033 225.063,268.557C224.254,265.943 224.231,263.436 224.868,260.804C225.49,258.228 225.773,255.57 226.371,252.988C228.721,242.878 231.088,232.77 233.563,222.689C234.3,219.688 234.465,219.645 237.562,219.479C244.131,219.129 250.707,218.875 258.092,218.545" style="fill:rgb(18,4,14);fill-rule:nonzero;"/>
                    </g>
                    <g transform="matrix(1,0,0,-1,64.7769,854.606)">
                        <path d="M267.011,229.995C266.141,230.4 264.423,230.878 263.105,231.882C260.453,233.904 258.012,236.206 255.493,238.401C252.57,240.95 253.223,241.018 250.58,238.05C248.587,235.813 246.614,233.549 244.486,231.445C242.524,229.507 241.05,229.219 239.583,230.093C237.961,231.061 237.406,233.197 238.296,235.678C238.72,236.86 239.328,238 240.009,239.058C240.944,240.51 241.988,241.895 243.055,243.254C245.908,246.886 245.9,246.848 242.299,250.015C239.184,252.756 236.101,255.536 233.055,258.356C231.993,259.339 230.548,260.286 231.299,262.107C231.848,263.441 233.484,263.804 235.93,263.045C237.683,262.501 239.458,261.893 241.058,261.012C244.182,259.292 247.231,257.423 250.235,255.498C252.835,253.83 252.327,253.515 254.839,255.629C256.509,257.034 258.256,258.385 260.116,259.52C261.256,260.214 262.65,260.708 263.976,260.841C266.446,261.087 267.457,259.453 266.098,257.383C264.457,254.882 262.559,252.549 260.761,250.154C259.451,248.41 259.446,248.42 261.087,246.861C263.511,244.559 266.045,242.358 268.301,239.903C269.597,238.494 270.735,236.78 271.41,235C272.395,232.404 270.563,230.091 267.011,229.995" style="fill:rgb(212,223,86);fill-rule:nonzero;"/>
                    </g>
                    <g transform="matrix(1,0,0,-1,45.115,406.802)">
                        <path d="M221.545,22.081L215.943,1.072L236.952,19.281C236.952,19.281 264.498,18.579 268.933,22.081C273.368,25.582 282.239,60.131 276.87,65.267C271.501,70.403 205.204,73.438 174.623,71.804C144.042,70.17 82.882,69.703 81.014,67.135C79.147,64.568 76.113,26.749 81.715,25.114C87.318,23.482 192.132,20.68 199.835,20.448C207.538,20.214 221.545,22.081 221.545,22.081" style="fill:white;fill-rule:nonzero;"/>
                    </g>
                    <g transform="matrix(1,0,0,-1,44.7317,411.002)">
                        <path d="M219.027,20.929C218.106,21.023 217.653,21.096 217.201,21.111C200.932,21.631 184.663,22.156 168.392,22.657C156.275,23.031 144.157,23.356 132.04,23.732C117.499,24.182 102.959,24.642 88.421,25.155C86.355,25.228 84.279,25.506 82.247,25.895C79.784,26.367 78.098,27.897 77.428,30.344C76.972,32.008 76.566,33.708 76.377,35.418C75.166,46.484 75.194,57.544 76.803,68.576C77.502,73.364 78.47,74.504 83.282,75.225C88.64,76.026 94.034,76.712 99.437,77.054C109.229,77.675 119.035,78.181 128.843,78.423C159.899,79.188 190.959,79.217 222.013,78.377C234.817,78.032 247.614,77.26 260.403,76.493C263.832,76.288 267.274,75.606 270.618,74.772C276.531,73.297 279.925,69.366 280.463,63.27C280.735,60.176 280.774,57.032 280.57,53.933C280.116,47.013 279.078,40.167 277.306,33.448C277.072,32.556 276.79,31.676 276.529,30.791C274.958,25.491 271.522,22.453 265.959,21.705C256.891,20.484 247.84,19.52 238.768,21.593C237.597,21.86 236.966,21.471 236.251,20.437C231.569,13.666 225.863,7.783 219.93,2.114C219.515,1.718 219.05,1.366 218.574,1.041C217.364,0.212 216.055,-0.216 214.69,0.59C213.289,1.419 213.115,2.811 213.391,4.245C213.609,5.372 213.944,6.485 214.323,7.571C215.54,11.058 216.805,14.527 218.044,18.005C218.348,18.859 218.622,19.721 219.027,20.929M220.981,10.489C221.828,11.135 222.329,11.405 222.686,11.806C226.452,16.026 230.368,20.132 233.86,24.571C235.338,26.449 236.873,27.262 239.07,27.273C242.534,27.292 246.008,27.138 249.461,27.347C254.752,27.666 260.027,28.246 265.311,28.686C267.816,28.896 269.325,30.317 270.073,32.591C271.009,35.44 271.986,38.286 272.7,41.194C274.384,48.049 275.666,54.98 275.234,62.088C274.957,66.625 273.427,68.551 268.956,69.553C265.82,70.258 262.584,70.726 259.375,70.853C247.838,71.306 236.295,71.652 224.752,71.889C188.03,72.643 151.309,72.73 114.598,71.449C106.985,71.183 99.382,70.58 91.779,70.059C89.597,69.91 87.437,69.458 85.257,69.224C83.576,69.043 82.847,68.09 82.728,66.505C82.685,65.93 82.602,65.358 82.545,64.784C81.665,55.795 81.578,46.808 82.437,37.806C83.132,30.513 83.402,31.617 89.125,31.437C114.056,30.656 138.99,29.985 163.921,29.225C172.922,28.951 181.918,28.486 190.921,28.207C201.074,27.892 211.231,27.69 221.386,27.435C221.962,27.42 222.555,27.451 223.107,27.321C224.635,26.957 225.348,25.683 224.881,24.154C223.774,20.524 222.622,16.907 221.522,13.274C221.298,12.537 221.222,11.755 220.981,10.489" style="fill:rgb(18,4,14);fill-rule:nonzero;"/>
                    </g>
                    <g transform="matrix(1,0,0,-1,36.8347,819.602)">
                        <path d="M48.134,163.783C40.755,163.473 33.374,163.289 25.995,163.377C23.698,163.405 21.378,163.673 19.118,164.094C14.489,164.955 13.119,167.686 15.156,171.871C16.113,173.84 17.223,175.739 18.332,177.63C32.005,200.926 45.582,224.279 59.421,247.474C65.392,257.481 71.767,267.255 78.241,276.945C82.466,283.27 87.181,289.27 91.722,295.382C92.891,296.953 94.152,298.476 95.523,299.869C96.393,300.752 97.457,301.562 98.587,302.043C101.268,303.184 103.73,302.147 104.79,299.423C105.37,297.935 105.741,296.322 105.925,294.733C106.831,286.937 107.721,279.139 108.471,271.327C109.846,257.043 112.659,243.017 116.056,229.107C119.121,216.553 122.465,204.068 125.594,191.528C126.515,187.838 127.15,184.075 127.857,180.334C128.092,179.091 128.213,177.814 128.256,176.548C128.41,172.066 126.443,169.166 122.086,168.236C118.72,167.518 115.24,167.206 111.793,167.016C100.498,166.392 89.193,165.942 77.894,165.358C67.973,164.846 58.053,164.201 48.134,163.783M100.185,295.857C99.962,295.928 99.737,295.998 99.514,296.069C98.419,294.676 97.333,293.275 96.227,291.89C91.68,286.197 87.524,280.243 84.085,273.805C83.709,273.104 83.354,272.106 82.746,271.866C80.915,271.145 80.332,269.462 79.378,268.074C78.268,266.457 77.221,264.793 76.222,263.106C69.052,250.989 61.911,238.854 54.741,226.737C44.398,209.256 34.031,191.788 23.698,174.302C22.97,173.071 21.976,171.916 21.785,170.003C23.486,169.902 24.955,169.704 26.418,169.745C35.648,170.003 44.881,170.191 54.102,170.633C70.357,171.414 86.603,172.365 102.854,173.234C107.579,173.487 112.314,173.615 117.032,173.959C122.018,174.322 122.407,174.804 121.388,179.715C119.699,187.845 118.118,196.012 116.019,204.039C109.001,230.881 103.209,257.92 101.515,285.703C101.309,289.102 100.64,292.473 100.185,295.857" style="fill:rgb(18,4,14);fill-rule:nonzero;"/>
                    </g>
                    <g transform="matrix(1,0,0,-1,43.3574,804.05)">
                        <path d="M88.986,254.631C88.995,253.494 88.805,252.326 88.515,251.217C86.43,243.297 84.319,235.384 82.176,227.478C79.246,216.676 76.281,205.884 73.328,195.091C73.175,194.536 73.038,193.973 72.839,193.432C71.813,190.646 68.51,189.417 66.108,191.094C65.419,191.575 65.201,192.744 64.859,193.419C66.042,199.581 67.017,205.389 68.287,211.132C71.124,223.976 74.109,236.788 77.038,249.613C77.241,250.509 77.463,251.406 77.727,252.293C78.9,256.178 81.266,257.999 85.286,258.133C87.683,258.216 88.967,257.075 88.986,254.631" style="fill:rgb(212,223,86);fill-rule:nonzero;"/>
                    </g>
                    <g transform="matrix(1,0,0,-1,42.804,897.66)">
                        <path d="M65.095,259.187C64.144,259.789 62.713,260.197 62.184,261.121C60.738,263.646 59.98,266.443 61.107,269.363C61.913,271.452 63.399,272.841 65.716,272.951C68.062,273.062 69.585,271.721 70.579,269.728C72.263,266.355 71.139,262.331 67.94,260.384C67.175,259.917 66.275,259.674 65.095,259.187" style="fill:rgb(212,223,86);fill-rule:nonzero;"/>
                    </g>
                    <g transform="matrix(1,0,0,-1,35.2817,715.41)">
                        <path d="M258.217,124.365C258.099,111.814 256.925,99.524 255.328,87.267C254.969,84.52 254.635,81.768 254.406,79.008C253.564,68.878 249.271,60.162 243.293,52.196C240.892,48.996 237.3,47.526 233.417,47.028C231.496,46.781 229.458,46.777 227.558,47.127C218.91,48.718 210.483,51.007 202.552,54.986C191.578,60.492 181.264,67.036 171.313,74.186C168.314,76.341 165.345,78.542 162.379,80.743C158.756,83.433 154.996,85.876 150.85,87.716C143.932,90.788 138.993,95.825 135.504,102.572C131.394,110.519 128.133,118.744 126.127,127.446C123.737,137.826 120.312,147.85 116.24,157.68C114.256,162.468 112.256,167.247 111.84,172.552C111.724,174.018 110.559,175.472 109.665,176.787C108.599,178.356 107.676,179.91 107.895,181.885C108.04,183.187 107.378,184.031 106.462,184.842C91.456,198.092 77.879,212.728 64.796,227.843C63.67,229.143 62.347,230.293 61.016,231.39C42.302,246.811 25.895,264.444 11.042,283.556C9.064,286.101 7.218,288.784 5.619,291.58C1.23,299.25 1.201,307.229 4.667,315.206C5.566,317.273 6.872,319.384 8.538,320.856C14.068,325.742 20.294,329.357 27.891,330.031C33.748,330.551 39.07,328.785 44.234,326.359C48.472,324.369 51.935,321.335 55.169,317.984C59.978,313.004 65.003,308.229 69.703,303.15C75.972,296.373 82.068,289.433 88.148,282.485C99.779,269.191 111.4,255.888 122.909,242.49C127.042,237.68 130.814,232.564 134.796,227.622C136.968,224.926 137.233,222.393 135.696,219.048C133.491,214.252 132.049,209.097 130.392,204.06C129.833,202.363 130.194,201.892 131.943,201.911C135.523,201.947 139.172,202 142.424,203.695C144.409,204.73 146.204,204.328 148.105,203.824C149.398,203.481 150.007,202.524 150.092,201.286C150.17,200.14 150.061,198.982 150.04,197.828C149.945,192.716 151.558,188.29 155.387,184.803C159.607,180.963 164.409,180.831 168.855,184.427C171.713,186.74 173.63,189.743 174.868,193.166C176.778,198.45 176.947,204.02 177.425,209.534C177.454,209.869 177.447,210.272 177.289,210.548C175.665,213.386 177.258,215.367 179.05,217.295C181.309,219.725 184.129,221.278 187.23,222.317C195.814,225.195 204.46,225.17 213.137,222.737C215.579,222.053 218.017,221.349 220.469,220.699C228.713,218.511 234.862,213.754 238.983,206.209C247.598,190.441 253.251,173.749 255.755,155.921C257.237,145.376 258.073,134.818 258.217,124.365" style="fill:rgb(212,223,86);fill-rule:nonzero;"/>
                    </g>
                    <g transform="matrix(1,0,0,-1,59.2629,705.788)">
                        <path d="M284.348,138.626C274.918,127.607 262.624,122.09 248.334,120.921C221.689,118.736 201,137.226 192.822,154.56C189.667,161.247 188.465,168.033 188.323,175.208C188.193,181.686 188.558,188.112 189.787,194.506C194.297,218.028 213.018,235.765 236.695,238.61C245.455,239.664 253.975,238.43 262.116,234.924C278.993,227.652 289.707,214.895 295.238,197.565C297.506,190.464 298.181,185.604 298.231,176.239C298.772,162.411 293.796,149.659 284.348,138.626" style="fill:rgb(18,4,14);fill-rule:nonzero;"/>
                    </g>
                    <g transform="matrix(1,0,0,-1,61.3752,698.416)">
                        <path d="M269.131,165.676C269.107,162.077 267.671,160.289 263.826,159.817C259.613,159.295 255.543,159.942 251.426,160.275C243.04,160.949 234.66,161.73 226.039,162.488C220.822,161.984 215.436,161.523 210.062,160.922C206.559,160.534 204.601,161.915 204.693,165.408C204.85,171.418 205.709,177.35 207.433,183.136C207.632,183.792 207.928,184.438 208.292,185.015C208.976,186.097 209.891,186.558 211.235,186.092C212.298,185.723 213.43,185.381 214.539,185.353C228.367,185.03 242.19,183.935 256.032,184.984C258.675,185.187 261.322,185.408 263.965,185.584C267.717,185.829 269.066,184.692 269.135,180.904C269.223,175.831 269.163,170.753 269.131,165.676" style="fill:white;fill-rule:nonzero;"/>
                    </g>
                    <g transform="matrix(1,0,0,-1,36.4038,675.191)">
                        <path d="M109.795,165.237C109.901,140.473 92.986,117.507 64.171,112.895C52.944,111.098 42.308,112.849 32.472,118.647C14.712,129.122 6.821,149.81 12.952,169.496C13.391,170.92 13.705,172.398 13.921,173.873C16.985,194.431 35.203,213.786 56.52,215.892C73.711,217.593 87.78,211.397 98.54,197.99C106.172,188.477 109.771,177.434 109.795,165.237" style="fill:rgb(18,4,14);fill-rule:nonzero;"/>
                    </g>
                    <g transform="matrix(1,0,0,-1,38.7087,667.55)">
                        <path d="M74.257,150.818C70.801,150.661 67.336,150.781 63.87,150.781C54.376,150.476 44.983,149.492 35.799,146.96C35.245,146.803 34.671,146.702 34.103,146.614C31.068,146.143 29.243,147.238 29.03,150.264C28.725,154.514 28.748,158.797 28.854,163.062C28.909,165.229 29.469,165.519 31.622,165.718C32.536,165.802 33.466,165.879 34.343,166.124C41.509,168.135 48.855,168.773 56.242,169.202C60.854,169.47 65.45,169.913 70.053,170.279C71.088,170.358 72.122,170.5 73.157,170.519C75.864,170.57 76.719,169.978 77.173,167.298C77.805,163.543 78.359,159.768 78.738,155.984C79.076,152.569 77.69,150.975 74.257,150.818" style="fill:white;fill-rule:nonzero;"/>
                    </g>
                    <g transform="matrix(1,0,0,-1,47.1628,389.878)">
                        <path d="M112.353,20.516C114.939,18.784 117.364,18.641 119.764,18.742C126.763,19.039 133.388,21.001 139.881,23.494C140.954,23.904 141.607,24.552 141.727,25.731C142.351,31.844 150.413,37.74 157.49,38.157C158.393,38.21 159.36,38.113 160.216,37.838C162.277,37.175 163.316,35.135 162.429,33.154C161.834,31.827 160.954,30.464 159.838,29.567C157.333,27.548 154.614,25.793 151.958,23.967C151.031,23.329 150.034,22.794 148.727,22.006C150.531,20.736 152.225,20.649 153.903,20.693C160.084,20.857 165.974,22.446 171.776,24.449C172.792,24.8 173.118,25.41 173.23,26.479C174.158,35.388 182.157,42.491 191.102,42.429C191.447,42.427 191.795,42.407 192.138,42.369C194.529,42.099 196.708,41.422 197.763,38.986C198.845,36.49 197.667,34.474 196.133,32.664C193.478,29.533 190.02,27.422 186.521,25.387C185.464,24.771 184.39,24.187 183.457,22.953C184.424,22.822 185.386,22.616 186.356,22.571C190.198,22.391 193.931,23.075 197.651,23.962C199.191,24.329 199.914,25.048 200.274,26.663C201.417,31.788 204.54,35.578 209.036,38.14C210.594,39.029 212.451,39.679 214.228,39.843C218.714,40.258 221.567,36.335 220.092,32.06C219.35,29.914 217.884,28.284 216.169,26.883C215.01,25.937 213.777,25.072 212.522,24.257C211.277,23.448 209.962,22.748 208.591,21.95C210.925,20.889 212.581,20.775 214.781,21.932C216.178,22.666 217.341,23.84 218.645,24.766C218.97,24.996 219.437,25.029 219.838,25.153C219.901,24.741 220.041,24.321 220.001,23.92C219.968,23.599 219.733,23.288 219.553,22.993C217.011,18.83 213.26,16.615 208.428,16.451C206.989,16.402 205.124,16.573 204.157,17.433C201.838,19.495 199.576,18.852 197.076,18.262C192.221,17.118 187.303,16.434 182.34,17.556C180.894,17.883 179.329,18.249 178.152,19.072C176.378,20.314 174.858,20.029 173.01,19.377C167.23,17.339 161.328,15.757 155.143,15.572C151.133,15.453 147.275,15.912 144.146,18.768C143.147,19.679 142.242,19.161 141.265,18.849C137.533,17.656 133.833,16.347 130.052,15.332C125.573,14.13 120.989,13.624 116.336,14.107C113.512,14.401 110.851,15.169 108.816,17.227C107.715,18.341 106.727,18.119 105.4,17.845C103.166,17.382 100.86,17.109 98.58,17.078C96.937,17.056 95.427,17.833 94.56,19.381C94.369,19.723 94.326,20.338 94.515,20.642C94.664,20.885 95.397,21.053 95.654,20.897C97.769,19.616 99.909,20.245 102.044,20.714C104.562,21.267 106.053,22.219 106.437,25.391C107.117,31.02 110.727,35.015 115.924,37.28C117.428,37.936 119.301,38.153 120.946,37.985C123.521,37.722 125.004,35.481 124.355,32.959C123.966,31.445 123.259,29.829 122.212,28.709C120.18,26.532 117.836,24.643 115.565,22.701C114.704,21.966 113.688,21.414 112.353,20.516M192.52,36.964C185.928,37.579 179.523,33.079 179.153,27.811C184.2,29.254 190.492,33.493 192.52,36.964M111.393,25.56C115.182,27.072 118.59,30.383 119.487,33.425C115.429,32.922 112.438,30.015 111.393,25.56M206.619,27.648C211.525,29.532 213.723,31.435 214.368,34.212C210.824,33.39 208.604,31.173 206.619,27.648M147.499,27.519C151.936,29.002 155.204,31.261 156.421,33.553C152.91,32.563 149.94,31.021 147.499,27.519" style="fill:rgb(212,223,86);fill-rule:nonzero;"/>
                    </g>
                    <g transform="matrix(1,0,0,-1,63.2944,379.563)">
                        <path d="M221.547,10.559C220.004,10.565 219.235,11.572 219.739,13.088C219.988,13.836 220.426,14.546 220.885,15.199C224.866,20.839 228.854,26.476 232.884,32.083C233.544,33.002 234.302,33.943 235.224,34.564C236.714,35.566 238.363,34.613 238.266,32.808C238.213,31.836 237.845,30.761 237.294,29.956C233.331,24.163 229.269,18.437 225.276,12.664C224.351,11.328 223.186,10.563 221.547,10.559" style="fill:rgb(212,223,86);fill-rule:nonzero;"/>
                    </g>
                    <g transform="matrix(-0.997878,-0.0651066,0.0651066,-0.997878,495.108,430.327)">
                        <path d="M217.734,36.979C219.124,36.86 220.205,37.725 220.401,39.112C220.641,40.823 219.389,42.411 217.734,42.493C216.273,42.564 214.992,41.411 214.956,39.993C214.918,38.494 216.193,37.111 217.734,36.979" style="fill:rgb(212,223,86);fill-rule:nonzero;"/>
                    </g>
                    <g transform="matrix(1,0,0,-1,44.6624,616.918)">
                        <path d="M89.871,184.342C89.404,185.042 72.13,167.301 75.398,153.528C78.666,139.754 84.502,130.884 84.502,130.884C84.502,130.884 94.073,118.979 97.108,115.244C100.142,111.508 105.044,99.37 111.114,98.202C117.184,97.035 127.689,96.802 130.957,99.136C134.225,101.471 138.724,105.332 138.724,105.332L150.565,88.398L171.341,118.512L168.073,155.162L169.241,173.371C169.241,173.371 158.036,179.206 157.335,179.439C156.635,179.673 89.871,184.342 89.871,184.342" style="fill:white;fill-rule:nonzero;"/>
                    </g>
                    <g transform="matrix(1,0,0,-1,48.1338,483.257)">
                        <path d="M106.243,87.331L135.656,85.23C135.656,85.23 140.091,90.833 142.659,92C145.228,93.167 149.663,93.633 149.663,93.633C149.663,93.633 157.366,102.271 162.969,100.403C168.571,98.536 169.271,95.502 169.271,95.502C169.271,95.502 175.575,97.836 177.675,93.633C179.776,89.432 179.309,87.565 179.309,87.565C179.309,87.565 184.445,85.23 184.445,82.195C184.445,79.16 183.978,77.527 183.978,77.527C183.978,77.527 191.448,74.725 189.58,68.655C187.713,62.587 187.479,59.552 183.744,57.218C180.01,54.883 178.609,54.883 178.609,54.883C178.609,54.883 173.474,45.078 167.17,44.145C160.868,43.211 151.764,44.145 148.728,47.88C145.694,51.615 142.659,54.883 142.659,54.883L106.243,58.385C106.243,58.385 101.106,72.157 102.041,77.76C102.975,83.362 106.243,87.331 106.243,87.331" style="fill:white;fill-rule:nonzero;"/>
                    </g>
                    <g transform="matrix(1,0,0,-1,41.9802,578.811)">
                        <path d="M193.17,171.883C192.19,172.622 192.006,173.366 192.219,174.53C192.704,177.181 192.117,179.566 190.051,181.479C187.704,183.654 187.723,183.673 186.711,186.566C185.468,190.128 182.179,192.345 178.132,192.383C177.434,192.392 176.695,192.096 176.214,193.065C174.736,196.046 172.028,196.946 168.979,196.804C164.535,196.595 160.538,195.099 157.068,192.226C156.32,191.601 155.313,191.153 154.356,190.95C149.121,189.86 144.372,188.003 141.35,183.23C140.842,182.431 140.228,182.468 139.424,182.574C134.679,183.216 129.939,183.955 125.166,184.38C106.367,186.058 87.553,187.632 68.745,189.25C66.217,189.467 63.686,189.712 61.154,189.888C60.123,189.957 59.075,189.735 58.922,188.482C58.746,187.092 59.814,186.778 60.905,186.598C61.13,186.561 61.362,186.542 61.593,186.519C64.236,186.279 66.879,186.038 69.526,185.808C93.042,183.738 116.633,182.468 140.034,179.178C141.646,178.951 142.875,179.413 143.697,180.841C145.772,184.459 149.223,186.099 152.975,187.323C153.885,187.623 154.301,187.513 154.439,186.422C154.721,184.228 155.867,182.44 157.9,181.567C159.245,180.989 159.896,180.388 159.757,178.845C159.688,178.051 159.969,177.02 160.477,176.419C161.411,175.311 162.779,174.567 163.689,173.445C164.594,172.322 164.992,170.77 165.948,169.706C166.586,168.99 166.692,168.505 166.581,167.637C166.373,165.997 165.805,164.065 166.42,162.725C167.557,160.244 166.683,159.301 164.687,158.069C162.386,156.641 162.201,154.681 162.978,152.196C163.813,149.502 165.768,148.726 168.198,148.431C168.915,148.343 169.672,148.472 169.986,147.451C170.107,147.053 170.915,146.527 171.261,146.62C171.732,146.744 172.093,147.386 172.444,147.844C172.736,148.223 172.864,148.755 173.211,149.05C173.919,149.66 174.551,150.283 174.019,151.244C173.484,152.219 172.592,151.813 171.719,151.738C170.245,151.614 168.749,151.674 167.27,151.775C166.23,151.845 165.749,152.695 165.764,153.592C165.773,154.248 166.045,155.098 166.512,155.513C170.809,159.358 178.053,158.281 181.093,153.416C182.295,151.489 182.396,149.248 181.717,147.336C181.209,145.908 179.744,144.568 178.372,143.741C174.967,141.704 171.178,140.613 167.186,140.494C166.364,140.47 165.495,140.835 164.71,141.168C160.274,143.035 156.408,145.663 153.363,149.461C152.832,150.122 151.958,150.759 151.154,150.898C149.246,151.226 147.26,151.111 145.347,151.415C136.162,152.899 126.973,154.234 117.631,154.058C106.663,153.85 95.694,153.729 84.726,153.486C80.919,153.398 77.116,153.074 73.314,152.802C71.152,152.649 70.972,152.395 70.491,150.288C70.316,149.539 70.528,149.331 71.217,149.401C71.734,149.457 72.252,149.517 72.769,149.558C76.04,149.799 79.306,150.034 82.578,150.274C82.587,150.113 82.596,149.951 82.606,149.789C81.902,149.563 81.191,149.345 80.494,149.101C69.604,145.243 61.399,138.304 56.298,127.866C54.56,124.318 53.873,120.539 54.288,116.589C54.796,111.71 57.148,108.101 61.685,106.105C63.367,105.37 65.141,104.807 66.919,104.326C68.921,103.786 70.99,103.485 73,102.973C75.55,102.317 77.679,101.083 78.849,98.529C79.112,97.96 79.763,97.544 80.281,97.114C80.928,96.583 81.746,96.218 82.282,95.599C84.5,93.007 86.68,90.393 89.821,88.826C90.104,88.687 90.321,88.359 90.51,88.078C94.59,82.053 98.674,76.037 102.712,69.99C103.35,69.037 103.928,67.999 104.274,66.917C105.526,63.027 108.187,60.615 111.929,59.257C118.836,56.749 125.822,56.572 132.554,59.479C135.649,60.815 138.259,60.694 141.083,59.34C141.29,59.243 141.508,59.155 141.729,59.095C145.236,58.102 147.865,56.078 149.468,52.738C150.064,51.495 150.882,50.354 151.631,49.19C152.152,48.377 152.906,47.942 153.839,48.432C154.79,48.931 154.754,49.823 154.453,50.7C154.305,51.135 154.088,51.56 153.83,51.934C150.77,56.342 147.768,60.786 144.589,65.107C143.748,66.243 143.781,66.783 144.71,67.772C151.081,74.512 154.486,82.515 154.633,91.833C154.642,92.369 154.26,92.915 154.055,93.455C153.714,93.021 153.159,92.623 153.063,92.144C152.254,88.087 150.887,84.219 148.876,80.629C144.959,73.616 140.136,67.5 132.526,64.052C126.362,61.262 120.176,61.073 113.814,63.151C111.209,64.007 109.246,65.656 107.942,67.994C103.877,75.284 98.845,81.9 93.805,88.512C93.523,88.881 93.176,89.219 92.991,89.625C92.899,89.833 93.019,90.36 93.176,90.429C94.987,91.215 96.821,91.941 98.947,92.804C98.702,91.871 98.494,91.385 98.471,90.886C98.453,90.54 98.586,90.014 98.826,89.879C99.058,89.749 99.607,89.921 99.857,90.138C101.682,91.727 103.475,93.354 105.258,94.99C106.381,96.019 106.283,96.454 104.963,97.11C100.647,99.244 95.989,100.021 91.282,100.589C90.538,100.677 89.766,100.778 89.041,100.668C88.63,100.602 88.038,100.16 87.978,99.803C87.914,99.438 88.297,98.862 88.648,98.588C89.037,98.288 89.6,98.182 90.104,98.076C92.358,97.586 94.622,97.129 96.877,96.643C97.435,96.524 97.982,96.33 98.877,96.065C96.401,95.109 94.289,94.462 92.344,93.488C90.912,92.771 90.205,93.22 89.355,94.324C86.103,98.566 83.986,103.306 82.716,108.485C82.088,111.049 81.94,113.581 82.291,116.201C83.617,126.129 87.683,135 92.607,143.565C93.26,144.693 93.656,144.166 94.243,143.593C99.636,138.34 105.849,134.288 112.599,131.021C114.05,130.319 115.52,129.641 117.006,129.008C117.719,128.703 117.945,128.444 117.602,127.608C115.648,122.859 113.763,118.081 111.893,113.3C110.742,110.366 110.756,110.342 108.663,112.643C107.646,113.757 106.851,114.934 104.963,113.844C103.654,113.082 103.049,112.43 103.95,111.053C105.438,108.79 107.12,106.651 108.769,104.498C108.954,104.253 109.54,104.068 109.785,104.183C110.017,104.295 110.155,104.84 110.142,105.186C110.123,105.657 109.919,106.123 109.754,106.728C111.569,106.123 112.659,106.845 113.381,108.207C113.999,109.381 114.571,110.582 115.048,111.821C116.781,116.284 118.462,120.775 120.172,125.246C121.086,127.65 120.699,127.436 122.995,126.619C123.596,126.402 124.183,126.133 124.797,125.999C126.044,125.732 125.993,125.27 125.373,124.257C122.394,119.389 119.501,114.459 116.605,109.543C116.286,109.002 115.999,108.406 115.871,107.796C115.662,106.803 116.161,105.851 117.118,105.902C118.699,105.986 120.44,106.147 121.788,106.872C124.006,108.068 125.984,109.723 128.022,111.238C128.382,111.501 128.844,112.251 128.728,112.421C128.053,113.437 128.848,113.761 129.431,114.144C131.943,115.775 134.495,117.36 136.994,119.014C137.405,119.287 137.645,119.823 137.959,120.239C137.409,120.322 136.762,120.636 136.319,120.451C133.02,119.069 129.759,117.61 126.501,116.135C125.753,115.799 125.064,115.322 124.348,114.912C125.933,117.757 127.711,120.373 129.38,123.056C129.971,124.004 130.558,124.23 131.634,123.972C134.046,123.394 136.476,122.862 138.93,122.526C142.427,122.04 145.948,121.782 149.412,122.793C150.147,123.005 150.808,123.643 151.602,122.83C151.746,122.683 152.651,122.923 152.73,123.144C153.099,124.254 153.525,125.413 153.547,126.564C153.594,129.442 153.848,132.273 155.649,134.607C158.982,138.918 164.243,138.839 167.177,135.37C170.892,130.966 172.601,123.681 167.815,117.424C165.74,114.717 163.347,112.291 160.316,110.591C159.983,110.406 159.822,109.922 159.581,109.58C159.956,109.404 160.321,109.187 160.713,109.072C160.954,109.002 161.241,109.095 161.661,109.123C161.43,108.476 161.282,107.991 161.084,107.529C159.24,103.227 158.954,98.82 160.173,94.314C160.852,91.806 161.619,89.32 162.201,86.793C163.328,81.859 163.199,77.072 160.441,72.573C159.577,71.158 158.931,69.573 158.39,67.999C156.532,62.565 156.426,57.113 158.662,51.753C160.183,48.104 162.881,45.79 166.798,44.902C170.083,44.158 172.929,45.401 175.747,46.746C176.228,46.976 176.621,47.697 176.774,48.265C178.233,53.57 181.236,57.991 184.637,62.182C185.768,63.572 186.914,64.948 188.134,66.257C189.461,67.684 189.775,69.246 189.095,71.048C188.911,71.533 188.781,72.037 188.605,72.526C183.293,86.978 177.979,101.43 172.694,115.89C172.564,116.247 172.67,116.792 172.86,117.148C176.584,124.096 175.42,130.699 171.529,137.176C171.742,137.236 172.01,137.324 172.288,137.393C175.84,138.284 179.218,139.565 182.244,141.695C184.388,143.196 185.423,145.344 185.717,147.802C185.856,148.971 186.291,149.47 187.298,149.923C192.348,152.205 195.568,155.985 196.824,161.478C197.809,165.794 196.658,169.244 193.17,171.883M161.365,184.713C160.83,183.978 160.117,183.918 159.577,184.404C158.847,185.064 158.122,185.868 157.752,186.76C157.295,187.868 158.426,188.367 159.031,189.12C161.749,192.507 165.57,193.163 169.885,193.75C170.703,193.431 171.853,193.08 172.902,192.535C173.729,192.1 173.626,191.661 172.689,191.338C170.998,190.765 169.298,190.179 167.676,189.434C165.246,188.321 162.987,186.917 161.365,184.713M164.609,177.958C164.475,177.598 164.29,177.26 164.128,176.914C163.916,176.927 163.707,176.942 163.495,176.956C163.315,177.861 162.881,178.804 163.005,179.663C163.268,181.488 164.031,183.174 165.565,184.334C169.155,187.041 173.266,188.482 177.679,188.996C180.576,189.334 182.627,187.901 183.297,185.48C181.061,185.72 178.796,186.131 176.529,186.168C170.186,186.274 166.813,183.881 164.609,177.958M167.944,172.501C167.69,172.918 167.307,173.403 167.343,173.832C167.824,178.965 170.31,183.018 176.796,182.625C180.525,182.666 183.958,181.645 187.122,179.691C188.536,178.817 189.377,177.611 189.428,175.883C189.461,174.812 189.179,174.543 188.152,175.033C185.348,176.36 182.377,176.988 179.273,176.896C175.295,176.784 171.672,175.713 168.738,172.849C168.535,172.649 167.963,172.465 167.944,172.501M194.016,163.719C193.563,158.59 190.865,155.06 186.439,152.681C185.783,152.325 185.441,152.4 185.168,153.153C183.81,156.853 181.167,159.288 177.522,160.65C176.441,161.058 176.63,161.4 177.341,162.005C179.286,163.654 180.206,163.742 182.359,162.416C183.029,162.005 183.741,161.312 184.461,162.259C185.505,163.641 185.533,165.336 184.397,165.932C183.477,166.417 182.308,166.759 181.287,166.675C178.205,166.412 175.6,165.054 174.029,162.301C173.396,161.187 172.491,160.997 171.594,161.215C170.873,161.385 170.037,162.028 169.709,162.693C168.438,165.262 170.365,170.607 172.911,171.951C175.138,173.125 177.337,173.653 180.904,173.611C184.646,173.467 188.799,171.892 192.237,168.551C193.614,167.211 194.191,165.659 194.016,163.719" style="fill:rgb(18,4,14);fill-rule:nonzero;"/>
                    </g>
                    <g transform="matrix(1,0,0,-1,53.8721,577.883)">
                        <path d="M165.634,107.489C165.634,107.489 145.558,75.041 146.492,74.106C147.425,73.173 173.103,86.712 173.103,86.712C173.103,86.712 184.776,80.877 201.817,80.176C218.858,79.476 269.981,83.678 274.65,88.58C279.318,93.482 279.318,116.593 278.618,128.732C277.918,140.87 271.615,158.145 266.713,158.845C261.811,159.546 219.324,163.048 199.249,160.012C179.173,156.978 163.533,154.411 163.299,144.372C163.065,134.334 165.634,107.489 165.634,107.489" style="fill:white;fill-rule:nonzero;"/>
                    </g>
                    <g transform="matrix(1,0,0,-1,60.5259,551.185)">
                        <path d="M225.834,120.112C225.39,119.054 224.799,118.047 224.207,117.058C218.151,106.972 211.844,97.025 206.795,86.366C205.671,84.001 203.638,83.087 201.223,82.86C199.042,82.652 197.9,83.65 198.127,85.867C198.529,89.873 198.986,93.898 199.781,97.843C201.172,104.736 202.835,111.579 204.391,118.44C204.567,119.225 204.798,120.001 205.034,120.772C205.74,123.088 207.303,124.529 209.677,124.903C212.288,125.319 214.93,125.564 217.559,125.883C217.568,125.799 217.573,125.712 217.582,125.629C219.31,125.629 221.061,125.805 222.761,125.591C225.903,125.194 227.053,123.059 225.834,120.112" style="fill:rgb(212,223,86);fill-rule:nonzero;"/>
                    </g>
                    <g transform="matrix(0.105219,0.994449,-0.994449,0.105219,370.417,266.384)">
                        <path d="M200.809,125.988C203.923,126.197 206.467,129.24 206.182,132.42C205.927,135.227 203.548,137.298 200.809,137.092C198.007,136.879 194.871,133.407 195.078,130.748C195.292,127.936 197.879,125.789 200.809,125.988" style="fill:rgb(212,223,86);fill-rule:nonzero;"/>
                    </g>
                    <g transform="matrix(1,0,0,-1,53.5249,578.966)">
                        <path d="M218.904,78.097C207.114,78.428 195.345,78.706 183.67,80.467C181.624,80.775 179.597,81.268 177.6,81.821C175.674,82.354 173.907,83.325 172.812,85.041C172.02,86.284 171.345,86.475 170.068,85.723C164.601,82.502 159.077,79.376 153.588,76.192C152.192,75.381 150.854,74.469 149.477,73.624C148.888,73.262 148.277,72.935 147.658,72.623C146.659,72.121 145.648,72.04 144.733,72.785C143.699,73.63 143.54,74.784 144.04,75.921C144.733,77.498 145.457,79.09 146.397,80.525C151.075,87.671 155.626,94.915 160.642,101.817C163.104,105.206 163.74,108.442 163.055,112.453C161.279,122.855 160.939,133.34 162.161,143.846C162.333,145.333 162.565,146.82 162.871,148.285C163.464,151.131 165.022,153.321 167.449,154.95C170.554,157.031 173.968,158.398 177.507,159.492C186.038,162.128 194.807,163.524 203.675,164.302C215.996,165.383 228.345,165.608 240.696,165.015C248.072,164.66 255.445,164.118 262.687,162.519C263.363,162.37 264.037,162.214 264.711,162.056C269.929,160.829 273.659,157.826 275.438,152.717C277.219,147.601 279.065,142.488 280.461,137.261C283.88,124.463 284.237,111.578 281.566,98.522C280.041,91.067 276.237,86.432 268.862,84.204C260.195,81.585 251.425,79.701 242.419,79.092C234.593,78.564 226.743,78.415 218.904,78.097M151.476,80.863C151.602,80.688 151.728,80.514 151.854,80.339C152.725,80.828 153.591,81.325 154.466,81.804C159.423,84.518 164.37,87.25 169.343,89.932C171.924,91.324 174.437,91.324 176.677,89.198C178.365,87.597 180.481,87.042 182.67,86.791C188.053,86.17 193.436,85.398 198.84,85.132C215.323,84.322 231.818,83.685 248.286,85.405C255.534,86.163 262.615,87.707 269.522,90.098C272.916,91.272 275.037,93.411 275.687,96.879C276.516,101.294 277.479,105.714 277.861,110.176C279.04,123.896 276.141,137.001 271.479,149.826C269.851,154.303 266.948,156.985 262.226,157.52C256.159,158.209 250.092,159.09 244.003,159.336C229.808,159.911 215.62,159.437 201.482,157.983C192.745,157.084 184.098,155.636 175.828,152.532C169.188,150.039 168.391,148.722 167.779,141.674C166.935,131.961 167.456,122.317 168.712,112.676C168.867,111.489 168.834,110.052 168.303,109.038C165.461,103.631 162.557,98.25 159.433,93.002C156.961,88.849 154.141,84.902 151.476,80.863" style="fill:rgb(18,4,14);fill-rule:nonzero;"/>
                    </g>
                    <g transform="matrix(1,0,0,-1,35.3767,477.143)">
                        <path d="M59.238,45.967C49.336,45.876 39.08,47.885 29.326,49.589C25.477,50.26 21.635,51.226 17.95,52.514C11.997,54.596 7.562,58.693 4.556,64.205C1.171,70.414 3.194,78.994 9.312,83.73C11.552,85.464 15.257,89.078 17.92,90.088C25.808,93.078 34.06,92.746 42.43,93.356C58.538,93.122 70.723,92.315 85.219,89.965C95.524,88.295 106.4,87.106 116.664,85.185C119.291,84.694 121.776,84.208 124.367,83.551C124.851,83.428 124.978,81.961 125.073,81.546C125.166,81.141 124.678,80.581 124.39,80.124C124.278,79.948 124.027,79.84 123.819,79.746C120.055,78.054 118.701,74.924 118.31,71.027C117.665,64.619 118.799,58.737 122.761,53.528C123.173,52.988 123.539,52.356 123.721,51.709C124.191,50.039 66.033,46.366 59.238,45.967" style="fill:rgb(212,223,86);fill-rule:nonzero;"/>
                    </g>
                    <g transform="matrix(1,0,0,-1,47.6223,839.376)">
                        <path d="M136.867,234.054C136.867,234.054 131.731,257.631 130.564,262.534C129.396,267.435 124.028,288.446 119.592,291.947C115.157,295.449 110.722,294.048 110.022,293.581C109.321,293.115 107.687,292.647 107.687,292.647C107.687,292.647 102.318,295.449 100.217,292.414C98.116,289.379 99.283,285.41 99.283,285.41C99.283,285.41 97.416,282.376 98.116,279.341C98.817,276.307 99.049,272.338 99.049,272.338C99.049,272.338 103.952,248.061 105.353,242.225C106.754,236.389 110.955,202.306 117.492,198.805C124.028,195.303 148.072,187.6 148.072,187.6C148.072,187.6 156.475,198.337 157.176,207.441C157.876,216.546 152.975,228.685 152.975,228.685L136.867,234.054Z" style="fill:white;fill-rule:nonzero;"/>
                    </g>
                    <g transform="matrix(1,0,0,-1,47.3899,845.137)">
                        <path d="M101.332,279.508C100.797,275.24 100.883,271.459 101.868,267.736C102.637,264.836 103.453,261.944 104.374,259.091C106.546,252.356 107.584,245.407 108.601,238.434C109.617,231.469 110.883,224.539 112.14,217.611C113.503,210.094 118.666,205.981 125.335,203.366C128.498,202.126 131.838,201.305 134.917,199.895C143.786,195.834 153.057,193.09 162.539,190.957C162.876,190.882 163.215,190.806 163.544,190.701C164.625,190.355 165.2,189.624 164.995,188.48C164.792,187.345 163.962,186.851 162.877,186.812C162.426,186.797 161.964,186.929 161.516,187.034C151.258,189.421 141.264,192.571 131.702,197.051C129.471,198.096 127.017,198.654 124.687,199.497C116.43,202.488 110.245,207.619 108.547,216.617C106.781,225.969 105.724,235.456 103.913,244.797C102.643,251.349 100.762,257.796 98.901,264.217C97.41,269.359 97.023,274.52 97.533,279.804C97.584,280.334 97.423,280.918 97.237,281.433C96.089,284.617 95.535,287.779 97.211,290.982C97.427,291.395 97.336,291.972 97.381,292.473C97.529,294.131 97.477,295.836 97.865,297.434C98.523,300.139 100.435,301.303 103.185,300.98C103.814,300.907 104.459,300.83 105.054,300.628C106.333,300.193 107.544,299.746 108.513,301.228C108.689,301.498 109.231,301.605 109.618,301.647C114.951,302.216 120.626,301.322 123.969,294.925C126.773,289.557 128.917,283.863 130.014,277.844C130.117,277.281 130.228,276.704 130.444,276.178C134.859,265.374 136.802,254.03 137.71,242.477C137.817,241.129 138.304,240.629 139.487,240.213C152.384,235.668 165.262,231.069 178.142,226.473C178.622,226.302 179.208,226.109 179.476,225.733C179.805,225.275 180.102,224.528 179.947,224.062C179.792,223.597 179.1,223.134 178.569,223.023C177.996,222.901 177.312,223.111 176.72,223.309C173.82,224.279 170.919,225.251 168.047,226.298C158.994,229.599 149.955,232.942 140.902,236.243C140.323,236.454 139.665,236.463 139.039,236.534C136.301,236.846 135.472,238.042 135.243,240.785C135.024,243.414 134.376,246.018 133.798,248.606C132.337,255.135 130.881,261.665 129.27,268.158C128.733,270.325 127.724,272.375 126.946,274.485C126.688,275.187 126.372,275.891 126.27,276.621C125.469,282.303 123.174,287.489 120.858,292.642C119.105,296.546 115.702,298.291 111.281,297.864C111.489,297.554 111.654,297.302 111.826,297.056C113.468,294.704 115.53,292.537 116.671,289.962C119.332,283.959 121.539,277.755 123.958,271.643C124.332,270.695 124.922,269.833 125.286,268.882C125.474,268.397 125.57,267.712 125.36,267.292C125.196,266.965 124.376,266.645 124.051,266.787C123.199,267.16 122.254,267.635 121.723,268.349C121.054,269.248 120.736,270.416 120.308,271.485C118.147,276.896 116.099,282.355 113.797,287.706C112.897,289.795 111.567,291.74 110.199,293.577C108.54,295.807 106.104,296.847 103.396,297.351C102.096,297.591 101.387,297.211 101.189,295.905C101.136,295.563 101.065,295.224 101,294.884C100.722,293.436 100.955,292.514 102.67,291.977C105.639,291.048 107.73,288.832 109.488,286.332C112.603,281.905 114.849,277.046 116.566,271.93C117.465,269.25 118.36,266.568 119.232,263.879C119.445,263.223 119.713,262.531 119.685,261.868C119.657,261.192 119.294,260.531 119.079,259.863C118.422,260.224 117.647,260.468 117.142,260.978C116.636,261.488 116.324,262.237 116.059,262.93C115.338,264.814 114.628,266.707 114.015,268.628C112.307,273.989 110.164,279.142 106.973,283.81C105.622,285.786 104.059,287.546 101.811,288.55C100.312,289.222 99.97,289.049 99.834,287.433C99.771,286.69 99.852,285.936 99.869,285.187C99.898,283.916 100.23,283.157 101.787,282.914C102.994,282.726 104.234,281.892 105.177,281.034C107.298,279.106 108.789,276.697 109.708,273.962C111.826,267.655 113.499,261.24 114.227,254.613C114.32,253.762 114.019,252.803 113.673,251.992C113.493,251.574 112.817,251.163 112.35,251.145C112.027,251.131 111.555,251.742 111.368,252.17C111.094,252.794 111.021,253.504 110.86,254.177C109.495,259.838 108.311,265.551 106.678,271.134C105.987,273.498 104.392,275.609 103.127,277.787C102.802,278.345 102.167,278.724 101.332,279.508" style="fill:rgb(18,4,14);fill-rule:nonzero;"/>
                    </g>
                    <g transform="matrix(1,0,0,-1,52.8726,915.697)">
                        <path d="M212.24,243.926C209.417,243.386 206.524,243.224 204.986,243.043C198.25,243.206 192.936,243.885 187.711,245.202C180.222,247.081 172.427,247.738 165.225,250.75C158.684,253.49 152.16,256.271 145.681,259.159C143.853,259.972 142.143,261.118 140.512,262.296C138.303,263.895 138.114,265.179 139.967,267.175C143.155,270.621 144.624,274.872 145.701,279.233C147.558,286.783 147.105,294.356 145.211,301.853C144.813,303.42 144.295,304.954 143.811,306.492C143.215,308.373 143.875,309.288 145.811,308.774C148.981,307.929 152.09,306.838 155.194,305.772C167.804,301.462 180.162,296.444 193.034,292.895C198.033,291.519 202.893,289.647 207.855,288.141C212.586,286.709 216.745,284.329 220.404,281.059C224.585,277.321 227.26,272.683 228.235,267.142C230.305,255.356 224.002,246.176 212.24,243.926" style="fill:rgb(212,223,86);fill-rule:nonzero;"/>
                    </g>
                    <g transform="matrix(1,0,0,-1,46.5986,610.722)">
                        <path d="M105.563,122.808C105.563,122.52 105.653,122.189 105.541,121.955C105.388,121.635 105.091,121.179 104.838,121.166C104.564,121.154 104.182,121.535 104.008,121.838C103.815,122.171 103.809,122.61 103.716,123.002C101.99,130.336 97.718,135.695 91.151,139.313C90.652,139.588 90.388,140.289 90.014,140.793C90.585,141.185 91.195,141.95 91.716,141.893C92.879,141.769 94.094,141.409 95.118,140.839C100.985,137.573 103.949,132.293 105.199,125.892C105.398,124.877 105.492,123.842 105.633,122.816C105.61,122.813 105.587,122.81 105.563,122.808" style="fill:rgb(18,4,14);fill-rule:nonzero;"/>
                    </g>
                    <g transform="matrix(1,0,0,-1,48.6326,646.122)">
                        <path d="M105.806,142.458C105.921,150.291 111.481,156.171 119.091,156.506C119.493,156.524 119.91,156.56 120.292,156.472C120.529,156.417 120.884,156.144 120.885,155.967C120.887,155.68 120.671,155.371 120.485,155.115C120.403,155.003 120.174,154.991 120.009,154.945C113.192,153.02 109.888,147.988 108.093,141.574C107.885,140.831 107.246,139.573 106.926,139.61C105.635,139.756 105.938,141.019 105.81,141.939C105.787,142.109 105.807,142.285 105.806,142.458" style="fill:rgb(18,4,14);fill-rule:nonzero;"/>
                    </g>
                    <g transform="matrix(1,0,0,-1,53.7017,567.132)">
                        <path d="M152.234,116.921C151.85,115.583 151.671,114.412 151.19,113.382C149.747,110.301 148.206,107.264 146.642,104.242C146.454,103.879 145.88,103.716 145.485,103.46C145.367,103.911 145.05,104.42 145.162,104.804C146.161,108.238 147.198,111.662 148.311,115.06C148.611,115.975 149.117,116.862 149.703,117.627C149.986,117.997 150.774,118.327 151.156,118.187C151.624,118.016 151.907,117.336 152.234,116.921" style="fill:rgb(18,4,14);fill-rule:nonzero;"/>
                    </g>
                    <g transform="matrix(1,0,0,-1,35,531.93)">
                        <path d="M2.857,129.476C-3.685,121.386 2.362,111.125 7.487,104.159C14.094,95.178 20.746,86.225 27.514,77.365C31.285,72.428 35.227,67.616 39.126,62.78C40.188,61.464 42.037,63.333 40.984,64.638C34.494,72.688 28.467,81.096 22.302,89.394C19.188,93.583 16.087,97.782 12.96,101.962C10.071,105.824 6.898,109.62 4.757,113.971C2.574,118.407 1.978,123.749 4.574,128.151C5.186,129.187 3.658,130.465 2.857,129.476" style="fill-rule:nonzero;"/>
                    </g>
                    <g transform="matrix(1,0,0,-1,48.2251,481.003)">
                        <path d="M110.363,87.277C110.586,86.638 111.066,85.988 111.212,85.347C111.409,84.487 110.69,84.16 110.051,83.826C108.79,83.167 107.632,82.526 106.641,81.477C104.532,79.246 103.556,76.269 103.125,73.287C102.679,70.206 102.129,66.681 103.553,63.792C104.388,62.097 105.454,60.485 106.425,58.865C107.335,57.352 108.103,55.505 109.529,54.431C110.518,53.684 111.526,54.915 111.38,55.855C111.12,57.523 109.714,59.174 108.854,60.61C107.89,62.219 106.688,63.817 105.952,65.546C105.277,67.129 105.578,68.985 105.691,70.655C105.815,72.453 106.03,74.245 106.582,75.968C107.021,77.333 107.719,78.659 108.692,79.719C109.647,80.759 110.86,81.21 111.992,81.986C114.374,83.615 114.095,86.882 111.465,88.124C110.926,88.378 110.128,87.949 110.363,87.277" style="fill-rule:nonzero;"/>
                    </g>
                    <g transform="matrix(1,0,0,-1,35.2078,447.143)">
                        <path d="M3.18,42.55C6.703,49.323 12.475,54.123 19.42,57.138C26.988,60.425 35.411,62.259 43.598,63.061C52.085,63.892 60.574,63.475 68.981,62.105C77.551,60.707 86.053,58.829 94.566,57.118C104.253,55.171 113.933,53.188 123.641,51.349C125.663,50.965 126.543,54.034 124.499,54.461C115.375,56.369 106.226,58.145 97.084,59.952C88.194,61.709 79.32,63.647 70.378,65.122C53.492,67.909 35.444,67.167 19.528,60.354C11.853,57.068 4.143,51.552 1.648,43.195C1.38,42.298 2.736,41.697 3.18,42.55" style="fill-rule:nonzero;"/>
                    </g>
                    <g transform="matrix(1,0,0,-1,39.7051,515.71)">
                        <path d="M36.985,85.813C46.756,82.628 57.511,82.12 67.711,82.439C78.379,82.773 88.993,84.077 99.575,85.399C105.567,86.148 111.559,86.902 117.55,87.663C119.481,87.909 119.509,90.979 117.55,90.733C107.045,89.414 96.541,88.046 86.023,86.831C75.612,85.629 65.156,84.866 54.673,85.284C48.789,85.518 42.995,86.382 37.165,87.147C36.375,87.25 36.294,86.039 36.985,85.813" style="fill-rule:nonzero;"/>
                    </g>
                    <g transform="matrix(1,0,0,-1,52.6538,898.442)">
                        <path d="M141.229,290.156C141.787,288.65 142.802,287.39 143.367,285.875C143.959,284.29 144.309,282.572 144.532,280.899C145.048,277.035 145.138,273.009 145.111,269.115C145.056,261.229 142.616,253.687 137.426,247.665C136.054,246.073 138.362,243.743 139.746,245.344C145.542,252.048 148.313,260.3 148.318,269.115C148.321,273.435 148.151,277.896 147.377,282.155C146.811,285.266 145.423,289.855 142.151,291.078C141.634,291.271 141.038,290.672 141.229,290.156" style="fill-rule:nonzero;"/>
                    </g>
                    <g transform="matrix(1,0,0,-1,51.9116,699.061)">
                        <path d="M131.978,181.385C131.347,179.994 131.121,178.834 131.315,177.298C131.509,175.767 132.03,174.341 132.729,172.97C134.097,170.283 136.213,167.635 138.731,165.944C141.252,164.251 144.618,163.88 147.569,164.255C150.516,164.628 153.909,165.737 156.05,167.896C157.479,169.338 155.649,171.773 153.869,170.722C151.751,169.472 149.928,168.301 147.441,167.884C145.222,167.513 142.577,167.591 140.593,168.754C138.585,169.932 136.816,172.039 135.543,173.962C134.154,176.06 133.329,178.527 133.211,181.051C133.183,181.649 132.269,182.025 131.978,181.385" style="fill-rule:nonzero;"/>
                    </g>
                    <g transform="matrix(1,0,0,-1,61.1582,893.097)">
                        <path d="M203.841,220.415C217.382,220.078 222.667,235.127 225.9,245.697C229.992,259.079 232.646,272.86 233.925,286.793C234.643,294.615 234.895,302.473 234.715,310.325C234.663,312.581 231.149,312.588 231.206,310.325C231.534,297.098 230.638,283.836 228.435,270.787C227.351,264.365 225.981,257.984 224.323,251.685C222.742,245.676 221.162,239.379 218.377,233.796C215.551,228.127 210.507,222.725 203.841,222.143C202.747,222.048 202.712,220.443 203.841,220.415" style="fill-rule:nonzero;"/>
                    </g>
                    <g transform="matrix(1,0,0,-1,52.614,958.664)">
                        <path d="M136.863,305.672C139.856,301.708 145.248,300.207 149.703,298.548C155.247,296.481 160.819,294.461 166.452,292.644C171.995,290.854 177.574,289.179 183.193,287.645C188.557,286.182 193.977,284.672 199.471,283.786C205.15,282.868 211.105,282.773 216.291,285.595C218.287,286.681 216.527,289.635 214.52,288.626C210.22,286.463 205.326,286.474 200.667,287.217C195.452,288.048 190.298,289.459 185.199,290.814C174.562,293.638 164.049,296.968 153.64,300.535C148.302,302.364 143.027,304.079 138.154,306.963C137.396,307.411 136.27,306.456 136.863,305.672" style="fill-rule:nonzero;"/>
                    </g>
                    <g transform="matrix(1,0,0,-1,53.3105,870.199)">
                        <path d="M142.522,260.154C145.052,259.447 147.461,258.396 149.976,257.639C152.483,256.883 154.988,256.118 157.506,255.4C162.361,254.016 167.219,252.631 172.091,251.308C176.964,249.985 181.836,248.66 186.709,247.337C189.092,246.689 191.497,245.933 193.929,245.498C196.039,245.118 198.122,245.131 199.999,246.286C201.861,247.43 200.178,250.339 198.28,249.224C196.516,248.188 194.353,248.933 192.521,249.418C190.17,250.04 187.818,250.655 185.461,251.255C180.748,252.454 176.042,253.683 171.321,254.847C166.599,256.012 161.881,257.204 157.145,258.314C154.777,258.868 152.404,259.414 150.028,259.935C147.639,260.458 145.211,260.707 142.836,261.293C142.098,261.476 141.788,260.359 142.522,260.154" style="fill-rule:nonzero;"/>
                    </g>
                    <g transform="matrix(1,0,0,-1,56.4543,820.188)">
                        <path d="M167.071,264.451C168.922,263.937 170.979,263.403 172.527,262.215C174.093,261.012 174.732,259.172 175.116,257.304C176.066,252.697 176.408,247.908 177.01,243.244C178.24,233.705 179.373,224.144 181.071,214.674C182.049,209.221 183.262,203.827 184.781,198.498C185.29,196.71 188.037,197.46 187.57,199.266C184.976,209.293 183.347,219.545 181.929,229.794C181.221,234.914 180.56,240.042 179.882,245.166C179.531,247.82 179.181,250.472 178.83,253.126C178.555,255.21 178.365,257.349 177.647,259.341C175.945,264.058 171.97,265.657 167.287,266.045C166.359,266.122 166.209,264.69 167.071,264.451" style="fill-rule:nonzero;"/>
                    </g>
                    <g transform="matrix(1,0,0,-1,57.3066,760.373)">
                        <path d="M173.38,213.362C173.249,211.348 173.056,209.394 173.133,207.37C173.205,205.448 173.38,203.531 173.597,201.62C173.814,199.714 174.091,197.821 174.444,195.936C174.629,194.952 174.827,193.971 175.04,192.993C175.246,192.039 175.322,191.073 176.088,190.396C176.864,189.713 177.9,190.037 178.257,190.968C178.619,191.916 178.207,192.859 177.986,193.805C177.791,194.64 177.604,195.477 177.431,196.316C177.038,198.201 176.682,200.096 176.356,201.994C176.042,203.834 175.787,205.684 175.539,207.534C175.278,209.482 174.875,211.416 174.631,213.362C174.534,214.148 173.434,214.186 173.38,213.362" style="fill-rule:nonzero;"/>
                    </g>
                </g>
            </g>
        </g>
    </g>
</svg>
