<?xml version="1.0" encoding="UTF-8" standalone="no"?>
<!DOCTYPE svg PUBLIC "-//W3C//DTD SVG 1.1//EN" "http://www.w3.org/Graphics/SVG/1.1/DTD/svg11.dtd">
<svg width="100%" height="100%" viewBox="0 0 340 365" version="1.1" xmlns="http://www.w3.org/2000/svg" xmlns:xlink="http://www.w3.org/1999/xlink" xml:space="preserve" xmlns:serif="http://www.serif.com/" style="fill-rule:evenodd;clip-rule:evenodd;stroke-linejoin:round;stroke-miterlimit:2;">
    <g transform="matrix(1,0,0,1,-3213,-701)">
        <g id="img_2-4" transform="matrix(1.04871,0,0,1.0081,-157.401,-6.35126)">
            <rect x="3213.85" y="701.669" width="324.207" height="362.068" style="fill:none;"/>
            <g transform="matrix(0.95355,0,0,0.991967,3188,333.001)">
                <g>
                    <g transform="matrix(1,0,0,-1,39.3672,819.278)">
                        <path d="M103.532,108.522L98.993,113.801C98.993,113.801 89.877,125.443 87.626,127.539C85.377,129.635 67.287,144.515 67.287,144.515C67.287,144.515 45.105,160.842 51.124,175.198C57.142,189.554 66.534,200.766 66.534,200.766L88.772,217.874L108.529,243.596L113.268,263.345L115.209,269.941C115.209,269.941 108.574,272.97 107.219,280.537C105.862,288.104 111.217,290.47 115.602,289.538C115.602,289.538 110.831,301.335 125.58,314.913C125.58,314.913 133.886,326.086 145.8,327.597C157.712,329.107 177.771,315.677 177.771,315.677L190.3,299.803L196.311,283.699L200.264,264.258L206.739,235.114L232.808,205.58C232.808,205.58 266.97,175.609 239.479,146.71L224.989,134.697L221.267,132.283L216.143,123.397L207.837,112.224L189.365,111.569L181.22,126.51L173.267,136.018L179.439,146.028L191.083,155.144C191.083,155.144 197.602,155.376 200.006,148.934C200.006,148.934 204.352,149.089 206.409,152.425C208.467,155.762 218.87,169.185 218.87,169.185L199.859,183.74C199.859,183.74 198.696,185.875 197.802,180.404C196.908,174.933 193.063,160.654 193.063,160.654L188.833,157.24L162.596,130.2L121.893,142.898L114.057,149.147L114.873,156.791C114.873,156.791 105.835,166.262 105.564,173.867C105.294,181.473 108.207,191.366 111.312,195.828L98.736,182.327L83.747,170.555L99.817,151.905C99.817,151.905 109.248,162.03 122.125,136.379L121.463,124.389L116.416,113.331L107.877,108.677C107.877,108.677 106.83,107.551 103.532,108.522" style="fill:white;fill-rule:nonzero;"/>
                    </g>
                    <g transform="matrix(1,0,0,-1,35.2061,628.189)">
                        <path d="M201.249,29.043C201.249,29.043 183.858,21.15 180.706,22.078C177.556,23.005 177.408,27.158 177.408,27.158C177.408,27.158 173.255,27.01 172.144,29.05C171.031,31.089 170.637,29.565 167.2,30.198C163.765,30.832 158.205,41.028 169.293,50.777C180.381,60.526 193.657,67.234 207.152,67.715C220.649,68.192 226.841,69.453 232.591,83.169C238.341,96.886 243.385,101.223 234.453,118.578C225.521,135.931 215.699,149.096 194.678,155.627C173.656,162.156 154.822,165.646 154.822,165.646C154.822,165.646 149.108,150.89 148.07,150.853C147.032,150.816 139.36,161.978 139.36,161.978C139.36,161.978 93.46,166.588 76.136,127.511C58.812,88.435 62.516,71.935 66.853,66.893C71.19,61.848 78.789,52.764 79.827,52.801C80.864,52.836 97.365,56.54 102.777,50.496C108.189,44.451 108.3,41.338 107.372,38.185C106.444,35.034 103.366,33.886 103.366,33.886C103.366,33.886 102.586,26.581 100.584,24.431C98.581,22.281 91.645,12.68 88.531,12.569C85.417,12.458 77.001,15.278 77.001,15.278L64.021,0.265C64.021,0.265 42.071,3.644 32.286,15.771C22.5,27.897 10.454,45.141 4.717,89.634C-1.02,134.128 4.25,161.341 14.897,183.548C25.543,205.755 61.333,251.722 131.964,253.19C202.597,254.658 259.58,230.693 291.049,193.349C322.519,156.006 320.695,119.558 322.285,104.023C323.876,88.487 315.527,60.125 299.433,45.001C283.338,29.878 261.683,24.951 255.492,23.692C249.299,22.433 213,20.106 213,20.106C213,20.106 194.608,11.136 191.383,14.14C188.158,17.144 201.249,29.043 201.249,29.043" style="fill:rgb(241,217,42);fill-rule:nonzero;"/>
                    </g>
                    <g transform="matrix(1,0,0,-1,35,629.168)">
                        <path d="M301.622,181.681C287.176,203.829 266.237,220.663 242.703,232.396C217.825,244.787 190.044,252.294 162.431,255.025C134.059,257.822 104.685,255.116 78.231,244.001C55.924,234.624 35.638,219.538 21.56,199.714C14.115,189.233 8.622,177.635 5.123,165.255C1.245,151.5 -0.086,137.15 0.004,122.891C0.093,108.685 1.605,94.488 3.756,80.448C5.801,67.048 8.638,53.605 13.927,41.07C18.932,29.21 26.143,18.177 36.294,10.108C44.416,3.65 53.72,0.11 63.943,-1.302C64.351,-1.36 65.336,-1.585 66.423,-1.775C67.133,-0.96 67.842,-0.144 68.55,0.67C69.769,2.076 70.977,3.48 72.111,4.923C74.388,7.831 76.558,10.839 78.738,13.838C79.57,13.536 80.407,13.076 81.149,12.697C83.986,11.238 87.511,10.033 90.433,12.029C91.113,12.5 91.624,13.069 91.985,13.716C92.037,13.728 92.098,13.751 92.15,13.763C92.797,13.963 93.431,14.287 94.021,14.64C95.141,15.303 96.156,16.264 96.899,17.32C97.562,18.249 98.098,19.265 98.464,20.349C100.941,21.456 102.804,24.609 103.534,26.88C103.984,28.268 104.162,29.678 104.112,31.08C105.815,31.44 107.261,33.457 108.045,34.815C108.928,36.301 109.457,38.057 109.605,39.777C109.662,40.475 109.67,41.162 109.624,41.846C109.582,42.447 109.509,43.038 109.384,43.626C109.196,44.554 108.894,45.459 108.509,46.328C108.023,47.423 107.395,48.461 106.612,49.42C106.339,49.775 106.046,50.108 105.733,50.44C102.915,53.396 98.944,55.188 94.948,55.878C92.574,56.293 90.119,56.34 87.713,56.183C85.826,56.053 83.868,55.87 81.979,55.47C81.948,55.5 81.905,55.518 81.873,55.539C73.977,60.134 68.886,68.83 67.17,77.646C65.084,88.362 67.037,99.543 70.52,109.77C76.847,128.352 89.298,145.364 107.142,154.239C117.316,159.309 128.78,161.712 140.124,160.722C140.249,160.705 140.374,160.71 140.489,160.714C141.575,156.469 143.421,152.492 145.838,148.805C146.629,147.616 148.439,147.847 149.04,149.084C150.377,151.835 151.734,154.585 153.05,157.355C153.719,158.731 154.376,160.116 155.034,161.501C155.343,162.145 155.654,162.79 155.963,163.436C156.031,163.573 156.089,163.7 156.157,163.827C163.96,162.161 171.806,160.765 179.509,158.689C187.287,156.584 194.938,153.914 202.145,150.304C215.406,143.664 227.346,133.496 233.285,119.621C238.749,106.853 238.521,91.887 230.102,80.425C226.156,75.056 220.812,70.978 214.439,68.954C213.535,68.663 212.619,68.411 211.691,68.192C210.278,67.86 208.864,67.592 207.427,67.375C201.907,66.513 196.247,66.344 190.763,65.36C185.288,64.375 180.169,62.499 175.605,59.573C174.05,58.581 172.561,57.468 171.14,56.212C170.868,55.984 170.595,55.746 170.334,55.498C165.262,50.785 160.402,43.649 161.367,36.364C161.608,34.534 162.24,32.851 163.189,31.273C163.454,30.836 163.891,30.539 164.384,30.422C164.493,30.301 164.632,30.191 164.77,30.092C165.335,29.697 165.969,29.398 166.648,29.286C166.795,29.261 166.952,29.235 167.108,29.23C167.931,29.186 168.685,29.338 169.41,29.675C169.621,28.727 170.036,27.847 170.728,27.134C171.019,26.822 171.361,26.533 171.766,26.287C172.828,25.638 174.083,25.423 175.305,25.55C175.241,23.552 175.973,21.655 178.037,20.626C181.518,18.9 186.034,21.388 189.297,22.616C190.374,23.018 191.461,23.411 192.55,23.813C190.319,21.051 187.667,16.706 190.851,13.649C194.112,10.521 198.649,12.751 202.154,14.132C206.408,15.822 210.696,17.44 214.904,19.232C220.107,19.104 225.419,19.086 230.746,19.243C232.345,19.29 233.954,19.356 235.551,19.444C256.842,20.553 278.224,24.93 295.431,37.734C306.136,45.702 313.823,56.671 318.263,69.219C322.684,81.714 324.391,95.132 324.192,108.347C323.804,134.247 315.768,160.002 301.622,181.681M106.38,43.925C106.391,43.904 106.413,43.894 106.424,43.884C106.413,43.874 106.413,43.874 106.403,43.874C106.392,43.893 106.381,43.904 106.37,43.924L106.38,43.925ZM318.656,89.783C316.978,77.011 313.088,64.181 305.374,53.69C289.052,31.489 260.285,25.187 234.323,23.601C228.13,23.225 221.923,22.973 215.73,22.629C214.589,22.568 213.457,22.507 212.306,22.435C211.998,22.32 211.702,22.205 211.394,22.091C208.738,21.061 206.095,19.97 203.44,18.918C201.748,18.245 200.068,17.572 198.387,16.91C197.126,16.418 195.481,15.601 194.12,16.186C191.733,17.215 195.689,21.43 196.601,22.429C198.681,24.716 201.184,26.542 203.864,28.07C205.871,29.202 204.128,32.332 202.045,31.582C197.57,29.947 193.085,28.343 188.599,26.749C186.474,25.998 184.375,25.102 182.214,24.486C181.185,24.189 179.441,23.805 179.387,25.33C179.335,26.816 180.395,28.297 181.207,29.439C182.345,31.038 183.601,32.548 184.955,33.969C187.63,36.767 190.799,39.145 194.074,41.206C195.649,42.207 194.295,44.935 192.544,44.155C189.117,42.609 186.132,40.601 183.364,38.07C181.037,35.95 178.765,33.51 177.104,30.79C176.616,30.502 176.139,30.185 175.585,29.967C175,29.738 174.113,29.562 173.716,30.182C173.167,31.014 173.55,32.535 173.737,33.415C173.995,34.64 174.452,35.8 175.015,36.922C177.441,41.8 182.072,45.166 186.15,48.584C187.877,50.028 186.075,52.75 184.135,51.497C178.261,47.702 172.275,42.989 170.047,36.059C169.823,35.345 169.611,34.568 169.462,33.772C168.969,33.62 168.692,33.215 168.351,32.86C168.261,32.784 168.169,32.708 168.038,32.62C168.007,32.608 167.986,32.608 167.966,32.597C167.946,32.585 167.935,32.585 167.884,32.562C167.813,32.529 167.74,32.516 167.678,32.493C167.575,32.479 167.481,32.475 167.388,32.472C167.326,32.481 167.274,32.49 167.211,32.497C167.205,32.944 167.086,33.397 166.853,33.805C163.292,40.092 168.778,47.781 173.129,52.021C178.585,57.329 185.575,60.103 192.999,61.239C201.094,62.472 209.473,62.437 217.253,65.26C223.615,67.575 229.159,71.888 233.207,77.292C242.02,89.08 243.389,104.398 238.495,118.081C233.244,132.77 221.836,144.059 208.499,151.704C194.122,159.935 177.743,163.918 161.56,166.794C159.469,167.167 157.377,167.519 155.278,167.818C154.097,167.974 153.355,167.2 153.2,166.3C152.943,165.927 152.751,165.484 152.528,165.029C152.218,164.384 151.908,163.738 151.599,163.104C150.941,161.719 150.273,160.333 149.614,158.959C148.783,157.214 147.961,155.47 147.15,153.736C145.33,156.977 143.948,160.462 142.916,164.044C142.584,165.227 141.065,165.277 140.32,164.575C118.755,167.386 97.263,157.018 83.238,140.969C76.336,133.085 70.999,123.81 67.303,114.022C63.208,103.16 60.566,91.205 62.133,79.578C63.684,68.073 69.654,57.163 79.875,51.237C80.501,50.875 81.277,50.944 81.91,51.278C83.662,51.413 85.407,51.745 87.149,51.88C89.2,52.036 91.249,52.036 93.285,51.765C96.461,51.326 99.547,50.189 101.973,48.041C102.541,47.53 103.06,46.967 103.508,46.359C103.869,45.862 104.19,45.323 104.458,44.77C104.527,44.617 104.594,44.475 104.661,44.32C104.707,44.198 104.753,44.084 104.799,43.962C104.948,43.551 105.068,43.119 105.156,42.685C105.194,42.51 105.221,42.324 105.248,42.148L105.252,42.055C105.28,41.848 105.297,41.64 105.305,41.423C105.312,41.225 105.318,41.038 105.315,40.84C105.314,40.591 105.291,40.351 105.258,40.101C105.131,38.994 104.785,37.902 104.237,36.946C103.943,36.447 103.521,36.037 103.098,35.648C102.872,36.181 102.625,36.692 102.336,37.2C102.137,37.547 101.938,37.873 101.709,38.197C100.842,39.476 99.763,40.613 98.532,41.587C97.196,42.642 95.709,43.494 94.14,44.093C90.409,45.53 85.646,46.161 81.82,44.737C80.455,44.231 80.458,41.798 82.094,41.722C85.374,41.547 88.595,41.889 91.781,40.828C92.96,40.434 94.081,39.891 95.103,39.2C96.391,38.352 97.521,37.269 98.399,35.97C98.454,35.909 98.497,35.848 98.541,35.777C99.981,33.572 100.564,30.922 99.833,28.359C99.602,27.552 99.245,26.78 98.781,26.087C98.186,28.79 96.669,31.106 94.631,32.884C93.461,33.935 92.1,34.79 90.653,35.435C89.522,35.957 88.334,36.34 87.12,36.577C83.707,37.268 79.394,37.218 76.321,35.384C75.292,34.776 75.632,32.792 76.913,32.744C78.631,32.68 80.345,32.98 82.059,33.041C83.72,33.1 85.355,33.002 86.97,32.612C87.179,32.557 87.389,32.503 87.599,32.437C89.133,31.982 90.574,31.222 91.786,30.163C92.439,29.626 93.023,28.991 93.516,28.292C94.894,26.345 95.532,23.883 94.731,21.578C94.279,20.252 93.523,19.29 92.572,18.55C92.417,19.406 92.138,20.239 91.789,20.996C90.879,22.928 89.542,24.575 87.895,25.868C87.263,26.375 86.583,26.819 85.872,27.22C85.215,27.581 84.517,27.9 83.781,28.154C81.833,28.865 79.659,29.172 77.673,28.904C76.784,28.779 75.885,28.632 75.298,27.873C74.513,26.869 74.799,25.559 75.931,24.975C77.138,24.353 78.825,25.14 80.097,25.04C80.462,25.011 80.817,24.962 81.173,24.891C82.764,24.584 84.212,23.896 85.484,22.903C85.848,22.624 86.202,22.326 86.536,21.994C87.3,21.242 88.013,20.186 88.435,19.151C88.742,18.393 89.114,17.315 88.968,16.416C88.925,16.154 88.841,15.901 88.703,15.688C88.674,15.636 88.634,15.593 88.594,15.549C87.967,14.779 86.624,14.814 85.566,15.047C84.089,15.379 82.556,16.396 81.056,17.059C80.961,17.108 80.865,17.146 80.77,17.184C79.252,17.806 77.526,18.109 75.965,17.867C74.186,17.595 72.631,16.636 71.858,14.675C71.543,13.885 71.837,13.219 72.338,12.872C71.921,12.307 71.504,11.742 71.088,11.186C68.974,8.356 66.678,5.676 64.404,2.987C64.246,2.8 59.031,3.94 58.624,4.019C45.152,6.665 32.989,17.85 25.685,29.024C18.574,39.904 14.314,52.424 11.475,65.036C8.502,78.235 6.721,91.8 5.609,105.274C3.404,131.973 5.086,159.848 17.562,184.063C28.251,204.796 45.822,221.396 66.03,232.768C89.225,245.815 115.89,251.346 142.354,251.349C169.911,251.361 197.805,245.657 223.488,235.758C247.117,226.637 269.601,213.164 286.454,194.012C302.95,175.273 313.93,151.787 317.922,127.147C319.918,114.838 320.265,102.159 318.656,89.783" style="fill-rule:nonzero;"/>
                    </g>
                    <g transform="matrix(1,0,0,-1,45.8706,802.403)">
                        <path d="M161.813,202.049C161.19,201.445 160.534,200.871 159.856,200.368C153.887,195.728 145.82,194.278 138.598,196.859C131.187,199.507 124.625,207.215 124.68,215.315C124.679,215.356 124.677,215.398 124.687,215.44C124.824,217.119 127.485,217.993 127.938,216.043C128.086,215.415 128.254,214.777 128.432,214.159L128.443,214.159C129.203,211.484 130.301,208.945 132.012,206.719C134.049,204.089 136.711,202.021 139.82,200.811C144.975,198.791 151.101,199.569 155.778,202.521C156.805,203.16 157.765,203.912 158.63,204.753C160.539,206.619 163.732,203.926 161.813,202.049" style="fill-rule:nonzero;"/>
                    </g>
                    <g transform="matrix(1,0,0,-1,42.0693,882.466)">
                        <path d="M104.699,255.787C102.482,254.587 100.632,252.801 98.724,251.175C96.742,249.487 94.765,247.795 92.801,246.087C90.893,244.429 88.985,242.77 87.078,241.112C86.153,240.308 85.225,239.507 84.302,238.7C83.229,237.759 82.082,236.894 81.314,235.687C80.422,234.286 82.287,232.401 83.726,233.057C84.925,233.604 85.865,234.562 86.853,235.422C87.777,236.228 88.699,237.035 89.622,237.841C91.584,239.554 93.547,241.269 95.509,242.982C97.415,244.647 99.304,246.329 101.194,248.012C103.13,249.738 105.243,251.382 106.784,253.485C107.87,254.965 106.253,256.629 104.699,255.787" style="fill-rule:nonzero;"/>
                    </g>
                    <g transform="matrix(1,0,0,-1,51.0957,891.957)">
                        <path d="M209.511,241.706C208.826,240.787 208.121,239.879 207.404,238.98C207.195,238.994 206.987,239.038 206.776,239.125C205.743,239.534 204.79,240.322 203.888,241.09C203.513,241.41 203.161,241.72 202.796,242.008L199.16,244.862C196.183,247.201 187.233,252.67 184.981,255.45C183.786,256.925 185.699,258.968 187.305,258.204C188.763,257.518 190.04,256.399 191.312,255.425C195.95,251.874 197.595,251.636 202.177,248.015C203.386,247.06 204.595,246.104 205.804,245.15C206.146,244.881 206.498,244.624 206.861,244.356C207.756,243.691 208.665,242.996 209.29,242.104C209.387,241.972 209.455,241.839 209.511,241.706" style="fill-rule:nonzero;"/>
                    </g>
                    <g transform="matrix(1,0,0,-1,37.5439,545.184)">
                        <path d="M138.028,119.673C135.386,115.928 129.744,114.294 125.41,115.606C124.339,115.93 123.364,116.445 122.497,117.097C124.076,119.651 125.623,122.29 126.816,125.001C128.245,128.248 128.498,132.067 125.941,134.827C123.415,137.556 119.57,136.957 117.107,134.49C112.538,129.913 113.446,121.843 116.956,116.956C117.087,116.775 117.23,116.607 117.367,116.433C116.641,115.313 115.89,114.21 115.087,113.14C111.496,108.355 106.952,104.262 101.107,102.548C98.658,101.829 96.099,101.674 93.696,102.159C93.882,103.071 94.039,103.984 94.162,104.899C94.614,108.273 94.76,111.824 94.337,115.209C93.937,118.402 92.511,121.856 89.038,122.629C85.694,123.374 82.59,120.866 81.102,118.081C79.624,115.317 79.672,111.868 80.597,108.94C81.913,104.781 85.047,101.417 88.906,99.523C86.425,91.73 81.235,84.996 73.132,82.12C70.527,81.196 67.718,80.758 64.954,80.904C65.182,83.847 65.203,86.807 64.992,89.757C64.558,95.835 63.566,103.931 58.173,107.812C55.691,109.598 52.239,109.946 49.684,108.061C47.038,106.11 45.639,102.744 45.207,99.568C44.387,93.533 46.86,87.547 50.972,83.198C53.682,80.33 57.149,78.446 60.887,77.546C60.056,71.648 58.299,65.882 55.607,60.507C53.735,56.77 50.85,51.857 46.634,50.251C46.3,52.201 45.828,54.128 45.202,56.006C44.083,59.357 42.536,63.009 40.206,65.708C38.138,68.104 34.854,69.584 31.807,68.063C28.231,66.279 28.95,62.254 30.212,59.204C31.397,56.341 32.75,53.428 34.72,51.013C36.647,48.649 39.175,46.751 42.253,46.276C42.713,46.205 43.171,46.174 43.627,46.167C43.706,45.204 43.762,44.24 43.769,43.277C43.791,40.251 43.381,37.238 42.652,34.303C42.132,32.201 45.429,31.665 45.967,33.745C47.057,37.96 47.403,42.349 47.063,46.685C48.689,47.197 50.216,48.05 51.557,49.129C57.198,53.668 60.348,61.006 62.444,67.754C63.381,70.771 64.062,73.862 64.513,76.986C65.74,76.901 66.978,76.912 68.214,77.027C74.863,77.648 81.186,80.959 85.701,85.841C88.942,89.344 91.22,93.648 92.657,98.208C93.407,98.044 94.168,97.933 94.936,97.88C102.275,97.387 109.151,100.948 114.256,106.009C116.575,108.308 118.52,110.924 120.305,113.648C124.12,110.981 129.108,110.337 133.69,111.922C136.501,112.894 138.924,115.081 140.612,117.475C141.863,119.248 139.286,121.457 138.028,119.673M34.278,58.762C33.608,60.256 31.245,64.306 33.818,65.087C36.408,65.874 38.225,62.711 39.254,60.872C41.178,57.431 42.472,53.636 43.167,49.74C38.658,50.171 35.959,55.019 34.278,58.762M58.336,82.561C54.184,84.609 51.002,88.487 49.61,92.88C48.926,95.044 48.73,97.358 49.134,99.595C49.543,101.866 50.618,104.576 52.911,105.519C54.982,106.37 56.789,104.668 57.879,103.083C59.304,101.009 59.982,98.614 60.445,96.169C61.366,91.315 61.642,86.37 61.297,81.476C60.284,81.746 59.29,82.09 58.336,82.561M87.065,105.812C84.204,108.863 82.193,114.837 86.021,118.009C86.71,118.579 87.651,119.047 88.537,118.671C89.56,118.237 89.994,116.963 90.227,115.967C90.831,113.379 90.72,110.457 90.516,107.826C90.404,106.395 90.208,104.968 89.934,103.557C88.897,104.146 87.929,104.891 87.065,105.812M118.08,126.17C118.084,128.313 118.756,131.021 120.641,132.289C122.706,133.677 124.126,131.294 124.019,129.398C123.935,127.915 123.215,126.514 122.532,125.23C121.759,123.777 120.928,122.352 120.106,120.928C119.975,120.701 119.841,120.478 119.709,120.251C118.66,122.034 118.077,124.108 118.08,126.17" style="fill-rule:nonzero;"/>
                    </g>
                    <g transform="matrix(1,0,0,-1,48.4004,548.008)">
                        <path d="M260.679,75.64C253.587,77.864 245.721,75.805 240.354,70.826C233.982,73.109 230.356,79.167 230.67,85.852C230.745,87.453 231.035,89.079 231.54,90.631C234.066,90.963 236.565,91.523 239.004,92.247C241.335,92.939 243.888,93.845 245.29,95.974C246.555,97.897 246.367,100.529 244.597,102.086C243.106,103.395 240.836,103.645 238.95,103.319C234.694,102.584 231.402,99.132 229.313,95.534C229.108,95.18 228.925,94.814 228.742,94.448C226.696,94.31 224.644,94.351 222.616,94.643C215.894,95.613 208.948,99.769 206.817,106.406C210.794,108.361 214.326,111.235 216.954,114.799C218.415,116.782 219.686,119.23 218.614,121.7C217.841,123.484 216.004,124.487 214.129,124.68C209.439,125.159 205.706,122 203.786,117.954C202.427,115.092 201.967,111.824 202.313,108.657C200.554,108.05 198.73,107.634 196.872,107.457C189.118,106.721 181.162,110.352 176.736,116.788C176.603,116.98 176.473,117.179 176.344,117.382C177.557,117.991 178.742,118.654 179.889,119.37C182.154,120.787 184.416,122.391 185.786,124.742C188.505,129.409 184.894,135.021 179.703,135.366C174.367,135.721 170.43,130.664 170.158,125.709C170.04,123.545 170.433,121.422 171.175,119.409C168.251,118.244 165.177,117.407 162.097,116.953C159.807,116.616 157.523,116.416 155.206,116.423C153.291,116.428 153.138,113.14 155.081,113.028C160.938,112.69 166.745,113.482 172.241,115.569C172.465,115.654 172.685,115.753 172.908,115.842C173.93,114.158 175.167,112.601 176.512,111.23C179.983,107.689 184.561,105.24 189.385,104.144C193.962,103.103 198.72,103.456 203.135,104.903C203.215,104.664 203.281,104.418 203.371,104.182C205.211,99.402 209.094,95.663 213.575,93.317C217.767,91.122 222.503,90.251 227.21,90.314C225.529,83.717 227.006,76.32 231.817,71.357C233.441,69.681 235.362,68.397 237.447,67.475C237.385,67.385 237.315,67.301 237.254,67.211C234.707,63.403 233.462,58.85 234.169,54.276C234.907,49.496 237.407,45.144 240.947,41.882C244.938,38.204 250.297,35.998 255.752,36.723C258.154,37.043 257.776,40.43 255.405,40.425C247.685,40.406 240.574,46.024 238.62,53.449C237.402,58.072 238.84,62.638 241.721,66.136C246.676,65.163 252.029,65.944 256.411,68.366C258.298,69.407 259.977,70.826 261.373,72.464C262.141,73.366 261.977,75.232 260.679,75.64M174.868,128.911C175.741,130.356 177.288,131.637 179.041,131.699C180.583,131.753 182.24,130.77 182.771,129.291C183.4,127.537 181.948,125.953 180.718,124.895C179.032,123.445 177.049,122.255 175.092,121.213C174.92,121.121 174.742,121.038 174.569,120.949C173.614,123.588 173.391,126.467 174.868,128.911M208.973,118.827C209.902,119.921 211.012,120.67 212.447,120.906C213.315,121.048 214.846,121.111 215.273,120.24C215.966,118.83 213.802,116.726 212.977,115.79C211.607,114.235 210.053,112.869 208.346,111.694C207.639,111.208 206.903,110.768 206.151,110.356C206.079,113.411 206.968,116.469 208.973,118.827M240.708,99.432C241.576,99.367 242.499,99.131 241.93,98.171C241.146,96.846 238.69,96.39 237.376,96.015C236.215,95.682 235.033,95.389 233.839,95.144C235.443,97.329 237.812,99.648 240.708,99.432M245.974,69.859C246.498,70.187 247.034,70.498 247.59,70.768C249.944,71.913 252.624,72.576 255.27,72.52C252.549,70.739 249.257,69.842 245.974,69.859" style="fill-rule:nonzero;"/>
                    </g>
                    <g transform="matrix(1,0,0,-1,55.2925,733.45)">
                        <path d="M258.265,178.702C255.373,174.951 252.374,171.269 249.429,167.557C247.987,165.74 246.545,163.91 245.102,162.092C243.609,160.22 242.206,158.185 240.507,156.503C239.835,155.845 238.917,155.635 238.098,156.157C237.396,156.601 236.921,157.706 237.403,158.492C237.541,158.706 237.688,158.919 237.837,159.132C237.655,159.292 237.512,159.494 237.388,159.749C235.402,164.17 234.053,168.8 233.332,173.597C232.977,175.985 232.776,178.401 232.754,180.811C232.737,183.025 232.662,185.423 233.597,187.483C234.398,189.258 236.071,190.732 238.071,190.906C240.237,191.108 242.096,189.687 243.217,187.96C244.052,186.691 244.59,185.306 244.89,183.862C245.853,184.852 246.934,185.743 248.093,186.47C250.818,188.178 254.977,189.926 258.119,188.375C262.319,186.309 260.431,181.503 258.265,178.702" style="fill-rule:nonzero;"/>
                    </g>
                    <g transform="matrix(1,0,0,-1,37.1499,738.301)">
                        <path d="M50.33,186.85C50.493,182.552 50.045,178.171 49.875,173.871C49.685,169.281 49.495,164.691 49.356,160.101C49.304,158.353 47.652,157.452 46.171,158.449C45.373,158.983 44.664,159.633 44.025,160.338C40.498,161.605 37.21,163.466 34.338,165.877C31.811,167.992 29.548,170.52 27.786,173.306C26.168,175.837 23.575,179.79 25.14,182.848C26.871,186.236 31.289,185.041 34.032,183.891C34.877,183.526 35.692,183.119 36.467,182.647C36.118,184.558 36.143,186.513 36.811,188.481C37.912,191.721 40.836,193.986 44.304,193.82C48.124,193.643 50.182,190.42 50.33,186.85" style="fill-rule:nonzero;"/>
                    </g>
                    <g transform="matrix(1,0,0,-1,43.916,596.321)">
                        <path d="M111.861,105.354C110.623,106.544 109.403,107.76 108.14,108.923C107.518,109.495 106.913,110.093 106.246,110.614C106.08,110.743 105.918,110.882 105.746,111.004C105.591,111.115 105.425,111.227 105.259,111.319C105.26,111.318 105.172,111.357 105.104,111.387C105.071,111.409 104.967,111.466 104.947,111.479C104.784,111.587 104.623,111.712 104.445,111.797C104.191,111.917 103.908,112.015 103.628,112.043C102.939,112.112 102.145,111.578 102.28,110.791C102.373,110.249 102.602,109.813 102.931,109.376C103.072,109.191 103.17,108.981 103.313,108.8C103.441,108.638 103.592,108.488 103.732,108.335C104.384,107.609 105.09,106.949 105.798,106.278C107.062,105.083 108.373,103.936 109.662,102.769C110.32,102.174 111.504,102.254 112.054,102.962C112.647,103.726 112.545,104.695 111.861,105.354" style="fill-rule:nonzero;"/>
                    </g>
                    <g transform="matrix(1,0,0,-1,44.8535,584.309)">
                        <path d="M117.459,100.698L117.581,100.563C117.286,100.891 117.038,101.253 116.817,101.634C116.696,101.89 116.581,102.148 116.487,102.417C116.434,102.573 116.375,102.726 116.327,102.883C116.272,103.056 116.196,103.218 116.113,103.375C116.041,103.573 115.995,103.771 115.897,103.96C115.762,104.222 115.548,104.417 115.347,104.627C115.148,104.832 114.721,104.95 114.445,104.91C114.123,104.867 113.852,104.729 113.63,104.487C113.423,104.262 113.249,104.012 113.156,103.717C113.091,103.506 113.075,103.29 113.068,103.074C113.045,102.786 112.984,102.51 113.036,102.214C113.083,101.934 113.143,101.649 113.217,101.375C113.306,101.047 113.448,100.731 113.6,100.428C114.035,99.563 114.545,98.84 115.233,98.15C115.529,97.853 116.085,97.716 116.49,97.753C116.895,97.791 117.37,98.017 117.624,98.344C117.896,98.696 118.083,99.146 118.02,99.601C117.959,100.045 117.762,100.375 117.459,100.698" style="fill-rule:nonzero;"/>
                    </g>
                    <g transform="matrix(1,0,0,-1,49.9551,598.504)">
                        <path d="M178.11,112.464C177.518,112.526 176.943,112.404 176.432,112.102C176.161,111.941 175.889,111.754 175.641,111.559C175.042,111.087 174.496,110.5 173.999,109.923C173.078,108.85 172.292,107.637 171.678,106.363C171.3,105.579 171.661,104.491 172.485,104.152C173.332,103.803 174.285,104.121 174.695,104.959C174.905,105.386 175.143,105.797 175.392,106.204C176.065,107.218 176.848,108.152 177.746,108.974C177.638,108.877 177.53,108.779 177.423,108.681C178.152,109.341 178.912,110.012 179.148,111.005C179.3,111.642 178.757,112.395 178.11,112.464" style="fill-rule:nonzero;"/>
                    </g>
                    <g transform="matrix(1,0,0,-1,50.5332,607.283)">
                        <path d="M187.141,115.739C186.621,115.825 186.123,115.817 185.628,115.615C185.594,115.602 185.578,115.595 185.558,115.585L185.524,115.579C185.188,115.516 184.99,115.438 184.703,115.295C183.994,114.941 183.298,114.569 182.603,114.191C181.382,113.525 180.161,112.859 178.94,112.194C178.55,111.982 178.252,111.418 178.182,111.001C178.109,110.57 178.212,110.017 178.481,109.663C178.769,109.284 179.185,108.966 179.673,108.906C180.171,108.844 180.573,108.966 181.011,109.205C182.212,109.86 183.412,110.514 184.614,111.168C185.192,111.484 185.77,111.8 186.338,112.137C186.596,112.29 186.842,112.423 187.04,112.665C187.064,112.693 187.076,112.71 187.088,112.726L187.114,112.744C187.552,113.072 187.862,113.458 188.078,113.956C188.404,114.704 187.971,115.602 187.141,115.739" style="fill-rule:nonzero;"/>
                    </g>
                    <g transform="matrix(1,0,0,-1,45.4302,653.521)">
                        <path d="M119.771,136.082C119.643,135.838 119.622,135.589 119.641,135.338C119.61,135.069 119.625,134.798 119.737,134.579C119.998,134.063 120.229,133.675 120.659,133.273C120.961,132.989 121.325,132.764 121.681,132.558C122.267,132.216 122.968,132.001 123.639,131.922C124.478,131.822 125.261,131.89 126.072,132.119C126.974,132.374 127.871,132.988 128.168,133.875C128.177,133.896 128.184,133.917 128.192,133.938C128.209,133.986 128.215,134.035 128.229,134.083C128.235,134.114 128.246,134.144 128.252,134.175C128.382,134.704 128.314,135.226 127.92,135.659C127.557,136.062 127.058,136.208 126.547,136.149C126.169,136.151 125.8,136.025 125.457,135.854C125.236,135.743 125.006,135.657 124.772,135.586C124.601,135.56 124.429,135.544 124.257,135.54C124.081,135.556 123.908,135.584 123.737,135.623C123.552,135.692 123.373,135.775 123.201,135.87C122.949,136.062 122.709,136.271 122.496,136.499C122.362,136.641 122.182,136.731 121.991,136.799C121.477,137.078 120.769,137.072 120.312,136.725C120.085,136.552 119.902,136.336 119.771,136.082" style="fill-rule:nonzero;"/>
                    </g>
                    <g transform="matrix(1,0,0,-1,47.5693,655.414)">
                        <path d="M148.882,132.904C149.867,132.839 150.782,132.918 151.734,133.191C152.876,133.517 154.007,134.142 154.316,135.369C154.518,136.173 153.804,137.195 152.971,137.258C152.357,137.304 151.708,137.15 151.185,136.798C151.13,136.773 151.074,136.748 151.019,136.725C150.868,136.663 150.714,136.607 150.558,136.558C150.5,136.54 150.442,136.525 150.385,136.508C150.254,136.489 150.125,136.46 149.995,136.445C149.833,136.427 149.668,136.414 149.504,136.409C149.449,136.407 149.393,136.407 149.338,136.407C149.037,136.432 148.739,136.456 148.442,136.516C148.31,136.542 148.182,136.577 148.054,136.61C148.001,136.631 147.947,136.651 147.894,136.671C147.593,136.792 147.29,136.913 147.004,137.068C146.963,137.091 146.885,137.157 146.838,137.163C146.624,137.303 146.408,137.424 146.188,137.554C145.672,137.858 144.845,137.643 144.487,137.182C144.066,136.641 144.079,136.017 144.401,135.433C144.833,134.649 145.666,133.989 146.462,133.596C147.199,133.23 148.058,132.959 148.882,132.904" style="fill-rule:nonzero;"/>
                    </g>
                    <g transform="matrix(1,0,0,-1,45.457,650.856)">
                        <path d="M134.574,129.069C135.922,132.178 136.297,135.608 135.406,138.892C133.769,144.931 126.93,149.444 120.909,146.403C119.103,145.492 120.006,142.639 122.015,143.369C127.718,145.44 132.529,140.131 132.189,134.628C131.986,131.373 130.315,129.04 128.584,126.435C126.978,124.019 126.349,120.464 129.26,118.732C130.763,117.837 132.649,120.063 131.502,121.392C130.492,122.561 131.061,123.555 131.896,124.707C132.905,126.099 133.887,127.484 134.574,129.069" style="fill-rule:nonzero;"/>
                    </g>
                    <g transform="matrix(1,0,0,-1,45.8242,705.346)">
                        <path d="M129.722,151.501C133.505,149.744 138.667,151.039 142.088,153.073C145.691,155.228 148.16,159.183 147.999,163.439C147.914,165.525 146.982,167.748 144.946,168.591C142.994,169.405 140.456,169.19 138.404,168.982C136.033,168.742 133.683,168.191 131.468,167.322C129.622,166.612 127.492,165.694 125.93,164.34C124.964,164.284 124.033,163.596 124.16,162.354C124.597,158.243 125.557,153.443 129.722,151.501M131.219,163.498C132.724,164.165 134.295,164.689 135.893,165.057C137.543,165.438 139.262,165.624 140.955,165.652C142.15,165.664 143.878,165.871 144.353,164.494C145.316,161.712 143.388,158.307 141.244,156.63C138.867,154.778 135.303,153.592 132.294,154.295C128.982,155.062 128.34,158.791 128.016,161.763C129.088,162.332 130.114,163.002 131.219,163.498" style="fill-rule:nonzero;"/>
                    </g>
                    <g transform="matrix(1,0,0,-1,43.5498,697.025)">
                        <path d="M102.28,131.69C100.702,126.936 99.313,122.125 98.062,117.278C98.845,116.318 99.473,115.281 99.959,114.186C100.344,113.315 100.646,112.412 100.834,111.483C100.959,110.895 101.032,110.305 101.075,109.704C106.365,111.471 112.004,112.212 117.579,111.817C120.852,111.58 123.982,110.964 127.007,110.062C128.268,109.681 129.51,109.247 130.753,108.782C130.575,109.399 130.407,110.037 130.26,110.667C130.407,110.037 130.575,109.399 130.764,108.782C132.555,108.098 134.339,107.329 136.105,106.488C136.264,106.409 136.421,106.364 136.589,106.338C136.642,105.987 136.706,105.646 136.77,105.305C136.984,104.252 137.784,103.408 138.923,103.521C140.021,103.622 140.777,104.606 140.718,105.673C140.555,108.506 140.144,111.308 140.084,114.164C140.026,116.668 140.113,119.186 140.284,121.688C147.301,122.279 154.059,125.482 158.65,131.113C160.413,133.275 157.285,135.886 155.37,133.907C148.724,126.998 138.515,124.109 129.465,127.779C125.068,129.567 121.282,132.562 118.657,136.532C115.856,140.757 114.431,145.759 113.621,150.72C112.719,156.218 112.29,161.867 112.227,167.447C112.222,167.839 112.226,168.231 112.227,168.624C112.232,168.657 112.243,168.686 112.247,168.721C113.064,177.358 116.301,185.861 122.292,192.22C128.339,198.639 136.871,202.481 145.64,203.043C145.894,203.059 146.112,203.121 146.314,203.202C148.961,200.576 151.731,198.068 154.462,195.525C155.038,194.991 155.617,194.463 156.195,193.932C153.036,194.848 149.725,194.827 146.519,193.929C144.96,193.491 145.531,190.812 147.149,191.133C150.273,191.753 153.524,191.281 156.442,190.033C157.879,189.418 159.198,188.617 160.389,187.604C161.66,186.524 162.671,185.222 163.808,184.011C163.997,183.809 164.21,183.69 164.429,183.629C164.412,182.679 164.396,181.728 164.372,180.784C164.313,178.038 164.275,175.302 164.227,172.556C164.145,167.252 164.012,161.935 163.856,156.629C163.701,151.343 163.504,146.056 163.276,140.767C163.165,138.029 163.035,135.291 162.892,132.552C162.759,129.855 162.33,127.002 162.561,124.308C162.564,124.224 162.577,124.141 162.59,124.07C164.011,125.325 165.5,126.439 167.055,127.429C171.619,130.356 176.739,132.232 182.214,133.216C187.697,134.201 193.357,134.371 198.877,135.232C200.314,135.449 201.729,135.718 203.141,136.048C204.013,136.253 198.278,161.005 197.644,163.255C194.453,174.587 189.16,186.468 180.935,195.36C177.753,198.801 174.131,201.793 170.022,204.133C168.749,204.859 167.39,205.479 166.025,206.011C156.897,209.563 146.822,211.386 137.088,209.609C136.603,209.521 136.118,209.423 135.636,209.316C130.221,208.126 124.989,205.872 120.742,202.249C116.505,198.627 113.335,193.93 111.262,188.774C108.778,182.594 107.799,175.948 107.662,169.25C106.694,169.278 105.771,169.203 104.842,168.765C103.594,168.18 102.49,167.351 101.593,166.28C99.828,164.179 99.043,161.408 99.306,158.683C99.582,155.866 100.878,153.324 102.831,151.304C104.245,149.846 106.235,148.513 108.277,147.817C107.284,145.65 106.491,143.366 105.654,141.174C104.456,138.035 103.341,134.876 102.28,131.69M178.003,158.129C178.293,158.16 178.56,158.252 178.803,158.417C179.487,158.785 180.181,159.163 180.863,159.529C181.21,159.709 181.536,159.907 181.872,160.106C182.045,160.206 182.197,160.315 182.359,160.435C182.622,160.632 182.812,160.878 183.042,161.104C183.12,161.242 183.209,161.37 183.299,161.508C183.405,161.72 183.46,161.94 183.441,162.179C183.46,162.543 183.373,162.945 183.143,163.239C182.664,163.887 181.874,164.139 181.104,163.893C181.042,163.871 180.98,163.859 180.919,163.835C180.744,163.787 180.58,163.729 180.415,163.651C180.12,163.505 179.824,163.349 179.549,163.174C179.244,162.986 178.939,162.788 178.645,162.58C178.402,162.415 178.158,162.251 177.915,162.087C177.884,163.811 177.844,165.535 177.793,167.258C178.073,167.289 178.34,167.371 178.583,167.537C180.361,168.722 182.983,168.638 184.708,167.504C186.442,166.359 187.47,164.047 187.402,161.893C187.322,159.727 186.191,157.619 184.549,156.158C182.755,154.556 180.455,153.767 178.104,153.527C178.091,155.065 178.046,156.592 178.003,158.129M125.301,200.174C125.433,200.267 125.565,200.359 125.697,200.449C125.565,200.359 125.433,200.266 125.301,200.174M106.129,153.863C104.786,155.073 103.814,156.691 103.491,158.489C103.194,160.142 103.439,161.979 104.442,163.325C104.968,164.029 105.583,164.571 106.325,165.045C106.712,165.287 107.179,165.573 107.66,165.809C107.696,164.21 107.762,162.621 107.88,161.035C107.624,160.943 107.379,160.809 107.22,160.596C106.835,160.052 106.564,159.471 106.472,158.813C106.392,158.165 106.437,157.491 106.677,156.886C106.927,156.282 107.301,155.703 107.795,155.273C107.976,155.113 108.21,154.987 108.452,154.891C108.544,154.074 108.646,153.256 108.757,152.449C108.771,152.366 108.784,152.283 108.787,152.201C107.856,152.625 106.955,153.124 106.129,153.863" style="fill-rule:nonzero;"/>
                    </g>
                    <g transform="matrix(1,0,0,-1,39.2495,952.922)">
                        <path d="M253.129,309.857C252.2,316.415 249.21,322.473 245.382,327.816C243.15,330.938 240.616,333.831 237.96,336.605C235.822,338.847 233.641,341.14 231.302,343.198C229.703,343.11 228.096,343.043 226.496,342.997C226.464,342.445 226.64,341.859 227.116,341.346C229.299,338.991 231.735,336.841 233.979,334.531C236.148,332.28 238.217,329.941 240.144,327.484C243.9,322.68 247.127,317.295 248.463,311.283C251.297,298.504 244.208,286.496 235.001,278.187C230.731,274.334 225.972,271.057 221.128,267.94C219.877,272.104 218.375,276.261 215.844,279.806C213.838,282.615 211.206,285.151 208.059,286.585C209.275,288.028 210.493,289.469 211.702,290.914C214.215,293.914 216.803,296.874 219.251,299.944C219.968,300.844 220.673,301.751 221.358,302.67C221.825,303.29 222.27,303.908 222.715,304.538C223.972,306.338 221.678,308.305 220.121,306.752C219.649,306.278 219.178,305.795 218.707,305.321C217.694,304.245 216.704,303.159 215.735,302.055C213.287,299.276 210.946,296.396 208.562,293.578C206.759,291.452 204.967,289.316 203.175,287.191C203.084,287.103 203.003,287.006 202.931,286.903C202.218,286.057 201.506,285.208 200.792,284.363C200.193,285.423 199.544,286.439 198.856,287.381C197.49,289.245 195.714,290.679 193.747,291.213C194.22,292.377 194.67,293.549 195.095,294.73C195.983,297.2 196.771,299.71 197.46,302.243C198.122,304.679 198.684,307.142 199.143,309.625C199.372,310.866 199.552,312.117 199.713,313.369C199.879,314.658 200.194,316.09 199.962,317.38C199.678,318.965 197.342,319.692 196.628,317.957C196.143,316.78 196.08,315.501 195.885,314.253C195.691,313.005 195.464,311.763 195.231,310.523C194.778,308.119 194.246,305.732 193.612,303.368C192.983,301.027 192.254,298.716 191.429,296.437C191,295.25 190.545,294.073 190.066,292.904C189.78,292.207 189.389,291.501 189.161,290.769C188.814,290.6 188.478,290.402 188.142,290.172C186.276,288.889 184.621,287.187 183.004,285.602C181.337,283.964 179.745,282.244 178.228,280.444C177.879,280.026 177.532,279.587 177.194,279.139C176.865,279.314 176.478,279.404 176.021,279.378C166.386,278.787 156.714,278.63 147.066,278.963C142.34,279.128 137.621,279.439 132.909,279.812C128.02,280.2 123.154,280.827 118.255,280.935C118.15,280.941 118.057,280.927 117.964,280.903C117.388,281.611 116.772,282.285 116.104,282.939C116.227,283.141 116.315,283.366 116.389,283.62C116.554,284.185 116.478,284.879 116.489,285.471L116.519,286.951L116.522,287.095C117.567,286.437 118.673,285.918 119.772,285.786C121.864,285.535 122.86,287.944 121.443,289.376C120.215,290.619 118.373,291.318 116.979,292.399C115.553,293.506 114.222,294.752 113.072,296.145C110.75,298.955 109.027,302.175 108.024,305.683C106.07,312.52 107.534,319.863 111.365,325.773C113.537,329.123 116.55,332.231 119.996,334.272C120.181,334.381 120.322,334.517 120.43,334.667C120.46,334.677 120.49,334.679 120.518,334.691C120.65,334.758 120.781,334.827 120.913,334.894C121.168,335.074 121.363,335.304 121.496,335.588C121.546,335.662 121.575,335.747 121.584,335.84C121.673,336.058 121.702,336.285 121.671,336.523C121.667,336.551 121.664,336.577 121.66,336.604C121.625,336.836 121.57,337.016 121.499,337.224C121.452,337.362 121.408,337.5 121.348,337.633C121.29,337.76 121.233,337.886 121.176,338.012C121.145,338.082 121.113,338.151 121.08,338.221C121.016,338.365 120.947,338.539 120.863,338.649C120.842,338.678 120.813,338.702 120.789,338.73C120.691,338.877 120.6,339.018 120.45,339.133C120.412,339.163 120.363,339.195 120.315,339.227C120.281,339.264 120.248,339.301 120.214,339.339C120.077,339.464 119.918,339.546 119.74,339.585C119.63,339.635 119.516,339.656 119.395,339.645C119.222,339.666 119.053,339.643 118.888,339.576C118.673,339.488 118.484,339.356 118.327,339.185C118.182,339.031 118.107,338.827 118.06,338.615C117.962,338.422 117.935,338.252 117.926,338.062C117.838,337.727 117.912,337.34 117.97,336.987C114.391,335.123 111.303,332.806 108.789,329.586C106.219,326.295 104.421,322.463 103.42,318.416C101.388,310.207 103.47,301.363 108.502,294.627C109.82,292.861 111.346,291.222 113.02,289.784C112.961,288.884 112.901,287.985 112.843,287.086C112.816,286.679 112.788,286.27 112.757,285.864C112.106,286.35 111.424,286.814 110.733,287.258C107.745,289.137 103.81,290.463 100.614,288.271C100.502,288.194 100.401,288.118 100.301,288.031C98.558,290.255 96.756,292.426 94.892,294.554C92.974,296.752 90.996,298.895 88.947,300.975C86.909,303.044 84.839,305.424 82.412,307.032C81.646,307.535 80.759,307.638 80.044,306.989C79.41,306.416 79.208,305.349 79.764,304.63C81.528,302.364 83.83,300.471 85.827,298.391C87.823,296.32 89.78,294.206 91.665,292.038C92.487,291.096 93.29,290.136 94.089,289.175C92.8,288.444 91.598,287.455 90.633,286.624C88.653,284.919 86.937,282.993 85.52,280.797C84.049,278.519 82.976,276.086 82.236,273.478C81.896,272.279 81.583,270.953 81.468,269.629C79.896,270.758 78.314,271.874 76.729,272.984C71.708,276.497 66.613,280.048 62.391,284.513C58.504,288.606 55.299,293.669 53.929,299.181C52.557,304.736 53.745,310.214 56.787,314.989C58.374,317.468 60.236,319.748 62.173,321.978C61.086,322.169 60.101,322.394 59.693,322.451C58.795,322.575 57.894,322.751 56.994,322.938C56.406,322.221 55.828,321.503 55.262,320.766C51.368,315.701 48.638,310.032 48.743,303.519C48.849,297.328 51.484,291.319 54.998,286.33C59.223,280.336 64.915,275.757 70.835,271.538C73.853,269.379 76.931,267.306 79.929,265.104C82.674,263.085 85.201,260.771 87.941,258.753C88.062,258.354 88.23,257.964 88.385,257.614C88.723,256.848 89.149,256.111 89.594,255.403C90.426,254.083 91.458,252.894 92.561,251.793C94.464,249.895 96.743,248.311 99.208,247.22C93.364,240.631 89.788,231.586 89.807,222.837C89.803,222.67 89.829,222.526 89.865,222.381C89.327,221.438 89.702,219.953 91.02,219.74C95.056,219.063 99.225,219.045 103.307,218.836C107.42,218.628 111.542,218.463 115.664,218.318C123.896,218.028 132.125,217.852 140.361,217.77C156.83,217.628 173.308,217.901 189.758,218.588C197.512,218.915 205.265,219.319 213.006,219.843C225.341,220.676 218.184,240.746 214.645,247.235C213.957,248.501 212.99,249.651 211.855,250.577C212.713,251.023 213.503,251.592 214.158,252.188C215.699,253.573 216.888,255.236 217.884,257.048C218.802,258.692 219.572,260.425 220.544,262.049C220.71,262.336 220.847,262.559 220.987,262.787C221.146,262.882 221.281,263 221.403,263.128C232.481,270.204 243.563,278.08 249.566,290.137C252.594,296.232 254.087,303.083 253.129,309.857M112.633,251.307C112.445,251.031 112.247,250.763 112.048,250.497L112.045,250.491C112.008,250.582 111.971,250.675 111.934,250.762C111.576,251.623 111.152,252.461 110.69,253.27C109.789,254.846 108.655,256.271 107.384,257.564C104.887,260.107 101.595,262.084 98.037,262.597C96.531,262.815 95.763,260.626 97.226,259.986C100.177,258.693 102.629,257.238 104.88,254.932C105.343,254.458 105.731,253.998 106.209,253.362C106.674,252.741 107.103,252.093 107.491,251.421C107.832,250.827 108.111,250.25 108.42,249.48C108.634,248.946 108.782,248.361 108.978,247.809C108.423,247.656 107.822,247.687 107.169,247.984C105.172,248.891 104.179,251.101 103.291,252.971C102.853,253.913 101.755,254.674 100.669,254.188C99.769,253.792 98.797,253.073 98.696,252.092L98.696,252.089C98.675,252.102 98.652,252.115 98.629,252.129C98.599,252.146 98.434,252.248 98.34,252.307C98.248,252.367 98.074,252.481 98.045,252.502C97.898,252.602 97.753,252.704 97.609,252.807C97.345,252.996 97.085,253.192 96.83,253.393C96.273,253.834 95.739,254.3 95.228,254.791C94.973,255.038 94.728,255.294 94.481,255.548C94.455,255.574 94.44,255.59 94.425,255.606L94.411,255.622C94.294,255.756 94.177,255.888 94.063,256.024C93.625,256.543 93.199,257.077 92.796,257.622C92.455,258.083 92.143,258.563 91.83,259.042C92.087,259.579 92.075,260.236 91.586,260.893C89.826,263.264 87.523,265.107 85.189,266.887C85.632,268.725 85.764,270.649 86.293,272.479C86.89,274.547 87.854,276.558 89.008,278.372C90.118,280.116 91.507,281.757 93.06,283.122C93.924,283.88 94.858,284.562 95.821,285.189C96.142,285.398 96.487,285.588 96.832,285.779C97.135,285.392 97.449,285.014 97.749,284.625C96.999,282.945 96.566,281.059 96.148,279.37C95.04,274.861 94.239,270.217 94.601,265.574C94.738,263.749 97.464,263.669 97.785,265.458C97.829,265.698 97.872,265.928 97.906,266.169L97.906,266.17C99.284,265.626 100.677,265.126 101.993,264.421C103.665,263.525 105.18,262.446 106.594,261.148C109.427,258.546 111.482,255.216 112.544,251.519C112.564,251.444 112.601,251.378 112.634,251.309L112.633,251.307M115.562,256.63C115.43,256.241 115.267,255.85 115.104,255.47L115.099,255.458C113.707,258.69 111.6,261.605 109,263.978C106.19,266.544 102.343,268.97 98.423,269.44L98.424,269.441C98.584,270.486 98.734,271.521 98.906,272.556C99.409,272.708 99.843,273.099 99.978,273.686C100.464,275.823 107.411,270.716 108.223,270.1C109.74,268.949 111.167,267.69 112.505,266.334C113.141,265.691 113.757,265.016 114.343,264.321C114.799,263.775 115.218,263.104 115.705,262.539C115.893,261.641 116.102,260.755 116.104,259.798C116.111,258.739 115.911,257.629 115.562,256.63M119.022,270.13C119.04,269.934 119.052,269.903 119.058,270.017C119.066,270.07 119.076,270.09 119.076,270.101C119.077,270.07 119.07,269.945 119.057,269.737C119.047,269.736 119.019,269.631 119.021,269.59C118.971,269.526 118.932,269.452 118.932,269.441C118.883,269.388 118.812,269.312 118.793,269.28C118.661,269.162 118.591,269.117 118.374,269.057C118.374,269.068 118.26,269.053 118.209,269.031L118.199,269.03C118.043,269.045 117.896,269.062 117.738,269.107C117.697,269.117 117.529,269.173 117.486,269.203C117.381,269.24 117.073,269.406 117.063,269.406C116.903,269.515 116.528,269.824 116.302,270.045C115.828,270.496 115.368,271.155 114.909,271.793C113.87,273.264 112.779,274.711 111.128,275.526C109.764,276.205 108.041,276.424 106.737,275.661C105.26,276.596 103.649,277.433 102.018,277.708C101.286,277.827 100.539,277.78 99.85,277.579C99.905,277.798 99.949,278.008 100.004,278.229C100.186,278.974 100.372,279.874 100.63,280.787C101.064,282.341 101.694,283.923 102.797,284.762C103.465,285.264 104.309,285.491 105.399,285.271C108.665,284.617 111.781,281.764 113.994,279.411C116.241,277.017 118.016,274.201 119.235,271.157C119.039,270.859 118.936,270.501 119.022,270.13M182.311,270.568C181.451,270.204 181.257,269.783 180.588,269.613C180.115,269.492 179.582,269.546 179.197,269.854C177.978,270.788 178.301,272.838 178.831,274.03C179.629,275.836 181.031,277.352 182.319,278.811C183.769,280.463 185.282,282.045 186.861,283.546C188.158,284.787 189.722,286.683 191.479,287.255C192.939,287.722 194.23,286.51 195.087,285.47C196.152,284.167 197.004,282.721 197.734,281.198C194.779,280.698 191.89,279.213 189.443,277.578C186.681,275.723 184.27,273.361 182.424,270.603C182.383,270.591 182.352,270.579 182.311,270.568M188.058,262.394C187.555,261.617 187.106,260.79 186.764,259.926C185.617,260.29 184.629,260.9 184.288,262.291C183.682,264.754 185.553,267.398 186.985,269.227C188.625,271.311 190.538,273.094 192.773,274.536C194.805,275.845 197.042,276.651 199.267,277.542C199.691,276.434 200.084,275.315 200.496,274.228C198.158,272.772 196.026,271.023 193.982,269.163C191.756,267.14 189.694,264.936 188.058,262.394M191.279,254.816L191.268,254.826C190.702,255.273 190.431,255.877 190.434,256.646C190.431,256.75 190.438,256.855 190.455,256.959C190.52,257.159 190.555,257.357 190.548,257.555C190.538,257.565 190.547,257.566 190.547,257.576C190.931,259.356 192.286,261.026 193.371,262.364C196.09,265.724 199.555,268.249 202.652,271.196L202.652,271.197C202.881,270.644 203.11,270.09 203.33,269.541C203.757,268.477 204.145,267.396 204.513,266.309C204.436,266.295 204.36,266.266 204.284,266.233C200.037,264.305 196.365,260.9 193.35,257.394C192.672,256.601 191.911,255.753 191.279,254.816M210.171,254.405C210.13,254.383 210.12,254.383 210.109,254.372C210.037,254.338 209.976,254.304 209.905,254.271C209.71,254.191 209.515,254.123 209.321,254.053C209.259,254.03 209.043,253.97 208.929,253.946L208.712,253.906C208.475,253.856 208.238,253.797 207.991,253.736C207.465,253.613 207.075,253.193 206.864,252.697C205.872,252.787 204.859,252.657 203.863,252.29C203.746,252.39 203.619,252.457 203.471,252.504C202.504,252.813 201.768,252.735 200.823,252.431C200.186,252.232 199.572,251.96 198.968,251.69C197.893,251.214 196.629,250.505 195.42,250.618C195.389,250.617 195.21,250.662 195.085,250.689C195.01,250.749 194.746,250.864 194.705,250.862C194.651,250.892 194.587,250.942 194.534,250.971L194.523,250.981C194.457,251.104 194.424,251.144 194.413,251.144C194.402,251.154 194.402,251.163 194.402,251.174C194.733,251.529 194.854,251.929 194.85,252.313C195.018,252.579 195.246,252.867 195.455,253.145C196.936,255.058 198.578,256.821 200.339,258.474C201.978,260.019 203.822,261.383 205.579,262.829C205.693,262.402 205.793,261.972 205.897,261.543C205.856,261.266 205.878,260.989 205.958,260.693C206.192,259.828 206.541,258.988 206.865,258.154C207.025,257.742 207.201,257.336 207.369,256.929C207.589,256.393 207.777,255.771 208.131,255.313C208.652,254.64 209.594,254.238 210.429,254.571C210.343,254.51 210.257,254.458 210.171,254.405M217.611,264.731C217.386,264.417 217.186,264.085 216.98,263.756C216.875,263.587 216.756,263.425 216.655,263.253C216.338,262.717 216.036,262.17 215.746,261.62C215.424,261.026 215.112,260.433 214.791,259.839C213.951,258.302 213.245,257.134 211.931,255.777C211.77,255.606 211.59,255.433 211.387,255.281C211.377,255.27 211.367,255.248 211.347,255.237L211.332,255.225C211.615,255.572 211.84,256.204 211.75,256.632C211.694,256.896 211.659,257.164 211.545,257.408C211.504,257.497 211.456,257.584 211.41,257.671C211.306,257.877 211.201,258.082 211.096,258.288C210.872,258.725 210.652,259.165 210.423,259.601C210.654,260.066 210.715,260.601 210.458,261.118C210.391,261.256 210.325,261.384 210.255,261.508C209.492,264.79 208.474,268.015 207.157,271.12C206.467,272.751 205.66,274.337 204.819,275.895C204.415,276.642 203.965,277.347 203.499,278.04C203.276,278.778 203.022,279.525 202.737,280.25C202.875,280.425 203.013,280.599 203.154,280.766C203.918,281.671 204.68,282.575 205.443,283.479C208.361,281.958 210.781,279.756 212.617,276.95C215.049,273.235 216.397,268.976 217.614,264.736L217.611,264.731" style="fill-rule:nonzero;"/>
                    </g>
                    <g transform="matrix(-0.602519,0.798105,-0.798105,-0.602519,356.101,624.735)">
                        <path d="M97.861,195.106C97.86,195.121 97.865,195.143 97.855,195.165L97.861,195.173C97.871,195.152 97.872,195.138 97.882,195.116C97.876,195.108 97.876,195.108 97.861,195.106" style="fill-rule:nonzero;"/>
                    </g>
                </g>
            </g>
        </g>
    </g>
</svg>
