<?xml version="1.0" encoding="UTF-8" standalone="no"?>
<!DOCTYPE svg PUBLIC "-//W3C//DTD SVG 1.1//EN" "http://www.w3.org/Graphics/SVG/1.1/DTD/svg11.dtd">
<svg width="100%" height="100%" viewBox="0 0 395 575" version="1.1" xmlns="http://www.w3.org/2000/svg" xmlns:xlink="http://www.w3.org/1999/xlink" xml:space="preserve" xmlns:serif="http://www.serif.com/" style="fill-rule:evenodd;clip-rule:evenodd;stroke-linecap:round;stroke-linejoin:round;">
    <g transform="matrix(1,0,0,1,-2322,-701)">
        <g id="img_2-2" transform="matrix(1.00381,0,0,1.01928,-9.613,-61.0981)">
            <rect x="2322.76" y="747.683" width="393.5" height="564.124" style="fill:none;"/>
            <clipPath id="_clip1">
                <rect x="2322.76" y="747.683" width="393.5" height="564.124"/>
            </clipPath>
            <g clip-path="url(#_clip1)">
                <g transform="matrix(1,0,0,0.984825,2323.01,472.741)">
                    <g>
                        <g>
                            <clipPath id="_clip2">
                                <rect x="-0.25" y="-0.005" width="393.5" height="852"/>
                            </clipPath>
                            <g clip-path="url(#_clip2)">
                                <g>
                                    <g>
                                        <g transform="matrix(1,0,0,-1,-170,1241.99)">
                                            <path d="M642.574,573.495L509.574,623.495L515.574,728.495C515.574,728.495 533.574,788.495 528.574,798.495C523.574,808.495 483.574,870.495 483.574,870.495L403.574,925.495C403.574,925.495 350.574,946.495 327.574,938.495C304.574,930.495 227.032,874.164 233.303,847.33C239.574,820.495 220.574,798.495 220.574,798.495C220.574,798.495 177.074,784.995 233.074,727.995L234.574,702.495L214.574,631.495C214.574,631.495 195.574,607.495 195.574,605.495C195.574,603.495 150.574,574.495 150.574,574.495L122.574,397.495L156.574,388.495L209.589,450.584L196.574,374.495L498.574,295.495L529.574,354.495L536.574,423.495L598.574,369.495L642.574,573.495Z" style="fill:white;fill-rule:nonzero;"/>
                                        </g>
                                        <g transform="matrix(1,0,0,-1,-170,1520.99)">
                                            <path d="M666.074,801.995C661.074,802.995 513.074,851.995 513.074,851.995C513.074,851.995 429.565,832.829 386.32,819.912C343.074,806.995 308.098,814.728 304.586,875.361L235.074,874.995L196.074,884.995L149.074,842.995L134.074,728.995L134.074,667.995L167.409,694.26L215.074,737.995C215.074,737.995 196.035,698.995 199.054,667.995C202.074,636.995 400.074,635.995 400.074,635.995L529.074,646.995L529.074,709.995L581.074,680.995L666.074,801.995Z" style="fill:rgb(241,217,42);fill-rule:nonzero;"/>
                                        </g>
                                        <g transform="matrix(1,0,0,-1,-170,1361.45)">
                                            <path d="M426.644,667.275C424.44,665.08 422.119,662.991 419.711,661.159C398.542,644.248 369.702,638.667 343.697,647.576C317.01,656.712 293.127,684.026 292.942,713.054C292.935,713.204 292.927,713.353 292.958,713.504C293.373,719.525 302.868,722.783 304.586,715.822C305.143,713.575 305.776,711.296 306.442,709.091L306.48,709.093C309.331,699.54 313.388,690.494 319.625,682.598C327.05,673.268 336.687,665.984 347.888,661.796C366.456,654.798 388.373,657.879 404.993,668.679C408.644,671.02 412.052,673.758 415.109,676.814C421.86,683.591 433.431,674.092 426.644,667.275" style="fill-rule:nonzero;"/>
                                        </g>
                                        <g transform="matrix(1,0,0,-1,-170,1664.6)">
                                            <path d="M209.59,873.192C201.704,868.787 195.157,862.296 188.396,856.381C181.374,850.238 174.368,844.082 167.409,837.868C160.651,831.834 153.894,825.8 147.135,819.766C143.86,816.841 140.573,813.926 137.306,810.99C133.503,807.57 129.434,804.413 126.738,800.051C123.607,794.986 130.379,788.318 135.509,790.739C139.777,792.756 143.098,796.235 146.598,799.365C149.874,802.293 153.14,805.232 156.411,808.165C163.362,814.399 170.312,820.633 177.263,826.867C184.015,832.922 190.707,839.04 197.398,845.162C204.256,851.439 211.746,857.429 217.174,865.039C220.995,870.397 215.119,876.28 209.59,873.192" style="fill-rule:nonzero;"/>
                                        </g>
                                        <g transform="matrix(1,0,0,-1,-170,1690.1)">
                                            <path d="M618.671,819.617C616.261,816.294 613.775,813.005 611.25,809.751C610.502,809.789 609.749,809.938 608.989,810.236C605.267,811.658 601.814,814.435 598.551,817.145C597.191,818.272 595.908,819.365 594.591,820.382L581.427,830.438C570.643,838.678 538.313,857.855 530.108,867.71C525.754,872.94 532.512,880.352 538.307,877.689C543.568,875.299 548.196,871.35 552.799,867.921C569.588,855.416 575.494,854.64 592.09,841.88C596.466,838.515 600.841,835.149 605.218,831.784C606.456,830.839 607.731,829.931 609.045,828.989C612.29,826.649 615.577,824.201 617.856,821.031C618.215,820.564 618.462,820.092 618.671,819.617" style="fill-rule:nonzero;"/>
                                        </g>
                                        <g transform="matrix(1,0,0,-1,-170,809.493)">
                                            <path d="M270.467,410.444C270.022,409.562 269.957,408.668 270.039,407.77C269.937,406.805 270.005,405.837 270.416,405.055C271.377,403.221 272.226,401.838 273.783,400.418C274.881,399.417 276.195,398.625 277.48,397.901C279.598,396.709 282.118,395.97 284.527,395.716C287.538,395.4 290.343,395.68 293.238,396.54C296.46,397.496 299.644,399.741 300.665,402.933C300.694,403.008 300.723,403.083 300.749,403.159C300.81,403.333 300.825,403.507 300.873,403.682C300.896,403.793 300.934,403.897 300.951,404.011C301.395,405.912 301.124,407.778 299.694,409.316C298.372,410.738 296.578,411.241 294.747,411.004C293.393,410.994 292.08,410.523 290.853,409.894C290.07,409.487 289.252,409.167 288.414,408.904C287.803,408.801 287.189,408.737 286.57,408.711C285.942,408.764 285.319,408.856 284.702,408.988C284.036,409.225 283.392,409.514 282.768,409.848C281.858,410.519 280.989,411.262 280.214,412.065C279.727,412.57 279.079,412.885 278.39,413.118C276.538,414.093 273.997,414.036 272.376,412.772C271.569,412.143 270.927,411.357 270.467,410.444" style="fill-rule:nonzero;"/>
                                        </g>
                                        <g transform="matrix(1,0,0,-1,-170,814.067)">
                                            <path d="M382.7,398.326C386.234,398.137 389.507,398.467 392.905,399.489C396.983,400.714 401.008,403.005 402.056,407.414C402.744,410.311 400.135,413.938 397.146,414.122C394.943,414.258 392.623,413.673 390.768,412.392C390.571,412.3 390.374,412.206 390.173,412.12C389.636,411.888 389.089,411.681 388.532,411.501C388.327,411.433 388.12,411.374 387.912,411.314C387.448,411.237 386.985,411.131 386.519,411.07C385.936,410.993 385.349,410.942 384.761,410.916C384.563,410.907 384.365,410.905 384.166,410.902C383.087,410.975 382.018,411.049 380.951,411.248C380.48,411.335 380.018,411.454 379.554,411.57C379.362,411.64 379.171,411.706 378.981,411.779C377.893,412.199 376.803,412.615 375.77,413.161C375.624,413.239 375.339,413.474 375.175,413.492C374.397,413.984 373.62,414.405 372.823,414.862C370.96,415.93 368.005,415.12 366.746,413.451C365.265,411.488 365.34,409.255 366.519,407.177C368.104,404.386 371.125,402.062 373.995,400.689C376.654,399.416 379.744,398.484 382.7,398.326" style="fill-rule:nonzero;"/>
                                        </g>
                                        <g transform="matrix(1,0,0,-1,-170,795.635)">
                                            <path d="M323.818,381.705C328.501,392.912 329.682,405.221 326.335,416.948C320.182,438.512 295.457,454.361 274.024,443.178C267.596,439.825 270.967,429.646 278.132,432.356C298.473,440.047 315.964,421.25 315.005,401.512C314.437,389.84 308.559,381.398 302.477,371.98C296.836,363.246 294.751,350.475 305.262,344.409C310.696,341.274 317.346,349.337 313.17,354.047C309.497,358.189 311.49,361.777 314.43,365.948C317.977,370.98 321.43,375.991 323.818,381.705" style="fill-rule:nonzero;"/>
                                        </g>
                                        <g transform="matrix(1,0,0,-1,-170,999.381)">
                                            <path d="M309.265,470.355C322.907,464.237 341.344,469.124 353.506,476.574C366.317,484.468 374.977,498.757 374.196,514.002C373.795,521.475 370.352,529.395 363.015,532.318C355.982,535.144 346.892,534.253 339.553,533.411C331.064,532.438 322.668,530.351 314.772,527.134C308.192,524.501 300.603,521.113 295.065,516.183C291.611,515.94 288.304,513.431 288.819,508.983C290.58,494.27 294.248,477.116 309.265,470.355M314.062,513.419C319.421,515.879 325.03,517.83 330.739,519.227C336.633,520.669 342.784,521.416 348.851,521.601C353.133,521.697 359.318,522.521 361.085,517.612C364.663,507.685 357.919,495.39 350.315,489.279C341.884,482.532 329.165,478.109 318.351,480.489C306.445,483.078 303.969,496.414 302.668,507.048C306.48,509.136 310.125,511.587 314.062,513.419" style="fill-rule:nonzero;"/>
                                        </g>
                                        <g transform="matrix(1,0,0,-1,-170,1051.02)">
                                            <path d="M203.316,479.408C197.888,462.295 193.141,444.991 188.883,427.562C191.733,424.16 194.037,420.47 195.83,416.569C197.248,413.47 198.375,410.245 199.096,406.925C199.571,404.824 199.86,402.712 200.04,400.56C218.916,407.145 239.089,410.067 259.087,408.917C270.825,408.222 282.071,406.16 292.958,403.075C297.494,401.768 301.965,400.271 306.442,398.663C305.775,400.868 305.142,403.147 304.586,405.394C305.142,403.147 305.775,400.868 306.48,398.665C312.932,396.296 319.362,393.627 325.729,390.694C326.301,390.424 326.869,390.266 327.469,390.183C327.679,388.926 327.925,387.707 328.171,386.489C328.988,382.727 331.892,379.738 335.97,380.197C339.901,380.613 342.561,384.172 342.299,387.998C341.581,398.139 339.975,408.163 339.624,418.397C339.3,427.364 339.493,436.394 339.988,445.364C365.104,447.819 389.168,459.615 405.358,480.011C411.574,487.844 400.24,497.057 393.471,489.869C369.979,464.793 333.53,453.958 300.927,466.683C285.081,472.881 271.372,483.433 261.775,497.54C251.539,512.547 246.195,530.403 243.057,548.143C239.564,567.803 237.758,588.03 237.267,608.023C237.231,609.426 237.229,610.835 237.213,612.241C237.23,612.361 237.267,612.464 237.277,612.588C239.8,643.583 250.996,674.207 272.163,697.279C293.53,720.567 323.927,734.743 355.321,737.173C356.233,737.244 357.013,737.474 357.728,737.773C367.343,728.488 377.389,719.634 387.294,710.649C389.387,708.762 391.484,706.898 393.581,705.023C382.217,708.154 370.352,707.924 358.904,704.551C353.338,702.91 355.512,693.336 361.293,694.561C372.462,696.93 384.133,695.395 394.649,691.06C399.831,688.924 404.594,686.118 408.912,682.544C413.517,678.733 417.203,674.114 421.331,669.829C422.019,669.113 422.788,668.698 423.578,668.489C423.56,665.084 423.548,661.674 423.506,658.29C423.427,648.445 423.421,638.642 423.378,628.799C423.336,609.786 423.109,590.727 422.806,571.702C422.5,552.751 422.045,533.793 421.479,514.83C421.211,505.013 429.208,324.127 428.83,314.306C428.48,304.634 427.079,294.39 428.034,284.745C428.048,284.447 428.099,284.151 428.15,283.893C433.183,288.462 438.464,292.522 443.991,296.146C460.206,306.852 478.467,313.818 498.038,317.605C517.647,321.393 537.919,322.27 557.661,325.618C562.802,326.465 567.858,327.494 572.904,328.746C576.018,329.52 545.954,589.017 543.576,597.051C531.603,637.508 512.071,679.835 482.175,711.31C470.606,723.49 457.485,734.044 442.65,742.236C438.052,744.775 433.153,746.936 428.237,748.775C395.355,761.072 359.164,767.129 324.364,760.296C322.628,759.955 320.898,759.584 319.175,759.179C299.826,754.658 281.184,746.331 266.133,733.148C251.121,719.965 239.982,702.984 232.799,684.407C224.193,662.144 220.995,638.28 220.823,614.267C217.354,614.321 214.052,614.011 210.738,612.396C206.295,610.241 202.38,607.217 199.214,603.336C192.988,595.726 190.305,585.754 191.377,576.003C192.502,565.919 197.267,556.87 204.362,549.723C209.496,544.569 216.695,539.887 224.044,537.487C220.585,529.677 217.855,521.454 214.959,513.56C210.814,502.25 206.969,490.88 203.316,479.408M473.43,577.748C474.468,577.874 475.42,578.217 476.285,578.819C478.717,580.168 481.184,581.556 483.616,582.904C484.851,583.561 486.009,584.288 487.203,585.017C487.819,585.382 488.359,585.782 488.934,586.22C489.868,586.936 490.533,587.826 491.35,588.649C491.624,589.146 491.938,589.609 492.248,590.109C492.621,590.873 492.806,591.665 492.728,592.518C492.776,593.825 492.445,595.263 491.611,596.303C489.859,598.604 487.021,599.471 484.27,598.554C484.05,598.469 483.829,598.421 483.609,598.336C482.984,598.156 482.399,597.942 481.816,597.652C480.761,597.116 479.708,596.542 478.733,595.899C477.648,595.213 476.566,594.489 475.522,593.729C474.656,593.128 473.791,592.527 472.926,591.926C472.736,598.104 472.51,604.281 472.247,610.455C473.246,610.579 474.201,610.887 475.066,611.488C481.378,615.821 490.78,615.646 497.013,611.663C503.284,607.645 507.079,599.405 506.933,591.682C506.752,583.92 502.799,576.309 496.983,570.994C490.631,565.167 482.425,562.232 474.01,561.263C473.89,566.774 473.662,572.243 473.43,577.748M282.572,725.927C283.037,726.266 283.506,726.6 283.977,726.931C283.506,726.6 283.039,726.263 282.572,725.927M216.059,559.053C211.192,563.326 207.631,569.079 206.386,575.504C205.241,581.413 206.037,588.012 209.564,592.881C211.415,595.432 213.594,597.401 216.23,599.132C217.604,600.02 219.267,601.07 220.977,601.936C221.182,596.205 221.496,590.517 221.996,584.838C221.081,584.496 220.211,584.006 219.652,583.233C218.294,581.266 217.352,579.17 217.057,576.808C216.798,574.484 216.99,572.07 217.878,569.914C218.803,567.76 220.171,565.702 221.959,564.186C222.621,563.622 223.462,563.178 224.336,562.848C224.702,559.922 225.106,556.996 225.544,554.11C225.596,553.815 225.648,553.519 225.663,553.221C222.31,554.698 219.057,556.441 216.059,559.053" style="fill-rule:nonzero;"/>
                                        </g>
                                        <g transform="matrix(1,0,0,-1,-170,1903.45)">
                                            <path d="M732.187,1060.23C728.546,1083.68 717.543,1105.25 703.572,1124.21C695.427,1135.3 686.206,1145.55 676.557,1155.36C668.79,1163.3 660.865,1171.41 652.385,1178.68C646.663,1178.29 640.901,1177.97 635.173,1177.73C635.083,1175.75 635.744,1173.65 637.472,1171.84C645.409,1163.5 654.24,1155.92 662.391,1147.74C670.272,1139.78 677.795,1131.49 684.818,1122.78C698.508,1105.74 710.326,1086.6 715.399,1065.11C726.161,1019.45 701.325,976.084 668.728,945.867C653.605,931.859 636.706,919.89 619.495,908.49C614.816,923.352 609.233,938.181 599.994,950.763C592.672,960.734 583.12,969.697 571.774,974.689C576.063,979.915 580.359,985.139 584.626,990.374C593.49,1001.24 602.621,1011.98 611.249,1023.1C613.774,1026.35 616.26,1029.64 618.671,1032.96C620.313,1035.2 621.882,1037.44 623.448,1039.72C627.864,1046.23 619.549,1053.17 614.046,1047.54C612.378,1045.81 610.712,1044.06 609.044,1042.33C605.469,1038.43 601.971,1034.5 598.551,1030.49C589.909,1020.42 581.658,1009.99 573.247,999.773C566.887,992.068 560.565,984.33 554.242,976.626C553.922,976.307 553.636,975.957 553.385,975.581C550.87,972.518 548.356,969.44 545.837,966.379C543.64,970.149 541.265,973.761 538.753,977.105C533.771,983.721 527.337,988.776 520.265,990.596C521.906,994.786 523.462,999.01 524.928,1003.26C527.995,1012.16 530.703,1021.19 533.049,1030.3C535.307,1039.06 537.202,1047.91 538.73,1056.83C539.493,1061.29 540.078,1065.78 540.595,1070.28C541.128,1074.91 542.19,1080.05 541.299,1084.66C540.203,1090.33 531.799,1092.83 529.32,1086.57C527.638,1082.33 527.474,1077.75 526.835,1073.26C526.197,1068.78 525.443,1064.32 524.666,1059.87C523.158,1051.23 521.366,1042.65 519.204,1034.15C517.061,1025.73 514.561,1017.41 511.71,1009.21C510.226,1004.93 508.654,1000.69 506.994,996.482C506.003,993.968 504.637,991.423 503.853,988.786C502.616,988.166 501.421,987.438 500.232,986.596C493.602,981.912 487.752,975.737 482.032,969.979C476.134,964.026 470.511,957.788 465.163,951.265C463.933,949.751 462.705,948.163 461.517,946.54C460.332,947.152 458.937,947.457 457.303,947.341C422.8,944.764 388.146,943.746 353.555,944.483C336.614,944.85 319.685,945.739 302.783,946.854C285.244,948.012 267.775,950.031 250.211,950.181C249.837,950.2 249.505,950.146 249.173,950.056C247.075,952.563 244.834,954.951 242.411,957.26C242.84,957.99 243.146,958.802 243.4,959.718C243.965,961.747 243.658,964.232 243.671,966.354C243.682,968.123 243.693,969.892 243.705,971.661L243.708,972.176C247.486,969.867 251.475,968.059 255.42,967.639C262.931,966.84 266.382,975.519 261.24,980.583C256.777,984.978 250.144,987.395 245.098,991.206C239.935,995.104 235.108,999.509 230.919,1004.45C222.464,1014.41 216.135,1025.87 212.375,1038.39C205.045,1062.8 209.947,1089.18 223.395,1110.54C231.021,1122.65 241.672,1133.93 253.926,1141.41C254.582,1141.81 255.076,1142.3 255.462,1142.85C255.566,1142.88 255.674,1142.89 255.777,1142.93C256.244,1143.18 256.711,1143.43 257.178,1143.68C258.088,1144.34 258.774,1145.17 259.237,1146.19C259.412,1146.46 259.512,1146.77 259.537,1147.1C259.847,1147.89 259.941,1148.7 259.817,1149.56C259.806,1149.65 259.791,1149.75 259.775,1149.85C259.64,1150.67 259.434,1151.32 259.17,1152.06C258.996,1152.55 258.83,1153.05 258.608,1153.52C258.396,1153.97 258.184,1154.42 257.973,1154.87C257.857,1155.12 257.74,1155.37 257.624,1155.61C257.385,1156.12 257.128,1156.75 256.823,1157.14C256.746,1157.24 256.639,1157.32 256.554,1157.42C256.197,1157.94 255.86,1158.44 255.32,1158.85C255.183,1158.96 255.005,1159.07 254.832,1159.18C254.71,1159.31 254.587,1159.44 254.465,1159.58C253.965,1160.02 253.395,1160.31 252.755,1160.44C252.359,1160.61 251.946,1160.68 251.516,1160.64C250.893,1160.7 250.288,1160.61 249.7,1160.36C248.935,1160.04 248.264,1159.56 247.706,1158.94C247.198,1158.38 246.936,1157.64 246.782,1156.88C246.437,1156.19 246.349,1155.57 246.326,1154.89C246.026,1153.69 246.311,1152.31 246.533,1151.04C233.795,1144.19 222.84,1135.74 213.982,1124.08C204.928,1112.17 198.67,1098.35 195.271,1083.8C188.381,1054.29 196.26,1022.69 214.609,998.789C219.419,992.524 224.963,986.719 231.034,981.645C230.864,978.42 230.693,975.196 230.524,971.971C230.446,970.506 230.369,969.041 230.277,967.587C227.92,969.298 225.455,970.929 222.956,972.485C212.16,979.079 197.997,983.644 186.646,975.636C186.249,975.356 185.89,975.077 185.533,974.761C179.183,982.652 172.621,990.347 165.842,997.882C158.865,1005.67 151.673,1013.26 144.233,1020.61C136.831,1027.93 129.3,1036.36 120.526,1042.01C117.756,1043.77 114.572,1044.1 112.041,1041.74C109.794,1039.66 109.124,1035.82 111.149,1033.27C117.579,1025.24 125.919,1018.56 133.173,1011.2C140.426,1003.87 147.538,996.393 154.398,988.714C157.389,985.375 160.307,981.972 163.22,978.565C158.635,975.886 154.373,972.286 150.954,969.262C143.94,963.058 137.88,956.075 132.904,948.136C127.743,939.902 124.011,931.134 121.484,921.751C120.323,917.438 119.266,912.674 118.916,907.922C113.227,911.894 107.505,915.818 101.773,919.723C83.614,932.071 65.188,944.555 49.844,960.357C35.718,974.84 23.994,992.832 18.822,1012.52C15.452,1025.43 15.968,1038.28 19.68,1050.43C21.673,1056.95 24.588,1063.28 28.318,1069.31C33.883,1078.26 40.451,1086.52 47.288,1094.61C43.381,1095.24 39.84,1096 38.377,1096.19C35.152,1096.59 31.917,1097.18 28.681,1097.81C26.608,1095.21 24.573,1092.61 22.578,1089.94C8.86,1071.6 -0.655,1051.16 0.035,1027.82C0.707,1005.64 10.435,984.231 23.264,966.517C38.689,945.239 59.307,929.097 80.718,914.261C91.637,906.667 102.765,899.382 113.616,891.636C123.547,884.528 132.713,876.354 142.626,869.252C143.083,867.827 143.702,866.437 144.274,865.189C145.523,862.464 147.082,859.843 148.711,857.328C151.754,852.632 155.508,848.421 159.516,844.528C166.423,837.816 174.664,832.246 183.554,828.455C162.921,804.563 150.536,771.984 151.021,740.629C151.012,740.033 151.112,739.515 151.25,739C149.366,735.591 150.779,730.292 155.511,729.591C170.008,727.352 184.949,727.485 199.588,726.931C214.339,726.382 229.119,725.984 243.896,725.661C273.412,725.012 302.909,724.772 332.427,724.869C391.458,725.137 450.492,726.897 509.415,730.141C537.184,731.682 564.948,733.492 592.67,735.737C636.831,739.313 610.231,810.895 597.244,833.985C594.714,838.485 591.197,842.562 587.087,845.828C590.138,847.468 592.944,849.543 595.262,851.706C600.719,856.743 604.899,862.762 608.382,869.306C611.597,875.24 614.275,881.484 617.679,887.354C618.262,888.389 618.745,889.194 619.236,890.015C619.799,890.367 620.278,890.792 620.705,891.256C660.074,917.144 699.415,945.894 720.358,989.386C730.916,1011.37 735.94,1036 732.187,1060.23M231.468,843.74C230.808,842.739 230.11,841.773 229.412,840.807C229.407,840.802 229.404,840.796 229.399,840.79C229.262,841.109 229.125,841.445 228.992,841.754C227.667,844.822 226.11,847.804 224.413,850.683C221.11,856.286 216.976,861.338 212.364,865.913C203.293,874.908 191.402,881.838 178.629,883.507C173.22,884.214 170.572,876.336 175.845,874.109C186.481,869.619 195.335,864.516 203.515,856.36C205.197,854.684 206.609,853.054 208.35,850.799C210.048,848.596 211.615,846.294 213.035,843.902C214.287,841.794 215.315,839.739 216.458,836.995C217.252,835.086 217.808,832.999 218.539,831.03C216.559,830.454 214.399,830.537 212.044,831.573C204.846,834.726 201.182,842.6 197.912,849.262C196.294,852.612 192.325,855.289 188.461,853.498C185.252,852.036 181.802,849.409 181.489,845.889L181.489,845.88C181.408,845.926 181.326,845.971 181.246,846.018C181.138,846.081 180.541,846.44 180.198,846.643C179.87,846.855 179.241,847.258 179.133,847.329C178.603,847.68 178.077,848.038 177.556,848.402C176.601,849.068 175.662,849.757 174.737,850.467C172.722,852.016 170.784,853.663 168.931,855.402C168.003,856.272 167.116,857.178 166.218,858.076C166.125,858.17 166.068,858.225 166.013,858.279C165.994,858.3 165.99,858.307 165.962,858.337C165.54,858.812 165.112,859.282 164.695,859.762C163.102,861.601 161.551,863.495 160.08,865.432C158.838,867.068 157.696,868.772 156.549,870.474C157.446,872.411 157.373,874.764 155.589,877.094C149.17,885.507 140.831,892 132.382,898.271C133.879,904.877 134.264,911.782 136.071,918.362C138.116,925.802 141.472,933.057 145.523,939.612C149.418,945.916 154.315,951.86 159.819,956.825C162.878,959.585 166.195,962.07 169.615,964.363C170.758,965.13 171.982,965.826 173.207,966.526C174.315,965.156 175.46,963.813 176.553,962.433C173.941,956.379 172.482,949.599 171.064,943.527C167.306,927.316 164.653,910.636 166.172,894.011C166.751,887.479 176.524,887.322 177.591,893.747C177.735,894.612 177.88,895.439 177.987,896.301L177.988,896.305C182.953,894.421 187.969,892.694 192.716,890.231C198.753,887.099 204.232,883.303 209.359,878.72C219.638,869.53 227.158,857.694 231.139,844.492C231.22,844.225 231.354,843.99 231.472,843.746L231.468,843.74M241.714,862.952C241.261,861.551 240.696,860.145 240.128,858.774C240.122,858.76 240.115,858.746 240.108,858.731C234.969,870.247 227.279,880.595 217.85,888.978C207.658,898.038 193.755,906.553 179.688,908.047L179.689,908.052C180.215,911.805 180.704,915.519 181.268,919.237C183.067,919.809 184.601,921.226 185.057,923.335C186.696,931.02 211.838,913.048 214.776,910.88C220.267,906.824 225.442,902.379 230.298,897.583C232.607,895.311 234.848,892.923 236.982,890.455C238.641,888.522 240.174,886.137 241.949,884.136C242.665,880.928 243.453,877.76 243.508,874.334C243.581,870.536 242.918,866.552 241.714,862.952M253.475,911.499C253.547,910.794 253.589,910.685 253.607,911.096C253.635,911.283 253.669,911.359 253.667,911.397C253.673,911.285 253.657,910.837 253.618,910.09C253.582,910.088 253.488,909.71 253.495,909.561C253.32,909.329 253.184,909.062 253.186,909.025C253.009,908.83 252.761,908.557 252.692,908.441C252.229,908.009 251.976,907.847 251.204,907.624C251.203,907.66 250.795,907.604 250.613,907.52L250.576,907.518C250.015,907.566 249.49,907.615 248.923,907.773C248.773,907.803 248.166,907.998 248.012,908.102C247.633,908.232 246.524,908.812 246.487,908.81C245.909,909.192 244.551,910.281 243.73,911.062C242.013,912.655 240.333,914.996 238.657,917.263C234.862,922.482 230.883,927.62 224.93,930.46C220.006,932.829 213.821,933.534 209.186,930.736C203.845,934.017 198.036,936.94 192.178,937.847C189.55,938.241 186.875,938.036 184.414,937.282C184.6,938.074 184.749,938.827 184.934,939.619C185.549,942.296 186.175,945.532 187.058,948.817C188.538,954.406 190.72,960.104 194.634,963.165C197.005,964.995 200.02,965.85 203.933,965.109C215.669,962.923 226.97,952.85 235.017,944.52C243.184,936.047 249.673,926.038 254.191,915.187C253.497,914.109 253.15,912.825 253.475,911.499M480.261,916.067C477.195,914.725 476.524,913.201 474.132,912.563C472.439,912.107 470.531,912.275 469.136,913.363C464.726,916.652 465.783,924.01 467.624,928.311C470.4,934.82 475.351,940.318 479.902,945.609C485.015,951.599 490.364,957.339 495.95,962.793C500.539,967.303 506.056,974.17 512.327,976.302C517.535,978.046 522.217,973.765 525.341,970.077C529.219,965.458 532.34,960.317 535.027,954.894C524.461,952.962 514.178,947.503 505.486,941.525C495.677,934.748 487.149,926.169 480.665,916.198C480.517,916.154 480.408,916.112 480.261,916.067M501.245,887.045C499.481,884.239 497.912,881.254 496.722,878.14C492.598,879.393 489.026,881.529 487.741,886.5C485.448,895.297 492.027,904.861 497.072,911.482C502.855,919.032 509.621,925.512 517.565,930.783C524.786,935.57 532.766,938.568 540.695,941.863C542.266,937.913 543.729,933.922 545.259,930.045C536.945,924.72 529.39,918.349 522.153,911.586C514.274,904.231 506.985,896.235 501.245,887.045M513.148,860.042L513.108,860.078C511.056,861.655 510.057,863.805 510.034,866.563C510.016,866.934 510.035,867.308 510.092,867.684C510.317,868.403 510.432,869.117 510.397,869.823C510.358,869.859 510.395,869.861 510.394,869.898C511.684,876.297 516.459,882.345 520.286,887.191C529.868,899.362 542.168,908.572 553.127,919.283L553.129,919.284C553.974,917.314 554.821,915.341 555.635,913.384C557.216,909.591 558.658,905.738 560.029,901.859C559.754,901.802 559.481,901.693 559.209,901.575C544.085,894.465 531.083,882.088 520.446,869.381C518.051,866.506 515.368,863.43 513.148,860.042M580.868,859.467C580.723,859.385 580.686,859.383 580.651,859.344C580.395,859.22 580.178,859.097 579.923,858.973C579.229,858.678 578.533,858.421 577.838,858.163C577.618,858.078 576.846,857.853 576.441,857.759C576.441,857.759 576.182,857.709 575.666,857.61C574.817,857.419 573.971,857.192 573.088,856.962C571.209,856.498 569.829,854.977 569.097,853.189C565.543,853.463 561.914,852.951 558.365,851.585C557.938,851.937 557.479,852.176 556.949,852.336C553.468,853.397 550.837,853.082 547.463,851.948C545.188,851.204 543,850.203 540.85,849.203C537.021,847.451 532.526,844.847 528.185,845.194C528.074,845.189 527.433,845.343 526.981,845.434C526.71,845.643 525.758,846.045 525.609,846.037C525.418,846.139 525.185,846.315 524.994,846.417L524.955,846.453C524.711,846.888 524.591,847.031 524.555,847.029C524.515,847.065 524.513,847.102 524.512,847.14C525.679,848.427 526.093,849.863 526.064,851.24C526.651,852.201 527.457,853.247 528.191,854.252C533.407,861.179 539.209,867.574 545.439,873.581C551.242,879.195 557.784,884.173 564.013,889.434C564.444,887.911 564.822,886.375 565.214,884.841C565.082,883.846 565.169,882.857 565.472,881.798C566.354,878.712 567.644,875.719 568.844,872.742C569.436,871.276 570.085,869.83 570.707,868.376C571.523,866.467 572.226,864.247 573.518,862.622C575.415,860.237 578.808,858.841 581.784,860.071C581.48,859.85 581.174,859.656 580.868,859.467M607.041,896.825C606.249,895.688 605.55,894.485 604.829,893.3C604.457,892.687 604.042,892.102 603.687,891.481C602.574,889.545 601.522,887.571 600.506,885.585C599.381,883.442 598.292,881.301 597.167,879.16C594.231,873.611 591.753,869.39 587.111,864.467C586.544,863.843 585.904,863.215 585.186,862.659C585.15,862.619 585.117,862.543 585.044,862.503C585.028,862.488 585.009,862.474 584.992,862.46C585.986,863.717 586.763,865.991 586.421,867.521C586.211,868.463 586.071,869.423 585.653,870.292C585.501,870.61 585.322,870.92 585.158,871.231C584.772,871.962 584.386,872.692 584,873.423C583.178,874.981 582.365,876.547 581.525,878.097C582.332,879.777 582.522,881.696 581.581,883.536C581.331,884.026 581.093,884.484 580.833,884.923C577.943,896.652 574.141,908.16 569.278,919.222C566.724,925.033 563.758,930.68 560.67,936.223C559.189,938.881 557.544,941.387 555.838,943.849C555.004,946.483 554.056,949.148 553.002,951.735C553.489,952.368 553.977,952.997 554.473,953.605C557.165,956.882 559.856,960.158 562.548,963.434C573.075,958.119 581.852,950.346 588.566,940.378C597.457,927.178 602.49,911.977 607.052,896.841L607.041,896.825" style="fill-rule:nonzero;"/>
                                        </g>
                                        <g transform="matrix(-0.585048,0.810999,-0.810999,-0.585048,650.266,866.826)">
                                            <path d="M188.36,643.152C188.353,643.204 188.372,643.286 188.336,643.361L188.36,643.391C188.394,643.314 188.4,643.263 188.435,643.187C188.412,643.158 188.412,643.158 188.36,643.152" style="fill-rule:nonzero;"/>
                                        </g>
                                        <g transform="matrix(-0.679603,0.73358,-0.73358,-0.679603,561.689,1149.17)">
                                            <path d="M-28.929,734.37C62.404,781.852 258.71,734.37 258.71,734.37" style="fill:none;fill-rule:nonzero;stroke:black;stroke-width:17.06px;"/>
                                        </g>
                                        <g transform="matrix(-0.761714,-0.647914,0.647914,-0.761714,450.66,1628.87)">
                                            <path d="M546.15,700.303C546.15,700.303 624.957,704.812 673.567,700.303" style="fill:none;fill-rule:nonzero;stroke:black;stroke-width:17.06px;"/>
                                        </g>
                                        <g transform="matrix(1,0,0,-1,-170,1269.05)">
                                            <path d="M200.202,622.698C215.419,622.698 215.445,646.348 200.202,646.348C184.985,646.348 184.959,622.698 200.202,622.698" style="fill-rule:nonzero;"/>
                                        </g>
                                        <g transform="matrix(1,0,0,-1,-170,1267.64)">
                                            <path d="M192.62,644.544C192.308,644.252 192.001,643.961 191.716,643.645C190.353,642.126 190.397,641.865 189.619,639.993C189.539,639.799 189.458,639.606 189.379,639.411C189.031,638.548 188.65,637.664 188.457,636.752C187.936,634.287 187.601,631.771 187.385,629.263C187.486,628.511 187.587,627.758 187.689,627.005C187.951,625.9 188.458,624.937 189.209,624.117C189.586,623.479 190.094,622.971 190.732,622.594C191.553,621.843 192.515,621.336 193.621,621.073C194.817,620.573 196.939,620.729 198.136,621.073C198.813,621.359 199.489,621.644 200.165,621.929C201.155,622.463 201.949,623.192 202.548,624.117C203.074,624.647 203.438,625.271 203.64,625.991C204.172,627.003 204.416,628.094 204.372,629.263C204.401,630.927 204.523,632.585 204.74,634.234C204.641,633.497 204.542,632.759 204.443,632.022C204.599,633.168 204.808,634.309 204.869,635.464C204.894,635.94 204.927,636.416 204.969,636.89C204.986,637.093 205.006,637.296 205.026,637.498C205.13,638.505 205.093,638.831 204.813,640.187C204.729,640.594 204.622,640.996 204.525,641.401C203.954,643.792 201.881,645.734 199.55,646.376C197.035,647.068 194.492,646.296 192.62,644.544" style="fill-rule:nonzero;"/>
                                        </g>
                                        <g transform="matrix(1,0,0,-1,-170,1285.27)">
                                            <path d="M191.483,664.413C190.775,661.384 189.957,658.358 189.365,655.304C188.648,651.603 188.487,647.716 188.096,643.966C194.017,644.767 199.938,645.569 205.859,646.37C205.63,647.752 205.297,649.109 205.106,650.499C205.214,649.695 205.322,648.89 205.43,648.086C205.086,650.876 205.082,653.667 205.418,656.458C205.31,655.658 205.203,654.859 205.095,654.059C205.303,655.604 205.609,657.123 206.016,658.629C200.126,659.426 194.237,660.223 188.347,661.02C188.177,659.369 188.021,657.715 187.831,656.066C187.937,656.861 188.044,657.655 188.151,658.45C187.724,655.365 187.265,652.281 186.881,649.189C186.451,645.719 187.061,642.412 188.642,639.287C190.128,636.349 192.86,634.151 195.519,632.339C197.735,630.829 200.17,629.79 202.648,628.785C207.109,626.976 212,626.283 216.775,625.96C220.871,625.682 224.996,626.134 229.057,626.659C234.898,627.415 240.711,628.362 246.548,629.153C245.606,629.026 244.663,628.899 243.721,628.773C255.996,630.418 268.474,631.418 280.808,629.778C279.853,629.906 278.899,630.034 277.944,630.163C287.137,628.886 295.873,625.872 304.513,622.584C308.716,620.984 312.888,619.326 317.179,617.973C319.316,617.299 321.465,616.662 323.631,616.086C325.523,615.584 327.436,615.072 329.411,615.029C330.576,615.004 331.725,615.009 332.891,614.944C335.126,614.821 338.052,616.063 339.562,617.707C340.992,619.265 341.873,621.018 342.156,623.124C342.426,625.135 342.169,627.382 341.037,629.139C340.545,629.775 340.053,630.411 339.562,631.048C338.385,632.217 336.997,633.025 335.399,633.474L334.982,633.649C335.74,633.33 336.497,633.01 337.254,632.691C335.087,633.619 333.137,634.841 330.864,635.579C329.155,636.134 327.459,636.726 325.774,637.351C322.538,638.553 319.348,639.877 316.122,641.106C309.758,643.529 303.424,646.059 296.896,648.014C282.159,652.427 266.866,652.826 251.677,651.086C242.951,650.087 234.324,648.502 225.628,647.309C226.563,647.435 227.498,647.56 228.434,647.686C222.356,646.87 216.005,646.269 209.9,647.089C210.791,646.969 211.683,646.849 212.575,646.73C210.055,647.098 207.605,647.727 205.249,648.7C206.021,648.374 206.794,648.048 207.566,647.722C206.097,648.355 204.67,649.082 203.37,650.02C204.009,649.526 204.648,649.033 205.287,648.539C204.67,649.017 204.119,649.529 203.625,650.135C204.113,649.504 204.601,648.872 205.089,648.24C204.784,648.661 204.535,649.08 204.323,649.555C204.636,648.815 204.948,648.075 205.26,647.335C205.114,647.755 205.008,648.151 204.923,648.588C205.034,647.768 205.144,646.948 205.254,646.127C204.941,648.498 205.36,650.972 205.551,653.341C205.758,655.909 206.041,658.461 206.337,661.02C206.574,663.067 205.18,666.024 203.703,667.38C202.217,668.744 200.546,669.584 198.538,669.854C194.139,670.445 189.902,667.753 188.669,663.411C187.669,659.892 187.126,656.163 187.059,652.506C187.032,651.028 187.113,649.555 187.277,648.086C187.513,645.971 187.72,643.608 188.419,641.562C189.885,637.269 193.731,634.465 198.341,635.084C202.543,635.649 206.457,639.458 206.182,643.966C205.953,647.729 205.924,651.582 205.31,655.304C204.808,658.35 204.18,661.379 203.611,664.413C203.126,666.998 200.123,669.145 197.547,669.03C194.851,668.909 192.129,667.177 191.483,664.413" style="fill-rule:nonzero;"/>
                                        </g>
                                        <g transform="matrix(1,0,0,-1,-170,1481.84)">
                                            <path d="M428.336,723.981C428.284,723.841 428.233,723.7 428.181,723.56C428.922,724.831 429.663,726.103 430.405,727.374C430.137,727.162 429.869,726.951 429.602,726.739C429.068,726.048 428.535,725.358 428.001,724.667C427.253,723.492 426.848,722.224 426.787,720.862C426.493,718.68 426.772,716.241 428.001,714.335C430.535,710.405 434.978,708.557 439.561,709.631C445.014,710.908 449.018,714.694 452.836,718.53C455.597,721.304 458.62,723.856 461.714,726.251C460.95,725.661 460.187,725.072 459.424,724.482C465.358,729.027 471.911,732.531 478.773,735.452C477.846,735.061 476.919,734.67 475.992,734.278C485.641,738.34 495.865,740.842 506.223,742.247C505.189,742.108 504.155,741.969 503.121,741.83C519.543,744.012 536.231,742.645 552.551,745.816C557.859,746.848 563.057,748.499 567.91,750.901C570.312,752.09 572.67,755.272 573.259,757.858C573.852,760.461 573.716,762.966 572.673,765.438C571.729,767.674 570.117,769.838 567.91,771.004C565.292,772.387 561.824,773.278 558.94,772.178C553.257,770.011 547.583,768.428 541.548,767.592C542.585,767.731 543.621,767.87 544.657,768.01C536.385,766.903 528.033,766.836 519.707,766.513C511.214,766.183 502.755,765.35 494.382,763.863C479.35,761.191 464.263,755.934 451.806,746.948C447.876,744.113 443.973,741.1 440.68,737.526C437.914,734.522 435.706,730.831 432.499,728.27C433.201,728.813 433.904,729.356 434.606,729.899C433.902,729.372 433.181,728.934 432.374,728.582C433.192,728.927 434.01,729.272 434.828,729.617C434.597,729.519 434.36,729.438 434.119,729.371L439.561,729.371C439.312,729.447 439.064,729.522 438.815,729.597C440.828,727.585 442.84,725.572 444.853,723.56C444.809,723.7 444.766,723.841 444.722,723.981C443.652,727.429 440.316,730.388 436.529,730.219C432.558,730.041 429.682,727.649 428.336,723.981" style="fill-rule:nonzero;"/>
                                        </g>
                                    </g>
                                </g>
                                <g opacity="0.57">
                                    <g>
                                        <clipPath id="_clip3">
                                            <rect x="85.955" y="327.398" width="145.574" height="252.348"/>
                                        </clipPath>
                                        <g clip-path="url(#_clip3)">
                                            <g>
                                                <g>
                                                    <clipPath id="_clip4">
                                                        <rect x="85.75" y="327.25" width="146" height="252.5" clip-rule="nonzero"/>
                                                    </clipPath>
                                                    <g clip-path="url(#_clip4)">
                                                        <g transform="matrix(1,0,0,-1,-170,675.371)">
                                                            <path d="M323.242,339.583L323.197,339.629L323.907,338.411C323.869,338.719 323.757,339.007 323.572,339.273C323.407,339.487 323.243,339.7 323.078,339.913C322.791,340.222 322.452,340.44 322.06,340.567C321.683,340.765 321.277,340.856 320.842,340.84C320.406,340.856 320,340.765 319.623,340.567C319.231,340.44 318.892,340.222 318.605,339.913C318.297,339.627 318.079,339.288 317.951,338.896C317.753,338.519 317.663,338.113 317.679,337.677C317.717,337.397 317.754,337.117 317.792,336.836C317.942,336.301 318.213,335.836 318.605,335.441C318.819,335.276 319.032,335.111 319.245,334.946C319.739,334.66 320.271,334.516 320.842,334.515L321.682,334.628C322.094,334.725 322.452,334.914 322.758,335.194C323.102,335.417 323.374,335.712 323.572,336.081C323.757,336.348 323.869,336.635 323.907,336.943C323.671,336.537 323.434,336.131 323.197,335.725L323.242,335.771C323.505,336.015 323.691,336.304 323.799,336.639C323.968,336.96 324.045,337.306 324.031,337.677L323.935,338.394C323.807,338.85 323.576,339.247 323.242,339.583" style="fill-rule:nonzero;"/>
                                                        </g>
                                                        <g transform="matrix(1,0,0,-1,-170,692.893)">
                                                            <path d="M331.633,343.429C335.516,343.429 335.523,349.464 331.633,349.464C327.75,349.464 327.743,343.429 331.633,343.429" style="fill-rule:nonzero;"/>
                                                        </g>
                                                        <g transform="matrix(-1,0,0,-1,499.444,670.241)">
                                                            <path d="M334.722,331.517C332.775,331.517 331.118,333.173 331.118,335.121C331.118,337.075 332.768,338.724 334.722,338.724C336.669,338.724 338.326,337.068 338.326,335.121C338.326,333.166 336.676,331.517 334.722,331.517" style="fill-rule:nonzero;"/>
                                                        </g>
                                                        <g transform="matrix(1,0,0,-1,-170,654.797)">
                                                            <path d="M345.533,324.381C349.416,324.381 349.423,330.416 345.533,330.416C341.65,330.416 341.643,324.381 345.533,324.381" style="fill-rule:nonzero;"/>
                                                        </g>
                                                        <g transform="matrix(1,0,0,-1,-170,674.359)">
                                                            <path d="M349.136,334.455C352.642,334.455 352.648,339.904 349.136,339.904C345.63,339.904 345.624,334.455 349.136,334.455" style="fill-rule:nonzero;"/>
                                                        </g>
                                                        <g transform="matrix(1,0,0,-1,-170,885.195)">
                                                            <path d="M370.64,440.371C373.505,440.371 373.51,444.824 370.64,444.824C367.775,444.824 367.77,440.371 370.64,440.371" style="fill-rule:nonzero;"/>
                                                        </g>
                                                        <g transform="matrix(1,0,0,-1,-170,879.017)">
                                                            <path d="M383.51,436.901C386.865,436.901 386.871,442.116 383.51,442.116C380.155,442.116 380.149,436.901 383.51,436.901" style="fill-rule:nonzero;"/>
                                                        </g>
                                                        <g transform="matrix(1,0,0,-1,-170,907.847)">
                                                            <path d="M383.51,451.199C387.016,451.199 387.022,456.648 383.51,456.648C380.004,456.648 379.998,451.199 383.51,451.199" style="fill-rule:nonzero;"/>
                                                        </g>
                                                        <g transform="matrix(1,0,0,-1,-170,876.959)">
                                                            <path d="M392.777,435.667C396.396,435.667 396.402,441.292 392.777,441.292C389.158,441.292 389.152,435.667 392.777,435.667" style="fill-rule:nonzero;"/>
                                                        </g>
                                                        <g transform="matrix(1,0,0,-1,-170,895.492)">
                                                            <path d="M401.529,445.461C404.47,445.461 404.475,450.031 401.529,450.031C398.588,450.031 398.583,445.461 401.529,445.461" style="fill-rule:nonzero;"/>
                                                        </g>
                                                        <g transform="matrix(1,0,0,-1,-170,876.165)">
                                                            <path d="M322.366,435.475C325.721,435.475 325.727,440.69 322.366,440.69C319.01,440.69 319.005,435.475 322.366,435.475" style="fill-rule:nonzero;"/>
                                                        </g>
                                                        <g transform="matrix(1,0,0,-1,-170,896.758)">
                                                            <path d="M320.822,445.596C324.404,445.596 324.41,451.162 320.822,451.162C317.24,451.162 317.234,445.596 320.822,445.596" style="fill-rule:nonzero;"/>
                                                        </g>
                                                        <g transform="matrix(1,0,0,-1,-170,916.321)">
                                                            <path d="M277.577,455.817C280.593,455.817 280.598,460.504 277.577,460.504C274.561,460.504 274.556,455.817 277.577,455.817" style="fill-rule:nonzero;"/>
                                                        </g>
                                                        <g transform="matrix(1,0,0,-1,-170,897.76)">
                                                            <path d="M266.666,446.634C266.732,446.624 266.798,446.614 266.864,446.603L266.961,446.588L267.024,446.579C267.234,446.55 267.445,446.522 267.655,446.494C267.865,446.522 268.075,446.55 268.285,446.579C268.483,446.646 268.675,446.727 268.86,446.822C269.215,447.032 269.499,447.315 269.709,447.671C269.923,448.04 270.031,448.438 270.032,448.866C270.031,449.293 269.923,449.691 269.709,450.061C269.499,450.416 269.215,450.699 268.86,450.91C268.766,450.958 268.669,450.999 268.569,451.033C268.384,451.141 268.184,451.195 267.97,451.195C267.655,451.266 267.339,451.252 267.024,451.153L267.015,451.151C266.998,451.149 266.982,451.146 266.966,451.144C266.932,451.139 266.898,451.134 266.864,451.128L266.666,451.098C266.482,451.02 266.297,450.942 266.113,450.864C265.843,450.719 265.627,450.52 265.464,450.268C265.32,450.124 265.221,449.954 265.166,449.757C265.021,449.482 264.955,449.184 264.967,448.866C264.994,448.661 265.022,448.456 265.05,448.251C265.127,448.066 265.205,447.882 265.283,447.698C265.428,447.428 265.627,447.211 265.879,447.048C266.102,446.844 266.365,446.706 266.666,446.634" style="fill-rule:nonzero;"/>
                                                        </g>
                                                        <g transform="matrix(1,0,0,-1,-170,915.292)">
                                                            <path d="M266.766,455.39C269.669,455.39 269.674,459.902 266.766,459.902C263.863,459.902 263.858,455.39 266.766,455.39" style="fill-rule:nonzero;"/>
                                                        </g>
                                                        <g transform="matrix(1,0,0,-1,-170,904.995)">
                                                            <path d="M255.955,450.271C258.82,450.271 258.825,454.724 255.955,454.724C253.09,454.724 253.085,450.271 255.955,450.271" style="fill-rule:nonzero;"/>
                                                        </g>
                                                        <g transform="matrix(1,0,0,-1,-170,930.737)">
                                                            <path d="M264.192,463.435C266.68,463.435 266.684,467.302 264.192,467.302C261.704,467.302 261.7,463.435 264.192,463.435" style="fill-rule:nonzero;"/>
                                                        </g>
                                                        <g transform="matrix(1,0,0,-1,-170,1153.08)">
                                                            <path d="M309.279,576.424C309.269,576.512 309.26,576.599 309.25,576.686C309.264,577.062 309.186,577.411 309.015,577.736C308.905,578.074 308.717,578.366 308.452,578.613C308.205,578.879 307.913,579.067 307.575,579.176C307.25,579.347 306.9,579.425 306.525,579.411C306.284,579.379 306.042,579.346 305.801,579.314C305.339,579.184 304.938,578.951 304.599,578.613C304.456,578.429 304.314,578.245 304.172,578.062C303.926,577.637 303.802,577.178 303.8,576.686C303.791,576.599 303.781,576.512 303.771,576.424C303.757,576.045 303.836,575.691 304.008,575.363C304.119,575.022 304.309,574.726 304.578,574.477C304.827,574.208 305.123,574.018 305.464,573.907C305.792,573.735 306.146,573.656 306.525,573.67C306.769,573.703 307.013,573.736 307.257,573.768C307.724,573.899 308.129,574.135 308.472,574.477C308.616,574.662 308.759,574.848 308.903,575.034C309.152,575.464 309.277,575.927 309.279,576.424" style="fill-rule:nonzero;"/>
                                                        </g>
                                                        <g transform="matrix(1,0,0,-1,-170,1151.25)">
                                                            <path d="M326.549,577.74C326.453,577.664 326.358,577.588 326.262,577.512C326.002,577.271 325.818,576.985 325.711,576.654C325.544,576.336 325.467,575.994 325.481,575.627C325.513,575.391 325.545,575.154 325.576,574.918C325.703,574.467 325.932,574.074 326.262,573.742C326.358,573.666 326.453,573.59 326.549,573.514L327.154,573.047L327.868,572.745C328.265,572.621 328.662,572.603 329.059,572.692C329.329,572.693 329.58,572.761 329.813,572.896C330.066,572.967 330.286,573.095 330.473,573.28C330.697,573.413 330.876,573.592 331.009,573.816C331.194,574.003 331.322,574.222 331.393,574.476C331.58,574.832 331.666,575.216 331.65,575.627C331.615,575.892 331.579,576.157 331.544,576.421C331.443,576.659 331.343,576.897 331.242,577.135C331.087,577.337 330.931,577.538 330.775,577.74C330.573,577.896 330.372,578.051 330.17,578.207C329.932,578.308 329.694,578.408 329.456,578.508C329.059,578.633 328.662,578.651 328.265,578.562C327.995,578.561 327.744,578.493 327.511,578.358C327.14,578.237 326.82,578.031 326.549,577.74" style="fill-rule:nonzero;"/>
                                                        </g>
                                                        <g transform="matrix(1,0,0,-1,-170,1133.75)">
                                                            <path d="M334.84,564.209C338.271,564.209 338.277,569.541 334.84,569.541C331.409,569.541 331.403,564.209 334.84,564.209" style="fill-rule:nonzero;"/>
                                                        </g>
                                                        <g transform="matrix(1,0,0,-1,-170,1134.78)">
                                                            <path d="M344.107,564.782C347.462,564.782 347.468,569.997 344.107,569.997C340.752,569.997 340.746,564.782 344.107,564.782" style="fill-rule:nonzero;"/>
                                                        </g>
                                                        <g transform="matrix(1,0,0,-1,-170,1149.19)">
                                                            <path d="M353.373,572.224C356.427,572.224 356.432,576.97 353.373,576.97C350.319,576.97 350.314,572.224 353.373,572.224" style="fill-rule:nonzero;"/>
                                                        </g>
                                                        <g transform="matrix(1,0,0,-1,-170,1159.49)">
                                                            <path d="M337.929,577.168C341.247,577.168 341.252,582.324 337.929,582.324C334.611,582.324 334.606,577.168 337.929,577.168" style="fill-rule:nonzero;"/>
                                                        </g>
                                                    </g>
                                                </g>
                                            </g>
                                        </g>
                                    </g>
                                </g>
                            </g>
                        </g>
                    </g>
                </g>
            </g>
        </g>
    </g>
</svg>
