<?xml version="1.0" encoding="UTF-8" standalone="no"?>
<!DOCTYPE svg PUBLIC "-//W3C//DTD SVG 1.1//EN" "http://www.w3.org/Graphics/SVG/1.1/DTD/svg11.dtd">
<svg width="100%" height="100%" viewBox="0 0 340 350" version="1.1" xmlns="http://www.w3.org/2000/svg" xmlns:xlink="http://www.w3.org/1999/xlink" xml:space="preserve" xmlns:serif="http://www.serif.com/" style="fill-rule:evenodd;clip-rule:evenodd;stroke-linecap:round;stroke-linejoin:round;">
    <g transform="matrix(1,0,0,1,-1882,-740)">
        <g id="img_2-1" transform="matrix(1.06022,0,0,1.05214,-114.372,-39.4907)">
            <rect x="1882.98" y="740.863" width="320.687" height="332.656" style="fill:none;"/>
            <g transform="matrix(0.943198,0,0,0.950445,1850.84,391.248)">
                <g>
                    <g transform="matrix(1,0,0,-1,35.0481,696.806)">
                        <path d="M310.309,26.689C306.515,34.336 301.766,41.538 296.013,47.862C295.827,48.058 295.641,48.265 295.455,48.461C293.917,56.311 292.186,64.121 290.26,71.889C299.555,84.82 304.207,102.032 307.386,116.775C313.944,147.105 314.758,179.06 307.552,209.357C301.362,235.369 289.226,259.843 271.379,279.835C253.717,299.62 231.026,314.465 205.279,321.252C176.48,328.841 145.402,326.385 117.632,315.936C91.215,306.004 67.699,289.098 48.7,268.337C29.798,247.683 15.203,222.853 7.683,195.809C0.214,168.963 0.715,140.52 9.15,113.959C11.485,106.616 14.428,99.469 17.901,92.6L17.903,92.558C17.95,91.881 18.244,91.402 18.663,91.095C27.52,74.058 39.754,58.811 54.722,46.701C69.583,34.677 86.907,25.683 105.28,20.341C106.569,19.957 106.736,20.085 108.032,19.742C107.96,21.274 107.949,22.809 107.949,24.344C106.663,24.687 106.515,24.56 105.237,24.944C93.882,28.369 82.966,33.197 72.771,39.353C62.086,45.801 52.403,53.736 43.947,62.809C44.623,64.011 45.183,65.277 45.787,66.505C46.65,68.262 47.461,70.027 48.335,71.774C50.055,75.217 51.933,78.585 54.1,81.762C58.243,87.84 63.583,93.291 70.338,96.419C72.108,97.237 73.956,97.924 75.849,98.357C77.742,98.799 79.636,98.84 81.54,99.056C81.53,98.303 81.519,97.561 81.507,96.808C81.406,90.311 81.316,83.814 81.214,77.317C81.164,74.059 81.001,70.773 81.107,67.512C81.194,64.745 81.764,61.829 83.643,59.685C85.511,57.539 88.553,56.158 91.342,57.371C92.469,57.854 93.415,58.668 94.051,59.661C95.051,59.261 96.192,59.138 97.347,59.314C100.821,59.853 102.678,63.044 103.487,66.18C104.391,69.671 104.557,73.44 104.484,77.053C111.456,77.719 117.914,80.789 122.855,85.838C125.355,88.385 127.385,91.431 128.826,94.693C129.855,96.996 130.904,99.876 131.157,102.62C136.126,102.972 141.079,102.849 145.958,101.423C155.246,98.681 161.797,91.122 165.964,82.671C168.685,77.143 170.591,71.259 172.473,65.406C171.917,64.745 171.362,64.083 170.799,63.427C169.896,62.39 168.899,61.408 168.35,60.121C168.194,59.762 168.162,59.41 168.21,59.093C167.499,58.529 166.789,57.935 166.101,57.331C157.06,49.411 150.67,39.359 145.64,28.926C145.454,28.565 145.288,28.206 145.112,27.836C144.105,25.691 143.13,23.525 142.197,21.352L141.213,18.98C141.057,18.611 140.901,18.252 140.757,17.884C140.328,16.861 139.91,15.828 139.502,14.796C139.312,14.312 139.112,13.827 138.921,13.343C138.251,11.648 137.58,9.952 136.919,8.258C135.905,5.678 140.121,3.938 141.134,6.539C142.194,9.244 143.271,11.981 144.4,14.732C144.953,16.122 145.537,17.504 146.122,18.896C153.381,35.92 162.802,52.608 180.445,62.055C183.15,63.5 186.01,64.715 188.956,65.669C191.955,66.635 195.023,67.049 198.088,67.73C198.678,67.864 199.189,68.13 199.487,68.547C199.478,68.506 199.481,68.454 199.473,68.413C198.752,60.037 198.259,51.633 198.251,43.225C198.249,35.476 198.303,27.442 200.084,19.861C200.915,16.321 202.087,12.922 203.858,9.731C205.411,6.93 207.508,3.416 210.906,2.704C214.595,1.925 217.309,5.102 218.553,8.188C219.179,9.757 219.486,12.072 220.392,13.801C220.932,10.873 222.858,8.226 225.839,7.223C228.955,6.186 232.485,7.222 234.741,9.508C235.928,6.801 237.488,4.268 240.066,2.718C243.239,0.809 247.49,0.72 250.15,3.543C251.495,4.965 252.102,6.873 252.61,8.714C253.274,11.11 253.856,13.511 254.466,15.915C254.952,17.806 255.436,19.707 255.931,21.609C256.872,16.972 258.443,12.524 261.509,8.784C265.746,3.625 272.286,0.64 278.874,2.842C281.061,3.569 283.05,4.882 284.522,6.641C287.775,4.221 292.777,6.614 294.745,9.843C297.678,14.66 295.365,20.83 294.088,25.79C291.975,33.969 289.873,42.141 287.74,50.31C288.916,49.147 290.062,47.962 291.169,46.755C292.065,45.794 292.943,44.801 293.811,43.806C295.748,41.541 297.596,39.19 299.316,36.727C304.007,30.026 307.762,22.718 310.559,15.028C311.359,12.815 312.078,10.586 312.705,8.322C313.332,6.06 313.746,3.753 314.384,1.5C315.02,-0.744 318.481,0.227 318.248,2.44C317.823,6.673 316.436,10.987 315.115,15.007C313.785,19.005 312.183,22.906 310.309,26.689" style="fill:white;fill-rule:nonzero;"/>
                    </g>
                    <g transform="matrix(1,0,0,-1,35.0481,696.806)">
                        <path d="M310.309,26.689C306.515,34.336 301.766,41.538 296.013,47.862C295.827,48.058 295.641,48.265 295.455,48.461C293.917,56.311 292.186,64.121 290.26,71.889C299.555,84.82 304.207,102.032 307.386,116.775C313.944,147.105 314.758,179.06 307.552,209.357C301.362,235.369 289.226,259.843 271.379,279.835C253.717,299.62 231.026,314.465 205.279,321.252C176.48,328.841 145.402,326.385 117.632,315.936C91.215,306.004 67.699,289.098 48.7,268.337C29.798,247.683 15.203,222.853 7.683,195.809C0.214,168.963 0.715,140.52 9.15,113.959C11.485,106.616 14.428,99.469 17.901,92.6L17.903,92.558C17.95,91.881 18.244,91.402 18.663,91.095C27.52,74.058 39.754,58.811 54.722,46.701C69.583,34.677 86.907,25.683 105.28,20.341C106.569,19.957 106.736,20.085 108.032,19.742C107.96,21.274 107.949,22.809 107.949,24.344C106.663,24.687 106.515,24.56 105.237,24.944C93.882,28.369 82.966,33.197 72.771,39.353C62.086,45.801 52.403,53.736 43.947,62.809C44.623,64.011 45.183,65.277 45.787,66.505C46.65,68.262 47.461,70.027 48.335,71.774C50.055,75.217 51.933,78.585 54.1,81.762C58.243,87.84 63.583,93.291 70.338,96.419C72.108,97.237 73.956,97.924 75.849,98.357C77.742,98.799 79.636,98.84 81.54,99.056C81.53,98.303 81.519,97.561 81.507,96.808C81.406,90.311 81.316,83.814 81.214,77.317C81.164,74.059 81.001,70.773 81.107,67.512C81.194,64.745 81.764,61.829 83.643,59.685C85.511,57.539 88.553,56.158 91.342,57.371C92.469,57.854 93.415,58.668 94.051,59.661C95.051,59.261 96.192,59.138 97.347,59.314C100.821,59.853 102.678,63.044 103.487,66.18C104.391,69.671 104.557,73.44 104.484,77.053C111.456,77.719 117.914,80.789 122.855,85.838C125.355,88.385 127.385,91.431 128.826,94.693C129.855,96.996 130.904,99.876 131.157,102.62C136.126,102.972 141.079,102.849 145.958,101.423C155.246,98.681 161.797,91.122 165.964,82.671C168.685,77.143 170.591,71.259 172.473,65.406C171.917,64.745 171.362,64.083 170.799,63.427C169.896,62.39 168.899,61.408 168.35,60.121C168.194,59.762 168.162,59.41 168.21,59.093C167.499,58.529 166.789,57.935 166.101,57.331C157.06,49.411 150.67,39.359 145.64,28.926C145.454,28.565 145.288,28.206 145.112,27.836C144.105,25.691 143.13,23.525 142.197,21.352L141.213,18.98C141.057,18.611 140.901,18.252 140.757,17.884C140.328,16.861 139.91,15.828 139.502,14.796C139.312,14.312 139.112,13.827 138.921,13.343C138.251,11.648 137.58,9.952 136.919,8.258C135.905,5.678 140.121,3.938 141.134,6.539C142.194,9.244 143.271,11.981 144.4,14.732C144.953,16.122 145.537,17.504 146.122,18.896C153.381,35.92 162.802,52.608 180.445,62.055C183.15,63.5 186.01,64.715 188.956,65.669C191.955,66.635 195.023,67.049 198.088,67.73C198.678,67.864 199.189,68.13 199.487,68.547C199.478,68.506 199.481,68.454 199.473,68.413C198.752,60.037 198.259,51.633 198.251,43.225C198.249,35.476 198.303,27.442 200.084,19.861C200.915,16.321 202.087,12.922 203.858,9.731C205.411,6.93 207.508,3.416 210.906,2.704C214.595,1.925 217.309,5.102 218.553,8.188C219.179,9.757 219.486,12.072 220.392,13.801C220.932,10.873 222.858,8.226 225.839,7.223C228.955,6.186 232.485,7.222 234.741,9.508C235.928,6.801 237.488,4.268 240.066,2.718C243.239,0.809 247.49,0.72 250.15,3.543C251.495,4.965 252.102,6.873 252.61,8.714C253.274,11.11 253.856,13.511 254.466,15.915C254.952,17.806 255.436,19.707 255.931,21.609C256.872,16.972 258.443,12.524 261.509,8.784C265.746,3.625 272.286,0.64 278.874,2.842C281.061,3.569 283.05,4.882 284.522,6.641C287.775,4.221 292.777,6.614 294.745,9.843C297.678,14.66 295.365,20.83 294.088,25.79C291.975,33.969 289.873,42.141 287.74,50.31C288.916,49.147 290.062,47.962 291.169,46.755C292.065,45.794 292.943,44.801 293.811,43.806C295.748,41.541 297.596,39.19 299.316,36.727C304.007,30.026 307.762,22.718 310.559,15.028C311.359,12.815 312.078,10.586 312.705,8.322C313.332,6.06 313.746,3.753 314.384,1.5C315.02,-0.744 318.481,0.227 318.248,2.44C317.823,6.673 316.436,10.987 315.115,15.007C313.785,19.005 312.183,22.906 310.309,26.689Z" style="fill:none;fill-rule:nonzero;stroke:black;stroke-width:4.86px;"/>
                    </g>
                    <g transform="matrix(1,0,0,-1,36.8193,947.885)">
                        <path d="M112.654,251.952C112.654,251.952 116.014,238.022 140.466,254.784C149.201,260.771 160.191,290.363 160.191,290.363L149.715,314.385L128.422,327.233C128.422,327.233 113.951,336.368 103.814,322.586C83.395,294.822 94.923,304.468 97.079,295.213C99.235,285.957 106.117,276.522 106.117,276.522L106.202,271.92L112.654,251.952Z" style="fill:white;fill-rule:nonzero;"/>
                    </g>
                    <g transform="matrix(1,0,0,-1,35.8135,896.304)">
                        <path d="M41.084,262.89C41.084,262.89 47.49,285.088 58.015,292.487C68.539,299.885 84.343,303.473 84.374,302.889C84.406,302.305 103.572,276.226 103.572,276.226C103.572,276.226 114.954,278.598 121.069,284.587C127.182,290.576 129.62,303.194 129.62,303.194C129.62,303.194 156.354,303.082 164.752,288.514C173.15,273.948 175.492,263.149 175.492,263.149C175.492,263.149 160.425,245.944 156.799,240.87C153.171,235.797 144.982,221.306 144.982,221.306C144.982,221.306 143.119,234.082 141.626,232.83C140.133,231.578 138.866,229.754 138.866,229.754C138.866,229.754 143.379,258.093 138.647,259.007C133.915,259.92 130.669,240.626 130.669,240.626C130.669,240.626 127.78,261.54 123.989,263.09C120.198,264.64 117.959,262.763 117.959,262.763C117.959,262.763 116.712,267.768 114.331,264.907C111.95,262.048 113.008,246.107 113.008,246.107C113.008,246.107 108.401,259.124 105.015,256.795C101.631,254.464 101.215,251.32 103.724,244.628C106.233,237.935 107.775,220.265 107.202,220.039C106.63,219.814 68.784,234.151 57.884,244.486C46.984,254.82 41.084,262.89 41.084,262.89" style="fill:rgb(241,217,42);fill-rule:nonzero;"/>
                    </g>
                    <g transform="matrix(1,0,0,-1,37.7378,949.155)">
                        <path d="M138.27,258.096C138.27,258.096 215.64,248.826 262.247,249.205C308.855,249.584 314.759,252.246 314.632,254.579C314.506,256.914 309.409,275.367 301.147,287.406C292.887,299.444 276.287,314.152 269.604,318.668C262.921,323.183 204.983,326.677 184.765,318.168C164.545,309.659 150.174,286.835 146.122,278.811C142.07,270.788 138.27,258.096 138.27,258.096" style="fill:rgb(241,217,42);fill-rule:nonzero;"/>
                    </g>
                    <g transform="matrix(1,0,0,-1,37.678,987.715)">
                        <path d="M139.834,308.524C141.465,308.457 143.102,308.433 144.74,308.439C144.156,307.048 143.572,305.668 143.019,304.279C142.206,304.276 141.382,304.272 140.568,304.279C139.754,304.298 138.94,304.315 138.125,304.342C137.629,304.358 137.145,304.372 136.649,304.396C136.037,305.805 135.577,307.273 135.25,308.759C136.51,308.672 137.78,308.607 139.04,308.552C139.308,308.546 139.566,308.53 139.834,308.524" style="fill-rule:nonzero;"/>
                    </g>
                    <g transform="matrix(1,0,0,-1,36.9692,961.917)">
                        <path d="M114.049,297.744C113.005,297.636 112.285,298.379 112.069,299.326C110.598,305.558 109.006,311.958 106.655,317.917C106.308,318.804 105.153,321.51 103.826,320.522C101.867,319.057 104.081,315.254 104.674,313.608C106.592,308.254 107.793,302.615 108.234,296.934C108.475,293.828 108.428,290.705 108.431,287.596C108.432,286.062 108.443,284.528 108.516,282.998C108.559,281.826 108.642,280.657 108.768,279.49C109.316,274.68 110.933,270.319 113.999,266.542C115.235,265.024 112.969,262.944 111.531,264.215C106.569,268.569 105.053,275.654 104.72,281.979C104.682,282.676 104.654,283.385 104.637,284.085C104.595,285.616 104.594,287.151 104.594,288.685C104.584,293.247 104.604,297.798 103.843,302.349C103.298,305.574 102.478,308.731 101.404,311.824C100.416,314.664 98.758,317.694 99.777,320.756C100.628,323.304 103.238,325.093 105.907,324.115C107.935,323.37 109.186,321.379 109.97,319.444C110.041,319.263 110.113,319.091 110.173,318.92C111.633,314.973 112.842,310.899 113.909,306.797C114.52,304.442 115.091,302.083 115.64,299.735C115.867,298.789 114.93,297.833 114.049,297.744" style="fill-rule:nonzero;"/>
                    </g>
                    <g transform="matrix(1,0,0,-1,37.1641,916.521)">
                        <path d="M121.313,258.158C121.314,256.058 118.03,255.664 118.017,257.794C117.999,262.509 117.642,267.196 116.967,271.865C116.624,274.194 116.23,276.52 115.735,278.821C115.531,279.747 115.017,283.332 113.381,282.924C112.212,282.645 112.805,279.506 112.855,278.768C113.024,276.398 113.184,274.017 113.323,271.646C113.463,269.265 113.591,266.884 113.699,264.511C113.746,263.462 113.74,262.432 113.714,261.401C113.684,260.041 113.624,258.689 113.626,257.319C113.621,256.083 111.854,255.823 111.681,257.101C111.484,258.449 111.104,259.768 110.918,261.117C110.751,262.292 110.666,263.482 110.55,264.67C110.311,267.2 110.111,269.742 109.901,272.285C109.859,272.869 109.806,273.464 109.774,274.049C109.646,275.668 109.527,277.279 109.419,278.89C109.299,280.551 109.12,282.312 109.787,283.883C111.157,287.119 114.921,286.808 116.994,284.665C117.299,284.352 117.565,284.005 117.782,283.616C118.021,283.186 118.22,282.744 118.389,282.28C118.897,280.897 119.133,279.396 119.416,277.969C119.851,275.831 120.216,273.668 120.487,271.499C121.046,267.082 121.308,262.617 121.313,258.158" style="fill-rule:nonzero;"/>
                    </g>
                    <g transform="matrix(1,0,0,-1,37.2922,917.365)">
                        <path d="M129.965,258.293C129.865,257.115 128.722,256.733 127.829,257.066C127.273,257.241 126.816,257.691 126.729,258.355C126.384,260.931 126.546,263.627 126.323,266.231C126.129,268.681 125.81,271.135 125.228,273.523C124.633,275.951 123.78,278.387 122.51,280.553C121.852,281.67 119.846,284.486 118.261,283.124C118.192,283.078 118.134,283.024 118.075,282.958C116.918,281.702 115.095,283.24 116.038,284.63C116.277,284.983 116.559,285.275 116.866,285.509C118.584,286.878 121.178,286.514 122.898,285.166C125.198,283.375 126.557,280.154 127.505,277.487C128.461,274.842 129.024,272.061 129.381,269.269C129.432,268.901 129.472,268.543 129.513,268.174C129.851,264.97 130.234,261.511 129.965,258.293" style="fill-rule:nonzero;"/>
                    </g>
                    <g transform="matrix(1,0,0,-1,37.5249,946.705)">
                        <path d="M141.447,302.9C141.502,300.174 141.279,297.454 140.91,294.757C140.461,291.458 139.779,288.085 139.221,284.698C138.794,282.131 138.439,279.558 138.32,277.009C138.153,273.808 138.345,270.637 139.193,267.542C139.296,267.167 139.409,266.792 139.532,266.417C139.816,265.547 140.151,264.681 140.558,263.817C140.651,263.626 140.702,263.444 140.722,263.269C140.927,261.757 138.862,260.913 137.698,261.88C137.504,262.045 137.327,262.251 137.2,262.523C137.061,262.803 136.932,263.095 136.802,263.386C136.191,264.795 135.73,266.263 135.403,267.748C135.063,269.254 134.868,270.788 134.773,272.338C134.695,273.405 134.667,274.484 134.701,275.557C134.698,276.195 134.726,276.824 134.763,277.465C135.038,282.268 136.04,286.966 136.854,291.695C137.261,294.075 137.616,296.463 137.805,298.872C137.975,301.044 138.201,303.517 137.592,305.636C137.262,306.791 135.624,308.886 134.51,307.23C134.024,306.503 133.923,305.509 133.773,304.667C133.551,303.44 133.33,302.202 133.108,300.965C132.676,298.501 132.232,296.037 131.8,293.574C131.374,291.172 131.006,288.66 130.141,286.369C129.729,285.244 127.941,285.363 127.596,286.405C127.548,286.517 127.532,286.639 127.525,286.773C127.485,289.962 128.229,293.174 128.759,296.302C128.893,297.071 129.015,297.839 129.149,298.608C129.537,300.947 129.914,303.284 130.335,305.613C130.708,307.652 131.393,309.83 133.345,310.853C135.427,311.953 137.942,311.153 139.464,309.484C141.083,307.709 141.405,305.215 141.447,302.9" style="fill-rule:nonzero;"/>
                    </g>
                    <g transform="matrix(1,0,0,-1,37.6611,965.004)">
                        <path d="M144.275,295.751C144.255,295.534 144.248,295.317 144.239,295.1C144.153,292.871 144.184,290.588 143.975,288.362C143.801,286.643 141.105,286.621 140.835,288.182C140.811,288.263 140.806,288.335 140.8,288.417C140.74,290.885 140.954,293.378 141.037,295.843C141.063,296.885 141.142,298.073 141.09,298.842C141.082,299.007 141.072,299.182 141.043,299.345C141.027,299.447 141.01,299.549 140.995,299.651C140.983,299.681 140.972,299.701 140.97,299.742C140.923,299.863 140.875,299.974 140.828,300.084C140.817,300.105 140.795,300.124 140.771,300.174C140.762,300.164 140.751,300.163 140.721,300.151C140.561,300.07 140.346,299.843 140.134,299.573C139.606,298.875 139.197,297.875 138.813,296.989C138.575,296.43 138.369,295.873 138.182,295.307C137.686,293.829 137.325,292.316 136.861,290.829C136.554,289.824 135.171,289.914 134.637,290.637C134.514,290.795 134.432,290.986 134.421,291.201C134.362,292.084 134.417,292.972 134.564,293.855C134.793,295.35 135.249,296.817 135.793,298.195C136.47,299.931 137.397,302.02 139.084,302.997C139.204,303.065 139.325,303.123 139.455,303.181C141.375,304.037 143.428,302.841 144.035,300.928C144.557,299.278 144.367,297.476 144.275,295.751" style="fill-rule:nonzero;"/>
                    </g>
                    <g transform="matrix(1,0,0,-1,38.4858,1011.44)">
                        <path d="M182.672,322.483C182.377,323.025 181.652,323.213 181.091,323.183C179.897,323.121 179.283,321.871 178.783,320.958C178.484,320.412 178.179,319.87 177.907,319.31C177.346,318.156 176.778,317.005 176.206,315.856C175.803,315.045 176.243,313.906 177.085,313.577C177.502,313.415 177.984,313.361 178.407,313.545C178.856,313.741 179.11,314.042 179.364,314.456C179.668,314.953 179.971,315.451 180.275,315.948C180.825,316.836 181.399,317.711 181.909,318.624C182.13,319.021 182.371,319.414 182.577,319.82C182.687,320.038 182.789,320.275 182.872,320.504C182.993,320.833 183.086,321.222 183.03,321.574C182.976,321.921 182.842,322.172 182.672,322.483" style="fill-rule:nonzero;"/>
                    </g>
                    <g transform="matrix(1,0,0,-1,39.0791,778.143)">
                        <path d="M213.428,204.061C213.202,204.646 212.722,204.953 212.138,205.094C211.574,205.232 211.016,204.961 210.503,204.754C210.188,204.627 209.866,204.509 209.556,204.367C208.894,204.066 208.26,203.725 207.636,203.355C207.392,203.228 207.148,203.102 206.904,202.975C206.568,202.8 206.298,202.607 206.138,202.245C206.002,201.935 205.975,201.505 206.113,201.189C206.256,200.86 206.499,200.556 206.842,200.423C207.201,200.283 207.529,200.291 207.899,200.397L208.848,200.667C209.5,200.816 210.142,200.985 210.778,201.2C211.101,201.309 211.416,201.445 211.733,201.568C212.246,201.769 212.851,201.943 213.167,202.43C213.496,202.937 213.656,203.47 213.428,204.061" style="fill-rule:nonzero;"/>
                    </g>
                    <g transform="matrix(1,0,0,-1,37.8308,907.164)">
                        <path d="M158.014,261.303C157.397,263.921 156.534,266.465 155.362,268.889C153.062,273.638 149.847,278.062 145.432,281.038C143.784,282.148 142.091,280.062 143.487,278.663C146.818,275.325 149.868,271.62 151.885,267.329C152.855,265.263 153.645,263.093 154.174,260.871C154.457,259.681 154.668,258.467 154.817,257.254C154.965,256.052 154.887,254.773 155.141,253.596C155.569,251.611 158.405,251.364 158.805,253.53C159.254,255.955 158.572,258.936 158.014,261.303" style="fill-rule:nonzero;"/>
                    </g>
                    <g transform="matrix(1,0,0,-1,38.583,749.798)">
                        <path d="M180.959,188.684L180.962,188.692L180.969,188.719L180.959,188.684" style="fill-rule:nonzero;"/>
                    </g>
                    <g transform="matrix(1,0,0,-1,38.5808,750.197)">
                        <path d="M180.854,188.718C180.89,188.839 180.925,188.961 180.96,189.082C180.953,189.057 180.941,189.037 180.934,189.011C180.907,188.913 180.881,188.816 180.854,188.718" style="fill-rule:nonzero;"/>
                    </g>
                    <g transform="matrix(1,0,0,-1,38.5488,750.438)">
                        <path d="M186.024,190.278C185.909,190.377 185.782,190.462 185.663,190.555C185.42,190.743 185.162,190.91 184.918,191.095C184.505,191.409 184.135,191.766 183.774,192.136C183.42,192.531 183.093,192.948 182.811,193.398C182.665,193.632 182.51,193.862 182.372,194.102C182.319,194.192 182.164,194.476 182.407,194.027C182.323,194.184 182.244,194.343 182.143,194.49C182.06,194.611 181.978,194.735 181.9,194.859C181.568,195.389 180.745,195.618 180.178,195.371C179.562,195.103 179.194,194.51 179.246,193.835C179.305,193.066 179.53,192.309 179.891,191.627C180.249,190.951 180.643,190.297 181.141,189.713C181.082,189.597 181.038,189.467 180.996,189.331C180.851,188.866 180.717,188.412 180.624,187.933C180.549,187.552 180.497,187.176 180.454,186.792C180.412,186.426 180.37,186.059 180.327,185.693C180.305,185.493 180.278,185.295 180.259,185.095C180.215,184.627 180.245,184.277 180.384,183.829C180.351,183.968 180.316,184.108 180.281,184.247C180.323,183.884 180.409,183.504 180.652,183.218C180.919,182.908 181.265,182.63 181.693,182.585C182.094,182.543 182.509,182.616 182.84,182.864C183.853,183.623 183.79,185.082 183.907,186.225C183.948,186.639 183.976,187.046 183.987,187.46C184.041,187.436 184.091,187.406 184.146,187.383C184.762,187.137 185.423,187.138 185.984,187.539C186.18,187.68 186.312,187.831 186.435,188.03C186.633,188.352 186.66,188.637 186.667,188.998C186.665,189.179 186.646,189.354 186.566,189.538C186.44,189.827 186.264,190.07 186.024,190.278" style="fill-rule:nonzero;"/>
                    </g>
                    <g transform="matrix(1,0,0,-1,38.6931,750.449)">
                        <path d="M186.523,188.973C186.524,189.007 186.524,189.04 186.525,189.075C186.525,189.052 186.523,189.032 186.523,189.01L186.523,188.973" style="fill-rule:nonzero;"/>
                    </g>
                    <g transform="matrix(1,0,0,-1,35.7234,809.041)">
                        <path d="M315.565,125.879C314.237,129.873 312.635,133.772 310.762,137.553C306.972,145.193 302.225,152.391 296.478,158.71C296.291,158.906 296.106,159.112 295.92,159.309C294.757,165.242 293.483,171.152 292.1,177.039C292.014,177.281 291.935,177.527 291.869,177.776C291.104,180.723 290.242,183.641 289.476,186.588C289.237,187.508 289.095,188.422 289.032,189.322C285.167,204.094 280.617,218.688 275.378,233.032C273.108,239.22 270.715,245.372 268.191,251.475C266.082,256.571 263.911,261.664 261.311,266.527C256.464,275.593 249.93,284.249 240.24,288.46C227.923,293.816 213.199,291.145 200.933,287.01C200.478,286.861 200.164,286.567 199.978,286.207C199.287,286.221 198.629,286.206 198.053,286.195C195.903,286.161 193.772,285.777 191.715,285.151C187.551,283.896 183.793,281.428 180.965,278.114C180.037,277.012 180.786,275.55 181.946,275.232C181.699,275.033 181.453,274.824 181.217,274.616C178.701,272.4 176.574,269.844 174.941,266.913C174.172,265.533 173.644,263.877 174.059,262.305C174.54,260.446 176.298,259.357 178.184,259.51C178.666,259.547 179.155,259.646 179.653,259.776C177.282,253.757 176.782,247.017 176.965,240.581C176.907,240.516 176.87,240.452 176.8,240.387C176.102,239.793 175.268,239.398 174.469,238.963C172.437,237.874 170.981,236.426 170.447,234.121C169.996,232.193 170.399,230.083 171.266,228.328C171.74,227.375 172.313,226.49 172.956,225.65C173.267,225.234 173.578,224.819 173.916,224.456C173.459,223.185 173.499,221.704 173.539,220.399C173.583,218.816 173.811,217.263 174.194,215.729C174.929,212.804 176.171,210.018 177.94,207.571C179.544,205.331 181.578,203.341 183.864,201.817C185.424,200.779 187.3,199.593 189.237,199.205C186.409,193.614 182.88,188.419 178.978,183.471C178.113,182.368 177.234,181.278 176.344,180.199C173.182,189.933 169.541,199.723 162.418,207.286C158.932,211 154.712,214.004 149.912,215.752C149.303,215.976 148.695,216.18 148.088,216.364C147.975,217.305 147.584,218.241 147.307,219.183C146.864,220.704 146.432,222.225 146.008,223.757C145.15,226.882 144.34,230.03 143.562,233.18C142.808,236.259 142.085,239.34 141.413,242.434C140.794,245.304 140.306,248.253 139.483,251.081C142.014,255.863 143.306,261.277 143.268,266.732C143.253,269.099 142.961,271.451 142.424,273.76C141.851,276.169 141.008,278.224 139.782,280.331C140.08,281.108 140.175,282.009 140.306,282.839C140.535,284.294 140.651,285.762 140.685,287.226C140.682,287.298 140.678,287.359 140.685,287.432C141.069,287.164 141.53,287.025 142.02,287.103C145.326,287.663 147.574,290.267 148.254,293.485C149.026,297.109 147.337,300.725 145.435,303.712C142.575,308.23 138.905,312.285 134.747,315.684C134.768,315.688 134.789,315.694 134.81,315.699C134.606,315.84 134.406,315.989 134.212,316.148C133.467,316.576 132.806,317.098 132.217,317.7C131.489,318.103 130.832,318.605 130.23,319.167C130.166,319.157 130.104,319.144 130.039,319.135C120.824,325.108 109.9,328.049 98.914,327.413C97.257,327.19 95.61,327.052 93.928,326.949C93.939,326.93 93.95,326.91 93.962,326.891C90.603,326.358 87.283,325.478 84.094,324.296C81.561,323.364 79.215,322.144 76.938,320.767C76.955,320.637 76.972,320.509 76.985,320.378C77.325,316.954 75.907,313.702 73.57,311.323C73.994,310.424 74.389,309.508 74.742,308.571C76.474,303.959 77.296,299.051 77.119,294.151L76.917,294.313C76.894,294.02 76.875,293.751 76.864,293.566C76.809,292.658 76.755,291.751 76.691,290.845C76.485,287.96 76.304,285.048 75.843,282.188C75.572,280.504 75.183,278.809 74.666,277.151C79.54,275.786 83.106,271.03 83.623,265.961C83.856,263.687 83.944,261.409 84.094,259.132C84.158,258.163 84.3,257.191 84.34,256.223C84.385,255.916 84.417,255.686 84.437,255.525C84.502,255.279 84.568,255.034 84.643,254.791C86.5,248.197 83.362,241.803 76.941,239.334C72.78,237.733 67.733,239.139 64.477,242.23C63.916,241.876 63.343,241.543 62.758,241.241C61.15,240.412 59.487,239.626 57.818,238.899C57.338,238.61 56.849,238.337 56.375,238.032C54.369,236.74 52.179,236.116 50.011,236.079C49.782,234.719 49.295,233.42 48.598,232.233C47.895,228.661 47.499,224.984 46.895,221.425C46.073,216.644 45.168,211.879 44.168,207.14C43.185,202.473 42.14,197.825 40.99,193.191C40.416,190.874 39.821,188.566 39.204,186.267C38.867,185.011 38.449,183.73 38.075,182.448C37.809,181.293 37.349,180.193 36.743,179.176C36.83,178.131 36.754,177.104 36.54,176.114C42.199,169.354 48.482,163.114 55.36,157.549C70.211,145.535 87.522,136.547 105.882,131.209C107.169,130.825 108.465,130.463 109.761,130.121C109.688,131.652 109.677,133.186 109.677,134.72C108.392,135.062 107.116,135.425 105.838,135.81C94.492,139.231 83.583,144.056 73.397,150.207C62.719,156.651 53.043,164.58 44.593,173.646C45.269,174.847 45.828,176.113 46.432,177.34C47.294,179.096 48.105,180.859 48.977,182.605C50.696,186.045 52.573,189.41 54.738,192.586C58.879,198.659 64.215,204.107 70.965,207.232C72.734,208.049 74.581,208.736 76.472,209.168C78.364,209.61 80.256,209.65 82.16,209.868C82.149,209.115 82.137,208.374 82.127,207.621C82.025,201.128 81.934,194.637 81.833,188.144C81.783,184.888 81.621,181.605 81.725,178.346C81.814,175.581 82.383,172.667 84.261,170.524C86.127,168.38 89.167,167 91.954,168.212C93.081,168.695 94.025,169.509 94.661,170.5C95.661,170.101 96.8,169.978 97.954,170.153C101.426,170.692 103.282,173.882 104.091,177.015C104.993,180.502 105.159,184.27 105.087,187.88C112.053,188.546 118.507,191.614 123.444,196.659C125.943,199.204 127.97,202.249 129.41,205.508C130.439,207.809 131.488,210.686 131.74,213.429C136.706,213.781 141.655,213.657 146.531,212.232C155.812,209.492 162.358,201.939 166.523,193.495C169.241,187.969 171.145,182.09 173.027,176.241C172.47,175.581 171.915,174.919 171.353,174.264C170.452,173.227 169.455,172.246 168.907,170.961C168.751,170.602 168.718,170.25 168.766,169.933C168.055,169.37 167.347,168.776 166.658,168.172C157.625,160.258 151.239,150.213 146.213,139.788C146.027,139.428 145.861,139.069 145.685,138.699C144.679,136.554 143.705,134.39 142.773,132.219L141.788,129.849C141.633,129.48 141.477,129.122 141.333,128.754C140.904,127.732 140.487,126.7 140.079,125.669C139.889,125.184 139.689,124.7 139.499,124.217C138.829,122.522 138.158,120.828 137.498,119.135C136.484,116.557 140.698,114.818 141.71,117.417C142.768,120.12 143.845,122.856 144.973,125.605C145.526,126.994 146.11,128.374 146.694,129.765C153.947,146.777 163.361,163.452 180.994,172.893C183.695,174.336 186.554,175.551 189.499,176.504C192.494,177.47 195.56,177.883 198.623,178.564C199.212,178.698 199.723,178.963 200.02,179.381C200.012,179.339 200.015,179.288 200.007,179.246C199.287,170.877 198.794,162.479 198.786,154.076C198.783,146.333 198.838,138.305 200.618,130.73C201.448,127.191 202.619,123.795 204.389,120.606C205.941,117.808 208.036,114.297 211.431,113.585C215.118,112.806 217.83,115.981 219.073,119.065C219.698,120.633 220.006,122.946 220.911,124.673C221.45,121.748 223.375,119.102 226.353,118.1C229.468,117.064 232.995,118.1 235.25,120.384C236.436,117.679 237.994,115.148 240.57,113.598C243.742,111.69 247.989,111.602 250.647,114.422C251.991,115.844 252.598,117.751 253.106,119.591C253.77,121.984 254.35,124.385 254.961,126.785C255.445,128.676 255.929,130.576 256.424,132.477C257.364,127.843 258.934,123.398 261.998,119.661C266.232,114.505 272.767,111.523 279.351,113.723C281.536,114.449 283.524,115.761 284.994,117.519C288.245,115.101 293.243,117.492 295.21,120.719C298.141,125.532 295.83,131.698 294.552,136.654C292.441,144.828 290.342,152.993 288.21,161.156C289.385,159.994 290.53,158.81 291.636,157.604C292.533,156.643 293.41,155.651 294.277,154.658C296.212,152.395 298.058,150.044 299.778,147.583C304.466,140.887 308.218,133.584 311.013,125.899C311.812,123.688 312.53,121.462 313.158,119.199C313.784,116.937 314.198,114.633 314.834,112.382C315.471,110.14 318.93,111.11 318.696,113.322C318.271,117.551 316.885,121.863 315.565,125.879M138.234,259.096C138.053,259.025 137.863,258.932 137.682,258.851C137.261,258.653 136.862,258.405 136.463,258.166C135.795,257.759 135.138,257.343 134.482,256.926C133.168,256.083 131.864,255.251 130.55,254.407C129.844,253.957 129.668,252.825 130.188,252.164C130.775,251.412 131.641,251.367 132.432,251.801C133.771,252.553 135.12,253.306 136.46,254.047C136.5,254.071 136.54,254.093 136.569,254.116C133.789,248.415 129.079,243.752 123.317,241C119.453,239.163 115.481,238.362 111.231,238.111C109.004,237.98 108.85,234.161 111.16,234.112C112.561,234.085 113.956,234.181 115.337,234.359C115.063,232.768 115.157,231.013 115.173,229.407C115.194,227.69 115.214,225.98 115.235,224.262C115.256,222.544 115.298,220.827 115.339,219.12C115.361,217.762 115.075,215.821 115.821,214.584C115.2,213.511 116.05,211.693 117.576,211.848C121.006,212.199 124.479,212.706 127.95,213.079C127.888,212.706 127.815,212.33 127.722,211.955C127.365,210.381 126.84,208.859 126.2,207.373C124.911,204.379 123.143,201.647 120.894,199.27C116.745,194.874 110.909,191.984 104.917,191.032C104.647,194.488 104.029,197.903 103.117,201.262C102.987,201.739 102.733,202.065 102.433,202.265C102.012,206.443 101.446,210.603 100.984,214.769C100.372,220.358 99.76,225.947 99.18,231.537C97.997,242.728 96.773,253.906 95.56,265.084C95.22,268.134 94.91,271.185 94.529,274.233C94.506,274.469 94.472,274.714 94.449,274.949C99.245,278.021 102.722,282.853 103.878,288.3C105.768,287.25 108.071,287.116 110.137,287.95C115.035,289.914 116.504,294.73 116.882,299.539C118.326,298.34 120.036,297.567 122.091,297.844C125.679,298.336 126.974,301.784 126.419,305.008C126.085,306.987 125.51,309.036 124.734,311.002C125.281,310.609 125.807,310.206 126.325,309.77C127.221,309.026 128.066,308.237 128.884,307.406C128.917,307.368 128.938,307.348 128.959,307.329C128.972,307.308 128.982,307.299 129.004,307.27C129.091,307.191 129.167,307.102 129.245,307.015C129.453,306.779 129.662,306.532 129.87,306.297C130.267,305.824 130.642,305.349 131.018,304.866C131.405,304.383 132.019,304.076 132.628,304.047C132.875,303.659 133.122,303.281 133.33,302.88C133.925,301.78 134.439,300.644 134.894,299.484C132.754,297.546 131.065,295.447 129.961,292.658C128.744,289.637 128.201,286.364 128.377,283.11C128.576,279.64 129.733,276.511 131.391,273.491C132.271,271.882 133.287,270.216 133.643,268.393C133.785,267.67 133.837,266.92 133.732,266.194C133.605,265.312 133.123,264.699 132.796,263.899C132.141,262.288 134.025,260.599 135.509,261.709C138.438,263.896 137.838,268.713 136.598,271.642C135.711,273.746 134.496,275.657 133.572,277.708C133.728,277.675 133.892,277.673 134.055,277.713C134.349,277.791 134.619,277.939 134.802,278.186C134.897,278.325 134.961,278.473 135.015,278.619C135.054,278.673 135.081,278.716 135.11,278.769C135.249,279.034 135.264,279.354 135.237,279.641C135.23,279.785 135.202,279.917 135.184,280.05C135.132,280.449 135.061,280.815 134.958,281.202L134.76,281.994C134.694,282.258 134.577,282.509 134.482,282.761C134.267,283.295 133.658,283.715 133.055,283.62C132.82,283.588 132.608,283.504 132.41,283.37C132.34,283.325 132.271,283.27 132.203,283.193C131.908,287.708 133.265,292.488 135.969,296.165C136.046,295.892 136.121,295.628 136.188,295.353C136.801,292.782 137.132,290.102 137.079,287.463C137.05,286.091 136.918,284.726 136.714,283.377C136.499,282.015 135.787,280.525 136.686,279.308C136.754,279.219 136.851,279.142 136.947,279.064C139.293,272.642 140.17,265.761 138.438,259.149C138.367,259.134 138.306,259.121 138.234,259.096M197.519,229.153C197.134,226.764 196.779,224.366 196.353,221.975C195.491,217.171 194.422,212.387 192.85,207.762C192.273,206.072 191.631,204.411 190.925,202.796L190.926,202.787C189.542,203.649 187.924,204.22 186.578,205.125C184.579,206.479 182.812,208.114 181.388,210.064C179.887,212.124 178.791,214.495 178.202,216.987C178.124,217.291 178.076,217.618 178.017,217.934C178.384,217.634 178.75,217.335 179.116,217.046C179.6,216.671 180.131,216.37 180.652,216.069C181.108,215.805 181.844,215.907 182.249,216.237C182.486,216.426 182.661,216.599 182.78,216.884C183.062,217.579 182.858,218.289 182.326,218.785C181.958,219.125 181.612,219.447 181.195,219.733C180.808,220.01 180.413,220.278 180.018,220.554C179.225,221.109 178.423,221.663 177.631,222.206C177.621,222.216 177.6,222.225 177.589,222.235C177.581,222.934 177.555,223.624 177.456,224.308C177.501,224.434 177.545,224.56 177.558,224.705C177.611,225.429 177.603,225.973 177.167,226.598C176.877,227.015 176.505,227.397 176.195,227.813C175.664,228.484 175.142,229.197 174.78,229.98C174.118,231.376 173.856,232.968 174.6,234.254C175.353,235.551 177.525,236.132 178.734,237.218C178.881,237.348 179.026,237.501 179.172,237.663L179.182,237.663C180.027,237.854 180.783,238.543 180.754,239.644C180.507,247.054 180.992,254.834 184.563,261.504C184.619,261.61 184.685,261.726 184.752,261.833C185.567,262.166 186.414,262.5 187.237,262.894C187.394,261.142 188.22,259.395 189.617,258.318C191.197,257.085 193.353,256.821 195.195,257.6C194.65,254.75 194.552,251.8 194.812,248.899C195.061,246.205 195.659,243.53 196.579,240.985C197.247,239.106 198.09,237.051 199.274,235.344C197.88,233.703 197.859,231.231 197.519,229.153M217.945,227.871C217.111,226.92 216.124,226.135 215.048,225.48C214.09,224.892 213.099,224.571 212.077,224.248C212.147,224.654 212.209,225.048 212.269,225.453C212.622,228.057 212.746,230.699 212.656,233.32C212.523,236.917 211.917,240.497 210.877,243.932L210.886,243.933C216.135,244.176 220.562,240.193 220.63,234.936C220.67,232.312 219.661,229.828 217.945,227.871" style="fill-rule:nonzero;"/>
                    </g>
                    <g transform="matrix(1,0,0,-1,37.2446,697.422)">
                        <path d="M115.216,166.036C114.848,166.042 114.448,165.951 114.15,165.716C113.791,165.433 113.474,165.016 113.436,164.544C113.386,163.941 113.368,163.338 113.374,162.734C113.377,162.505 113.394,162.277 113.405,162.048C113.411,161.934 113.416,161.82 113.421,161.706C113.429,161.532 113.468,161.368 113.514,161.204C113.539,161.051 113.569,160.899 113.623,160.757C113.748,160.434 113.962,160.151 114.241,159.946C114.564,159.709 114.911,159.574 115.315,159.567C115.654,159.561 116.106,159.639 116.365,159.881C116.382,159.896 116.399,159.912 116.415,159.927C116.531,160.036 116.647,160.145 116.763,160.254C116.932,160.447 117.041,160.665 117.09,160.911C117.135,161.067 117.156,161.113 117.165,161.239C117.167,161.293 117.171,161.339 117.183,161.391L117.041,160.908C117.182,161.251 117.231,161.57 117.215,161.943C117.213,161.995 117.208,162.047 117.204,162.099C117.198,162.213 117.191,162.327 117.184,162.441C117.17,162.669 117.162,162.898 117.142,163.125C117.103,163.582 117.027,164.031 116.94,164.48C116.857,164.918 116.677,165.372 116.304,165.651C115.979,165.893 115.623,166.028 115.216,166.036" style="fill-rule:nonzero;"/>
                    </g>
                    <g transform="matrix(1,0,0,-1,37.0845,683.369)">
                        <path d="M114.459,156.3C114.783,156.644 115.108,156.995 115.399,157.368C115.606,157.633 115.806,157.928 115.963,158.223C116.126,158.53 116.177,158.826 116.164,159.132C116.227,159.693 115.988,160.258 115.5,160.557C115.13,160.784 114.769,160.799 114.41,160.711C113.313,160.662 112.523,159.269 111.853,158.526C111.551,158.191 111.242,157.865 110.924,157.547C110.84,157.463 110.754,157.381 110.671,157.297L110.631,157.258C110.474,157.112 110.314,156.968 110.153,156.826C108.804,155.642 107.372,154.529 105.835,153.599C105.246,153.243 105.135,152.387 105.438,151.826C105.755,151.24 106.503,150.921 107.141,151.189C108.965,151.955 110.702,152.925 112.224,154.196C113.007,154.852 113.761,155.554 114.459,156.3" style="fill-rule:nonzero;"/>
                    </g>
                    <g transform="matrix(1,0,0,-1,35.9407,703.258)">
                        <path d="M86.618,219.441C86.618,219.441 51.307,218.412 47.512,121.176L68.117,112.921L87.131,128.285L89.951,157.658L92.619,210.177L86.618,219.441Z" style="fill-rule:nonzero;"/>
                    </g>
                    <g transform="matrix(1,0,0,-1,38.676,788.862)">
                        <path d="M186.761,206.917C188.223,206.917 188.225,209.188 186.761,209.188C185.3,209.188 185.298,206.917 186.761,206.917" style="fill-rule:nonzero;"/>
                    </g>
                    <g transform="matrix(1,0,0,-1,38.6064,788.978)">
                        <path d="M182.994,207.235C184.117,207.235 184.119,208.98 182.994,208.98C181.872,208.98 181.87,207.235 182.994,207.235" style="fill-rule:nonzero;"/>
                    </g>
                    <g transform="matrix(1,0,0,-1,38.6575,798.338)">
                        <path d="M185.7,211.739C186.992,211.739 186.994,213.747 185.7,213.747C184.408,213.747 184.406,211.739 185.7,211.739" style="fill-rule:nonzero;"/>
                    </g>
                    <g transform="matrix(1,0,0,-1,38.5667,795.742)">
                        <path d="M181.197,210.359C182.611,210.359 182.614,212.558 181.197,212.558C179.782,212.558 179.779,210.359 181.197,210.359" style="fill-rule:nonzero;"/>
                    </g>
                    <g transform="matrix(1,0,0,-1,38.6479,779.624)">
                        <path d="M185.316,202.367C186.747,202.367 186.749,204.59 185.316,204.59C183.885,204.59 183.883,202.367 185.316,202.367" style="fill-rule:nonzero;"/>
                    </g>
                    <g transform="matrix(1,0,0,-1,38.73,796.259)">
                        <path d="M189.433,210.627C190.833,210.627 190.836,212.802 189.433,212.802C188.034,212.802 188.031,210.627 189.433,210.627" style="fill-rule:nonzero;"/>
                    </g>
                    <g transform="matrix(1,0,0,-1,37.3418,719.316)">
                        <path d="M119.421,172.438C120.944,172.438 120.946,174.804 119.421,174.804C117.899,174.804 117.897,172.438 119.421,172.438" style="fill-rule:nonzero;"/>
                    </g>
                    <g transform="matrix(1,0,0,-1,37.365,729.973)">
                        <path d="M120.579,177.726C122.086,177.726 122.088,180.068 120.579,180.068C119.072,180.068 119.07,177.726 120.579,177.726" style="fill-rule:nonzero;"/>
                    </g>
                    <g transform="matrix(1,0,0,-1,37.0962,735.173)">
                        <path d="M107.066,180.229C108.665,180.229 108.668,182.715 107.066,182.715C105.467,182.715 105.464,180.229 107.066,180.229" style="fill-rule:nonzero;"/>
                    </g>
                    <g transform="matrix(1,0,0,-1,37.1443,721.134)">
                        <path d="M109.381,173.397C110.827,173.397 110.829,175.644 109.381,175.644C107.935,175.644 107.933,173.397 109.381,173.397" style="fill-rule:nonzero;"/>
                    </g>
                    <g transform="matrix(1,0,0,-1,37.178,729.511)">
                        <path d="M111.053,177.58C112.453,177.58 112.456,179.755 111.053,179.755C109.654,179.755 109.651,177.58 111.053,177.58" style="fill-rule:nonzero;"/>
                    </g>
                    <g transform="matrix(1,0,0,-1,37.2063,731.423)">
                        <path d="M115.717,187.341C115.221,188.529 113.835,188.455 113.151,187.758C112.859,187.639 112.604,187.409 112.501,187.023C111.8,184.575 111.461,182.096 111.434,179.551C111.412,178.253 111.461,176.958 111.592,175.667C111.688,174.674 111.887,173.655 112.417,172.799C113.635,170.846 116.168,170.85 117.756,172.336C119.685,174.15 119.199,176.863 118.56,179.145C117.781,181.934 116.83,184.673 115.717,187.341" style="fill:rgb(241,217,42);fill-rule:nonzero;"/>
                    </g>
                    <g transform="matrix(1,0,0,-1,37.6008,506.556)">
                        <path d="M208.63,23.105C205.456,25.517 202.353,28.02 199.369,30.657C197.914,31.941 196.485,33.258 195.071,34.606C194.351,35.302 193.624,36.006 192.912,36.724C192.661,36.974 192.395,37.225 192.151,37.482C189.851,33.918 187.837,30.206 185.678,26.546C183.283,22.493 180.881,18.433 178.436,14.406C177.746,13.273 175.842,13.107 175.2,14.403C174.206,16.391 173.035,18.262 172.11,20.296C171.225,22.255 170.416,24.27 169.706,26.299C168.569,29.555 167.756,32.932 167.187,36.333C164.675,34.381 162.217,32.366 159.698,30.421C156.462,27.935 153.227,25.447 149.999,22.967C148.62,21.903 146.604,23.674 147.123,25.185C148.346,28.832 149.661,32.451 150.949,36.087C152.016,39.078 153.043,42.131 154.256,45.086C151.039,46.357 148.09,48.58 145.569,50.807C142.381,53.639 139.613,56.987 137.399,60.619C129.967,72.794 129.45,88.147 135.514,100.979C141.547,113.784 154.544,123.138 168.706,124.223C168.856,124.524 198.682,123.213 211.572,111.136C223.23,100.216 235.023,87.272 233.564,70.613C232.938,63.395 230.061,56.525 224.851,51.422C221.021,47.664 215.3,44.1 209.624,43.703C209.78,42.921 209.912,42.132 210.053,41.365C210.378,39.533 210.621,37.699 210.842,35.859C211.285,32.177 211.519,28.478 211.577,24.775C211.597,23.425 209.826,22.205 208.63,23.105" style="fill-rule:nonzero;"/>
                    </g>
                    <g transform="matrix(1,0,0,-1,39.3528,589.037)">
                        <path d="M267.149,91.166C263.503,88.311 258.729,86.92 254.11,87.231C249.873,87.521 246.021,89.144 242.654,91.552C242.12,91.103 241.588,90.669 241.047,90.227C242.828,88.344 244.723,86.505 246.258,84.429C247.011,83.413 245.998,81.643 244.738,81.801C242.756,82.067 240.699,81.917 238.695,82.081C236.765,82.241 234.832,82.454 232.909,82.73C228.99,83.29 225.102,84.045 221.249,84.999C220.515,85.18 219.746,86.056 219.857,86.854C220.987,95.164 221.318,103.556 220.829,111.928C220.713,113.932 223.466,114.381 224.421,112.876C225.863,110.606 227.298,108.314 228.709,106.016C228.728,105.978 228.756,105.932 228.783,105.886C229.449,106.343 230.116,106.799 230.782,107.241C229.064,111.554 228.171,116.13 228.91,120.769C229.692,125.767 232.666,130.156 236.723,133.098C240.842,136.081 245.941,137.107 250.918,136.222C254.59,135.582 260.797,134.206 263.644,130.589C275.442,118.818 273.282,109.168 273.08,103.836C272.898,98.9 271.105,94.268 267.149,91.166" style="fill-rule:nonzero;"/>
                    </g>
                    <g transform="matrix(1,0,0,-1,36.4368,518.899)">
                        <path d="M128.563,57.809C125.866,58.442 123.211,59.371 120.556,60.178C119.321,60.553 118.093,60.935 116.858,61.31C116.782,61.326 116.539,61.406 116.277,61.491C116.079,61.34 115.863,61.196 115.647,61.052C115.655,60.85 115.658,60.667 115.667,60.602C115.804,55.844 115.262,51.072 114.086,46.46C113.745,45.132 112.093,45.146 111.392,46.11C109.744,48.395 108.396,50.937 107.173,53.478C106.711,54.421 106.252,55.404 105.814,56.391C104.661,55.35 103.485,54.336 102.322,53.309C99.815,51.08 97.308,48.852 94.771,46.659C93.684,45.724 92.027,46.351 91.974,47.83C91.848,51.157 92.208,54.559 93.056,57.83C85.251,60.11 78.147,65.356 74.659,72.761C71.908,78.597 71.772,85.781 74.788,91.547C77.477,96.673 82.858,100.014 88.386,101.95C88.483,102.504 97.456,103.894 97.461,103.873C102.399,104.209 107.388,103.356 111.911,101.274C122.397,96.449 129.044,83.869 124.868,72.657C124.324,71.198 123.636,69.83 122.847,68.534C123.679,67.727 124.492,66.887 125.262,66.011C127.023,63.999 128.409,61.787 129.981,59.643C130.663,58.699 129.52,57.58 128.563,57.809" style="fill-rule:nonzero;"/>
                    </g>
                    <g transform="matrix(1,0,0,-1,38.0923,474.926)">
                        <path d="M198.805,31.456C195.735,30.857 192.322,31.168 189.226,31.256C182.373,31.455 175.532,32.182 168.775,33.335C165.446,33.893 161.955,34.378 158.711,35.337C150.857,37.661 163.547,54.358 165.746,57.862C169.384,63.66 173.658,68.991 178.218,74.08C178.857,74.794 180.367,74.719 180.936,73.934C185.442,67.703 189.701,61.288 193.692,54.697C195.459,51.794 197.168,48.858 198.833,45.895C199.702,44.349 200.578,42.789 201.403,41.215C202.093,39.894 202.949,38.464 203.245,36.992C203.856,34.008 201.493,31.991 198.805,31.456" style="fill:rgb(241,217,42);fill-rule:nonzero;"/>
                    </g>
                    <g transform="matrix(1,0,0,-1,38.4436,469.8)">
                        <path d="M176.155,38.894C177.085,38.528 178.009,38.176 178.935,37.8C179.686,37.491 180.843,38.042 181.003,38.871C181.654,42.444 182.324,46.009 183.007,49.581C183.339,51.326 183.674,53.081 184.01,54.836C184.308,56.404 184.674,58.036 183.925,59.546C182.74,61.904 179.564,62.892 177.256,61.601C174.323,59.958 173.883,56.472 173.928,53.436C173.99,49.335 174.147,45.253 174.391,41.16C174.419,40.648 174.686,40.268 175.039,40.056C175.17,39.582 175.517,39.149 176.155,38.894" style="fill-rule:nonzero;"/>
                    </g>
                    <g transform="matrix(1,0,0,-1,38.4189,502.539)">
                        <path d="M180.337,66.306C180.332,67.126 180.056,68.007 179.447,68.838C179.4,68.903 179.349,68.967 179.291,69.024C179.061,69.259 178.797,69.492 178.508,69.658C178.287,69.784 178.05,69.89 177.815,69.986C177.728,70.022 177.638,70.052 177.548,70.075C177.095,70.19 176.732,70.217 176.281,70.182C175.855,70.15 175.453,70.081 175.076,69.857C174.866,69.732 174.657,69.593 174.468,69.439C174.371,69.359 174.31,69.279 174.223,69.177C174.252,69.209 174.088,69.031 174.048,68.967C173.993,68.881 173.947,68.776 173.902,68.671L173.868,68.603C173.808,68.566 173.745,68.536 173.69,68.49C171.292,66.529 173.609,63.837 175.882,63.18C178.491,62.426 180.349,64.151 180.337,66.306" style="fill-rule:nonzero;"/>
                    </g>
                    <g transform="matrix(1,0,0,-1,39.8428,578.069)">
                        <path d="M263.609,108.479C262.831,109.489 262.01,110.471 261.205,111.467C260.836,111.924 260.499,112.428 259.815,112.537C259.048,112.676 258.151,112.368 257.337,111.763C255.889,110.697 254.528,109.253 253.263,107.981C250.259,104.954 247.131,101.582 244.938,98.085C244.429,97.28 244.537,96.674 244.922,96.385C245.182,95.11 246.752,94.853 248.267,95.469C249.84,96.115 251.477,97.313 252.988,98.247C254.654,99.272 256.329,100.304 257.99,101.334C259.522,102.275 261.311,103.163 262.709,104.347C264.408,105.789 264.451,107.381 263.609,108.479" style="fill:rgb(241,217,42);fill-rule:nonzero;"/>
                    </g>
                    <g transform="matrix(1,0,0,-1,39.6472,603.883)">
                        <path d="M242.318,118.401C241.815,119.304 240.929,119.927 239.962,120.246C239.836,120.29 239.69,120.318 239.549,120.339C239.366,120.42 239.169,120.464 238.952,120.488C238.165,120.565 237.288,120.318 236.621,119.892C235.793,119.359 235.242,118.611 234.914,117.696C234.648,116.958 234.647,116.031 234.927,115.294C235.134,114.749 235.37,114.349 235.743,113.89C235.996,113.58 236.323,113.323 236.652,113.106C236.987,112.881 237.383,112.71 237.769,112.605C238.15,112.493 238.571,112.431 238.958,112.46C239.934,112.529 240.817,112.891 241.525,113.572C242.798,114.807 243.19,116.839 242.318,118.401" style="fill:rgb(241,217,42);fill-rule:nonzero;"/>
                    </g>
                    <g transform="matrix(1,0,0,-1,36.708,495.47)">
                        <path d="M103.407,52.008C103.012,51.294 102.286,50.874 101.557,50.561C101.371,50.484 101.206,50.449 101.045,50.452C100.789,49.939 99.914,49.875 99.481,50.302C98.123,51.643 97.215,53.577 96.218,55.193C95.214,56.807 94.189,58.404 93.161,60.009C91.058,63.272 88.831,66.418 86.524,69.536C85.997,70.239 86.308,71.039 86.999,71.454C89.335,72.841 91.668,74.235 94.014,75.617C94.561,75.943 95.544,75.568 95.731,74.942C97.078,70.35 98.641,65.821 100.425,61.371C101.316,59.147 102.328,56.984 103.243,54.768C103.62,53.867 103.911,52.933 103.407,52.008" style="fill:rgb(241,217,42);fill-rule:nonzero;"/>
                    </g>
                    <g transform="matrix(1,0,0,-1,36.9983,528.639)">
                        <path d="M108.454,78.44C108.627,75.543 105.26,72.789 102.526,74.651C97.642,77.976 105.218,85.676 108.095,79.798C108.312,79.353 108.427,78.895 108.454,78.44" style="fill:rgb(241,217,42);fill-rule:nonzero;"/>
                    </g>
                </g>
            </g>
        </g>
    </g>
</svg>
