<?xml version="1.0" encoding="UTF-8" standalone="no"?>
<!DOCTYPE svg PUBLIC "-//W3C//DTD SVG 1.1//EN" "http://www.w3.org/Graphics/SVG/1.1/DTD/svg11.dtd">
<svg width="100%" height="100%" viewBox="0 0 340 280" version="1.1" xmlns="http://www.w3.org/2000/svg" xmlns:xlink="http://www.w3.org/1999/xlink" xml:space="preserve" xmlns:serif="http://www.serif.com/" style="fill-rule:evenodd;clip-rule:evenodd;stroke-linejoin:round;stroke-miterlimit:2;">
    <g transform="matrix(1,0,0,1,-2796,-743)">
        <g id="img_2-3" transform="matrix(1.06743,0,0,1.00423,-188.962,-3.43425)">
            <rect x="2796.39" y="743.292" width="318.521" height="278.821" style="fill:none;"/>
            <g transform="matrix(0.936828,0,0,0.995791,2770.86,350.364)">
                <g>
                    <g transform="matrix(1,0,0,-1,38,673.606)">
                        <path d="M1.522,28.714C1.522,28.714 14.522,14.714 19.522,10.714C24.522,6.714 71.802,3.123 90.162,1.918C108.522,0.714 192.751,9.118 220.137,12.416C247.522,15.714 266.522,19.714 266.522,19.714C266.522,19.714 306.522,24.714 316.522,21.714C316.522,21.714 292.522,131.714 245.522,147.714L233.522,147.714L232.522,186.714L231.522,199.714C231.522,199.714 243.522,205.714 239.522,217.714C235.522,229.714 228.522,231.714 224.522,232.714C220.522,233.714 207.522,254.714 207.522,254.714C207.522,254.714 188.522,267.714 187.522,269.714C186.522,271.714 175.522,277.714 169.522,276.714C163.522,275.714 124.522,268.714 116.522,250.714C108.522,232.714 106.022,173.214 106.022,173.214L90.022,148.214L72.022,136.214C72.022,136.214 60.022,136.214 57.022,130.214C54.022,124.214 51.022,104.214 51.022,104.214L53.022,98.214L25.197,60.433L1.522,28.714Z" style="fill:white;fill-rule:nonzero;"/>
                    </g>
                    <g transform="matrix(0.578017,0.816024,-0.816024,0.578017,225.811,441.42)">
                        <path d="M32.111,187.31L61.522,187.31L67.812,219.95L44.738,227.693L32.111,187.31Z" style="fill:rgb(241,217,42);fill-rule:nonzero;"/>
                    </g>
                    <g transform="matrix(1,0,0,-1,38,805.697)">
                        <path d="M80.522,261.805C80.522,261.805 99.522,281.805 115.522,282.805C131.522,283.805 143.522,278.805 143.522,278.805L146.522,274.805C146.522,274.805 141.522,267.805 140.522,262.805C139.522,257.805 139.522,241.805 149.522,237.805C159.522,233.805 169.522,234.805 174.522,235.805C179.522,236.805 198.522,251.805 198.522,251.805L210.522,272.805C210.522,272.805 224.522,279.805 229.522,279.805C234.522,279.805 262.522,277.805 271.522,263.805C280.522,249.805 300.522,203.805 300.522,203.805L252.522,181.805L242.022,211.305L254.022,236.305C254.022,236.305 253.022,246.305 252.022,250.305C251.022,254.305 246.022,264.305 237.022,263.305C228.022,262.305 225.022,256.305 225.022,256.305L220.022,252.305C220.022,252.305 213.022,244.305 213.022,241.305C213.022,241.305 208.022,238.305 207.022,234.305C206.022,230.305 206.022,226.305 206.022,226.305C206.022,226.305 200.022,224.305 201.022,220.305C202.022,216.305 211.543,202.266 211.543,202.266L215.595,189.321L220.137,144.507C220.137,144.507 107.302,126.714 90.162,134.009C90.162,134.009 90.281,165.773 91.652,175.039C93.022,184.305 94.286,195.184 99.654,200.245C105.022,205.305 109.022,210.305 109.022,213.305C109.022,216.305 107.022,223.305 104.022,224.305C101.022,225.305 96.022,234.305 94.022,236.305C92.022,238.305 92.022,247.305 90.022,250.305C88.022,253.305 82.022,254.305 82.022,254.305L77.022,261.305L80.522,261.805Z" style="fill:rgb(241,217,42);fill-rule:nonzero;"/>
                    </g>
                    <g transform="matrix(1,0,0,-1,38,499.697)">
                        <path d="M141.351,49.502C142.143,49.053 143.082,48.789 143.97,48.604C145.765,48.229 147.665,48.143 149.486,48.374C153.033,48.826 157.341,50.425 159.207,53.702C159.588,54.373 159.379,55.307 158.824,55.813C158.207,56.376 157.378,56.359 156.673,55.997C155.994,55.648 155.388,55.193 154.723,54.82C154.116,54.48 153.549,54.16 153.08,53.964C152.374,53.668 151.646,53.437 150.907,53.239C150.089,53.019 149.838,52.969 148.983,52.882C148.26,52.809 147.536,52.792 146.81,52.819C146.653,52.828 146.649,52.826 146.798,52.814L146.558,52.836C146.398,52.853 146.238,52.871 146.079,52.892C145.68,52.945 145.284,53.015 144.892,53.102C143.209,53.473 141.566,54.265 139.993,53.47C139.539,53.241 139.23,52.586 139.29,52.092C139.369,51.444 139.615,50.959 140.079,50.502C140.25,50.334 140.887,49.765 141.351,49.502" style="fill-rule:nonzero;"/>
                    </g>
                    <g transform="matrix(1,0,0,-1,38,659.454)">
                        <path d="M318.438,7.309C314.401,23.631 309.409,39.711 303.61,55.498C302.97,57.207 302.343,58.915 301.69,60.61C298.771,68.291 295.653,75.893 292.363,83.414C287.302,94.975 282.214,106.509 274.121,116.326C269.377,122.082 263.733,127.173 257.283,130.87C257.369,131.039 252.604,133.307 252.573,133.246C250.463,134.169 248.274,134.946 246.007,135.538C244.097,136.038 242.148,136.378 240.186,136.573C240.131,137.838 240.062,139.325 239.982,140.978C239.398,142.612 237.882,178.501 236.871,186.84C239.927,189.564 242.093,193.253 242.76,197.337C244.29,206.858 238.451,216.467 229.234,218.953C229.167,219.138 229.087,219.311 229.02,219.496C222.358,236.01 210.502,251.413 194.116,259.145C175.461,267.96 153.493,264.559 135.619,255.441C134.493,254.869 133.394,254.27 132.295,253.632C130.733,252.767 129.211,251.823 127.715,250.838C115.022,242.501 104.523,230.748 97.925,217.122C93.306,207.595 90.664,197.264 88.473,186.96C86.255,176.458 84.117,166.022 81.316,155.664C80.698,153.357 80.013,151.063 79.276,148.795C78.019,147.52 76.949,145.98 75.985,144.585C74.425,142.343 73.012,140.007 71.811,137.539C69.528,132.881 67.948,127.894 67.151,122.777C64.512,123.102 61.822,122.699 59.506,121.422C59.476,121.48 59.444,121.536 59.414,121.594C58.359,120.576 57.184,119.675 55.863,118.886C55.848,118.877 55.833,118.87 55.818,118.862C55.906,118.754 55.99,118.644 56.079,118.538C53.012,114.939 51.392,109.833 50.102,105.522C49.273,102.724 48.617,99.873 48.212,96.982C47.912,94.821 47.493,92.328 47.856,90.076C47.592,89.439 47.62,88.684 48.139,87.943C49.082,86.579 50.04,85.216 50.97,83.84C43.952,74.4 36.908,64.949 29.877,55.496C29.256,54.66 28.635,53.823 28.013,52.987C27.075,51.726 26.137,50.478 25.198,49.217C21.775,44.624 18.365,40.03 14.955,35.423C9.92,28.613 4.328,21.908 0.235,14.489C-0.795,12.619 1.819,10.968 3.248,12.415C8.287,17.542 12.422,23.622 16.731,29.37C20.908,34.933 25.084,40.481 29.234,46.058C29.406,46.283 29.578,46.522 29.75,46.748C30.529,47.783 31.309,48.832 32.076,49.868C39.411,59.692 46.746,69.516 54.068,79.327C58.589,72.695 63.11,66.038 67.776,59.513C64.324,56.233 60.725,53.15 57.432,49.71C53.901,46.031 50.476,42.246 47.091,38.448C46.946,38.275 46.787,38.089 46.628,37.917C45.65,36.814 44.685,35.712 43.719,34.597C37.849,27.812 32.217,20.827 26.533,13.856C24.656,11.559 22.858,9.196 21.074,6.82C19.369,4.563 16.697,1.947 16.332,-0.944C16.097,-2.721 17.769,-3.684 19.279,-2.965C21.583,-1.847 23.008,0.899 24.475,2.904C26.009,4.961 27.568,6.993 29.088,9.051C32.194,13.259 35.446,17.361 38.751,21.411C41.593,24.877 44.475,28.316 47.424,31.702C48.521,33.004 49.658,34.291 50.808,35.579C53.599,38.766 56.455,41.927 59.351,45.048C62.895,48.86 66.226,52.896 69.784,56.695C71.392,54.472 73.027,52.261 74.702,50.065C76.23,48.08 79.354,50.022 78.011,52.206C72.598,61.035 66.721,69.598 60.831,78.135C67.905,79.608 74.086,83.902 80.828,86.408C84.138,87.635 87.967,88.81 91.533,88.221C94.305,87.763 97.49,85.516 96.132,82.346C95.961,81.961 95.882,81.59 95.883,81.245C94.293,80.83 92.743,80.297 91.26,79.777C87.989,78.617 84.717,77.43 81.459,76.217C78.227,75.031 74.916,73.924 71.884,72.26C69.475,70.943 71.483,67.699 73.815,68.222C79.472,69.466 84.967,71.996 90.437,73.904C92.967,74.784 95.496,75.85 98.106,76.452C99.987,76.893 102.055,77.003 103.661,75.774C106.277,73.791 106.736,69.763 105.868,66.819C104.657,62.747 101.429,59.532 98.4,56.623C97.429,58.225 96.392,59.787 95.249,61.229C95.779,61.469 96.322,61.709 96.865,61.948C97.461,62.215 98.07,62.482 98.666,62.735C99.712,63.201 100.44,63.653 101.047,64.635C101.827,65.882 100.842,67.63 99.49,67.879C97.912,68.154 96.548,67.289 95.171,66.663L91.45,64.959C88.935,63.813 86.299,62.735 84.089,61.086C83.295,60.501 82.939,59.507 83.392,58.593C83.858,57.653 84.773,57.35 85.767,57.564C87.463,57.912 89.092,58.539 90.694,59.231C91.627,56.954 93.864,54.756 95.167,52.611C94.867,52.102 94.582,51.574 94.307,51.037C95.247,51.212 95.222,51.288 96.226,51.245C96.841,51.219 97.429,51.148 97.992,51.038C98.298,51.409 98.614,51.771 98.95,52.116C100.718,53.934 102.806,55.215 105.034,55.926C107.768,58.898 110.132,62.2 111.118,66.18C112.248,70.676 111.057,76.029 107.656,79.282C105.851,81.001 103.794,81.739 101.66,81.907C102.421,85.368 100.518,89.26 97.69,91.269C96.907,91.838 96.058,92.247 95.196,92.576C95.59,94.181 95.533,95.997 95.41,97.388C95.166,100.012 94.352,102.635 92.797,104.779C90.471,108.008 87.126,109.869 83.415,110.126C82.962,110.921 82.364,111.662 81.859,112.363C81.593,112.72 81.327,113.078 81.048,113.435C89.566,122.122 99.305,129.234 111.227,132.546C122.236,135.605 134.791,134.293 144.044,127.381C133.762,119.552 135.586,103.093 143.491,94.376C150.254,86.902 160.532,84.114 170.338,85.129C170.141,84.465 169.957,83.789 169.773,83.113C168.826,79.505 168.662,75.542 170.763,72.299C172.864,69.016 176.751,67.607 180.46,68.874C184.009,70.087 186.707,73.062 189.18,75.745C200.46,87.937 208.367,103.156 211.818,119.388C211.975,120.143 211.855,120.779 211.575,121.296C211.905,122.144 212.301,122.954 212.763,123.737C213.32,123.327 214.076,123.249 214.817,123.821C218.893,126.971 223.102,129.511 228.149,130.795C232.985,132.011 238.128,132.022 243.007,131.039C245.514,130.527 254.927,126.217 255.013,126.386C260.534,123.19 265.447,118.84 269.54,113.997C277.26,104.881 282.851,93.733 287.725,82.888C291.294,74.956 294.599,66.891 297.651,58.746C298.291,57.064 298.918,55.382 299.518,53.687C300.318,51.527 301.078,49.355 301.838,47.17C306.533,33.568 310.459,19.779 313.816,5.789C314.551,2.755 319.2,4.276 318.438,7.309M53.175,94.077C53.214,94.514 53.266,94.939 53.332,95.349C53.697,97.855 54.183,100.335 54.853,102.776C55.511,105.176 56.314,107.524 57.29,109.805C58.161,111.875 59.097,114.078 60.724,115.684C63.621,118.554 68.222,117.689 71.354,115.668C72.31,115.047 73.2,114.293 74.023,113.473C74.701,112.799 75.339,112.071 75.923,111.33C76.402,110.735 76.84,110.073 77.292,109.411C77.345,109.345 77.399,109.265 77.452,109.186C74.18,108.026 71.123,105.978 68.185,103.984C68.238,104.142 68.303,104.315 68.356,104.474C68.422,104.7 68.488,104.925 68.554,105.137C68.738,105.8 68.67,106.582 68.258,107.138C67.965,107.522 67.62,107.813 67.156,107.971C66.718,108.129 66.227,108.168 65.79,108.008C65.194,107.794 64.745,107.449 64.441,106.878C64.309,106.639 64.256,106.44 64.164,106.136C64.085,105.91 64.019,105.698 63.967,105.472C63.835,105.048 63.704,104.623 63.598,104.186C63.493,103.761 63.362,103.324 63.296,102.887C63.257,102.661 63.231,102.435 63.192,102.21C63.179,102.104 63.166,102.011 63.152,101.918C63.113,101.587 63.127,101.282 63.207,100.977C63.208,100.885 63.221,100.792 63.235,100.699C61.196,99.396 59.158,98.106 57.146,96.75C55.889,95.899 54.605,95.061 53.347,94.197C53.294,94.157 53.228,94.117 53.175,94.077M87.964,102.236C89.187,100.795 89.84,98.927 90.017,97.072C90.112,95.905 89.916,94.699 89.839,93.506C87.917,93.502 85.969,93.232 84.114,92.818C79.57,91.787 75.346,89.737 71.189,87.7C66.965,85.636 62.701,83.706 58.331,81.96C57.866,82.423 57.507,82.952 57.148,83.469C56.124,84.978 55.087,86.473 54.063,87.982C53.943,88.154 53.824,88.326 53.718,88.498C55.333,89.31 56.894,90.466 58.311,91.318C60.548,92.687 62.772,94.084 64.982,95.494C69.178,98.154 73.307,101.211 77.769,103.421C81.291,105.178 85.227,105.478 87.964,102.236M195.644,220.34C195.012,211.789 194.196,203.238 193.22,194.726C191.268,177.889 188.626,161.143 185.308,144.528C181.991,127.899 177.983,111.429 173.312,95.129C172.865,93.577 172.405,92.026 171.93,90.487C169.546,90.058 167.107,89.893 164.681,90.061C154.103,90.754 143.776,97.518 142.268,108.608C141.487,114.399 143.172,119.612 146.768,124.152C146.94,124.378 147.071,124.63 147.137,124.883C147.536,124.671 147.946,124.593 148.331,124.607C148.667,122.434 149.122,120.089 150.491,118.673C151.806,117.311 153.778,118.389 154.239,119.9C154.7,121.346 154.1,122.856 153.792,124.3C153.471,125.758 153.163,127.215 152.882,128.686C152.359,131.428 151.916,134.184 151.499,136.94C151.095,139.696 150.745,142.466 150.474,145.235C150.298,146.997 150.293,148.999 150.051,150.894C159.343,150.437 168.936,152.154 177.385,155.433C180.577,156.686 179.042,161.454 175.718,160.519C165.425,157.594 155.065,155.332 144.338,157.151C135.865,158.578 127.772,162.47 121.9,168.82C115.563,175.66 113.276,185.039 113.124,194.144C112.971,203.687 114.899,213.407 117.994,222.4C119.76,227.547 122.029,232.535 124.643,237.299C125.95,239.661 127.363,241.958 128.843,244.213C129.305,244.917 129.794,245.608 130.283,246.325C130.561,246.511 130.852,246.697 131.13,246.883C131.183,246.922 131.249,246.963 131.302,246.989C135.975,249.995 141.072,252.59 146.396,254.603C148.052,255.23 149.734,255.79 151.429,256.297C152.454,254.523 152.497,252.747 151.958,250.625C151.235,247.814 149.505,245.093 147.694,242.849C145.75,240.446 143.13,238.744 141.173,236.38C139.124,233.91 138.217,230.29 140.211,227.511C141.94,225.076 145.818,227.55 144.129,230.038C142.507,232.407 146.796,235.147 148.198,236.435C150.698,238.733 152.786,241.495 154.424,244.454C156.272,247.824 158.207,253.979 155.774,257.46C162.571,259.038 169.554,259.61 176.396,258.829C178.374,257.189 180.603,255.829 182.675,254.309C183.63,253.596 184.546,252.908 185.489,252.155C186.339,251.52 187.148,250.886 187.959,250.225C188.529,249.776 189.1,249.313 189.671,248.85C192.221,246.774 194.651,244.606 197.055,242.385C196.447,235.054 196.171,227.67 195.644,220.34M233.073,190C232.597,189.602 232.094,189.243 231.565,188.923C230.267,188.112 228.864,187.486 227.38,187.072C225.181,186.457 223.073,186.665 220.82,186.74C220.753,186.74 220.701,186.739 220.647,186.727C220.378,188.647 220.082,190.555 219.76,192.463C219.492,194.067 219.197,195.67 218.889,197.273C219.101,197.207 219.353,197.181 219.605,197.208C221.724,197.451 223.804,197.959 225.764,198.799C226.797,199.251 227.817,199.744 228.757,200.369C229.22,200.662 229.67,200.981 230.093,201.34C230.45,201.659 230.821,201.938 231.045,202.375C231.085,202.468 231.111,202.574 231.151,202.667C231.348,203.251 231.414,203.556 231.36,203.861C231.199,204.841 230.694,205.37 229.779,205.686C229.593,205.752 229.328,205.765 229.129,205.752C228.957,205.724 228.772,205.684 228.599,205.657C228.493,205.644 228.387,205.631 228.281,205.603C228.109,205.524 227.924,205.43 227.752,205.351C227.659,205.298 227.567,205.217 227.474,205.165C227.077,204.898 226.693,204.606 226.296,204.34C225.515,203.835 224.708,203.356 223.887,202.93C223.874,202.93 223.807,202.89 223.754,202.864C223.45,202.73 223.238,202.637 223.026,202.544C222.615,202.371 222.192,202.211 221.768,202.064C221.317,201.904 220.854,201.77 220.39,201.65C220.178,201.597 219.953,201.543 219.741,201.49C219.622,201.463 219.516,201.45 219.41,201.423C218.906,201.329 218.509,201.222 218.165,200.943C217.575,203.924 216.906,206.892 216.197,209.846C215.997,210.68 215.796,211.515 215.596,212.363C218.521,214.158 222.019,214.974 225.386,214.703C227.52,214.523 229.602,213.89 231.447,212.781C232.589,212.081 233.637,211.209 234.554,210.124C238.581,205.374 239.113,198.443 235.982,193.334C235.229,192.099 234.264,190.97 233.073,190" style="fill-rule:nonzero;"/>
                    </g>
                    <g transform="matrix(1,0,0,-1,38,801.029)">
                        <path d="M263.871,154.481C262.924,156.945 261.978,159.408 261.032,161.871C259.272,166.467 257.473,171.022 255.661,175.591C255.448,176.148 255.234,176.704 255.008,177.26C254.595,178.306 254.182,179.366 253.755,180.412C252.156,184.477 250.53,188.543 248.891,192.596C247.066,197.138 245.372,201.774 243.229,206.17C244.259,207.855 245.263,209.541 246.267,211.253C250.255,218.073 253.911,225.107 257.369,232.218C257.554,232.603 257.619,232.974 257.618,233.332C257.893,235.149 257.226,237.348 256.877,238.99C256.382,241.296 255.781,243.574 254.954,245.785C253.568,249.521 251.598,253.095 248.729,255.859C248.839,256.065 246.573,257.909 245.277,258.526C244.196,258.968 243.13,259.451 242.081,259.963C241.783,260.109 241.536,260.279 241.331,260.467C239.562,261.083 237.699,261.429 235.794,261.425C231.672,261.43 227.859,259.446 225.055,256.498C223.297,254.639 221.923,252.475 220.775,250.193C218.747,249.95 216.827,249.084 215.174,247.41C213.613,245.817 212.637,243.747 212.032,241.638C211.768,240.75 211.479,239.676 211.322,238.588C209.825,238.413 208.368,237.813 207.085,236.551C205.352,234.864 205.026,232.491 204.925,230.21C204.85,228.183 204.735,226.075 204.792,224.008C203.375,223.501 202.078,222.689 201.034,221.455C198.244,218.161 198.241,213.35 199.787,209.496C201.812,204.464 206.821,199.049 209.172,196.593C211.523,194.138 213.034,195.39 214.537,194.596C214.583,194.571 214.627,194.545 214.673,194.519C216.272,197.256 217.871,199.985 219.458,202.713C220.36,202.33 221.262,201.96 222.177,201.644C222.668,201.473 223.516,201.687 223.926,201.966C224.363,202.286 224.667,202.671 224.851,203.188C225.233,204.262 224.767,205.52 223.705,206.048C223.095,206.352 222.471,206.615 221.848,206.879C220.787,207.327 219.699,207.736 218.638,208.171C218.067,208.409 217.51,208.646 216.939,208.87C215.679,209.384 214.406,209.899 213.119,210.321C212.071,210.663 210.933,209.798 210.604,208.87C210.248,207.836 210.688,206.683 211.683,206.168C212.625,205.68 213.607,205.245 214.589,204.809C213.889,203.602 213.176,202.381 212.476,201.173C209.924,204.667 206.233,207.535 204.752,211.614C203.633,214.66 204.076,218.054 206.924,219.028C207.653,218.818 208.435,218.886 209.017,219.298C211.098,219.223 213.155,218.485 215.065,217.707C217.731,216.599 220.372,215.425 222.985,214.198C227.961,211.85 232.699,208.917 237.78,206.794C237.186,205.825 236.604,204.843 235.997,203.874C235.019,202.295 234.016,200.702 232.998,199.136C231.902,197.424 230.567,195.685 229.882,193.761C229.078,191.519 231.481,189.748 233.306,191.396C234.762,192.685 235.805,194.516 236.875,196.123C237.972,197.768 239.042,199.441 240.098,201.113C240.151,201.205 240.217,201.312 240.27,201.404C241.564,197.723 243.083,194.094 244.469,190.465C246.028,186.413 247.588,182.36 249.173,178.321C249.547,177.341 249.933,176.348 250.32,175.368C250.559,174.759 250.8,174.136 251.039,173.527C252.759,169.117 254.478,164.707 256.237,160.31C257.223,157.86 258.209,155.397 259.195,152.947C259.688,151.715 260.168,150.497 260.661,149.265C261.207,147.861 261.568,146.365 262.764,145.373C263.919,144.421 266.052,144.836 266.273,146.533C266.626,149.145 264.804,152.071 263.871,154.481M229.396,253.458C232.293,256.275 236.361,256.88 240.075,255.416C240.765,255.14 241.415,254.823 242.039,254.454C243.618,253.542 244.986,252.352 246.168,250.989C247.378,249.587 248.402,247.972 249.214,246.264C250.345,243.894 251.106,241.338 251.748,238.794C252.002,237.748 252.164,236.422 252.472,235.137C248.729,237.594 244.867,239.773 240.912,241.938C236.547,244.342 232.18,247.102 227.577,249.054C227.165,249.225 226.767,249.384 226.356,249.516C227.201,250.949 228.193,252.289 229.396,253.458M217.006,240.032C217.242,241 217.624,241.968 218.166,242.818C218.509,243.349 218.919,243.84 219.409,244.239C220.785,245.368 222.429,245.345 224.06,244.845C225.837,244.319 227.615,243.235 228.996,242.483C236.36,238.536 243.659,234.349 251.38,231.158C249.4,227.298 247.354,223.475 245.255,219.693C244.099,220.751 242.626,221.623 241.511,222.416C239.307,223.988 237.077,225.521 234.821,227.028C230.149,230.133 225.358,233.051 220.5,235.864C219.306,236.564 217.992,237.224 216.653,237.738C216.744,238.52 216.822,239.315 217.006,240.032M241.927,213.801C241.253,212.634 240.567,211.466 239.88,210.311C236.083,213.404 231.624,215.675 227.272,217.879C222.8,220.149 218.17,222.578 213.328,223.946C212.281,224.249 211.18,224.472 210.067,224.562C210.077,225.835 210.048,227.107 210.072,228.38C210.082,229.784 209.719,232.249 211.082,233.153C212.445,234.057 214.342,233.412 215.656,232.806C217.765,231.829 219.769,230.614 221.773,229.438C225.808,227.088 229.776,224.618 233.678,222.028C235.576,220.773 237.448,219.465 239.32,218.17C240.355,217.443 241.617,216.319 242.957,215.606C242.6,215.009 242.27,214.398 241.927,213.801" style="fill-rule:nonzero;"/>
                    </g>
                    <g transform="matrix(1,0,0,-1,38,877.238)">
                        <path d="M103.057,278.041C100.759,274.755 96.736,273.159 94.377,269.867C93.001,267.946 92.355,265.618 91.898,263.331C91.381,260.744 90.933,258.141 90.516,255.536C88.821,244.94 87.809,234.233 87.536,223.505C87.385,217.519 87.466,211.531 87.762,205.551C87.915,202.477 92.716,202.458 92.562,205.551C92.045,215.976 92.199,226.428 93.051,236.832C93.469,241.939 94.048,247.034 94.81,252.102C95.195,254.662 95.622,257.216 96.091,259.761C96.49,261.928 96.757,264.329 97.806,266.297C98.774,268.115 100.438,269.391 102.041,270.626C103.978,272.117 105.789,273.598 107.202,275.618C107.945,276.681 107.395,278.285 106.341,278.902C105.144,279.602 103.802,279.106 103.057,278.041" style="fill-rule:nonzero;"/>
                    </g>
                    <g transform="matrix(1,0,0,-1,38,864.568)">
                        <path d="M206.959,262.745C208.455,261.127 209.968,259.508 211.078,257.59C212.242,255.578 212.658,253.323 212.905,251.037C213.476,245.762 213.977,240.478 214.512,235.199C215.587,224.592 216.662,213.985 217.737,203.378C217.868,202.089 218.746,200.978 220.137,200.978C221.333,200.978 222.668,202.081 222.537,203.378C221.663,211.997 220.79,220.615 219.917,229.233C219.48,233.542 219.043,237.851 218.607,242.16C218.172,246.449 218.018,250.892 217.108,255.112C216.154,259.535 213.348,262.9 210.353,266.139C208.251,268.412 204.863,265.011 206.959,262.745" style="fill-rule:nonzero;"/>
                    </g>
                    <g transform="matrix(1,0,0,-1,38,420.144)">
                        <path d="M187.662,11.709C187.077,12.631 186.2,12.797 185.196,12.866C185.774,12.827 184.752,12.909 184.749,12.909C184.638,12.912 184.526,12.906 184.415,12.905C184.156,12.903 183.897,12.897 183.637,12.892C183.378,12.886 183.119,12.885 182.86,12.89C182.749,12.892 182.637,12.897 182.527,12.899C181.35,13.015 180.332,13.175 179.325,13.449C179.039,13.527 178.758,13.62 178.474,13.705C178.326,13.765 178.186,13.815 178.048,13.869C177.495,14.087 176.945,14.307 176.409,14.565C175.874,14.822 175.363,15.114 174.854,15.417C174.602,15.568 174.346,15.71 174.095,15.863C174.002,15.92 173.909,15.979 173.816,16.037C173.753,16.076 173.715,16.099 173.682,16.119C173.651,16.141 173.618,16.166 173.56,16.207C172.663,16.844 171.364,17.016 170.575,16.066C169.795,15.126 169.906,13.945 170.717,13.081C173.938,9.648 178.633,8.058 183.265,7.972C184.465,7.95 185.971,8.016 186.963,8.76C187.873,9.443 188.314,10.682 187.662,11.709" style="fill-rule:nonzero;"/>
                    </g>
                    <g transform="matrix(1,0,0,-1,38,421.183)">
                        <path d="M144.349,16.697C143.109,16.225 142.219,15.687 140.927,15.151C139.847,14.703 138.748,14.299 137.635,13.942C135.348,13.207 132.943,12.765 130.727,11.837C130.066,11.559 129.586,10.973 129.631,10.225C129.671,9.556 130.212,8.849 130.905,8.758C133.579,8.406 136.308,9.015 138.865,9.778C140.066,10.137 141.25,10.548 142.413,11.011C143.687,11.518 145.063,12.034 146.213,12.784C148.246,14.109 146.719,17.599 144.349,16.697" style="fill-rule:nonzero;"/>
                    </g>
                    <g transform="matrix(0.802873,0.59615,-0.59615,0.802873,85.7026,295.997)">
                        <path d="M172.6,18.11C171.74,18.258 170.965,18.874 170.671,19.703C169.931,21.794 170.399,26.126 172.6,27.272C174.155,28.083 175.344,27.239 175.909,25.739C176.762,23.478 176.165,17.5 172.6,18.11" style="fill-rule:nonzero;"/>
                    </g>
                    <g transform="matrix(0.723979,0.689821,-0.689821,0.723979,92.3465,303.268)">
                        <path d="M140.78,17.665C139.921,17.812 139.145,18.429 138.851,19.258C138.111,21.349 138.581,25.681 140.78,26.828C142.335,27.638 143.525,26.793 144.091,25.294C144.943,23.031 144.343,17.054 140.78,17.665" style="fill-rule:nonzero;"/>
                    </g>
                    <g transform="matrix(1,0,0,-1,38,831.169)">
                        <path d="M303.609,227.213C302.589,226.76 301.556,226.32 300.55,225.867C300.206,225.708 299.862,225.561 299.517,225.402C296.657,224.11 293.797,222.818 290.937,221.539C284.541,218.649 278.132,215.786 271.709,212.923C266.36,210.539 261.023,208.114 255.66,205.73C254.124,205.038 252.575,204.345 251.039,203.666C250.799,204.275 250.559,204.898 250.319,205.507C249.933,206.487 249.546,207.48 249.173,208.461C250.696,209.166 252.232,209.872 253.755,210.551C258.998,212.949 264.242,215.292 269.472,217.676C275.855,220.606 282.251,223.509 288.659,226.399C291.665,227.757 294.658,229.102 297.651,230.461C297.849,230.554 298.061,230.647 298.26,230.74C299.399,231.26 300.537,231.792 301.689,232.325C302.342,230.629 302.969,228.921 303.609,227.213" style="fill-rule:nonzero;"/>
                    </g>
                    <g transform="matrix(1,0,0,-1,38,839.04)">
                        <path d="M50.808,215.166C49.658,213.878 48.521,212.59 47.423,211.289C46.188,212.24 44.954,213.205 43.719,214.183C39.205,217.726 34.744,221.335 30.23,224.864C29.898,225.128 29.566,225.38 29.234,225.644C27.893,226.701 26.539,227.759 25.198,228.803C26.136,230.064 27.075,231.313 28.013,232.573C29.367,231.529 30.721,230.485 32.076,229.454C32.527,229.097 32.992,228.753 33.443,228.397C37.957,224.92 42.55,221.51 47.091,218.034C48.339,217.082 49.574,216.131 50.808,215.166" style="fill-rule:nonzero;"/>
                    </g>
                    <g transform="matrix(1,0,0,-1,38,471.062)">
                        <path d="M166.252,36.442L166.638,36.442C166.845,36.434 167.037,36.477 167.216,36.571C167.402,36.632 167.563,36.735 167.699,36.881C167.845,37.017 167.948,37.178 168.009,37.364C168.103,37.543 168.146,37.735 168.138,37.942C168.12,38.075 168.102,38.208 168.085,38.341C168.013,38.595 167.885,38.816 167.699,39.003C167.598,39.081 167.496,39.159 167.395,39.237C167.161,39.373 166.909,39.441 166.638,39.442L166.252,39.442C166.045,39.45 165.853,39.407 165.674,39.313C165.488,39.252 165.327,39.149 165.191,39.003C165.045,38.867 164.942,38.706 164.881,38.52C164.787,38.341 164.744,38.149 164.752,37.942L164.806,37.543C164.877,37.289 165.005,37.068 165.191,36.881C165.293,36.803 165.394,36.725 165.495,36.647C165.729,36.511 165.981,36.443 166.252,36.442" style="fill-rule:nonzero;"/>
                    </g>
                    <g transform="matrix(1,0,0,-1,38,479.556)">
                        <path d="M173.588,40.689C175.518,40.689 175.522,43.689 173.588,43.689C171.658,43.689 171.654,40.689 173.588,40.689" style="fill-rule:nonzero;"/>
                    </g>
                    <g transform="matrix(1,0,0,-1,38,471.834)">
                        <path d="M181.31,36.828C183.24,36.828 183.244,39.828 181.31,39.828C179.38,39.828 179.376,36.828 181.31,36.828" style="fill-rule:nonzero;"/>
                    </g>
                    <g transform="matrix(1,0,0,-1,38,482.962)">
                        <path d="M128.343,42.392C130.273,42.392 130.277,45.392 128.343,45.392C126.413,45.392 126.409,42.392 128.343,42.392" style="fill-rule:nonzero;"/>
                    </g>
                    <g transform="matrix(1,0,0,-1,38,471.378)">
                        <path d="M124.482,36.6C126.412,36.6 126.416,39.6 124.482,39.6C122.552,39.6 122.548,36.6 124.482,36.6" style="fill-rule:nonzero;"/>
                    </g>
                    <g transform="matrix(1,0,0,-1,38,483.734)">
                        <path d="M121.393,42.778C123.323,42.778 123.327,45.778 121.393,45.778C119.463,45.778 119.459,42.778 121.393,42.778" style="fill-rule:nonzero;"/>
                    </g>
                    <g transform="matrix(1,0,0,-1,38,467.972)">
                        <path d="M174.36,34.897C176.29,34.897 176.294,37.897 174.36,37.897C172.43,37.897 172.426,34.897 174.36,34.897" style="fill-rule:nonzero;"/>
                    </g>
                </g>
            </g>
        </g>
    </g>
</svg>
