<?xml version="1.0" encoding="UTF-8" standalone="no"?>
<!DOCTYPE svg PUBLIC "-//W3C//DTD SVG 1.1//EN" "http://www.w3.org/Graphics/SVG/1.1/DTD/svg11.dtd">
<svg width="100%" height="100%" viewBox="0 0 340 280" version="1.1" xmlns="http://www.w3.org/2000/svg" xmlns:xlink="http://www.w3.org/1999/xlink" xml:space="preserve" xmlns:serif="http://www.serif.com/" style="fill-rule:evenodd;clip-rule:evenodd;stroke-linejoin:round;stroke-miterlimit:2;">
    <g transform="matrix(1,0,0,1,-2322,-335)">
        <g id="img_1-2" transform="matrix(1.0559,0,0,1.12711,-130.606,-43.2536)">
            <rect x="2322.76" y="335.596" width="322" height="248.423" style="fill:none;"/>
            <g transform="matrix(0.947057,0,0,0.887225,2298.14,-14.7151)">
                <g>
                    <g transform="matrix(1,0,0,-1,31.2578,539.666)">
                        <path d="M92.722,118.732C92.722,118.732 102.437,122.542 111.39,110.351C120.342,98.16 123.39,92.445 119.199,82.921C115.009,73.397 108.342,67.302 108.342,67.302C108.342,67.302 93.103,31.872 92.342,31.491C91.58,31.11 56.531,23.49 56.34,24.062C56.15,24.634 55.578,91.874 55.578,91.874L70.817,115.875L92.722,118.732Z" style="fill:white;fill-rule:nonzero;"/>
                    </g>
                    <g transform="matrix(1,0,0,-1,22.9497,741.902)">
                        <path d="M180.16,186.033C180.16,186.033 178.294,197.225 179.227,198.158C180.16,199.091 189.487,198.158 189.487,198.158L200.679,198.158L209.073,193.495L210.005,187.899L212.803,172.976L211.871,166.447L210.596,161.155L207.207,158.986L188.554,158.053L184.823,162.717L181.093,179.505L180.16,186.033Z" style="fill:white;fill-rule:nonzero;"/>
                    </g>
                    <g transform="matrix(1,0,0,-1,34.4844,671.792)">
                        <path d="M39.289,109.83C29.85,110.864 20.976,114.032 12.133,117.275C8.087,118.759 7.017,120.939 7.991,125.199C8.232,126.253 10.355,131.98 10.74,132.988C13.515,140.244 16.205,147.537 19.158,154.72C21.681,160.855 25.669,166.081 30.362,170.713C34.439,174.74 39.327,177.412 45.053,178.342C47.762,178.782 50.455,178.61 52.917,177.332C56.63,175.404 60.347,173.462 63.92,171.292C67,169.419 70.177,168.205 73.801,168.591C74.947,168.713 76.133,169.028 77.168,169.531C79.468,170.648 80.245,173.006 79.003,175.247C78.381,176.371 77.433,177.352 76.492,178.251C75.279,179.412 75.353,180.187 76.956,180.757C79.418,181.635 81.957,181.654 84.493,181.215C93.07,179.732 100.211,175.739 105.451,168.724C111.19,161.039 115.807,152.66 120.161,144.133C120.526,143.417 120.442,142.944 119.812,142.439C117.388,140.493 115.067,138.41 112.558,136.582C111.217,135.604 110.48,128.711 108.934,128.049C108.301,127.777 108.122,129.686 108.002,128.981C106.871,122.355 102.2,121.445 96.931,117.411C93.836,115.042 90.717,112.603 88.087,109.755C84.342,105.7 79.765,103.753 74.498,102.939C65.746,101.587 56.942,101.552 48.132,101.991C44.992,102.147 41.873,102.678 38.741,103.015C38.397,103.051 38.01,102.995 37.687,102.868C36.802,102.52 36.326,102.909 36.406,103.728C36.529,104.972 36.6,106.317 37.133,107.405C38.307,109.802 37.889,107.401 39.289,109.83" style="fill:rgb(212,223,86);fill-rule:nonzero;"/>
                    </g>
                    <g transform="matrix(1,0,0,-1,34.4873,828.81)">
                        <path d="M95.549,239.22C96.513,237.829 97.104,236.995 97.676,236.149C103.515,227.513 108.294,218.369 111.05,208.254C112.199,204.038 112.521,199.744 112.5,195.384C112.481,191.156 109.734,188.948 105.78,188.51C104.661,188.385 103.521,188.444 102.392,188.41C82.9,187.817 63.405,187.299 43.918,186.597C33.942,186.237 23.978,185.552 14.008,185.003C9.895,184.776 9.31,185.164 8.51,189.228C7.336,195.202 7.47,201.24 8.041,207.251C9.428,221.849 14.527,235.049 23.289,246.822C26.337,250.919 29.732,254.695 33.666,257.963C35.037,259.101 36.478,259.713 38.422,259.956C46.034,260.902 53.651,260.738 61.278,260.723C65.139,260.715 69.006,260.721 72.859,260.934C74.908,261.048 76.577,260.581 77.952,259.097C82.302,254.402 86.732,249.775 90.937,244.953C92.357,243.323 93.687,242.55 95.914,242.563C113.919,242.671 131.881,243.616 149.837,244.858C168.631,246.157 187.431,247.393 206.239,248.488C220.062,249.293 233.901,249.839 247.734,250.472C249.897,250.571 252.07,250.462 254.231,250.58C254.891,250.615 255.774,250.907 256.125,251.392C257.254,252.953 258.854,253.36 260.561,253.491C263.189,253.694 265.827,253.849 268.462,253.873C272.418,253.908 276.377,253.72 280.332,253.806C282.671,253.857 285.005,254.246 287.339,254.497C288.741,254.648 290.142,254.806 291.538,255C292.265,255.102 293.217,255.051 293.655,255.484C294.676,256.495 295.552,256.107 296.427,255.516C308.113,247.619 317.622,237.945 321.395,223.86C323.556,215.792 322.586,207.997 318.452,200.643C315.389,195.193 310.78,192.198 304.565,191.825C300.244,191.565 295.902,191.289 291.584,191.439C284.62,191.682 277.671,192.3 270.712,192.696C267.61,192.873 264.5,192.987 261.394,192.97C249.994,192.906 238.595,192.736 227.196,192.689C222.771,192.67 218.336,192.719 213.923,193.015C208.957,193.349 208.659,193.675 209.201,198.579C209.464,200.964 210.181,203.393 211.169,205.589C215.738,215.744 222.429,224.25 231.423,230.898C237.745,235.571 244.696,239.14 251.757,242.51C253.057,243.13 254.304,243.767 254.999,245.096C255.254,245.585 255.464,246.121 255.563,246.66C255.679,247.287 255.44,247.778 254.68,247.766C254.304,247.76 253.928,247.725 253.553,247.699C242.56,246.96 231.568,246.184 220.572,245.491C206.563,244.608 192.55,243.81 178.541,242.946C156.636,241.593 134.772,239.516 112.808,239.225C108.005,239.162 103.199,239.218 98.394,239.22L95.549,239.22" style="fill:rgb(18,4,14);fill-rule:nonzero;"/>
                    </g>
                    <g transform="matrix(1,0,0,-1,20.7808,524.825)">
                        <path d="M243.965,98.939C243.965,98.939 230.25,96.272 223.012,81.795C215.774,67.318 210.821,69.414 211.203,68.842C211.583,68.271 213.488,62.556 214.059,59.89C214.631,57.223 211.773,44.27 216.727,39.508C221.679,34.746 236.346,32.651 236.346,32.651C236.346,32.651 269.109,68.462 269.109,69.033C269.109,69.604 263.203,97.415 262.061,97.415C260.918,97.415 243.965,98.939 243.965,98.939" style="fill:white;fill-rule:nonzero;"/>
                    </g>
                    <g transform="matrix(1,0,0,-1,20.9121,560.982)">
                        <path d="M280.134,127.271C280.631,126.661 280.909,126.287 281.221,125.944C284.985,121.79 287.219,116.909 288.464,111.46C289.794,105.641 290.075,99.712 290.693,93.818C291.016,90.738 291.188,90.384 294.165,89.495C296.058,88.931 298.002,88.54 299.907,88.011C304.466,86.745 308.353,84.346 311.592,80.909C317.231,74.925 317.893,66.41 313.265,59.611C313.001,59.224 312.709,58.856 312.297,58.299C312.903,57.875 313.455,57.44 314.051,57.079C317.325,55.094 320.089,52.563 322.166,49.345C326.616,42.446 324.942,36.26 317.507,32.884C314.883,31.692 311.982,31.06 309.159,30.374C305.894,29.581 302.831,30.931 299.785,31.779C298.735,32.071 297.855,33.236 297.073,34.154C296.101,35.294 295.269,36.561 294.452,37.823C288.079,47.653 281.014,56.928 272.702,65.22C269.81,68.106 266.53,70.455 263.022,72.51C258.399,75.217 253.332,75.773 248.248,74.797C242.119,73.621 238.266,69.644 237.002,63.51C235.948,58.392 236.011,53.215 237.097,48.077C237.45,46.412 237.409,46.38 235.721,46.24C233.261,46.035 230.834,45.919 228.615,47.35C228.166,47.641 227.55,47.719 226.998,47.796C220.011,48.775 214.451,56.258 216.293,64.324C216.751,66.328 217.529,68.269 218.281,70.192C218.616,71.05 218.827,71.673 218.074,72.454C214.025,76.654 212.862,81.943 212.682,87.518C212.602,89.957 212.831,92.41 213.027,94.85C213.114,95.931 212.905,96.767 212.327,97.73C211.223,99.576 210.299,101.555 209.527,103.566C208.872,105.274 209.278,105.887 210.932,106.653C211.955,107.128 212.985,107.591 213.982,108.116C216.14,109.254 217.723,110.938 218.69,113.194C219.283,114.579 219.896,115.956 220.515,117.329C222.554,121.855 225.346,125.813 229.099,129.112C234.852,134.17 241.643,136.583 249.159,137.23C258.11,138.001 266.264,135.255 274.184,131.507C274.608,131.306 275.025,131.076 275.413,130.812C276.098,130.347 276.633,130.484 277.097,131.131C277.372,131.514 277.636,131.914 277.968,132.24C278.225,132.493 278.563,132.751 278.899,132.811C279.225,132.869 279.899,132.685 279.902,132.592C279.963,130.539 282.685,131.591 282.955,129.959C283.025,129.526 282.653,128.876 282.286,128.549C281.741,128.065 281.019,127.778 280.134,127.271M215.561,93.695C216.614,94.089 217.54,94.502 218.503,94.78C219.693,95.125 220.979,95.437 221.861,94.208C222.681,93.065 222.357,91.816 221.673,90.759C221.069,89.826 220.333,88.919 219.473,88.228C218.613,87.536 217.562,87.031 216.525,86.62C215.659,86.275 215.376,85.78 215.49,84.913C215.959,81.311 216.936,77.902 219.287,75.031C220.248,73.857 220.431,73.823 221.462,74.943C224.378,78.114 227.939,80.378 231.695,82.38C233.439,83.309 235.288,84.072 236.936,85.146C238.494,86.16 239.97,87.368 241.262,88.702C242.34,89.816 242.233,90.637 241.232,91.61C240.753,92.076 239.982,92.463 240.471,93.146C240.756,93.546 241.577,93.59 242.172,93.729C242.532,93.814 242.924,93.751 243.297,93.791C248.27,94.331 250.936,98.827 249.071,103.521C248.286,105.495 246.772,106.287 244.796,105.501C243.795,105.103 242.896,104.358 242.067,103.636C241.042,102.744 240.917,102.732 240.35,103.938C238.907,107.009 238.639,110.297 238.731,113.594C238.841,117.544 239.166,121.49 239.464,125.433C239.587,127.066 239.461,128.621 238.767,130.118C238.031,131.704 237.813,131.828 236.23,130.91C231.678,128.272 227.778,124.906 225.111,120.311C223.933,118.283 222.853,116.167 222.004,113.985C220.385,109.823 217.725,106.757 213.604,104.934C211.8,104.137 211.809,104.019 212.64,102.211C213.268,100.846 214.16,99.583 214.651,98.175C215.13,96.802 215.251,95.304 215.561,93.695M310.174,61.813C315.923,67.575 312.328,79.056 303.643,82.673C308.181,76.162 310.393,72.111 310.174,61.813M313.582,35.014C315.868,35.459 317.743,36.44 319.328,37.937C320.454,39.001 321.145,40.285 321.184,41.896C321.269,45.399 318.036,50.599 314.619,52.25C318.601,46.206 318.139,40.526 313.582,35.014M223.561,52.454C223.69,52.908 223.755,53.008 223.733,53.081C223.596,53.528 223.455,53.976 223.285,54.413C221.932,57.88 221.89,61.383 222.999,64.916C223.28,65.814 223.556,66.715 223.898,67.588C224.358,68.764 223.556,69.015 222.746,69.389C221.86,69.799 221.169,69.912 220.696,68.842C219.622,66.412 218.781,63.922 218.863,61.228C218.97,57.62 220.53,54.768 223.561,52.454M229.358,77.335C229.19,77.504 229.021,77.672 228.853,77.84C227.118,76.299 225.37,74.771 223.662,73.198C223.44,72.995 223.261,72.506 223.35,72.249C223.629,71.441 225.451,71.22 225.935,71.948C227.113,73.719 228.221,75.537 229.358,77.335M220.387,92.947C218.545,93.275 217.236,92.535 216.007,91.694C214.969,90.983 215.295,89.844 215.428,88.839C215.446,88.701 216.084,88.462 216.302,88.561C218.204,89.419 219.831,90.562 220.387,92.947" style="fill:rgb(18,4,14);fill-rule:nonzero;"/>
                    </g>
                    <g transform="matrix(1,0,0,-1,19.1992,670.987)">
                        <path d="M234.673,163.662C235.076,165.983 235.382,168.894 236.108,171.696C237.752,178.037 242.063,182.365 247.629,185.33C253.272,188.337 259.227,187.808 264.995,185.49C267.019,184.675 268.935,183.45 270.687,182.127C278.684,176.092 285.705,169.125 290.815,160.401C293.265,156.216 295.697,152.02 298.218,147.878C299.019,146.563 300.039,145.372 301.029,144.182C303.792,140.858 306.573,137.548 309.381,134.26C312.623,130.463 315.99,126.771 319.124,122.888C320.945,120.632 322.639,118.211 323.986,115.651C326.125,111.583 325.545,108.509 322.308,105.255C317.85,100.773 312.494,97.668 306.601,95.483C305.526,95.084 304.3,95.091 303.145,94.902C302.738,94.836 302.295,94.83 301.939,94.654C299.76,93.579 296.764,94.003 295.567,97.116C292.072,106.208 288.301,115.196 284.557,124.191C283.255,127.318 281.784,130.381 280.259,133.407C278.121,137.65 278.071,137.612 273.464,136.757C268.558,135.846 263.661,134.866 258.733,134.094C255.064,133.52 251.352,133.209 247.655,132.82C246.817,132.732 245.958,132.758 245.116,132.818C243.766,132.915 242.805,133.606 242.396,134.923C240.064,142.43 237.687,149.925 235.469,157.466C234.946,159.242 234.973,161.179 234.673,163.662" style="fill:rgb(212,223,86);fill-rule:nonzero;"/>
                    </g>
                    <g transform="matrix(1,0,0,-1,34.5054,534.539)">
                        <path d="M91.055,101.713C87.763,99.888 84.488,98.031 81.17,96.256C80.013,95.638 78.758,95.194 77.527,94.726C76.143,94.199 74.485,94.036 74.454,91.968C74.452,91.777 73.884,91.419 73.623,91.455C73.346,91.493 72.968,91.877 72.904,92.169C72.663,93.272 72.562,94.404 72.353,95.514C71.942,97.694 70.742,98.942 68.74,99.341C66.562,99.774 64.78,99.107 63.734,97.07C61.468,92.653 61.574,88.189 63.935,83.81C64.686,82.416 65.913,81.884 67.478,81.982C67.806,82.002 68.151,81.751 68.487,81.625C68.324,81.218 68.25,80.535 67.984,80.449C66.362,79.92 62.918,70.867 62.855,69.654C62.649,65.713 65.917,60.452 66.944,56.675C67.986,52.848 68.653,48.926 69.198,44.999C69.693,41.431 72.845,33.752 70.703,30.43C68.358,26.798 62.905,28.694 59.892,30.217C49.1,35.667 40.824,36.779 30.834,29.183C25.838,25.383 18.45,19.001 12.504,24.237C8.453,27.803 6.655,32.408 7.592,37.685C8.877,44.912 12.173,51.033 18.837,54.796C19.92,55.407 19.811,56.128 19.753,57.121C19.407,62.945 20.214,68.55 22.894,73.837C25.603,79.18 29.882,82.361 35.688,83.547C37.439,83.905 39.215,84.236 40.992,84.335C43.144,84.455 44.463,85.297 45.019,87.472C45.435,89.105 46.182,90.653 46.751,92.25C48.218,96.369 50.311,100.137 53.014,103.575C53.771,104.536 54.563,105.497 55.139,106.566C58.533,112.874 64.12,115.993 70.833,117.52C71.654,117.707 72.475,117.887 73.568,118.13C73.275,118.716 72.945,119.141 72.857,119.612C72.765,120.107 72.72,120.833 72.999,121.105C73.252,121.354 74.079,121.309 74.455,121.075C75.123,120.66 75.551,120.376 76.449,120.768C77.88,121.392 78.061,121.252 78.301,119.527C78.416,118.696 78.794,118.627 79.363,118.638C84.538,118.735 89.479,117.504 94.237,115.679C96.936,114.644 99.475,113.126 101.967,111.629C108.234,107.863 113.162,102.723 116.802,96.404C120.939,89.228 122.107,81.561 119.997,73.509C118.351,67.223 114.723,62.815 108.13,61.164C104.54,60.265 104.525,59.891 104.153,56.356C103.669,51.765 104.704,47.613 106.959,43.621C108.152,41.508 109.048,39.205 109.873,36.913C110.56,35.002 110.34,33.007 109.672,31.084C109.19,29.693 108.285,28.63 107.055,27.854C106.324,27.392 105.705,27.207 105.471,28.436C105.383,28.899 104.842,29.313 104.437,29.669C103.59,30.416 102.589,31.014 101.841,31.844C98.931,35.071 95.227,36.741 91.058,37.526C86.248,38.433 81.429,39.284 76.617,40.176C75.493,40.384 74.923,40.215 75.491,38.909C75.834,38.12 75.444,37.866 74.699,38.102C73.17,38.586 72.041,39.602 71.466,41.057C71.025,42.176 70.728,43.4 70.636,44.598C70.398,47.745 71.049,50.793 72.068,53.751C72.997,56.445 73.777,56.63 76.177,55.149C78.177,53.916 80.227,52.746 82.335,51.713C83.588,51.097 84.982,50.738 86.342,50.374C87.69,50.013 88.881,50.334 90.015,51.255C93.158,53.806 96.414,56.219 99.555,58.771C102.683,61.312 105.343,64.185 105.762,68.496C105.869,69.589 105.923,70.553 104.529,71.357C104.529,69.988 104.553,68.82 104.509,67.656C104.501,67.446 104.249,67.12 104.057,67.077C103.858,67.032 103.444,67.212 103.385,67.384C102.962,68.62 102.414,69.855 102.264,71.133C101.867,74.523 102.731,77.684 104.498,80.583C105.716,82.583 107.279,84.185 109.799,84.35C110.901,84.423 111.229,85.012 111.254,86.003C111.344,89.528 110.865,92.961 109.588,96.255C107.593,101.402 104.056,105.404 100.015,109.025C99.459,109.523 99.013,109.706 98.363,109.036C95.944,106.545 93.46,104.115 91.001,101.663L91.055,101.713ZM41.514,81.718C32.553,80.984 27.973,78.354 25.75,72.657C26.58,73.312 27.155,73.746 27.709,74.208C30.294,76.365 33.33,77.598 36.498,78.598C38.273,79.159 40.023,79.813 41.514,81.718M106.742,74.47C109.004,76.377 109.862,78.796 110.546,81.286C110.783,82.151 110.301,82.539 109.49,82.25C107.615,81.584 106.401,79.776 106.506,77.763C106.563,76.665 106.661,75.568 106.742,74.47" style="fill:rgb(18,4,14);fill-rule:nonzero;"/>
                    </g>
                    <g transform="matrix(1,0,0,-1,22.7363,439.477)">
                        <path d="M193.103,17.116C191.677,17.196 190.238,17.534 188.781,18.192C188.178,18.463 187.822,18.527 187.282,18.151C186.435,17.561 185.536,17.04 184.629,16.544C184.224,16.323 183.745,16.112 183.304,16.118C182.903,16.125 182.296,16.342 182.169,16.636C182.048,16.914 182.321,17.544 182.614,17.787C183.587,18.598 184.634,19.328 185.681,20.044C186.425,20.553 186.648,21.15 186.535,22.074C186.23,24.548 187.007,26.745 188.686,28.562C189.276,29.199 190.042,29.762 190.838,30.102C192.828,30.953 194.711,29.609 194.414,27.465C194.246,26.254 193.621,25.08 193.067,23.957C192.72,23.253 192.112,22.681 191.64,22.035C191.272,21.532 190.933,21.006 190.582,20.49C191.284,20.274 191.977,19.913 192.69,19.871C195.444,19.706 197.989,20.584 200.425,21.749C200.791,21.924 200.949,22.621 201.115,23.106C201.566,24.422 201.763,25.871 202.441,27.05C203.354,28.639 204.953,29.454 206.829,29.451C209.201,29.448 210.54,27.353 209.254,25.38C208.328,23.959 206.972,22.78 205.665,21.661C204.261,20.461 204.167,20.063 205.563,18.791C207.312,17.197 210.044,16.977 212.13,18.269C212.37,18.417 212.568,18.685 212.822,18.745C213.23,18.839 213.667,18.806 214.092,18.828C214.016,18.369 214.095,17.78 213.839,17.471C211.017,14.078 204.889,14.357 202.506,18.066C201.802,19.16 201.278,19.098 200.29,18.656C197.91,17.591 195.525,16.981 193.103,17.116M204.385,23.871C205.188,24.624 206.002,25.368 206.783,26.145C206.914,26.275 206.903,26.55 206.957,26.759C206.738,26.78 206.506,26.856 206.301,26.812C205.168,26.57 204.333,25.486 204.385,23.871M189.424,24.08C189.54,24.009 189.655,23.938 189.771,23.868C190.449,24.955 191.127,26.041 191.806,27.129C191.673,27.21 191.54,27.291 191.408,27.372C190.281,26.556 189.697,25.412 189.424,24.08" style="fill:rgb(18,4,14);fill-rule:nonzero;"/>
                    </g>
                    <g transform="matrix(1,0,0,-1,23.2607,437.024)">
                        <path d="M174.35,17.98C174.367,23.608 176.426,28.443 180.133,32.593C183.666,36.548 188.016,39.304 193.123,40.704C201.357,42.962 208.557,40.828 214.749,35.123C219.084,31.131 219.849,25.897 219.543,20.365C219.514,19.821 219.367,19.179 219.039,18.775C217.667,17.09 218.416,15.784 219.417,14.23C220.577,12.429 221.37,10.39 222.293,8.441C222.492,8.022 222.63,7.553 222.685,7.094C222.901,5.31 221.738,4.35 220.081,5.12C218.472,5.868 216.979,6.879 215.476,7.841C214.695,8.34 214.185,8.371 213.656,7.491C209.167,0.022 202.132,-1.973 194.027,-1.429C190.33,-1.181 186.829,-0.071 183.624,1.851C177.814,5.338 174.383,11.307 174.35,17.98M218.786,8.831C218.951,8.999 219.117,9.168 219.282,9.338C218.34,11.159 217.607,13.138 216.397,14.76C215.231,16.321 215.329,17.597 216.128,19.162C216.538,19.967 216.864,20.914 216.882,21.805C217.02,28.347 214.181,33.123 208.404,36.298C195.188,43.563 179.619,32.879 177.482,21.647C175.989,13.8 179.571,6.661 186.84,3.296C190.513,1.595 194.395,0.988 198.406,1.333C204.084,1.821 208.725,4.095 211.596,9.278C211.779,9.607 211.953,9.945 212.172,10.248C213.213,11.689 213.943,11.865 215.519,10.945C216.638,10.292 217.699,9.538 218.786,8.831" style="fill:rgb(18,4,14);fill-rule:nonzero;"/>
                    </g>
                    <g transform="matrix(1,0,0,-1,27.6777,435.194)">
                        <path d="M124.119,6.157C124.149,6.438 124.193,6.718 124.208,7C124.289,8.558 124.26,8.576 122.774,8.795C121.38,9 119.927,9.043 118.612,9.487C113.167,11.329 110.28,15.466 109.137,20.856C107.311,29.471 112.109,36.18 120.816,37.561C124.523,38.148 128.147,37.762 131.74,36.901C138.871,35.19 145.079,31.788 150.204,26.516C152.598,24.054 154.473,21.257 155.188,17.807C156.283,12.521 153.371,8 148.108,6.725C145.444,6.08 142.863,6.465 140.296,7.138C138.567,7.591 136.874,8.183 135.152,8.665C132.994,9.269 133.022,9.223 131.691,7.502C130.714,6.239 129.658,5.033 128.585,3.849C128.149,3.366 127.621,2.927 127.055,2.611C125.511,1.75 124.242,2.419 124.027,4.188C123.948,4.835 124.014,5.5 124.014,6.158C124.05,6.157 124.084,6.157 124.119,6.157M126.864,6.072C127.562,6.68 128.024,6.973 128.342,7.378C129.563,8.933 130.73,10.527 131.93,12.098C132.816,13.257 132.949,13.242 134.03,12.254C134.42,11.897 134.877,11.526 135.368,11.382C137.714,10.691 140.057,9.928 142.455,9.484C143.993,9.199 145.675,9.168 147.205,9.47C151.34,10.284 153.3,13.633 152.276,17.722C151.589,20.463 150.024,22.69 148.097,24.663C143.009,29.867 136.838,33.106 129.728,34.575C126.468,35.249 123.191,35.465 119.918,34.687C114.065,33.298 111.004,29.105 111.436,23.126C111.934,16.23 116.606,11.705 123.518,11.427C123.801,11.415 124.086,11.436 124.366,11.405C126.071,11.219 126.728,10.59 126.854,8.929C126.915,8.121 126.864,7.305 126.864,6.072" style="fill:rgb(18,4,14);fill-rule:nonzero;"/>
                    </g>
                    <g transform="matrix(1,0,0,-1,26.8921,594.175)">
                        <path d="M138.656,83.358C129.442,83.315 121.377,90.899 120.951,100.091C120.79,103.546 121.709,106.662 124.665,108.781C125.734,109.547 125.588,110.209 125.017,111.106C123.956,112.771 122.922,114.455 121.875,116.13C121.675,116.449 121.451,116.754 121.269,117.081C120.724,118.053 119.854,119.089 120.935,120.128C121.915,121.07 122.9,120.251 123.725,119.689C126.056,118.102 128.36,116.472 130.625,114.793C131.374,114.239 131.926,113.948 132.85,114.544C135.053,115.969 137.554,115.817 139.97,115.389C144.437,114.596 148.379,112.612 151.537,109.336C155.623,105.094 156.775,100.105 154.777,94.501C152.376,87.768 146.014,83.391 138.656,83.358M126.55,114.781C126.421,114.638 126.291,114.493 126.161,114.35C126.418,113.859 126.671,113.366 126.933,112.879C127.244,112.3 127.599,111.741 127.875,111.146C128.822,109.098 128.691,108.431 126.72,107.214C124.49,105.836 123.6,103.801 123.45,101.328C123.261,98.203 124.154,95.338 125.919,92.819C129.528,87.666 134.554,85.326 140.789,86.246C146.698,87.118 150.72,90.521 152.479,96.305C153.592,99.969 152.962,103.455 150.495,106.385C147.133,110.377 142.761,112.576 137.51,112.85C136.106,112.923 134.642,112.892 133.585,111.715C132.655,110.678 131.817,111.036 130.889,111.721C129.467,112.773 127.999,113.765 126.55,114.781" style="fill:rgb(18,4,14);fill-rule:nonzero;"/>
                    </g>
                    <g transform="matrix(1,0,0,-1,23.8618,570.748)">
                        <path d="M165.43,90.239C165.361,93.011 165.906,95.661 167.041,98.188C170.381,105.621 179.012,108.954 186.47,105.667C190.119,104.058 192.315,101.268 192.719,97.285C192.865,95.849 193.369,95.214 194.748,94.781C196.98,94.079 199.119,93.078 201.288,92.179C201.806,91.964 202.298,91.674 202.775,91.375C203.656,90.822 204.657,90.265 204.342,88.995C204.074,87.912 203.09,87.665 202.125,87.578C200.347,87.419 198.564,87.322 196.784,87.178C195.15,87.047 195.174,87.021 195.065,85.311C194.975,83.912 195.012,82.451 194.607,81.136C193.033,76.018 189.312,73.254 184.175,72.445C176.873,71.296 170.753,74.599 167.499,81.255C166.116,84.085 165.368,87.072 165.43,90.239M198.784,89.906C198.782,90.097 198.781,90.286 198.779,90.476C197.941,90.868 197.136,91.385 196.256,91.629C192.737,92.608 190.39,94.592 189.543,98.336C189.068,100.433 187.48,101.862 185.515,102.803C179.372,105.748 172.059,103.126 169.47,96.834C166.893,90.572 167.804,84.614 171.975,79.318C175.457,74.898 182.049,73.591 187.087,76.088C190.492,77.775 192.33,80.549 192.548,84.356C192.591,85.106 192.506,85.861 192.539,86.612C192.631,88.639 193.204,89.293 195.186,89.563C196.379,89.726 197.584,89.795 198.784,89.906" style="fill:rgb(18,4,14);fill-rule:nonzero;"/>
                    </g>
                    <g transform="matrix(1,0,0,-1,16.7983,655.245)">
                        <path d="M273.704,145.424C273.944,145.129 274.394,144.824 274.417,144.49C274.46,143.858 274.416,143.124 274.127,142.584C273.4,141.221 273.8,140.087 274.483,138.881C276.011,136.184 277.541,133.485 278.941,130.723C279.701,129.225 280.26,127.615 280.782,126.015C281.006,125.331 281.046,124.514 280.903,123.812C280.813,123.378 280.277,122.897 279.832,122.733C279.592,122.644 279.069,123.127 278.773,123.444C278.527,123.706 278.435,124.107 278.263,124.441C276.077,128.699 273.888,132.956 271.704,137.214C271.319,137.966 270.874,138.7 270.598,139.492C269.84,141.667 270.74,143.918 272.743,145.032C272.984,145.166 273.257,145.244 273.704,145.424" style="fill:rgb(18,4,14);fill-rule:nonzero;"/>
                    </g>
                    <g transform="matrix(1,0,0,-1,28.6621,541.82)">
                        <path d="M101.632,68.594C100.943,68.713 100.369,68.748 99.837,68.916C96.235,70.054 93.153,76.339 94.422,79.913C95.123,81.889 96.534,82.446 98.421,81.42C100.399,80.345 101.675,78.662 102.591,76.618C103.034,75.629 103.645,74.632 104.421,73.891C106.215,72.182 105.818,69.751 103.447,68.889C102.844,68.67 102.16,68.674 101.632,68.594M101.381,70.84C101.889,70.99 102.326,71.118 102.765,71.248C102.622,71.656 102.53,72.09 102.326,72.465C101.705,73.614 101.095,74.776 100.377,75.865C99.665,76.945 98.868,77.979 98.012,78.947C97.781,79.208 97.173,79.278 96.788,79.198C96.601,79.159 96.416,78.571 96.42,78.234C96.449,75.536 97.597,73.338 99.61,71.608C100.077,71.208 100.784,71.089 101.381,70.84" style="fill:rgb(18,4,14);fill-rule:nonzero;"/>
                    </g>
                    <g transform="matrix(1,0,0,-1,28.4663,483.327)">
                        <path d="M97.04,50.45C103.344,52.149 109.586,46.124 111.108,41.242C111.247,40.796 111.417,40.31 111.365,39.867C111.309,39.373 111.014,38.906 110.823,38.425C110.398,38.721 109.944,38.986 109.558,39.325C109.36,39.5 109.27,39.806 109.15,40.059C107.001,44.596 103.429,47.413 98.648,48.779C98.198,48.908 97.652,48.98 97.359,49.281C97.113,49.534 97.171,50.083 97.093,50.502L97.04,50.45Z" style="fill:rgb(18,4,14);fill-rule:nonzero;"/>
                    </g>
                    <g transform="matrix(1,0,0,-1,30.2319,495.49)">
                        <path d="M75.092,50.365C74.961,49.349 75.024,48.812 74.802,48.451C74.616,48.147 73.885,47.793 73.757,47.899C72.889,48.615 72.546,48.309 72.246,47.382C72.128,47.021 71.706,46.758 71.422,46.452C71.209,46.825 70.79,47.214 70.818,47.567C70.906,48.662 70.895,49.902 71.42,50.791C72.137,52.005 72.22,52.998 71.561,54.172C71.337,54.571 71.179,55.035 71.112,55.487C71.007,56.193 71.824,56.75 72.419,56.338C72.93,55.983 73.487,55.486 73.691,54.93C74.293,53.282 74.731,51.574 75.092,50.365" style="fill:rgb(18,4,14);fill-rule:nonzero;"/>
                    </g>
                    <g transform="matrix(1,0,0,-1,28.4111,499.935)">
                        <path d="M104.97,50.201C104.462,49.891 104.043,49.423 103.727,49.484C102.939,49.637 102.061,49.865 101.46,50.357C99.245,52.17 98.203,54.652 97.86,57.441C97.823,57.743 98.093,58.083 98.221,58.406C98.526,58.267 98.965,58.211 99.112,57.974C99.755,56.941 100.293,55.844 100.904,54.791C101.747,53.34 102.474,51.786 104.227,51.136C104.5,51.035 104.654,50.614 104.97,50.201" style="fill:rgb(18,4,14);fill-rule:nonzero;"/>
                    </g>
                    <g transform="matrix(1,0,0,-1,19.6729,490.343)">
                        <path d="M230.134,50.789C232.426,50.705 234.208,50.297 235.435,48.653C235.63,48.39 235.62,47.974 235.704,47.628C235.365,47.55 234.946,47.305 234.7,47.423C232.647,48.398 230.507,48.897 228.232,48.871C228.024,48.869 227.619,49.196 227.639,49.316C227.691,49.637 227.855,50.103 228.099,50.2C228.859,50.504 229.676,50.664 230.134,50.789" style="fill:rgb(18,4,14);fill-rule:nonzero;"/>
                    </g>
                    <g transform="matrix(1,0,0,-1,19.9717,506.695)">
                        <path d="M228.624,59.686C228.789,59.61 229.072,59.556 229.092,59.452C229.137,59.212 229.15,58.816 229.01,58.713C227.438,57.571 225.849,56.451 224.22,55.39C224.039,55.273 223.531,55.494 223.291,55.697C223.158,55.809 223.182,56.248 223.285,56.472C223.873,57.757 227.164,59.711 228.624,59.686" style="fill:rgb(18,4,14);fill-rule:nonzero;"/>
                    </g>
                    <g transform="matrix(-0.741239,-0.671242,0.671242,-0.741239,398.943,680.001)">
                        <path d="M245.98,68.404C246.251,68.571 246.823,68.729 246.874,68.988C247.221,70.773 246.929,72.491 245.98,74.053C245.917,74.157 245.207,74.084 245.12,73.921C244.556,72.865 245.061,69.232 245.98,68.404" style="fill:rgb(18,4,14);fill-rule:nonzero;"/>
                    </g>
                    <g transform="matrix(1,0,0,-1,23.127,572.399)">
                        <path d="M183.592,85.221C182.83,85.456 181.875,85.606 181.073,86.039C180.335,86.438 179.93,86.341 179.391,85.773C178.914,85.27 178.338,84.807 177.716,84.516C177.383,84.36 176.694,84.459 176.477,84.712C176.272,84.951 176.295,85.739 176.524,85.943C178.423,87.642 178.481,89.682 178.241,92.054C178.089,93.537 178.738,95.169 179.292,96.634C179.692,97.691 180.707,98.297 181.942,98.037C183.189,97.775 183.666,96.804 183.81,95.661C184.063,93.656 183.337,91.866 182.5,90.111C181.875,88.802 182.027,88.464 183.462,88.068C184.995,87.644 186.619,88.231 187.561,89.565C187.749,89.832 187.828,90.206 188.064,90.403C188.351,90.643 188.751,90.746 189.101,90.908C189.25,90.51 189.603,90.055 189.512,89.723C188.982,87.784 187.73,86.434 185.832,85.748C185.177,85.511 184.468,85.422 183.592,85.221" style="fill:rgb(18,4,14);fill-rule:nonzero;"/>
                    </g>
                    <g transform="matrix(1,0,0,-1,26.1284,497.706)">
                        <path d="M136.662,43.484C136.377,40.485 131.233,30.77 131.805,30.77C132.377,30.77 141.234,34.484 141.234,34.484C141.234,34.484 150.805,21.626 167.52,22.341C184.235,23.055 189.235,29.341 189.235,29.341L196.521,28.484C196.521,28.484 191.521,36.913 191.95,37.341C192.378,37.77 197.522,56.77 186.663,68.771C175.806,80.771 158.948,82.343 148.091,71.342C137.234,60.342 136.519,53.913 136.948,49.913C137.377,45.913 136.662,43.484 136.662,43.484" style="fill:white;fill-rule:nonzero;"/>
                    </g>
                    <g transform="matrix(1,0,0,-1,24.8037,511.948)">
                        <path d="M168.232,64.304C168.444,64.705 168.66,65.108 168.871,65.515C170.298,68.26 172.031,70.791 174.524,72.66C175.549,73.43 176.783,74.052 178.019,74.383C179.718,74.839 181.165,73.808 181.39,72.057C181.531,70.966 181.495,69.757 181.163,68.721C180.375,66.261 179.485,63.819 178.411,61.472C177.296,59.036 175.883,56.737 174.662,54.347C173.249,51.583 171.886,48.792 170.531,45.998C169.971,44.842 169.72,44.708 168.845,45.59C168.028,46.414 167.376,47.399 166.619,48.285C164.936,50.254 163.151,52.142 161.557,54.178C158.743,57.769 155.958,61.389 153.338,65.121C152.447,66.392 151.878,67.988 151.533,69.52C151,71.882 152.606,73.53 154.996,73.187C156.09,73.03 157.181,72.603 158.183,72.113C161.566,70.454 164.407,68.061 166.998,65.356C167.291,65.05 167.587,64.747 167.891,64.452C167.953,64.392 168.059,64.376 168.232,64.304" style="fill:rgb(212,223,86);fill-rule:nonzero;"/>
                    </g>
                    <g transform="matrix(1,0,0,-1,26.2676,501.03)">
                        <path d="M194.494,52.607C194.469,49.745 194.206,46.885 193.748,44.132C193.509,42.695 193.161,41.277 192.949,39.836C192.9,39.496 193.136,39.056 193.355,38.743C194.624,36.934 195.95,35.165 197.211,33.35C197.764,32.553 198.142,31.645 197.476,30.729C196.856,29.875 195.93,29.942 195.025,30.125C193.594,30.413 192.175,30.763 190.737,31.007C190.342,31.074 189.817,30.968 189.488,30.743C187.794,29.582 186.258,28.143 184.46,27.189C175.603,22.491 166.338,22.3 156.885,25.056C153.066,26.168 149.456,27.781 146.159,30.028C143.966,31.523 141.914,33.189 140.719,35.647C140.346,36.414 139.945,36.078 139.488,35.836C137.572,34.824 135.668,33.787 133.733,32.815C132.604,32.247 131.354,31.501 130.235,32.699C129.191,33.817 129.865,35.036 130.472,36.094C131.969,38.707 133.572,41.259 135.063,43.875C135.379,44.429 135.539,45.154 135.53,45.796C135.483,49.226 135.078,52.675 135.325,56.079C135.748,61.894 138.169,66.994 142.048,71.327C148.215,78.216 155.795,82.613 165.096,83.524C178.937,84.88 190.344,76.554 193.437,63.01C194.199,59.672 194.526,56.139 194.494,52.607M134.26,36.849C134.321,36.776 134.381,36.704 134.442,36.63C134.894,36.854 135.348,37.075 135.798,37.301C137.102,37.957 138.377,38.681 139.717,39.249C140.629,39.636 141.852,39.936 142.395,38.883C143.661,36.425 145.733,34.835 147.912,33.377C151.946,30.678 156.402,28.918 161.147,27.906C168.952,26.241 176.52,26.801 183.674,30.542C185.012,31.242 186.171,32.317 187.328,33.317C188.039,33.93 188.664,34.155 189.617,33.897C191.023,33.518 192.487,33.353 194.206,33.046C193.109,34.729 192.293,36.16 191.297,37.453C190.322,38.719 189.753,39.982 190.153,41.617C190.633,43.579 191.196,45.547 191.397,47.546C192.085,54.369 191.169,61.036 188.357,67.279C185.384,73.879 180.101,77.866 173.033,79.486C159.14,82.668 143.499,72.08 139.726,60.49C139.507,59.82 139.227,59.15 139.139,58.459C138.745,55.336 138.251,52.214 138.098,49.076C137.94,45.818 137.368,42.734 135.778,39.864C135.233,38.88 134.764,37.855 134.26,36.849" style="fill:rgb(18,4,14);fill-rule:nonzero;"/>
                    </g>
                    <g transform="matrix(1,0,0,-1,23.3418,736.067)">
                        <path d="M193.308,199.462C190.65,198.495 192.593,194.604 195.022,193.462C197.451,192.318 203.879,187.604 203.879,187.604C203.879,187.604 194.022,183.175 191.022,180.889C188.021,178.603 183.308,175.604 181.593,175.175C179.878,174.747 176.593,173.175 174.878,170.032C173.164,166.889 172.45,165.318 174.021,164.461C175.593,163.603 177.021,162.604 178.593,161.746C180.165,160.889 182.307,160.318 182.307,160.318C182.307,160.318 183.021,157.746 185.45,158.032C187.879,158.317 196.022,158.889 199.308,159.46C202.593,160.032 211.166,161.032 213.88,162.604C216.595,164.175 218.88,164.746 218.88,164.746L220.88,164.603C220.88,164.603 253.024,152.46 260.31,150.318C267.596,148.174 279.31,146.46 284.596,148.032C289.882,149.603 296.025,150.318 294.311,158.032C292.597,165.747 281.311,186.319 280.596,188.175C279.882,190.032 272.31,204.034 271.881,204.034C271.453,204.034 247.166,197.033 247.166,197.033L260.881,174.175C260.881,174.175 235.023,177.604 226.451,181.89C217.88,186.176 212.88,193.033 207.593,194.604C202.308,196.176 194.879,200.033 193.308,199.462" style="fill:white;fill-rule:nonzero;"/>
                    </g>
                    <g transform="matrix(1,0,0,-1,34.7495,766.75)">
                        <path d="M10.751,214.287C10.751,214.287 -0.677,180.285 5.609,172.285C11.894,164.285 25.895,166 35.324,169.428C44.753,172.857 74.182,180.285 79.325,181.429C84.468,182.571 91.389,184.321 91.389,184.321C91.389,184.321 112.469,183.428 115.47,186.143C118.469,188.857 118.898,190.429 118.898,190.429C118.898,190.429 120.612,190.143 123.898,191.429C127.184,192.715 127.612,197.429 127.612,197.429C127.612,197.429 130.327,197.858 131.612,199.857C132.898,201.858 132.184,203.429 132.184,203.429C132.184,203.429 137.184,206.143 136.184,207.715C135.184,209.287 133.613,209.144 131.041,209.287C128.469,209.429 112.04,210.715 112.04,210.715C112.04,210.715 117.612,216.144 116.04,217.144C114.469,218.144 111.04,215.429 109.041,215.001C107.04,214.572 94.469,213.287 89.469,207.572C84.468,201.858 80.611,198.857 78.897,198.429C77.183,198 48.181,199 43.467,198.429C38.753,197.858 35.466,197.572 35.466,197.572L39.753,207.858L10.751,214.287Z" style="fill:white;fill-rule:nonzero;"/>
                    </g>
                    <g transform="matrix(1,0,0,-1,28.062,714.919)">
                        <path d="M103.442,169.457C102.442,169.028 103.442,129.598 105.014,129.027C106.585,128.456 127.871,128.741 128.871,130.027C129.871,131.313 135.729,139.456 135.729,139.456C135.729,139.456 147.301,142.313 148.872,151.17C150.444,160.028 148.73,164.17 146.301,164.314C143.872,164.457 143.872,164.885 143.872,164.885C143.872,164.885 151.301,179.457 150.587,180.743C149.872,182.028 149.158,182.028 149.158,182.028C149.158,182.028 153.586,192.029 152.729,194.458C151.873,196.887 150.444,199.743 147.015,198.458C143.586,197.172 135.443,193.744 135.443,193.744C135.443,193.744 135.443,197.886 133.729,198.315C132.014,198.744 127.871,191.315 126.157,187.743C124.443,184.172 120.156,183.6 118.443,179.886C116.728,176.171 115.3,170.743 115.443,171.314C115.585,171.885 103.442,169.457 103.442,169.457" style="fill:white;fill-rule:nonzero;"/>
                    </g>
                    <g transform="matrix(1,0,0,-1,35,725.084)">
                        <path d="M129.741,206.588C131.354,208.91 132.811,211.044 134.309,213.149C135.559,214.905 136.241,215.282 137.017,214.762C137.828,214.218 137.683,213.47 136.427,211.713C135.636,210.605 134.843,209.497 134.172,208.135C134.572,208.268 134.966,208.426 135.376,208.526C137.245,208.983 139.097,209.58 140.994,209.828C143.23,210.12 144.901,209.032 145.955,207.044C147.358,204.4 147.589,201.775 145.853,199.154C145.613,198.793 145.625,198.271 145.483,197.837C145.007,196.386 144.498,194.945 144.038,193.489C143.955,193.223 143.916,192.775 144.067,192.631C145.304,191.446 145.309,190.07 144.816,188.585C144.772,188.45 144.738,188.308 144.667,188.188C142.567,184.619 141.276,180.68 139.513,176.959C139.191,176.278 139.078,175.96 139.864,175.574C141.553,174.743 142.548,173.263 143.284,171.581C146.275,164.746 143.703,156.114 137.212,152.076C134.882,150.627 132.167,149.804 129.654,148.636C129.106,148.38 128.583,147.942 128.206,147.464C126.488,145.292 124.826,143.078 123.149,140.875C122.953,140.619 122.821,140.3 122.592,140.083C122.108,139.624 121.646,138.997 121.058,138.816C114.472,136.786 107.681,136.895 100.894,137.013C100.566,137.018 100.227,137.137 99.911,137.086C98.166,136.812 96.995,137.665 96.166,139.049C95.633,139.938 94.966,140.174 93.956,140.143C89.564,140.007 85.311,139.38 81.036,138.163C64.594,133.485 48.078,129.063 31.577,124.591C24.406,122.646 17.184,123.02 10.019,124.589C3.673,125.979 0.354,130.082 0.047,136.556C-0.174,141.209 0.387,145.788 1.672,150.25C2.871,154.411 4.231,158.526 5.561,162.648C6.587,165.829 6.735,166.196 7.815,169.36C8.133,170.293 8.431,171.259 8.933,172.094C9.194,172.529 9.994,173.048 10.339,172.927C10.82,172.758 11.355,172.055 11.418,171.527C11.531,170.568 11.472,169.524 11.204,168.597C10.146,164.934 9.988,164.077 8.772,160.466C6.77,154.524 4.744,148.589 4.048,142.319C3.83,140.361 3.801,138.367 3.856,136.394C3.992,131.518 6.142,128.889 10.914,127.891C18.206,126.365 25.48,126.267 32.741,128.265C49.179,132.79 65.66,137.158 82.065,141.795C85.899,142.878 89.725,143.246 93.628,143.364C98.76,143.519 103.896,143.545 109.027,143.712C111.694,143.8 114.118,144.584 116.018,147.011C115.471,147.064 115.092,147.134 114.714,147.131C112.784,147.12 110.852,147.079 108.921,147.075C108.407,147.074 107.853,147.072 107.39,147.255C107.015,147.404 106.523,147.815 106.501,148.137C106.481,148.458 106.918,148.993 107.267,149.116C108.057,149.395 108.91,149.577 109.746,149.622C112.661,149.779 115.581,149.824 118.495,149.99C119.746,150.061 120.999,150.268 122.228,150.523C123.046,150.692 123.782,150.742 124.169,149.9C124.591,148.981 124.05,148.38 123.275,147.956C122.987,147.798 122.676,147.584 122.37,147.577C120.469,147.534 119.404,146.414 118.307,144.978C115.867,141.782 112.302,140.758 108.458,140.548C105.732,140.397 103,140.337 100.27,140.232C99.866,140.217 99.463,140.175 99.06,140.145L99.026,139.815C99.334,139.772 99.645,139.675 99.949,139.693C104.743,139.996 109.543,140.239 114.326,140.663C116.47,140.854 118.581,141.41 120.705,141.816C120.87,141.848 121.055,141.973 121.16,142.109C124.57,146.52 127.647,151.123 129.393,156.487C129.596,157.114 129.743,157.76 129.969,158.378C130.29,159.259 130.131,159.595 129.114,159.369C125.914,158.659 122.696,158.524 119.428,158.95C117.567,159.194 115.668,159.131 113.786,159.223C112.516,159.286 111.246,159.353 109.98,159.467C109.264,159.532 108.462,159.691 108.468,160.613C108.475,161.524 109.286,161.759 109.99,161.758C113.75,161.754 117.519,161.833 121.267,161.592C124.382,161.393 127.388,161.759 130.336,162.605C131.382,162.906 132.304,163.688 133.234,164.322C133.494,164.499 133.582,164.931 133.75,165.246C133.455,165.356 133.162,165.47 132.862,165.57C132.777,165.598 132.674,165.591 132.582,165.58C127.512,164.962 122.547,166.197 117.526,166.445C114.127,166.614 110.758,166.656 107.433,165.687C106.47,165.406 105.382,165.439 104.363,165.502C103.625,165.548 102.534,165.495 102.518,166.592C102.502,167.69 103.568,167.594 104.322,167.741C105.751,168.021 107.181,168.298 108.618,168.535C109.288,168.646 109.61,168.97 109.921,169.604C110.253,170.281 110.938,170.795 111.5,171.348C112.245,172.081 113.02,172.782 113.782,173.497C113.689,173.617 113.595,173.739 113.502,173.859C113.003,173.56 112.495,173.277 112.007,172.962C109.347,171.241 106.44,170.39 103.295,169.915C99.241,169.303 95.276,168.166 91.932,165.585C88.986,163.312 86.071,160.998 83.169,158.669C82.662,158.264 82.28,157.701 81.846,157.206C80.12,155.232 78.034,154.116 75.328,154.08C66.708,153.964 58.096,153.693 49.475,154.268C43.478,154.667 37.513,154.124 31.665,152.662C30.308,152.323 29.02,151.714 27.683,151.285C27.327,151.171 26.722,151.105 26.559,151.297C26.31,151.589 26.13,152.272 26.304,152.526C26.74,153.158 27.3,153.857 27.974,154.144C29.611,154.841 31.321,155.395 33.042,155.857C34.016,156.119 34.368,156.511 34.68,157.548C35.654,160.783 36.889,163.942 38.138,167.084C38.315,167.532 39.13,167.727 39.65,168.038C39.891,167.483 40.409,166.881 40.322,166.383C40.042,164.768 39.577,163.182 39.113,161.605C38.741,160.341 38.265,159.108 37.841,157.859C37.61,157.177 37.678,156.794 38.581,156.902C44.409,157.602 50.242,157.167 56.081,157.023C62.672,156.861 69.27,156.948 75.863,157.064C76.835,157.082 77.979,157.651 78.727,158.32C83.429,162.53 88.047,166.836 93.544,170.033C94.086,170.348 94.098,170.608 94.05,171.231C93.854,173.801 93.713,176.389 93.799,178.962C93.849,180.443 95.051,181.295 96.898,181.543C99.372,181.875 101.855,182.142 104.335,182.426C105.318,182.538 106.302,182.654 107.289,182.709C107.949,182.745 108.148,183.013 108.158,183.674C108.211,187.662 109.711,191.117 112.724,193.646C116.057,196.442 118.572,199.69 120.173,203.734C120.773,205.248 121.754,206.625 122.661,207.998C123.118,208.689 123.716,209.354 124.395,209.82C126.5,211.266 128.628,210.465 129.377,208.024C129.501,207.621 129.585,207.207 129.741,206.588M113.107,169.191C114.728,169.116 116.368,169.078 118.001,168.959C121.845,168.678 125.682,168.28 129.529,168.085C131.729,167.974 131.757,168.129 132.072,170.297C132.099,170.483 132.12,170.673 132.112,170.86C131.999,173.919 131.868,176.978 131.767,180.038C131.738,180.914 131.457,181.232 130.484,181.16C125.084,180.753 119.673,180.477 114.272,180.065C108.873,179.652 103.483,179.118 98.087,178.669C97.053,178.583 96.584,178.196 96.633,177.088C96.702,175.537 96.639,173.979 96.603,172.425C96.582,171.536 96.86,171.253 97.785,171.539C99.399,172.04 101.028,172.645 102.69,172.811C105.526,173.094 108.1,173.968 110.555,175.351C111.41,175.832 112.317,176.256 113.249,176.555C114.361,176.912 115.545,176.976 116.375,175.949C117.235,174.885 116.809,173.74 116.14,172.808C115.243,171.56 114.169,170.441 113.107,169.191M130.717,151.972C134.75,153.341 137.989,155.481 139.93,159.202C141.969,163.112 142.202,167.129 140.225,171.144C139.273,173.075 137.871,173.766 136.025,173.543C135.188,173.441 134.932,173.069 134.886,172.273C134.816,171.059 134.591,169.854 134.504,168.641C134.483,168.356 134.671,167.948 134.898,167.772C136.793,166.306 137.016,164.358 135.252,162.776C133.76,161.438 132.882,159.934 132.526,157.927C132.178,155.963 131.378,154.079 130.717,151.972M112.637,183.03C112.92,183.043 113.204,183.083 113.483,183.066C114.837,182.989 115.588,183.551 116.312,184.798C118.342,188.293 120.531,191.707 122.855,195.015C124.923,197.961 126.197,201.178 126.92,204.651C127.052,205.285 127.056,205.968 126.987,206.613C126.947,206.99 126.644,207.338 126.46,207.699C126.107,207.505 125.698,207.371 125.417,207.101C125.084,206.782 124.82,206.369 124.598,205.958C123.478,203.891 122.288,201.853 121.301,199.723C120.253,197.458 118.939,195.453 116.968,193.89C116.121,193.218 115.34,192.462 114.543,191.73C112.611,189.955 111.356,187.788 110.832,185.212C110.3,182.596 110.101,182.977 112.637,183.03M144.352,202.874C144.021,206.161 142.729,207.906 139.588,206.889C136.965,206.041 134.401,204.963 131.908,203.783C130.994,203.349 130.346,202.34 129.608,201.562C129.432,201.377 129.385,201.068 129.279,200.818C129.542,200.801 129.81,200.742 130.065,200.776C131.091,200.914 132.11,201.113 133.137,201.229C136.37,201.594 139.625,201.968 142.808,201.028C143.898,200.708 144.147,201.084 144.255,201.97C144.294,202.297 144.326,202.625 144.352,202.874M126.13,194.691C130.697,195.132 135.073,194.567 139.455,194.08C141.473,193.856 142.283,194.498 142.639,196.503C142.935,198.178 142.778,198.52 141.204,198.691C136.998,199.148 132.837,198.772 128.767,197.647C127.396,197.267 126.513,196.243 126.13,194.691M123.654,183.618C125.947,183.778 127.996,183.931 130.046,184.061C132.687,184.229 134.136,183.033 134.49,180.358C134.631,179.287 134.653,178.201 134.778,177.129C134.816,176.801 135.016,176.493 135.142,176.176C135.455,176.352 135.868,176.453 136.067,176.717C137.475,178.576 138.473,180.637 138.904,182.946C139.051,183.737 138.832,184.355 138.005,184.614C135.54,185.385 133.096,186.245 130.597,186.881C127.64,187.632 125.362,186.543 123.654,183.618M124.294,188.699C127.603,190.709 130.919,189.973 134.231,188.827C135.743,188.305 137.254,187.779 138.761,187.241C139.481,186.982 140.477,186.267 140.838,186.511C141.445,186.923 141.683,187.919 142.006,188.698C142.727,190.431 142.534,190.93 140.643,191.132C136.717,191.551 132.777,191.835 128.836,192.086C127.919,192.145 126.956,191.937 126.058,191.692C124.535,191.277 124.14,190.564 124.294,188.699M121.444,188.243C120.721,187.027 120.001,185.881 119.359,184.692C119.18,184.361 119.232,183.905 119.179,183.506C119.811,183.445 120.357,183.43 120.644,184.222C120.864,184.826 121.224,185.432 121.673,185.887C122.511,186.733 122.308,187.411 121.444,188.243" style="fill:rgb(18,4,14);fill-rule:nonzero;"/>
                    </g>
                    <g transform="matrix(1,0,0,-1,23.4595,737.664)">
                        <path d="M177.996,164.324C178.804,164.186 179.623,163.888 180.418,163.942C182.616,164.093 184.806,164.369 186.994,164.637C188.997,164.881 190.988,165.265 192.997,165.427C195.071,165.595 197.14,165.603 198.927,166.924C199.183,167.113 199.835,167.122 200.037,166.932C200.26,166.722 200.323,166.131 200.2,165.802C199.754,164.608 198.786,163.879 197.583,163.648C196.065,163.358 194.502,163.31 192.971,163.068C189.958,162.593 186.953,162.066 183.95,161.53C183.716,161.489 183.376,161.243 183.351,161.055C183.325,160.859 183.573,160.498 183.779,160.422C184.27,160.244 184.907,159.957 185.308,160.127C188.856,161.641 192.644,161.775 196.386,162.133C199.291,162.41 202.216,162.478 205.122,162.739C206.134,162.83 207.165,163.11 208.109,163.492C211.596,164.905 215.039,166.424 218.528,167.828C219.032,168.03 219.748,167.965 220.282,167.78C221.659,167.303 223.035,166.779 224.331,166.118C233.867,161.252 243.995,157.988 254.258,155.129C260.012,153.526 265.797,151.964 271.652,150.817C277.418,149.687 283.1,150.596 288.523,152.915C291.396,154.143 292.063,154.932 291.841,158.067C291.691,160.195 291.289,162.396 290.505,164.366C289.237,167.55 287.613,170.598 286.045,173.656C280.971,183.546 275.854,193.413 270.757,203.292C270.563,203.668 270.276,204.066 270.276,204.453C270.276,204.998 271.273,204.879 271.61,205.082C271.973,205.302 272.806,205.115 273.209,204.81C273.788,204.37 274.244,203.71 274.612,203.064C276.387,199.956 277.243,197.787 278.913,194.623C282.74,187.375 286.544,180.115 290.264,172.813C291.716,169.965 293.155,167.069 294.15,164.047C294.884,161.816 295.097,159.351 295.167,156.979C295.261,153.791 293.588,151.591 290.647,150.291C285.194,147.881 279.53,146.822 273.573,147.312C268.183,147.755 263.005,149.173 257.851,150.681C252.97,152.109 248.121,153.648 243.255,155.131C236.561,157.172 230.243,160.098 223.989,163.198C219.479,165.434 219.46,165.345 214.864,163.353C213.803,162.893 213.353,162.243 213.04,161.122C212.437,158.956 211.603,156.843 210.697,154.781C210.438,154.194 209.647,153.774 209.013,153.439C208.582,153.211 208.005,153.209 207.491,153.195C200.987,153.027 194.496,153.077 188.033,154.031C185.963,154.336 184.663,155.496 183.503,157.047C183.095,157.59 182.499,157.988 182.056,158.509C181.494,159.171 180.82,159.823 180.532,160.604C180.287,161.27 179.977,161.421 179.384,161.571C178.301,161.846 176.925,161.953 176.261,162.673C175.108,163.924 173.859,164.889 172.447,165.816C170.934,166.808 171.144,169.365 172.493,170.887C172.996,171.455 173.239,172.26 173.757,172.81C175.22,174.366 176.7,175.92 178.312,177.315C178.865,177.794 179.104,178.009 178.854,178.743C177.372,183.073 176.834,187.54 177.038,192.106C177.124,194.058 177.649,194.756 179.576,195.035C181.251,195.278 182.948,195.38 184.639,195.489C186.237,195.59 187.84,195.636 189.441,195.671C190.32,195.689 190.784,195.809 190.252,196.863C189.653,198.047 189.694,199.329 190.181,200.572C190.879,202.353 192.069,202.814 193.862,202.107C197.83,200.543 201.643,198.537 205.947,197.926C206.585,197.835 207.232,197.572 207.796,197.25C211.971,194.872 216.184,192.547 219.642,189.121C220.378,188.392 221.11,187.653 221.896,186.982C224.381,184.859 227.068,183.255 230.289,182.259C237.061,180.166 244.034,179.508 250.99,178.62C253.085,178.353 255.173,178.037 257.427,177.72C257.292,178.048 257.234,178.251 257.131,178.426C253.242,184.989 249.349,191.549 245.459,198.111C245.363,198.273 245.209,198.451 245.218,198.613C245.245,199.089 245.34,199.56 245.409,200.033C245.873,199.937 246.498,199.997 246.771,199.716C247.554,198.912 248.26,198.011 248.876,197.069C250.011,195.337 251.046,193.537 252.151,191.784C254.912,187.402 257.805,183.096 260.393,178.615C261.265,177.105 262.359,176.518 263.844,175.978C265.507,175.373 267.058,174.442 268.619,173.582C269.048,173.346 269.429,172.909 269.671,172.474C270.067,171.764 269.591,171.13 268.789,171.209C268.607,171.227 268.42,171.297 268.256,171.383C262.75,174.274 256.71,175.035 250.669,175.745C242.947,176.652 235.204,177.42 227.82,180.073C226.634,180.499 225.389,180.93 224.385,181.653C222.251,183.189 220.105,184.765 218.238,186.603C214.827,189.961 210.735,192.271 206.667,194.634C205.875,195.094 204.894,195.236 203.995,195.505C201.833,196.154 199.619,196.668 197.521,197.478C196.189,197.993 194.968,198.863 193.806,199.722C193.033,200.293 192.832,199.99 192.678,199.304C192.364,197.904 193.717,196.317 195.455,195.702C198.334,194.686 200.886,193.014 203.452,191.391C203.569,191.318 203.695,191.219 203.757,191.1C204.412,189.844 205.193,188.872 206.79,188.646C207.594,188.532 207.561,187.48 206.781,187.051C206.46,186.874 206.076,186.79 205.71,186.716C201.435,185.863 197.336,184.45 193.426,182.563C191.792,181.775 190.3,180.641 188.863,179.512C186.349,177.54 183.726,175.841 180.521,175.253C178.742,174.928 177.946,173.512 176.832,171.904C177.567,172.041 178.041,172.102 178.501,172.22C182.012,173.118 185.482,174.188 189.18,174.052C190.582,174 191.599,174.921 192.654,175.748C193.523,176.427 194.502,177.022 195.522,177.422C195.926,177.58 196.576,177.109 197.113,176.924C196.858,176.476 196.617,176.018 196.338,175.586C196.241,175.437 196.03,175.369 195.9,175.235C193.237,172.471 190.105,171.101 186.157,171.365C184.583,171.471 182.957,170.682 181.344,170.351C179.154,169.905 177.035,168.898 174.693,169.505C174.527,169.548 174.094,169.045 173.987,168.728C173.772,168.09 173.886,167.43 174.677,167.302C175.553,167.161 176.473,167.022 177.336,167.144C179.897,167.508 182.435,168.03 184.991,168.428C186.048,168.592 187.17,168.812 188.191,168.626C189.98,168.299 191.533,168.687 193.086,169.486C194.044,169.978 195.038,170.429 196.062,170.751C196.448,170.872 196.965,170.574 197.422,170.468C197.287,170.052 197.281,169.475 196.997,169.246C194.561,167.298 191.945,165.842 188.629,166.168C187.449,166.285 186.216,166.139 185.037,165.94C182.695,165.543 180.374,165.025 178.044,164.557C178.028,164.479 178.012,164.402 177.996,164.324M179.771,187.62C180.093,185.774 180.653,182.677 181.159,179.572C181.33,178.53 181.827,178.274 182.681,178.801C184.078,179.663 185.519,180.483 186.799,181.5C190.611,184.526 194.838,186.714 199.488,188.111C200.073,188.287 200.665,188.44 201.255,188.599C201.818,188.748 202.019,189.054 201.482,189.431C199.176,191.051 196.945,192.877 193.897,192.813C190.228,192.734 186.555,192.713 182.895,192.486C179.42,192.271 179.741,193.065 179.771,187.62M197.529,156.123C197.528,156.08 197.527,156.037 197.527,155.993C200.726,155.993 203.924,155.961 207.12,156.026C207.629,156.036 208.361,156.343 208.588,156.742C209.187,157.797 209.578,158.971 210.02,160.111C210.112,160.35 210.067,160.644 210.086,160.914C209.784,160.884 209.453,160.923 209.184,160.812C207.414,160.076 205.576,159.808 203.667,159.87C202.825,159.898 201.974,159.817 201.134,159.727C196.507,159.232 191.882,158.724 187.257,158.206C186.908,158.167 186.571,158.019 186.229,157.922C186.417,157.56 186.535,157.127 186.813,156.858C187.047,156.633 187.462,156.507 187.804,156.493C191.045,156.35 194.287,156.242 197.529,156.123" style="fill:rgb(18,4,14);fill-rule:nonzero;"/>
                    </g>
                    <g transform="matrix(1,0,0,-1,26.9771,433.222)">
                        <path d="M140.798,16.107C141.893,16.355 142.979,16.652 144.085,16.824C144.516,16.89 144.991,16.672 145.445,16.582C145.242,16.161 145.15,15.591 144.817,15.344C141.388,12.794 137.216,13.09 134.192,16.121C133.637,16.678 133.292,16.531 132.756,16.229C130.979,15.223 129.079,14.752 127.05,15.213C126.374,15.366 125.567,15.561 125.132,16.027C124.072,17.162 123.081,16.945 121.926,16.297C121.491,16.052 120.931,15.88 120.445,15.914C120.004,15.946 119.586,16.302 119.158,16.516C119.386,16.927 119.521,17.458 119.863,17.723C120.489,18.207 121.307,18.45 121.908,18.957C122.309,19.296 122.664,19.899 122.711,20.414C122.857,22.028 123.323,23.458 124.54,24.572C125.768,25.696 127.261,25.876 128.255,25.048C129.212,24.252 129.337,22.84 128.453,21.443C127.98,20.695 127.4,19.984 126.743,19.393C125.943,18.672 126.279,18.335 127.019,17.995C128.299,17.408 131.024,17.759 131.978,18.745C132.228,19.004 132.214,19.57 132.229,19.998C132.263,20.928 132.118,21.881 132.268,22.787C132.437,23.819 133.05,24.621 134.222,24.709C135.188,24.782 136.167,24.061 136.325,22.803C136.457,21.739 136.334,20.545 135.96,19.544C135.623,18.642 135.792,18.147 136.413,17.585C137.66,16.455 139.181,16.268 140.798,16.107" style="fill:rgb(18,4,14);fill-rule:nonzero;"/>
                    </g>
                    <g transform="matrix(1,0,0,-1,26.0967,599.062)">
                        <path d="M142.456,99.249C140.835,99.298 139.08,99.97 137.75,100.486C136.924,100.807 136.424,100.78 135.749,100.239C135.065,99.688 134.261,99.245 133.443,98.925C133.134,98.804 132.543,99.064 132.272,99.339C132.142,99.471 132.351,100.135 132.587,100.395C133.246,101.122 134.39,101.665 134.593,102.469C134.76,103.136 133.812,104.049 133.446,104.893C131.952,108.336 133.832,111.486 137.271,111.34C139.748,111.237 141.304,109.33 140.705,106.932C140.438,105.863 139.912,104.812 139.302,103.885C138.777,103.087 138.922,102.671 139.716,102.429C140.778,102.106 147.747,101.187 144.512,99.631C143.888,99.331 143.185,99.228 142.456,99.249M135.459,107.238C135.947,106.409 136.339,105.743 136.731,105.078C137.119,105.639 137.506,106.199 137.891,106.762C137.918,106.799 137.939,106.849 137.937,106.894C137.918,107.38 138.055,107.977 137.82,108.317C137.65,108.564 136.898,108.648 136.566,108.482C136.142,108.271 135.878,107.736 135.459,107.238" style="fill:rgb(18,4,14);fill-rule:nonzero;"/>
                    </g>
                    <g transform="matrix(1,0,0,-1,27.2959,758.075)">
                        <path d="M120.552,185.181C119.646,185.225 118.236,185.249 116.836,185.374C115.79,185.466 114.96,186.002 114.536,186.999C114.166,187.869 114.712,188.656 115.587,188.406C119.233,187.362 122.862,188.134 126.497,188.397C128.182,188.52 129.87,188.629 131.546,188.841C132.094,188.911 132.587,189.341 133.138,189.498C133.707,189.662 134.432,189.937 134.879,189.725C135.623,189.368 135.537,188.549 135.166,187.872C134.608,186.854 133.741,186.277 132.569,186.179C128.732,185.863 124.895,185.543 120.552,185.181" style="fill:rgb(18,4,14);fill-rule:nonzero;"/>
                    </g>
                    <g transform="matrix(1,0,0,-1,34.5405,681.851)">
                        <path d="M20.825,172.459C18.625,167.722 16.105,163.146 14.231,158.257C12.355,153.359 10.678,148.395 9.222,143.357C8.512,140.903 7.792,138.433 7.239,135.938C6.755,133.751 6.521,131.396 7.518,129.313C8.537,127.185 10.711,126.183 12.912,125.736C15.551,125.2 18.216,124.776 20.867,124.299C27.071,123.183 33.288,122.13 39.5,121.055C40.615,120.862 41.761,121.352 42.082,122.52C42.36,123.532 41.738,124.906 40.616,125.102C35.542,125.987 30.468,126.877 25.392,127.758C22.891,128.192 20.386,128.601 17.882,129.022C16.704,129.219 15.524,129.405 14.348,129.615C13.478,129.77 12.422,129.898 11.685,130.435C10.333,131.423 10.813,133.679 11.114,135.051C11.619,137.351 12.234,139.632 12.855,141.903C14.118,146.531 15.533,151.125 17.094,155.662C18.892,160.893 20.453,166.301 22.713,171.355C23.28,172.624 21.421,173.741 20.825,172.459" style="fill-rule:nonzero;"/>
                    </g>
                    <g transform="matrix(1,0,0,-1,32.2495,699.976)">
                        <path d="M43.416,140.967C44.416,143.808 45.79,146.477 46.98,149.238C48.223,152.12 49.478,154.997 50.695,157.89C51.813,160.545 52.868,163.238 54.066,165.858C54.92,167.728 55.836,169.43 57.823,170.189C60.265,171.123 59.336,174.578 56.742,174.109C54.272,173.664 52.395,171.285 51.295,169.198C49.854,166.464 48.844,163.466 47.682,160.607C45.171,154.43 42.308,148.204 40.886,141.665C40.525,140.005 42.856,139.378 43.416,140.967" style="fill-rule:nonzero;"/>
                    </g>
                    <g transform="matrix(1,0,0,-1,28.1782,678.475)">
                        <path d="M101.318,156.973C101.438,155.014 101.851,153.119 102.614,151.308C103.421,149.395 104.621,147.769 105.838,146.102C108.184,142.89 109.688,139.422 110.747,135.606C111.396,133.268 114.909,134.251 114.372,136.606C113.514,140.372 111.68,144.031 109.372,147.11C108.171,148.714 106.734,150.142 105.715,151.878C104.73,153.557 104.155,155.397 103.894,157.322C103.696,158.781 101.227,158.44 101.318,156.973" style="fill-rule:nonzero;"/>
                    </g>
                    <g transform="matrix(1,0,0,-1,30.2065,606.745)">
                        <path d="M71.718,104.516C73.152,103.639 74.629,102.955 76.313,102.748C77.801,102.568 79.342,102.934 80.654,103.639C83.593,105.219 84.91,108.51 84.386,111.722C84.234,112.654 83.872,113.52 83.271,114.249C82.412,115.292 80.936,115.677 79.859,114.722C79.279,114.207 79.282,113.339 79.598,112.699C79.741,112.409 79.943,112.235 80.186,112.046C80.28,111.971 80.377,111.898 80.476,111.829C80.279,111.994 80.255,112.007 80.405,111.867C80.024,112.374 80.779,111.153 80.486,111.743C80.637,111.437 80.715,111.059 80.779,110.727C80.795,110.647 80.809,110.568 80.82,110.487C80.788,110.713 80.783,110.717 80.805,110.497C80.805,110.335 80.821,110.172 80.818,110.008C80.815,109.845 80.8,109.684 80.791,109.521C80.815,109.933 80.78,109.464 80.759,109.367C80.721,109.18 80.673,108.996 80.617,108.815C80.594,108.739 80.385,108.214 80.543,108.565C80.413,108.276 80.257,107.999 80.081,107.736C80.006,107.625 79.816,107.374 80.01,107.618C79.902,107.482 79.787,107.35 79.667,107.223C79.564,107.115 79.457,107.012 79.347,106.911C79.288,106.858 78.873,106.548 79.176,106.759C78.93,106.588 78.679,106.428 78.413,106.29C78.329,106.246 77.999,106.102 78.27,106.211C78.108,106.146 77.942,106.089 77.776,106.04C77.608,105.99 77.438,105.957 77.269,105.914C76.958,105.836 77.448,105.906 77.039,105.879C75.495,105.78 74.095,106.114 72.585,106.573C71.345,106.952 70.643,105.172 71.718,104.516" style="fill-rule:nonzero;"/>
                    </g>
                    <g transform="matrix(1,0,0,-1,27.4517,638.862)">
                        <path d="M112.272,135.892C114.379,131.866 116.279,127.735 118.362,123.695C119.386,121.71 120.417,119.731 121.484,117.77C122.018,116.789 122.553,115.809 123.089,114.831C123.64,113.825 124.14,112.606 125.405,112.425C125.984,112.342 126.775,112.464 127.047,113.093C127.597,114.364 127.187,115.187 126.536,116.329C125.949,117.364 125.362,118.399 124.778,119.436C123.682,121.379 122.567,123.311 121.452,125.243C119.149,129.234 116.716,133.156 114.538,137.217C113.737,138.706 111.491,137.386 112.272,135.892" style="fill-rule:nonzero;"/>
                    </g>
                    <g transform="matrix(1,0,0,-1,19.2368,664.902)">
                        <path d="M234.114,151.989C234.25,149.972 234.864,147.887 235.403,145.944C235.956,143.946 236.621,141.972 237.327,140.022C238.058,137.999 238.83,135.99 239.644,133.999C240.325,132.331 240.957,130.591 241.852,129.023C242.625,127.67 243.683,126.435 245.156,125.839C246.998,125.093 249.104,125.573 251.007,125.788C255.19,126.261 259.36,126.839 263.494,127.645C268.246,128.571 272.952,129.703 277.598,131.067C279.179,131.531 278.514,133.979 276.916,133.54C269.378,131.467 261.726,129.831 253.994,128.673C252.062,128.384 250.119,128.095 248.172,127.944C246.308,127.799 245.124,128.382 244.149,129.977C243.259,131.434 242.645,133.075 241.991,134.646C241.249,136.427 240.54,138.223 239.864,140.031C239.082,142.117 238.342,144.22 237.581,146.314C236.861,148.293 236.219,150.43 235.241,152.294C234.968,152.813 234.074,152.588 234.114,151.989" style="fill-rule:nonzero;"/>
                    </g>
                    <g transform="matrix(1,0,0,-1,14.7158,708.963)">
                        <path d="M302.195,131.419C308.489,131.055 314.794,133.944 320.042,137.174C322.588,138.742 325.258,140.502 327.142,142.86C329.043,145.236 329.892,148.195 329.641,151.226C329.108,157.671 324.619,161.962 320.809,166.737C317.332,171.097 314.093,175.626 310.953,180.233C308.661,183.593 306.407,187.002 303.65,190.007C302.411,191.359 300.413,189.349 301.641,187.998C303.823,185.6 305.649,182.93 307.461,180.248C310.024,176.452 312.635,172.696 315.413,169.053C317.25,166.644 319.128,164.269 321.108,161.975C323.007,159.774 324.96,157.505 325.972,154.735C326.927,152.12 327.252,149.085 326.06,146.483C324.904,143.96 322.509,142.255 320.272,140.755C317.49,138.889 314.582,137.235 311.514,135.885C308.453,134.537 305.225,133.632 302.023,132.693C301.305,132.482 301.471,131.461 302.195,131.419" style="fill-rule:nonzero;"/>
                    </g>
                </g>
            </g>
        </g>
    </g>
</svg>
