<?xml version="1.0" encoding="UTF-8" standalone="no"?>
<!DOCTYPE svg PUBLIC "-//W3C//DTD SVG 1.1//EN" "http://www.w3.org/Graphics/SVG/1.1/DTD/svg11.dtd">
<svg width="100%" height="100%" viewBox="0 0 340 350" version="1.1" xmlns="http://www.w3.org/2000/svg" xmlns:xlink="http://www.w3.org/1999/xlink" xml:space="preserve" xmlns:serif="http://www.serif.com/" style="fill-rule:evenodd;clip-rule:evenodd;stroke-linejoin:round;stroke-miterlimit:2;">
    <g transform="matrix(1,0,0,1,-972,0)">
        <g id="img_0-1" transform="matrix(1.02719,0,0,1.00984,-27.0861,28.4885)">
            <rect x="972.64" y="-28.211" width="331" height="346.588" style="fill:none;"/>
            <g transform="matrix(0.97353,0,0,0.990252,30.1269,1.41425)">
                <g transform="matrix(1,0,0,1,941.641,-55.7108)">
                    <g>
                        <g transform="matrix(1,0,0,-1,31,370.903)">
                            <path d="M25.056,299.014C32.667,305.887 41.883,311.009 52.08,315.191C105.638,337.157 161.024,343.244 218.453,339.968C245.752,338.41 271.337,332.754 293.836,316.34C314.239,301.494 328.763,278.373 328.508,252.509C328.36,237.462 324.888,116.396 321.014,101.93C317.533,88.932 311.799,77.356 301.824,68.202C292.515,59.66 280.958,53.163 269.265,48.577C267.258,47.79 265.221,47.146 263.163,46.599C254.941,30.759 251.661,9.212 250.7,1.467C250.575,0.461 249.278,0.159 248.715,1C237.406,17.885 229.821,32.07 224.77,43.792L224.764,43.796C168.967,42.92 110.95,41.487 56.009,53.024C43.565,55.636 30.871,59.399 21.253,67.771C13.396,74.61 8.151,84.119 5.064,94.107C-2.514,118.627 -0.506,252.366 9.032,276.043C12.823,285.452 18.309,292.921 25.056,299.014" style="fill:white;fill-rule:nonzero;"/>
                        </g>
                        <g transform="matrix(1,0,0,-1,31,374.091)">
                            <path d="M225.878,345.219C227.171,345.105 228.466,345.031 229.758,344.884C226.623,345.207 223.445,345.48 220.24,345.667C217.033,345.876 213.822,345.966 210.585,346.115C207.354,346.282 204.098,346.286 200.847,346.362C197.596,346.451 194.341,346.422 191.098,346.404C192.862,346.452 194.646,346.501 196.447,346.551C198.246,346.586 200.063,346.573 201.89,346.584C203.719,346.586 205.559,346.589 207.408,346.591C209.255,346.553 211.11,346.514 212.969,346.475C220.383,346.373 227.975,345.926 235.288,344.991C242.611,344.062 249.701,342.628 256.176,340.697C262.654,338.776 268.503,336.354 273.4,333.73C273.724,333.723 274.405,333.543 275.357,333.233C276.303,332.916 277.538,332.509 278.892,331.897C281.637,330.75 285.016,329.099 288.22,327.244C294.655,323.587 300.335,319.063 300.448,318.749C304.884,314.882 309.031,310.578 312.763,305.854C311.435,307.44 310.155,309.068 308.729,310.552C308.029,311.305 307.349,312.078 306.633,312.813L304.448,314.969L306.633,312.813C307.349,312.078 308.029,311.305 308.729,310.552C310.155,309.068 311.435,307.44 312.763,305.854C315.678,302.099 318.465,298.168 320.818,293.909C323.159,289.653 325.281,285.206 326.882,280.502C328.465,275.8 329.69,270.921 330.375,265.906C330.996,260.895 331.148,255.735 330.857,250.707C330.322,240.588 328.517,124.739 326.215,114.755C325.643,112.256 325.027,109.765 324.404,107.272C323.773,104.806 323.126,102.248 322.337,99.722C321.547,97.199 320.655,94.692 319.645,92.217C318.615,89.749 317.458,87.318 316.167,84.945C314.49,81.909 312.16,78.206 308.94,74.414C307.349,72.508 305.487,70.616 303.477,68.75C301.477,66.903 299.286,65.098 296.957,63.345C292.299,59.836 287.055,56.575 281.509,53.725C278.737,52.299 275.889,50.975 273.007,49.756C271.568,49.161 270.129,48.546 268.585,48.001C267.824,47.73 267.063,47.478 266.301,47.241L265.469,46.982L265.393,46.808L264.742,45.459C264.331,44.508 263.922,43.563 263.516,42.624C262.749,40.719 262.025,38.821 261.387,36.924C260.099,33.135 259.051,29.405 258.177,25.863C257.298,22.322 256.62,18.96 256.059,15.892C255.77,14.36 255.536,12.894 255.316,11.517C255.242,11.042 255.169,10.574 255.097,10.114C255,9.441 254.904,8.778 254.81,8.127C254.634,6.808 254.464,5.535 254.301,4.31C253.965,3.526 253.729,2.972 253.497,2.434L253.31,2C253.247,1.868 253.19,1.669 253.117,1.643L252.697,1.264C252.398,1.018 252.18,0.737 251.809,0.559C251.41,0.336 250.776,0.106 250.191,0.041C249.9,0 249.62,0 249.397,0.005L249.106,0.028C249.007,0.072 248.895,0.167 248.789,0.234C247.927,0.822 247.065,1.411 246.201,2.001L245.55,2.444C245.441,2.541 245.334,2.541 245.223,2.717L244.892,3.217L243.563,5.228C243.931,4.674 244.278,4.155 244.604,3.666C244.766,3.423 244.924,3.187 245.076,2.958C245.153,2.848 245.229,2.719 245.302,2.631L245.517,2.487C246.081,2.107 246.578,1.772 247.029,1.468C247.479,1.163 247.882,0.889 248.264,0.63C248.454,0.5 248.639,0.375 248.82,0.251C248.911,0.191 249.003,0.122 249.089,0.07L249.326,0.051C249.673,0.028 250.198,0.053 250.717,0.184C251.235,0.309 251.774,0.572 252.056,0.771C252.348,1.02 252.664,1.33 253.024,1.663C253.068,1.713 253.117,1.731 253.158,1.81L253.285,2.107C253.369,2.308 253.456,2.515 253.546,2.728C253.727,3.155 253.916,3.608 254.12,4.092C253.854,3.503 253.589,2.915 253.324,2.33L253.128,1.892C253.059,1.783 252.982,1.752 252.91,1.678L252.477,1.297L252.046,0.916C251.917,0.826 251.712,0.711 251.464,0.599C250.966,0.369 250.285,0.223 249.736,0.236C249.464,0.237 249.23,0.265 249.068,0.302L248.429,0.777L247.16,1.734L245.905,2.688L245.593,2.926L245.438,3.045C245.386,3.082 245.333,3.196 245.281,3.268L244.654,4.247C243.827,5.541 243.004,6.828 242.184,8.109L241.879,8.586L241.711,8.863L241.377,9.41L240.714,10.502C239.824,11.949 238.974,13.405 238.12,14.839C234.742,20.605 231.632,26.278 228.768,31.971C229.943,30.056 230.22,29.756 232.967,25.211C231.882,27.078 230.824,28.963 229.786,30.86C229.076,32.463 228.042,34.658 226.901,37.12C226.339,38.356 225.747,39.656 225.145,40.978C224.852,41.643 224.556,42.313 224.26,42.983L223.849,43.925L223.666,44.375L223.539,44.689C223.484,44.774 223.49,44.956 223.35,44.91C223.13,44.912 222.913,44.915 222.699,44.917L220.387,44.917C218.632,44.922 217.048,44.928 215.758,44.932C217.118,44.733 212.149,44.612 207.764,44.513L209.497,44.684C192.856,44.326 173.516,44.314 158.615,44.521C156.538,44.555 154.98,44.498 154.038,44.438C149.276,44.548 144.514,44.79 139.753,44.968C140.843,44.629 127.892,45.202 134.704,44.735C129.353,45.095 123.977,45.455 118.66,45.812C113.345,46.257 108.087,46.63 103.022,47.334C84.841,49.059 66.199,51.8 47.645,56.403C43.018,57.649 38.415,59.167 33.985,61.172C29.561,63.168 25.298,65.666 21.518,68.806C17.702,71.914 14.481,75.69 11.813,79.755C9.147,83.831 7.02,88.216 5.391,92.741L5.831,91.902C5.233,93.474 4.723,95.05 4.257,96.624C3.815,98.202 3.432,99.777 3.023,101.344C2.661,102.923 2.362,104.514 2.027,106.106C1.738,107.707 1.508,109.329 1.239,110.964C0.318,117.534 -0.128,124.518 0.031,132.609C0.376,138.378 1.272,251.092 2.602,257.049C2.957,258.533 3.26,259.972 3.625,261.306C4.007,262.634 4.364,263.879 4.689,265.012C5.414,267.251 6.07,269.009 6.53,270.056C7.063,271.616 7.557,273.058 8.02,274.412C8.544,275.742 9.035,276.986 9.502,278.171C10.454,280.528 11.458,282.573 12.552,284.56C14.772,288.504 17.268,292.282 21.58,296.955C20.595,295.637 22.696,297.898 24.708,299.702C26.708,301.48 28.61,303.038 26.296,300.809C23.357,297.825 21.939,296.156 20.62,294.604C19.328,293.036 18.13,291.568 16.354,288.519L16.382,288.75C14.186,285.265 12.373,281.563 10.925,277.676C10.209,275.707 9.462,273.751 8.859,271.743C8.188,269.758 7.65,267.731 7.095,265.71C4.965,257.602 3.721,249.257 3.311,240.879C2.986,232.5 3.408,118.292 4.973,110.051C5.671,105.916 6.785,101.865 7.984,97.861C9.25,93.915 10.849,90.082 12.829,86.481C15.376,81.626 18.745,77.106 22.895,73.392C27.061,69.686 32.065,66.808 37.439,64.612C48.203,60.215 60.313,58.324 71.961,56.21C97.13,51.847 124.817,49.853 146.801,49.106C152.046,48.848 155.84,49.098 160.318,49.151C169.966,48.988 180.878,48.971 192.129,49.084C197.757,49.15 203.468,49.218 209.146,49.285C211.987,49.32 214.819,49.356 217.63,49.391C219.035,49.407 220.434,49.424 221.826,49.44L223.274,49.458L224.139,49.469C224.434,49.484 224.652,49.378 224.912,49.339L225.662,49.174L226.036,49.092C226.147,49.039 226.199,48.9 226.283,48.808L227.199,47.577C227.764,46.293 228.298,45.083 228.827,43.88C228.646,44.268 228.472,44.643 228.357,44.89C230.828,39.378 233.301,34.693 235.874,30.109C238.448,25.523 241.138,21.042 244.237,15.999C244.134,16.003 245.094,14.439 245.539,13.665C245.646,13.552 245.938,13.13 246.388,12.444C246.628,12.08 246.956,11.579 247.359,10.965C247.61,10.573 247.908,10.109 248.242,9.588C248.327,9.461 248.501,9.402 248.647,9.452C248.804,9.498 248.876,9.66 248.882,9.814C248.934,10.129 248.99,10.458 249.046,10.798C249.206,11.683 249.375,12.611 249.55,13.573C249.87,15.313 250.229,17.107 250.617,18.936C251.393,22.593 252.328,26.383 253.408,30.132C254.486,33.881 255.71,37.589 257.051,41.082C257.758,42.818 258.423,44.52 259.18,46.125C259.543,46.933 259.892,47.728 260.29,48.485C260.803,49.507 261.305,50.506 261.793,51.479C262.536,51.677 263.267,51.872 263.986,52.063C264.46,52.201 264.924,52.336 265.382,52.469C266.242,52.73 267.06,53.004 267.829,53.282C269.362,53.854 270.786,54.421 271.969,54.921C274.353,55.918 275.917,56.673 276.413,56.943C277.523,57.44 278.656,57.99 279.806,58.567C285.275,61.431 290.539,64.795 295.342,68.654C297.737,70.58 300.048,72.642 302.135,74.795C304.227,76.964 306.118,79.295 307.811,81.731C311.202,86.607 313.76,91.912 315.71,97.256C316.686,99.93 317.517,102.615 318.224,105.285C318.943,107.985 319.639,110.675 320.29,113.273C321.611,117.752 322.889,122.832 323.818,126.641C324.323,130.394 324.797,236.824 325.375,241.345C325.737,247.126 325.832,251.66 325.91,254.025C325.982,256.387 326.141,256.591 326.216,253.628C326.263,254.809 326.305,255.99 326.26,257.149C326.23,258.313 326.234,259.478 326.173,260.635C325.956,262.945 325.789,265.246 325.348,267.479C325.042,269.734 324.414,271.894 323.924,274.028C323.257,276.116 322.714,278.193 321.923,280.116C320.689,283.773 318.996,287.228 317.219,290.698C316.396,292.136 315.712,293.232 315.115,294.137C314.522,295.044 313.917,295.699 313.383,296.34C312.789,297.216 312.318,297.969 311.863,298.577C311.401,299.179 311.017,299.68 310.685,300.115C310.008,300.975 309.55,301.582 309.036,302.158C308.516,302.728 307.987,303.307 307.215,304.153C306.471,305.024 305.409,306.094 303.858,307.674C303.055,308.382 299.155,312.34 294.805,315.888C292.659,317.693 290.337,319.318 288.496,320.672C286.595,321.933 285.137,322.877 284.592,323.194L285.805,322.385C285.258,322.723 284.72,323.054 284.193,323.378C283.651,323.675 283.118,323.965 282.594,324.251C281.543,324.814 280.539,325.377 279.534,325.876C277.493,326.821 275.589,327.781 273.604,328.548C269.698,330.222 265.698,331.567 260.938,333.147C247.629,337.36 233.028,339.497 218.582,340.342C204.054,341.203 189.75,341.43 176.652,340.968C176.384,341.258 182.434,341.019 182.733,341.415C167.26,341.106 151.714,339.669 136.28,337.572C134.889,337.374 133.352,337.096 132.007,336.817C130.662,336.551 129.507,336.311 128.88,336.168C123.986,335.282 125.948,335.908 122.371,335.222L121.933,334.871C116.666,334.107 114.331,333.232 109.429,332.242C109.148,332.291 107.358,331.92 105.623,331.537C105.611,331.381 104.265,331.127 102.978,330.815C101.69,330.503 100.443,330.205 100.599,330.11L100.544,330.119C99.504,329.856 98.761,329.69 97.501,329.328C97.002,329.226 95.458,328.911 93.393,328.49C91.34,328.003 88.768,327.392 86.196,326.781C83.611,326.204 81.063,325.488 79.02,324.935C76.975,324.387 75.445,323.978 74.943,323.843L74.037,323.508C71.318,322.622 70.111,322.369 71.666,322.988L68.343,321.796L68.733,321.914L65.429,320.729C64.827,320.49 64.181,320.123 65.163,320.338C63.246,319.798 61.156,319.006 59.321,318.239C60.594,318.782 61.944,319.358 63.336,319.953C64.744,320.508 66.195,321.08 67.653,321.656C70.567,322.817 73.507,324.014 76.236,324.986C75.092,324.658 73.487,324.188 71.9,323.589C70.308,323.004 68.695,322.402 67.472,321.986C66.059,321.363 63.842,320.569 61.47,319.536C59.089,318.529 56.496,317.433 54.227,316.473C53.21,316.096 52.402,316.119 50.223,315.024C49.221,314.354 47.709,313.92 45.96,312.905C48.091,313.841 50.158,314.749 52.307,315.692C52.168,315.499 50.867,314.905 49.404,314.236C47.945,313.558 46.328,312.799 45.516,312.356C44.691,312.065 40.719,309.934 38.287,308.513C39.462,308.937 36.41,307.22 35.117,306.164C33.563,305.091 32.539,304.452 33.109,304.972C32.783,304.905 34.292,306.032 35.639,306.96C36.992,307.88 38.153,308.64 36.952,308.061C36.416,307.595 33.274,305.595 31.682,304.386C31.576,304.489 32.716,305.292 31.59,304.63C29.818,303.276 27.882,301.906 27.036,300.93C27.376,301.175 28.043,301.804 28.55,302.215C27.446,301.274 30.563,303.68 33.839,305.642C37.1,307.629 40.438,309.258 38.8,308.352C39.19,308.652 35.507,306.78 32.175,304.561C28.816,302.382 25.857,299.85 26.563,300.51C27.845,301.732 25.432,299.868 26.778,301.118C27.329,301.521 27.872,301.93 28.438,302.311C30.335,303.945 31.025,304.755 30.258,304.298C28.609,302.975 31.086,304.688 33.74,306.231C36.386,307.79 39.21,309.172 37.628,308.318L38.844,309.132C37.47,308.46 33.989,306.331 32.828,305.262C32.733,305.379 31.04,304.224 29.683,303.201L29.227,302.806C27.814,301.764 26.018,300.091 26.743,300.994C28.681,302.692 29.326,303.277 29.238,303.394C29.151,303.511 28.374,303.103 27.576,302.69C26.783,302.271 25.992,301.818 25.862,301.91C25.743,301.987 26.255,302.65 28.221,304.285C25.147,301.278 29.451,305.06 33.194,307.521C33.497,307.845 35.041,309.132 37.789,310.849C40.232,312.223 39.276,311.572 39.78,311.761C41.097,312.585 43.71,313.998 43.293,313.963C45.333,314.764 46.376,315.618 48.803,316.63C50.959,317.47 48.694,316.488 50.235,317.055C53.415,318.438 57.977,320.166 60.527,321.232C61.456,321.797 64.438,323.151 62.117,322.582C57.209,320.632 64.126,322.941 58.993,320.992C61.067,322.19 54.433,319.316 53.402,319.205C54.973,319.994 58.28,321.289 61.061,322.327L60.523,322.066C62.969,322.992 67.952,324.592 70.551,325.74C69.882,325.638 71.018,326.14 69.193,325.528C70.326,325.928 71.449,326.362 72.591,326.734C73.04,326.834 73.501,326.937 72.52,326.596C74.171,327.016 75.773,327.582 76.997,328.048C77.301,328.43 95.514,332.973 94.97,332.721C97.487,333.341 98.049,333.688 100.532,334.164C100.568,334.159 100.217,334.069 99.583,333.917C98.947,333.768 98.029,333.553 96.93,333.296C95.829,333.044 94.548,332.751 93.188,332.439C91.828,332.129 90.408,331.728 89.001,331.373C86.194,330.636 83.47,329.962 81.674,329.463C79.883,328.943 78.994,328.69 79.815,328.939C80.333,329.142 82.352,329.782 85.152,330.488C86.548,330.852 88.132,331.265 89.806,331.702C90.643,331.919 91.503,332.142 92.373,332.367C93.25,332.567 94.138,332.768 95.025,332.97C96.799,333.372 98.567,333.772 100.235,334.15C101.068,334.341 101.876,334.526 102.647,334.702C103.422,334.858 104.16,335.007 104.848,335.145C107.601,335.699 109.555,336.117 109.937,336.264C111.814,336.669 114.089,337.108 113.675,336.874C116.853,337.526 112.67,336.953 114.918,337.496C114.974,337.485 114.746,337.395 115.47,337.533L117.623,338.105C122.607,338.876 129.878,340.257 135.142,340.716C133.603,340.697 131.849,340.648 128.466,340.273L127.889,340.112C127.405,340.08 124.631,339.701 124.687,339.847C127.867,340.424 130.606,340.833 133.988,341.2C134.606,341.315 135.326,341.449 135.81,341.54C135.8,341.52 135.75,341.499 135.766,341.48C136.858,341.702 136.74,341.701 136.331,341.703C136.277,341.706 136.21,341.709 136.093,341.705C137.073,342.027 140.233,342.358 143.874,342.725C147.522,343.004 151.654,343.284 154.582,343.674C156.322,343.741 154.75,343.618 156.915,343.694C159.918,343.983 162.455,344.227 165.026,344.474C167.604,344.64 170.216,344.807 173.363,345.009C175.383,344.928 175.54,344.866 173.117,344.58C174.701,344.677 176.286,344.759 177.872,344.795C173.529,345.164 186.758,345.408 181.974,345.768C183.367,345.891 186.224,346.011 188.896,345.899C189.165,345.783 189.585,345.598 192.943,345.587C197.618,345.726 196.504,345.687 200.375,345.732C201.294,345.857 199.875,345.953 200.041,346.068C203.026,345.896 204.33,345.943 205.595,346.012C206.859,346.088 208.083,346.179 210.897,346.02C212.66,345.916 215.281,345.762 217.484,345.632C219.686,345.486 221.477,345.264 221.551,345.137C226.317,344.82 226.333,344.944 225.878,345.219" style="fill-rule:nonzero;"/>
                        </g>
                        <g transform="matrix(1,0,0,-1,31,283.882)">
                            <path d="M268.585,99.705C273.487,99.705 278.397,99.467 283.288,99.77C288.641,100.1 290.221,101.833 291.785,108.462C294.789,121.217 294.422,134.332 293.93,147.4C293.779,151.371 291.336,153.176 288.388,153.365C277.286,154.082 266.346,156.779 255.133,156.544C211.053,155.618 209.876,157.11 165.776,154.496C131.53,152.466 97.167,153.661 62.857,153.335C57.967,153.288 53.029,153.187 48.202,152.311C42.232,151.228 40.474,148.475 40.354,141.082C40.243,134.268 40.232,127.455 41.489,120.713C45.396,99.76 47.354,102.519 59.213,102.407C73.025,102.278 86.864,102.77 100.643,101.827C111.736,101.067 122.773,99.272 133.934,99.388C161.56,99.673 189.186,99.576 216.813,99.825C222.581,99.876 228.342,101.089 234.112,101.182C252.368,101.474 227.747,102.194 245.973,101.27C253.474,100.89 261.02,99.702 268.585,99.705" style="fill:rgb(1,115,181);fill-rule:nonzero;"/>
                        </g>
                        <g transform="matrix(1,0,0,-1,31,318.088)">
                            <path d="M268.407,117.459C273.3,117.459 278.202,117.226 283.084,117.523C288.428,117.845 290.007,119.539 291.566,126.016C294.566,138.48 294.198,151.295 293.707,164.064C293.557,167.944 291.118,169.708 288.176,169.893C277.093,170.593 266.173,173.228 254.979,172.999C210.976,172.094 209.801,173.552 165.778,170.998C131.592,169.014 97.29,170.182 63.041,169.863C58.158,169.817 53.229,169.719 48.411,168.863C42.452,167.805 40.695,165.115 40.576,157.89C40.466,151.232 40.454,144.575 41.709,137.987C45.61,117.513 47.563,120.209 59.402,120.099C73.19,119.973 87.005,120.454 100.76,119.533C111.833,118.79 122.852,117.036 133.992,117.149C161.569,117.428 189.149,117.333 216.726,117.576C222.484,117.626 228.234,118.811 233.995,118.902C252.218,119.188 227.641,119.891 245.834,118.988C253.323,118.617 260.855,117.457 268.407,117.459" style="fill:rgb(1,115,181);fill-rule:nonzero;"/>
                        </g>
                    </g>
                </g>
                <g transform="matrix(1,0,0,1,941.641,-55.7108)">
                    <text x="75.962px" y="113.213px" style="font-family:'Mitr-Medium', 'Mitr';font-weight:500;font-size:34px;">SOUND-CH</text>
                    <text x="256.74px" y="113.213px" style="font-family:'Mitr-Medium', 'Mitr';font-weight:500;font-size:34px;">E</text>
                    <text x="273.23px" y="113.213px" style="font-family:'Mitr-Medium', 'Mitr';font-weight:500;font-size:34px;">CK</text>
                    <text x="93.765px" y="189.813px" style="font-family:'Mitr-Medium', 'Mitr';font-weight:500;font-size:66px;fill:white;">สาวเ	<tspan x="260.149px " y="189.813px ">็</tspan>ก</text>
                </g>
                <g transform="matrix(1,0,0,1,941.641,-55.7108)">
                    <text x="221.079px" y="189.816px" style="font-family:'Mitr-Medium', 'Mitr';font-weight:500;font-size:66px;fill:white;">ช</text>
                    <text x="205.146px" y="242.213px" style="font-family:'Mitr-Medium', 'Mitr';font-weight:500;font-size:32.787px;">สี่ยง</text>
                </g>
                <g transform="matrix(1,0,0,1,941.641,-55.7108)">
                    <text x="194.753px" y="242.216px" style="font-family:'Mitr-Medium', 'Mitr';font-weight:500;font-size:32.787px;">เ</text>
                </g>
                <g transform="matrix(1,0,0,1,941.641,-55.7108)">
                    <text x="183.409px" y="242.216px" style="font-family:'Mitr-Medium', 'Mitr';font-weight:500;font-size:32.787px;">ะ</text>
                </g>
                <g transform="matrix(1,0,0,1,941.641,-55.7108)">
                    <text x="165.245px" y="242.216px" style="font-family:'Mitr-Medium', 'Mitr';font-weight:500;font-size:32.787px;">ว</text>
                </g>
                <g transform="matrix(1,0,0,1,941.641,-55.7108)">
                    <text x="150.884px" y="242.216px" style="font-family:'Mitr-Medium', 'Mitr';font-weight:500;font-size:32.787px;">า</text>
                </g>
                <g transform="matrix(1,0,0,1,941.641,-55.7108)">
                    <text x="129.999px" y="242.216px" style="font-family:'Mitr-Medium', 'Mitr';font-weight:500;font-size:32.787px;">ภ</text>
                </g>
                <g transform="matrix(1,0,0,1,941.641,-55.7108)">
                    <text x="285.213px" y="281.561px" style="font-family:'Mitr-Medium', 'Mitr';font-weight:500;font-size:32.787px;">!</text>
                </g>
                <g transform="matrix(1,0,0,1,941.641,-55.7108)">
                    <text x="273.409px" y="281.561px" style="font-family:'Mitr-Medium', 'Mitr';font-weight:500;font-size:32.787px;">ู้</text>
                </g>
                <g transform="matrix(1,0,0,1,941.641,-55.7108)">
                    <text x="255.901px" y="281.561px" style="font-family:'Mitr-Medium', 'Mitr';font-weight:500;font-size:32.787px;">ร</text>
                </g>
                <g transform="matrix(1,0,0,1,941.641,-55.7108)">
                    <text x="235.835px" y="281.561px" style="font-family:'Mitr-Medium', 'Mitr';font-weight:500;font-size:32.787px;">ง</text>
                </g>
                <g transform="matrix(1,0,0,1,941.641,-55.7108)">
                    <text x="216.654px" y="281.561px" style="font-family:'Mitr-Medium', 'Mitr';font-weight:500;font-size:32.787px;">อ</text>
                </g>
                <g transform="matrix(1,0,0,1,941.641,-55.7108)">
                    <text x="216.654px" y="281.561px" style="font-family:'Mitr-Medium', 'Mitr';font-weight:500;font-size:32.787px;">้</text>
                </g>
                <g transform="matrix(1,0,0,1,941.641,-55.7108)">
                    <text x="195.278px" y="281.561px" style="font-family:'Mitr-Medium', 'Mitr';font-weight:500;font-size:32.787px;">ต</text>
                </g>
                <g transform="matrix(1,0,0,1,941.641,-55.7108)">
                    <text x="175.934px" y="281.561px" style="font-family:'Mitr-Medium', 'Mitr';font-weight:500;font-size:32.787px;">ๆ</text>
                </g>
                <g transform="matrix(1,0,0,1,941.641,-55.7108)">
                    <text x="157.77px" y="281.561px" style="font-family:'Mitr-Medium', 'Mitr';font-weight:500;font-size:32.787px;">ว</text>
                </g>
                <g transform="matrix(1,0,0,1,941.641,-55.7108)">
                    <text x="143.409px" y="281.561px" style="font-family:'Mitr-Medium', 'Mitr';font-weight:500;font-size:32.787px;">า</text>
                </g>
                <g transform="matrix(1,0,0,1,941.641,-55.7108)">
                    <text x="123.081px" y="281.561px" style="font-family:'Mitr-Medium', 'Mitr';font-weight:500;font-size:32.787px;">ส</text>
                </g>
                <g transform="matrix(1,0,0,1,941.641,-55.7108)">
                    <text x="123.081px" y="281.561px" style="font-family:'Mitr-Medium', 'Mitr';font-weight:500;font-size:32.787px;">ี่</text>
                </g>
                <g transform="matrix(1,0,0,1,941.641,-55.7108)">
                    <text x="102.655px" y="281.561px" style="font-family:'Mitr-Medium', 'Mitr';font-weight:500;font-size:32.787px;">ท</text>
                </g>
            </g>
        </g>
    </g>
</svg>
