<?xml version="1.0" encoding="UTF-8" standalone="no"?>
<!DOCTYPE svg PUBLIC "-//W3C//DTD SVG 1.1//EN" "http://www.w3.org/Graphics/SVG/1.1/DTD/svg11.dtd">
<svg width="100%" height="100%" viewBox="0 0 340 290" version="1.1" xmlns="http://www.w3.org/2000/svg" xmlns:xlink="http://www.w3.org/1999/xlink" xml:space="preserve" xmlns:serif="http://www.serif.com/" style="fill-rule:evenodd;clip-rule:evenodd;stroke-linejoin:round;stroke-miterlimit:2;">
    <g transform="matrix(1,0,0,1,-2387,-1505)">
        <g id="img_3-2" transform="matrix(1.03487,0,0,1.01341,-83.9762,-20.8323)">
            <rect x="2387.72" y="1505.64" width="328.544" height="286.163" style="fill:none;"/>
            <g transform="matrix(0.966304,0,0,0.986769,2362.11,1151.31)">
                <g>
                    <g transform="matrix(1,0,0,-1,32.2285,645.801)">
                        <path d="M186.663,273.778C187.228,274.407 187.547,274.897 187.986,275.225C189.388,276.27 190.777,277.352 192.285,278.225C193.143,278.721 194.242,278.742 195.004,277.85C195.754,276.97 195.592,275.935 195.003,275.096C194.145,273.872 193.169,272.719 192.151,271.622C191.022,270.406 190.98,270.458 192.486,269.785C212.608,260.801 227.825,246.694 237.117,226.578C240.203,219.895 242.843,212.998 245.521,206.134C249.695,195.434 254.384,184.976 259.663,174.776C260.427,173.299 261.439,172.271 263.002,171.743C266.934,170.417 270.838,169.003 274.794,167.754C280.066,166.088 285.217,164.185 289.699,160.849C296.364,155.89 299.657,149.305 299.074,140.941C298.798,136.991 298.171,133.07 296.673,129.393C295.01,125.313 293.191,121.288 291.262,117.326C288.629,111.921 286.696,106.305 285.606,100.397C285.456,99.582 285.351,98.756 285.259,97.931C284.755,93.378 286.599,89.715 290.878,88.056C293.988,86.85 297.365,86.318 300.637,85.547C303.463,84.882 306.37,84.5 309.138,83.654C325.43,78.677 333.098,61.065 325.736,45.727C324.591,43.341 323.389,40.976 322.394,38.527C321.265,35.748 320.646,32.828 321.552,29.856C321.987,28.432 322.706,27.086 323.366,25.74C325.757,20.868 327.265,15.776 327.09,10.303C327.021,8.13 326.691,5.965 326.501,3.794C326.427,2.95 325.98,2.587 325.182,2.324C321.104,0.982 316.961,0.478 312.645,0.417C279.42,-0.053 246.19,0.76 212.968,0.047C198.437,-0.264 183.912,-0.934 169.381,-1.306C163.47,-1.458 157.55,-1.26 151.634,-1.202C140.317,-1.092 128.999,-1.014 117.684,-0.831C111.354,-0.729 105.026,-0.491 98.702,-0.205C96.953,-0.126 95.221,0.339 93.482,0.637C91.505,0.975 90.401,2.124 90.047,4.123C88.506,12.806 86.837,21.468 85.374,30.164C83.117,43.575 81.054,57.018 78.762,70.422C78.215,73.623 77.099,76.729 76.228,79.874C75.86,81.204 75.04,81.508 73.65,81.328C61.002,79.689 48.371,79.581 35.861,82.399C32.59,83.136 29.413,84.348 26.251,85.503C21.075,87.392 18.065,91.305 16.434,96.427C14.671,101.967 13.873,107.692 13.762,113.454C13.577,123.051 13.732,132.655 13.735,142.256C13.736,144.54 13.76,146.827 13.649,149.106C13.621,149.672 13.254,150.442 12.797,150.733C8.701,153.344 4.923,156.314 1.719,159.988C1.358,160.402 0.659,160.619 0.479,161.072C0.032,162.189 -0.342,163.229 0.511,164.554C2.068,166.974 4.153,168.783 6.286,170.605C11.693,175.224 17.046,179.906 22.484,184.487C24.811,186.447 26.234,188.827 26.85,191.795C28.021,197.434 29.278,203.056 30.51,208.683C30.743,209.747 31.007,210.806 31.293,211.858C31.455,212.455 31.454,212.776 30.67,212.894C27.626,213.35 26.841,214.316 26.725,217.4C26.591,220.953 27.238,224.397 28.85,227.512C30.8,231.278 32.872,235.031 35.33,238.477C40.924,246.319 47.46,253.372 54.586,259.847C63.416,267.873 73.862,273.093 85,277.103C104.976,284.296 125.5,286.259 146.521,283.779C153.956,282.902 161.365,281.861 168.456,279.358C171.378,278.327 174.133,276.83 176.998,275.625C178.858,274.842 180.777,274.2 182.673,273.504C183.376,273.246 183.476,273.66 183.427,274.219C183.349,275.098 183.236,275.976 183.215,276.857C183.193,277.782 183.562,278.535 184.586,278.609C185.528,278.677 185.988,278.02 186.144,277.18C186.339,276.135 186.468,275.078 186.663,273.778M264.604,167.98C264.523,167.91 264.442,167.839 264.361,167.769C264.975,167.082 265.53,166.331 266.211,165.719C268.756,163.43 271.367,161.214 273.905,158.916C276.595,156.481 279.368,154.114 281.856,151.483C285.619,147.506 287.476,142.622 287.305,137.156C287.204,133.963 286.736,130.753 286.126,127.61C285.267,123.183 283.999,118.836 283.147,114.408C282.658,111.873 282.645,109.247 282.418,106.661C282.531,106.654 282.644,106.647 282.757,106.639C283.783,109.397 284.679,112.213 285.867,114.899C287.377,118.313 289.137,121.616 290.764,124.979C293.087,129.782 294.647,134.801 295.232,140.131C296.022,147.337 293.715,153.295 287.943,157.64C285.317,159.616 282.364,161.286 279.336,162.567C274.524,164.603 269.524,166.198 264.604,167.98M296.086,81.903C298.706,80.226 301.369,78.612 303.936,76.857C310.31,72.501 315.128,66.852 317.957,59.603C319.558,55.501 319.814,51.332 318.548,47.09C318.237,46.046 317.92,45.002 317.654,43.946C317.128,41.861 317.301,39.787 318.005,38.598C319.441,41.623 320.907,44.707 322.37,47.791C328.244,60.173 322.358,74.649 309.501,79.401C305.188,80.995 300.642,81.479 296.086,81.903M46.72,175.254C46.778,174.859 46.797,174.067 47.022,173.337C47.47,171.881 48.714,171.511 49.948,172.404C50.239,172.614 50.512,172.868 50.739,173.146C53.059,175.989 54.415,179.243 54.816,182.888C54.867,183.346 54.845,183.824 54.779,184.282C54.547,185.899 53.69,186.43 52.156,185.888C50.454,185.287 49.283,184.048 48.455,182.507C47.308,180.371 46.831,178.047 46.72,175.254" style="fill:rgb(254,212,225);fill-rule:nonzero;"/>
                    </g>
                    <g transform="matrix(1,0,0,-1,32.2285,799.668)">
                        <path d="M128.174,183.228C128.174,183.228 130.693,176.721 129.643,175.251C128.594,173.782 121.457,166.855 121.457,166.855C121.457,166.855 141.609,166.855 145.387,167.484C149.166,168.114 156.722,171.683 156.722,171.683L150.845,184.488C150.845,184.488 165.959,193.304 166.589,193.514C167.218,193.724 201.855,190.365 201.855,190.365C201.855,190.365 205.843,197.712 204.583,208.628C203.324,219.544 197.026,245.573 197.026,245.573C197.026,245.573 168.058,268.244 166.589,269.084C165.119,269.924 146.017,271.813 146.017,271.813L133.422,258.588L130.903,257.328L130.483,254.81L128.804,254.18C128.804,254.18 126.545,251.467 128.804,249.142C131.063,246.817 135.144,244.76 135.144,244.76L135.962,242.952C135.962,242.952 128.804,239.276 123.136,232.348C117.468,225.421 114.949,219.334 115.789,216.185C116.629,213.036 119.052,210.358 119.052,210.358C119.052,210.358 126.495,200.441 126.705,199.182C126.914,197.922 128.174,183.228 128.174,183.228" style="fill:white;fill-rule:nonzero;"/>
                    </g>
                    <g transform="matrix(1,0,0,-1,32.2285,792.286)">
                        <path d="M135.143,237.379C133.638,238.136 132.344,238.774 131.062,239.435C128.842,240.581 127.394,242.318 127.139,244.863C126.998,246.266 127.159,247.595 128.793,248.164C128.999,248.236 129.242,248.474 129.292,248.679C129.738,250.48 130.861,251.757 132.331,252.801C132.51,252.928 132.611,253.22 132.668,253.455C133.037,254.964 133.385,256.477 133.737,257.99C134.398,260.822 135.905,263.132 138.092,265.015C140.722,267.279 143.682,268.97 147.011,269.964C147.939,270.241 148.505,270.457 147.932,271.606C147.711,272.049 147.987,272.74 148.037,273.317C148.583,273.237 149.131,273.169 149.673,273.072C149.895,273.032 150.13,272.825 150.317,272.87C152.431,273.377 152.662,273.164 152.092,271.001C152.492,270.966 152.873,270.892 153.251,270.906C157.371,271.056 160.86,269.572 163.862,266.826C165.24,265.565 166.569,264.248 167.985,263.031C169.919,261.368 171.994,260.798 174.604,261.669C176.683,262.364 178.971,262.675 181.172,262.707C185.763,262.774 189.016,259.705 189.542,255.149C189.655,254.17 189.671,253.18 189.774,252.2C189.997,250.074 191.388,249.123 193.429,249.674C198.379,251.01 202.743,248.053 203.434,242.895C203.642,241.348 203.807,241.245 205.25,241.877C205.77,242.105 206.249,242.426 206.758,242.684C208.231,243.434 209.425,242.778 209.104,241.171C208.757,239.436 208.078,237.7 207.197,236.164C206.627,235.172 206.447,234.407 206.677,233.31C207.09,231.337 207.336,229.325 207.56,227.319C207.939,223.928 206.666,221.08 204.349,218.72C203.514,217.868 203.528,217.153 203.761,216.107C205.847,206.745 206.386,197.314 204.774,187.818C204.567,186.597 204.206,185.39 203.788,184.222C203.606,183.716 203.073,183.344 202.748,182.877C202.558,182.604 202.404,182.276 202.336,181.952C199.755,169.648 188.679,160.782 176.089,161.454C167.189,161.93 160.406,166.359 155.769,174.015C155.504,174.453 154.794,175.133 154.655,175.054C153.854,174.604 153.662,173.935 154.114,172.982C155.428,170.22 156.626,167.402 157.877,164.609C158.74,162.685 158.504,162.284 156.482,161.702C150.785,160.06 145.016,158.785 139.11,158.194C137.461,158.028 135.797,157.979 134.138,157.934C133.212,157.909 132.302,157.917 131.595,158.789C131.386,159.047 130.656,158.939 130.171,158.905C127.33,158.707 124.494,158.431 121.65,158.306C121.022,158.279 119.926,158.645 119.835,159.022C119.691,159.613 120.061,160.492 120.489,161.031C122.486,163.547 125.225,165.166 127.911,166.81C128.808,167.36 129.145,167.957 128.958,168.957C128.825,169.669 128.751,170.397 128.709,171.121C128.64,172.305 128.436,173.132 127.034,173.679C126.149,174.025 125.433,175.41 125.106,176.473C123.918,180.336 122.725,184.217 121.912,188.169C120.973,192.73 120.445,197.376 119.7,201.978C119.641,202.345 119.36,202.845 119.052,202.977C116.045,204.255 114.776,206.653 114.723,209.75C114.651,214.009 115.665,218.012 118.169,221.506C122.567,227.644 127.875,232.849 134.329,236.833C134.502,236.939 134.666,237.058 135.143,237.379M203.471,200.279C203.406,201.423 203.303,203.704 203.145,205.981C202.364,217.229 198.492,227.193 190.778,235.539C187.321,239.278 183.315,242.292 178.647,244.36C172.223,247.205 168.761,246.077 165.467,239.855C163.747,236.607 162.505,233.105 160.793,229.852C159.708,227.794 160.111,226.132 161.451,224.594C162.701,223.159 164.059,221.772 165.567,220.622C166.956,219.564 168.623,218.878 170.136,217.974C171.231,217.321 171.91,217.394 172.567,218.658C174.171,221.74 175.912,224.752 177.654,227.76C177.859,228.114 178.416,228.265 178.809,228.51C178.863,228.053 178.988,227.591 178.949,227.143C178.919,226.8 178.702,226.464 178.533,226.143C176.24,221.784 173.946,217.426 171.638,213.075C171.326,212.487 170.953,212.09 171.572,211.322C173.194,209.313 174.881,207.293 176.107,205.04C178.459,200.717 180.478,196.213 182.717,191.826C183.082,191.112 183.761,190.311 184.473,190.063C189.56,188.288 194.678,186.6 199.819,184.988C201.647,184.414 201.704,184.541 202.207,186.475C203.287,190.63 203.48,194.875 203.471,200.279M158.785,224.819C157.912,222.697 157.179,220.831 156.373,218.996C156.088,218.347 156.032,217.141 155.013,217.443C153.909,217.771 154.427,218.876 154.672,219.588C155.664,222.482 156.631,225.393 157.825,228.206C160.07,233.499 161.994,238.956 165.319,243.735C165.567,244.091 165.631,244.601 165.701,245.051C166.239,248.506 165.005,251.604 163.627,254.63C162.778,256.493 161.354,257.884 159.7,258.565C160.754,257.2 161.974,255.712 163.064,254.134C163.287,253.81 163.023,253.149 162.984,252.644C162.585,252.893 162.136,253.089 161.796,253.402C160.661,254.449 159.664,255.676 158.424,256.57C157.364,257.335 156.041,257.724 154.488,256.938C155.121,256.726 155.562,256.598 155.989,256.432C158.341,255.52 160.257,254.073 161.417,251.788C161.577,251.472 161.379,250.975 161.346,250.562C160.986,250.68 160.595,250.745 160.274,250.931C160.017,251.079 159.878,251.422 159.63,251.598C158.159,252.639 156.724,253.751 155.163,254.64C154.501,255.018 153.564,254.915 152.703,255.037C152.726,254.659 152.71,254.585 152.735,254.566C152.936,254.412 153.158,254.285 153.349,254.12C155.023,252.672 156.724,251.252 158.336,249.737C158.651,249.441 158.615,248.771 158.741,248.274C158.25,248.409 157.662,248.416 157.283,248.701C155.834,249.791 154.484,251.013 153.028,252.092C152.482,252.497 151.747,252.647 151.098,252.913C151.032,252.774 150.966,252.635 150.901,252.497C151.697,251.771 152.579,251.117 153.274,250.303C154.845,248.461 156.349,246.561 157.827,244.642C158.458,243.823 158.306,243.021 157.769,242.077C155.028,237.26 152.254,232.454 149.75,227.512C147.314,222.705 146.276,217.533 146.86,212.115C147.179,209.145 147.909,206.289 149.567,203.752C151.722,200.454 155.327,199.382 158.786,201.255C160.346,202.099 161.879,203.268 162.968,204.65C165.463,207.817 167.666,211.213 170.013,214.498C170.543,215.24 170.256,215.55 169.548,215.869C165.228,217.813 161.318,220.28 158.785,224.819M129.568,245.86L129.154,245.653C129.135,243.936 129.838,242.538 131.363,241.625C132.607,240.88 133.991,240.363 135.208,239.582C136.329,238.863 137.35,237.968 138.325,237.055C138.563,236.832 138.448,236.232 138.496,235.805C138.116,235.774 137.735,235.744 137.355,235.713C136.885,235.674 136.295,235.804 135.961,235.57C129.759,231.22 124.144,226.248 119.83,219.949C117.797,216.98 117.035,213.611 116.981,210.066C116.956,208.41 117.32,206.852 118.718,205.753C118.986,205.542 119.33,205.43 119.64,205.273C119.748,205.605 119.91,205.93 119.955,206.271C120.59,211.058 122.023,215.605 124.346,219.821C125.336,221.617 126.566,223.36 128.006,224.81C130.628,227.448 133.909,228.363 137.598,227.567C138.72,227.325 141.24,228.221 141.726,229.252C142.718,231.354 143.76,233.461 143.484,235.932C143.394,236.743 143.135,237.234 142.412,237.638C140.123,238.918 138.464,240.83 137.322,243.167C136.698,244.444 136.313,245.825 134.633,246.22C134.16,246.331 133.798,246.961 133.411,247.377C133.023,247.795 132.676,248.251 132.295,248.676C131.69,249.35 131.313,249.114 131.193,248.332C131.133,247.945 131.082,247.416 131.286,247.155C132.428,245.696 133.413,244.075 135.253,243.294C135.708,243.1 135.993,242.508 136.356,242.098C135.771,241.879 135.025,241.318 134.633,241.504C133.494,242.045 132.431,242.808 131.464,243.632C130.731,244.256 130.193,245.109 129.568,245.86M152.809,244.984C152.688,245.021 152.567,245.059 152.446,245.096C152.435,245.355 152.408,245.615 152.414,245.874C152.491,248.888 151.187,251.05 147.509,251.353C146.843,251.408 146.164,251.552 145.535,251.779C143.587,252.484 141.658,253.244 139.727,253.993C139.26,254.175 138.699,254.617 138.542,253.742C138.204,251.862 137.565,249.935 137.724,248.086C138.221,242.342 143.85,237.531 149.631,237.639C150.011,237.647 150.627,237.919 150.723,238.206C151.475,240.446 152.126,242.72 152.809,244.984M126.935,163.846L127.037,163.426C129.727,162.886 132.449,162.909 135.178,163.118C135.425,163.137 135.67,163.277 135.898,163.396C137.231,164.091 138.564,164.784 139.882,165.507C140.129,165.643 140.496,165.927 140.48,166.114C140.394,167.091 140.343,168.115 139.983,169.002C139.818,169.41 138.949,169.501 138.442,169.806C137.408,170.429 135.867,170.888 135.509,171.798C134.942,173.236 134.306,173.478 133.016,173.166C132.469,173.035 131.882,173.028 131.314,173.039C130.552,173.053 130.339,172.794 130.482,172.012C130.723,170.689 130.851,169.344 130.989,168.005C131.102,166.911 130.625,166.117 129.676,165.561C128.747,165.016 127.847,164.42 126.935,163.846M140.971,163.517C145.373,163.495 149.553,164.046 153.56,165.65C154.421,165.995 154.663,166.341 154.262,167.244C153.611,168.71 153.02,170.213 152.559,171.747C152.24,172.807 151.868,172.763 151.067,172.231C148.661,170.634 146.05,169.482 143.137,169.301C141.941,169.228 141.792,168.864 142.136,167.818C142.664,166.21 143.148,164.534 140.971,163.517M144.66,229.929C145.604,229.929 146.633,229.906 147.659,229.946C147.923,229.956 148.309,230.099 148.417,230.3C149.121,231.621 149.88,232.933 150.39,234.331C150.811,235.486 150.369,235.893 149.164,235.921C148.237,235.943 147.305,235.986 146.387,236.109C145.78,236.191 145.592,236.048 145.513,235.423C145.289,233.652 144.972,231.892 144.66,229.929M180.122,260.588C182.327,259.448 184.622,258.261 186.764,257.153C185.804,259.725 182.991,261.192 180.122,260.588M200.97,242.26C201.273,244.883 199.964,246.755 197.981,247.192C198.966,245.567 199.968,243.913 200.97,242.26" style="fill:rgb(18,4,14);fill-rule:nonzero;"/>
                    </g>
                    <g transform="matrix(1,0,0,-1,32.2285,826.959)">
                        <path d="M137.79,261.258C137.261,260.869 136.725,260.375 136.434,259.802C135.66,258.282 134.88,256.743 134.343,255.132C131.913,247.838 130.789,240.327 130.846,231.6C130.408,223.405 133.033,214.682 135.34,205.908C135.524,205.208 135.988,204.51 136.744,204.897C137.143,205.101 137.44,206.001 137.365,206.528C137.186,207.802 136.807,209.056 136.43,210.295C132.977,221.698 131.949,233.273 134.094,245.039C135.051,250.292 136.13,255.533 138.951,260.209C139.115,260.48 138.949,260.952 138.936,261.33C138.546,261.317 138.049,261.449 137.79,261.258" style="fill:white;fill-rule:nonzero;"/>
                    </g>
                    <g transform="matrix(1,0,0,-1,32.2285,847.633)">
                        <path d="M154.485,234.596C154.191,238.991 153.846,243.383 153.574,247.013C153.574,249.386 153.584,250.993 153.57,252.599C153.564,253.33 153.586,254.238 152.581,254.211C151.611,254.184 151.642,253.284 151.617,252.551C151.614,252.447 151.62,252.343 151.627,252.24C151.998,246.295 152.354,240.348 152.762,234.405C152.813,233.657 152.632,232.395 153.801,232.518C154.914,232.636 154.536,233.835 154.485,234.596" style="fill:white;fill-rule:nonzero;"/>
                    </g>
                    <g transform="matrix(0.97187,-0.235516,0.235516,0.97187,-6.68507,400.85)">
                        <path d="M147.457,181.508C147.825,182.377 148.134,182.965 148.285,183.59C148.315,183.716 147.749,183.988 147.457,184.192C147.079,183.582 146.675,182.983 146.366,182.34C146.336,182.278 146.89,181.935 147.457,181.508" style="fill:rgb(18,4,14);fill-rule:nonzero;"/>
                    </g>
                    <g transform="matrix(0.969155,-0.246452,0.246452,0.969155,-9.06751,401.24)">
                        <path d="M140.141,183.785C140.52,184.673 140.826,185.217 140.951,185.8C140.982,185.945 140.427,186.215 140.141,186.427C139.804,185.907 139.406,185.411 139.177,184.847C139.121,184.708 139.617,184.345 140.141,183.785" style="fill:rgb(18,4,14);fill-rule:nonzero;"/>
                    </g>
                    <g transform="matrix(1,0,0,-1,32.2285,519.222)">
                        <path d="M218.432,62.492C217.77,69.534 212.363,80.78 203.977,79.796C204.99,87.832 206.729,96.038 204.271,103.975C203.618,106.082 202.736,108.121 201.701,110.068C200.721,111.906 199.555,115.16 197.264,115.343C193.824,115.616 190.667,114.19 187.408,113.362C185.951,114.446 184.449,115.456 182.895,116.361C181.82,120.448 179.962,124.186 176.124,126.562C173.044,128.469 169.309,129.742 165.686,129.907C164.164,129.976 162.544,129.895 161.154,129.221C159.956,128.639 159.048,127.645 157.801,127.344C156.885,131.738 154.413,135.38 150.37,137.545C146.238,139.759 141.534,140.515 136.956,141.234C131.747,142.053 126.441,143.37 121.254,141.694C118.465,140.793 115.961,139.092 114.047,136.879C113.136,135.828 112.451,134.706 112.107,133.344C111.808,132.154 111.74,131.005 111.422,129.882C92.552,132.506 72.178,122.825 64.744,104.697C61.904,97.774 61.9,88.75 69.576,85.072C69.837,84.947 70.102,84.838 70.365,84.724C70.141,84.257 70.061,83.725 70.307,83.245C72.542,78.883 74.827,73.986 79.139,71.289C81.797,69.627 85.655,68.452 88.844,69.239C88.202,66.271 87.927,63.224 88.141,60.2C88.457,55.695 89.789,51.072 93.003,47.761C95.672,45.011 99.366,44.339 102.676,46.049C103.302,45.212 104.047,44.469 104.9,43.831C104.106,43.152 103.399,42.385 102.819,41.512C100.299,37.719 101.857,33.561 104.74,30.467C110.754,24.008 120.987,24.575 128.923,26.919C129.451,26.405 129.991,25.91 130.547,25.445C137.32,14.852 152.9,24.786 161.818,32.377C169.288,31.315 177.725,33.623 181.488,38.651C183.613,37.56 186.322,37.299 188.743,37.352C193.314,37.453 197.973,38.459 202.311,39.88C202.755,40.025 203.176,40.388 203.456,40.824C203.956,40.711 204.389,40.941 204.831,41.275C208.434,44.001 212.275,46.647 215.044,50.276C217.755,53.827 218.848,58.064 218.432,62.492M195.171,75.399C196.816,74.049 198.497,72.651 199.587,70.793C200.79,68.747 200.997,66.364 200.921,64.038C200.811,60.633 200.135,57.022 198.667,53.85C197.926,53.858 197.255,53.82 196.768,53.765C195.617,53.633 194.488,52.145 195.078,51.023C195.333,50.537 195.591,50.043 195.855,49.547C192.717,46.241 187.77,45.026 183.363,46.187C183.18,47.441 182.785,48.769 182.141,50.17C181.764,50.988 181.309,51.793 180.786,52.565C182.624,53.858 184.298,55.387 185.678,57.158C188.053,60.209 189.059,63.662 189.615,67.44C190.027,70.233 190.115,72.977 189.876,75.642C191.221,75.813 192.548,76.109 193.826,76.53C194.286,76.142 194.734,75.757 195.171,75.399M201.413,49.781C201.505,48.847 201.492,47.915 201.428,46.983C200.656,47.949 199.982,49.008 199.361,50.097C199.426,50.193 199.492,50.286 199.555,50.383C200.182,50.235 200.801,50.034 201.413,49.781M161.844,35.67C159.758,36.094 157.779,36.823 156.081,37.893C156.693,38.601 157.318,39.295 157.967,39.965C159.846,39.145 161.665,37.871 163.01,36.73C162.646,36.391 162.255,36.037 161.844,35.67M152.999,40.633C153.766,40.863 154.602,40.881 155.465,40.741C155.044,40.27 154.632,39.792 154.225,39.31C153.784,39.719 153.371,40.157 152.999,40.633M150.163,41.922C149.587,41.415 149.143,40.428 149.551,39.697C150.202,38.53 151.036,37.508 152.01,36.62C150.003,34.135 148.01,31.638 145.721,29.411C142.423,26.202 138.487,24.183 134.26,27.082C133.703,27.463 133.169,27.889 132.645,28.334C132.406,28.773 132.182,29.246 131.979,29.761C131.747,30.345 131.283,30.626 130.654,30.413C130.595,30.393 130.535,30.374 130.475,30.354C129.15,31.691 127.886,33.102 126.612,34.384C124.676,36.331 122.735,38.351 121.042,40.546C125.162,41.021 129.12,42.407 132.126,44.789C133.112,45.57 134.042,46.533 134.824,47.613C138.88,47.803 142.923,48.09 146.936,48.853C147.781,49.014 148.621,49.19 149.46,49.374C152.025,47.939 155.083,47.2 157.9,46.91C159.439,46.751 160.995,46.705 162.551,46.755C160.913,45.899 159.413,44.717 158.042,43.424C155.288,44.159 152.462,43.94 150.163,41.922M104.046,50.197C103.93,50.461 103.823,50.731 103.73,51.015C103.294,52.359 103.1,53.806 103.23,55.216C103.278,55.734 103.424,56.193 103.516,56.699C103.535,56.806 103.551,56.888 103.568,56.959C105.593,55.347 105.605,52.178 104.046,50.197M186.939,67.4C186.52,64.162 185.807,61.187 183.775,58.58C182.518,56.967 180.938,55.643 179.223,54.537C178.091,55.768 176.777,56.831 175.327,57.608C178.146,60.058 179.104,63.706 178.941,67.377C178.755,71.566 177.344,75.436 175.238,78.98C177.264,78.896 179.706,79.255 182.169,79.996C181.725,79.65 181.294,79.299 180.88,78.958C180.212,78.411 179.577,76.697 180.779,76.341C182.753,75.758 184.861,75.466 186.98,75.462C187.309,72.842 187.296,70.141 186.939,67.4M163.409,92.225C162.846,92.709 162.284,93.222 161.719,93.745C161.302,95.301 161.163,96.891 161.426,98.396C162.855,106.536 178.333,92.51 180.618,89.855C182.303,87.899 183.648,85.796 184.676,83.582C182.684,82.773 180.559,82.293 178.63,82.13C176.639,81.962 174.643,82.13 172.749,82.637C170.005,86.223 166.667,89.422 163.409,92.225M186.387,78.677C185.902,78.717 185.421,78.774 184.949,78.846C185.354,79.079 185.77,79.278 186.199,79.428C186.268,79.179 186.326,78.928 186.387,78.677M181.327,94.082C176.908,98.595 162.725,110.596 159.007,99.24C158.73,98.397 158.574,97.519 158.516,96.626C156.891,97.978 155.16,99.162 153.201,99.815C153.016,99.876 152.831,99.925 152.646,99.974C151.813,102.768 150.719,105.519 149.393,108.031C148.35,110.008 146.716,111.606 144.93,113.028C147.018,113.489 149.065,114.124 151.104,114.793C153.913,114.011 156.646,112.825 159.277,111.725C161.527,110.783 163.775,109.824 166.078,109.019C168.302,108.241 170.611,107.767 172.827,106.965C177.598,105.239 182.21,102.706 186.249,99.633C189.701,97.006 194.049,92.759 190.971,88.27C190.087,86.982 188.876,85.907 187.493,85.027C186.063,88.294 184.014,91.339 181.327,94.082M151.37,91.519C151.757,88.101 151.549,84.076 148.094,82.36C145.344,80.994 141.777,80.985 138.926,82.044C136.082,83.1 134.034,85.577 135.042,88.712C135.566,90.348 136.772,91.751 138.268,92.92C142.259,91.824 146.785,92.127 148.796,96.023C148.978,96.376 149.141,96.734 149.285,97.096C149.617,97.079 149.941,97.039 150.264,96.986C150.771,95.188 151.161,93.359 151.37,91.519M141.303,97.678C140.469,97.242 139.621,96.752 138.794,96.211C138.417,96.344 138.048,96.487 137.695,96.639C132.815,98.74 129.288,103.668 132.66,108.671C133.215,109.496 133.852,110.267 134.548,110.977C136.031,110.839 137.495,110.573 138.909,110.165C143.557,108.825 147.59,105.501 147.255,100.276C147.249,100.174 147.242,100.073 147.234,99.972C145.152,99.512 143.126,98.627 141.303,97.678M146.389,96.802C145.988,96.236 145.393,95.816 144.49,95.619C143.878,95.485 143.245,95.437 142.607,95.453C143.633,95.909 144.641,96.281 145.549,96.569C145.835,96.659 146.113,96.735 146.389,96.802M128.525,102.075C128.993,99.067 131.104,96.587 133.6,94.974C134.236,94.562 134.962,94.172 135.742,93.824C134.263,92.409 133.065,90.749 132.439,88.824C132.296,89.191 132.121,89.54 131.902,89.858C130.428,92 126.987,92.027 124.701,92.46C121.275,93.108 117.036,93.784 114.41,96.276C111.756,98.795 113.237,102.552 115.353,104.901C117.105,106.849 119.487,108.217 121.908,109.161C124.914,110.333 128.217,111.007 131.517,111.082C129.475,108.537 128.008,105.396 128.525,102.075M132.786,82.318C132.798,82.428 132.809,82.541 132.819,82.654C133.176,81.992 133.648,81.383 134.238,80.844C133.685,80.715 133.117,80.533 132.561,80.306C132.637,80.984 132.719,81.657 132.786,82.318M132.331,77.34C133.348,77.911 134.492,78.206 135.715,78.008C137.208,77.765 138.272,76.748 137.172,75.366C136.609,74.66 134.591,72.741 133.492,73.028C132.719,73.229 132.565,74.28 132.462,74.94C132.34,75.728 132.313,76.532 132.331,77.34M130.68,118.377C132.065,117.099 133.118,115.453 134.493,114.169C131.022,114.317 127.496,113.815 124.298,112.884C118.67,111.246 112.049,107.155 110.479,101.087C108.19,104.27 103.859,106.66 100.641,107.224C98.402,107.616 96.296,107.432 94.354,106.806C95.056,111.037 97.325,115.031 100.704,117.695C104.785,120.912 110.052,120.869 115.005,121.293C118.003,121.55 121.001,121.782 123.997,122.059C126.476,121.464 128.65,120.251 130.68,118.377M103.028,102.882C105.504,101.609 108.248,99.41 109.027,96.61C109.963,93.253 105.715,92.331 103.172,92.179C96.632,91.787 94.151,97.981 94.107,103.606C96.882,104.596 99.983,104.448 103.028,102.882M98.079,118.616C94.584,115.202 92.166,110.43 91.448,105.478C87.998,103.406 85.267,99.879 83.531,95.866C82.558,96.023 81.602,96.057 80.748,95.964C80.409,95.927 80.086,95.871 79.774,95.8C79.896,100.64 80.705,105.56 83.237,109.746C85.663,113.757 89.567,116.525 93.861,118.254C95.808,119.038 97.81,119.644 99.843,120.123C99.243,119.675 98.655,119.179 98.079,118.616M84.834,91.985C85.125,91.862 85.407,91.725 85.674,91.575C85.38,91.662 85.088,91.753 84.798,91.849C84.81,91.894 84.823,91.94 84.834,91.985M77.427,91.672C78.189,90.687 79.628,90.186 80.853,89.646C81.121,89.527 81.393,89.417 81.664,89.309C81.451,87.843 81.373,86.379 81.443,84.957C79.103,85.551 76.593,86.066 74.279,86.85C75.145,88.638 76.07,90.51 77.427,91.672M84.244,88.44C85.649,88.036 87.081,87.716 88.516,87.421C89.621,87.194 90.679,88.418 90.703,89.454C90.769,92.274 88.573,94.211 85.957,95.214C86.565,96.588 87.311,97.888 88.18,99.059C89.076,100.265 90.104,101.283 91.228,102.089C91.271,99.617 91.767,97.167 92.799,94.884C94.3,91.561 97.212,89.33 100.885,89.083C104.525,88.839 109.235,90.159 111.163,93.526C111.331,93.819 111.465,94.112 111.583,94.404C113.088,92.569 115.539,91.423 117.875,90.692C120.105,89.995 122.412,89.564 124.708,89.155C126.079,88.911 128.184,88.851 129.228,87.79C131.056,85.931 129.996,81.587 129.776,79.235C129.757,79.014 129.732,78.78 129.708,78.54C128.316,77.231 127.712,75.52 129.039,73.661C129.215,73.416 129.432,73.296 129.665,73.262C129.828,72.397 130.126,71.601 130.634,70.959C132.932,68.051 137.574,72.097 139.042,73.968C140.137,75.366 140.533,76.949 140.223,78.268C144.766,77.655 149.835,79.257 152.331,82.917C154.781,86.506 154.566,91.216 153.79,95.298C153.764,95.441 153.729,95.585 153.701,95.728C154.57,95.232 155.426,94.616 156.288,93.896C157.257,93.086 158.229,92.267 159.195,91.439C159.887,89.191 161.031,87.069 162.382,85.376C164.546,82.664 167.436,80.774 170.66,79.777C172.535,77.255 174.12,74.515 175.111,71.569C176.236,68.227 177.255,62.866 174.428,60.045C173.882,59.5 173.24,59.054 172.542,58.676C172.066,58.79 171.587,58.881 171.096,58.928C170.251,59.009 169.137,58.225 168.91,57.303C167.507,56.92 166.087,56.63 164.837,56.3C164.531,56.22 164.227,56.136 163.921,56.054C162.923,57.944 161.926,59.835 160.861,61.69C158.923,65.067 154.835,73.067 149.74,71.133C146.837,70.031 145.357,66.509 144.453,63.801C143.518,60.994 143.219,57.868 144.294,55.056C144.788,53.762 145.516,52.656 146.41,51.711C143.133,51.159 139.819,50.908 136.496,50.741C137.065,52.319 137.27,53.995 136.906,55.642C135.93,60.055 131.229,62.079 127.115,62.308C126.149,62.362 125.189,62.295 124.25,62.13C123.619,64.8 121.854,67.505 120.065,69.395C117.44,72.171 113.989,74.29 110.204,74.991C109.361,75.148 108.516,75.236 107.669,75.282C104.22,78.29 99.489,80.409 96.544,80.254C94.716,80.158 93.345,79.233 92.301,77.954C90.924,81.017 87.987,82.761 84.931,83.908C84.781,83.965 84.625,84.019 84.47,84.073C84.209,85.499 84.137,86.97 84.244,88.44M148.406,54.561C146.999,56.186 146.335,58.237 146.419,60.375C146.509,62.687 147.361,66.009 149.057,67.704C151.949,70.593 157.199,61.965 160.814,55.207C157.462,54.281 154.111,53.346 150.723,52.578C149.865,53.133 149.078,53.784 148.406,54.561M162.152,52.654C162.706,51.581 163.19,50.624 163.583,49.858C162.824,49.828 162.066,49.821 161.314,49.84C159.292,49.891 157.09,50.138 154.999,50.718C157.389,51.343 159.768,52.005 162.152,52.654M88.963,77.077C89.07,76.925 89.188,76.748 89.305,76.554C88.993,76.739 88.687,76.94 88.391,77.166C87.526,77.827 86.815,78.629 86.232,79.517C87.292,78.878 88.239,78.089 88.963,77.077M93.332,75.234C94.892,78.401 98.284,76.904 100.79,75.599C101.082,75.447 101.392,75.279 101.706,75.104C100.469,75.014 99.232,74.925 97.998,74.896C96.435,74.86 94.838,74.896 93.299,75.156C93.311,75.181 93.32,75.209 93.332,75.234M110.57,64.282C112.41,66.467 112.284,68.904 111.061,71.204C112.944,70.574 114.742,69.594 116.455,68.127C118.128,66.695 120.725,64 121.57,61.352C119.326,60.421 117.355,58.857 115.965,56.811C113.834,57.108 111.58,57.975 109.93,59.207C109.535,59.502 108.833,60.468 108.262,60.98C108.506,61.416 108.655,61.877 108.888,62.346C109.299,63.172 109.98,63.582 110.57,64.282M121.618,58.465C121.211,57.582 120.198,57.104 119.144,56.875C119.871,57.553 120.708,58.085 121.618,58.465M117.079,53.662C118.393,53.738 119.688,54.051 120.919,54.681C123.109,55.805 124.146,57.398 124.419,59.165C126.685,59.407 129.057,58.948 130.983,57.879C133.944,56.233 134.773,53.332 133.727,50.615C128.044,50.377 122.359,50.192 116.815,48.956C116.537,50.548 116.584,52.166 117.079,53.662M127.568,47.296C128.884,47.364 130.201,47.418 131.516,47.472C129.051,45.229 125.482,44.25 122.268,43.841C121.239,43.71 120.117,43.621 118.95,43.593C118.666,44.066 118.397,44.547 118.146,45.039C117.961,45.4 117.794,45.774 117.637,46.153C121.84,46.92 125.841,47.208 127.568,47.296M115.02,43.999C115.056,43.912 115.097,43.827 115.135,43.741C113.787,43.884 112.445,44.132 111.174,44.514C112.223,44.881 113.339,45.203 114.478,45.483C114.632,44.983 114.813,44.487 115.02,43.999M167.065,50.172C166.497,51.148 165.973,52.224 165.626,52.86C165.512,53.069 165.402,53.28 165.288,53.49C166.738,53.863 168.236,54.224 169.693,54.689C170.238,53.458 170.868,52.262 171.589,51.129C170.107,50.705 168.592,50.387 167.065,50.172M173.361,54.683C174.329,54.179 175.232,53.536 176.048,52.789C175.669,52.612 175.286,52.442 174.9,52.281C174.335,53.046 173.824,53.851 173.361,54.683M177.872,50.777C178.57,49.851 179.156,48.851 179.617,47.819C178.548,48.484 177.568,49.278 176.682,50.178C177.083,50.37 177.48,50.569 177.872,50.777M189.458,78.644C189.408,78.91 189.354,79.176 189.296,79.44C189.801,79.269 190.29,79.038 190.766,78.769C190.333,78.713 189.895,78.671 189.458,78.644M189.521,82.841C189.208,82.881 188.9,82.89 188.592,82.884C193.521,85.997 196.768,90.773 193.833,96.515C191.313,101.443 185.184,104.818 180.469,107.247C175.32,109.9 169.794,111.079 164.453,113.218C161.805,114.28 159.159,115.489 156.456,116.508C158.555,117.127 160.677,117.64 162.865,117.883C168.965,118.559 174.906,116.926 180.279,113.988C180.563,112.812 180.785,111.607 180.982,110.395C181.065,109.882 181.503,109.692 181.96,109.664C183.413,109.574 184.799,109.779 186.161,110.106C189.91,107.193 193.234,103.738 195.938,100.188C199.348,95.709 204.26,88.593 199.846,83.274C198.617,81.795 197.029,80.706 195.257,79.952C193.518,81.34 191.602,82.571 189.521,82.841M194.816,112.207C197.361,112.353 198.466,109.117 199.475,107.14C200.492,105.15 201.314,103.076 201.87,100.909C202.296,99.244 202.527,97.563 202.633,95.873C200.113,101.23 196.005,106.063 191.607,109.947C191.107,110.389 190.6,110.82 190.09,111.245C191.633,111.708 193.189,112.114 194.816,112.207M66.169,94.119C63.794,102.196 70.421,111.526 76.066,116.681C85.497,125.293 98.815,128.723 111.297,126.577C112.179,126.426 112.862,127.091 113.268,127.8C114.679,130.276 114.124,133.501 116.135,135.574C118.001,137.499 120.429,138.704 123.063,139.154C127.62,139.933 132.408,138.641 136.906,137.906C140.82,137.267 144.947,136.559 148.465,134.627C152.311,132.514 154.469,129.124 155.161,124.829C155.242,124.328 155.684,124.109 156.139,124.097C158.996,124.023 160.639,126.586 163.417,126.749C167.018,126.962 170.992,125.625 174.022,123.752C176.23,122.388 177.693,120.559 178.719,118.475C176.035,119.634 173.202,120.474 170.186,120.885C163.725,121.767 158.003,119.739 152.12,117.91C150.574,118.312 148.999,118.602 147.387,118.713C144.458,118.915 141.695,118.332 139.176,117.169C136.574,118.953 132.828,121.669 133.404,124.551C133.53,125.178 133.344,126.142 132.47,126.022C130.117,125.697 127.758,125.444 125.396,125.222C123.264,125.672 121.031,125.718 118.848,125.601C114.799,125.383 110.699,124.914 106.678,124.373C100.762,123.576 94.744,122.187 89.559,119.121C84.078,115.881 80.195,110.779 78.357,104.699C77.364,101.414 76.912,97.895 76.885,94.448C74.758,92.821 73.529,90.174 72.163,87.679C69.391,88.95 67.132,90.847 66.169,94.119M89.498,72.403C87.985,71.646 85.458,72.394 83.968,72.869C78.923,74.479 76.236,79.012 73.926,83.478C75.908,82.907 77.935,82.46 79.913,81.915C80.583,81.731 81.278,81.536 81.979,81.319C82.169,80.576 82.41,79.857 82.701,79.17C84.212,75.629 86.77,73.738 89.788,72.772C89.764,72.695 89.741,72.618 89.716,72.542C89.648,72.492 89.58,72.444 89.498,72.403M93.928,51.93C91.527,55.399 90.766,59.805 90.869,63.954C90.926,66.216 91.218,68.663 91.811,70.991C92.104,71.344 92.345,71.731 92.531,72.146C95.554,71.693 98.831,71.863 101.891,72.076C103.303,72.174 104.673,72.202 106.003,72.127C107.485,70.797 108.671,69.237 108.963,67.495C109.271,65.648 107.841,65.273 106.964,63.879C106.609,63.316 106.511,62.612 106.171,62.07C106.228,62.16 105.496,61.521 105.387,61.374C105.027,60.886 104.91,60.392 104.963,59.905C104.096,60.224 103.122,60.038 102.158,58.99C100.208,56.876 100.13,53.388 100.639,50.726C100.799,49.896 101.04,49.111 101.352,48.37C98.563,47.547 95.672,49.41 93.928,51.93M105.346,48.074C107.473,50.327 108.615,53.535 107.635,56.578C108.48,56.01 109.355,55.539 109.947,55.257C111.373,54.578 112.91,54.056 114.47,53.805C113.862,51.995 113.69,50.091 113.905,48.199C113.68,48.133 113.456,48.067 113.233,47.996C111.505,47.445 109.677,46.771 107.981,45.878C106.979,46.469 106.081,47.192 105.346,48.074M105.211,35.442C103.457,38.54 104.573,40.839 107.067,42.544C110.013,41.198 113.455,40.468 116.965,40.371C119.005,37.21 121.688,34.417 124.294,31.78C125.066,30.997 125.843,30.148 126.638,29.291C118.874,27.563 109.428,27.99 105.211,35.442M143.4,24.356C144.947,25.325 146.382,26.572 147.66,27.884C149.882,30.164 151.839,32.711 153.848,35.205C155.305,34.259 156.956,33.538 158.721,33.032C154.271,29.463 148.54,25.653 143.4,24.356M175.701,37.088C172.749,35.708 168.857,35.03 165.021,35.26C165.303,35.531 165.572,35.792 165.824,36.043C166.458,36.672 166.962,37.768 166.217,38.507C164.736,39.976 162.771,41.439 160.635,42.455C162.501,43.998 164.799,45.276 167.301,45.027C168.479,44.909 169.958,46.653 169.34,47.629C170.68,47.935 172.003,48.316 173.296,48.773C174.723,47.059 176.41,45.587 178.38,44.494C178.053,44.051 177.863,43.526 177.973,43.063C178.277,41.791 178.857,40.791 179.624,40.005C178.667,38.693 177.113,37.748 175.701,37.088M183.057,41.705C183.163,42.053 183.249,42.411 183.318,42.777C188.124,42.018 193.337,43.6 196.811,46.995C196.911,47.093 197.005,47.198 197.102,47.298C198.167,45.491 199.387,43.775 200.945,42.432C197.676,41.462 194.286,40.793 190.893,40.571C188.516,40.416 185.264,40.409 183.057,41.705M204.508,44.162C204.313,44.284 204.126,44.411 203.941,44.544C204.021,45.381 204.122,46.216 204.208,47.057C204.335,48.329 204.742,50.694 204.156,51.92C203.723,52.827 202.576,53.333 201.272,53.597C202.605,56.626 203.361,59.941 203.669,63.168C203.936,65.977 203.924,68.969 202.859,71.623C201.889,74.037 200.076,75.857 198.124,77.516C197.889,77.715 197.65,77.923 197.406,78.133C197.887,78.413 198.357,78.706 198.807,79.031C199.775,79.73 200.688,80.556 201.488,81.481C201.298,80.15 201.113,78.823 200.962,77.507C200.868,76.686 201.624,76.281 202.331,76.483C206.15,77.577 209.451,74.632 211.525,71.743C213.848,68.507 215.363,64.676 215.643,60.688C216.197,52.793 210.178,48.406 204.508,44.162" style="fill:white;fill-rule:nonzero;"/>
                    </g>
                </g>
            </g>
        </g>
    </g>
</svg>
