<?xml version="1.0" encoding="utf-8"?>
<svg width="100%" height="100%" viewBox="0 0 340 310" version="1.1" style="fill-rule:evenodd;clip-rule:evenodd;stroke-linecap:round;stroke-linejoin:round;" xmlns="http://www.w3.org/2000/svg">
  <g style="">
    <title>cal</title>
    <g transform="matrix(1.000003, 0, 0, -0.999999, 13.688657, 203.671829)" style="">
      <path d="M168.656,195.707C172.768,195.769 176.82,195.098 180.895,194.699C184.397,194.357 187.898,194.009 191.403,193.709C197.07,193.227 202.741,192.781 208.409,192.321C212.205,192.012 215.999,191.697 219.796,191.397C225.707,190.93 231.59,190.195 237.474,189.479C243.455,188.752 249.441,188.08 255.448,187.598C263.615,186.944 271.8,186.484 279.942,185.538C284.204,185.043 288.418,184.232 292.643,183.502C298.25,182.533 303.875,181.726 309.546,181.248C310.12,181.199 310.686,181.057 311.257,180.968C312.447,180.783 313.106,180.139 313.334,178.914C313.477,178.147 313.291,177.612 312.78,177.099C311.556,175.874 310.337,174.644 309.129,173.406C306.68,170.897 304.957,167.895 303.404,164.797C302.135,162.264 300.917,159.702 299.794,157.1C298.351,153.75 297.2,150.293 296.243,146.765C295.348,143.471 294.732,140.123 294.071,136.781C293.191,132.338 292.736,127.846 292.61,123.328C292.486,118.913 292.643,114.502 293.069,110.101C293.518,105.452 294.386,100.879 295.482,96.346C296.656,91.488 297.692,86.606 298.351,81.642C298.839,77.969 299.421,74.311 299.709,70.613C300.114,65.4 299.66,60.248 298.62,55.141C297.938,51.791 297.421,48.406 296.442,45.116C294.115,37.293 290.216,30.327 285.205,23.915C279.458,16.56 272.557,10.433 265.24,4.724C264.366,4.044 263.512,3.871 262.423,4.073C259.203,4.67 256.027,5.488 252.784,5.976C248.302,6.652 243.803,7.164 239.294,7.595C233.394,8.159 227.493,8.72 221.59,9.262C218.039,9.588 214.487,9.909 210.931,10.173C204,10.689 197.145,11.739 190.303,12.909C180.472,14.59 170.66,16.372 160.876,18.298C153.395,19.772 146.071,21.788 138.88,24.33C133.34,26.287 127.765,28.148 122.263,30.212C118.832,31.499 115.514,33.05 112.341,34.898C111.593,35.334 110.844,35.779 110.203,36.373C109.191,37.311 109.166,37.765 110.141,38.767C112.696,41.392 115.274,44.003 117.604,46.832C122.859,53.214 127.675,59.924 131.138,67.449C134.259,74.231 135.629,81.457 135.448,88.955C135.328,93.968 135.174,98.978 134.792,103.979C134.536,107.347 133.98,110.676 133.512,114.015C132.442,121.642 132.258,129.273 132.928,136.947C133.94,148.545 136.994,159.59 141.752,170.175C144.109,175.418 147.105,180.315 150.389,185.029C152.107,187.496 154.171,189.654 156.535,191.519C157.027,191.907 157.529,192.285 158,192.698C160.223,194.648 162.846,195.565 165.763,195.7C166.726,195.745 167.692,195.707 168.656,195.707" style="fill:rgb(254,212,225);fill-rule:nonzero;"/>
    </g>
    <g>
      <path d="M 312.216 137.798 C 312.129 132.988 311.002 128.333 310.077 123.659 C 308.797 117.182 307.344 110.733 306.558 104.175 C 305.481 95.211 304.924 86.211 305.592 77.183 C 306.372 66.652 308.437 56.381 311.929 46.406 C 314.846 38.07 319.959 31.199 326.177 25.069 C 327.004 24.254 327.242 24.249 328.172 24.889 C 328.766 25.299 329.351 25.725 329.913 26.178 C 330.722 26.831 330.918 27.483 330.479 28.481 C 329.782 30.069 329.024 31.631 328.257 33.187 C 324.344 41.126 321.287 49.401 319.14 57.968 C 317.082 66.179 316.832 74.542 317.924 82.959 C 319.064 91.738 321.189 100.284 323.703 108.744 C 326.398 117.815 327.675 127.108 328.094 136.523 C 328.276 140.63 327.595 144.694 326.751 148.715 C 325.603 154.191 324.173 159.588 322.24 164.847 C 318.864 174.03 313.405 181.818 306.422 188.597 C 302.028 192.864 297.645 197.143 292.815 200.929 C 291.791 201.732 290.737 202.498 289.728 203.32 C 288.909 203.986 288.036 204.194 287.03 203.864 C 286.436 203.669 285.817 203.535 285.241 203.296 C 284.508 202.99 283.998 203.162 283.478 203.755 C 282.651 204.696 281.725 205.548 280.871 206.466 C 280.224 207.161 279.481 207.411 278.534 207.277 C 273.856 206.61 269.195 205.86 264.615 204.684 C 259.604 203.398 254.494 202.74 249.373 202.121 C 243.003 201.351 236.592 201.109 230.203 200.598 C 221.747 199.923 213.294 199.178 204.858 198.295 C 194.09 197.168 183.558 194.807 173.228 191.609 C 165.4 189.187 157.528 186.973 149.556 185.069 C 143.047 183.513 136.627 181.58 130.434 178.986 C 130.036 178.82 129.629 178.647 129.276 178.403 C 128.559 177.907 128.328 177.309 128.683 176.527 C 129.682 174.334 130.554 172.08 131.747 169.982 C 132.433 168.777 133.017 168.569 134.252 169.087 C 144.184 173.244 154.523 176.17 164.791 179.328 C 173.341 181.959 182.089 183.596 190.887 185.046 C 196.498 185.972 202.105 186.916 207.722 187.8 C 218.719 189.532 229.626 191.8 240.648 193.369 C 248.572 194.498 256.432 195.968 264.316 197.315 C 267.449 197.85 270.613 198.205 273.767 198.622 C 274.338 198.698 274.922 198.688 275.501 198.7 C 278.033 198.753 280.16 197.949 281.97 196.071 C 285.386 192.529 288.783 188.972 291.83 185.104 C 294.575 181.62 297.334 178.146 299.983 174.586 C 304.549 168.449 308.01 161.765 310.018 154.375 C 311.171 150.133 311.626 145.757 312.193 141.41 C 312.347 140.225 312.216 139.003 312.216 137.798 M 312.216 137.798 C 312.129 132.988 311.002 128.333 310.077 123.659 C 308.797 117.182 307.344 110.733 306.558 104.175 C 305.481 95.211 304.924 86.211 305.592 77.183 C 306.372 66.652 308.437 56.381 311.929 46.406 C 314.846 38.07 319.959 31.199 326.177 25.069 C 327.004 24.254 327.242 24.249 328.172 24.889 C 328.766 25.299 329.351 25.725 329.913 26.178 C 330.722 26.831 330.918 27.483 330.479 28.481 C 329.782 30.069 329.024 31.631 328.257 33.187 C 324.344 41.126 321.287 49.401 319.14 57.968 C 317.082 66.179 316.832 74.542 317.924 82.959 C 319.064 91.738 321.189 100.284 323.703 108.744 C 326.398 117.815 327.675 127.108 328.094 136.523 C 328.276 140.63 327.595 144.694 326.751 148.715 C 325.603 154.191 324.173 159.588 322.24 164.847 C 318.864 174.03 313.405 181.818 306.422 188.597 C 302.028 192.864 297.645 197.143 292.815 200.929 C 291.791 201.732 290.737 202.498 289.728 203.32 C 288.909 203.986 288.036 204.194 287.03 203.864 C 286.436 203.669 285.817 203.535 285.241 203.296 C 284.508 202.99 283.998 203.162 283.478 203.755 C 282.651 204.696 281.725 205.548 280.871 206.466 C 280.224 207.161 279.481 207.411 278.534 207.277 C 273.856 206.61 269.195 205.86 264.615 204.684 C 259.604 203.398 254.494 202.74 249.373 202.121 C 243.003 201.351 236.592 201.109 230.203 200.598 C 221.747 199.923 213.294 199.178 204.858 198.295 C 194.09 197.168 183.558 194.807 173.228 191.609 C 165.4 189.187 157.528 186.973 149.556 185.069 C 143.047 183.513 136.627 181.58 130.434 178.986 C 130.036 178.82 129.629 178.647 129.276 178.403 C 128.559 177.907 128.328 177.309 128.683 176.527 C 129.682 174.334 130.554 172.08 131.747 169.982 C 132.433 168.777 133.017 168.569 134.252 169.087 C 144.184 173.244 154.523 176.17 164.791 179.328 C 173.341 181.959 182.089 183.596 190.887 185.046 C 196.498 185.972 202.105 186.916 207.722 187.8 C 218.719 189.532 229.626 191.8 240.648 193.369 C 248.572 194.498 256.432 195.968 264.316 197.315 C 267.449 197.85 270.613 198.205 273.767 198.622 C 274.338 198.698 274.922 198.688 275.501 198.7 C 278.033 198.753 280.16 197.949 281.97 196.071 C 285.386 192.529 288.783 188.972 291.83 185.104 C 294.575 181.62 297.334 178.146 299.983 174.586 C 304.549 168.449 308.01 161.765 310.018 154.375 C 311.171 150.133 311.626 145.757 312.193 141.41 C 312.347 140.225 312.216 139.003 312.216 137.798 Z" style="fill-rule: nonzero;"/>
      <path d="M 182.345 7.965 C 186.457 7.903 190.509 8.574 194.584 8.973 C 198.086 9.315 201.587 9.663 205.092 9.963 C 210.759 10.445 216.43 10.891 222.098 11.351 C 225.894 11.66 229.688 11.975 233.485 12.275 C 239.396 12.742 245.279 13.477 251.163 14.193 C 257.144 14.92 263.13 15.592 269.137 16.074 C 277.304 16.728 285.489 17.188 293.631 18.134 C 297.894 18.629 302.108 19.44 306.333 20.17 C 311.94 21.139 317.565 21.946 323.236 22.424 C 323.81 22.473 324.376 22.615 324.947 22.704 C 326.137 22.889 326.796 23.533 327.024 24.758 C 327.167 25.525 326.981 26.06 326.47 26.573 C 325.246 27.798 324.027 29.028 322.819 30.266 C 320.37 32.775 318.647 35.777 317.094 38.875 C 315.825 41.408 314.607 43.97 313.484 46.572 C 312.041 49.922 310.89 53.379 309.933 56.907 C 309.038 60.201 308.422 63.549 307.761 66.891 C 306.881 71.334 306.426 75.826 306.3 80.344 C 306.176 84.759 306.333 89.17 306.759 93.571 C 307.208 98.22 308.076 102.793 309.172 107.326 C 310.346 112.184 311.382 117.066 312.041 122.03 C 312.529 125.703 313.111 129.361 313.399 133.059 C 313.804 138.272 313.35 143.424 312.31 148.531 C 311.628 151.881 311.111 155.266 310.132 158.556 C 307.805 166.379 303.906 173.345 298.895 179.757 C 293.147 187.112 286.246 193.239 278.929 198.948 C 278.055 199.628 277.201 199.801 276.112 199.599 C 272.892 199.002 269.716 198.184 266.473 197.696 C 261.991 197.02 257.492 196.508 252.983 196.077 C 247.083 195.513 241.182 194.952 235.279 194.41 C 231.728 194.084 228.176 193.763 224.62 193.499 C 217.689 192.983 210.834 191.933 203.992 190.763 C 194.161 189.082 184.349 187.3 174.565 185.374 C 167.084 183.9 159.76 181.884 152.569 179.342 C 147.029 177.385 141.454 175.524 135.952 173.46 C 132.521 172.173 129.203 170.622 126.03 168.774 C 125.282 168.338 124.533 167.893 123.892 167.299 C 122.88 166.361 122.855 165.907 123.83 164.905 C 126.385 162.28 128.963 159.669 131.293 156.84 C 136.548 150.458 141.364 143.748 144.827 136.223 C 147.948 129.441 149.318 122.215 149.137 114.717 C 149.017 109.704 148.863 104.694 148.481 99.693 C 148.225 96.325 147.669 92.996 147.201 89.657 C 146.131 82.03 145.947 74.399 146.617 66.725 C 147.629 55.127 150.683 44.082 155.441 33.497 C 157.798 28.254 160.794 23.357 164.078 18.643 C 165.796 16.176 167.86 14.018 170.224 12.153 C 170.716 11.765 171.218 11.387 171.689 10.974 C 173.912 9.024 176.535 8.107 179.452 7.972 C 180.415 7.927 181.381 7.965 182.345 7.965 Z" style="fill: none; fill-rule: nonzero; stroke: black; stroke-width: 1.13px;"/>
    </g>
    <g transform="matrix(1.000003, 0, 0, -0.999999, 14.537258, 227.533813)" style="">
      <path d="M 151.842 174.157 C 150 174.149 148.608 173.425 147.793 171.687 C 147.238 170.506 146.716 169.319 146.351 168.066 C 144.704 162.428 144.431 156.685 145.046 150.878 C 145.51 146.501 146.669 142.262 147.689 138.002 C 149.05 132.31 149.992 126.564 150.128 120.712 C 150.319 112.491 148.937 104.487 146.524 96.654 C 144.315 89.488 141.497 82.591 137.27 76.339 C 135.325 73.462 133.231 70.694 131.137 67.925 C 130.188 66.672 130.415 65.941 131.9 65.47 C 133.231 65.048 134.58 64.682 135.923 64.297 C 142.597 62.385 149.318 60.646 156.217 59.774 C 163.437 58.863 170.584 57.515 177.776 56.431 C 182.776 55.676 187.795 55.055 192.833 54.606 C 197.055 54.229 201.278 53.859 205.479 53.27 C 209.869 52.656 214.265 52.068 218.691 51.812 C 223.218 51.551 227.718 51.051 232.212 50.506 C 240.722 49.474 249.238 48.53 257.795 47.996 C 261.209 47.783 264.624 47.582 268.048 47.765 C 268.592 47.794 269.035 47.861 269.462 48.297 C 273.904 52.853 277.662 57.903 280.482 63.615 C 283.563 69.853 285.568 76.434 286.098 83.383 C 286.654 90.684 285.952 97.938 284.52 105.098 C 282.628 114.546 280.555 123.959 279.345 133.531 C 278.559 139.764 278.806 145.943 280.254 152.062 C 281.145 155.826 282.397 159.463 284.079 162.951 C 284.593 164.016 284.507 164.23 283.671 165.091 C 282.959 165.826 282.028 165.876 281.136 165.969 C 277.829 166.315 274.516 166.61 271.204 166.917 C 267.698 167.241 264.177 167.329 260.668 167.576 C 254.896 167.984 249.13 168.42 243.336 168.41 C 240.931 168.406 238.522 168.625 236.118 168.801 C 230.397 169.222 224.679 169.685 218.96 170.118 C 215.979 170.344 212.992 170.499 210.016 170.765 C 203.821 171.321 197.62 171.78 191.406 172.036 C 185.816 172.266 180.242 172.712 174.663 173.086 C 169.227 173.45 163.795 173.852 158.351 174.159 C 156.182 174.159 154.012 174.167 151.842 174.157 Z M 264.784 122.103 C 265.322 118.986 265.879 116.1 266.308 113.197 C 266.867 109.431 267.341 105.652 267.633 101.854 C 267.749 100.352 267.741 100.387 269.185 100.275 C 273.846 99.911 278.529 99.841 283.172 99.247 C 284.32 99.1 284.756 98.741 284.686 98.096 C 284.616 97.438 284.015 97.133 282.959 97.276 C 279.849 97.693 276.713 97.754 273.589 97.997 C 272.004 98.119 270.413 98.177 268.827 98.298 C 268.13 98.351 267.888 98.093 267.907 97.399 C 267.956 95.665 267.985 93.928 267.957 92.193 C 267.864 86.528 267.158 80.948 265.562 75.497 C 265.496 75.269 265.44 75.037 265.352 74.708 C 267.271 74.267 269.187 74.22 271.083 74.046 C 274.635 73.722 278.192 73.45 281.747 73.161 C 282.389 73.109 282.887 72.872 282.946 72.162 C 282.996 71.568 282.489 71.153 281.62 71.182 C 280.369 71.224 279.12 71.347 277.872 71.459 C 273.983 71.806 270.096 72.165 266.208 72.517 C 265.968 72.539 265.723 72.527 265.487 72.57 C 264.852 72.689 264.548 72.426 264.323 71.818 C 263.72 70.193 263.069 68.584 262.384 66.991 C 260.164 61.827 257.334 57.022 253.837 52.614 C 252.625 51.087 252.631 51.082 250.457 51.277 C 250.883 52.398 251.794 53.128 252.429 54.04 C 253.119 55.028 253.877 55.968 254.566 56.957 C 255.226 57.905 255.86 58.875 256.461 59.863 C 257.088 60.892 257.685 61.939 258.253 63.001 C 258.798 64.02 259.313 65.058 259.8 66.107 C 260.308 67.199 260.788 68.305 261.241 69.421 C 261.672 70.485 262.173 71.528 262.465 72.724 C 261.805 73.015 261.13 73.027 260.485 73.08 C 255.201 73.517 249.915 73.938 244.628 74.334 C 243.018 74.454 243.22 74.581 242.684 73.101 C 240.166 66.145 236.074 60.171 231.204 54.681 C 230.82 54.248 230.364 53.863 230.055 53.383 C 229.236 52.112 228.134 52.181 226.817 52.581 C 227.055 53.242 227.562 53.622 227.965 54.057 C 230.592 56.89 233.043 59.862 235.245 63.038 C 237.454 66.225 239.205 69.65 240.608 73.257 C 240.73 73.571 240.84 73.89 240.94 74.212 C 240.965 74.295 240.933 74.397 240.923 74.527 C 239.687 74.963 238.368 74.881 237.086 75.021 C 233.54 75.408 229.988 75.735 226.437 76.058 C 225.282 76.163 225.255 76.134 224.867 75.09 C 222.036 67.466 217.657 60.841 211.998 55.034 C 210.823 53.827 210.426 53.741 208.638 54.496 C 215.065 60.678 220.149 67.717 223.118 76.242 C 221.138 76.702 219.204 76.68 217.297 76.846 C 214.08 77.125 210.859 77.357 207.649 77.714 C 207.266 77.757 206.875 77.746 206.496 77.808 C 205.907 77.902 205.625 77.63 205.425 77.105 C 204.996 75.98 204.529 74.869 204.06 73.76 C 201.357 67.365 197.288 61.894 192.594 56.851 C 191.927 56.134 191.579 56.137 189.8 56.779 C 195.785 62.975 200.791 69.744 203.57 77.979 C 202.602 78.441 201.565 78.355 200.574 78.483 C 196.321 79.035 192.058 79.514 187.808 80.089 C 186.556 80.257 185.878 79.96 185.215 78.756 C 181.727 72.411 177.697 66.408 173.298 60.655 C 172.233 59.263 172.216 59.276 170.238 59.826 C 170.95 61.004 171.855 61.973 172.627 63.03 C 173.453 64.159 174.283 65.284 175.085 66.428 C 175.859 67.534 176.606 68.659 177.355 69.783 C 178.104 70.905 178.851 72.03 179.58 73.165 C 180.334 74.343 181.082 75.524 181.803 76.722 C 182.494 77.869 183.246 78.988 183.74 80.315 C 182.247 80.829 180.731 80.746 179.264 80.864 C 174.939 81.213 170.623 81.634 166.31 82.098 C 164.474 82.297 164.884 82.314 164.095 80.946 C 160.652 74.961 156.759 69.281 152.546 63.811 C 151.683 62.691 150.855 63.398 149.738 63.389 C 152.092 66.61 154.51 69.54 156.563 72.73 C 158.611 75.909 160.862 78.966 162.667 82.525 C 161.41 82.688 160.378 82.852 159.337 82.953 C 154.587 83.414 149.858 84.031 145.143 84.769 C 144.022 84.944 143.537 85.31 143.574 85.935 C 143.615 86.628 144.183 86.92 145.421 86.75 C 148.476 86.33 151.517 85.809 154.587 85.488 C 157.319 85.202 160.048 84.885 162.771 84.519 C 163.515 84.418 163.786 84.742 164.064 85.324 C 165.978 89.335 167.587 93.458 168.626 97.789 C 169.052 99.57 169.428 101.362 169.698 103.175 C 169.923 104.681 169.91 104.729 168.451 104.902 C 165.675 105.234 162.894 105.515 160.12 105.855 C 157.679 106.153 155.247 106.502 152.812 106.831 C 152.716 106.843 152.623 106.875 152.529 106.892 C 151.92 106.997 151.376 107.197 151.373 107.939 C 151.371 108.541 151.902 108.92 152.764 108.824 C 154.679 108.608 156.584 108.311 158.498 108.077 C 162.038 107.642 165.58 107.226 169.122 106.811 C 170.009 106.707 170.056 106.749 170.098 107.743 C 170.244 111.22 170.002 114.683 169.666 118.139 C 169.415 120.729 169.157 123.318 168.723 125.888 C 168.591 126.667 168.267 126.909 167.522 126.986 C 162.44 127.511 157.38 128.2 152.332 128.992 C 152 129.044 151.663 129.089 151.343 129.185 C 150.825 129.343 150.501 129.702 150.586 130.26 C 150.669 130.815 151.071 131.104 151.622 131.047 C 152.771 130.929 153.921 130.796 155.061 130.612 C 159.012 129.971 162.987 129.518 166.959 129.041 C 167.281 129.002 167.624 128.897 168.032 129.15 C 167.896 130.829 167.467 132.498 167.102 134.17 C 166.134 138.594 165.021 142.988 164.372 147.475 C 164.269 148.188 164 148.46 163.303 148.522 C 160.854 148.737 158.405 148.964 155.965 149.254 C 153.287 149.573 150.617 149.969 147.943 150.331 C 147.8 150.35 147.656 150.365 147.514 150.395 C 146.547 150.6 146.133 151.015 146.26 151.648 C 146.385 152.27 146.916 152.521 147.906 152.361 C 152.858 151.561 157.839 151.008 162.835 150.588 C 163.948 150.494 163.92 150.488 163.84 151.62 C 163.446 157.215 163.451 162.798 164.586 168.323 C 164.809 169.405 165.181 170.456 165.52 171.511 C 165.636 171.871 165.819 172.229 166.05 172.528 C 166.335 172.898 166.744 173.059 167.202 172.809 C 167.632 172.576 167.803 172.194 167.716 171.716 C 167.68 171.529 167.59 171.352 167.52 171.173 C 166.291 167.983 165.873 164.651 165.729 161.26 C 165.604 158.32 165.482 155.382 165.771 152.445 C 166 150.117 165.718 150.278 168.073 150.137 C 172.548 149.87 177.023 149.587 181.498 149.31 L 181.642 149.301 C 183.244 149.194 183.264 149.196 183.138 150.733 C 182.759 155.372 182.839 159.982 183.966 164.529 C 184.456 166.502 185.132 168.406 186.133 170.181 C 186.719 171.22 187.329 171.515 187.923 171.117 C 188.452 170.761 188.44 170.255 187.863 169.196 C 186.27 166.267 185.542 163.089 185.156 159.811 C 184.789 156.681 184.887 153.553 185.18 150.426 C 185.308 149.065 185.32 149.064 186.608 148.987 C 191.276 148.705 195.943 148.411 200.613 148.146 C 201.275 148.109 202.105 147.834 202.573 148.265 C 203.088 148.738 202.589 149.53 202.517 150.171 C 201.824 156.351 202.332 162.392 204.521 168.248 C 204.656 168.608 204.798 168.973 204.999 169.297 C 205.247 169.7 205.642 169.901 206.115 169.719 C 206.635 169.518 206.847 169.089 206.735 168.557 C 206.656 168.184 206.478 167.831 206.347 167.469 C 204.196 161.536 203.753 155.445 204.691 149.233 C 204.868 148.059 204.895 148.012 206.122 147.965 C 210.603 147.798 215.086 147.658 219.568 147.531 C 220.608 147.5 220.627 147.541 220.686 148.686 C 220.923 153.271 221.512 157.802 222.746 162.236 C 223.301 164.235 224.044 166.17 224.797 168.099 C 224.901 168.364 225.021 168.64 225.204 168.85 C 225.516 169.206 225.933 169.318 226.38 169.1 C 226.771 168.909 226.951 168.55 226.877 168.143 C 226.8 167.723 226.647 167.31 226.481 166.913 C 224.006 161.01 222.988 154.809 222.67 148.46 C 222.633 147.731 222.828 147.425 223.6 147.403 C 228.082 147.273 232.564 147.095 237.046 146.956 C 238.028 146.926 238.026 146.972 238.132 147.994 C 238.572 152.217 239.123 156.422 240.4 160.49 C 240.818 161.821 241.331 163.123 241.81 164.435 C 241.925 164.75 242.064 165.06 242.219 165.359 C 242.674 166.235 243.199 166.529 243.771 166.247 C 244.284 165.993 244.429 165.411 244.051 164.593 C 241.718 159.529 240.814 154.122 240.199 148.645 C 240.189 148.549 240.179 148.453 240.17 148.357 C 240.048 146.91 240.049 146.913 241.446 146.848 C 246.841 146.603 252.234 146.331 257.629 146.119 C 259.467 146.047 259.371 145.853 259.423 147.76 C 259.584 153.622 261.029 159.188 263.249 164.58 C 263.549 165.305 264.135 165.592 264.714 165.327 C 265.295 165.062 265.483 164.514 265.123 163.722 C 264.023 161.298 263.224 158.777 262.586 156.198 C 261.877 153.332 261.507 150.421 261.393 147.475 C 261.34 146.095 261.352 146.093 262.809 146.05 C 266.52 145.94 270.233 145.84 273.944 145.717 C 274.906 145.684 275.866 145.58 276.827 145.503 C 277.019 145.488 277.216 145.469 277.394 145.404 C 277.888 145.225 278.242 144.905 278.162 144.332 C 278.084 143.774 277.703 143.473 277.157 143.495 C 276.387 143.526 275.622 143.665 274.852 143.69 C 270.756 143.818 266.659 143.935 262.56 144.036 C 261.402 144.064 261.397 144.034 261.465 142.796 C 261.754 137.536 262.696 132.367 263.691 127.207 C 263.809 126.592 263.945 125.981 264.076 125.368 C 264.341 124.128 264.342 124.125 265.668 124.111 C 266.874 124.097 268.08 124.087 269.285 124.083 C 272.324 124.072 275.357 123.887 278.39 123.724 C 278.771 123.703 279.161 123.652 279.524 123.54 C 280.005 123.391 280.187 122.992 280.116 122.513 C 280.054 122.092 279.786 121.797 279.353 121.766 C 278.826 121.728 278.293 121.721 277.765 121.758 C 273.963 122.02 270.155 122.081 266.345 122.103 C 265.869 122.105 265.394 122.103 264.784 122.103 Z M 243.901 76.444 C 250.126 75.921 256.17 75.407 262.214 74.911 C 263.267 74.824 263.276 74.857 263.587 75.899 C 265.546 82.476 266.131 89.216 265.948 96.043 C 265.884 98.455 265.861 98.478 263.41 98.554 C 258.932 98.695 254.455 98.817 249.984 99.134 C 248.879 99.213 247.766 99.181 246.662 99.254 C 245.929 99.302 245.702 98.998 245.822 98.321 C 245.857 98.133 245.861 97.937 245.867 97.745 C 246.033 92.395 246.051 87.049 245.041 81.76 C 244.709 80.02 244.301 78.293 243.901 76.444 Z M 242.215 122.508 C 242.215 122.318 242.184 122.121 242.219 121.937 C 243.483 115.365 244.922 108.822 245.546 102.144 C 245.622 101.335 246.049 101.268 246.691 101.241 C 252.708 100.989 258.724 100.715 264.741 100.449 C 265.677 100.408 265.732 100.425 265.648 101.404 C 265.47 103.467 265.247 105.526 265.028 107.586 C 264.548 112.091 263.803 116.554 262.909 120.994 C 262.672 122.17 262.655 122.167 261.4 122.256 C 261.255 122.266 261.111 122.275 260.966 122.278 C 255.137 122.414 249.308 122.55 243.479 122.678 C 243.057 122.688 242.608 122.805 242.215 122.508 Z M 252.088 124.692 C 252.088 124.624 252.087 124.557 252.087 124.49 C 255.119 124.412 258.152 124.328 261.184 124.259 C 262.187 124.236 262.252 124.307 262.04 125.338 C 260.831 131.234 259.751 137.149 259.447 143.174 C 259.414 143.843 259.183 144.09 258.502 144.108 C 252.919 144.255 247.343 144.535 241.767 144.836 C 239.802 144.941 239.892 145.124 239.877 143.009 C 239.837 137.26 240.552 131.582 241.536 125.932 C 241.746 124.728 241.75 124.704 242.989 124.697 C 246.022 124.682 249.055 124.692 252.088 124.692 Z M 165.786 84.244 C 166.161 84.173 166.347 84.124 166.536 84.105 C 169.938 83.75 173.339 83.384 176.742 83.052 C 179.092 82.824 181.448 82.662 183.796 82.436 C 184.512 82.367 184.978 82.504 185.204 83.279 C 185.458 84.154 185.841 84.993 186.15 85.854 C 187.909 90.765 189.171 95.804 189.999 100.951 C 190.243 102.468 190.078 102.356 188.895 102.472 C 183.623 102.988 178.356 103.566 173.111 104.329 C 171.925 104.502 171.905 104.482 171.715 103.194 C 170.874 97.438 169.258 91.911 166.853 86.614 C 166.517 85.874 166.185 85.131 165.786 84.244 Z M 170.781 126.535 C 170.752 126.217 170.711 126.074 170.731 125.94 C 171.63 119.783 172.285 113.606 172.088 107.369 C 172.068 106.72 172.23 106.443 172.925 106.348 C 178.368 105.607 183.823 104.968 189.29 104.44 C 190.417 104.332 190.432 104.38 190.542 105.449 C 190.562 105.641 190.573 105.834 190.576 106.027 C 190.664 111.624 190.46 117.203 189.54 122.737 C 189.159 125.025 189.55 124.612 187.14 124.888 C 184.125 125.232 181.098 125.464 178.078 125.763 C 175.685 126.001 173.296 126.268 170.781 126.535 Z M 206.598 79.918 C 206.756 79.874 206.933 79.799 207.118 79.778 C 212.334 79.168 217.577 78.867 222.806 78.395 C 223.874 78.3 223.888 78.346 224.229 79.512 C 226.091 85.861 226.665 92.364 226.528 98.949 C 226.506 99.975 226.482 99.996 225.47 100.04 C 220.753 100.239 216.039 100.48 211.332 100.87 C 210.078 100.974 210.063 100.945 209.999 99.692 C 209.669 93.314 208.584 87.066 206.747 80.949 C 206.651 80.626 206.512 80.314 206.598 79.918 Z M 225.97 78.247 C 226.194 78.168 226.281 78.116 226.374 78.107 C 231.119 77.627 235.863 77.145 240.609 76.678 C 241.748 76.566 241.787 76.6 242.097 77.714 C 243.994 84.534 244.151 91.499 243.821 98.506 C 243.785 99.285 243.417 99.446 242.723 99.459 C 240.99 99.492 239.257 99.608 237.524 99.669 C 234.779 99.767 232.033 99.837 229.288 99.944 C 228.709 99.966 228.505 99.73 228.531 99.188 C 228.55 98.803 228.54 98.417 228.545 98.032 C 228.593 94.025 228.332 90.041 227.729 86.078 C 227.33 83.458 226.705 80.89 225.97 78.247 Z M 166.471 148.213 C 166.406 147.963 166.351 147.869 166.364 147.783 C 167.232 141.529 169.061 135.47 170.122 129.254 C 170.187 128.867 170.399 128.66 170.78 128.607 C 171.161 128.553 171.54 128.481 171.922 128.441 C 176.327 127.974 180.731 127.503 185.137 127.052 C 186.269 126.936 187.408 126.888 188.5 126.812 C 188.694 127.269 188.567 127.59 188.491 127.914 C 188.055 129.79 187.549 131.645 186.979 133.485 C 185.684 137.669 184.413 141.863 183.732 146.201 C 183.609 146.982 183.296 147.236 182.537 147.273 C 180.373 147.375 178.214 147.563 176.052 147.69 C 172.883 147.876 169.714 148.037 166.471 148.213 Z M 187.106 82.174 C 188.41 82.022 189.74 81.879 191.066 81.712 C 195.13 81.201 199.193 80.679 203.257 80.171 C 204.335 80.035 204.383 80.042 204.684 81.076 C 205.193 82.832 205.696 84.594 206.114 86.374 C 207.165 90.841 207.814 95.368 207.991 99.956 C 208.033 101.023 207.976 101.096 207.049 101.16 C 202.482 101.476 197.913 101.766 193.346 102.086 C 192.215 102.165 192.17 102.018 192.009 100.959 C 191.091 94.89 189.511 88.989 187.331 83.25 C 187.211 82.935 187.049 82.635 187.106 82.174 Z M 185.671 146.868 C 185.904 145.006 186.329 143.239 186.761 141.474 C 187.861 136.985 189.503 132.646 190.492 128.125 C 190.845 126.515 190.872 126.534 192.577 126.422 C 195.173 126.25 197.767 126.053 200.362 125.879 C 202.141 125.76 203.919 125.644 205.7 125.57 C 206.556 125.535 206.616 125.621 206.514 126.477 C 206.411 127.337 206.259 128.191 206.12 129.047 C 205.271 134.275 204.136 139.452 203.377 144.696 C 203.18 146.066 203.171 146.055 201.769 146.116 C 197.487 146.301 193.207 146.539 188.931 146.855 C 187.893 146.931 186.837 147.11 185.671 146.868 Z M 221.06 102.21 C 221.062 102.161 221.063 102.112 221.064 102.063 C 222.507 102.063 223.948 102.06 225.391 102.064 C 226.316 102.067 226.318 102.072 226.291 103.045 C 226.281 103.382 226.27 103.719 226.238 104.053 C 225.665 110.145 224.576 116.158 223.563 122.184 C 223.425 123.009 222.955 123.108 222.249 123.118 C 218.158 123.18 214.064 123.12 209.978 123.421 C 208.937 123.497 208.907 123.429 209.01 122.395 C 209.612 116.357 209.987 110.306 210.035 104.237 C 210.045 102.982 210.052 102.965 211.265 102.88 C 214.53 102.648 217.795 102.432 221.06 102.21 Z M 236.2 101.916 C 236.201 101.856 236.201 101.795 236.202 101.734 C 236.779 101.697 237.356 101.647 237.934 101.624 C 239.523 101.56 241.115 101.528 242.703 101.444 C 243.431 101.405 243.669 101.693 243.528 102.38 C 243.479 102.615 243.459 102.856 243.434 103.097 C 242.777 109.385 241.4 115.55 240.209 121.747 C 239.998 122.845 239.976 122.853 238.812 122.885 C 235.005 122.991 231.199 123.184 227.388 123.136 C 225.032 123.106 225.404 123.254 225.747 121.216 C 226.761 115.181 227.855 109.16 228.308 103.046 C 228.385 102.011 228.413 101.951 229.55 101.93 C 231.766 101.885 233.984 101.916 236.2 101.916 Z M 191.523 124.445 C 191.277 123.934 191.46 123.562 191.515 123.198 C 192.422 117.186 192.798 111.145 192.478 105.071 C 192.433 104.237 192.796 104.125 193.464 104.082 C 197.881 103.795 202.297 103.475 206.713 103.186 C 208.017 103.101 208.013 103.13 208.029 104.509 C 208.064 107.737 207.864 110.956 207.68 114.174 C 207.533 116.767 207.289 119.356 207.058 121.944 C 206.921 123.491 206.894 123.473 205.402 123.572 C 201.898 123.805 198.396 124.061 194.891 124.292 C 193.753 124.368 192.611 124.397 191.523 124.445 Z M 212.791 145.881 C 210.865 145.881 208.938 145.842 207.014 145.892 C 205.19 145.94 205.19 145.981 205.466 144.207 C 206.394 138.214 207.738 132.292 208.553 126.28 C 208.634 125.679 208.872 125.472 209.458 125.433 C 213.642 125.155 217.834 125.167 222.023 125.101 C 222.956 125.085 222.97 125.14 222.826 126.113 C 222.426 128.779 221.967 131.435 221.62 134.107 C 221.173 137.545 220.812 140.992 220.687 144.461 C 220.652 145.454 220.609 145.481 219.577 145.507 C 217.315 145.564 215.05 145.551 212.791 145.881 Z M 230.25 144.95 C 230.249 145.003 230.248 145.055 230.248 145.108 C 228.082 145.209 225.916 145.319 223.75 145.409 C 222.723 145.452 222.665 145.414 222.716 144.385 C 222.802 142.653 222.916 140.922 223.062 139.195 C 223.433 134.823 224.101 130.491 224.85 126.17 C 224.955 125.566 225.086 125.084 225.904 125.097 C 230.194 125.164 234.483 125.057 238.77 124.886 C 239.395 124.861 239.675 125.071 239.533 125.718 C 239.471 126.001 239.428 126.287 239.382 126.572 C 238.461 132.287 237.791 138.025 237.878 143.828 C 237.894 144.901 237.883 144.932 236.752 144.944 C 234.586 144.966 232.418 144.95 230.25 144.95 Z" style="fill: white; fill-rule: nonzero;"/>
    </g>
    <g style="">
      <path d="M 306.667 22.972 C 309.257 22.989 311.364 25.131 311.31 27.688 C 311.256 30.201 309.175 32.252 306.661 32.268 C 304.083 32.285 301.95 30.174 301.953 27.61 C 301.958 25.025 304.062 22.955 306.667 22.972 Z M 256.904 22.406 C 256.875 19.779 258.901 17.712 261.515 17.698 C 264.107 17.684 266.209 19.772 266.202 22.357 C 266.195 24.866 264.147 26.958 261.638 27.019 C 259.074 27.083 256.932 24.995 256.904 22.406 Z M 186.011 15.89 C 186.015 13.292 188.118 11.198 190.693 11.232 C 193.264 11.266 195.347 13.413 195.303 15.985 C 195.258 18.507 193.196 20.541 190.67 20.554 C 188.063 20.566 186.006 18.508 186.011 15.89 Z M 289.17 24.385 C 289.174 26.975 287.068 29.085 284.499 29.066 C 281.934 29.047 279.832 26.9 279.865 24.33 C 279.899 21.808 281.954 19.764 284.482 19.744 C 287.094 19.725 289.166 21.775 289.17 24.385 Z M 234.062 20.282 C 234.066 17.658 236.117 15.626 238.738 15.648 C 241.337 15.67 243.392 17.772 243.349 20.368 C 243.308 22.887 241.242 24.934 238.724 24.953 C 236.139 24.971 234.058 22.887 234.062 20.282 Z M 215.603 12.792 C 218.202 12.781 220.283 14.859 220.273 17.458 C 220.264 20.035 218.133 22.146 215.569 22.113 C 213.058 22.08 210.991 20.007 210.963 17.497 C 210.933 14.908 213.011 12.802 215.603 12.792 Z" style="fill:rgb(247,141,182);fill-rule:nonzero;"/>
    </g>
    <g>
      <path d="M 277.836 20.479 C 277.851 21.594 277.996 22.69 278.375 23.741 C 279.087 25.711 280.9 26.34 282.674 25.255 C 283.262 24.896 283.725 24.419 284.111 23.855 C 284.327 23.538 284.53 23.199 284.799 22.931 C 285.34 22.392 286.052 22.322 286.649 22.692 C 287.248 23.064 287.559 23.758 287.304 24.446 C 286.537 26.519 283.995 28.775 281.366 28.904 C 278.931 29.024 276.504 27.638 275.63 25.3 C 273.963 20.838 274.405 16.544 277.29 12.703 C 280.041 9.04 284.881 9.339 287.336 13.204 C 287.933 14.143 288.413 15.143 288.627 16.247 C 288.829 17.29 288.401 18.073 287.533 18.296 C 286.752 18.497 286.021 18.058 285.673 17.096 C 285.411 16.371 285.18 15.638 284.767 14.979 C 283.39 12.779 281.163 12.69 279.596 14.775 C 278.5 16.235 277.816 18.453 277.836 20.479 Z M 252.029 19.456 C 252.057 16.437 252.84 13.657 254.606 11.175 C 256.247 8.871 258.531 8.067 261.201 8.62 C 264.017 9.202 265.885 10.996 266.739 13.766 C 266.996 14.6 266.597 15.391 265.876 15.685 C 265.199 15.963 264.447 15.727 263.995 15.029 C 263.736 14.627 263.586 14.156 263.353 13.736 C 262.617 12.408 261.471 11.707 259.961 11.618 C 258.823 11.552 257.901 11.954 257.212 12.899 C 255.338 15.468 254.871 18.362 255.326 21.42 C 255.558 22.973 257.175 23.633 258.563 22.859 C 259.294 22.451 259.824 21.823 260.324 21.168 C 260.615 20.785 260.889 20.385 261.328 20.144 C 261.951 19.803 262.545 19.861 263.068 20.324 C 263.54 20.741 263.692 21.277 263.509 21.897 C 262.708 24.617 258.798 26.868 256.082 26.125 C 254.119 25.588 252.812 24.356 252.318 22.327 C 252.087 21.38 252.03 20.423 252.029 19.456 Z M 298.629 24.657 C 298.787 20.982 299.917 17.663 302.236 14.794 C 303.809 12.849 305.778 12.42 308.04 13.455 C 310.636 14.643 311.795 16.792 312.028 19.524 C 312.107 20.453 311.613 21.09 310.834 21.239 C 310.072 21.383 309.384 20.962 309.066 20.096 C 308.918 19.693 308.86 19.257 308.765 18.835 C 308.628 18.215 308.396 17.643 307.963 17.163 C 306.606 15.665 305.339 15.715 304.197 17.359 C 302.525 19.765 301.68 22.429 301.814 25.374 C 301.834 25.804 301.882 26.245 302.001 26.656 C 302.24 27.48 302.691 27.738 303.53 27.526 C 304.43 27.3 305.204 26.809 305.951 26.271 C 306.379 25.962 306.806 25.628 307.282 25.414 C 307.962 25.106 308.672 25.338 309.086 25.898 C 309.501 26.459 309.555 27.251 309.008 27.754 C 307.323 29.305 305.468 30.618 303.066 30.705 C 301.122 30.776 299.659 29.662 299.067 27.79 C 298.922 27.333 298.818 26.857 298.755 26.382 C 298.68 25.811 298.669 25.231 298.629 24.657 Z M 231.169 17.364 C 231.164 15.405 231.582 13.529 232.422 11.771 C 234.4 7.637 237.679 7.599 240.805 9.425 C 241.605 9.891 242.239 10.567 242.78 11.308 C 243.242 11.941 243.184 12.633 242.718 13.167 C 242.211 13.75 241.473 13.881 240.762 13.454 C 240.438 13.261 240.156 12.982 239.889 12.71 C 239.513 12.328 239.11 11.994 238.619 11.774 C 237.091 11.091 236.147 11.367 235.388 12.834 C 234.481 14.585 234.111 16.468 234.37 18.431 C 234.56 19.869 235.241 20.197 236.603 19.636 C 237.429 19.295 238.035 18.677 238.675 18.092 C 239.747 17.115 240.626 17.001 241.317 17.736 C 241.982 18.444 241.797 19.372 240.801 20.368 C 239.803 21.366 238.712 22.216 237.364 22.703 C 234.589 23.705 232.225 22.491 231.411 19.654 C 231.194 18.899 231.174 18.135 231.169 17.364 Z M 207.52 14.135 C 207.662 12.102 208.106 10.056 209.469 8.305 C 212.016 5.035 216.622 5.182 218.94 8.609 C 219.301 9.141 219.556 9.704 219.47 10.365 C 219.383 11.037 219.071 11.546 218.38 11.745 C 217.694 11.942 217.065 11.686 216.646 11.048 C 216.619 11.009 216.59 10.968 216.572 10.923 C 216.1 9.711 215.205 9.055 213.913 9.105 C 212.59 9.155 211.839 10.081 211.359 11.174 C 210.709 12.654 210.403 14.209 210.899 15.817 C 211.405 17.455 212.788 17.882 214.13 16.798 C 214.5 16.498 214.789 16.097 215.13 15.759 C 215.811 15.086 216.552 14.976 217.2 15.435 C 217.899 15.933 218.041 16.769 217.573 17.625 C 216.466 19.651 213.778 20.893 211.52 20.397 C 209.946 20.051 208.868 19.083 208.228 17.622 C 207.76 16.55 207.534 15.423 207.52 14.135 Z M 182.044 11.668 C 182.147 9.987 182.473 8.007 183.684 6.284 C 185.337 3.93 188.481 3.186 191.002 4.563 C 192.059 5.141 192.822 5.981 193.103 7.185 C 193.309 8.071 192.956 8.812 192.23 9.092 C 191.546 9.357 190.736 9.162 190.377 8.418 C 189.854 7.342 189.069 6.941 187.943 7.061 C 186.72 7.191 186.106 8.021 185.723 9.067 C 185.111 10.739 184.953 12.442 185.53 14.159 C 186.079 15.79 187.228 16.169 188.678 15.218 C 189.039 14.98 189.354 14.668 189.728 14.456 C 190.497 14.02 191.341 14.183 191.801 14.807 C 192.248 15.414 192.241 16.166 191.632 16.78 C 190.261 18.162 188.678 19.103 186.618 18.794 C 184.534 18.482 183.287 17.198 182.614 15.283 C 182.245 14.233 182.043 13.147 182.044 11.668 Z" style="fill-rule:nonzero;"/>
    </g>
    <g style="">
      <path d="M 193.876 85.393 C 193.87 86.411 193.541 87.21 193.151 87.988 C 192.589 89.111 192.583 89.112 193.456 89.943 C 194.666 91.095 195.212 92.454 194.742 94.118 C 194.207 96.014 192.253 97.26 190.422 96.886 C 188.637 96.521 187.61 95.074 187.908 93.283 C 188.074 92.278 188.362 91.279 189.011 90.488 C 189.726 89.614 189.783 88.918 189.05 87.981 C 188.168 86.854 188.034 85.512 188.608 84.153 C 189.178 82.806 190.075 82.215 191.389 82.305 C 192.553 82.385 193.333 83.128 193.702 84.527 C 193.786 84.85 193.835 85.184 193.876 85.393 Z M 192.917 93.063 C 192.951 92.547 192.691 91.999 192.136 91.46 C 191.363 90.708 191.192 90.729 190.633 91.606 C 190.291 92.143 190.077 92.728 189.931 93.339 C 189.802 93.884 189.83 94.419 190.355 94.755 C 190.843 95.067 191.362 95.025 191.864 94.74 C 192.501 94.376 192.817 93.81 192.917 93.063 Z M 191.169 87.332 C 191.696 86.548 192.083 85.774 191.703 84.82 C 191.613 84.593 191.488 84.389 191.218 84.351 C 190.886 84.304 190.686 84.498 190.531 84.755 C 190.064 85.529 190.241 86.287 191.169 87.332 Z M 213.097 91.226 C 212.326 91.555 211.795 91.885 211.164 91.972 C 209.712 92.172 208.506 91.48 208.182 90.089 C 207.838 88.619 208.255 87.3 209.354 86.267 C 210.3 85.376 212.089 85.229 213.296 85.885 C 213.8 86.16 214.27 86.504 214.738 86.839 C 215.114 87.11 215.285 87.512 215.286 87.967 C 215.293 90.136 215.259 92.306 214.71 94.424 C 214.49 95.268 214.07 96.029 213.478 96.688 C 212.321 97.977 209.628 98.356 208.425 96.509 C 207.953 95.783 207.885 95.193 208.364 94.839 C 208.961 94.397 209.413 94.701 209.879 95.134 C 210.876 96.061 211.753 95.924 212.414 94.746 C 212.992 93.712 213.136 92.582 213.097 91.226 Z M 212.711 88.153 C 212.711 87.937 212.573 87.806 212.414 87.7 C 211.97 87.404 211.072 87.463 210.658 87.81 C 210.209 88.186 209.939 89.198 210.169 89.647 C 210.262 89.829 210.42 89.933 210.609 89.972 C 211.332 90.122 212.756 88.885 212.711 88.153 Z M 254.178 111.906 C 254.188 112.558 253.73 113.579 253.074 114.477 C 252.503 115.258 252.253 115.894 253.011 116.717 C 253.462 117.207 253.653 117.901 253.75 118.576 C 254.071 120.82 252.116 122.622 250.002 122.04 C 248.749 121.695 248.143 120.925 248.161 119.624 C 248.176 118.54 248.456 117.502 249.078 116.623 C 249.719 115.719 249.726 114.886 249.216 113.934 C 248.948 113.435 248.802 112.851 248.694 112.289 C 248.427 110.905 249.313 109.28 250.591 108.713 C 252.336 107.938 254.166 109.308 254.178 111.906 Z M 250.987 117.453 C 250.431 117.987 250.308 118.692 250.164 119.386 C 250.113 119.637 250.184 119.866 250.396 120.017 C 250.655 120.201 250.932 120.178 251.201 120.025 C 251.682 119.754 251.832 119.314 251.74 118.809 C 251.649 118.302 251.495 117.804 250.987 117.453 Z M 251.274 113.45 C 251.847 112.836 252.117 112.195 252.159 111.467 C 252.179 111.133 252.135 110.758 251.751 110.629 C 251.291 110.475 251.033 110.799 250.85 111.146 C 250.404 111.992 250.805 112.681 251.274 113.45 Z M 271.782 115.792 C 271.265 115.827 271.014 116.229 270.637 116.406 C 269.087 117.131 267.497 116.421 267.19 114.759 C 266.895 113.157 267.29 111.689 268.493 110.534 C 269.643 109.432 270.793 109.36 272.165 110.165 C 274.615 111.604 273.998 110.923 274.053 113.754 C 274.089 115.649 273.76 117.493 272.873 119.197 C 272.327 120.247 271.595 121.112 270.395 121.465 C 269.074 121.854 267.739 121.328 267.049 120.147 C 266.743 119.625 266.709 119.131 267.203 118.73 C 267.651 118.366 268.103 118.488 268.498 118.862 C 268.872 119.215 269.159 119.752 269.806 119.554 C 270.395 119.373 270.767 118.917 271.036 118.397 C 271.451 117.592 271.844 116.77 271.782 115.792 Z M 269.11 113.805 C 269.146 114.114 269.068 114.449 269.406 114.58 C 269.718 114.702 269.953 114.484 270.158 114.291 C 270.614 113.862 270.926 113.324 271.236 112.784 C 271.437 112.435 271.376 112.148 271.09 111.894 C 270.76 111.604 270.414 111.582 270.051 111.844 C 269.367 112.336 269.166 113.053 269.11 113.805 Z M 169.034 149.513 C 168.994 150.8 168.378 151.763 167.597 152.642 C 166.678 153.673 166.672 153.667 167.307 154.857 C 168.411 156.926 167.564 159.152 165.456 159.716 C 164.393 160 163.44 159.791 162.669 158.992 C 161.908 158.202 161.666 157.266 162.003 156.198 C 162.312 155.218 162.757 154.316 163.512 153.606 C 163.911 153.232 164.007 152.878 163.832 152.336 C 163.562 151.502 163.579 150.626 163.768 149.763 C 163.96 148.885 164.389 148.147 165.113 147.606 C 165.944 146.984 166.861 146.75 167.815 147.261 C 168.71 147.742 169.01 148.596 169.034 149.513 Z M 165.82 156.529 C 165.697 156.108 165.605 155.404 165.024 155.252 C 164.472 155.108 164.37 155.82 164.127 156.204 C 164.077 156.285 164.063 156.385 164.023 156.472 C 163.823 156.902 163.795 157.318 164.194 157.646 C 164.481 157.882 164.814 157.87 165.14 157.699 C 165.554 157.482 165.793 157.149 165.82 156.529 Z M 165.787 151.536 C 166.462 151.025 166.796 150.508 166.958 149.892 C 167.027 149.629 167.099 149.283 166.753 149.155 C 166.441 149.039 166.196 149.259 166.041 149.509 C 165.683 150.085 165.489 150.696 165.787 151.536 Z M 284.219 73.612 C 285.099 73.659 286.009 73.571 286.895 73.887 C 289.111 74.674 289.814 77.055 288.336 78.886 C 286.663 80.958 283.566 80.678 282.289 78.345 C 281.958 77.74 281.792 77.09 281.737 76.417 C 281.523 73.79 282.288 71.471 284.081 69.54 C 285.041 68.506 286.264 67.99 287.712 68.132 C 288.47 68.206 289.102 68.508 289.518 69.166 C 289.742 69.522 289.754 69.901 289.485 70.243 C 289.228 70.571 288.859 70.777 288.475 70.572 C 287.767 70.195 287.077 69.928 286.3 70.347 C 285.365 70.852 284.798 71.67 284.377 72.611 C 284.243 72.912 284.053 73.203 284.219 73.612 Z M 285.108 75.612 C 284.878 75.65 284.543 75.675 284.224 75.761 C 283.863 75.86 283.676 76.091 283.766 76.508 C 283.878 77.029 284.031 77.522 284.446 77.889 C 284.96 78.342 285.681 78.399 286.303 78.02 C 286.826 77.702 287.185 77.256 287.057 76.611 C 286.906 75.855 286.261 75.749 285.637 75.653 C 285.496 75.631 285.352 75.63 285.108 75.612 Z M 188.408 155.549 C 187.88 155.761 187.576 155.913 187.254 156.006 C 185.384 156.542 183.825 155.25 184.034 153.315 C 184.182 151.957 184.952 151.002 186.167 150.439 C 187.326 149.902 188.329 150.288 189.425 150.874 C 191.092 151.764 191.21 152.946 190.784 154.579 C 190.283 156.501 189.793 158.395 188.562 160.005 C 188.086 160.626 187.546 161.157 186.794 161.439 C 184.99 162.115 182.892 160.775 182.772 158.861 C 182.742 158.393 182.872 157.997 183.358 157.821 C 183.826 157.652 184.217 157.79 184.495 158.189 C 184.657 158.424 184.753 158.705 184.905 158.949 C 185.411 159.753 185.998 159.851 186.647 159.157 C 187.54 158.2 188.128 157.066 188.408 155.549 Z M 188.317 152.748 C 187.914 152.217 187.514 152.043 186.993 152.278 C 186.478 152.51 186.137 152.888 186.056 153.459 C 185.988 153.938 186.294 154.211 186.751 154.038 C 187.39 153.797 187.905 153.372 188.317 152.748 Z M 207.009 73.042 C 208.322 73.149 209.465 73.236 210.609 73.338 C 210.941 73.367 211.289 73.388 211.597 73.501 C 212.048 73.668 212.267 74.036 212.195 74.532 C 212.131 74.969 211.843 75.232 211.435 75.296 C 211.06 75.355 210.665 75.355 210.285 75.316 C 208.748 75.161 207.209 75.061 205.664 75.133 C 205.52 75.141 205.372 75.139 205.231 75.117 C 204.216 74.962 203.817 74.265 204.289 73.356 C 204.755 72.454 205.367 71.642 206.087 70.921 C 206.906 70.102 207.755 69.316 208.562 68.486 C 209.206 67.82 209.731 67.064 209.809 66.099 C 209.87 65.335 209.525 65.047 208.76 65.168 C 208.312 65.24 207.949 65.461 207.637 65.778 C 207.435 65.985 207.25 66.21 207.036 66.402 C 206.677 66.724 206.271 66.811 205.847 66.533 C 205.42 66.254 205.361 65.838 205.493 65.384 C 205.921 63.919 208.312 62.769 209.949 63.235 C 211.406 63.649 212.146 65.12 211.734 66.85 C 211.448 68.053 210.803 69.063 209.932 69.932 C 209.455 70.408 208.957 70.864 208.482 71.344 C 208.013 71.819 207.472 72.231 207.009 73.042 Z M 175.509 87.681 C 176.091 87.995 176.689 87.972 177.233 88.142 C 177.812 88.323 178.138 88.717 177.995 89.34 C 177.867 89.899 177.413 90.059 176.891 90.071 C 176.843 90.072 176.795 90.065 176.747 90.06 C 176.045 89.972 175.225 89.528 174.676 90.054 C 174.235 90.477 174.149 91.265 173.895 91.887 C 173.695 92.376 173.511 92.876 173.261 93.34 C 172.973 93.875 172.483 94.102 171.924 93.81 C 171.447 93.562 171.318 93.102 171.489 92.568 C 171.767 91.705 172.238 90.905 172.381 89.949 C 171.765 89.693 171.135 89.872 170.531 89.793 C 169.945 89.717 169.493 89.454 169.498 88.808 C 169.502 88.174 169.922 87.863 170.528 87.831 C 171.105 87.8 171.69 87.749 172.258 87.819 C 173.105 87.923 173.509 87.539 173.687 86.776 C 173.73 86.59 173.845 86.421 173.889 86.236 C 174.049 85.558 174.777 84.855 174.334 84.256 C 174.057 83.881 173.179 83.946 172.568 83.829 C 171.984 83.717 171.455 83.715 171.001 84.249 C 170.645 84.669 170.136 84.666 169.72 84.272 C 169.31 83.884 169.332 83.405 169.603 82.951 C 170.05 82.2 170.711 81.68 171.601 81.755 C 173.083 81.88 174.56 82.095 176.032 82.323 C 176.713 82.429 176.991 82.943 176.907 83.6 C 176.858 83.976 176.713 84.342 176.585 84.704 C 176.235 85.696 175.871 86.684 175.509 87.681 Z M 286.533 145.611 C 287.482 145.909 288.251 145.938 289.015 145.993 C 289.447 146.023 289.882 146.049 290.271 146.276 C 290.586 146.46 290.768 146.739 290.754 147.101 C 290.739 147.527 290.494 147.838 290.099 147.959 C 289.832 148.04 289.528 148.041 289.244 148.019 C 287.758 147.907 286.271 147.788 284.787 147.644 C 284.21 147.588 283.604 147.485 283.373 146.834 C 283.138 146.168 283.597 145.76 284.002 145.34 C 284.737 144.579 285.463 143.809 286.194 143.043 C 286.962 142.24 287.644 141.371 288.18 140.396 C 288.555 139.715 288.808 138.988 288.784 138.196 C 288.771 137.753 288.692 137.312 288.231 137.106 C 287.817 136.92 287.472 137.16 287.185 137.413 C 286.826 137.728 286.519 138.102 286.179 138.44 C 285.83 138.785 285.418 138.874 285.003 138.595 C 284.549 138.289 284.44 137.854 284.636 137.33 C 285.047 136.234 286.888 134.98 288.065 135.013 C 289.214 135.046 290.152 135.748 290.553 136.879 C 291.053 138.295 290.736 139.639 290.138 140.933 C 289.525 142.255 288.614 143.377 287.622 144.435 C 287.299 144.779 286.981 145.128 286.533 145.611 Z M 202.575 160.608 C 202.57 158.353 203.134 156.525 204.133 154.848 C 205.428 152.671 208.31 152.789 209.516 155.026 C 209.843 155.632 210.025 156.3 210.007 156.967 C 209.944 159.348 209.226 161.5 207.562 163.266 C 207.128 163.727 206.604 164.066 205.984 164.237 C 204.663 164.601 203.581 164.107 203.018 162.862 C 202.655 162.059 202.514 161.211 202.575 160.608 Z M 204.602 160.232 C 204.602 160.52 204.586 160.809 204.606 161.095 C 204.635 161.53 204.667 162.041 205.097 162.226 C 205.615 162.448 206.006 162.05 206.322 161.683 C 207.124 160.752 207.573 159.651 207.835 158.461 C 207.969 157.847 208.095 157.239 207.961 156.609 C 207.823 155.95 207.509 155.411 206.792 155.32 C 206.151 155.238 205.876 155.76 205.641 156.236 C 205.017 157.493 204.567 158.802 204.602 160.232 Z M 156.122 156.084 C 157.176 156.314 158.25 156.521 159.309 156.787 C 160.514 157.09 160.92 157.546 160.698 158.239 C 160.502 158.855 159.992 158.993 158.848 158.73 C 157.58 158.439 156.313 158.151 155.012 158.037 C 154.677 158.008 154.34 157.948 154.017 157.855 C 152.747 157.489 152.452 156.514 153.405 155.609 C 154.59 154.481 155.856 153.436 157.094 152.362 C 157.749 151.794 158.443 151.269 159.072 150.674 C 159.522 150.251 160.158 149.623 159.683 149.091 C 159.127 148.47 158.615 149.267 158.147 149.615 C 157.993 149.73 157.871 149.888 157.713 149.995 C 157.309 150.271 156.897 150.274 156.52 149.945 C 156.186 149.655 156.115 149.239 156.295 148.888 C 156.854 147.793 157.809 147.143 158.981 146.886 C 159.936 146.677 160.828 146.903 161.396 147.784 C 162.026 148.762 161.994 149.789 161.464 150.806 C 161.079 151.546 160.518 152.139 159.88 152.664 C 158.801 153.553 157.719 154.437 156.648 155.336 C 156.437 155.514 156.15 155.651 156.122 156.084 Z M 272.315 139.901 C 273.336 140.095 274.209 140.094 275.019 140.442 C 276.492 141.078 277.041 142.099 276.723 143.674 C 276.409 145.234 275.095 146.495 273.715 146.559 C 272.184 146.631 270.745 145.578 270.331 143.95 C 269.686 141.409 270.099 138.967 271.361 136.705 C 272.035 135.497 273.115 134.801 274.593 134.99 C 275.192 135.067 275.704 135.329 276.019 135.858 C 276.284 136.302 276.327 136.788 275.948 137.194 C 275.618 137.549 275.231 137.551 274.77 137.343 C 273.783 136.897 273.458 137.013 272.951 137.919 C 272.624 138.503 272.399 139.13 272.315 139.901 Z M 273.037 142.014 C 272.191 142.033 271.997 142.272 272.155 143.004 C 272.214 143.282 272.298 143.567 272.434 143.812 C 272.708 144.306 273.125 144.61 273.726 144.506 C 274.227 144.419 274.776 143.694 274.799 143.113 C 274.827 142.401 274.293 142.278 273.767 142.16 C 273.488 142.096 273.208 142.047 273.037 142.014 Z M 237.259 114.843 C 237.611 115.213 238.049 115.092 238.387 115.275 C 238.817 115.507 239.064 115.84 238.969 116.323 C 238.889 116.729 238.604 116.992 238.179 117.065 C 238.084 117.082 237.979 117.113 237.892 117.089 C 236.329 116.659 235.91 117.75 235.48 118.868 C 235.221 119.541 234.916 120.199 234.591 120.844 C 234.322 121.38 233.863 121.647 233.277 121.39 C 232.683 121.13 232.589 120.607 232.809 120.053 C 233.195 119.077 233.62 118.116 234.034 117.135 C 233.461 116.687 232.862 116.903 232.307 116.858 C 231.679 116.807 231.142 116.647 231.084 115.905 C 231.04 115.346 231.463 114.985 232.256 114.9 C 232.928 114.827 233.605 114.845 234.274 114.957 C 234.782 115.042 235.099 114.852 235.271 114.362 C 235.541 113.589 235.844 112.829 236.121 112.058 C 236.285 111.596 236.156 111.311 235.615 111.306 C 234.989 111.299 234.363 111.289 233.735 111.271 C 233.351 111.26 232.961 111.262 232.583 111.201 C 232.056 111.117 231.663 110.805 231.675 110.246 C 231.687 109.626 232.097 109.309 232.708 109.255 C 232.803 109.246 232.9 109.242 232.997 109.245 C 234.394 109.29 235.795 109.285 237.187 109.396 C 238.49 109.501 238.874 110.115 238.479 111.354 C 238.101 112.537 237.661 113.701 237.259 114.843 Z M 246.646 71.405 C 247.753 71.437 247.789 71.424 247.987 70.381 C 248.194 69.293 248.365 68.197 248.554 67.105 C 248.604 66.821 248.627 66.525 248.727 66.259 C 248.916 65.757 249.287 65.458 249.847 65.567 C 250.332 65.662 250.584 66.016 250.596 66.501 C 250.603 66.835 250.57 67.176 250.513 67.507 C 249.973 70.641 249.425 73.773 248.878 76.906 C 248.853 77.048 248.841 77.195 248.799 77.332 C 248.627 77.873 248.356 78.317 247.692 78.259 C 247.124 78.209 246.795 77.74 246.866 76.962 C 246.94 76.147 247.105 75.342 247.22 74.531 C 247.366 73.485 247.362 73.465 246.248 73.398 C 245.568 73.358 244.904 73.242 244.263 73.029 C 243.252 72.693 242.862 72.181 242.83 71.111 C 242.781 69.508 243.119 67.947 243.429 66.388 C 243.542 65.82 243.9 65.431 244.552 65.492 C 245.138 65.548 245.46 66.018 245.363 66.788 C 245.236 67.792 245.013 68.783 244.889 69.787 C 244.72 71.142 244.838 71.259 246.214 71.377 C 246.357 71.39 246.502 71.397 246.646 71.405 Z M 266.368 97.881 C 267.429 97.936 268.292 97.971 269.153 98.032 C 269.535 98.058 269.92 98.111 270.293 98.194 C 270.816 98.311 271.168 98.631 271.127 99.201 C 271.086 99.774 270.694 100.02 270.152 100.059 C 270.008 100.069 269.863 100.066 269.72 100.059 C 268.184 99.978 266.649 99.927 265.108 99.975 C 263.73 100.018 263.197 99.123 263.802 97.884 C 264.227 97.01 264.875 96.295 265.555 95.61 C 266.268 94.895 266.993 94.186 267.565 93.349 C 268.002 92.709 268.357 92.02 268.403 91.229 C 268.427 90.832 268.275 90.466 267.893 90.264 C 267.485 90.047 267.131 90.231 266.846 90.502 C 266.606 90.73 266.428 91.023 266.224 91.289 C 265.905 91.704 265.521 91.969 264.988 91.703 C 264.401 91.409 264.373 90.892 264.532 90.341 C 264.899 89.074 266.615 87.98 267.932 88.162 C 269.257 88.344 270.306 89.53 270.397 90.961 C 270.441 91.645 270.289 92.292 270.036 92.928 C 269.529 94.206 268.688 95.244 267.752 96.223 C 267.3 96.696 266.749 97.094 266.368 97.881 Z M 187.478 137.756 C 188.552 137.902 189.494 138.031 190.437 138.156 C 191.073 138.241 191.557 138.506 191.558 139.227 C 191.559 139.828 190.993 140.207 190.171 140.126 C 188.737 139.987 187.303 139.826 185.873 139.637 C 184.635 139.473 184.259 138.685 184.903 137.581 C 185.415 136.703 186.096 135.96 186.863 135.286 C 187.765 134.492 188.646 133.672 189.507 132.832 C 189.955 132.395 190.341 131.885 190.408 131.228 C 190.448 130.85 190.504 130.426 190.102 130.191 C 189.754 129.989 189.438 130.232 189.174 130.409 C 188.901 130.591 188.684 130.862 188.459 131.109 C 188.298 131.285 188.188 131.513 188.012 131.671 C 187.651 131.997 187.224 132.048 186.819 131.772 C 186.414 131.497 186.329 131.091 186.468 130.624 C 186.88 129.242 188.903 127.903 190.328 128.09 C 191.157 128.199 191.751 128.658 192.093 129.413 C 192.728 130.818 192.487 132.134 191.636 133.371 C 190.835 134.534 189.721 135.392 188.707 136.348 C 188.298 136.735 187.744 136.993 187.478 137.756 Z M 226.442 76.799 C 225.674 76.774 224.748 76.561 224.006 75.861 C 223.445 75.333 223.334 74.769 223.699 74.332 C 224.172 73.766 224.702 73.871 225.222 74.277 C 226.26 75.088 227.291 74.904 228.284 74.218 C 229.217 73.576 229.27 72.567 228.452 71.769 C 228.06 71.389 227.585 71.173 227.053 71.072 C 226.723 71.008 226.386 70.97 226.067 70.872 C 225.623 70.735 225.294 70.439 225.256 69.958 C 225.219 69.471 225.502 69.147 225.935 68.955 C 226.243 68.819 226.556 68.697 226.866 68.565 C 227.314 68.374 227.726 68.128 228.031 67.739 C 228.24 67.472 228.472 67.185 228.255 66.831 C 228.041 66.483 227.707 66.503 227.365 66.636 C 227.052 66.756 226.744 66.91 226.419 66.978 C 225.948 67.077 225.569 66.899 225.35 66.447 C 225.154 66.043 225.291 65.695 225.557 65.386 C 226.336 64.484 228.274 64.277 229.285 64.983 C 230.432 65.785 230.716 67.169 229.984 68.428 C 229.864 68.635 229.736 68.849 229.567 69.013 C 229.127 69.44 229.169 69.721 229.636 70.165 C 231.025 71.486 231.367 72.91 230.76 74.304 C 230.144 75.715 228.373 76.793 226.442 76.799 Z M 213.351 116.02 C 213.482 114.355 213.884 112.73 214.865 111.303 C 215.545 110.315 216.496 109.685 217.67 109.395 C 218.411 109.212 219.112 109.332 219.757 109.705 C 220.249 109.99 220.572 110.415 220.321 111.024 C 220.099 111.565 219.649 111.631 219.12 111.549 C 217.556 111.305 216.799 111.699 216.143 113.063 C 215.766 113.845 215.797 113.97 216.629 114.113 C 217.403 114.247 218.125 114.483 218.765 114.932 C 220.233 115.959 220.403 117.746 219.175 119.053 C 217.418 120.921 214.818 120.426 213.776 118.029 C 213.503 117.4 213.421 116.734 213.351 116.02 Z M 217.926 117.086 C 217.897 116.996 217.883 116.899 217.837 116.817 C 217.604 116.401 216.008 115.84 215.617 116.054 C 215.515 116.11 215.403 116.286 215.415 116.395 C 215.478 117.029 215.656 117.617 216.221 118.01 C 216.658 118.314 217.047 118.12 217.423 117.894 C 217.721 117.716 217.948 117.473 217.926 117.086 Z M 195.627 138.401 C 196.851 138.476 197.758 138.504 198.636 138.718 C 199.428 138.912 199.759 139.276 199.675 139.847 C 199.593 140.404 199.104 140.78 198.358 140.661 C 197.016 140.446 195.67 140.49 194.323 140.436 C 192.975 140.381 192.528 139.554 193.194 138.381 C 193.743 137.412 194.506 136.599 195.287 135.81 C 195.93 135.158 196.546 134.483 197.038 133.702 C 197.374 133.169 197.637 132.608 197.768 131.985 C 197.873 131.49 197.944 130.97 197.42 130.713 C 196.96 130.486 196.603 130.855 196.292 131.159 C 196.053 131.395 195.863 131.684 195.615 131.908 C 195.254 132.235 194.818 132.277 194.421 132.002 C 194.023 131.725 193.942 131.321 194.095 130.85 C 194.529 129.518 196.469 128.362 197.803 128.658 C 199.194 128.966 200.006 130.364 199.78 132.047 C 199.565 133.643 198.728 134.924 197.714 136.107 C 197.122 136.799 196.49 137.455 195.627 138.401 Z M 194.832 113.237 C 193.417 113.261 193.068 112.86 193.382 111.55 C 193.627 110.522 193.886 109.496 194.17 108.478 C 194.467 107.418 194.835 107.149 195.924 107.197 C 197.128 107.25 198.315 107.426 199.488 107.71 C 200.1 107.858 200.595 108.115 200.521 108.856 C 200.459 109.459 199.936 109.735 199.064 109.623 C 198.302 109.526 197.542 109.405 196.785 109.269 C 195.87 109.104 195.973 109.843 195.782 110.345 C 195.565 110.912 195.72 111.154 196.317 111.385 C 198.388 112.184 199.261 113.409 199.192 115.222 C 199.139 116.615 198.429 117.576 197.195 118.151 C 195.847 118.781 194.495 118.781 193.192 118.014 C 192.777 117.77 192.603 117.365 192.774 116.898 C 192.966 116.371 193.394 116.182 193.928 116.277 C 194.258 116.335 194.571 116.483 194.901 116.534 C 196.129 116.724 197.131 116.107 197.192 115.146 C 197.258 114.131 196.433 113.315 195.264 113.238 C 195.12 113.228 194.977 113.237 194.832 113.237 Z M 236.499 138.282 C 237.034 138.408 237.169 138.012 237.256 137.548 C 237.452 136.508 237.658 135.47 237.851 134.43 C 237.913 134.099 237.939 133.761 238.132 133.47 C 238.366 133.117 238.687 132.923 239.111 133.01 C 239.526 133.094 239.817 133.372 239.857 133.789 C 239.892 134.164 239.852 134.557 239.784 134.93 C 239.244 137.912 238.692 140.891 238.136 143.87 C 238.067 144.248 237.983 144.628 237.852 144.987 C 237.667 145.494 237.293 145.782 236.733 145.662 C 236.166 145.54 235.961 145.092 235.995 144.575 C 236.029 144.05 236.156 143.53 236.251 143.01 C 236.37 142.347 236.491 141.685 236.625 141.024 C 236.723 140.544 236.542 140.294 236.054 140.245 C 235.284 140.166 234.532 140.005 233.816 139.714 C 232.602 139.219 232.215 138.621 232.431 137.368 C 232.635 136.184 232.917 135.012 233.217 133.848 C 233.412 133.086 233.87 132.778 234.43 132.944 C 235.064 133.131 235.206 133.646 235.12 134.204 C 234.989 135.058 234.852 135.922 234.596 136.745 C 234.24 137.886 234.598 137.898 235.428 138.118 C 235.751 138.203 236.093 138.222 236.499 138.282 Z M 165.465 134.742 C 166.632 135.056 167.512 135.233 168.415 135.325 C 168.796 135.364 169.182 135.42 169.546 135.532 C 170.021 135.679 170.236 136.055 170.177 136.541 C 170.118 137.044 169.783 137.305 169.296 137.334 C 168.914 137.357 168.522 137.355 168.142 137.309 C 166.705 137.134 165.287 136.849 163.894 136.467 C 162.556 136.098 162.333 135.32 163.191 134.235 C 163.734 133.55 164.401 132.998 165.07 132.443 C 165.812 131.829 166.54 131.197 167.247 130.543 C 167.709 130.116 168.092 129.607 168.326 129.019 C 168.507 128.563 168.594 128.048 168.192 127.666 C 167.775 127.27 167.3 127.436 166.863 127.697 C 166.698 127.796 166.542 127.909 166.379 128.012 C 165.912 128.303 165.435 128.316 165.08 127.88 C 164.734 127.457 164.815 126.984 165.138 126.55 C 165.736 125.745 167.374 125.22 168.427 125.501 C 169.552 125.802 170.358 126.82 170.455 128.042 C 170.527 128.945 170.282 129.759 169.801 130.512 C 169.17 131.496 168.366 132.323 167.474 133.067 C 166.887 133.558 166.299 134.048 165.465 134.742 Z M 290.149 117.273 C 290.195 115.576 290.504 113.927 291.007 112.318 C 291.536 110.626 293.073 110.089 294.514 111.102 C 295.405 111.727 296.045 112.563 296.151 113.7 C 296.337 115.7 296.064 117.627 295.2 119.453 C 295.139 119.583 295.066 119.709 294.992 119.832 C 294.216 121.112 293.291 121.638 292.194 121.428 C 291.169 121.233 290.442 120.283 290.258 118.852 C 290.191 118.33 290.183 117.799 290.149 117.273 Z M 292.144 117.539 C 292.169 117.786 292.197 118.215 292.258 118.641 C 292.298 118.912 292.294 119.267 292.668 119.3 C 293.002 119.331 293.16 119.031 293.289 118.783 C 294.065 117.3 294.311 115.71 294.19 114.056 C 294.161 113.669 293.989 113.324 293.708 113.038 C 293.288 112.611 293.019 112.662 292.824 113.26 C 292.392 114.589 292.229 115.965 292.144 117.539 Z M 288.652 92.902 C 289.066 93.222 289.424 93.465 289.743 93.753 C 291.21 95.078 291.183 97.121 289.675 98.419 C 288.416 99.504 286.871 99.603 285.324 99.553 C 284.609 99.529 284.154 98.981 284.241 98.449 C 284.346 97.806 284.811 97.639 285.398 97.606 C 286.021 97.572 286.648 97.516 287.259 97.401 C 288.181 97.226 288.755 96.709 288.796 96.102 C 288.836 95.515 288.317 95.003 287.385 94.665 C 286.968 94.513 286.54 94.499 286.11 94.474 C 285.77 94.454 285.439 94.422 285.131 94.261 C 284.288 93.826 284.21 92.95 285.015 92.454 C 285.459 92.179 285.983 92.033 286.456 91.802 C 286.8 91.634 287.138 91.442 287.45 91.22 C 287.725 91.024 287.985 90.769 287.908 90.385 C 287.814 89.911 287.413 89.844 287.023 89.811 C 286.688 89.781 286.348 89.809 286.015 89.771 C 285.264 89.687 284.802 89.283 284.869 88.741 C 284.946 88.121 285.362 87.833 285.962 87.808 C 286.393 87.791 286.828 87.777 287.258 87.814 C 288.388 87.907 289.294 88.38 289.766 89.468 C 290.243 90.575 289.921 91.53 289.142 92.377 C 289.012 92.518 288.88 92.657 288.652 92.902 Z M 221.815 159.613 C 222.052 159.923 222.329 160.248 222.564 160.6 C 223.421 161.891 223.424 163.761 222.587 164.965 C 221.62 166.357 219.663 167.17 218.161 166.79 C 217.738 166.683 217.34 166.498 217.009 166.21 C 216.65 165.899 216.504 165.506 216.713 165.047 C 216.923 164.583 217.32 164.443 217.788 164.529 C 218.068 164.581 218.327 164.745 218.607 164.797 C 220.225 165.101 221.54 163.742 221.12 162.222 C 220.917 161.489 220.425 161.113 219.698 160.96 C 219.108 160.837 218.57 160.583 218.519 159.88 C 218.474 159.251 218.952 158.968 219.403 158.671 C 219.884 158.353 220.369 158.031 220.807 157.658 C 221.233 157.294 221.713 156.935 221.728 156.211 C 221.166 156.104 220.885 156.604 220.473 156.768 C 220.003 156.955 219.621 156.858 219.315 156.478 C 219.041 156.137 219.076 155.775 219.284 155.403 C 219.845 154.403 221.83 153.711 222.863 154.164 C 223.649 154.509 224.083 155.382 223.896 156.334 C 223.715 157.254 223.259 158.039 222.618 158.722 C 222.36 158.998 221.982 159.163 221.815 159.613 Z M 227.309 142.192 C 228.044 142.31 228.76 142.404 229.467 142.541 C 230.33 142.707 230.734 143.141 230.629 143.729 C 230.526 144.308 230.01 144.646 229.147 144.498 C 227.861 144.277 226.563 144.231 225.274 144.072 C 224.734 144.005 224.214 143.869 224.008 143.278 C 223.805 142.697 224.093 142.263 224.476 141.859 C 225.707 140.572 226.936 139.283 228.155 137.984 C 228.65 137.455 229.071 136.87 229.315 136.174 C 229.504 135.638 229.542 135.097 229.067 134.717 C 228.545 134.299 228.069 134.656 227.628 134.951 C 227.47 135.057 227.345 135.212 227.199 135.336 C 226.731 135.725 226.236 135.797 225.787 135.339 C 225.382 134.926 225.498 134.458 225.767 134.012 C 226.437 132.901 228.372 132.232 229.597 132.686 C 230.842 133.149 231.619 134.519 231.421 135.958 C 231.257 137.143 230.667 138.135 229.892 139.014 C 229.127 139.88 228.322 140.709 227.54 141.559 C 227.415 141.695 227.252 141.822 227.309 142.192 Z M 228.453 93.969 C 228.587 92.879 228.53 91.666 228.907 90.504 C 229.373 89.072 230.358 88.207 231.544 88.224 C 232.714 88.241 234.061 89.271 234.317 90.59 C 234.823 93.21 234.348 95.665 232.644 97.783 C 232.041 98.532 231.221 98.944 230.217 98.666 C 229.212 98.387 228.777 97.604 228.6 96.651 C 228.442 95.798 228.368 94.937 228.453 93.969 Z M 230.683 96.687 C 230.983 96.517 231.142 96.478 231.217 96.378 C 232.31 94.916 232.62 93.251 232.458 91.472 C 232.43 91.187 232.355 90.91 232.16 90.674 C 231.728 90.153 231.136 90.206 230.985 90.862 C 230.558 92.725 230.146 94.603 230.683 96.687 Z M 217.14 133.705 C 216.434 133.573 216.129 134.07 215.727 134.373 C 215.292 134.699 214.847 134.777 214.427 134.367 C 214.016 133.966 214.026 133.477 214.338 133.055 C 215.068 132.067 216.083 131.537 217.312 131.574 C 218.262 131.601 218.963 132.331 219.135 133.331 C 219.299 134.274 219.086 135.151 218.578 135.952 C 218.321 136.356 218.026 136.738 217.736 137.147 C 217.812 137.256 217.873 137.389 217.973 137.479 C 219.357 138.712 219.703 139.948 219.073 141.438 C 218.499 142.797 217.048 143.665 215.449 143.556 C 214.828 143.513 214.211 143.39 213.642 143.092 C 213.113 142.816 212.788 142.416 213.002 141.814 C 213.214 141.214 213.695 141.08 214.291 141.25 C 214.797 141.394 215.289 141.613 215.838 141.544 C 216.718 141.434 217.254 140.968 217.328 140.233 C 217.4 139.503 216.946 138.999 216.003 138.816 C 215.676 138.753 215.33 138.787 214.998 138.742 C 214.584 138.685 214.279 138.453 214.17 138.04 C 214.062 137.631 214.188 137.268 214.527 137.015 C 214.951 136.699 215.429 136.451 215.822 136.103 C 216.532 135.473 217.243 134.816 217.14 133.705 Z M 267.107 75.286 C 267.087 77.288 265.694 78.629 263.693 78.564 C 262.913 78.538 262.172 78.338 261.476 77.99 C 260.957 77.73 260.595 77.33 260.83 76.719 C 261.056 76.134 261.54 75.996 262.135 76.162 C 262.643 76.304 263.124 76.54 263.668 76.549 C 264.489 76.563 264.914 76.283 265.062 75.603 C 265.208 74.93 264.958 74.346 264.292 74.07 C 263.811 73.873 263.278 73.785 262.761 73.689 C 261.505 73.456 261.237 73.057 261.584 71.799 C 261.853 70.826 262.149 69.86 262.452 68.897 C 262.821 67.732 263.32 67.327 264.547 67.315 C 265.657 67.304 266.74 67.57 267.821 67.805 C 268.418 67.936 268.765 68.324 268.654 68.949 C 268.537 69.6 268.025 69.762 267.446 69.694 C 266.731 69.608 266.018 69.487 265.309 69.359 C 264.686 69.247 264.267 69.403 264.184 70.1 C 264.168 70.242 264.1 70.376 264.059 70.514 C 263.715 71.668 263.715 71.668 264.824 72.119 C 266.333 72.733 267.122 73.827 267.107 75.286 Z M 177.503 158.323 C 178.393 158.729 179.279 158.746 180.112 158.98 C 180.342 159.045 180.592 159.051 180.816 159.131 C 181.316 159.312 181.647 159.651 181.549 160.221 C 181.453 160.776 181.057 161.091 180.517 161.018 C 178.801 160.787 177.073 160.54 175.457 159.899 C 174.536 159.534 174.437 158.607 175.15 157.744 C 175.954 156.77 176.932 155.987 178.022 155.346 C 178.687 154.956 179.362 154.581 179.926 154.042 C 180.358 153.631 180.69 153.157 180.758 152.559 C 180.839 151.836 180.335 151.484 179.665 151.788 C 179.362 151.925 179.109 152.172 178.806 152.313 C 178.328 152.538 177.844 152.527 177.521 152.048 C 177.249 151.647 177.327 151.229 177.613 150.842 C 178.331 149.861 180.066 149.335 181.125 149.786 C 182.27 150.273 182.931 151.539 182.736 152.886 C 182.576 153.988 182.021 154.886 181.186 155.584 C 180.598 156.076 179.936 156.481 179.296 156.909 C 178.701 157.306 178.028 157.598 177.503 158.323 Z M 175.425 105.946 C 175.272 106.707 175.065 107.745 174.858 108.781 C 174.746 109.341 174.707 109.801 175.497 109.919 C 176.66 110.093 176.955 110.02 177.144 109.186 C 177.357 108.249 177.513 107.299 177.716 106.36 C 177.796 105.989 177.894 105.608 178.064 105.271 C 178.258 104.884 178.643 104.787 179.055 104.874 C 179.417 104.95 179.639 105.189 179.727 105.548 C 179.846 106.031 179.735 106.507 179.642 106.976 C 179.087 109.755 178.527 112.534 177.956 115.312 C 177.706 116.529 177.296 116.95 176.589 116.781 C 175.952 116.63 175.778 116.118 175.978 114.96 C 176.02 114.724 176.11 114.495 176.14 114.258 C 176.224 113.594 176.702 112.882 176.43 112.305 C 176.115 111.635 175.221 111.98 174.598 111.805 C 173.156 111.402 172.589 110.669 172.794 109.165 C 172.968 107.882 173.252 106.613 173.503 105.341 C 173.626 104.717 173.925 104.244 174.661 104.327 C 175.214 104.388 175.464 104.848 175.425 105.946 Z M 285.768 119.327 C 286.8 119.382 287.425 119.401 288.047 119.454 C 288.426 119.486 288.819 119.526 289.176 119.647 C 289.683 119.817 289.976 120.202 289.862 120.758 C 289.762 121.245 289.4 121.472 288.913 121.481 C 288.673 121.487 288.433 121.456 288.192 121.452 C 286.942 121.429 285.693 121.297 284.44 121.413 C 283.802 121.472 283.144 121.454 282.811 120.774 C 282.476 120.09 282.897 119.559 283.311 119.09 C 284.043 118.26 284.811 117.461 285.573 116.66 C 286.212 115.99 286.781 115.27 287.034 114.37 C 287.189 113.82 287.324 113.178 286.751 112.779 C 286.199 112.397 285.661 112.654 285.158 113.005 C 284.221 113.662 283.784 113.714 283.423 113.257 C 282.993 112.713 283.261 111.914 284.081 111.301 C 285.178 110.482 286.74 110.326 287.748 110.976 C 288.937 111.744 289.304 112.889 289.112 114.235 C 288.906 115.675 288.128 116.825 287.165 117.866 C 286.784 118.278 286.391 118.677 285.768 119.327 Z M 207.643 140.143 C 208.728 140.284 209.489 140.379 210.25 140.484 C 210.531 140.524 210.828 140.547 211.09 140.65 C 211.523 140.82 211.827 141.146 211.767 141.642 C 211.701 142.192 211.341 142.513 210.787 142.5 C 210.166 142.486 209.541 142.418 208.924 142.337 C 207.923 142.205 206.916 142.095 205.93 141.886 C 204.538 141.59 204.224 140.594 205.221 139.597 C 206.17 138.645 207.214 137.787 208.198 136.866 C 208.903 136.207 209.559 135.5 209.924 134.583 C 210.084 134.183 210.281 133.731 209.889 133.381 C 209.55 133.079 209.165 133.278 208.817 133.459 C 208.775 133.482 208.732 133.505 208.691 133.531 C 208.118 133.892 207.537 134.116 207.053 133.427 C 206.686 132.903 206.972 132.265 207.739 131.774 C 208.885 131.041 210.211 131.016 211.119 131.71 C 212.097 132.46 212.352 133.517 211.903 134.97 C 211.525 136.204 210.732 137.166 209.836 138.051 C 209.194 138.685 208.532 139.297 207.643 140.143 Z M 254.287 134.106 C 254.894 134.208 255.848 134.341 256.79 134.533 C 257.359 134.65 257.783 135.001 257.689 135.644 C 257.598 136.275 257.128 136.512 256.526 136.463 C 256.096 136.427 255.67 136.338 255.241 136.281 C 254.829 136.227 254.32 135.932 254.036 136.365 C 253.699 136.88 253.555 137.515 253.536 138.145 C 253.526 138.46 253.846 138.456 254.064 138.524 C 255.886 139.096 256.793 140.387 256.506 142.238 C 256.218 144.1 254.724 145.625 252.9 145.891 C 252.401 145.963 251.938 145.86 251.492 145.67 C 250.993 145.457 250.732 145.07 250.847 144.52 C 250.967 143.951 251.395 143.706 251.922 143.803 C 252.421 143.894 252.872 143.894 253.317 143.652 C 253.944 143.31 254.352 142.804 254.503 142.096 C 254.687 141.232 254.348 140.673 253.508 140.489 C 253.368 140.458 253.221 140.462 253.076 140.453 C 251.018 140.317 250.829 140.045 251.391 138.084 C 251.644 137.205 251.861 136.316 252.104 135.434 C 252.441 134.211 252.646 134.065 254.287 134.106 Z M 264.506 143.658 C 265.363 143.761 266.109 143.857 266.857 143.937 C 267.24 143.979 267.622 143.995 267.962 144.216 C 268.274 144.418 268.434 144.701 268.413 145.058 C 268.387 145.482 268.146 145.783 267.741 145.902 C 267.518 145.969 267.264 145.983 267.031 145.956 C 265.596 145.792 264.16 145.73 262.715 145.712 C 261.449 145.695 261.033 144.836 261.709 143.755 C 262.22 142.939 262.887 142.24 263.55 141.542 C 264.179 140.879 264.794 140.204 265.389 139.512 C 265.802 139.032 266.081 138.471 266.147 137.827 C 266.182 137.479 266.125 137.153 265.818 136.927 C 265.481 136.677 265.174 136.842 264.886 137.021 C 264.643 137.173 264.436 137.39 264.185 137.525 C 263.774 137.744 263.346 137.767 262.99 137.408 C 262.635 137.05 262.665 136.621 262.873 136.208 C 263.298 135.365 264.842 134.652 265.859 134.808 C 267.033 134.989 267.868 135.785 268.076 136.96 C 268.27 138.048 268.029 139.056 267.469 140.001 C 266.95 140.88 266.251 141.607 265.554 142.337 C 265.198 142.709 264.777 143.031 264.506 143.658 Z M 200.241 154.65 C 199.666 154.537 199.507 154.897 199.249 155.081 C 198.809 155.395 198.344 155.459 197.938 155.069 C 197.532 154.679 197.55 154.194 197.865 153.758 C 198.528 152.84 199.446 152.337 200.577 152.382 C 201.658 152.425 202.421 153.575 202.26 154.819 C 202.137 155.775 201.616 156.536 200.921 157.146 C 200.396 157.605 200.293 157.933 200.723 158.561 C 201.49 159.678 201.511 160.904 200.836 162.107 C 199.792 163.965 197.235 164.248 195.805 162.666 C 195.427 162.246 195.156 161.805 195.536 161.252 C 195.869 160.767 196.353 160.744 197.049 161.158 C 197.09 161.182 197.122 161.222 197.164 161.246 C 198.063 161.793 198.665 161.776 199.057 161.196 C 199.508 160.529 199.269 159.589 198.513 159.054 C 196.86 157.887 196.863 157.632 198.565 156.488 C 199.245 156.032 199.895 155.554 200.241 154.65 Z M 246.275 142.879 C 246.921 143.174 247.463 143.041 247.972 143.147 C 248.347 143.225 248.736 143.268 249.093 143.399 C 249.548 143.566 249.78 143.94 249.689 144.426 C 249.612 144.837 249.337 145.142 248.902 145.15 C 247.357 145.177 245.805 145.145 244.371 144.487 C 243.554 144.114 243.391 143.369 243.955 142.556 C 244.638 141.568 245.417 140.647 246.151 139.694 C 246.561 139.161 246.985 138.636 247.359 138.078 C 247.629 137.676 247.783 137.215 247.763 136.714 C 247.735 136.017 247.454 135.832 246.854 136.136 C 246.684 136.221 246.542 136.359 246.384 136.469 C 245.921 136.789 245.475 136.779 245.096 136.347 C 244.716 135.915 244.805 135.469 245.114 135.03 C 245.635 134.289 246.919 133.775 247.799 133.963 C 248.802 134.178 249.568 134.992 249.736 136.052 C 249.884 136.985 249.709 137.869 249.29 138.713 C 248.879 139.541 248.31 140.255 247.703 140.941 C 247.197 141.515 246.684 142.082 246.275 142.879 Z M 296.85 137.065 C 296.076 136.853 295.26 136.951 294.458 136.899 C 294.17 136.881 293.875 136.924 293.594 136.881 C 293.074 136.799 292.665 136.524 292.646 135.96 C 292.626 135.406 292.972 135.029 293.51 134.98 C 295.095 134.833 296.688 134.878 298.262 135.06 C 298.952 135.141 299.293 135.768 299.209 136.473 C 299.148 136.992 299 137.51 298.822 138.004 C 297.746 140.992 296.464 143.897 295.144 146.785 C 294.673 147.818 294.155 148.119 293.556 147.822 C 292.953 147.521 292.899 146.993 293.351 145.932 C 294.408 143.455 295.47 140.98 296.505 138.495 C 296.685 138.065 296.977 137.643 296.85 137.065 Z M 175.995 127.112 C 175.959 127.272 175.91 127.557 175.829 127.832 C 174.981 130.692 174.154 133.555 173.56 136.482 C 173.328 137.624 172.928 138.005 172.268 137.908 C 171.563 137.805 171.366 137.262 171.614 136.015 C 172.222 132.944 173.126 129.949 173.995 126.946 C 174.035 126.809 174.094 126.675 174.152 126.544 C 174.37 126.052 174.731 125.751 175.285 125.887 C 175.833 126.021 176.037 126.441 175.995 127.112 Z M 224.813 165.897 C 224.977 165.211 225.198 164.326 225.399 163.437 C 225.886 161.282 226.367 159.124 226.842 156.966 C 226.925 156.589 226.977 156.205 227.197 155.878 C 227.458 155.491 227.806 155.255 228.294 155.398 C 228.773 155.541 228.985 155.896 228.964 156.383 C 228.953 156.622 228.914 156.862 228.861 157.096 C 228.205 160.001 227.545 162.905 226.882 165.809 C 226.829 166.042 226.76 166.274 226.675 166.497 C 226.464 167.051 226.1 167.406 225.467 167.234 C 224.906 167.083 224.76 166.637 224.813 165.897 Z M 171.502 105.624 C 171.288 108.26 170.661 110.836 170.329 113.455 C 170.274 113.884 170.22 114.312 170.158 114.74 C 170.067 115.369 169.798 115.857 169.079 115.851 C 168.488 115.847 168.101 115.287 168.189 114.461 C 168.318 113.269 168.523 112.084 168.701 110.897 C 168.944 109.284 169.192 107.672 169.438 106.06 C 169.474 105.822 169.51 105.584 169.546 105.347 C 169.638 104.719 169.889 104.226 170.622 104.243 C 171.243 104.257 171.566 104.779 171.502 105.624 Z M 230.182 111.528 C 229.872 114.135 229.538 117.043 229.171 119.947 C 229.065 120.792 228.594 121.218 227.992 121.097 C 227.266 120.949 227.128 120.389 227.195 119.774 C 227.402 117.866 227.638 115.961 227.862 114.055 C 227.976 113.102 228.087 112.148 228.206 111.197 C 228.241 110.912 228.266 110.618 228.355 110.349 C 228.507 109.895 228.852 109.624 229.335 109.666 C 229.818 109.708 230.117 110.017 230.177 110.507 C 230.206 110.743 230.182 110.984 230.182 111.528 Z M 243.702 120.241 C 244.036 118.045 244.361 115.909 244.686 113.774 C 244.809 112.966 244.921 112.158 245.065 111.355 C 245.168 110.778 245.472 110.372 246.125 110.404 C 246.704 110.433 247.051 110.889 246.974 111.671 C 246.846 112.961 246.658 114.246 246.466 115.528 C 246.239 117.048 245.979 118.562 245.735 120.08 C 245.713 120.221 245.705 120.367 245.684 120.508 C 245.581 121.141 245.289 121.615 244.578 121.596 C 243.988 121.581 243.664 121.014 243.702 120.241 Z M 262.526 90.19 C 262.19 92.128 261.828 94.215 261.465 96.302 C 261.325 97.108 261.208 97.92 261.027 98.717 C 260.85 99.499 260.445 99.815 259.867 99.726 C 259.296 99.638 258.948 99.156 259.074 98.406 C 259.569 95.463 260.085 92.523 260.638 89.591 C 260.784 88.816 261.26 88.506 261.831 88.652 C 262.481 88.819 262.579 89.325 262.551 89.894 C 262.549 89.942 262.544 89.99 262.526 90.19 Z M 280.379 96.321 C 280.513 94.312 280.641 92.304 280.785 90.296 C 280.819 89.821 280.871 89.339 280.985 88.877 C 281.1 88.405 281.465 88.148 281.95 88.195 C 282.431 88.243 282.731 88.558 282.788 89.04 C 282.828 89.37 282.825 89.711 282.801 90.043 C 282.615 92.625 282.419 95.206 282.223 97.786 C 282.205 98.024 282.181 98.267 282.117 98.496 C 281.984 98.961 281.653 99.245 281.174 99.233 C 280.617 99.221 280.263 98.859 280.242 98.324 C 280.215 97.657 280.302 96.987 280.34 96.319 C 280.353 96.319 280.366 96.32 280.379 96.321 Z M 265.267 112.049 C 264.895 114.719 264.528 117.39 264.142 120.058 C 264.101 120.335 263.984 120.618 263.838 120.86 C 263.652 121.168 263.326 121.326 262.973 121.266 C 262.57 121.199 262.23 120.964 262.193 120.528 C 262.156 120.101 262.184 119.663 262.242 119.237 C 262.57 116.803 262.918 114.373 263.257 111.942 C 263.27 111.846 263.275 111.749 263.284 111.653 C 263.337 111.003 263.616 110.528 264.325 110.504 C 264.871 110.485 265.219 110.995 265.249 111.755 C 265.252 111.851 265.238 111.948 265.232 112.043 Z M 248.583 89.144 C 248.304 91.785 248.033 94.371 247.75 96.955 C 247.719 97.236 247.667 97.54 247.529 97.778 C 247.14 98.446 246.263 98.4 245.895 97.718 C 245.699 97.356 245.746 96.975 245.786 96.59 C 246.054 94.053 246.318 91.516 246.584 88.979 C 246.604 88.788 246.61 88.592 246.658 88.408 C 246.805 87.847 247.098 87.417 247.754 87.487 C 248.414 87.559 248.602 88.037 248.605 88.624 C 248.606 88.816 248.59 89.008 248.583 89.144 Z M 241.027 95.784 C 241.241 93.533 241.454 91.282 241.668 89.031 C 241.687 88.841 241.688 88.642 241.742 88.461 C 241.891 87.96 242.193 87.576 242.759 87.617 C 243.313 87.657 243.614 88.034 243.652 88.577 C 243.678 88.96 243.678 89.351 243.626 89.729 C 243.33 91.877 243.192 94.038 243.047 96.198 C 243.021 96.581 242.957 96.964 242.877 97.339 C 242.763 97.866 242.445 98.228 241.879 98.188 C 241.23 98.142 240.993 97.675 240.99 97.084 C 240.989 96.653 241.038 96.22 241.064 95.787 Z M 224.503 95.994 C 224.63 93.757 224.889 91.801 225.179 89.849 C 225.242 89.426 225.358 88.999 225.532 88.609 C 225.702 88.224 226.074 88.068 226.496 88.139 C 226.924 88.212 227.191 88.491 227.229 88.916 C 227.258 89.246 227.233 89.589 227.181 89.919 C 226.804 92.298 226.601 94.697 226.392 97.094 C 226.375 97.285 226.355 97.478 226.33 97.668 C 226.251 98.266 225.94 98.662 225.313 98.682 C 224.753 98.701 224.364 98.201 224.376 97.456 C 224.385 96.88 224.474 96.306 224.503 95.994 Z M 208.949 118.342 C 209.44 115.907 209.971 113.219 210.531 110.538 C 210.659 109.931 211.005 109.425 211.73 109.571 C 212.46 109.717 212.562 110.315 212.446 110.927 C 212.019 113.193 211.564 115.456 211.119 117.719 C 211.036 118.144 210.981 118.576 210.859 118.989 C 210.631 119.764 210.22 120.09 209.651 119.955 C 208.915 119.782 208.862 119.214 208.949 118.342 Z M 188.153 70.464 C 188.27 69.94 188.395 69.326 188.544 68.719 C 188.969 66.99 189.402 65.264 189.836 63.537 C 189.954 63.07 190.065 62.59 190.39 62.218 C 190.656 61.911 190.998 61.742 191.42 61.909 C 191.819 62.067 192.03 62.377 192.054 62.793 C 192.064 62.978 192.002 63.171 191.956 63.356 C 191.356 65.785 190.753 68.213 190.149 70.642 C 190.127 70.736 190.114 70.832 190.083 70.923 C 189.897 71.48 189.55 71.881 188.921 71.755 C 188.301 71.631 188.094 71.153 188.153 70.464 Z M 191.592 109.504 C 191.278 111.543 190.915 113.916 190.544 116.288 C 190.507 116.524 190.459 116.768 190.356 116.98 C 190.151 117.401 189.817 117.668 189.318 117.571 C 188.825 117.476 188.558 117.117 188.565 116.648 C 188.575 116.027 188.659 115.405 188.748 114.788 C 189.025 112.887 189.318 110.989 189.605 109.09 C 189.612 109.042 189.617 108.994 189.625 108.947 C 189.819 107.843 190.212 107.399 190.878 107.522 C 191.483 107.635 191.695 108.109 191.592 109.504 Z" style="fill-rule:nonzero;"/>
    </g>
    <g transform="matrix(1.000003, 0, 0, -0.999999, 15.888561, 82.860985)">
      <path d="M168.021,38.026C183.71,36.825 199.42,36.09 215.111,34.903C230.737,33.721 246.47,31.264 262.108,30.667C270.191,30.359 272.362,43.942 264.059,45.086C248.35,47.252 231.976,47.11 216.133,47.255C200.053,47.404 184.05,47.241 168.021,45.891C162.981,45.466 162.945,38.415 168.021,38.026" style="fill:rgb(247,141,182);fill-rule:nonzero;"/>
    </g>
  </g>
  <g>
    <title>bg-sign</title>
    <path d="M 44.047 47.854 C 44.495 48.098 45.316 48.331 45.833 48.859 C 53.234 56.43 59.606 64.808 65.161 73.809 C 65.982 75.143 66.655 76.575 67.314 77.999 C 68.106 79.711 67.841 81.24 66.305 82.455 C 66.088 82.626 65.89 82.825 65.669 82.991 C 58.776 88.132 51.901 93.299 44.968 98.387 C 43.411 99.529 41.642 100.387 39.972 101.374 C 38.527 102.227 37.109 102.155 35.867 101.046 C 34.421 99.758 32.894 98.504 31.702 96.997 C 29.066 93.663 26.46 90.284 24.123 86.738 C 19.443 79.634 14.936 72.415 10.389 65.223 C 8.697 62.545 8.858 61.685 11.663 60.169 C 19.249 56.071 27.199 52.819 35.404 50.18 C 37.424 49.53 39.454 48.914 41.494 48.327 C 42.201 48.123 42.946 48.053 44.047 47.854 Z M 12.146 63.25 C 12.442 63.787 12.71 64.367 13.057 64.893 C 17.863 72.138 22.603 79.428 27.528 86.589 C 29.776 89.859 32.283 92.969 34.881 95.971 C 37.716 99.244 37.961 99.346 41.478 96.813 C 48.978 91.411 56.32 85.787 63.718 80.244 C 63.92 80.092 64.02 79.803 64.302 79.37 C 58.836 68.644 50.592 59.835 43.533 50.286 C 37.578 51.489 15.76 60.508 12.146 63.25 Z M 44.361 78.858 C 44.094 80.907 43.992 82.573 43.633 84.182 C 43.275 85.788 42.793 87.396 42.116 88.891 C 41.592 90.048 40.466 90.672 39.123 90.424 C 37.782 90.178 37.019 89.232 36.863 87.931 C 36.721 86.749 36.681 85.535 36.782 84.351 C 37.01 81.694 37.353 79.047 37.667 76.243 C 36.324 75.67 35.153 75.157 33.97 74.668 C 30.038 73.043 26.094 71.448 22.174 69.793 C 21.248 69.402 20.314 68.933 19.535 68.311 C 18.521 67.502 18.169 66.351 18.599 65.063 C 19.027 63.778 19.995 63.08 21.294 63.022 C 22.197 62.982 23.159 63.087 24.015 63.368 C 27.703 64.58 31.364 65.878 35.03 67.152 C 36.067 67.512 37.095 67.898 38.455 68.391 C 38.897 65.395 39.283 62.603 39.733 59.821 C 39.878 58.916 40.051 57.971 40.447 57.159 C 41.226 55.566 42.814 55.544 43.596 57.138 C 44.032 58.025 44.254 59.074 44.326 60.069 C 44.586 63.661 44.741 67.26 44.948 71.07 C 46.901 72.011 48.996 72.95 51.024 74.019 C 52.241 74.661 53.419 75.421 54.492 76.282 C 55.425 77.03 55.889 78.243 55.191 79.251 C 54.691 79.974 53.627 80.643 52.769 80.704 C 51.426 80.801 50.029 80.436 48.684 80.132 C 47.346 79.83 46.046 79.363 44.361 78.858 Z" style="fill:rgb(254,212,225);fill-rule:nonzero;"/>
  </g>
  <g>
    <title>main-char</title>
    <path d="M 82.391 95.38 C 75.231 100.869 58.047 128.318 58.524 138.103 C 59.001 147.889 59.955 166.983 61.865 171.04 C 63.775 175.097 36.327 246.222 35.611 246.461 C 34.895 246.7 22.007 267.703 34.895 283.455 C 47.784 299.208 70.935 291.809 78.095 287.513 C 85.256 283.217 98.86 275.579 98.86 275.579 L 110.555 274.864 C 110.555 274.864 109.6 289.423 116.999 297.538 C 124.398 305.652 136.81 306.369 145.163 302.072 C 153.516 297.776 174.758 281.785 174.758 281.785 C 174.758 281.785 187.885 290.138 202.444 291.571 C 217.004 293.003 225.595 293.958 225.835 292.287 C 226.073 290.616 241.348 237.153 237.529 205.409 C 233.711 173.666 228.937 145.024 214.378 129.749 C 199.818 114.474 182.157 123.067 182.157 123.067 C 182.157 123.067 178.696 117.577 173.803 116.622 C 168.911 115.667 167.36 115.907 167.001 115.667 C 166.643 115.429 152.442 106.239 152.442 106.239 C 152.442 106.239 113.181 77.241 104.23 79.509 C 95.28 81.776 82.391 95.38 82.391 95.38" style="fill: white; fill-rule: nonzero;"/>
    <path d="M 239.373 225.279 C 239.174 228.274 238.956 231.269 238.779 234.266 C 237.893 249.246 234.845 263.84 230.993 278.297 C 229.87 282.516 228.831 286.761 227.865 291.019 C 227.562 292.352 226.964 293.172 225.622 293.353 C 223.872 293.588 222.114 293.972 220.364 293.949 C 208.395 293.791 196.522 292.825 185.244 288.399 C 182.358 287.265 179.642 285.642 176.974 284.035 C 175.772 283.31 175.116 283.341 174.145 284.333 C 167.751 290.868 160.656 296.529 152.573 300.844 C 143.984 305.429 134.978 307.623 125.264 304.994 C 115.306 302.299 109.301 295.079 108.585 284.789 C 108.427 282.513 108.563 280.216 108.563 277.719 C 108.015 277.963 107.682 278.16 107.322 278.266 C 105.026 278.942 102.76 279.803 100.416 280.203 C 98.228 280.575 95.938 280.326 93.723 280.595 C 92.569 280.733 91.335 281.188 90.384 281.853 C 81.366 288.162 71.656 292.956 60.689 294.522 C 51.318 295.861 42.547 293.726 34.969 287.942 C 28.867 283.285 26.208 276.684 25.734 269.158 C 25.594 266.936 25.713 264.697 25.713 262.33 C 24.451 262.234 23.118 262.347 21.913 262.004 C 17.862 260.853 14.485 258.603 12.322 254.94 C 11.754 253.979 11.601 252.365 12 251.34 C 12.548 249.929 14.08 250.426 15.296 250.719 C 17.66 251.286 19.815 250.768 22.056 249.498 C 21.553 248.68 21.138 247.988 20.707 247.306 C 18.674 244.087 17.741 240.638 18.532 236.836 C 19.379 232.761 21.62 229.763 25.403 227.933 C 26.675 227.318 27.974 226.7 29.107 225.872 C 31.342 224.239 31.6 222.579 30.177 220.223 C 29.262 218.706 28.297 217.221 27.407 215.691 C 21.914 206.244 23.031 197.014 30.542 189.086 C 34.897 184.491 40.26 181.461 45.956 178.916 C 47.464 178.242 49.006 177.629 50.463 176.858 C 52.431 175.818 52.824 174.841 51.902 172.794 C 49.641 167.777 48.566 162.464 47.879 157.069 C 46.198 143.839 46.998 130.921 52.925 118.669 C 56.63 111.009 61.475 104.114 67.067 97.76 C 70.961 93.334 75.077 89.095 79.243 84.922 C 81.391 82.77 83.606 80.441 86.249 79.084 C 90.781 76.759 95.67 75.125 100.416 73.221 C 101.002 72.987 101.634 72.869 102.355 72.666 C 101.867 71.247 99.974 70.173 101.384 68.652 C 102.814 67.108 104.189 68.814 105.765 69.101 C 105.926 68.522 105.931 67.851 106.263 67.455 C 106.844 66.765 107.627 66.243 108.326 65.651 C 108.904 66.372 109.766 67.014 109.988 67.832 C 110.249 68.799 109.959 69.916 109.901 71.107 C 110.393 71.132 110.848 71.213 111.291 71.169 C 125.682 69.71 136.493 76.267 144.934 87.025 C 149.199 92.46 152.298 98.81 155.921 104.746 C 155.983 104.847 156.056 104.955 156.07 105.066 C 156.526 108.466 158.672 109.824 161.828 110.84 C 165.227 111.933 168.285 113.839 172.015 114.311 C 175.467 114.749 178.293 116.933 180.527 119.668 C 181.117 120.39 181.597 120.716 182.6 120.344 C 194.361 115.987 204.88 118.499 214.316 126.338 C 221.569 132.364 225.924 140.37 229.25 149.001 C 233.72 160.602 236.034 172.718 237.236 185.024 C 238.146 194.352 238.515 203.733 239.135 213.089 C 239.169 213.614 239.291 214.132 239.373 214.652 Z M 177.23 281.27 C 180.574 282.753 183.452 284.271 186.49 285.334 C 198.115 289.401 210.185 290.522 222.416 290.45 C 223.639 290.443 224.187 289.932 224.47 288.761 C 225.509 284.458 226.581 280.161 227.734 275.888 C 232.226 259.246 235.239 242.387 235.482 225.094 C 235.667 211.917 235.048 198.781 233.603 185.688 C 232.344 174.28 230.353 163.012 226.464 152.166 C 223.466 143.805 219.519 135.971 212.823 129.887 C 204.732 122.534 195.305 120.01 184.596 122.432 C 183.412 122.701 182.576 122.973 183.263 124.521 C 183.757 125.637 184.006 126.887 184.207 128.103 C 185.101 133.491 183.871 138.663 182.53 143.822 C 182.341 144.552 182.122 145.331 182.185 146.064 C 183.144 157.006 183.782 167.952 183.069 178.938 C 182.772 183.528 182.891 188.181 182.174 192.703 C 178.839 213.725 171.693 233.449 161.324 252.019 C 160.289 253.875 159.222 255.716 158.071 257.499 C 157.822 257.884 157.144 257.993 156.664 258.23 C 156.547 257.66 156.198 257.011 156.36 256.538 C 156.703 255.547 157.364 254.672 157.805 253.708 C 163.603 241.034 169.032 228.21 173.389 214.956 C 173.56 214.436 173.632 213.884 173.81 213.08 C 163.402 216.943 154.438 214.149 146.036 208.104 C 143.642 211.983 141.297 215.595 139.139 219.315 C 132.8 230.235 126.277 241.06 120.32 252.186 C 115.148 261.847 112.701 272.356 112.994 283.388 C 113.238 292.547 118.117 298.562 126.945 300.879 C 132.494 302.335 137.961 301.951 143.341 300.181 C 153.271 296.912 161.334 290.675 168.934 283.767 C 177.567 275.919 183.992 266.404 189.356 256.139 C 198.178 239.255 205.368 221.654 211.55 203.67 C 214.575 194.873 216.605 185.737 219.159 176.775 C 219.481 175.645 220.138 174.559 220.85 173.611 C 221.46 172.797 222.407 172.167 223.412 173.153 C 224.342 174.065 224.268 175.101 223.678 176.23 C 223.113 177.307 222.58 178.433 222.253 179.599 C 220.003 187.605 218.157 195.743 215.526 203.621 C 210.118 219.81 203.708 235.626 196.346 251.035 C 191.785 260.582 186.687 269.835 179.907 278.046 C 179.128 278.989 178.345 279.927 177.23 281.27 Z M 99.636 217.427 C 89.473 216.278 84.97 211.581 83.78 201.133 C 82.796 201.921 81.886 202.645 80.984 203.378 C 67.644 214.216 54.706 225.488 43.499 238.59 C 38.369 244.587 33.795 250.975 31.605 258.701 C 29.362 266.617 29.544 274.425 34.817 281.127 C 40.695 288.598 49.178 290.653 58.137 290.139 C 67.141 289.623 75.238 285.822 82.984 281.418 C 89.946 277.46 96.102 272.421 101.662 266.678 C 102.015 266.314 101.927 265.039 101.559 264.574 C 100.972 263.833 99.981 263.407 99.151 262.864 C 98.318 262.32 97.34 261.927 96.658 261.239 C 95.003 259.569 93.331 257.879 91.946 255.991 C 89.949 253.27 88.201 250.366 86.303 247.478 C 86.157 247.68 85.801 248.116 85.504 248.588 C 82.447 253.426 79.398 258.27 76.349 263.114 C 73.616 267.459 70.926 271.831 68.105 276.118 C 67.705 276.727 66.705 277.106 65.926 277.224 C 65.578 277.277 64.713 276.393 64.745 275.988 C 64.813 275.142 65.202 274.252 65.68 273.527 C 66.312 272.569 67.279 271.827 67.889 270.859 C 72.544 263.473 77.157 256.06 81.761 248.641 C 83.312 246.141 85.479 243.774 86.166 241.043 C 87.431 236.014 89.457 231.742 93.695 228.654 C 93.882 228.518 94.072 228.342 94.175 228.14 C 95.969 224.641 97.749 221.136 99.636 217.427 Z M 142.779 115.347 C 142.655 115.46 142.532 115.575 142.408 115.688 C 142.647 116.26 142.812 116.879 143.137 117.397 C 145.265 120.796 147.48 124.141 149.567 127.564 C 152.338 132.109 154.743 136.802 156.124 142.016 C 157.864 148.583 157.818 155.221 157.419 161.89 C 157.099 167.271 157.527 172.496 159.85 177.456 C 160.106 178.002 160.258 178.742 160.114 179.303 C 159.562 181.474 159.158 183.751 158.177 185.729 C 155.322 191.487 152.261 197.143 149.174 202.78 C 148.457 204.09 148.497 204.937 149.529 206.032 C 152.354 209.031 155.844 210.496 159.863 210.877 C 164.861 211.35 169.827 211.46 174.168 208.369 C 175.002 207.775 175.781 206.753 176.055 205.778 C 179.257 194.403 180.666 182.786 180.467 170.975 C 180.421 168.262 180.24 165.552 180.127 162.84 C 179.924 158.006 179.688 153.174 179.545 148.339 C 179.492 146.531 179.521 144.698 179.771 142.913 C 180.073 140.757 180.83 138.66 181.067 136.501 C 181.552 132.084 181.825 127.642 179.454 123.559 C 177.548 120.277 174.741 118.201 170.737 116.885 C 171.668 118.491 172.399 119.628 173.004 120.828 C 173.614 122.037 174.069 123.325 174.659 124.545 C 174.822 124.883 175.232 125.097 175.516 125.38 C 177.798 127.657 178.82 130.481 177.621 133.024 C 177.239 133.834 177.078 134.833 177.107 135.737 C 177.171 137.721 177.178 139.719 178.421 141.502 C 178.787 142.029 178.497 143.013 178.507 143.787 C 177.794 143.569 176.949 143.517 176.403 143.087 C 175.862 142.66 175.446 141.893 175.284 141.204 C 174.677 138.62 174.231 135.999 173.665 133.405 C 172.593 128.492 171.449 123.604 168.427 119.414 C 165.78 115.744 162.038 113.877 157.493 112.556 C 159.466 114.386 161.243 115.839 162.789 117.505 C 167.134 122.189 168.69 127.99 169.344 134.169 C 169.498 135.623 170.264 137.006 170.688 138.439 C 170.984 139.44 171.377 140.474 171.365 141.489 C 171.352 142.634 170.447 142.938 169.673 142.135 C 168.168 140.574 166.715 139.004 166.596 136.553 C 166.482 134.209 166.079 131.856 165.577 129.556 C 164.311 123.769 161.283 119.036 156.234 115.91 C 154.417 114.784 152.089 114.41 149.941 113.942 C 149.359 113.816 148.579 114.602 147.89 114.969 C 148.475 115.453 148.998 116.057 149.658 116.4 C 151.577 117.394 153.892 117.901 155.437 119.287 C 159.631 123.051 161.799 127.926 161.455 133.641 C 161.283 136.502 162.405 138.611 164.284 140.55 C 164.884 141.17 165.403 141.939 165.725 142.736 C 165.932 143.247 165.712 143.93 165.683 144.536 C 165.111 144.41 164.48 144.397 163.978 144.136 C 160.729 142.443 159.554 139.21 158.221 136.135 C 155.113 128.963 151.198 122.357 145.189 117.19 C 144.424 116.532 143.584 115.96 142.779 115.347 Z M 83.943 103.591 C 82.163 107.311 79.726 118.795 79.694 124.275 C 79.675 127.795 80.342 131.339 80.109 134.832 C 79.894 138.057 81.414 139.164 84.054 140.259 C 96.48 145.414 104.09 154.729 106.721 167.893 C 107.296 170.768 107.781 173.228 110.733 174.508 C 111.157 174.691 111.305 175.511 111.58 176.036 C 111.012 176.227 110.401 176.659 109.881 176.57 C 105.342 175.789 103.961 174.681 103.718 170.514 C 103.697 170.16 103.696 169.8 103.618 169.457 C 103.035 166.911 102.435 164.369 102.002 162.519 C 98.939 162.168 96.564 162.001 94.231 161.592 C 92.69 161.322 91.406 160.57 92.286 158.591 C 90.862 157.919 89.57 157.307 88.276 156.697 C 88.156 156.827 88.035 156.956 87.915 157.085 C 89.643 159.806 91.327 162.555 93.107 165.242 C 98.743 173.749 106.674 179.233 116.195 182.554 C 116.895 182.798 117.875 182.836 118.522 182.535 C 123.063 180.426 127.49 178.065 132.072 176.052 C 136.74 174.002 139.612 170.518 139.983 165.591 C 140.394 160.151 140.084 154.653 139.982 149.182 C 139.972 148.667 139.309 147.917 138.777 147.7 C 135.992 146.562 133.161 145.538 130.325 144.532 C 129.874 144.372 129.147 144.288 128.841 144.533 C 127.315 145.76 125.887 147.108 124.425 148.414 C 125.87 147.978 127.013 147.162 128.238 146.499 C 128.597 146.305 129.191 146.546 129.677 146.588 C 129.596 147.066 129.689 147.746 129.406 147.991 C 126.729 150.302 124.038 152.607 121.224 154.744 C 120.601 155.218 119.065 155.434 118.68 155.045 C 118.14 154.499 117.977 153.197 118.193 152.358 C 118.909 149.593 120.654 147.426 122.797 145.584 C 123.893 144.642 125.028 143.744 126.177 142.8 C 123.487 140.667 123.236 140.777 121.121 142.936 C 118.856 145.247 116.43 147.406 114.002 149.551 C 113.031 150.409 111.843 150.851 110.638 149.836 C 109.348 148.751 108.617 144.815 109.445 143.356 C 109.991 142.395 110.691 142.105 111.545 143.029 C 111.811 143.316 112.04 143.638 112.305 143.969 C 114.498 142.135 116.601 140.375 118.913 138.441 C 105.013 129.055 93.026 117.939 83.943 103.591 Z M 61.34 159.345 L 61.053 159.857 C 61.675 160.673 62.167 161.651 62.943 162.276 C 65.828 164.603 68.602 167.176 71.798 168.987 C 77.331 172.122 83.083 174.901 88.871 177.553 C 93.083 179.484 96.106 182.528 98.491 186.34 C 98.9 186.993 99.011 187.83 99.26 188.584 C 98.537 188.758 97.813 188.933 97.09 189.108 C 94.464 191.885 91.55 194.439 88.725 197.087 C 87.945 197.817 87.032 198.757 86.857 199.723 C 85.625 206.501 93.082 214.308 99.889 213.388 C 100.704 213.278 101.697 212.498 102.105 211.753 C 103.096 209.952 103.858 208.014 104.57 206.08 C 104.884 205.23 105.052 204.227 104.942 203.336 C 104.428 199.186 105.43 195.436 107.988 192.206 C 109.665 190.092 111.677 188.242 113.538 186.274 C 113.839 185.955 114.143 185.638 114.61 185.147 C 113.788 184.844 113.204 184.6 112.601 184.411 C 104.208 181.789 97.527 176.808 92.168 169.88 C 90.49 167.711 88.704 165.435 86.483 163.919 C 81.292 160.373 78.292 155.433 76.065 149.783 C 75.029 147.153 73.72 144.631 72.501 142.077 C 72.242 141.534 71.837 141.059 71.417 140.428 C 70.089 141.84 70.173 143.335 70.677 144.611 C 72.123 148.266 73.497 151.997 75.415 155.408 C 78.491 160.875 83.393 164.825 87.794 169.173 C 89.512 170.871 90.726 173.22 93.625 173.256 C 93.882 173.259 94.324 173.8 94.331 174.101 C 94.34 174.404 93.975 174.86 93.664 174.996 C 93.198 175.2 92.632 175.267 92.115 175.246 C 89.302 175.135 86.595 174.567 84.22 172.976 C 81.429 171.107 78.734 169.092 75.923 167.255 C 72.087 164.75 68.21 162.299 64.276 159.95 C 63.466 159.466 62.327 159.532 61.34 159.345 Z M 31.176 212.224 C 31.106 200.155 39.051 192.877 46.869 185.423 C 40.939 186.682 35.764 189.155 32.377 194.39 C 28.722 200.042 28.277 206.018 31.176 212.224 Z M 81.126 142.225 C 82.041 144.696 82.677 146.754 83.571 148.695 C 84.118 149.885 84.817 151.382 85.863 151.898 C 90.274 154.075 94.841 155.935 99.514 157.983 C 95.496 150.448 89.245 145.723 81.126 142.225 Z M 99.482 225.241 C 102.768 223.966 105.642 222.945 108.415 221.702 C 109.011 221.435 109.709 220.259 109.572 219.69 C 108.884 216.815 107.934 214.003 106.962 210.79 C 104.374 215.791 102.038 220.303 99.482 225.241 Z M 76.625 136.783 C 75.27 137.598 74.93 139.764 75.842 141.865 C 77.106 144.779 78.223 147.766 79.662 150.589 C 80.868 152.951 82.444 155.123 83.857 157.379 C 84.001 157.292 84.143 157.203 84.287 157.115 C 81.732 150.336 79.177 143.557 76.625 136.783 Z M 97.504 251.904 C 97.504 249.208 97.287 246.349 97.563 243.538 C 97.845 240.67 98.61 237.85 99.17 234.978 C 93.578 239.733 92.934 247.062 97.504 251.904 Z M 120.715 192.381 C 114.68 195.451 112.36 201.566 115.057 206.815 C 116.897 202.121 118.784 197.306 120.715 192.381 Z M 29.448 231.346 C 25.353 232.835 22.364 237.413 22.676 241.29 C 22.799 242.838 23.208 244.284 25.199 244.975 C 24.648 239.721 26.663 235.421 29.448 231.346 Z M 127.581 171.382 C 127.852 171.598 128.343 171.993 128.834 172.387 C 128.354 172.802 127.936 173.446 127.385 173.595 C 123.606 174.613 120.458 176.45 118.334 179.866 C 118.04 180.338 117.237 180.493 116.669 180.796 C 116.375 180.196 115.705 179.47 115.857 179.021 C 116.296 177.722 116.837 176.323 117.747 175.346 C 120.25 172.659 123.657 171.869 127.581 171.382 Z" style="fill: rgb(18, 4, 14); fill-rule: nonzero;"/>
  </g>
  <g>
    <title>bg-sign</title>
    <path d="M 269.093 252.373 C 268.405 252.362 267.86 252.202 267.382 251.884 C 267.055 252.098 266.705 252.107 266.492 251.707 C 265.133 249.178 263.774 246.654 262.659 244.002 C 261.6 241.481 260.251 238.303 260.918 235.513 C 261.502 233.055 264.239 231.646 266.593 232.694 C 269.27 233.881 269.39 238.209 269.565 240.648 C 269.791 243.887 269.325 247.568 270.354 250.687 C 270.575 251.36 269.794 252.386 269.093 252.373 Z M 272.305 257.468 C 272.246 258.073 272.008 258.677 271.729 259.183 C 271.484 259.626 270.853 260.327 270.247 260.102 C 269.822 259.944 269.389 259.734 269.033 259.444 C 268.963 259.416 268.894 259.383 268.828 259.336 C 268.689 259.236 268.588 259.11 268.514 258.968 C 268.457 258.909 268.405 258.845 268.355 258.777 C 268.216 258.588 268.116 258.362 268.051 258.137 C 267.904 257.626 267.967 257.086 268.184 256.605 C 268.585 255.721 269.474 255.069 270.463 255.157 C 270.895 255.195 271.308 255.342 271.634 255.607 C 272.034 255.685 272.391 255.859 272.501 256.317 C 272.595 256.709 272.498 257.104 272.305 257.468 Z M 248.146 264.57 C 248.726 254.953 250.982 245.701 254.219 236.666 C 255.949 231.831 257.993 227.135 260.764 222.791 C 263.099 219.13 264.539 218.972 267.498 222.072 C 269.083 223.731 270.59 225.465 272.118 227.177 C 278.178 233.97 284.252 240.752 290.283 247.57 C 292.411 249.976 294.546 252.388 296.474 254.952 C 299.822 259.404 299.106 261.521 293.624 262.784 C 289.165 263.81 284.623 264.611 280.075 265.079 C 273.382 265.768 266.648 266.032 259.938 266.556 C 257.121 266.776 254.315 267.168 251.511 267.535 C 248.689 267.904 248.055 267.372 248.146 264.57 Z M 250.966 264.845 C 252.905 264.608 254.56 264.338 256.225 264.213 C 262.699 263.728 269.193 263.44 275.649 262.788 C 281.185 262.229 286.688 261.31 292.192 260.463 C 293.427 260.273 294.608 259.724 296.117 259.243 C 295.453 258.078 295.076 257.168 294.485 256.426 C 292.773 254.276 291.026 252.148 289.202 250.094 C 284.028 244.266 278.801 238.486 273.61 232.675 C 271.117 229.883 268.664 227.054 266.172 224.261 C 265.582 223.599 264.905 223.017 264.089 222.222 C 263.368 223.257 262.709 224.001 262.278 224.86 C 260.7 227.994 259.042 231.102 257.701 234.339 C 254.772 241.412 252.917 248.823 251.003 256.222 C 250.259 259.095 250.621 261.775 250.966 264.845 Z" style="fill:rgb(254,212,225);fill-rule:nonzero;"/>
  </g>
</svg>