<?xml version="1.0" encoding="UTF-8" standalone="no"?>
<!DOCTYPE svg PUBLIC "-//W3C//DTD SVG 1.1//EN" "http://www.w3.org/Graphics/SVG/1.1/DTD/svg11.dtd">
<svg width="100%" height="100%" viewBox="0 0 46 41" version="1.1" xmlns="http://www.w3.org/2000/svg" xmlns:xlink="http://www.w3.org/1999/xlink" xml:space="preserve" xmlns:serif="http://www.serif.com/" style="fill-rule:evenodd;clip-rule:evenodd;stroke-linejoin:round;stroke-miterlimit:2;">
    <g transform="matrix(1,0,0,1,-3722,-1955)">
        <g id="result_3" transform="matrix(1.12665,0,0,1.0682,-546.931,-120.598)">
            <rect x="3789.22" y="1943.58" width="39.941" height="37.446" style="fill:none;"/>
            <g transform="matrix(0.887586,0,0,0.936154,428.206,125.286)">
                <g transform="matrix(1,0,0,-1,3579.45,1981.25)">
                    <path d="M209.772,32.672L209.772,12.702C209.772,9.945 212.009,7.709 214.764,7.709L222.753,7.709L228.36,0.874C229.078,0 230.406,0 231.125,0.874L236.732,7.709L244.721,7.709C247.476,7.709 249.713,9.945 249.713,12.702L249.713,32.672C249.713,35.429 247.476,37.665 244.721,37.665L214.764,37.665C212.009,37.665 209.772,35.429 209.772,32.672" style="fill:rgb(145,25,25);fill-rule:nonzero;"/>
                </g>
                <g transform="matrix(1,0,0,-1,3579.36,1974.36)">
                    <path d="M241.468,15.213C241.468,14.987 241.347,14.765 241.334,14.545C241.321,14.318 241.232,14.105 241.207,13.886C241.179,13.661 241.252,13.427 241.212,13.209C241.171,12.988 241.135,12.765 241.081,12.551C241.026,12.332 241.019,12.098 240.95,11.886C240.881,11.673 240.628,11.527 240.545,11.32C240.462,11.112 240.484,10.863 240.388,10.662C240.291,10.459 240.134,10.29 240.025,10.095C239.915,9.9 239.877,9.662 239.755,9.475C239.631,9.288 239.384,9.192 239.248,9.014C239.113,8.836 239.071,8.585 238.924,8.417C238.778,8.248 238.574,8.134 238.416,7.975C238.258,7.816 238.099,7.664 237.931,7.516C237.764,7.368 237.635,7.174 237.458,7.036C237.282,6.9 237.089,6.783 236.903,6.657C236.719,6.532 236.529,6.415 236.336,6.3C236.144,6.187 235.98,6.018 235.78,5.915C235.582,5.813 235.396,5.672 235.191,5.581C234.987,5.491 234.756,5.452 234.546,5.373C234.338,5.294 234.079,5.36 233.864,5.292C233.653,5.224 233.475,5.037 233.257,4.981C233.042,4.926 232.807,4.949 232.586,4.904C232.369,4.86 232.153,4.8 231.931,4.767C231.71,4.734 231.49,4.707 231.265,4.685C231.044,4.664 230.825,4.582 230.6,4.572C230.378,4.561 230.152,4.536 229.926,4.536C229.702,4.536 229.481,4.691 229.26,4.701C229.035,4.712 228.811,4.683 228.59,4.705C228.365,4.727 228.125,4.617 227.905,4.65C227.682,4.682 227.458,4.727 227.24,4.771C227.019,4.816 226.848,5.072 226.634,5.127C226.416,5.184 226.153,5.076 225.941,5.143C225.727,5.21 225.52,5.307 225.312,5.386C225.102,5.466 224.945,5.668 224.741,5.758C224.536,5.85 224.352,5.971 224.154,6.073C223.955,6.176 223.758,6.27 223.567,6.383C223.373,6.498 223.129,6.525 222.945,6.65C222.759,6.776 222.541,6.862 222.365,6.999C222.188,7.136 222.014,7.283 221.847,7.431C221.679,7.579 221.598,7.819 221.44,7.978C221.282,8.137 221.133,8.298 220.986,8.467C220.839,8.635 220.567,8.705 220.432,8.883C220.296,9.061 220.331,9.36 220.207,9.547C220.085,9.733 219.898,9.878 219.788,10.073C219.678,10.267 219.597,10.476 219.499,10.678C219.403,10.878 219.29,11.072 219.207,11.281C219.125,11.488 219.141,11.727 219.072,11.942C219.004,12.153 218.916,12.354 218.861,12.573C218.807,12.788 218.716,12.994 218.675,13.215C218.636,13.434 218.51,13.643 218.483,13.866C218.457,14.087 218.588,14.322 218.574,14.548C218.562,14.768 218.449,14.987 218.449,15.213C218.449,15.442 218.429,15.671 218.442,15.896C218.456,16.124 218.594,16.339 218.621,16.562C218.648,16.789 218.616,17.02 218.657,17.242C218.698,17.466 218.829,17.667 218.883,17.885C218.938,18.107 218.824,18.375 218.892,18.59C218.961,18.807 219.161,18.978 219.243,19.189C219.326,19.402 219.404,19.612 219.5,19.817C219.596,20.023 219.598,20.278 219.707,20.477C219.816,20.675 220.011,20.826 220.133,21.017C220.255,21.208 220.41,21.376 220.544,21.559C220.677,21.742 220.852,21.887 220.998,22.062C221.142,22.236 221.217,22.469 221.372,22.634C221.529,22.799 221.656,22.995 221.821,23.15C221.987,23.304 222.127,23.497 222.302,23.641C222.476,23.786 222.752,23.804 222.936,23.937C223.119,24.07 223.335,24.146 223.527,24.268C223.718,24.39 223.888,24.536 224.087,24.647C224.285,24.757 224.485,24.855 224.69,24.954C224.894,25.051 225.096,25.146 225.307,25.233C225.515,25.318 225.677,25.532 225.892,25.606C226.106,25.68 226.335,25.72 226.554,25.781C226.771,25.843 226.983,25.949 227.205,25.998C227.425,26.047 227.667,26.008 227.892,26.045C228.114,26.081 228.353,25.997 228.579,26.022C228.804,26.046 229.015,26.229 229.243,26.24C229.468,26.252 229.699,26.294 229.926,26.294C230.155,26.294 230.384,26.235 230.609,26.224C230.837,26.212 231.055,26.09 231.279,26.066C231.506,26.042 231.751,26.156 231.973,26.12C232.199,26.083 232.414,25.985 232.635,25.937C232.857,25.887 233.084,25.849 233.302,25.788C233.52,25.726 233.697,25.534 233.911,25.46C234.126,25.386 234.364,25.381 234.572,25.295C234.783,25.209 234.983,25.098 235.186,25.001C235.391,24.902 235.556,24.736 235.754,24.626C235.953,24.516 236.131,24.383 236.322,24.261C236.514,24.14 236.8,24.159 236.983,24.025C237.166,23.893 237.293,23.683 237.467,23.539C237.642,23.395 237.848,23.284 238.013,23.13C238.179,22.975 238.244,22.722 238.4,22.556C238.555,22.392 238.707,22.232 238.852,22.058C238.997,21.884 239.185,21.748 239.319,21.564C239.452,21.381 239.546,21.175 239.668,20.984C239.789,20.792 239.971,20.639 240.081,20.44C240.189,20.241 240.353,20.067 240.449,19.86C240.544,19.656 240.635,19.443 240.718,19.23C240.8,19.021 240.75,18.762 240.819,18.544C240.887,18.329 240.932,18.111 240.987,17.889C241.041,17.671 241.054,17.448 241.096,17.224C241.136,17.002 241.287,16.798 241.314,16.572C241.341,16.349 241.302,16.118 241.315,15.891C241.329,15.666 241.468,15.442 241.468,15.213" style="fill:rgb(255,189,56);fill-rule:nonzero;"/>
                </g>
                <g transform="matrix(1,0,0,-1,3579.2,1970.08)">
                    <path d="M234.909,15.7C235.413,14.646 234.274,13.803 233.868,13.049C235.59,13.13 236.892,12.792 238.318,12.577C238.302,12.466 238.338,12.407 238.411,12.387C238.306,10.918 236.156,11.903 235.193,12.008C234.193,12.118 233.258,11.925 232.354,12.008C232.111,12.532 232.346,13.149 232.827,13.238C233.206,14.215 233.854,14.925 234.436,15.7L234.909,15.7Z"/>
                </g>
                <g transform="matrix(1,0,0,-1,3579.29,1972.59)">
                    <path d="M227.813,13.386C226.611,13.042 225.812,12.296 224.311,12.251C222.758,13.368 226.19,13.583 226.676,14.238C226.523,14.466 226.182,14.694 225.825,14.996C225.561,15.218 223.746,16.836 225.257,16.888C225.434,16.895 225.5,16.826 225.636,16.7C225.905,16.447 226.114,16.142 226.487,15.848C227.121,15.348 228.898,14.407 227.813,13.386"/>
                </g>
                <g transform="matrix(1,0,0,-1,3579.27,1984.72)">
                    <path d="M235.887,21.818L235.887,21.061C234.288,20.674 232.623,20.688 231.06,20.398C229.553,20.119 228.112,19.446 226.611,19.642C226.115,20.571 227.355,20.56 227.841,20.682C228.487,20.844 229.236,21.026 229.829,21.156C231.82,21.59 233.906,21.904 235.887,21.818"/>
                </g>
                <g transform="matrix(0.855192,0.518312,-0.518312,0.855192,3622.12,1830.58)">
                    <path d="M223.368,18.7C224.266,19.344 225.682,20.759 224.919,21.836C224.388,22.126 223.804,22.637 223.368,22.543C222.26,21.989 222.188,20.052 222.379,19.183C222.409,19.05 222.35,18.014 223.368,18.7" style="fill:rgb(35,185,236);"/>
                </g>
                <g transform="matrix(0.9815,0.191462,-0.191462,0.9815,3586.96,1897.91)">
                    <path d="M238.99,16.209C239.888,16.853 241.304,18.267 240.541,19.345C240.011,19.634 239.426,20.146 238.99,20.052C237.881,19.497 237.81,17.561 238.001,16.691C238.03,16.558 237.972,15.523 238.99,16.209" style="fill:rgb(35,185,236);"/>
                </g>
            </g>
        </g>
    </g>
</svg>
