<?xml version="1.0" encoding="UTF-8" standalone="no"?>
<!DOCTYPE svg PUBLIC "-//W3C//DTD SVG 1.1//EN" "http://www.w3.org/Graphics/SVG/1.1/DTD/svg11.dtd">
<svg width="100%" height="100%" viewBox="0 0 45 40" version="1.1" xmlns="http://www.w3.org/2000/svg" xmlns:xlink="http://www.w3.org/1999/xlink" xml:space="preserve" xmlns:serif="http://www.serif.com/" style="fill-rule:evenodd;clip-rule:evenodd;stroke-linejoin:round;stroke-miterlimit:2;">
    <g transform="matrix(1,0,0,1,-3617,-1953)">
        <g id="result_1" transform="matrix(1.12617,0,0,1.06774,-457.25,-132.531)">
            <rect x="3617.81" y="1953.22" width="39.959" height="37.462" style="fill:none;"/>
            <g transform="matrix(0.887969,0,0,0.936558,407.545,125.105)">
                <g transform="matrix(1,0,0,-1,3583.04,1990.9)">
                    <path d="M34.772,32.686L34.772,12.707C34.772,9.95 37.01,7.713 39.767,7.713L47.758,7.713L53.368,0.875C54.087,0 55.415,0 56.135,0.875L61.744,7.713L69.736,7.713C72.493,7.713 74.731,9.95 74.731,12.707L74.731,32.686C74.731,35.444 72.493,37.681 69.736,37.681L39.767,37.681C37.01,37.681 34.772,35.444 34.772,32.686" style="fill:rgb(32,153,87);fill-rule:nonzero;"/>
                </g>
                <g transform="matrix(1,0,0,-1,3582.95,1984.01)">
                    <path d="M66.353,15.218C66.353,14.991 66.232,14.77 66.219,14.549C66.206,14.322 66.117,14.11 66.091,13.89C66.064,13.665 66.137,13.431 66.097,13.213C66.056,12.992 66.02,12.769 65.966,12.554C65.91,12.336 65.903,12.101 65.835,11.889C65.766,11.676 65.513,11.53 65.429,11.323C65.346,11.115 65.368,10.865 65.272,10.664C65.175,10.462 65.019,10.292 64.909,10.098C64.799,9.903 64.762,9.664 64.639,9.477C64.515,9.29 64.268,9.194 64.132,9.016C63.997,8.838 63.955,8.587 63.809,8.418C63.661,8.249 63.458,8.135 63.299,7.976C63.142,7.818 62.983,7.666 62.814,7.517C62.647,7.37 62.519,7.175 62.341,7.037C62.165,6.901 61.972,6.784 61.786,6.658C61.602,6.533 61.411,6.416 61.218,6.301C61.027,6.187 60.862,6.018 60.662,5.915C60.465,5.813 60.279,5.673 60.073,5.582C59.869,5.492 59.638,5.452 59.428,5.373C59.22,5.294 58.961,5.36 58.746,5.292C58.534,5.225 58.356,5.038 58.138,4.981C57.924,4.926 57.688,4.95 57.468,4.904C57.25,4.861 57.034,4.8 56.812,4.768C56.591,4.734 56.37,4.707 56.146,4.685C55.924,4.664 55.705,4.583 55.48,4.572C55.258,4.561 55.032,4.536 54.806,4.536C54.581,4.536 54.361,4.691 54.139,4.701C53.915,4.712 53.69,4.683 53.469,4.705C53.245,4.727 53.004,4.617 52.784,4.65C52.561,4.682 52.336,4.727 52.119,4.771C51.898,4.816 51.727,5.072 51.512,5.128C51.295,5.184 51.031,5.076 50.82,5.143C50.605,5.211 50.398,5.308 50.19,5.386C49.98,5.466 49.822,5.669 49.619,5.759C49.414,5.851 49.23,5.972 49.032,6.074C48.832,6.176 48.635,6.27 48.444,6.384C48.25,6.499 48.006,6.526 47.822,6.651C47.636,6.777 47.418,6.863 47.242,7C47.065,7.137 46.891,7.285 46.724,7.432C46.555,7.58 46.474,7.821 46.316,7.979C46.159,8.138 46.009,8.3 45.862,8.469C45.715,8.637 45.443,8.706 45.308,8.884C45.172,9.063 45.207,9.362 45.083,9.549C44.96,9.735 44.773,9.88 44.664,10.076C44.554,10.27 44.473,10.478 44.375,10.68C44.279,10.881 44.166,11.075 44.083,11.284C44.001,11.491 44.016,11.73 43.947,11.945C43.879,12.156 43.791,12.357 43.736,12.576C43.682,12.792 43.591,12.997 43.55,13.219C43.511,13.438 43.385,13.647 43.359,13.87C43.332,14.091 43.463,14.326 43.45,14.552C43.437,14.773 43.324,14.991 43.324,15.218C43.324,15.446 43.304,15.676 43.317,15.9C43.331,16.129 43.469,16.344 43.496,16.567C43.523,16.794 43.491,17.025 43.532,17.247C43.573,17.472 43.704,17.672 43.758,17.891C43.814,18.113 43.699,18.381 43.767,18.596C43.836,18.813 44.036,18.984 44.118,19.195C44.201,19.407 44.28,19.619 44.376,19.823C44.472,20.029 44.474,20.285 44.582,20.483C44.691,20.682 44.887,20.833 45.009,21.024C45.131,21.216 45.286,21.383 45.419,21.566C45.553,21.75 45.728,21.894 45.874,22.069C46.018,22.244 46.093,22.477 46.249,22.641C46.405,22.807 46.533,23.002 46.698,23.158C46.864,23.312 47.004,23.505 47.179,23.65C47.354,23.794 47.629,23.812 47.813,23.945C47.996,24.078 48.213,24.154 48.405,24.277C48.595,24.399 48.766,24.545 48.965,24.656C49.162,24.766 49.362,24.864 49.568,24.963C49.772,25.059 49.974,25.154 50.185,25.242C50.393,25.327 50.556,25.541 50.77,25.616C50.984,25.689 51.213,25.729 51.432,25.791C51.65,25.852 51.862,25.958 52.084,26.007C52.304,26.056 52.546,26.017 52.771,26.054C52.993,26.09 53.232,26.006 53.458,26.031C53.683,26.055 53.895,26.238 54.122,26.25C54.348,26.262 54.579,26.303 54.806,26.303C55.035,26.303 55.264,26.245 55.49,26.233C55.717,26.221 55.935,26.099 56.16,26.076C56.386,26.051 56.632,26.166 56.854,26.129C57.08,26.092 57.295,25.994 57.516,25.946C57.739,25.897 57.965,25.858 58.183,25.798C58.402,25.735 58.579,25.543 58.792,25.469C59.008,25.395 59.246,25.39 59.454,25.304C59.665,25.218 59.865,25.107 60.068,25.01C60.274,24.911 60.439,24.745 60.637,24.635C60.836,24.524 61.014,24.392 61.205,24.27C61.397,24.148 61.683,24.167 61.866,24.033C62.05,23.901 62.176,23.691 62.35,23.548C62.526,23.403 62.731,23.292 62.897,23.138C63.063,22.983 63.127,22.729 63.283,22.564C63.439,22.4 63.591,22.24 63.736,22.066C63.881,21.891 64.069,21.756 64.203,21.572C64.336,21.389 64.43,21.182 64.552,20.991C64.674,20.799 64.856,20.646 64.965,20.447C65.073,20.248 65.237,20.074 65.333,19.867C65.428,19.662 65.519,19.449 65.603,19.237C65.685,19.027 65.634,18.768 65.704,18.55C65.772,18.335 65.816,18.117 65.872,17.895C65.926,17.676 65.939,17.454 65.981,17.229C66.021,17.008 66.172,16.804 66.199,16.577C66.226,16.354 66.187,16.123 66.2,15.895C66.214,15.671 66.353,15.446 66.353,15.218" style="fill:rgb(255,189,56);fill-rule:nonzero;"/>
                </g>
                <g transform="matrix(-0.826212,-0.56336,0.56336,-0.826212,3667.24,2005.4)">
                    <path d="M50.352,11.756C50.792,11.712 51.812,12.697 51.613,13.429C51.505,13.822 50.827,14.336 50.352,14.41C49.611,14.523 48.61,13.485 49.035,12.654C49.249,12.235 49.76,12.032 50.352,11.756"/>
                </g>
                <g transform="matrix(1,0,0,-1,3582.78,1979.73)">
                    <path d="M60.64,12.31C59.063,11.62 57.874,13.337 58.947,14.402C60.542,15.022 61.681,13.444 60.64,12.31"/>
                </g>
                <g transform="matrix(1,0,0,-1,3582.88,1990.68)">
                    <path d="M60.54,20.063C60.796,18.972 59.55,18.344 58.646,17.97C56.922,17.257 53.456,17.175 51.373,17.871C50.579,18.136 50.405,18.313 49.778,18.967C49.27,19.498 48.671,19.996 49.38,20.462C49.983,20.388 50.193,19.914 50.676,19.564C51.951,18.643 54.081,18.168 56.455,18.468C57.187,18.561 57.822,18.921 58.547,19.067C59.166,19.408 59.524,20.439 60.54,20.063"/>
                </g>
            </g>
        </g>
    </g>
</svg>
