<?xml version="1.0" encoding="UTF-8" standalone="no"?>
<!DOCTYPE svg PUBLIC "-//W3C//DTD SVG 1.1//EN" "http://www.w3.org/Graphics/SVG/1.1/DTD/svg11.dtd">
<svg width="100%" height="100%" viewBox="0 0 46 41" version="1.1" xmlns="http://www.w3.org/2000/svg" xmlns:xlink="http://www.w3.org/1999/xlink" xml:space="preserve" xmlns:serif="http://www.serif.com/" style="fill-rule:evenodd;clip-rule:evenodd;stroke-linejoin:round;stroke-miterlimit:2;">
    <g transform="matrix(1,0,0,1,-3670,-1954)">
        <g id="result_2" transform="matrix(1.12616,0,0,1.06774,-493.978,-125.465)">
            <rect x="3697.68" y="1947.79" width="39.959" height="37.462" style="fill:none;"/>
            <g transform="matrix(0.88797,0,0,0.936559,416.489,124.759)">
                <g transform="matrix(1,0,0,-1,3575.91,1985.47)">
                    <path d="M121.772,32.686L121.772,12.707C121.772,9.95 124.01,7.713 126.767,7.713L134.758,7.713L140.368,0.875C141.086,0 142.415,0 143.135,0.875L148.744,7.713L156.736,7.713C159.493,7.713 161.731,9.95 161.731,12.707L161.731,32.686C161.731,35.444 159.493,37.681 156.736,37.681L126.767,37.681C124.01,37.681 121.772,35.444 121.772,32.686" style="fill:rgb(196,112,12);fill-rule:nonzero;"/>
                </g>
                <g transform="matrix(1,0,0,-1,3575.82,1978.33)">
                    <path d="M153.513,15.087C153.513,14.859 153.391,14.634 153.378,14.411C153.364,14.182 153.274,13.967 153.248,13.745C153.221,13.517 153.295,13.281 153.255,13.06C153.213,12.836 153.176,12.611 153.121,12.393C153.066,12.172 153.059,11.935 152.989,11.721C152.92,11.505 152.663,11.357 152.58,11.149C152.495,10.938 152.517,10.685 152.419,10.482C152.322,10.277 152.164,10.105 152.053,9.909C151.942,9.711 151.903,9.47 151.779,9.281C151.655,9.092 151.404,8.995 151.267,8.815C151.13,8.634 151.088,8.38 150.939,8.21C150.791,8.039 150.584,7.923 150.424,7.763C150.265,7.603 150.104,7.448 149.934,7.298C149.765,7.148 149.634,6.951 149.455,6.813C149.277,6.674 149.082,6.557 148.894,6.429C148.708,6.302 148.514,6.185 148.319,6.068C148.125,5.953 147.959,5.782 147.757,5.678C147.557,5.574 147.368,5.433 147.161,5.341C146.955,5.249 146.721,5.21 146.509,5.13C146.298,5.05 146.036,5.116 145.819,5.048C145.604,4.98 145.424,4.791 145.205,4.733C144.986,4.677 144.749,4.701 144.526,4.655C144.305,4.61 144.087,4.55 143.862,4.517C143.639,4.484 143.415,4.456 143.188,4.434C142.965,4.412 142.743,4.33 142.515,4.319C142.291,4.308 142.061,4.283 141.834,4.283C141.606,4.283 141.383,4.439 141.159,4.45C140.931,4.461 140.705,4.432 140.481,4.454C140.255,4.476 140.011,4.364 139.789,4.398C139.563,4.431 139.335,4.476 139.115,4.521C138.892,4.566 138.719,4.825 138.501,4.881C138.281,4.938 138.016,4.829 137.801,4.896C137.584,4.966 137.374,5.063 137.165,5.143C136.952,5.223 136.793,5.429 136.587,5.52C136.379,5.613 136.193,5.734 135.992,5.838C135.79,5.942 135.591,6.037 135.398,6.152C135.203,6.268 134.954,6.295 134.768,6.422C134.58,6.55 134.361,6.637 134.183,6.775C134.003,6.914 133.827,7.063 133.657,7.213C133.488,7.362 133.405,7.605 133.246,7.766C133.086,7.926 132.935,8.09 132.786,8.26C132.638,8.431 132.363,8.502 132.225,8.682C132.089,8.862 132.124,9.165 131.999,9.354C131.874,9.543 131.685,9.688 131.573,9.886C131.463,10.082 131.38,10.293 131.283,10.499C131.185,10.701 131.071,10.897 130.987,11.108C130.904,11.318 130.919,11.56 130.849,11.777C130.781,11.991 130.692,12.194 130.636,12.416C130.581,12.634 130.49,12.841 130.448,13.066C130.408,13.287 130.281,13.497 130.255,13.725C130.228,13.948 130.359,14.185 130.347,14.414C130.334,14.637 130.219,14.859 130.219,15.087C130.219,15.319 130.199,15.551 130.213,15.778C130.226,16.01 130.365,16.226 130.393,16.452C130.421,16.681 130.389,16.916 130.43,17.14C130.471,17.368 130.604,17.571 130.658,17.792C130.715,18.016 130.598,18.287 130.667,18.505C130.737,18.725 130.94,18.898 131.023,19.11C131.106,19.325 131.186,19.539 131.283,19.746C131.379,19.954 131.382,20.213 131.492,20.413C131.602,20.615 131.801,20.768 131.924,20.961C132.046,21.155 132.204,21.324 132.338,21.509C132.474,21.695 132.652,21.841 132.798,22.017C132.945,22.194 133.02,22.43 133.178,22.597C133.336,22.763 133.464,22.962 133.632,23.119C133.8,23.275 133.941,23.471 134.118,23.616C134.295,23.762 134.573,23.78 134.759,23.916C134.944,24.05 135.164,24.127 135.358,24.25C135.551,24.373 135.724,24.523 135.925,24.634C136.125,24.745 136.328,24.844 136.534,24.944C136.741,25.043 136.945,25.139 137.158,25.226C137.369,25.313 137.534,25.53 137.751,25.605C137.967,25.679 138.199,25.72 138.421,25.782C138.641,25.843 138.855,25.951 139.08,26.001C139.303,26.05 139.547,26.012 139.775,26.048C140,26.085 140.241,26.001 140.47,26.025C140.697,26.05 140.912,26.234 141.142,26.246C141.37,26.259 141.603,26.301 141.834,26.301C142.065,26.301 142.297,26.241 142.524,26.229C142.755,26.217 142.975,26.095 143.202,26.07C143.432,26.045 143.68,26.161 143.906,26.124C144.133,26.088 144.352,25.989 144.574,25.939C144.799,25.89 145.029,25.85 145.249,25.789C145.471,25.727 145.65,25.532 145.866,25.458C146.083,25.382 146.325,25.376 146.535,25.289C146.749,25.202 146.95,25.091 147.156,24.992C147.364,24.893 147.532,24.723 147.732,24.613C147.932,24.501 148.113,24.367 148.305,24.245C148.499,24.121 148.788,24.14 148.973,24.005C149.159,23.871 149.288,23.659 149.465,23.513C149.642,23.367 149.85,23.255 150.017,23.099C150.185,22.942 150.251,22.685 150.408,22.519C150.565,22.352 150.72,22.19 150.866,22.014C151.013,21.837 151.203,21.701 151.338,21.515C151.474,21.33 151.569,21.121 151.691,20.927C151.814,20.733 151.999,20.578 152.109,20.377C152.219,20.176 152.385,19.999 152.482,19.79C152.579,19.583 152.67,19.368 152.754,19.153C152.837,18.94 152.786,18.678 152.856,18.458C152.925,18.241 152.971,18.02 153.026,17.796C153.081,17.575 153.095,17.349 153.137,17.122C153.177,16.898 153.33,16.691 153.357,16.462C153.385,16.236 153.346,16.004 153.359,15.772C153.372,15.546 153.513,15.319 153.513,15.087" style="fill:rgb(255,189,56);fill-rule:nonzero;"/>
                </g>
                <g transform="matrix(1,0,0,-1,3575.76,1973.69)">
                    <path d="M138.628,11.832C137.596,11.468 136.422,11.635 136.209,12.638C135.975,13.737 136.787,14.553 137.821,14.352C138.679,14.185 139.177,13.067 138.628,11.832"/>
                </g>
                <g transform="matrix(-0.669104,0.743169,-0.743169,-0.669104,3830.44,1860.49)">
                    <path d="M147.342,11.706C147.71,12.153 148.258,12.611 148.413,13.046C148.209,13.511 147.967,13.975 147.342,14.418C146.202,14.62 145.218,13.042 145.889,12.2C146.288,11.699 146.716,11.854 147.342,11.706"/>
                </g>
                <g transform="matrix(1,0,0,-1,3575.76,1985.06)">
                    <path d="M147.398,16.947C146.819,16.514 146.575,17.149 146.29,17.351C145.954,17.587 145.523,17.799 145.382,18.156C143.753,18.782 142.146,20.355 139.738,19.467C139.542,19.395 139.369,19.238 139.133,19.063C138.646,18.702 138.259,18.213 137.722,17.753C137.36,17.445 136.948,17.015 136.411,17.149C136.11,17.848 136.774,18.501 137.218,18.962C137.641,19.403 138.207,20.011 138.729,20.273C139.776,20.798 142.034,20.924 143.265,20.575C143.603,20.479 144.129,20.104 144.576,19.87C145.024,19.635 145.521,19.401 145.886,19.164C146.676,18.652 147.733,17.847 147.398,16.947"/>
                </g>
            </g>
        </g>
    </g>
</svg>
