<?xml version="1.0" encoding="utf-8"?>
<!-- Generator: Adobe Illustrator 27.6.1, SVG Export Plug-In . SVG Version: 6.00 Build 0)  -->
<svg version="1.1" id="Layer_1" xmlns="http://www.w3.org/2000/svg" xmlns:xlink="http://www.w3.org/1999/xlink" x="0px" y="0px"
	 viewBox="0 0 1920 1080" style="enable-background:new 0 0 1920 1080;" xml:space="preserve">
<style type="text/css">
	.st0{opacity:0.3;fill:#FFFFFF;}
	.st1{opacity:0.5;fill:#FFFFFF;}
</style>
<path class="st0" d="M478.17,1080H0.5V930.01c0.18-0.02,0.37-0.04,0.55-0.06c89.94-10.05,171.34-86.35,271.72-86.35
	c35.59,0,73.57,9.59,115.16,35.13c-7.97,7.41-12.95,17.99-12.95,29.73c0,22.43,18.18,40.61,40.61,40.61
	c13.13,0,24.8-6.22,32.22-15.88C477.9,975.96,486.14,1028.31,478.17,1080z"/>
<path class="st0" d="M1920.5,0v206.27c-5.96,0.62-12.02,0.93-18.14,0.93c-47.61,0-90.78-19.02-122.32-49.87
	c7.47-6.05,12.25-15.3,12.25-25.67c0-18.24-14.79-33.02-33.02-33.02c-6.16,0-11.92,1.68-16.85,4.61c-9.65-21.7-15.01-45.72-15.01-71
	c0-11.02,1.02-21.8,2.97-32.25H1920.5z"/>
<path class="st0" d="M348.85,0H239.36c9.76,25.12,15.11,52.44,15.11,81c0,15.27-1.53,30.16-4.44,44.57
	c56.07-1.9,100.94-47.96,100.94-104.49C350.97,13.86,350.24,6.81,348.85,0z M235.78,0H144c-1.4,6.81-2.13,13.86-2.13,21.08
	c0,57.74,46.81,104.55,104.55,104.55h0.19c2.96-14.41,4.52-29.34,4.52-44.63C251.13,52.4,245.68,25.07,235.78,0z"/>
<path class="st0" d="M415.59,867.85c-10.69,0-20.41,4.13-27.66,10.87c3.36,2.06,6.74,4.23,10.14,6.5
	c20.69,13.81,37.13,30.04,49.74,47.96c5.26-6.85,8.39-15.42,8.39-24.72C456.2,886.04,438.02,867.85,415.59,867.85L415.59,867.85z"/>
<path class="st1" d="M387.93,878.73c-7.97,7.41-12.95,17.99-12.95,29.74c0,22.43,18.18,40.61,40.61,40.61
	c13.13,0,24.8-6.23,32.22-15.89c-12.61-17.92-29.04-34.15-49.74-47.96C394.67,882.95,391.29,880.79,387.93,878.73L387.93,878.73z"/>
<path class="st0" d="M1742.42,103.25c-9.68,5.76-16.17,16.32-16.17,28.41c0,18.24,14.79,33.02,33.02,33.02
	c7.87,0,15.1-2.75,20.77-7.35C1764.31,141.95,1751.48,123.63,1742.42,103.25L1742.42,103.25z"/>
<path class="st1" d="M1759.27,98.64c-6.15,0-11.92,1.68-16.85,4.62c9.06,20.38,21.89,38.7,37.62,54.08
	c7.47-6.05,12.25-15.31,12.25-25.67C1792.29,113.42,1777.5,98.64,1759.27,98.64L1759.27,98.64z"/>
<path class="st0" d="M250.03,125.57c-20.66,102.27-111.04,179.27-219.4,179.27c-10.22,0-20.28-0.68-30.13-2.01v-3.37
	c9.85,1.34,19.91,2.04,30.13,2.04c60.89,0,116.01-24.67,155.92-64.58c29.88-29.89,51.23-68.3,60.06-111.29
	C247.76,125.63,248.9,125.61,250.03,125.57z"/>
<path class="st1" d="M254.47,81c0,15.27-1.53,30.16-4.44,44.57l-3.42,0.06c2.96-14.41,4.52-29.34,4.52-44.63
	c0-28.6-5.45-55.93-15.35-81h3.58C249.12,25.12,254.47,52.44,254.47,81z"/>
<path class="st0" d="M792.01,1087.49c0.88-1.18,1.73-2.37,2.54-3.59C793.73,1085.11,792.88,1086.31,792.01,1087.49z M816.59,1009.93
	c-1.94-0.21-3.91-0.32-5.91-0.32c-29.99,0-54.3,24.31-54.3,54.3c0,5.6,0.85,11.01,2.43,16.09h38.3c0.03-0.02,0.04-0.05,0.05-0.08
	c0.28-0.43,0.55-0.86,0.81-1.29c0.06-0.09,0.12-0.18,0.16-0.27c0.34-0.56,0.67-1.11,1-1.67c0.25-0.4,0.48-0.8,0.71-1.2
	c0.39-0.68,0.78-1.36,1.15-2.05c0.04-0.07,0.08-0.13,0.11-0.2c0.14-0.25,0.27-0.49,0.4-0.74c0.05-0.08,0.09-0.16,0.13-0.24
	c0.23-0.42,0.45-0.84,0.67-1.27c0.06-0.1,0.11-0.2,0.15-0.3c0.17-0.3,0.32-0.6,0.47-0.91c0.27-0.52,0.53-1.04,0.78-1.56
	c0.26-0.51,0.51-1.03,0.75-1.55c0.35-0.74,0.69-1.48,1.03-2.23c0.34-0.75,0.67-1.5,0.99-2.25c0.11-0.25,0.22-0.5,0.32-0.76
	c0.39-0.93,0.77-1.86,1.14-2.8c0.27-0.68,0.53-1.37,0.78-2.06c0.25-0.66,0.5-1.34,0.73-2.01c1.05-2.97,1.98-5.99,2.81-9.05
	c0.25-0.93,0.49-1.87,0.72-2.81c0.01-0.04,0.02-0.07,0.03-0.11c0.22-0.91,0.43-1.82,0.63-2.73c0.14-0.62,0.27-1.25,0.4-1.88
	c0.15-0.72,0.29-1.44,0.42-2.16c0.11-0.56,0.21-1.12,0.31-1.69c0.32-1.88,0.61-3.77,0.84-5.68c0.06-0.43,0.11-0.86,0.16-1.29
	c0.06-0.45,0.11-0.91,0.15-1.37c0.07-0.62,0.13-1.23,0.18-1.85c0.04-0.39,0.07-0.79,0.1-1.19c0.06-0.64,0.1-1.28,0.14-1.92
	c0.01-0.09,0.02-0.18,0.02-0.27c0.03-0.37,0.05-0.75,0.06-1.12c0.04-0.53,0.06-1.05,0.08-1.58c0.03-0.72,0.06-1.44,0.08-2.17
	c0.01-0.25,0.01-0.51,0.01-0.77c0.02-0.83,0.03-1.66,0.03-2.5C816.61,1011.59,816.6,1010.76,816.59,1009.93z M818.51,1010.17
	c0.01,0.75,0.02,1.5,0.02,2.25c0,0.68-0.01,1.36-0.02,2.04c0,0.48-0.01,0.96-0.03,1.44c-0.02,0.84-0.05,1.67-0.09,2.5
	c-0.03,0.73-0.07,1.46-0.12,2.18c-0.02,0.38-0.04,0.77-0.08,1.16c-0.04,0.61-0.09,1.24-0.14,1.85c-0.07,0.88-0.16,1.75-0.25,2.62
	c-0.03,0.27-0.06,0.53-0.09,0.79c-0.09,0.87-0.2,1.73-0.32,2.6c-0.07,0.56-0.15,1.12-0.23,1.68c-0.13,0.83-0.26,1.67-0.4,2.5
	c-0.1,0.6-0.2,1.19-0.31,1.78c-0.09,0.51-0.18,1.03-0.29,1.54c-0.12,0.66-0.26,1.33-0.4,1.99c-0.12,0.59-0.25,1.17-0.38,1.76
	c-0.07,0.31-0.14,0.63-0.22,0.94c-0.08,0.36-0.16,0.71-0.25,1.07c-0.16,0.68-0.33,1.35-0.51,2.02c-0.24,0.9-0.48,1.8-0.73,2.7
	c-0.25,0.89-0.52,1.79-0.79,2.68c-0.22,0.7-0.44,1.4-0.67,2.1c-0.14,0.44-0.29,0.89-0.44,1.34c-0.08,0.25-0.17,0.5-0.26,0.75
	c-0.21,0.63-0.44,1.27-0.67,1.9c-0.17,0.47-0.34,0.92-0.52,1.39c-0.35,0.93-0.71,1.86-1.08,2.78c-0.7,1.76-1.45,3.5-2.25,5.22
	c-0.05,0.14-0.11,0.28-0.19,0.42c-0.12,0.28-0.24,0.56-0.39,0.84c-0.04,0.12-0.1,0.25-0.17,0.37c-0.1,0.22-0.2,0.44-0.31,0.65
	c-0.1,0.22-0.2,0.44-0.32,0.66c-0.26,0.57-0.55,1.14-0.84,1.7c-0.06,0.13-0.12,0.25-0.19,0.38c-0.31,0.61-0.62,1.21-0.95,1.81
	c0.01,0.01,0,0.02-0.01,0.03c-0.27,0.52-0.54,1.01-0.82,1.53c-0.39,0.72-0.79,1.44-1.2,2.15c-0.36,0.62-0.73,1.25-1.1,1.87
	c-0.34,0.58-0.69,1.16-1.05,1.73c-0.01,0.04-0.04,0.08-0.07,0.12h63.17c1.58-5.08,2.43-10.49,2.43-16.09
	C864.98,1036.58,844.79,1013.97,818.51,1010.17z"/>
<path class="st0" d="M1367.43,17.42c-1.65,50.69-16.76,101-44.29,143.62c-10.3,15.96-24.03,31.97-42.79,34.96
	c-2.06,0.33-4.12,0.49-6.16,0.49c-17.75,0-34.49-11.89-45.68-26.18c-12.47-15.94-20.26-35.05-31.88-51.63
	c-27.61-39.39-75.26-61.47-122.21-66.28c-4.95-0.51-10.03-0.71-15.18-0.71c-9.33,0-18.94,0.65-28.6,1.3s-19.39,1.3-28.95,1.3
	c-21.71,0-42.59-3.35-60.06-17.68C930.42,27.43,923.54,14.22,920.07,0h447.39C1367.63,5.8,1367.62,11.61,1367.43,17.42z"/>
<path class="st0" d="M692.24,124.28c-22.94,0-47.23-6.72-68.47-20.18C589,82.05,553.07,43.09,557.57,0h213.42
	c3.35,9.18,5.7,18.68,6.93,28.3C786.08,92.24,742.35,124.28,692.24,124.28z"/>
<path class="st0" d="M818.51,1010.17c-0.64-0.09-1.28-0.17-1.92-0.24c-0.66-34.03-14.72-64.77-37.12-87.18
	c-22.95-22.95-54.65-37.14-89.67-37.14c-35.02,0-66.72,14.19-89.67,37.14s-37.14,54.65-37.14,89.67c0,24.85,7.14,48.02,19.5,67.58
	h-2.27c-12.14-19.64-19.15-42.79-19.15-67.58c0-71.09,57.63-128.73,128.73-128.73C760.15,883.69,817.31,940.11,818.51,1010.17z"/>
<path class="st0" d="M792.01,1087.49c0.87-1.18,1.72-2.38,2.54-3.59C793.74,1085.12,792.89,1086.31,792.01,1087.49z"/>
<path class="st1" d="M818.53,1012.42c0,0.68-0.01,1.36-0.02,2.04c0,0.48-0.01,0.96-0.03,1.44c-0.02,0.84-0.05,1.67-0.09,2.5
	c-0.03,0.73-0.07,1.46-0.12,2.18c-0.02,0.38-0.04,0.77-0.08,1.16c-0.04,0.61-0.09,1.24-0.14,1.85c-0.07,0.88-0.16,1.75-0.25,2.62
	c-0.03,0.27-0.06,0.53-0.09,0.79c-0.09,0.87-0.2,1.73-0.32,2.6c-0.07,0.56-0.15,1.12-0.23,1.68c-0.13,0.83-0.26,1.67-0.4,2.5
	c-0.1,0.6-0.2,1.19-0.31,1.78c-0.09,0.51-0.18,1.03-0.29,1.54c-0.12,0.66-0.26,1.33-0.4,1.99c-0.12,0.59-0.25,1.17-0.38,1.76
	c-0.07,0.31-0.14,0.63-0.22,0.94c-0.08,0.36-0.16,0.71-0.25,1.07c-0.16,0.68-0.33,1.35-0.51,2.02c-0.24,0.9-0.48,1.8-0.73,2.7
	c-0.25,0.89-0.52,1.79-0.79,2.68c-0.22,0.7-0.44,1.4-0.67,2.1c-0.14,0.44-0.29,0.89-0.44,1.34c-0.08,0.25-0.17,0.5-0.26,0.75
	c-0.21,0.63-0.44,1.27-0.67,1.9c-0.17,0.47-0.34,0.92-0.52,1.39c-0.35,0.93-0.71,1.86-1.08,2.78c-0.7,1.76-1.45,3.5-2.25,5.22
	c-0.05,0.14-0.11,0.28-0.19,0.42c-0.12,0.28-0.25,0.56-0.39,0.84c-0.04,0.12-0.1,0.25-0.17,0.37c-0.1,0.22-0.2,0.44-0.31,0.65
	c-0.1,0.22-0.2,0.44-0.32,0.66c-0.27,0.57-0.55,1.14-0.84,1.7c-0.06,0.13-0.12,0.25-0.19,0.38c-0.31,0.61-0.62,1.21-0.95,1.81
	c0.01,0.01,0,0.02-0.01,0.03c-0.27,0.52-0.54,1.01-0.82,1.53c-0.39,0.72-0.79,1.44-1.2,2.15c-0.36,0.62-0.73,1.25-1.1,1.87
	c-0.34,0.58-0.69,1.16-1.05,1.73c-0.01,0.04-0.04,0.08-0.07,0.12h-2.27c0.03-0.02,0.04-0.05,0.05-0.08
	c0.28-0.43,0.55-0.86,0.81-1.29c0.06-0.09,0.12-0.18,0.16-0.27c0.35-0.55,0.68-1.11,1-1.67c0.25-0.4,0.48-0.8,0.71-1.2
	c0.39-0.68,0.78-1.36,1.15-2.05c0.04-0.07,0.08-0.13,0.11-0.2c0.14-0.25,0.27-0.49,0.4-0.74c0.05-0.08,0.09-0.16,0.13-0.24
	c0.23-0.42,0.45-0.84,0.67-1.27c0.06-0.1,0.11-0.2,0.15-0.3c0.17-0.3,0.32-0.6,0.47-0.91c0.27-0.52,0.53-1.04,0.78-1.56
	c0.26-0.51,0.51-1.03,0.75-1.55c0.36-0.74,0.7-1.48,1.03-2.23c0.34-0.75,0.67-1.5,0.99-2.25c0.11-0.25,0.22-0.5,0.32-0.76
	c0.4-0.93,0.77-1.86,1.14-2.8c0.27-0.68,0.53-1.37,0.78-2.06c0.25-0.66,0.5-1.34,0.73-2.01c1.05-2.97,1.98-5.99,2.81-9.05
	c0.25-0.93,0.49-1.87,0.72-2.81c0.01-0.04,0.02-0.07,0.03-0.11c0.22-0.91,0.43-1.82,0.63-2.73c0.14-0.62,0.27-1.25,0.4-1.88
	c0.15-0.72,0.29-1.44,0.42-2.16c0.11-0.56,0.21-1.12,0.31-1.69c0.32-1.88,0.61-3.77,0.84-5.68c0.06-0.43,0.11-0.86,0.16-1.29
	c0.06-0.45,0.11-0.91,0.15-1.37c0.07-0.62,0.13-1.23,0.18-1.85c0.04-0.39,0.07-0.79,0.1-1.19c0.06-0.64,0.1-1.28,0.14-1.92
	c0.01-0.09,0.02-0.18,0.02-0.27c0.03-0.37,0.05-0.75,0.06-1.12c0.04-0.53,0.06-1.05,0.08-1.58c0.04-0.72,0.06-1.44,0.08-2.17
	c0.01-0.25,0.01-0.51,0.01-0.77c0.02-0.83,0.03-1.66,0.03-2.5c0-0.83-0.01-1.66-0.02-2.49c0.64,0.07,1.28,0.15,1.92,0.24
	C818.52,1010.92,818.53,1011.67,818.53,1012.42z"/>
<path class="st0" d="M1822.58,717.62h-0.11c-2.46,0.07-4.4,2.11-4.34,4.57c0.06,2.42,2.04,4.34,4.45,4.34h0.12
	c2.42-0.07,4.33-2.04,4.33-4.44v-0.13C1826.97,719.54,1824.99,717.62,1822.58,717.62z"/>
<path class="st0" d="M1845.04,718.14c-0.11-0.01-0.22-0.01-0.33-0.01c-2.31,0-4.26,1.79-4.43,4.13c-0.18,2.45,1.66,4.59,4.12,4.76
	c0.11,0.01,0.21,0.01,0.32,0.01c2.32,0,4.27-1.78,4.44-4.13C1849.34,720.45,1847.49,718.32,1845.04,718.14z"/>
<path class="st0" d="M1804.92,723.19c-0.28-2.25-2.2-3.9-4.41-3.9c-0.19,0-0.37,0.01-0.56,0.04c-2.44,0.3-4.17,2.53-3.86,4.97
	c0.28,2.25,2.2,3.9,4.41,3.9c0.18,0,0.37-0.01,0.56-0.04C1803.5,727.86,1805.23,725.63,1804.92,723.19z"/>
<path class="st0" d="M1867.46,720.88c-0.26-0.04-0.52-0.06-0.77-0.06c-2.13,0-4.01,1.52-4.38,3.69c-0.42,2.42,1.2,4.73,3.62,5.15
	c0.26,0.04,0.52,0.06,0.77,0.06c2.13,0,4.01-1.52,4.38-3.69C1871.5,723.61,1869.88,721.3,1867.46,720.88z"/>
<path class="st0" d="M1783.04,726.61c-0.47-2.07-2.31-3.46-4.34-3.46c-0.33,0-0.66,0.03-0.99,0.11c-2.4,0.55-3.9,2.94-3.35,5.33
	c0.47,2.07,2.31,3.46,4.34,3.46c0.33,0,0.66-0.03,0.99-0.11c2.06-0.47,3.46-2.31,3.46-4.33
	C1783.15,727.28,1783.12,726.94,1783.04,726.61z"/>
<path class="st0" d="M1889.49,725.85c-0.4-0.11-0.8-0.16-1.2-0.16c-1.95,0-3.73,1.29-4.28,3.25c-0.66,2.37,0.72,4.83,3.09,5.49
	c0.4,0.11,0.8,0.16,1.2,0.16c1.95,0,3.74-1.29,4.28-3.25C1893.24,728.97,1891.86,726.51,1889.49,725.85z"/>
<path class="st0" d="M1761.61,732.19c-0.63-1.85-2.36-3.03-4.22-3.03c-0.47,0-0.95,0.08-1.42,0.24c-2.33,0.79-3.58,3.31-2.8,5.64
	c0.63,1.86,2.36,3.03,4.22,3.03c0.47,0,0.95-0.07,1.42-0.23c1.86-0.63,3.04-2.36,3.04-4.22
	C1761.85,733.15,1761.77,732.66,1761.61,732.19z"/>
<path class="st0" d="M1910.92,733c-0.53-0.2-1.08-0.3-1.62-0.3c-1.78,0-3.46,1.07-4.15,2.83c-0.89,2.29,0.24,4.87,2.53,5.77
	c0.53,0.21,1.08,0.31,1.62,0.31c1.78,0,3.46-1.08,4.15-2.84C1914.34,736.48,1913.21,733.9,1910.92,733z"/>
<path class="st0" d="M1740.85,739.91c-0.75-1.65-2.37-2.62-4.06-2.62c-0.62,0-1.24,0.13-1.84,0.4c-2.24,1.02-3.23,3.66-2.21,5.89
	c0.74,1.65,2.36,2.62,4.05,2.62c0.62,0,1.24-0.13,1.84-0.4c1.64-0.75,2.62-2.37,2.62-4.06
	C1741.25,741.12,1741.12,740.5,1740.85,739.91z"/>
<path class="st0" d="M1720.96,749.66c-0.82-1.43-2.32-2.22-3.85-2.22c-0.76,0-1.53,0.19-2.23,0.6c-2.13,1.24-2.85,3.96-1.62,6.09
	c0.83,1.42,2.32,2.21,3.85,2.21c0.76,0,1.53-0.19,2.24-0.6C1721.47,754.51,1722.2,751.78,1720.96,749.66z"/>
<path class="st0" d="M1702.15,761.34c-0.87-1.2-2.24-1.84-3.62-1.84c-0.9,0-1.81,0.27-2.6,0.84c-1.99,1.44-2.44,4.22-1,6.22
	c0.87,1.2,2.23,1.84,3.61,1.84c0.9,0,1.82-0.27,2.6-0.84C1703.14,766.12,1703.59,763.34,1702.15,761.34z"/>
<path class="st0" d="M1684.58,774.84c-0.88-0.99-2.1-1.5-3.33-1.5c-1.05,0-2.1,0.37-2.95,1.12c-1.84,1.63-2.01,4.44-0.38,6.28
	c0.88,1,2.1,1.5,3.33,1.5c1.05,0,2.11-0.37,2.95-1.12C1686.04,779.49,1686.21,776.68,1684.58,774.84z"/>
<path class="st0" d="M1668.44,790.01c-0.85-0.79-1.94-1.19-3.02-1.19c-1.2,0-2.39,0.48-3.27,1.43c-1.67,1.81-1.56,4.62,0.24,6.29
	c0.86,0.8,1.95,1.19,3.03,1.19c1.2,0,2.39-0.48,3.27-1.43C1670.36,794.5,1670.25,791.68,1668.44,790.01z"/>
<path class="st0" d="M1653.89,806.7c-0.81-0.6-1.75-0.9-2.69-0.9c-1.35,0-2.68,0.61-3.55,1.77c-1.49,1.96-1.1,4.75,0.86,6.23
	c0.81,0.61,1.75,0.91,2.69,0.91c1.34,0,2.67-0.61,3.55-1.77C1656.23,810.98,1655.85,808.19,1653.89,806.7z"/>
<path class="st0" d="M1641.05,824.76c-0.72-0.44-1.52-0.65-2.31-0.65c-1.51,0-2.97,0.75-3.81,2.13c-1.28,2.1-0.62,4.84,1.48,6.12
	c0.73,0.44,1.53,0.65,2.32,0.65c1.5,0,2.96-0.76,3.8-2.13C1643.81,828.78,1643.15,826.04,1641.05,824.76z"/>
<path class="st0" d="M1630.08,844c-0.62-0.3-1.28-0.44-1.93-0.44c-1.66,0-3.25,0.93-4.01,2.52c-1.07,2.22-0.14,4.88,2.08,5.95
	c0.62,0.29,1.28,0.44,1.92,0.44c1.66,0,3.25-0.93,4.02-2.53C1633.23,847.73,1632.29,845.07,1630.08,844z"/>
<path class="st0" d="M1621.08,864.24c-0.5-0.18-1.01-0.27-1.52-0.27c-1.82,0-3.53,1.13-4.18,2.94c-0.84,2.31,0.35,4.86,2.67,5.7
	c0.5,0.18,1.01,0.27,1.51,0.27c1.82,0,3.53-1.12,4.19-2.94C1624.59,867.63,1623.39,865.08,1621.08,864.24z"/>
<path class="st0" d="M1614.16,885.28c-0.37-0.09-0.73-0.14-1.09-0.14c-1.99,0-3.81,1.35-4.32,3.37c-0.6,2.38,0.84,4.8,3.23,5.41
	c0.37,0.09,0.73,0.13,1.09,0.13c1.99,0,3.81-1.34,4.32-3.36C1617.99,888.3,1616.54,885.88,1614.16,885.28z"/>
<path class="st0" d="M1609.38,906.91c-0.22-0.04-0.44-0.05-0.65-0.05c-2.18,0-4.08,1.59-4.4,3.8c-0.03,0.22-0.05,0.44-0.05,0.66
	c0,2.17,1.59,4.06,3.8,4.4c0.22,0.03,0.44,0.04,0.66,0.04c2.17,0,4.07-1.59,4.4-3.8C1613.5,909.53,1611.82,907.27,1609.38,906.91z"
	/>
<path class="st0" d="M1606.79,928.9c-0.07,0-0.15-0.01-0.22-0.01c-2.36,0-4.33,1.86-4.44,4.24c0,0.07-0.01,0.15-0.01,0.22
	c0,2.36,1.86,4.33,4.24,4.44c0.08,0.01,0.15,0.01,0.22,0.01c2.36,0,4.33-1.86,4.44-4.24C1611.14,931.1,1609.25,929.02,1606.79,928.9
	z"/>
<path class="st0" d="M1606.6,951.04h-0.22c-2.46,0.13-4.35,2.22-4.23,4.67c0.12,2.38,2.09,4.23,4.45,4.23h0.22
	c2.46-0.13,4.35-2.22,4.23-4.67C1610.93,952.89,1608.96,951.04,1606.6,951.04z"/>
<path class="st0" d="M1613.21,976.86c-0.17-1.1-0.73-2.05-1.51-2.72c-0.79-0.68-1.8-1.07-2.89-1.07c-0.22,0-0.44,0.02-0.67,0.05
	c-2.43,0.37-4.11,2.63-3.74,5.06c0.33,2.21,2.23,3.8,4.4,3.8c0.22,0,0.44-0.02,0.67-0.05
	C1611.9,981.56,1613.57,979.29,1613.21,976.86z"/>
<path class="st0" d="M1617.51,998.12c-0.52-2.01-2.33-3.35-4.32-3.35c-0.36,0-0.73,0.05-1.1,0.14c-2.38,0.61-3.82,3.03-3.21,5.41
	c0.26,1.01,0.84,1.85,1.6,2.44c0.76,0.58,1.72,0.92,2.71,0.92c0.36,0,0.73-0.05,1.1-0.14
	C1616.67,1002.93,1618.11,1000.51,1617.51,998.12z"/>
<path class="st0" d="M1623.91,1018.85c-0.65-1.8-2.36-2.92-4.18-2.92c-0.51,0-1.02,0.08-1.53,0.27c-2.3,0.84-3.49,3.4-2.65,5.71
	c0.66,1.8,2.37,2.92,4.18,2.92c0.51,0,1.03-0.08,1.53-0.27C1623.57,1023.72,1624.76,1021.16,1623.91,1018.85z"/>
<path class="st0" d="M1632.37,1038.84c-0.77-1.59-2.36-2.52-4.01-2.52c-0.65,0-1.31,0.14-1.94,0.45c-2.21,1.07-3.14,3.73-2.07,5.94
	c0.77,1.59,2.36,2.52,4.01,2.52c0.66,0,1.32-0.15,1.94-0.45C1632.51,1043.71,1633.44,1041.05,1632.37,1038.84z"/>
<path class="st0" d="M1642.78,1057.87c-0.84-1.37-2.3-2.12-3.8-2.12c-0.79,0-1.6,0.21-2.32,0.66c-2.1,1.28-2.76,4.02-1.47,6.12
	c0.84,1.37,2.3,2.13,3.8,2.13c0.79,0,1.6-0.22,2.32-0.66C1643.41,1062.71,1644.07,1059.97,1642.78,1057.87z"/>
<path class="st0" d="M1655.67,1080c0.5-1.37,0.32-2.97-0.63-4.22c-0.88-1.15-2.21-1.76-3.55-1.76c-0.94,0-1.89,0.3-2.69,0.91
	c-1.6,1.21-2.14,3.29-1.48,5.07H1655.67z"/>
<path class="st0" d="M1500.25,1080h-345.89c4.95-16.94,13.19-33.25,24.92-48.09c36.54-46.19,94.38-69.07,152.21-69.07
	c33.62,0,67.24,7.74,96.66,23.11C1473.8,1009.8,1495.91,1043.93,1500.25,1080z"/>
</svg>
