<?xml version="1.0" encoding="UTF-8" standalone="no"?>
<!DOCTYPE svg PUBLIC "-//W3C//DTD SVG 1.1//EN" "http://www.w3.org/Graphics/SVG/1.1/DTD/svg11.dtd">
<svg width="100%" height="100%" viewBox="0 0 33 41" version="1.1" xmlns="http://www.w3.org/2000/svg" xmlns:xlink="http://www.w3.org/1999/xlink" xml:space="preserve" xmlns:serif="http://www.serif.com/" style="fill-rule:evenodd;clip-rule:evenodd;stroke-linejoin:round;stroke-miterlimit:2;">
    <g transform="matrix(1,0,0,1,-683,-253)">
        <g id="pop_C" transform="matrix(1.0417,0,0,1.025,-171.196,16.1694)">
            <rect x="820.222" y="231.266" width="30.719" height="39.062" style="fill:none;"/>
            <clipPath id="_clip1">
                <rect x="820.222" y="231.266" width="30.719" height="39.062"/>
            </clipPath>
            <g clip-path="url(#_clip1)">
                <g transform="matrix(0.959971,0,0,0.975613,560.248,-43.3708)">
                    <g>
                        <g transform="matrix(1,0,0,-1,35.041,319.315)">
                            <path d="M238.651,27.649C241.218,17.406 240.028,4.237 240.446,0.929C240.517,0.373 241.274,0.139 241.718,0.529C251.619,9.248 260.811,21.747 265.312,29.314C266.256,29.41 264.236,37.971 260.851,37.811C256.355,37.598 256.771,37.359 251.211,37.031C243.458,36.574 238.509,36.289 238.651,27.649Z" style="fill:white;fill-rule:nonzero;"/>
                        </g>
                        <g transform="matrix(1,0,0,-1,35,320.219)">
                            <path d="M236.832,30.502L236.814,26.49C236.926,26.346 236.95,26.106 237.022,25.906C237.09,25.674 237.108,25.595 237.245,24.903C237.362,24.355 237.441,23.794 237.528,23.236C237.87,21.003 238.079,18.739 238.206,16.475C238.327,14.21 238.378,11.947 238.41,9.696C238.425,8.221 238.443,6.755 238.459,5.298C238.461,4.436 238.539,3.651 238.581,2.849C238.767,2.251 238.907,1.548 239.153,1.15C239.244,0.928 239.338,0.716 239.444,0.541C239.558,0.353 239.604,0.168 239.846,-0.01C240.078,-0.188 240.428,-0.317 240.737,-0.338C241.063,-0.374 241.247,-0.273 241.493,-0.154L242.907,0.502L243.259,0.666L243.437,0.749L243.648,0.935L244.497,1.69L246.193,3.203C246.756,3.748 247.316,4.305 247.874,4.875C248.701,5.699 249.363,6.431 250.111,7.221C253.002,10.338 255.707,13.606 258.297,16.969C260.871,20.342 263.326,23.807 265.58,27.417L265.976,28.049L266.197,28.419L266.418,28.792C266.543,28.843 267.104,32.942 265.471,32.744C264.831,32.648 264.155,32.623 263.57,32.471L262.66,30.978C261.942,29.791 261.718,29.457 261.344,28.864C259.928,26.65 258.426,24.473 256.878,22.34C253.542,17.75 249.879,13.201 245.877,8.941L245.126,8.143L244.568,7.568L244.163,7.151C243.879,6.879 243.61,6.557 243.261,6.326C243.155,6.304 243.038,6.369 243.025,6.464C243.013,6.554 243,6.646 242.996,6.739L242.972,7.303L242.96,7.885L242.951,9.21C242.918,14.866 242.69,20.499 241.674,25.93L241.546,26.615C241.499,26.885 241.433,27.153 241.376,27.42C241.252,27.955 241.129,28.489 241.006,29.023C240.883,29.554 240.759,30.084 240.639,30.612C240.629,30.643 240.628,30.683 240.61,30.705L240.5,30.702L240.28,30.697L239.841,30.684L238.966,30.662" style="fill-rule:nonzero;"/>
                        </g>
                    </g>
                </g>
            </g>
        </g>
    </g>
</svg>
