<?xml version="1.0" encoding="UTF-8" standalone="no"?><!DOCTYPE svg PUBLIC "-//W3C//DTD SVG 1.1//EN" "http://www.w3.org/Graphics/SVG/1.1/DTD/svg11.dtd"><svg width="100%" height="100%" viewBox="0 0 27 21" version="1.1" xmlns="http://www.w3.org/2000/svg" xmlns:xlink="http://www.w3.org/1999/xlink" xml:space="preserve" xmlns:serif="http://www.serif.com/" style="fill-rule:evenodd;clip-rule:evenodd;stroke-linejoin:round;stroke-miterlimit:2;"><rect id="popR" x="0" y="0.436" width="26.434" height="20.331" style="fill:none;"/><clipPath id="_clip1"><rect x="0" y="0.436" width="26.434" height="20.331"/></clipPath><g clip-path="url(#_clip1)"><g><g><path d="M26.987,20.473c-10.196,0.595 -18.27,0.166 -24.615,-0.756c-0.507,0.58 -1.925,-1.584 -1.241,-3.595c1.211,-3.56 2.674,-9.623 4.482,-13.497c1.405,-3.009 1.558,-2.122 4.739,-1.611c5.955,7.666 14.499,16.34 16.91,18.751c0.253,0.253 0.082,0.687 -0.275,0.708" style="fill:#fff;fill-rule:nonzero;"/><path d="M10.522,0.891c0.001,0.033 -0.031,0.075 -0.004,0.101l0.064,0.085l0.126,0.172l0.267,0.36c0.192,0.255 0.383,0.512 0.575,0.771c0.394,0.51 0.791,1.024 1.182,1.531c0.397,0.502 0.79,0.998 1.169,1.477c1.523,1.908 2.861,3.525 3.375,4.296c1.769,1.983 3.008,3.371 4.239,4.75c1.236,1.374 2.47,2.733 4.277,4.617c-0.261,-0.217 -0.175,-0.093 0.071,0.187c0.126,0.139 0.289,0.318 0.466,0.515c0.09,0.097 0.185,0.198 0.281,0.301l0.143,0.154l0.018,0.02l0.01,0.009l0.002,0.003l0.001,0.001c-0.034,0.035 0.301,-0.3 0.16,-0.159l0.001,-0.002c0.005,-0.006 0.013,-0.012 0.02,-0.017c0.007,-0.007 0.018,-0.012 0.018,-0.012c0.003,0.005 -0.05,-0.004 -0.03,0c0.019,0.008 0.019,0.038 0.007,-0.024l-0.017,-0.259l-0.022,0.001l-0.041,0c-0.027,0.001 -0.053,0.001 -0.078,0.002c-0.051,0 -0.099,0.001 -0.143,0.001c-0.088,0 -0.16,0 -0.216,-0.001c-0.11,-0.002 -0.146,-0.01 -0.073,-0.025c0.036,-0.007 0.098,-0.016 0.192,-0.028c0.048,-0.005 0.103,-0.011 0.164,-0.018c0.032,-0.003 0.066,-0.007 0.101,-0.01l0.055,-0.006l0.028,-0.003l0.015,-0.001l0.007,-0.001l0.006,0c0.01,0.152 -0.019,-0.342 0.022,0.341c0.005,0.059 0.014,0.047 0,0.037c-0.014,-0.012 -0.014,-0.006 0.005,-0.005c0.017,0.003 0.031,-0.01 0.002,0.009l-0.014,0.011l-0.288,0.286l-0.05,-0.045l-0.095,-0.089c-0.25,-0.236 -0.471,-0.445 -0.671,-0.634c-0.398,-0.382 -0.708,-0.696 -1.006,-0.997c-0.594,-0.605 -1.14,-1.167 -2.212,-2.178l0.092,0.033c-2.41,-2.443 -4.778,-4.932 -7.093,-7.481c-1.151,-1.281 -2.298,-2.566 -3.416,-3.885c-0.563,-0.654 -1.112,-1.325 -1.665,-1.99l-0.925,-1.152l-0.502,-0.658l0.084,-0.532" style="fill-rule:nonzero;"/><path d="M2.625,20.015c-0.008,-0.001 -0.579,-0.023 -0.898,-0.205c-0.296,-0.168 -0.338,-0.634 -0.401,-0.822c0.453,-0.646 0.732,-0.613 0.732,-0.613c0.424,0.069 0.831,0.135 1.213,0.198c0.858,0.15 1.501,0.263 1.711,0.3l0.387,0.023c1.139,0.132 1.621,0.257 0.951,0.217l1.411,0.126l-0.162,-0.021l1.405,0.107c0.26,0.008 0.557,-0.028 0.161,-0.108c0.794,0.1 1.688,0.177 2.486,0.197c-2.222,-0.038 -4.983,-0.15 -7.303,-0.323c0.942,0.165 2.667,0.277 3.7,0.372c1.239,0.033 3.782,0.126 5.763,0.128c0.435,0.017 0.732,0.169 1.721,0.124c0.484,-0.082 1.116,0.024 1.938,-0.042c-0.944,-0.051 -1.866,-0.045 -2.822,-0.061c0.166,-0.1 2.326,-0.031 3.082,-0.065c0.356,0.039 2.201,-0.008 3.36,-0.005c-0.506,-0.092 0.935,-0.086 1.621,-0.168c0.781,-0.033 1.282,-0.02 0.966,0.032c0.258,0.115 -3.111,0.166 -2.017,0.254c0.286,-0.064 1.819,-0.087 2.644,-0.123c0.013,0.062 -0.562,0.071 -0.024,0.108c0.918,-0.047 1.895,-0.032 2.419,-0.122c-0.173,-0.008 -0.551,0.023 -0.82,0.039c0.598,-0.034 -1.028,-0.047 -2.605,-0.084c-1.578,-0.042 -3.107,-0.108 -2.336,-0.105c-0.2,0.033 1.501,0.093 3.156,0.107c1.655,0.021 3.264,0 2.867,0.028c-0.728,0.069 0.528,0.084 -0.226,0.146l-0.842,-0.031c-1.03,0.081 -1.448,0.2 -1.083,0.229c0.865,-0.041 -0.369,-0.095 -1.631,-0.141c-1.261,-0.055 -2.552,-0.116 -1.813,-0.101l-0.599,0.041c0.626,0.034 2.301,0.017 2.944,-0.076c0.006,0.061 0.85,0.05 1.551,0.039l0.247,-0.023c0.724,-0.007 1.734,-0.075 1.27,0.031c-4.247,0.214 2.829,0.477 -1.287,0.73c1.722,-0.228 -0.588,-0.099 -2.403,-0.053c-0.174,0.048 -0.979,0.151 -2.285,0.21c-1.131,0.01 -0.667,-0.037 -0.883,-0.068c-0.626,0.039 -1.825,0.07 -1.667,0.141c-0.882,-0.089 -1.41,0.056 -2.468,0.007c-0.931,-0.056 0.063,-0.036 -0.597,-0.089c-1.397,-0.019 -3.357,-0.081 -4.469,-0.137c-0.433,0.048 -1.752,0.069 -0.803,0.241c2.121,0.113 -0.799,-0.211 1.406,-0.064c-0.958,0.106 1.951,0.142 2.35,0.258c-0.708,0.05 -2.136,-0.014 -3.328,-0.104l0.241,-0.007c-1.051,-0.079 -3.149,-0.27 -4.29,-0.31c0.262,0.079 -0.238,0.072 0.532,0.159c-0.482,-0.041 -0.964,-0.087 -1.446,-0.139c-0.182,-0.037 -0.368,-0.075 0.05,-0.041c-0.677,-0.112 -1.359,-0.18 -1.886,-0.212c-0.018,0.005 -0.16,-0.013 -0.37,-0.045c-0.091,-0.014 -0.2,-0.031 -0.323,-0.051c-0.062,-0.01 -0.128,-0.021 -0.198,-0.033Z" style="fill-rule:nonzero;"/></g></g></g></svg>