<?xml version="1.0" encoding="UTF-8" standalone="no"?>
<!DOCTYPE svg PUBLIC "-//W3C//DTD SVG 1.1//EN" "http://www.w3.org/Graphics/SVG/1.1/DTD/svg11.dtd">
<svg width="100%" height="100%" viewBox="0 0 189 37" version="1.1" xmlns="http://www.w3.org/2000/svg" xmlns:xlink="http://www.w3.org/1999/xlink" xml:space="preserve" xmlns:serif="http://www.serif.com/" style="fill-rule:evenodd;clip-rule:evenodd;stroke-linejoin:round;stroke-miterlimit:2;">
    <g transform="matrix(1,0,0,1,-332,-178)">
        <g id="border_bubble" transform="matrix(1.00614,0,0,1.01482,-323.824,-298.521)">
            <rect x="652.131" y="469.946" width="186.852" height="35.474" style="fill:none;"/>
            <g transform="matrix(0.993894,0,0,-0.985398,652.702,505.145)">
                <g>
                    <path d="M60.711,35.41C70.577,35.252 149.407,35.08 159.274,34.944C163.353,34.888 167.435,34.903 171.516,34.898C173.328,34.895 175.113,34.747 176.881,34.482C181.254,33.827 184.16,32.054 185.418,28.983C186.32,26.783 186.691,24.524 186.813,22.258C187.031,18.229 186.332,14.257 184.775,10.369C184.336,9.274 183.738,8.223 183.034,7.197C181.367,4.77 178.695,3.197 175.051,2.406C172.321,1.813 169.518,1.479 166.7,1.203C161.148,0.659 155.559,0.517 149.963,0.364C137.822,0.031 56.713,-0.024 44.566,-0.015C36.021,-0.009 27.494,0.29 18.99,0.856C16.542,1.019 14.106,1.344 11.696,1.701C7.359,2.344 4.485,4.209 2.871,7.106C1.819,8.992 1.423,10.977 0.922,12.945C-0.327,17.853 -0.185,22.777 0.622,27.716C1.079,30.506 3.212,32.245 6.861,33.113C8.47,33.495 10.153,33.751 11.829,33.957C13.601,34.175 15.4,34.328 17.196,34.4C21.647,34.579 26.102,34.714 30.557,34.833C38.616,35.049 46.675,35.251 54.736,35.436C56.725,35.482 58.718,35.443 60.71,35.443C60.71,35.432 60.71,35.421 60.711,35.41M60.966,1.903C67.674,1.943 143.94,2.019 151.239,2.24C156.831,2.41 162.419,2.555 167.956,3.182C170.203,3.437 172.425,3.755 174.602,4.245C177.49,4.895 179.562,6.178 180.778,8.112C181.428,9.146 182.019,10.212 182.439,11.302C183.945,15.199 184.475,19.181 184.144,23.209C183.986,25.142 183.544,27.054 182.7,28.912C181.919,30.631 180.302,31.763 177.925,32.365C176.766,32.659 175.574,32.885 174.325,32.919C172.998,32.954 171.673,33.033 170.346,33.05C165.036,33.118 159.725,33.169 154.415,33.226C146.733,33.308 70.086,33.366 62.407,33.593C58.62,33.705 54.797,33.791 51.031,33.56C45.446,33.217 39.85,33.283 34.265,33.058C28.398,32.82 22.508,32.902 16.646,32.509C13.906,32.326 11.176,32.107 8.515,31.597C5.237,30.969 3.298,29.53 3.072,27.064C2.907,25.265 2.608,23.47 2.532,21.67C2.349,17.368 3.33,13.154 4.729,8.985C4.944,8.342 5.338,7.721 5.729,7.116C6.948,5.232 8.998,4.039 11.87,3.569C12.792,3.418 13.721,3.282 14.652,3.16C20.734,2.365 26.902,2.216 33.055,2.031C42.155,1.757 51.264,1.794 60.966,1.903" style="fill-rule:nonzero;"/>
                </g>
            </g>
        </g>
    </g>
</svg>
