<?xml version="1.0" encoding="UTF-8" standalone="no"?>
<!DOCTYPE svg PUBLIC "-//W3C//DTD SVG 1.1//EN" "http://www.w3.org/Graphics/SVG/1.1/DTD/svg11.dtd">
<svg width="100%" height="100%" viewBox="0 0 129 85" version="1.1" xmlns="http://www.w3.org/2000/svg" xmlns:xlink="http://www.w3.org/1999/xlink" xml:space="preserve" xmlns:serif="http://www.serif.com/" style="fill-rule:evenodd;clip-rule:evenodd;stroke-linejoin:round;stroke-miterlimit:2;">
    <g transform="matrix(1,0,0,1,-392,-29)">
        <g id="bubble_qa" transform="matrix(1.02414,0,0,1.01593,-21.1433,126.649)">
            <rect x="403.644" y="-96.118" width="124.983" height="83.667" style="fill:none;"/>
            <g transform="matrix(0.976428,0,0,0.984316,10.9875,-0.851374)">
                <g transform="matrix(1,0,0,-1,388.072,-12.5869)">
                    <path d="M25.01,12.077C27.11,9.675 29.647,7.71 32.716,6.392C36.368,4.824 40.32,4.096 44.249,3.496C64.644,0.381 85.546,0.354 105.932,3.614C113.278,4.788 120.664,7.092 126.384,11.848C141.966,24.804 142.891,50.496 132.469,66.903C129.094,72.217 125.015,75.621 120.46,77.823C111.371,82.217 100.384,81.826 89.297,82.27C77.232,82.754 65.053,83.177 53.098,81.122C44.34,79.617 35.129,77.49 27.717,72.344C20.001,66.989 16.715,58.554 16.115,49.405C15.754,43.896 15.884,37.25 17.03,30.78" style="fill:white;fill-rule:nonzero;"/>
                </g>
                <g transform="matrix(1,0,0,-1,388.072,-12.4389)">
                    <path d="M81.892,0.336C82.411,0.348 82.931,0.356 83.451,0.382C78.41,0.157 73.101,0.168 67.881,0.396C73.553,0.009 79.771,-0.119 85.654,0.169C91.535,0.447 97.074,1.141 101.372,2.136C101.623,2.058 102.497,2.078 103.668,2.182C104.84,2.281 106.307,2.423 107.771,2.647C109.232,2.863 110.66,3.162 111.735,3.412C112.807,3.678 113.526,3.886 113.573,3.933C115.801,4.664 118.032,5.515 120.189,6.605C118.699,5.869 117.176,5.231 115.642,4.67C117.176,5.231 118.699,5.869 120.189,6.605C121.896,7.457 123.566,8.443 125.153,9.589C125.943,10.161 126.722,10.771 127.456,11.426C127.822,11.755 128.189,12.085 128.556,12.415C128.904,12.766 129.251,13.117 129.602,13.469C130.967,14.905 132.251,16.444 133.379,18.111C134.504,19.779 135.51,21.541 136.387,23.38C139.85,30.769 141.133,39.306 140.318,47.758C140.094,50.104 139.56,53.448 138.434,57.174C137.857,59.031 137.139,60.981 136.251,62.933C135.366,64.887 134.279,66.819 133.061,68.681C131.822,70.532 130.404,72.284 128.842,73.821C127.286,75.362 125.592,76.681 123.896,77.752C120.493,79.904 117.146,81.012 114.803,81.676L113.777,81.956C113.434,82.042 113.089,82.114 112.745,82.193C112.4,82.27 112.055,82.347 111.709,82.425C111.362,82.488 111.013,82.552 110.663,82.616C111.822,82.408 112.396,82.256 112.972,82.125C113.549,82.003 114.12,81.84 115.264,81.52C112.368,82.259 109.576,82.652 106.888,82.902C104.199,83.149 101.609,83.25 99.073,83.318C99.962,83.221 100.117,83.157 102.232,82.954C101.368,83.026 100.508,83.071 99.646,83.131C97.28,83.065 91.877,83.197 89.347,83.229C89.896,83.299 87.896,83.4 86.13,83.479L86.826,83.392C80.125,83.7 72.307,83.798 66.282,83.497C65.443,83.453 64.812,83.455 64.429,83.466C62.506,83.315 60.583,83.146 58.668,82.9C58.882,82.98 57.684,82.896 56.777,82.785C55.87,82.685 55.25,82.617 56.618,82.841C54.47,82.495 52.319,82.102 50.209,81.695C48.095,81.282 46.009,80.824 44.019,80.25C40.431,79.362 36.827,78.19 33.351,76.591C31.62,75.779 29.926,74.854 28.304,73.799C27.904,73.526 27.493,73.273 27.101,72.981L25.931,72.098C25.183,71.467 24.434,70.833 23.756,70.123C22.379,68.726 21.162,67.168 20.134,65.498C19.099,63.83 18.287,62.037 17.63,60.203C16.977,58.366 16.498,56.477 16.16,54.573C15.822,52.67 15.663,50.744 15.572,48.841L15.64,49.21C15.52,46.546 15.569,44.037 15.711,41.395C15.855,38.752 16.101,35.975 16.525,32.77C16.625,32.206 17.455,27.552 20.213,22.362C22.493,18.07 21.395,22.917 21.372,22.967C21.372,22.967 18.927,28.907 18.371,30.401C18.188,30.892 18.035,31.935 18.035,31.935C17.521,35.27 17.255,38.655 17.197,42.053C17.167,43.752 17.188,45.454 17.259,47.156C17.297,48.005 17.341,48.86 17.41,49.703L17.522,50.96C17.563,51.379 17.627,51.794 17.678,52.211C18.2,56.652 19.564,61.222 22.16,65.079C23.444,67.007 25.012,68.75 26.8,70.226C28.582,71.69 30.61,72.943 32.679,74.01C37.157,76.309 42.255,77.878 47.281,78.993C49.791,79.55 52.302,80.041 54.701,80.437C57.103,80.828 59.427,81.136 61.621,81.338C62.666,81.453 63.573,81.483 64.438,81.519C65.304,81.529 66.133,81.538 67.031,81.548C69.056,81.649 71.223,81.697 73.479,81.714C75.735,81.721 78.078,81.69 80.458,81.633C85.21,81.521 90.12,81.275 94.736,81.197C94.563,81.203 94.396,81.21 94.285,81.214C99.179,81.086 102.821,80.857 107.498,80.334C107.479,80.373 108.201,80.275 108.554,80.246C108.651,80.204 109.159,80.147 109.957,79.996C110.357,79.925 110.832,79.842 111.37,79.747C111.904,79.636 112.5,79.511 113.146,79.376C115.71,78.785 119.021,77.746 122.025,76.033C123.53,75.187 124.943,74.174 126.195,73.108C127.447,72.042 128.521,70.908 129.404,69.863C131.172,67.769 132.154,66.027 132.354,65.668C132.482,65.461 132.612,65.251 132.745,65.037C132.867,64.817 132.991,64.594 133.117,64.369C135.458,60.001 136.947,55.11 137.659,50.315C138.378,45.512 138.333,40.808 137.826,36.619C137.672,34.79 137.35,32.744 137.051,31.22C136.585,29.796 136.659,29.474 136.057,27.767C135.585,26.718 135.168,25.783 134.777,25.021C134.415,24.245 134.086,23.644 133.88,23.221C133.464,22.376 133.486,22.272 134.068,23.298C133.245,21.61 132.28,19.984 131.191,18.516C130.116,17.041 128.961,15.687 127.768,14.527C126.693,13.417 125.536,12.4 124.295,11.466C123.771,11.061 123.333,10.788 122.958,10.57C122.588,10.345 122.266,10.197 121.958,10.064C120.508,9.19 119.952,8.956 119.39,8.702C119.109,8.573 118.818,8.45 118.391,8.28C118.178,8.193 117.933,8.091 117.637,7.969C117.338,7.855 116.989,7.721 116.573,7.562C116.15,7.462 114.074,6.635 111.891,6.013C109.717,5.365 107.463,4.892 106.958,4.82L107.535,4.944C105.489,4.574 103.729,4.418 102.008,4.211C100.277,4.059 98.564,3.863 96.521,3.663C90.85,3.078 84.895,2.68 79.035,2.547C73.178,2.42 67.418,2.561 62.146,2.919C62.09,2.86 62.673,2.828 63.283,2.79C63.893,2.752 64.532,2.727 64.589,2.639C58.36,2.965 52.116,3.756 45.898,4.674C44.779,4.863 43.42,5.136 42.921,5.261C40.968,5.644 41.751,5.397 40.33,5.685L40.161,5.834C39.118,5.999 38.379,6.209 37.666,6.433C36.958,6.662 36.267,6.885 35.34,7.184C35.229,7.174 34.556,7.399 33.921,7.655C33.932,7.721 33.431,7.909 32.981,8.115C32.524,8.316 32.093,8.534 32.162,8.562L32.141,8.563C31.784,8.749 31.528,8.879 31.115,9.148C30.946,9.237 30.423,9.515 29.753,9.946C29.085,10.378 28.27,10.966 27.508,11.629C27.317,11.794 27.127,11.962 26.944,12.133C26.852,12.218 26.76,12.302 26.673,12.389L26.54,12.517L26.303,12.76C26.144,12.928 25.987,13.094 25.833,13.256L25.605,13.496C24.508,16.761 21.424,22.967 21.372,22.967L20.213,22.362C19.789,22.293 24.687,11.915 24.757,11.927C24.791,11.933 24.827,11.939 24.864,11.945C24.881,11.945 24.903,11.957 24.917,11.948L24.955,11.907C25.061,11.798 25.175,11.68 25.294,11.556C25.436,11.415 25.586,11.268 25.74,11.115C26.065,10.805 26.415,10.481 26.777,10.177C28.212,8.934 29.811,8.018 29.702,8.07C30.59,7.519 30.773,7.318 31.71,6.908C31.74,6.908 31.182,7.161 30.386,7.607C29.59,8.054 28.563,8.709 27.641,9.44C26.712,10.158 25.88,10.954 25.36,11.484C25.132,11.701 24.986,11.898 24.889,11.944C24.769,11.923 24.763,11.92 24.906,11.942C24.968,11.87 25.11,11.697 25.331,11.468C25.586,11.2 25.953,10.827 26.385,10.436C27.249,9.643 28.424,8.723 29.689,7.963C32.21,6.398 35.045,5.637 35.326,5.476C36.065,5.242 36.97,5.009 36.81,5.113C38.067,4.751 36.401,5.104 37.29,4.815C37.312,4.819 37.223,4.862 37.511,4.785L38.366,4.501C40.367,4.116 43.289,3.513 45.413,3.343C44.794,3.369 44.083,3.353 42.72,3.518L42.488,3.588C42.293,3.6 41.177,3.775 41.198,3.714C42.477,3.448 43.58,3.278 44.944,3.142C45.192,3.09 45.48,3.03 45.675,2.99C45.671,2.998 45.651,3.007 45.657,3.015C46.095,2.916 46.048,2.917 45.883,2.918C45.861,2.917 45.834,2.916 45.787,2.918C46.571,2.622 50.864,2.321 53.217,2.002C53.916,1.953 53.285,2.023 54.156,1.965C55.36,1.798 56.379,1.677 57.413,1.567C58.447,1.456 59.495,1.329 60.762,1.236C61.576,1.255 61.641,1.28 60.669,1.42L62.581,1.27C61.705,1.231 62.595,1.125 63.465,1.022C64.335,0.935 65.184,0.848 64.217,0.797C64.776,0.726 65.926,0.663 67.002,0.644C67.112,0.687 67.284,0.755 68.636,0.719C70.517,0.607 70.068,0.634 71.627,0.541C71.994,0.474 71.422,0.454 71.487,0.403C73.896,0.47 73.587,0.232 75.86,0.254C76.572,0.271 77.63,0.296 78.52,0.317C79.409,0.344 80.127,0.408 80.16,0.461C82.076,0.514 82.078,0.432 81.892,0.336" style="fill-rule:nonzero;"/>
                </g>
            </g>
        </g>
    </g>
</svg>
