<?xml version="1.0" encoding="utf-8"?>
<svg width="100%" height="100%" viewBox="0 0 129 85" version="1.1" style="fill-rule:evenodd;clip-rule:evenodd;stroke-linejoin:round;stroke-miterlimit:2;" xmlns="http://www.w3.org/2000/svg">
  <path d="M 11.191 72.12 C 13.291 74.522 15.828 76.487 18.897 77.805 C 22.549 79.373 26.501 80.101 30.43 80.701 C 50.825 83.816 71.727 83.843 92.113 80.583 C 99.459 79.409 106.845 77.105 112.565 72.349 C 128.147 59.393 129.072 33.701 118.65 17.294 C 115.275 11.98 111.196 8.576 106.641 6.375 C 97.552 1.981 86.565 2.372 75.478 1.928 C 63.413 1.444 51.234 1.021 39.279 3.076 C 30.521 4.581 21.31 6.708 13.898 11.853 C 6.182 17.208 2.896 25.643 2.296 34.792 C 1.935 40.301 2.065 46.947 3.211 53.417" style="fill-rule: nonzero; fill: rgb(254, 187, 8);"/>
  <path d="M 68.073 84.009 C 68.592 83.997 69.112 83.989 69.632 83.963 C 64.591 84.188 59.282 84.177 54.062 83.949 C 59.734 84.336 65.952 84.464 71.835 84.176 C 77.716 83.898 83.255 83.204 87.553 82.209 C 87.804 82.287 88.678 82.267 89.849 82.163 C 91.021 82.064 92.488 81.922 93.952 81.698 C 95.413 81.482 96.841 81.183 97.916 80.933 C 98.988 80.667 99.707 80.459 99.754 80.412 C 101.982 79.681 104.213 78.83 106.37 77.74 C 104.88 78.476 103.357 79.114 101.823 79.675 C 103.357 79.114 104.88 78.476 106.37 77.74 C 108.077 76.888 109.747 75.902 111.334 74.756 C 112.124 74.184 112.903 73.574 113.637 72.919 C 114.003 72.59 114.37 72.26 114.737 71.93 C 115.085 71.579 115.432 71.228 115.783 70.876 C 117.148 69.44 118.432 67.901 119.56 66.234 C 120.685 64.566 121.691 62.804 122.568 60.965 C 126.031 53.576 127.314 45.039 126.499 36.587 C 126.275 34.241 125.741 30.897 124.615 27.171 C 124.038 25.314 123.32 23.364 122.432 21.412 C 121.547 19.458 120.46 17.526 119.242 15.664 C 118.003 13.813 116.585 12.061 115.023 10.524 C 113.467 8.983 111.773 7.665 110.077 6.594 C 106.674 4.442 103.327 3.334 100.984 2.67 L 99.958 2.39 C 99.615 2.304 99.27 2.232 98.926 2.153 C 98.581 2.076 98.236 1.999 97.89 1.921 C 97.543 1.858 97.194 1.794 96.844 1.73 C 98.003 1.938 98.577 2.09 99.153 2.221 C 99.73 2.343 100.301 2.506 101.445 2.826 C 98.549 2.087 95.757 1.694 93.069 1.444 C 90.38 1.197 87.79 1.096 85.254 1.028 C 86.143 1.125 86.298 1.189 88.413 1.392 C 87.549 1.32 86.689 1.275 85.827 1.215 C 83.461 1.281 78.058 1.149 75.528 1.117 C 76.077 1.047 74.077 0.946 72.311 0.867 L 73.007 0.954 C 66.306 0.646 58.488 0.548 52.463 0.849 C 51.624 0.893 50.993 0.891 50.61 0.88 C 48.687 1.031 46.764 1.2 44.849 1.446 C 45.063 1.366 43.865 1.45 42.958 1.561 C 42.051 1.661 41.431 1.729 42.799 1.505 C 40.651 1.851 38.5 2.244 36.39 2.651 C 34.276 3.064 32.19 3.522 30.2 4.096 C 26.612 4.984 23.008 6.156 19.532 7.755 C 17.801 8.566 16.107 9.491 14.485 10.546 C 14.085 10.819 13.674 11.072 13.282 11.364 L 12.112 12.247 C 11.364 12.878 10.615 13.512 9.937 14.222 C 8.56 15.619 7.343 17.177 6.315 18.847 C 5.28 20.515 4.468 22.308 3.811 24.142 C 3.158 25.979 2.679 27.868 2.341 29.772 C 2.003 31.675 1.844 33.601 1.753 35.504 L 1.821 35.135 C 1.701 37.799 1.75 40.308 1.892 42.95 C 2.036 45.593 2.282 48.37 2.706 51.575 C 2.806 52.139 3.636 56.793 6.394 61.983 C 8.674 66.275 7.576 61.428 7.553 61.378 C 7.553 61.378 5.108 55.438 4.552 53.944 C 4.369 53.453 4.216 52.41 4.216 52.41 C 3.702 49.075 3.436 45.69 3.378 42.292 C 3.348 40.593 3.369 38.891 3.44 37.189 C 3.478 36.34 3.522 35.485 3.591 34.642 L 3.703 33.385 C 3.744 32.966 3.808 32.551 3.859 32.134 C 4.381 27.693 5.745 23.123 8.341 19.266 C 9.625 17.338 11.193 15.595 12.981 14.119 C 14.763 12.655 16.791 11.402 18.86 10.335 C 23.338 8.037 28.436 6.468 33.462 5.353 C 35.972 4.796 38.483 4.305 40.882 3.909 C 43.284 3.518 45.608 3.21 47.802 3.008 C 48.847 2.893 49.754 2.863 50.619 2.827 C 51.485 2.817 52.314 2.808 53.212 2.798 C 55.237 2.697 57.404 2.649 59.66 2.632 C 61.916 2.625 64.259 2.656 66.639 2.713 C 71.391 2.825 76.301 3.071 80.917 3.149 C 80.744 3.143 80.577 3.136 80.466 3.132 C 85.36 3.26 89.002 3.489 93.679 4.012 C 93.66 3.973 94.382 4.071 94.735 4.1 C 94.832 4.142 95.34 4.199 96.138 4.35 C 96.538 4.421 97.013 4.504 97.551 4.599 C 98.085 4.71 98.681 4.835 99.327 4.97 C 101.891 5.561 105.202 6.6 108.206 8.313 C 109.711 9.158 111.124 10.171 112.376 11.237 C 113.628 12.303 114.702 13.437 115.585 14.482 C 117.353 16.576 118.335 18.318 118.535 18.677 C 118.663 18.884 118.793 19.094 118.926 19.308 C 119.048 19.528 119.172 19.751 119.298 19.976 C 121.639 24.344 123.128 29.235 123.84 34.03 C 124.559 38.833 124.514 43.537 124.007 47.726 C 123.853 49.555 123.531 51.601 123.232 53.125 C 122.766 54.549 122.84 54.871 122.238 56.578 C 121.766 57.627 121.349 58.562 120.958 59.324 C 120.596 60.1 120.267 60.701 120.061 61.124 C 119.645 61.969 119.667 62.073 120.249 61.047 C 119.426 62.735 118.461 64.361 117.372 65.829 C 116.297 67.304 115.142 68.658 113.949 69.818 C 112.874 70.928 111.717 71.945 110.476 72.879 C 109.952 73.284 109.514 73.557 109.139 73.775 C 108.769 74 108.447 74.148 108.139 74.281 C 106.689 75.155 106.133 75.389 105.571 75.643 C 105.29 75.772 104.999 75.895 104.572 76.065 C 104.359 76.152 104.114 76.254 103.818 76.376 C 103.519 76.49 103.17 76.624 102.754 76.783 C 102.331 76.883 100.255 77.71 98.072 78.332 C 95.898 78.98 93.644 79.453 93.139 79.525 L 93.716 79.401 C 91.67 79.771 89.91 79.927 88.189 80.134 C 86.458 80.286 84.745 80.482 82.702 80.682 C 77.031 81.267 71.076 81.665 65.216 81.798 C 59.359 81.925 53.599 81.784 48.327 81.426 C 48.271 81.485 48.854 81.517 49.464 81.555 C 50.074 81.593 50.713 81.618 50.77 81.706 C 44.541 81.38 38.297 80.589 32.079 79.671 C 30.96 79.482 29.601 79.209 29.102 79.084 C 27.149 78.701 27.932 78.948 26.511 78.66 L 26.342 78.511 C 25.299 78.346 24.56 78.136 23.847 77.912 C 23.139 77.683 22.448 77.46 21.521 77.161 C 21.41 77.171 20.737 76.946 20.102 76.69 C 20.113 76.624 19.612 76.436 19.162 76.23 C 18.705 76.029 18.274 75.811 18.343 75.783 L 18.322 75.782 C 17.965 75.596 17.709 75.466 17.296 75.197 C 17.127 75.108 16.604 74.83 15.934 74.399 C 15.266 73.967 14.451 73.379 13.689 72.716 C 13.498 72.551 13.308 72.383 13.125 72.212 C 13.033 72.127 12.941 72.043 12.854 71.956 L 12.721 71.828 L 12.484 71.585 C 12.325 71.417 12.168 71.251 12.014 71.089 L 11.786 70.849 C 10.689 67.584 7.605 61.378 7.553 61.378 L 6.394 61.983 C 5.97 62.052 10.868 72.43 10.938 72.418 C 10.972 72.412 11.008 72.406 11.045 72.4 C 11.062 72.4 11.084 72.388 11.098 72.397 L 11.136 72.438 C 11.242 72.547 11.356 72.665 11.475 72.789 C 11.617 72.93 11.767 73.077 11.921 73.23 C 12.246 73.54 12.596 73.864 12.958 74.168 C 14.393 75.411 15.992 76.327 15.883 76.275 C 16.771 76.826 16.954 77.027 17.891 77.437 C 17.921 77.437 17.363 77.184 16.567 76.738 C 15.771 76.291 14.744 75.636 13.822 74.905 C 12.893 74.187 12.061 73.391 11.541 72.861 C 11.313 72.644 11.167 72.447 11.07 72.401 C 10.95 72.422 10.944 72.425 11.087 72.403 C 11.149 72.475 11.291 72.648 11.512 72.877 C 11.767 73.145 12.134 73.518 12.566 73.909 C 13.43 74.702 14.605 75.622 15.87 76.382 C 18.391 77.947 21.226 78.708 21.507 78.869 C 22.246 79.103 23.151 79.336 22.991 79.232 C 24.248 79.594 22.582 79.241 23.471 79.53 C 23.493 79.526 23.404 79.483 23.692 79.56 L 24.547 79.844 C 26.548 80.229 29.47 80.832 31.594 81.002 C 30.975 80.976 30.264 80.992 28.901 80.827 L 28.669 80.757 C 28.474 80.745 27.358 80.57 27.379 80.631 C 28.658 80.897 29.761 81.067 31.125 81.203 C 31.373 81.255 31.661 81.315 31.856 81.355 C 31.852 81.347 31.832 81.338 31.838 81.33 C 32.276 81.429 32.229 81.428 32.064 81.427 C 32.042 81.428 32.015 81.429 31.968 81.427 C 32.752 81.723 37.045 82.024 39.398 82.343 C 40.097 82.392 39.466 82.322 40.337 82.38 C 41.541 82.547 42.56 82.668 43.594 82.778 C 44.628 82.889 45.676 83.016 46.943 83.109 C 47.757 83.09 47.822 83.065 46.85 82.925 L 48.762 83.075 C 47.886 83.114 48.776 83.22 49.646 83.323 C 50.516 83.41 51.365 83.497 50.398 83.548 C 50.957 83.619 52.107 83.682 53.183 83.701 C 53.293 83.658 53.465 83.59 54.817 83.626 C 56.698 83.738 56.249 83.711 57.808 83.804 C 58.175 83.871 57.603 83.891 57.668 83.942 C 60.077 83.875 59.768 84.113 62.041 84.091 C 62.753 84.074 63.811 84.049 64.701 84.028 C 65.59 84.001 66.308 83.937 66.341 83.884 C 68.257 83.831 68.259 83.913 68.073 84.009" style="fill-rule:nonzero;"/>
</svg>