<?xml version="1.0" encoding="UTF-8" standalone="no"?>
<!DOCTYPE svg PUBLIC "-//W3C//DTD SVG 1.1//EN" "http://www.w3.org/Graphics/SVG/1.1/DTD/svg11.dtd">
<svg width="100%" height="100%" viewBox="0 0 31 23" version="1.1" xmlns="http://www.w3.org/2000/svg" xmlns:xlink="http://www.w3.org/1999/xlink" xml:space="preserve" xmlns:serif="http://www.serif.com/" style="fill-rule:evenodd;clip-rule:evenodd;stroke-linejoin:round;stroke-miterlimit:2;">
    <g transform="matrix(1,0,0,1,-392,-131)">
        <g id="pop_L" transform="matrix(1.13489,0,0,1.0821,-17.3932,73.722)">
            <rect x="360.949" y="53.049" width="26.434" height="20.331" style="fill:none;"/>
            <g transform="matrix(0.88114,0,0,0.924128,20.5742,-25.2252)">
                <g>
                    <g transform="matrix(1,0,0,-1,388.072,116.844)">
                        <path d="M0.395,11.321C10.591,10.726 18.665,11.155 25.01,12.077C25.517,11.497 26.935,13.661 26.251,15.673C25.04,19.233 23.577,25.295 21.769,29.169C20.364,32.178 20.211,31.291 17.03,30.78C11.075,23.114 2.531,14.44 0.12,12.029C-0.133,11.776 0.038,11.342 0.395,11.321" style="fill:white;fill-rule:nonzero;"/>
                    </g>
                    <g transform="matrix(1,0,0,-1,388.072,116.992)">
                        <path d="M16.86,31.051C16.859,31.018 16.891,30.976 16.864,30.95L16.8,30.865L16.674,30.693L16.407,30.333C16.215,30.078 16.024,29.821 15.832,29.562C15.438,29.052 15.041,28.538 14.65,28.031C14.253,27.529 13.86,27.033 13.481,26.554C11.958,24.646 10.62,23.029 10.106,22.258C8.337,20.275 7.098,18.887 5.867,17.508C4.631,16.134 3.397,14.775 1.59,12.891C1.851,13.108 1.765,12.984 1.519,12.704C1.393,12.565 1.23,12.386 1.053,12.189C0.963,12.092 0.868,11.991 0.772,11.888L0.629,11.734L0.611,11.714L0.601,11.705L0.599,11.702L0.598,11.701C0.632,11.666 0.297,12.001 0.438,11.86L0.437,11.862C0.432,11.868 0.424,11.874 0.417,11.879C0.41,11.886 0.399,11.891 0.399,11.891C0.396,11.886 0.449,11.895 0.429,11.891C0.41,11.883 0.41,11.853 0.422,11.915L0.439,12.174L0.461,12.173L0.502,12.173C0.529,12.172 0.555,12.172 0.58,12.171C0.631,12.171 0.679,12.17 0.723,12.17C0.811,12.17 0.883,12.17 0.939,12.171C1.049,12.173 1.085,12.181 1.012,12.196C0.976,12.203 0.914,12.212 0.82,12.224C0.772,12.229 0.717,12.235 0.656,12.242C0.624,12.245 0.59,12.249 0.555,12.252L0.5,12.258L0.472,12.261L0.457,12.262L0.45,12.263L0.444,12.263C0.434,12.111 0.463,12.605 0.422,11.922C0.417,11.863 0.408,11.875 0.422,11.885C0.436,11.897 0.436,11.891 0.417,11.89C0.4,11.887 0.386,11.9 0.415,11.881L0.429,11.87L0.717,11.584L0.767,11.629L0.862,11.718C1.112,11.954 1.333,12.163 1.533,12.352C1.931,12.734 2.241,13.048 2.539,13.349C3.133,13.954 3.679,14.516 4.751,15.527L4.659,15.494C7.069,17.937 9.437,20.426 11.752,22.975C12.903,24.256 14.05,25.541 15.168,26.86C15.731,27.514 16.28,28.185 16.833,28.85L17.758,30.002L18.26,30.66L18.177,31.192" style="fill-rule:nonzero;"/>
                    </g>
                    <g transform="matrix(1,0,0,-1,388.072,116.992)">
                        <path d="M24.757,11.927C24.765,11.928 25.336,11.951 25.655,12.132C25.951,12.3 25.993,12.767 26.056,12.954C25.603,13.601 25.324,13.567 25.324,13.567C24.9,13.498 24.493,13.432 24.111,13.369C23.253,13.219 22.61,13.106 22.4,13.069L22.013,13.046C20.874,12.914 20.392,12.789 21.062,12.829L19.651,12.703L19.813,12.724L18.408,12.617C18.148,12.609 17.851,12.645 18.247,12.725C17.453,12.625 16.559,12.548 15.761,12.528C17.983,12.566 20.744,12.678 23.064,12.851C22.122,12.686 20.397,12.574 19.364,12.479C18.125,12.446 15.582,12.353 13.601,12.351C13.166,12.334 12.869,12.182 11.88,12.227C11.396,12.309 10.764,12.203 9.942,12.269C10.886,12.32 11.808,12.314 12.764,12.33C12.598,12.43 10.438,12.361 9.682,12.395C9.326,12.356 7.481,12.403 6.322,12.4C6.828,12.492 5.387,12.486 4.701,12.568C3.92,12.601 3.419,12.588 3.735,12.536C3.477,12.421 6.846,12.37 5.752,12.282C5.466,12.346 3.933,12.369 3.108,12.405C3.095,12.343 3.67,12.334 3.132,12.297C2.214,12.344 1.237,12.329 0.713,12.419C0.886,12.427 1.264,12.396 1.533,12.38C0.935,12.414 2.561,12.427 4.138,12.464C5.716,12.506 7.245,12.572 6.474,12.569C6.674,12.536 4.973,12.476 3.318,12.462C1.663,12.441 0.054,12.462 0.451,12.434C1.179,12.365 -0.077,12.35 0.677,12.288L1.519,12.319C2.549,12.238 2.967,12.119 2.602,12.09C1.737,12.131 2.971,12.185 4.233,12.231C5.494,12.286 6.785,12.347 6.046,12.332L6.645,12.291C6.019,12.257 4.344,12.274 3.701,12.367C3.695,12.306 2.851,12.317 2.15,12.328L1.903,12.351C1.179,12.358 0.169,12.426 0.633,12.32C4.88,12.106 -2.196,11.843 1.92,11.59C0.198,11.818 2.508,11.689 4.323,11.643C4.497,11.595 5.302,11.492 6.608,11.433C7.739,11.423 7.275,11.47 7.491,11.501C8.117,11.462 9.316,11.431 9.158,11.36C10.04,11.449 10.568,11.304 11.626,11.353C12.557,11.409 11.563,11.389 12.223,11.442C13.62,11.461 15.58,11.523 16.692,11.579C17.125,11.531 18.444,11.51 17.495,11.338C15.374,11.225 18.294,11.549 16.089,11.402C17.047,11.296 14.138,11.26 13.739,11.144C14.447,11.094 15.875,11.158 17.067,11.248L16.826,11.255C17.877,11.334 19.975,11.525 21.116,11.565C20.854,11.486 21.354,11.493 20.584,11.406C21.066,11.447 21.548,11.493 22.03,11.545C22.212,11.582 22.398,11.62 21.98,11.586C22.657,11.698 23.339,11.766 23.866,11.798C23.884,11.793 24.026,11.811 24.236,11.843C24.327,11.857 24.436,11.874 24.559,11.894C24.621,11.904 24.687,11.915 24.757,11.927Z" style="fill-rule:nonzero;"/>
                    </g>
                </g>
            </g>
        </g>
    </g>
</svg>
