<?xml version="1.0" encoding="utf-8"?>
<svg width="100%" height="100%" viewBox="0 0 31 23" version="1.1" style="fill-rule:evenodd;clip-rule:evenodd;stroke-linejoin:round;stroke-miterlimit:2;" xmlns="http://www.w3.org/2000/svg">
  <path d="M 2.696 1.608 C 12.892 1.013 20.966 1.442 27.311 2.364 C 27.818 1.784 29.236 3.948 28.552 5.96 C 27.341 9.52 25.878 15.582 24.07 19.456 C 22.665 22.465 22.512 21.578 19.331 21.067 C 13.376 13.401 4.832 4.727 2.421 2.316 C 2.168 2.063 2.339 1.629 2.696 1.608" style="fill-rule: nonzero; fill: rgb(254, 187, 8);" transform="matrix(-1, 0, 0, -1, 31.035413, 22.930044)"/>
  <path d="M 26.936 21.067 C 26.935 21.034 26.967 20.992 26.94 20.966 L 26.876 20.881 L 26.75 20.709 L 26.483 20.349 C 26.291 20.094 26.1 19.837 25.908 19.578 C 25.514 19.068 25.117 18.554 24.726 18.047 C 24.329 17.545 23.936 17.049 23.557 16.57 C 22.034 14.662 20.696 13.045 20.182 12.274 C 18.413 10.291 17.174 8.903 15.943 7.524 C 14.707 6.15 13.473 4.791 11.666 2.907 C 11.927 3.124 11.841 3 11.595 2.72 C 11.469 2.581 11.306 2.402 11.129 2.205 C 11.039 2.108 10.944 2.007 10.848 1.904 L 10.705 1.75 L 10.687 1.73 L 10.677 1.721 L 10.675 1.718 L 10.674 1.717 C 10.708 1.682 10.373 2.017 10.514 1.876 L 10.513 1.878 C 10.508 1.884 10.5 1.89 10.493 1.895 C 10.486 1.902 10.475 1.907 10.475 1.907 C 10.472 1.902 10.525 1.911 10.505 1.907 C 10.486 1.899 10.486 1.869 10.498 1.931 L 10.515 2.19 L 10.537 2.189 L 10.578 2.189 C 10.605 2.188 10.631 2.188 10.656 2.187 C 10.707 2.187 10.755 2.186 10.799 2.186 C 10.887 2.186 10.959 2.186 11.015 2.187 C 11.125 2.189 11.161 2.197 11.088 2.212 C 11.052 2.219 10.99 2.228 10.896 2.24 C 10.848 2.245 10.793 2.251 10.732 2.258 C 10.7 2.261 10.666 2.265 10.631 2.268 L 10.576 2.274 L 10.548 2.277 L 10.533 2.278 L 10.526 2.279 L 10.52 2.279 C 10.51 2.127 10.539 2.621 10.498 1.938 C 10.493 1.879 10.484 1.891 10.498 1.901 C 10.512 1.913 10.512 1.907 10.493 1.906 C 10.476 1.903 10.462 1.916 10.491 1.897 L 10.505 1.886 L 10.793 1.6 L 10.843 1.645 L 10.938 1.734 C 11.188 1.97 11.409 2.179 11.609 2.368 C 12.007 2.75 12.317 3.064 12.615 3.365 C 13.209 3.97 13.755 4.532 14.827 5.543 L 14.735 5.51 C 17.145 7.953 19.513 10.442 21.828 12.991 C 22.979 14.272 24.126 15.557 25.244 16.876 C 25.807 17.53 26.356 18.201 26.909 18.866 L 27.834 20.018 L 28.336 20.676 L 28.253 21.208" style="fill-rule:nonzero;" transform="matrix(-1, 0, 0, -1, 38.810251, 22.808)"/>
  <path d="M 27.045 20.025 C 27.053 20.026 27.624 20.049 27.943 20.23 C 28.239 20.398 28.281 20.865 28.344 21.052 C 27.891 21.699 27.612 21.665 27.612 21.665 C 27.188 21.596 26.781 21.53 26.399 21.467 C 25.541 21.317 24.898 21.204 24.688 21.167 L 24.301 21.144 C 23.162 21.012 22.68 20.887 23.35 20.927 L 21.939 20.801 L 22.101 20.822 L 20.696 20.715 C 20.436 20.707 20.139 20.743 20.535 20.823 C 19.741 20.723 18.847 20.646 18.049 20.626 C 20.271 20.664 23.032 20.776 25.352 20.949 C 24.41 20.784 22.685 20.672 21.652 20.577 C 20.413 20.544 17.87 20.451 15.889 20.449 C 15.454 20.432 15.157 20.28 14.168 20.325 C 13.684 20.407 13.052 20.301 12.23 20.367 C 13.174 20.418 14.096 20.412 15.052 20.428 C 14.886 20.528 12.726 20.459 11.97 20.493 C 11.614 20.454 9.769 20.501 8.61 20.498 C 9.116 20.59 7.675 20.584 6.989 20.666 C 6.208 20.699 5.707 20.686 6.023 20.634 C 5.765 20.519 9.134 20.468 8.04 20.38 C 7.754 20.444 6.221 20.467 5.396 20.503 C 5.383 20.441 5.958 20.432 5.42 20.395 C 4.502 20.442 3.525 20.427 3.001 20.517 C 3.174 20.525 3.552 20.494 3.821 20.478 C 3.223 20.512 4.849 20.525 6.426 20.562 C 8.004 20.604 9.533 20.67 8.762 20.667 C 8.962 20.634 7.261 20.574 5.606 20.56 C 3.951 20.539 2.342 20.56 2.739 20.532 C 3.467 20.463 2.211 20.448 2.965 20.386 L 3.807 20.417 C 4.837 20.336 5.255 20.217 4.89 20.188 C 4.025 20.229 5.259 20.283 6.521 20.329 C 7.782 20.384 9.073 20.445 8.334 20.43 L 8.933 20.389 C 8.307 20.355 6.632 20.372 5.989 20.465 C 5.983 20.404 5.139 20.415 4.438 20.426 L 4.191 20.449 C 3.467 20.456 2.457 20.524 2.921 20.418 C 7.168 20.204 0.092 19.941 4.208 19.688 C 2.486 19.916 4.796 19.787 6.611 19.741 C 6.785 19.693 7.59 19.59 8.896 19.531 C 10.027 19.521 9.563 19.568 9.779 19.599 C 10.405 19.56 11.604 19.529 11.446 19.458 C 12.328 19.547 12.856 19.402 13.914 19.451 C 14.845 19.507 13.851 19.487 14.511 19.54 C 15.908 19.559 17.868 19.621 18.98 19.677 C 19.413 19.629 20.732 19.608 19.783 19.436 C 17.662 19.323 20.582 19.647 18.377 19.5 C 19.335 19.394 16.426 19.358 16.027 19.242 C 16.735 19.192 18.163 19.256 19.355 19.346 L 19.114 19.353 C 20.165 19.432 22.263 19.623 23.404 19.663 C 23.142 19.584 23.642 19.591 22.872 19.504 C 23.354 19.545 23.836 19.591 24.318 19.643 C 24.5 19.68 24.686 19.718 24.268 19.684 C 24.945 19.796 25.627 19.864 26.154 19.896 C 26.172 19.891 26.314 19.909 26.524 19.941 C 26.615 19.955 26.724 19.972 26.847 19.992 C 26.909 20.002 26.975 20.013 27.045 20.025 Z" style="fill-rule:nonzero;" transform="matrix(-1, 0, 0, -1, 31.02202, 40.88979)"/>
</svg>